<?xml version="1.0" encoding="utf-8"?>
<!-- Generator: Adobe Illustrator 18.1.1, SVG Export Plug-In . SVG Version: 6.00 Build 0)  -->
<svg version="1.1" id="Layer_1" xmlns="http://www.w3.org/2000/svg" xmlns:xlink="http://www.w3.org/1999/xlink" x="0px" y="0px"
	 viewBox="0 0 176.5 45" enable-background="new 0 0 176.5 45" xml:space="preserve">
<g>
	<path fill-rule="evenodd" clip-rule="evenodd" fill="#69D0E8" d="M21.8,5.4c-4.9,3-10.1,5-15.8,5.9c1.6,11.7,6,22.7,15.8,29.9
		C31.6,33.9,36,23,37.6,11.3C32,10.4,26.7,8.4,21.8,5.4z M19.2,14.6h-0.5c-0.7,0-0.9,0.1-1,0.2c-0.1,0.1-0.2,0.4-0.2,1.3
		c0,1.5,0,2.5-0.1,2.9c-0.1,0.7-0.3,1.2-0.6,1.6c-0.2,0.3-0.5,0.5-0.8,0.7c0.5,0.3,0.8,0.6,1.1,1.1c0.3,0.6,0.5,1.5,0.5,2.8
		c0,1.1,0,1.8,0,2c0,0.3,0.1,0.5,0.3,0.6c0.1,0.1,0.3,0.2,0.9,0.2h0.5v1.9h-0.8c-0.6,0-1-0.1-1.3-0.2c-0.4-0.2-0.8-0.4-1-0.7
		c-0.3-0.3-0.5-0.8-0.5-1.3c-0.1-0.5-0.1-1.2-0.1-2.3c0-1-0.1-1.7-0.1-2.1c-0.1-0.3-0.2-0.6-0.5-0.8c-0.2-0.2-0.5-0.3-0.9-0.3
		l-0.3,0v-2l0.3,0c0.4,0,0.7-0.1,0.9-0.3c0.2-0.2,0.4-0.5,0.5-0.8c0.1-0.4,0.1-1.1,0.1-2c0-1,0-1.6,0-1.9c0.1-0.5,0.2-1,0.3-1.3
		c0.2-0.3,0.4-0.6,0.6-0.8c0.2-0.2,0.5-0.4,0.9-0.5c0.3-0.1,0.6-0.1,1.1-0.1h0.8V14.6z M30.5,22.3c-0.4,0-0.7,0.1-0.9,0.3
		c-0.2,0.2-0.4,0.5-0.5,0.8c-0.1,0.4-0.1,1-0.1,2c0,1,0,1.6,0,1.9c-0.1,0.5-0.2,1-0.3,1.3c-0.2,0.3-0.4,0.6-0.6,0.8
		c-0.2,0.2-0.5,0.4-0.9,0.5c-0.2,0.1-0.6,0.1-1.2,0.1h-0.8V28h0.5c0.7,0,0.9-0.1,1-0.2c0.1-0.1,0.2-0.3,0.2-1.3c0-1.5,0-2.4,0.1-2.8
		c0.1-0.7,0.3-1.2,0.6-1.7c0.2-0.3,0.5-0.5,0.8-0.7c-0.5-0.3-0.8-0.7-1.1-1.1c-0.3-0.6-0.4-1.5-0.4-2.8c0-0.9,0-1.8,0-2
		c0-0.3-0.1-0.5-0.2-0.6c-0.1-0.1-0.3-0.2-0.9-0.2h-0.5v-1.9H26c0.6,0,1,0.1,1.3,0.2c0.4,0.1,0.8,0.4,1,0.7c0.3,0.3,0.4,0.8,0.5,1.3
		c0.1,0.5,0.1,1.2,0.1,2.3c0,1,0.1,1.7,0.1,2.1c0.1,0.3,0.2,0.6,0.5,0.8c0.2,0.2,0.5,0.3,0.9,0.3l0.3,0v2L30.5,22.3z"/>
	<g>
		<path fill-rule="evenodd" clip-rule="evenodd" fill="#69D0E8" d="M142.6,16.7v8.7c0,2.6,0.7,4.2,2,5.1c1.3,0.8,2.8,1.3,4.4,1.3
			c1.6,0,3.1-0.4,4.5-1.2c1.4-0.8,2.1-2.5,2.1-5.2v-8.7h-1.9c-0.6,0-1,0.2-1.4,0.6c-0.4,0.4-0.5,0.8-0.5,1.3v7.6
			c0,0.9-0.3,1.5-0.8,1.9c-0.5,0.4-1.1,0.6-1.8,0.6c-0.7,0-1.3-0.2-1.8-0.6c-0.5-0.4-0.8-1.1-0.8-1.9v-9.5H142.6z"/>
		<path fill-rule="evenodd" clip-rule="evenodd" fill="#69D0E8" d="M89.5,12.4v19.1h3.9V14.2c0-0.5-0.2-1-0.6-1.3
			c-0.4-0.4-0.8-0.5-1.3-0.5H89.5z"/>
		<path fill-rule="evenodd" clip-rule="evenodd" fill="#69D0E8" d="M107.7,18.4c-1.2-1.3-2.9-2-5.2-2c-2.1,0-3.8,0.7-4.9,2.1
			c-1.2,1.3-1.7,3.2-1.7,5.5c0,2.5,0.6,4.4,1.8,5.7c1.2,1.4,2.8,2.1,4.9,2.1c1.7,0,3.2-0.4,4.3-1.3c1.1-0.8,1.9-2,2.3-3.6h-2.8
			c-0.4,0-0.8,0.1-1,0.3c-0.2,0.2-0.4,0.3-0.4,0.4c-0.1,0.1-0.2,0.2-0.3,0.3c-0.1,0.1-0.2,0.2-0.3,0.2c-0.4,0.3-1,0.4-1.6,0.4
			c-1,0-1.7-0.3-2.2-0.9c-0.5-0.6-0.8-1.4-0.8-2.6h9.6c0-0.1,0.1-0.2,0.1-0.4v-0.2v-0.4C109.5,21.7,108.9,19.8,107.7,18.4z
			 M99.8,22.6c0-1,0.3-1.7,0.8-2.2c0.5-0.5,1.2-0.8,2-0.8c0.9,0,1.6,0.3,2,0.8c0.4,0.5,0.7,1.2,0.8,2.2H99.8z"/>
		<path fill-rule="evenodd" clip-rule="evenodd" fill="#69D0E8" d="M169.7,18.4c-1.2-1.3-2.9-2-5.2-2c-2.1,0-3.8,0.7-4.9,2.1
			c-1.2,1.3-1.7,3.2-1.7,5.5c0,2.5,0.6,4.4,1.8,5.7c1.2,1.4,2.8,2.1,4.9,2.1c1.7,0,3.2-0.4,4.3-1.3c1.1-0.8,1.9-2,2.3-3.6h-2.8
			c-0.4,0-0.8,0.1-1,0.3c-0.2,0.2-0.4,0.3-0.4,0.4c-0.1,0.1-0.2,0.2-0.3,0.3c-0.1,0.1-0.2,0.2-0.3,0.2c-0.4,0.3-1,0.4-1.6,0.4
			c-1,0-1.7-0.3-2.2-0.9c-0.5-0.6-0.8-1.4-0.8-2.6h9.6c0-0.1,0.1-0.2,0.1-0.4v-0.2v-0.4C171.5,21.7,170.9,19.8,169.7,18.4z
			 M161.8,22.6c0-1,0.3-1.7,0.8-2.2c0.5-0.5,1.2-0.8,2-0.8c0.9,0,1.6,0.3,2,0.8c0.4,0.5,0.7,1.2,0.8,2.2H161.8z"/>
		<path fill-rule="evenodd" clip-rule="evenodd" fill="#69D0E8" d="M122.3,17.5c-1-0.7-2.6-1.1-4.7-1.1c-1.8,0-3.3,0.4-4.3,1.3
			c-0.9,0.7-1.4,1.7-1.6,2.8h3.7c0.2-0.4,0.5-0.7,0.9-0.9c0.4-0.2,0.9-0.2,1.4-0.2c0.5,0,1,0.1,1.6,0.3c0.6,0.2,0.9,0.5,0.9,1.1
			c0,0.7-0.8,1.2-2.4,1.4c-0.3,0-0.6,0.1-0.9,0.1c-0.3,0.1-0.5,0.1-0.7,0.1c-1.4,0.2-2.6,0.7-3.5,1.3c-0.9,0.7-1.4,1.8-1.4,3.3
			c0,1.7,0.5,2.9,1.5,3.6c1,0.7,2.2,1.1,3.5,1.1c0.7,0,1.4,0,2.3-0.1c0.9-0.1,1.7-0.3,2.5-0.8c0.7-0.4,1.4-1,1.9-1.8
			c0.5-0.8,0.8-2,0.8-3.5v-5.1C123.9,19.2,123.4,18.2,122.3,17.5z M120.1,25.5c0,1-0.3,1.8-0.9,2.4c-0.6,0.6-1.4,0.9-2.4,0.9
			c-0.6,0-1.1-0.1-1.4-0.4c-0.3-0.3-0.5-0.8-0.5-1.3c0-0.4,0.1-0.8,0.4-1.2c0.3-0.3,0.8-0.5,1.4-0.7l1.3-0.3
			c0.9-0.2,1.6-0.5,2.2-0.7V25.5z"/>
		<path fill-rule="evenodd" clip-rule="evenodd" fill="#69D0E8" d="M137.7,17.8c-1.5-1-3.2-1.4-4.9-1.4c-2.3,0-4,0.7-5.1,2.1
			c-1.1,1.4-1.6,3.3-1.6,5.6c0,2,0.4,3.5,1.2,4.7c0.8,1.2,1.8,2,2.9,2.5c1.1,0.4,2.2,0.5,3.4,0.3c1.1-0.3,2-0.9,2.7-1.9v0.9
			c-0.1,1.2-0.4,2.1-0.9,2.7c-0.5,0.6-1.1,1-1.7,1.1c-0.6,0.1-1.2,0.1-1.8-0.2c-0.6-0.3-1.1-0.7-1.4-1.2h-4c0.8,3.2,2.9,4.8,6.3,4.8
			c1.8,0,3.4-0.5,4.9-1.4c1.5-0.9,2.3-2.7,2.3-5.3v-7.8C140,20.6,139.2,18.8,137.7,17.8z M136.1,25.5c-0.2,0.9-0.4,1.5-0.7,1.9
			c-0.7,1-1.8,1.3-3.3,1c-1.5-0.3-2.2-1.7-2.2-4.2c0-1.2,0.2-2.2,0.7-3.2c0.4-0.9,1.3-1.4,2.6-1.4c0.9,0,1.6,0.3,2.1,1
			c0.5,0.7,0.8,1.4,0.9,2.3C136.2,23.8,136.2,24.7,136.1,25.5z"/>
		<path fill-rule="evenodd" clip-rule="evenodd" fill="#69D0E8" d="M54.7,12.9c-0.4-0.4-0.8-0.6-1.3-0.6h-1.9v6.3
			c-0.4-0.7-1-1.3-1.8-1.7c-0.7-0.4-1.5-0.6-2.4-0.6c-1.7,0-3.2,0.7-4.3,2.2c-1.1,1.4-1.6,3.3-1.6,5.6c0,2.4,0.5,4.2,1.6,5.6
			c0.6,0.7,1.3,1.2,2.2,1.5c0.9,0.3,1.9,0.5,2.8,0.5c1.8,0,3.4-0.5,5-1.4c1.5-0.9,2.3-2.7,2.3-5.3V14.2C55.2,13.7,55,13.3,54.7,12.9
			z M50.7,27.4c-0.6,0.8-1.3,1.2-2.3,1.2c-1,0-1.8-0.4-2.4-1.2c-0.6-0.8-0.8-1.9-0.8-3.4c0-1.3,0.3-2.4,0.8-3.1
			c0.6-0.8,1.3-1.2,2.3-1.2c1,0,1.8,0.4,2.4,1.1c0.6,0.8,0.8,1.8,0.8,3.2C51.4,25.5,51.2,26.6,50.7,27.4z"/>
		<path fill-rule="evenodd" clip-rule="evenodd" fill="#69D0E8" d="M70.2,18.4c-1.2-1.3-2.9-2-5.2-2c-2.1,0-3.8,0.7-4.9,2.1
			c-1.2,1.3-1.7,3.2-1.7,5.5c0,2.5,0.6,4.4,1.8,5.7c1.2,1.4,2.8,2.1,4.9,2.1c1.7,0,3.2-0.4,4.3-1.3c1.1-0.8,1.9-2,2.3-3.6H69
			c-0.4,0-0.8,0.1-1,0.3c-0.2,0.2-0.4,0.3-0.4,0.4c-0.1,0.1-0.2,0.2-0.3,0.3c-0.1,0.1-0.2,0.2-0.3,0.2c-0.4,0.3-1,0.4-1.6,0.4
			c-1,0-1.7-0.3-2.2-0.9c-0.5-0.6-0.8-1.4-0.8-2.6h9.6c0-0.1,0.1-0.2,0.1-0.4v-0.2v-0.4C72,21.7,71.4,19.8,70.2,18.4z M62.3,22.6
			c0-1,0.3-1.7,0.8-2.2c0.5-0.5,1.2-0.8,2-0.8c0.9,0,1.6,0.3,2.1,0.8c0.4,0.5,0.7,1.2,0.8,2.2H62.3z"/>
		<path fill-rule="evenodd" clip-rule="evenodd" fill="#69D0E8" d="M72.9,16.7L78,31.5H82l5.2-14.8h-2.9c-0.9,0-1.5,0.4-1.8,1.3
			l-2.6,9.1L77,16.7H72.9z"/>
	</g>
</g>
</svg>
