<svg xmlns="http://www.w3.org/2000/svg" viewBox="0 0 170 60"><path d="M39.4 46.5v-5.2h.9v2.3h2.6v-2.3h.9v5.2h-.9v-2.1h-2.6v2.1h-.9zm7.6-1.2l-.5 1.2h-.9l2.3-5.2h.9l2.3 5.2h-.9l-.5-1.2H47zm2.3-.8l-.9-2.2-.9 2.2h1.8zm5 .6l1.2-3.8h.8l1.2 3.8 1.3-3.8h.9l-1.8 5.2H57L55.9 43h-.1l-1.1 3.6h-.9L52 41.4h1l1.3 3.7zm7.8.2l-.5 1.2h-.9l2.3-5.2h.9l2.3 5.2h-.9l-.5-1.2h-2.7zm2.3-.8l-.9-2.2-.9 2.2h1.8zm3.6-3.2h.9v5.2H68v-5.2zm3.5 0h.9v5.2h-.9v-5.2zm3.3.9c-.1-.1-.2-.2-.2-.4s0-.3.1-.4c.1-.1.2-.1.3-.1.1 0 .2 0 .3.1.1.1.1.2.1.3 0 .1 0 .3-.1.4l-.4.6h-.5l.4-.5zm4.5-.2c-.3 0-.5.1-.6.2-.2.1-.2.3-.2.5s.1.4.2.5c.2.1.5.2 1 .4.5.1.9.3 1.2.5.3.2.4.6.4 1s-.2.8-.5 1.1c-.3.3-.8.4-1.4.4-.8 0-1.5-.3-2.2-.8l.6-.7c.5.5 1.1.7 1.6.7.3 0 .5-.1.7-.2.2-.1.3-.3.3-.5s-.1-.4-.2-.5c-.2-.1-.4-.2-.8-.3-.4-.1-.7-.2-.9-.3-.2-.1-.4-.2-.5-.3-.3-.2-.5-.6-.5-1.1 0-.5.2-.9.5-1.1.4-.3.8-.4 1.3-.4.3 0 .7.1 1 .2.3.1.6.3.9.5l-.5.7c-.2-.1-.4-.3-.6-.3-.3-.2-.6-.2-.8-.2zm8.3.1v1.4h2.3v.8h-2.3v2.2h-.9v-5.2h3.5v.8h-2.6zm4.7-.8h.9v5.2h-.9v-5.2zm7.6 1.7c0 .9-.4 1.4-1.1 1.6l1.4 1.9H99l-1.2-1.8h-1.2v1.8h-.9v-5.2h1.9c.8 0 1.4.1 1.7.4s.6.7.6 1.3zm-1.2.7c.2-.2.3-.4.3-.7s-.1-.6-.3-.7c-.2-.1-.5-.2-1-.2h-1.1V44h1.1c.5 0 .9-.1 1-.3zm5.2-1.7c-.3 0-.5.1-.6.2-.2.1-.2.3-.2.5s.1.4.2.5c.2.1.5.2 1 .4.5.1.9.3 1.2.5.3.2.4.6.4 1s-.2.8-.5 1.1c-.3.3-.8.4-1.4.4-.8 0-1.5-.3-2.2-.8l.6-.7c.5.5 1.1.7 1.6.7.3 0 .5-.1.7-.2.2-.1.3-.3.3-.5s-.1-.4-.2-.5c-.2-.1-.4-.2-.8-.3-.4-.1-.7-.2-.9-.3-.2-.1-.4-.2-.5-.3-.3-.2-.5-.6-.5-1.1 0-.5.2-.9.5-1.1.4-.3.8-.4 1.3-.4.3 0 .7.1 1 .2.3.1.6.3.9.5l-.5.7c-.2-.1-.4-.3-.6-.3-.3-.2-.6-.2-.8-.2zm6.2.1v4.4h-.9v-4.4h-1.6v-.8h4v.8h-1.5zm8.4-.1c-.3 0-.5.1-.6.2-.2.1-.2.3-.2.5s.1.4.2.5c.2.1.5.2 1 .4.5.1.9.3 1.2.5.3.2.4.6.4 1s-.2.8-.5 1.1c-.3.3-.8.4-1.4.4-.8 0-1.5-.3-2.2-.8l.6-.7c.5.5 1.1.7 1.6.7.3 0 .5-.1.7-.2.2-.1.3-.3.3-.5s-.1-.4-.2-.5c-.2-.1-.4-.2-.8-.3-.4-.1-.7-.2-.9-.3-.2-.1-.4-.2-.5-.3-.3-.2-.5-.6-.5-1.1 0-.5.2-.9.5-1.1.4-.3.8-.4 1.3-.4.3 0 .7.1 1 .2.3.1.6.3.9.5l-.5.7c-.2-.1-.4-.3-.6-.3-.3-.2-.5-.2-.8-.2zm8.6 3.8c-.5.5-1.2.8-2 .8s-1.4-.3-2-.8c-.5-.5-.8-1.2-.8-1.9 0-.8.3-1.4.8-1.9s1.2-.8 2-.8 1.4.3 2 .8c.5.5.8 1.2.8 1.9 0 .8-.3 1.4-.8 1.9zm-.6-3.3c-.4-.4-.8-.6-1.3-.6s-1 .2-1.3.6c-.4.4-.5.8-.5 1.3s.2 1 .5 1.3c.4.4.8.6 1.3.6s1-.2 1.3-.6c.4-.4.5-.8.5-1.3s-.2-.9-.5-1.3zm4.5-.4v1.4h2.3v.8H131v2.2h-.9v-5.2h3.5v.8H131zm6.7 0v4.4h-.9v-4.4h-1.6v-.8h4v.8h-1.5zm5.3 3l1.2-3.8h.8l1.2 3.8 1.3-3.8h.9l-1.8 5.2h-.9l-1.1-3.6h-.1l-1.1 3.6h-.9l-1.8-5.2h.9l1.4 3.8zm7.8.2l-.5 1.2h-.9l2.3-5.2h.9l2.3 5.2h-.9l-.5-1.2h-2.7zm2.3-.8l-.9-2.2-.9 2.2h1.8zm7.8-1.5c0 .9-.4 1.4-1.1 1.6l1.4 1.9H160l-1.2-1.8h-1.2v1.8h-.9v-5.2h1.9c.8 0 1.4.1 1.7.4s.6.7.6 1.3zm-1.1.7c.2-.2.3-.4.3-.7s-.1-.6-.3-.7c-.2-.1-.5-.2-1-.2h-1.1V44h1.1c.4 0 .8-.1 1-.3zm7.2-2.4v.8h-2.8v1.4h2.5v.8h-2.5v1.4h2.9v.8h-3.8v-5.2h3.7zM43.3 52c.5.5.8 1.1.8 1.9 0 .8-.2 1.5-.7 1.9-.5.5-1.2.7-2.2.7h-1.7v-5.2h1.8c.8 0 1.5.2 2 .7zm-.1 1.9c0-1.2-.7-1.8-2.1-1.8h-.9v3.6h1c.6 0 1.1-.2 1.5-.5s.5-.7.5-1.3zm6.8-2.6v.8h-2.8v1.4h2.5v.8h-2.5v1.4h2.9v.8h-3.8v-5.2H50zm4.7 5.2h-1l-2.1-5.2h1l1.6 3.9 1.6-3.9h1l-2.1 5.2zm7.6-5.2v.8h-2.8v1.4H62v.8h-2.5v1.4h2.9v.8h-3.8v-5.2h3.7zm2.4 5.2v-5.2h.9v4.4H68v.8h-3.3zm9.5-.7c-.5.5-1.2.8-2 .8s-1.4-.3-2-.8c-.5-.5-.8-1.2-.8-1.9 0-.8.3-1.4.8-1.9s1.2-.8 2-.8 1.4.3 2 .8c.5.5.8 1.2.8 1.9 0 .8-.2 1.4-.8 1.9zm-.6-3.3c-.4-.4-.8-.6-1.3-.6s-1 .2-1.3.6c-.4.4-.5.8-.5 1.3s.2 1 .5 1.3c.4.4.8.6 1.3.6s1-.2 1.3-.6c.4-.4.5-.8.5-1.3s-.2-.9-.5-1.3zm7.2-.7c.4.3.5.8.5 1.4 0 .6-.2 1.1-.6 1.4-.4.3-.9.4-1.7.4h-.9v1.5h-.9v-5.2H79c.8 0 1.4.2 1.8.5zm-.6 2.1c.2-.2.3-.5.3-.8 0-.4-.1-.6-.3-.8s-.6-.2-1.1-.2h-.9v2.1h1c.4 0 .8-.1 1-.3zm4.2 2.6h-.9v-5.2h1.4l1.6 3.3 1.6-3.3h1.4v5.2h-.9v-4.1L86.8 56h-.5l-1.8-3.6v4.1zm11.2-5.2v.8h-2.8v1.4h2.5v.8h-2.5v1.4h2.9v.8h-3.8v-5.2h3.7zm6.3 0h.9v5.2h-1l-3-3.8v3.8h-.9v-5.2h.9l3 3.9v-3.9zm5.4.8v4.4h-.9v-4.4h-1.6v-.8h4v.8h-1.5zm9.1 4.4h-2.3v-5.2h2c.4 0 .7 0 .9.1.3.1.4.2.6.3.2.3.4.6.4.9 0 .4-.1.7-.4.9-.1.1-.2.1-.2.1s-.1 0-.2.1c.3.1.6.2.8.4s.3.5.3.8c0 .4-.1.7-.4 1-.3.5-.8.6-1.5.6zm-1.4-3h1.1c.6 0 1-.2 1-.6 0-.2-.1-.4-.2-.5-.2-.1-.4-.2-.7-.2H115v1.3zm0 2.2h1.4c.3 0 .6-.1.7-.2s.3-.3.3-.6c0-.5-.4-.7-1.1-.7H115v1.5zm9.9.1c-.5.5-1.2.8-2 .8s-1.4-.3-2-.8c-.5-.5-.8-1.2-.8-1.9 0-.8.3-1.4.8-1.9s1.2-.8 2-.8 1.4.3 2 .8c.5.5.8 1.2.8 1.9-.1.8-.3 1.4-.8 1.9zm-.7-3.3c-.4-.4-.8-.6-1.3-.6s-1 .2-1.3.6c-.4.4-.5.8-.5 1.3s.2 1 .5 1.3c.4.4.8.6 1.3.6s1-.2 1.3-.6c.4-.4.5-.8.5-1.3s-.1-.9-.5-1.3zm8 3.3c-.5.5-1.2.8-2 .8s-1.4-.3-2-.8c-.5-.5-.8-1.2-.8-1.9 0-.8.3-1.4.8-1.9s1.2-.8 2-.8 1.4.3 2 .8c.5.5.8 1.2.8 1.9 0 .8-.2 1.4-.8 1.9zm-.6-3.3c-.4-.4-.8-.6-1.3-.6s-1 .2-1.3.6c-.4.4-.5.8-.5 1.3s.2 1 .5 1.3c.4.4.8.6 1.3.6s1-.2 1.3-.6c.4-.4.5-.8.5-1.3s-.1-.9-.5-1.3zm5.5-.4v4.4h-.9v-4.4h-1.6v-.8h4v.8h-1.5zm6 3.6c.3 0 .6-.1.8-.2.2-.1.4-.3.7-.5l.6.6c-.6.6-1.2.9-2 .9s-1.4-.3-2-.8c-.5-.5-.8-1.1-.8-1.9s.3-1.4.8-1.9 1.2-.8 2-.8 1.5.3 2 .9l-.6.6c-.2-.2-.5-.4-.7-.5s-.5-.1-.8-.1c-.5 0-1 .2-1.3.5-.4.3-.5.8-.5 1.3s.2 1 .5 1.3c.4.5.9.6 1.3.6zm5-.4l-.5 1.2h-.9l2.3-5.2h.9l2.3 5.2h-.9l-.5-1.2h-2.7zm2.3-.8l-.9-2.2-.9 2.2h1.8zm4.5 2h-.9v-5.2h1.4l1.6 3.3 1.6-3.3h1.4v5.2h-1v-4.1l-1.8 3.6h-.5l-1.8-3.6v4.1zm11.1-4.7c.4.3.5.8.5 1.4 0 .6-.2 1.1-.6 1.4-.4.3-.9.4-1.7.4h-.9v1.5h-.9v-5.2h1.8c.9 0 1.5.2 1.8.5zm-.6 2.1c.2-.2.3-.5.3-.8 0-.4-.1-.6-.3-.8s-.6-.2-1.1-.2h-.9v2.1h1c.5 0 .8-.1 1-.3z" fill="#6E7070"/><path d="M18.1 3.4c-4.9 3-10.1 5-15.8 5.9C3.9 21 8.3 32 18.1 39.1 27.8 32 32.2 21 33.9 9.3c-5.7-.9-11-2.9-15.8-5.9zm-2.7 9.2h-.5c-.7 0-.9.1-1 .2-.1.1-.2.4-.2 1.3 0 1.5 0 2.5-.1 2.9-.1.7-.3 1.2-.6 1.6-.2.3-.5.5-.8.7.5.3.8.6 1.1 1.1.3.6.5 1.5.5 2.8v2c0 .3.1.5.3.6.1.1.3.2.9.2h.5v1.9h-.8c-.6 0-1-.1-1.3-.2-.4-.2-.8-.4-1-.7-.3-.3-.5-.8-.5-1.3-.1-.5-.1-1.2-.1-2.3 0-1-.1-1.7-.1-2.1-.1-.3-.2-.6-.5-.8-.2-.2-.5-.3-.9-.3H10v-2h.3c.4 0 .7-.1.9-.3.2-.2.4-.5.5-.8.1-.4.1-1.1.1-2v-1.9c.1-.5.2-1 .3-1.3.2-.3.4-.6.6-.8.2-.2.5-.4.9-.5.3-.1.6-.1 1.1-.1h.8v2.1zm11.4 7.7c-.4 0-.7.1-.9.3-.2.2-.4.5-.5.8-.1.4-.1 1-.1 2v1.9c-.1.5-.2 1-.3 1.3-.2.3-.4.6-.6.8-.2.2-.5.4-.9.5-.2.1-.6.1-1.2.1h-.8v-2h.5c.7 0 .9-.1 1-.2.1-.1.2-.3.2-1.3 0-1.5 0-2.4.1-2.8.1-.7.3-1.2.6-1.7.2-.3.5-.5.8-.7-.5-.3-.8-.7-1.1-1.1-.3-.6-.4-1.5-.4-2.8v-2c0-.3-.1-.5-.2-.6-.1-.1-.3-.2-.9-.2h-.5v-1.9h.8c.6 0 1 .1 1.3.2.4.1.8.4 1 .7.3.3.4.8.5 1.3.1.5.1 1.2.1 2.3 0 1 .1 1.7.1 2.1.1.3.2.6.5.8.2.2.5.3.9.3h.3v2l-.3-.1zm112-5.6v8.7c0 2.6.7 4.2 2 5.1 1.3.8 2.8 1.3 4.4 1.3 1.6 0 3.1-.4 4.5-1.2 1.4-.8 2.1-2.5 2.1-5.2v-8.7h-1.9c-.6 0-1 .2-1.4.6-.4.4-.5.8-.5 1.3v7.6c0 .9-.3 1.5-.8 1.9-.5.4-1.1.6-1.8.6s-1.3-.2-1.8-.6c-.5-.4-.8-1.1-.8-1.9v-9.5h-4zm-53-4.3v19.1h3.9V12.3c0-.5-.2-1-.6-1.3-.4-.4-.8-.5-1.3-.5h-2zm18.1 6c-1.2-1.3-2.9-2-5.2-2-2.1 0-3.8.7-4.9 2.1-1.2 1.3-1.7 3.2-1.7 5.5 0 2.5.6 4.4 1.8 5.7 1.2 1.4 2.8 2.1 4.9 2.1 1.7 0 3.2-.4 4.3-1.3 1.1-.8 1.9-2 2.3-3.6h-2.8c-.4 0-.8.1-1 .3-.2.2-.4.3-.4.4l-.3.3c-.1.1-.2.2-.3.2-.4.3-1 .4-1.6.4-1 0-1.7-.3-2.2-.9-.5-.6-.8-1.4-.8-2.6h9.6c0-.1.1-.2.1-.4V22c0-2.3-.6-4.2-1.8-5.6zM96 20.6c0-1 .3-1.7.8-2.2.5-.5 1.2-.8 2-.8.9 0 1.6.3 2 .8.4.5.7 1.2.8 2.2H96zm70-4.2c-1.2-1.3-2.9-2-5.2-2-2.1 0-3.8.7-4.9 2.1-1.2 1.3-1.7 3.2-1.7 5.5 0 2.5.6 4.4 1.8 5.7 1.2 1.4 2.8 2.1 4.9 2.1 1.7 0 3.2-.4 4.3-1.3 1.1-.8 1.9-2 2.3-3.6h-2.8c-.4 0-.8.1-1 .3-.2.2-.4.3-.4.4l-.3.3c-.1.1-.2.2-.3.2-.4.3-1 .4-1.6.4-1 0-1.7-.3-2.2-.9-.5-.6-.8-1.4-.8-2.6h9.6c0-.1.1-.2.1-.4V22c-.1-2.3-.7-4.2-1.8-5.6zm-7.9 4.2c0-1 .3-1.7.8-2.2.5-.5 1.2-.8 2-.8.9 0 1.6.3 2 .8.4.5.7 1.2.8 2.2h-5.6zm-39.6-5.1c-1-.7-2.6-1.1-4.7-1.1-1.8 0-3.3.4-4.3 1.3-.9.7-1.4 1.7-1.6 2.8h3.7c.2-.4.5-.7.9-.9.4-.2.9-.2 1.4-.2.5 0 1 .1 1.6.3.6.2.9.5.9 1.1 0 .7-.8 1.2-2.4 1.4-.3 0-.6.1-.9.1-.3.1-.5.1-.7.1-1.4.2-2.6.7-3.5 1.3-.9.7-1.4 1.8-1.4 3.3 0 1.7.5 2.9 1.5 3.6 1 .7 2.2 1.1 3.5 1.1.7 0 1.4 0 2.3-.1.9-.1 1.7-.3 2.5-.8.7-.4 1.4-1 1.9-1.8s.8-2 .8-3.5v-5.1c.1-1.1-.4-2.2-1.5-2.9zm-2.1 8c0 1-.3 1.8-.9 2.4-.6.6-1.4.9-2.4.9-.6 0-1.1-.1-1.4-.4-.3-.3-.5-.8-.5-1.3 0-.4.1-.8.4-1.2.3-.3.8-.5 1.4-.7l1.3-.3c.9-.2 1.6-.5 2.2-.7v1.3zm17.5-7.6c-1.5-1-3.2-1.4-4.9-1.4-2.3 0-4 .7-5.1 2.1-1.1 1.4-1.6 3.3-1.6 5.6 0 2 .4 3.5 1.2 4.7.8 1.2 1.8 2 2.9 2.5 1.1.4 2.2.5 3.4.3 1.1-.3 2-.9 2.7-1.9v.9c-.1 1.2-.4 2.1-.9 2.7-.5.6-1.1 1-1.7 1.1-.6.1-1.2.1-1.8-.2-.6-.3-1.1-.7-1.4-1.2h-4c.8 3.2 2.9 4.8 6.3 4.8 1.8 0 3.4-.5 4.9-1.4 1.5-.9 2.3-2.7 2.3-5.3v-7.8c0-2.8-.8-4.6-2.3-5.5zm-1.6 7.7c-.2.9-.4 1.5-.7 1.9-.7 1-1.8 1.3-3.3 1-1.5-.3-2.2-1.7-2.2-4.2 0-1.2.2-2.2.7-3.2.4-.9 1.3-1.4 2.6-1.4.9 0 1.6.3 2.1 1s.8 1.4.9 2.3c.1.8 0 1.7-.1 2.6zM50.9 10.9c-.4-.4-.8-.6-1.3-.6h-1.9v6.3c-.4-.7-1-1.3-1.8-1.7-.7-.4-1.5-.6-2.4-.6-1.7 0-3.2.7-4.3 2.2-1.1 1.4-1.6 3.3-1.6 5.6 0 2.4.5 4.2 1.6 5.6.6.7 1.3 1.2 2.2 1.5.9.3 1.9.5 2.8.5 1.8 0 3.4-.5 5-1.4 1.5-.9 2.3-2.7 2.3-5.3V12.3c0-.5-.2-1-.6-1.4zm-4 14.5c-.6.8-1.3 1.2-2.3 1.2-1 0-1.8-.4-2.4-1.2-.6-.8-.8-1.9-.8-3.4 0-1.3.3-2.4.8-3.1.6-.8 1.3-1.2 2.3-1.2 1 0 1.8.4 2.4 1.1.6.8.8 1.8.8 3.2 0 1.5-.3 2.6-.8 3.4zm19.6-9c-1.2-1.3-2.9-2-5.2-2-2.1 0-3.8.7-4.9 2.1-1.2 1.3-1.7 3.2-1.7 5.5 0 2.5.6 4.4 1.8 5.7 1.2 1.4 2.8 2.1 4.9 2.1 1.7 0 3.2-.4 4.3-1.3 1.1-.8 1.9-2 2.3-3.6h-2.8c-.4 0-.8.1-1 .3-.2.2-.4.3-.4.4l-.3.3c-.1.1-.2.2-.3.2-.4.3-1 .4-1.6.4-1 0-1.7-.3-2.2-.9-.5-.6-.8-1.4-.8-2.6h9.6c0-.1.1-.2.1-.4V22c-.1-2.3-.7-4.2-1.8-5.6zm-7.9 4.2c0-1 .3-1.7.8-2.2.5-.5 1.2-.8 2-.8.9 0 1.6.3 2.1.8.4.5.7 1.2.8 2.2h-5.7zm10.5-5.9l5.2 14.8h3.9l5.2-14.8h-2.9c-.9 0-1.5.4-1.8 1.3l-2.6 9.1-2.9-10.4h-4.1z" fill-rule="evenodd" clip-rule="evenodd" fill="#69D0E8"/></svg>