<svg xmlns="http://www.w3.org/2000/svg" viewBox="0 0 197 67"><path fill="#FFF" d="M24.1 18.5c0-6 0-7.1-.1-8.4-.1-1.3-.4-2-1.6-2.3-.3-.1-.9-.1-1.5-.1-.4 0-.6-.1-.6-.4 0-.3.3-.4.8-.4 2 0 4.4.1 5.5.1.9 0 3.3-.1 4.6-.1.6 0 .8.1.8.4 0 .3-.2.4-.6.4-.4 0-.6 0-1.1.1-1 .2-1.3.9-1.4 2.3-.1 1.3-.1 2.4-.1 8.4V24c0 5.7 1.1 8.1 2.9 9.7 1.7 1.5 3.4 1.6 4.7 1.6 1.7 0 3.7-.6 5.2-2.1 2.1-2.2 2.2-5.7 2.2-9.8v-4.9c0-6 0-7.1-.1-8.4-.1-1.3-.4-2-1.6-2.3-.3-.1-.9-.1-1.4-.1-.4 0-.6-.1-.6-.4.1-.2.4-.3.9-.3 1.9 0 4.3.1 4.3.1.5 0 2.8-.1 4.3-.1.5 0 .8.1.8.4 0 .3-.2.4-.7.4-.4 0-.6 0-1.1.1-1 .2-1.3.9-1.4 2.3-.1 1.3-.1 2.4-.1 8.4v4.2c0 4.4-.4 9-3.6 11.9-2.7 2.4-5.4 2.8-7.8 2.8-2 0-5.6-.1-8.3-2.7-1.9-1.8-3.3-4.7-3.3-10.5v-5.8zM77.3 19.6c.1 0 .2-.1.2-.3v-.8c0-6 0-7.1-.1-8.4-.1-1.3-.4-2-1.6-2.2-.3-.1-.9-.1-1.5-.1-.4 0-.6-.1-.6-.4.1-.3.3-.4.9-.4 2 0 4.4.1 5.4.1.9 0 3.3-.1 4.7-.1.5 0 .8.1.8.4 0 .3-.2.4-.7.4-.3 0-.6 0-1.1.1-1 .2-1.3.9-1.4 2.2-.1 1.3-.1 2.4-.1 8.4v6.9c0 3.6 0 6.7.2 8.4.1 1.1.3 2 1.5 2.1.5.1 1.4.2 1.9.2.4 0 .6.1.6.3 0 .3-.3.4-.8.4-2.4 0-4.8-.1-5.9-.1-.9 0-3.2.1-4.7.1-.5 0-.8-.1-.8-.4 0-.2.2-.3.6-.3.6 0 1-.1 1.4-.2.7-.2.9-1 1.1-2.2.2-1.7.2-4.8.2-8.4v-3.5c0-.2-.1-.2-.2-.2H63c-.1 0-.2 0-.2.2v3.5c0 3.6 0 6.7.2 8.4.1 1.1.3 2 1.5 2.1.5.1 1.4.2 1.9.2.4 0 .6.1.6.3 0 .3-.3.4-.7.4-2.4 0-4.8-.1-5.9-.1-.9 0-3.2.1-4.7.1-.5 0-.7-.1-.7-.4 0-.2.1-.3.6-.3.6 0 1-.1 1.4-.2.8-.2.9-1 1.1-2.2.2-1.7.2-4.8.2-8.4v-6.9c0-6 0-7.1-.1-8.4-.1-1.3-.4-2-1.6-2.2-.3-.1-.9-.1-1.5-.1-.4 0-.6-.1-.6-.4 0-.3.3-.4.8-.4 2 0 4.4.1 5.4.1.9 0 3.3-.1 4.7-.1.3.2.6.3.6.6s-.2.4-.7.4c-.3 0-.6 0-1.1.1-1 .2-1.3.9-1.4 2.2-.1 1.3-.1 2.4-.1 8.4v.8c0 .2.1.3.2.3h14.4z"/><path fill="#7FC4C9" d="M93.8 18.5c0-6.2 0-7.3-.1-8.5-.1-1.3-.4-2-1.6-2.2-.3-.1-.9-.1-1.3-.1-.2 0-.3-.1-.3-.2 0-.2.2-.3.6-.3h2.7l1.5.1h8.6c.7 0 1.3-.1 1.6-.2.2 0 .3-.2.5-.2.1 0 .1.2.1.4 0 .3-.2.7-.3 1.9 0 .4-.1 2.1-.2 2.6 0 .2-.1.4-.3.4-.2 0-.3-.2-.3-.5s0-.9-.2-1.4c-.3-.6-.6-1.1-2.7-1.3-.6-.1-4.7-.1-5.1-.1-.1 0-.2.1-.2.4v10.9c0 .3 0 .4.2.4.5 0 5.1 0 6-.1.9-.1 1.4-.2 1.8-.6.3-.3.4-.5.6-.5.1 0 .2.1.2.3 0 .2-.2.9-.3 2.2-.1.8-.1 2.3-.1 2.5 0 .3 0 .8-.3.8-.2 0-.3-.2-.3-.4 0-.4 0-.8-.1-1.3-.1-.6-.5-1.2-2-1.4-1-.1-4.7-.2-5.4-.2-.2 0-.3.1-.3.3v10.2c.1 2.7.7 3.2 4.4 3.2 1 0 2.6 0 3.6-.4s1.4-1.2 1.7-2.8c.1-.4.1-.6.3-.6.2 0 .2.3.2.6s-.3 3-.5 3.8c-.3 1-.6 1-2 1-2.8 0-4.9-.1-6.3-.1-1.5-.1-2.4-.1-2.9-.1h-1.5c-.8 0-1.6.1-2.2.1-.4 0-.6-.1-.6-.3 0-.1.1-.2.3-.2.3 0 .8-.1 1.1-.2.7-.2.9-1 1.1-2.2.2-1.7.2-4.8.2-8.6v-7.1zM119.3 21.9c0 .2.1.4.3.5.6.4 2.3.6 3.9.6.9 0 2-.1 2.8-.8 1.3-.9 2.3-3.1 2.3-6.1 0-4.9-2.5-7.9-6.5-7.9-1.1 0-2.1.1-2.5.2-.2.1-.3.2-.3.5v13zm-3-3.4c0-6.2 0-7.3-.1-8.5-.1-1.3-.4-2-1.6-2.2-.3-.1-.9-.1-1.3-.1-.1 0-.3-.1-.3-.2 0-.2.2-.3.6-.3 1.7 0 4.1.1 4.2.1.4 0 3.3-.1 4.4-.1 2.4 0 4.9.2 6.9 1.7.9.7 2.6 2.6 2.6 5.4 0 2.9-1.2 5.8-4.5 9.1 3.1 4.1 5.6 7.7 7.8 10.1 2 2.3 3.6 2.7 4.6 2.8.7.1 1.2.1 1.5.1.2 0 .3.1.3.2 0 .2-.2.3-.9.3h-2.7c-2.1 0-3-.2-4-.7-1.6-.9-2.9-2.8-5.1-5.8-1.6-2.2-3.3-4.8-4.1-5.8-.2-.2-.3-.2-.5-.2l-4.6-.1c-.2 0-.3.1-.3.3v.9c0 3.8 0 6.9.2 8.6.1 1.1.3 2 1.5 2.2.5.1 1.4.2 1.7.2.2 0 .3.1.3.2 0 .2-.2.3-.6.3-2.1 0-4.4-.1-4.6-.1 0 0-2.4.1-3.5.1-.4 0-.6-.1-.6-.3 0-.1.1-.2.3-.2.3 0 .8-.1 1.1-.2.7-.2.9-1 1.1-2.2.2-1.7.2-4.8.2-8.6v-7zM154.6 35.9c3.4 0 10.4-2.1 10.4-13.5 0-9.5-5.5-14.6-11.4-14.6-6.3 0-11 4.3-11 13 0 9.2 5.2 15.1 12 15.1m-.8-29.4c8.4 0 14.8 5.6 14.8 14.8 0 8.8-5.9 16.1-15 16.1-10.3 0-14.6-8.4-14.6-15.5 0-6.4 4.5-15.4 14.8-15.4"/><path fill="#6E7070" d="M8.5 44.5H7.4c-.4 0-.6.1-.7.2-.1.1-.1.2-.1.3 0 .1 0 .1-.1.1s-.1 0-.1-.1.1-.8.2-.9c0-.1 0-.1.1-.1 0-.1.1 0 .3 0h4.4s.1 0 .1.2v.9c0 .1 0 .1-.1.1s-.1 0-.1-.2v-.1c0-.2-.2-.4-.9-.4h-.9v4.6c0 .2.1.4.3.4h.4c.1 0 .1 0 .1.1s-.1.1-.1.1H8c-.1 0-.1 0-.1-.1 0 0 0-.1.1-.1h.3c.2 0 .2-.2.2-.4v-4.6zM16.6 46.5c.1 0 .1 0 0 0v-.2-1.6c0-.3-.1-.3-.3-.4H16c-.1 0-.1 0-.1-.1s.1-.1.2-.1h2c.1 0 .2 0 .2.1s-.1.1-.1.1H18c-.2 0-.3.1-.3.4v4.5c0 .2.1.4.3.4h.4c.1 0 .1 0 .1.1s-.1.1-.2.1h-2.2c-.1 0-.2 0-.2-.1 0 0 0-.1.1-.1h.3c.1 0 .2-.2.2-.4V47h-2.8v2.2c0 .2.1.4.3.4h.4c.1 0 .1 0 .1.1s-.1.1-.1.1h-2.1c-.1 0-.1 0-.1-.1 0 0 0-.1.1-.1h.3c.2 0 .2-.2.2-.4V46.3v-1.6c0-.3-.1-.3-.3-.4h-.3c-.1 0-.1 0-.1-.1s.1-.1.2-.1h2.1c.1 0 .2 0 .2.1s0 .1-.1.1h-.2c-.2 0-.3.1-.3.4V46.6h2.6zM20.1 46.2v-1.6c0-.3-.1-.3-.3-.4h-.3c-.1 0-.1 0-.1-.1s.1-.1.2-.1h3.5s.1 0 .1.1 0 .1-.1.5v.5s0 .1-.1.1-.1 0-.1-.1v-.3c-.1-.1-.1-.2-.5-.3h-1.2s-.1 0-.1.1v1.9s0 .1.1.1h1.3c.2 0 .3 0 .4-.1l.1-.1s.1 0 .1.1c0 0 0 .2-.1.5v.5c0 .1 0 .2-.1.2 0 0-.1 0-.1-.1v-.3c0-.1-.1-.3-.4-.3h-1.2v1.8c0 .5.2.6 1 .6.2 0 .5 0 .7-.1.2-.1.3-.2.3-.6 0-.1 0-.1.1-.1s.1.1.1.2c0 .2-.1.7-.1.8 0 .2-.1.2-.4.2H19.7c-.1 0-.1 0-.1-.1 0 0 0-.1.1-.1h.3c.2 0 .2-.2.2-.4v-3zM27.4 46.2v-1.6c0-.3-.1-.3-.3-.4h-.3c-.1 0-.1 0-.1-.1s.1-.1.2-.1h3.5s.1 0 .1.1 0 .1-.1.5v.5s0 .1-.1.1-.1 0-.1-.1 0-.2-.1-.3c-.1-.1-.1-.2-.5-.3h-1.2s-.1 0-.1.1v1.9s0 .1.1.1h1.3c.2 0 .3 0 .4-.1l.1-.1s.1 0 .1.1c0 0 0 .2-.1.5v.5c0 .1 0 .2-.1.2s-.1 0-.1-.1v-.3c0-.1-.1-.3-.4-.3h-1.2v1.8c0 .5.2.6 1 .6.2 0 .5 0 .7-.1.2-.1.3-.2.3-.6 0-.1 0-.1.1-.1s.1.1.1.2c0 .2-.1.7-.1.8-.1.2-.1.2-.4.2H26.9c-.1 0-.1 0-.1-.1 0 0 0-.1.1-.1h.3c.2 0 .2-.2.2-.4v-3zM32.4 49c-.7-.6-.9-1.5-.9-2.2 0-.5.2-1.4.9-2.1.5-.5 1.2-.8 2.3-.8.5 0 .7 0 1.1.1.3 0 .5.1.7.1.1 0 .1 0 .1.1V45.4c0 .1 0 .2-.1.2s-.1-.1-.1-.2c0-.2-.1-.5-.3-.7-.3-.3-.7-.4-1.4-.4-.6 0-1.1.1-1.4.4-.5.5-.7 1.2-.7 1.9 0 1.8 1.3 2.6 2.3 2.6.7 0 1 0 1.3-.4.1-.1.2-.4.3-.5 0-.1 0-.2.1-.2s.1.1.1.1c0 .1-.1.7-.2 1 0 .1-.1.2-.2.2-.3.1-.9.2-1.3.2-1.1.2-1.9 0-2.6-.6M42.4 47c0-1.7-.9-2.7-2.1-2.7-.8 0-1.8.5-1.8 2.3 0 1.5.8 2.8 2.2 2.8.5 0 1.7-.3 1.7-2.4m-5-.1c0-1.3.9-2.9 3.1-2.9 1.9 0 3 1.1 3 2.8 0 1.7-1.2 3.1-3.1 3.1-2.2-.1-3-1.7-3-3M45.3 48.7c0 .6.1.8.3.8.1 0 .3.1.4.1.1 0 .1 0 .1.1s-.1.1-.2.1h-1.8c-.1 0-.2 0-.2-.1l.1-.1h.3c.2-.1.2-.3.2-.9l.1-4.4c0-.2 0-.3.1-.3s.2.1.3.2c.1.1 1.2 1.3 2.3 2.4.5.5 1.5 1.6 1.6 1.7l.1-3.4c0-.5-.1-.6-.3-.7h-.4c-.1 0-.1 0-.1-.1s.1-.1.2-.1H50c.1 0 .2 0 .2.1 0 0 0 .1-.1.1h-.2c-.2.1-.3.2-.3.6l-.1 4.7c0 .2-.1.2-.1.2-.1 0-.2-.1-.3-.2l-2.2-2.2c-.8-.8-1.6-1.7-1.7-1.9l.1 3.3zM56 47c0-1.7-.9-2.7-2.1-2.7-.8 0-1.8.5-1.8 2.3 0 1.5.8 2.8 2.2 2.8.6 0 1.7-.3 1.7-2.4m-5-.1c0-1.3.9-2.9 3.1-2.9 1.9 0 3 1.1 3 2.8 0 1.7-1.2 3.1-3.1 3.1-2.1-.1-3-1.7-3-3M59 44.1c0-.1.1-.2.1-.2.1 0 .1 0 .2.2l2 4.2 2-4.2c.1-.1.1-.2.2-.2s.1.1.2.2l.7 4.6c.1.5.1.7.4.7.2.1.3.1.4.1.1 0 .1 0 .1.1s-.1.1-.2.1c-.2 0-1.2 0-1.5-.1-.2 0-.2 0-.2-.1 0 0 0-.1.1-.1 0 0 .1-.1 0-.3l-.5-3.2-1.6 3.3c-.2.4-.2.4-.3.4-.1 0-.2-.1-.3-.4-.2-.3-.8-1.5-.9-1.7-.1-.1-.5-1.1-.7-1.6l-.4 2.9v.4c0 .1.1.2.2.2h.3c.1 0 .1 0 .1.1s-.1.1-.2.1h-1.5c-.1 0-.1 0-.1-.1 0 0 0-.1.1-.1h.2c.2 0 .3-.3.3-.6l.8-4.7zM66.5 46.2v-1.6c0-.3-.1-.3-.3-.4h-.3c-.1 0-.1 0-.1-.1 0 0 .1-.1.2-.1h1.9c.1 0 .2 0 .2.1s0 .1-.1.1h-.2c-.2 0-.3.1-.3.4v4.5c0 .2.1.3.3.4h.4c.1 0 .1 0 .1.1s-.1.1-.1.1H66c-.1 0-.1 0-.1-.1 0 0 0-.1.1-.1h.3c.1 0 .2-.1.2-.4V46.2zM69.9 49c-.7-.6-.9-1.5-.9-2.2 0-.5.2-1.4.9-2.1.5-.5 1.2-.8 2.3-.8.5 0 .7 0 1.1.1.3 0 .5.1.7.1.1 0 .1 0 .1.1V45.4c0 .1 0 .2-.1.2s-.1-.1-.1-.2c0-.2-.1-.5-.3-.7-.3-.3-.7-.4-1.4-.4-.6 0-1.1.1-1.4.4-.5.5-.7 1.2-.7 1.9 0 1.8 1.3 2.6 2.3 2.6.7 0 1 0 1.3-.4.1-.1.2-.4.3-.5 0-.1 0-.2.1-.2s.1.1.1.1c0 .1-.1.7-.2 1 0 .1-.1.2-.2.2-.3.1-.9.2-1.3.2-1.1.2-1.9 0-2.6-.6M79.2 46.8c0 .1 0 .1.1.1.2.1.4.1.6.1.3 0 .4 0 .5-.1.2-.2.5-.5.5-1.1 0-1.1-.7-1.3-1.1-1.3h-.4s-.1 0-.1.1v2.2zm-1-.6v-1.6c0-.3-.1-.3-.3-.4h-.3c-.1 0-.1 0-.1-.1s.1-.1.2-.1h2.1c.5 0 1 0 1.4.3.2.1.5.5.5 1 0 .6-.3 1-1 1.7.7.8 1.2 1.5 1.6 2 .4.4.7.5.8.5h.2c.1 0 .1 0 .1.1s-.1.1-.1.1h-.7c-.4 0-.6 0-.8-.1-.3-.2-.6-.5-1-1.1-.3-.4-.6-.9-.7-1l-.1-.1h-.7s-.1 0-.1.1V49.2c0 .2.1.4.3.4h.4c.1 0 .1 0 .1.1s-.1.1-.2.1h-2c-.1 0-.1 0-.1-.1 0 0 0-.1.1-.1h.3c.2 0 .2-.2.2-.4v-3z"/><path fill="#6E7070" d="M84 46.2v-1.6c0-.3-.1-.3-.3-.4h-.3c-.1 0-.1 0-.1-.1s.1-.1.2-.1H87v.1c0 .1 0 .1-.1.5v.5s0 .1-.1.1c0 0-.1 0-.1-.1v-.3c-.1-.1-.1-.2-.5-.3H85s-.1 0-.1.1v1.9s0 .1.1.1h1.3c.2 0 .3 0 .4-.1l.1-.1s.1 0 .1.1c0 0 0 .2-.1.5v.5c0 .1 0 .2-.1.2 0 0-.1 0-.1-.1v-.3c0-.1-.1-.3-.4-.3H85v1.8c0 .5.2.6 1 .6.2 0 .5 0 .7-.1.2-.1.3-.2.3-.6 0-.1 0-.1.1-.1s.1.1.1.2c0 .2-.1.7-.1.8-.1.2-.1.2-.4.2H83.5c-.1 0-.1 0-.1-.1 0 0 0-.1.1-.1h.3c.1 0 .2-.2.2-.4v-3zM88.4 49.6c-.1 0-.1-.1-.1-.3v-1c0-.1 0-.2.1-.2s.1.1.1.1c0 .1 0 .3.1.4.2.6.7.7 1.2.7.6 0 1-.4 1-1 0-.3-.1-.7-.7-1.1l-.4-.3c-.9-.5-1.2-1-1.2-1.7 0-.9.8-1.5 1.9-1.5.5 0 .9.1 1 .1.1 0 .1 0 .1.1v.9c0 .2 0 .2-.1.2s-.1 0-.1-.1 0-.3-.2-.5c-.1-.1-.3-.4-.8-.4s-1 .3-1 .8c0 .3.1.6.8 1l.3.2c1 .6 1.3 1.1 1.3 1.8 0 .6-.2 1-.7 1.4-.4.3-.8.3-1.2.3-.6.3-1.1.3-1.4.1M93.2 46.2v-1.6c0-.3-.1-.3-.3-.4h-.3c-.1 0-.1 0-.1-.1s.1-.1.2-.1h3.5s.1 0 .1.1 0 .1-.1.5v.5s0 .1-.1.1-.1 0-.1-.1 0-.2-.1-.3c-.1-.1-.1-.2-.5-.3h-1.2v2.1h1.3c.2 0 .3 0 .4-.1l.1-.1s.1 0 .1.1c0 0 0 .2-.1.5v.5c0 .1 0 .2-.1.2s-.1 0-.1-.1v-.3c0-.1-.1-.3-.4-.3h-1.2v1.8c0 .5.2.6 1 .6.2 0 .5 0 .7-.1.2-.1.3-.2.3-.6 0-.1 0-.1.1-.1s.1.1.1.2c0 .2-.1.7-.1.8 0 .2-.1.2-.4.2H92.7c-.1 0-.1 0-.1-.1 0 0 0-.1.1-.1h.3c.2 0 .2-.2.2-.4v-3z"/><path fill="#6E7070" d="M99.9 47.4l-.7-1.9v-.1.1l-.7 1.9v.1h1.4zm-1.6.4l-.5 1.1c-.1.2-.1.4-.1.5 0 .1.1.2.3.2h.1c.1 0 .1 0 .1.1s0 .1-.1.1H96.4c-.1 0-.1 0-.1-.1 0 0 0-.1.1-.1h.2c.3-.1.5-.3.6-.7l1.9-4.7c.1-.2.1-.3.2-.3s.1.1.2.2c.2.4 1.4 3.5 1.9 4.6.3.7.5.8.6.8h.3c.1 0 .1 0 .1.1s0 .1-.3.1h-1.4c-.1 0-.2 0-.2-.1 0 0 0-.1.1-.1s.1-.1.1-.2l-.6-1.5s0-.1-.1-.1h-1.7zM104.2 46.8c0 .1 0 .1.1.1.2.1.4.1.6.1.3 0 .4 0 .5-.1.2-.2.5-.5.5-1.1 0-1.1-.7-1.3-1.1-1.3h-.4c-.1 0-.1 0-.1.1v2.2zm-.9-.6v-1.6c0-.3-.1-.3-.3-.4h-.3c-.1 0-.1 0-.1-.1s.1-.1.2-.1h2.1c.5 0 1 0 1.4.3.2.1.5.5.5 1 0 .6-.3 1-1 1.7.7.8 1.2 1.5 1.6 2 .4.4.7.5.8.5h.2c.1 0 .1 0 .1.1s0 .1-.1.1h-.7c-.4 0-.6 0-.8-.1-.3-.2-.6-.5-1-1.1-.3-.4-.6-.9-.7-1l-.1-.1h-.7s-.1 0-.1.1V49.2c0 .2.1.4.3.4h.4c.1 0 .1 0 .1.1s-.1.1-.2.1h-2c-.1 0-.1 0-.1-.1 0 0 0-.1.1-.1h.3c.2 0 .2-.2.2-.4v-3zM109.1 49c-.7-.6-.9-1.5-.9-2.2 0-.5.2-1.4.9-2.1.5-.5 1.2-.8 2.3-.8.5 0 .7 0 1.1.1.3 0 .5.1.7.1.1 0 .1 0 .1.1V45.4c0 .1 0 .2-.1.2s-.1-.1-.1-.2c0-.2-.1-.5-.3-.7-.2-.3-.7-.4-1.4-.4-.6 0-1.1.1-1.4.4-.5.5-.7 1.2-.7 1.9 0 1.8 1.3 2.6 2.3 2.6.7 0 1 0 1.3-.4.1-.1.2-.4.3-.5 0-.1 0-.2.1-.2s.1.1.1.1c0 .1-.1.7-.2 1 0 .1-.1.2-.2.2-.3.1-.9.2-1.3.2-1 .2-1.9 0-2.6-.6M118.7 46.5c.1 0 .1 0 0 0v-.2-1.6c0-.3-.1-.3-.3-.4h-.3c-.1 0-.1 0-.1-.1s0-.1.2-.1h2c.1 0 .2 0 .2.1s0 .1-.1.1h-.2c-.2 0-.3.1-.3.4v4.5c0 .2.1.4.3.4h.4c.1 0 .1 0 .1.1s-.1.1-.2.1h-2.2c-.1 0-.2 0-.2-.1 0 0 0-.1.1-.1h.3c.2 0 .2-.2.2-.4V47H116v2.2c0 .2.1.4.3.4h.4c.1 0 .1 0 .1.1s-.1.1-.1.1h-2.1c-.1 0-.1 0-.1-.1 0 0 0-.1.1-.1h.3c.2 0 .2-.2.2-.4V46.3v-1.6c0-.3-.1-.3-.3-.4h-.3c-.1 0-.1 0-.1-.1s.1-.1.2-.1h2.1c.1 0 .1 0 .1.1s0 .1-.1.1h-.2c-.2 0-.3.1-.3.4V46.6h2.5zM128.9 47c0-1.7-.9-2.7-2.1-2.7-.8 0-1.8.5-1.8 2.3 0 1.5.8 2.8 2.2 2.8.5 0 1.7-.3 1.7-2.4m-5-.1c0-1.3.9-2.9 3.1-2.9 1.9 0 3 1.1 3 2.8 0 1.7-1.2 3.1-3.1 3.1-2.1-.1-3-1.7-3-3M132.3 46.8c0 .1 0 .1.1.1.2.1.4.1.6.1.3 0 .4 0 .5-.1.2-.2.5-.5.5-1.1 0-1.1-.7-1.3-1.1-1.3h-.4s-.1 0-.1.1v2.2zm-.9-.6v-1.6c0-.3-.1-.3-.3-.4h-.3c-.1 0-.1 0-.1-.1s.1-.1.2-.1h2.1c.5 0 1 0 1.4.3.2.1.5.5.5 1 0 .6-.3 1-1 1.7.7.8 1.2 1.5 1.6 2 .4.4.7.5.8.5h.2c.1 0 .1 0 .1.1s0 .1-.1.1h-.7c-.4 0-.6 0-.8-.1-.3-.2-.6-.5-1-1.1-.3-.4-.6-.9-.7-1l-.1-.1h-.7s-.1 0-.1.1V49.2c0 .2.1.4.3.4h.4c.1 0 .1 0 .1.1s-.1.1-.1.1h-2c-.1 0-.1 0-.1-.1 0 0 0-.1.1-.1h.3c.1 0 .2-.2.2-.4v-3zM141.6 49.2c0 .2 0 .2-.1.3-.5.3-1.2.3-1.8.3-1.8 0-3.4-.9-3.4-2.9 0-1.2.6-2 1.3-2.5.7-.4 1.4-.5 2-.5.5 0 1.2.1 1.3.1.2 0 .4.1.6.1.1 0 .1 0 .1.1v1.2c0 .1 0 .2-.1.2 0 0-.1 0-.1-.1 0-.2-.1-.4-.3-.6-.2-.2-.8-.6-1.6-.6-.4 0-.9 0-1.4.4-.4.4-.7.9-.7 1.8 0 1.6 1 2.8 2.6 2.8.2 0 .3 0 .5-.1.1 0 .1-.1.1-.3v-.7-.9c0-.3-.1-.3-.3-.4h-.3c-.1 0-.1 0-.1-.1s.1-.1.2-.1h2c.1 0 .1 0 .1.1 0 0 0 .1-.1.1h-.2c-.2 0-.3.1-.3.4v1.9zM145.6 47.4l-.7-1.9v-.1.1l-.7 1.9v.1h1.4zm-1.6.4c-.1 0-.1 0 0 0l-.5 1.1c-.1.2-.1.4-.1.5 0 .1.1.2.3.2h.1c.1 0 .1 0 .1.1s0 .1-.1.1H142.1c-.1 0-.1 0-.1-.1 0 0 0-.1.1-.1h.2c.3-.1.5-.3.6-.7l1.9-4.7c.1-.2.1-.3.2-.3s.1.1.2.2c.2.4 1.4 3.5 1.9 4.6.3.7.5.8.6.8h.3c.1 0 .1 0 .1.1s0 .1-.3.1h-1.4c-.1 0-.2 0-.2-.1 0 0 0-.1.1-.1s.1-.1.1-.2l-.6-1.5s0-.1-.1-.1H144z"/><path fill="#6E7070" d="M149.4 48.7c0 .6.1.8.3.8.1 0 .3.1.4.1.1 0 .1 0 .1.1s-.1.1-.2.1h-1.8c-.1 0-.2 0-.2-.1l.1-.1h.3c.2-.1.2-.3.2-.9l.1-4.4c0-.2.1-.3.1-.3.1 0 .2.1.3.2.1.1 1.2 1.3 2.3 2.4.5.5 1.5 1.6 1.6 1.7l-.1-3.3c0-.5-.1-.6-.3-.7h-.4c-.1 0-.1 0-.1-.1s.1-.1.2-.1h1.6c.1 0 .2 0 .2.1 0 0 0 .1-.1.1h-.2c-.2.1-.3.2-.3.6l-.1 4.7c0 .2-.1.2-.1.2-.1 0-.2-.1-.3-.2l-2.2-2.2c-.8-.8-1.6-1.7-1.7-1.9l.3 3.2zM156 46.2v-1.6c0-.3-.1-.3-.2-.4h-.3c-.1 0-.1 0-.1-.1 0 0 .1-.1.2-.1h1.9c.1 0 .2 0 .2.1s0 .1-.1.1h-.2c-.2 0-.3.1-.3.4v4.5c0 .2.1.3.3.4h.4c.1 0 .1 0 .1.1s-.1.1-.1.1h-2.2c-.1 0-.1 0-.1-.1 0 0 0-.1.1-.1h.3c.2 0 .2-.1.2-.4V46.2zM161.7 49.2c.8 0 1-.2 1.1-.4.1-.1.1-.2.1-.3 0-.1 0-.1.1-.1s.1.1.1.2c0 .2-.1.7-.1.9 0 .1-.1.2-.2.2h-4c-.1 0-.1 0-.1-.1 0 0 0-.1.1-.2 1-1.6 2.1-3.3 3.1-4.9h-1.4c-.4 0-.8 0-1 .1-.2.1-.4.4-.4.6 0 .1 0 .1-.1.1 0 0-.1 0-.1-.1 0-.2.1-.9.2-1.1 0-.1 0-.1.1-.1s.1 0 .3.1H163.2c.1 0 .1 0 .1.1v.1c-1 1.7-2.1 3.4-3.2 5h1.6z"/><path fill="#6E7070" d="M166.4 47.4c.1 0 .1 0 0 0l-.7-1.9v-.1.1l-.7 1.9v.1h1.4zm-1.5.4c-.1 0-.1 0 0 0l-.5 1.1c-.1.2-.1.4-.1.5 0 .1.1.2.3.2h.1c.1 0 .1 0 .1.1s0 .1-.1.1H163c-.1 0-.1 0-.1-.1 0 0 0-.1.1-.1h.2c.3-.1.5-.3.6-.7l1.9-4.7c.1-.2.1-.3.2-.3s.1.1.2.2c.2.4 1.4 3.5 1.9 4.6.3.7.5.8.6.8h.3c.1 0 .1 0 .1.1s0 .1-.3.1h-1.4c-.1 0-.2 0-.2-.1 0 0 0-.1.1-.1s.1-.1.1-.2l-.6-1.5s0-.1-.1-.1h-1.7zM170.3 44.5h-1.1c-.4 0-.6.1-.7.2-.1.1-.1.2-.1.3 0 .1 0 .1-.1.1s-.1 0-.1-.1.1-.8.2-.9c0-.1 0-.1.1-.1s.1.1.3.1h4.4s.1 0 .1.2v.9c0 .1 0 .1-.1.1s-.1 0-.1-.2V45c0-.2-.2-.4-.9-.4h-.9v4.6c0 .2.1.4.3.4h.4c.1 0 .1 0 .1.1s-.1.1-.1.1h-2.2c-.1 0-.1 0-.1-.1 0 0 0-.1.1-.1h.3c.2 0 .2-.2.2-.4v-4.7zM174.6 46.2v-1.6c0-.3-.1-.3-.3-.4h-.3c-.1 0-.1 0-.1-.1 0 0 .1-.1.2-.1h1.9c.1 0 .1 0 .1.1s0 .1-.1.1h-.2c-.2 0-.3.1-.3.4v4.5c0 .2.1.3.3.4h.4c.1 0 .1 0 .1.1s-.1.1-.1.1H174c-.1 0-.1 0-.1-.1 0 0 0-.1.1-.1h.3c.2 0 .2-.1.2-.4V46.2zM182.1 47c0-1.7-.9-2.7-2.1-2.7-.8 0-1.8.5-1.8 2.3 0 1.5.8 2.8 2.2 2.8.6 0 1.7-.3 1.7-2.4m-5-.1c0-1.3.9-2.9 3.1-2.9 1.9 0 3 1.1 3 2.8 0 1.7-1.2 3.1-3.1 3.1-2.1-.1-3-1.7-3-3M185.1 48.7c0 .6.1.8.3.8.1 0 .3.1.4.1.1 0 .1 0 .1.1s-.1.1-.2.1h-1.8c-.1 0-.2 0-.2-.1l.1-.1h.3c.2-.1.2-.3.2-.9l.1-4.4c0-.2 0-.3.1-.3s.2.1.3.2c.1.1 1.2 1.3 2.3 2.4.5.5 1.5 1.6 1.6 1.7l-.1-3.3c0-.5-.1-.6-.3-.7h-.4c-.1 0-.1 0-.1-.1s.1-.1.2-.1h1.6c.1 0 .2 0 .2.1 0 0 0 .1-.1.1h-.2c-.2.1-.3.2-.3.6l-.1 4.7c0 .2-.1.2-.1.2-.1 0-.2-.1-.3-.2l-2.2-2.2c-.8-.8-1.6-1.7-1.7-1.9l.3 3.2zM33.4 58.4c.1 0 .1 0 0 0l-.7-1.9v-.1.1l-.7 1.8v.1h1.4zm-1.5.4c-.1 0-.1 0 0 0l-.5 1.1c-.1.2-.1.4-.1.5 0 .1.1.2.3.2h.1c.1 0 .1 0 .1.1s0 .1-.1.1H30c-.1 0-.1 0-.1-.1 0 0 0-.1.1-.1h.2c.3-.1.5-.3.6-.7l1.9-4.7c.1-.2.1-.3.2-.3s.1.1.2.2c.2.4 1.4 3.5 1.9 4.6.3.7.5.8.6.8h.3c.1 0 .1 0 .1.1s0 .1-.3.1h-1.4c-.1 0-.2 0-.2-.1 0 0 0-.1.1-.1s.1-.1.1-.2l-.6-1.5s0-.1-.1-.1h-1.7zM37.3 55.5h-1.1c-.4 0-.6.1-.7.2-.1.1-.1.2-.1.3 0 .1 0 .1-.1.1s-.1 0-.1-.1.1-.8.2-.9c0-.1 0-.1.1-.1s.1.1.3.1h4.4c.1 0 .1 0 .1.2v.9c0 .1 0 .1-.1.1s-.1 0-.1-.1v-.1c0-.2-.2-.4-.9-.4h-.9v4.6c0 .2.1.4.3.4h.4c.1 0 .1 0 .1.1s-.1.1-.1.1h-2.2c-.1 0-.1 0-.1-.1 0 0 0-.1.1-.1h.3c.2 0 .2-.2.2-.4V55.5zM45.1 55.5H44c-.4 0-.6.1-.7.2-.1.1-.1.2-.1.3 0 .1 0 .1-.1.1s-.1 0-.1-.1.1-.8.2-.9c0-.1 0-.1.1-.1s.1.1.3.1H48s.1 0 .1.2v.9c0 .1 0 .1-.1.1s-.1 0-.1-.1v-.1c0-.2-.2-.4-.9-.4h-.9v4.6c0 .2.1.4.3.4h.4c.1 0 .1 0 .1.1s-.1.1-.1.1h-2.2c-.1 0-.1 0-.1-.1 0 0 0-.1.1-.1h.3c.1 0 .2-.2.2-.4V55.5zM53.2 57.4c.1 0 .1 0 0 0v-.2-1.6c0-.3-.1-.3-.3-.4h-.3c-.1 0-.1 0-.1-.1s0-.1.2-.1h2c.1 0 .2 0 .2.1s-.1.1-.1.1h-.2c-.2 0-.3.1-.3.4v4.5c0 .2.1.4.3.4h.4c.1 0 .1 0 .1.1 0 0-.1.1-.2.1h-2.2c-.1 0-.2 0-.2-.1 0 0 0-.1.1-.1h.3c.1 0 .2-.2.2-.4v-2.2h-2.8-.1v2.2c0 .2.1.4.3.4h.4c.1 0 .1 0 .1.1 0 0-.1.1-.2.1h-2.1c-.1 0-.1 0-.1-.1 0 0 0-.1.1-.1h.3c.2 0 .2-.2.2-.4V57.2v-1.6c0-.3-.1-.3-.3-.4h-.3c-.1 0-.1 0-.1-.1s.1-.1.2-.1h2.1c.1 0 .1 0 .1.1s0 .1-.1.1h-.2c-.2 0-.3.1-.3.4v1.8s0 .1.1.1h2.8zM56.7 57.2v-1.6c0-.3-.1-.3-.3-.4h-.3c-.1 0-.1 0-.1-.1s0-.1.1-.1h3.5s.1 0 .1.1 0 .1-.1.5v.5s0 .1-.1.1-.1 0-.1-.1c0 0 0-.2-.1-.3-.1-.1-.1-.2-.5-.3h-1.2s-.1 0-.1.1v1.9s0 .1.1.1h1.3c.2 0 .3 0 .4-.1l.1-.1s.1 0 .1.1c0 0 0 .2-.1.5v.5c0 .1 0 .2-.1.2s-.1 0-.1-.1v-.3c0-.1-.1-.3-.4-.3h-1.2v1.8c0 .5.2.6 1 .6.2 0 .5 0 .7-.1.2-.1.3-.2.3-.6 0-.1 0-.1.1-.1s.1.1.1.2c0 .2-.1.7-.1.8 0 .2-.1.2-.4.2H56.1c-.1 0-.1 0-.1-.1 0 0 0-.1.1-.1h.3c.2 0 .2-.2.2-.4v-3zM63.7 57.2v-1.6c0-.3-.1-.3-.3-.4h-.3c-.1 0-.1 0-.1-.1s0-.1.2-.1h2c.1 0 .2 0 .2.1s0 .1-.1.1h-.2c-.2 0-.3.1-.3.4v2.7c0 1.1.2 1.5.6 1.8.3.3.7.3.9.3.3 0 .7-.1 1-.4.4-.4.4-1.1.4-1.8v-.9-1.6c0-.3-.1-.3-.3-.4h-.3c-.1 0-.1 0-.1-.1s0-.1.1-.1h1.8c.1 0 .2 0 .2.1s0 .1-.1.1h-.2c-.2 0-.3.1-.3.4V58c0 .8-.1 1.7-.7 2.3-.5.5-1.1.5-1.6.5-.4 0-1.1 0-1.7-.5-.4-.3-.7-.9-.7-2v-1.1zM70.7 59.7c0 .6.1.8.3.8.1 0 .3.1.4.1.1 0 .1 0 .1.1s-.1.1-.2.1h-1.8c-.1 0-.2 0-.2-.1l.1-.1h.3c.2-.1.2-.3.2-.9l.1-4.4c0-.1 0-.3.1-.3s.2.1.3.2c.1.1 1.2 1.3 2.3 2.4.5.5 1.5 1.6 1.6 1.7l-.1-3.3c0-.5-.1-.6-.3-.7h-.4c-.1 0-.1 0-.1-.1s.1-.1.2-.1h1.6c.1 0 .2 0 .2.1 0 0 0 .1-.1.1h-.2c-.2.1-.3.2-.3.6l.2 4.6c0 .2-.1.2-.1.2-.1 0-.2-.1-.3-.2l-2.2-2.2c-.8-.8-1.6-1.7-1.7-1.9v3.3zM77.3 57.2v-1.6c0-.3-.1-.3-.3-.4h-.3c-.1 0-.1 0-.1-.1 0 0 .1-.1.2-.1h1.9c.1 0 .2 0 .2.1s0 .1-.1.1h-.2c-.2 0-.3.1-.3.4v4.5c0 .2.1.3.3.4h.4c.1 0 .1 0 .1.1s-.1.1-.1.1h-2.2c-.1 0-.1 0-.1-.1 0 0 0-.1.1-.1h.3c.1 0 .2-.1.2-.4V57.2zM80 55.7c-.2-.4-.3-.5-.5-.6h-.3c-.1 0-.1 0-.1-.1s.1-.1.2-.1h2c.1 0 .2 0 .2.1s-.1.1-.1.1c-.1 0-.2 0-.3.1l-.1.1c0 .1.1.3.2.6l1.2 3.4c.3-.8 1.3-3.2 1.4-3.7 0-.1.1-.2.1-.3 0-.1 0-.1-.1-.1h-.3c-.1 0-.1 0-.1-.1s.1-.1.2-.1h1.5c.1 0 .2 0 .2.1s0 .1-.1.1-.2 0-.4.1c-.1.1-.2.2-.4.7-.3.7-.5 1.1-.9 2-.5 1.1-.8 1.9-1 2.3-.2.4-.3.5-.4.5-.1 0-.2-.1-.3-.4L80 55.7zM86.1 57.2v-1.6c0-.3-.1-.3-.3-.4h-.3c-.1 0-.1 0-.1-.1s.1-.1.2-.1h3.5s.1 0 .1.1 0 .1-.1.5v.5s0 .1-.1.1-.1 0-.1-.1c0 0 0-.2-.1-.3-.1-.1-.1-.2-.5-.3h-1.2s-.1 0-.1.1v1.9s0 .1.1.1h1.3c.2 0 .3 0 .4-.1l.1-.1s.1 0 .1.1c0 0 0 .2-.1.5v.5c0 .1 0 .2-.1.2s-.1 0-.1-.1v-.3c0-.1-.1-.3-.4-.3h-1.2v1.8c0 .5.2.6 1 .6.2 0 .5 0 .7-.1.2-.1.3-.2.3-.6 0-.1 0-.1.1-.1s.1.1.1.2c0 .2-.1.7-.1.8 0 .2-.1.2-.4.2H85.6c-.1 0-.1 0-.1-.1 0 0 0-.1.1-.1h.3c.2 0 .2-.2.2-.4v-3zM91.7 57.8c0 .1 0 .1.1.1.2.1.4.1.6.1.3 0 .4 0 .5-.1.2-.2.5-.5.5-1.1 0-1.1-.7-1.3-1.1-1.3h-.4c-.1 0-.1 0-.1.1v2.2zm-1-.6v-1.6c0-.3-.1-.3-.3-.4h-.3c-.1 0-.1 0-.1-.1s0-.1.1-.1h2.1c.5 0 1 0 1.4.3.2.1.5.5.5 1 0 .6-.3 1.1-1 1.7.7.8 1.2 1.5 1.6 2 .4.4.7.5.8.5h.2c.1 0 .1 0 .1.1s0 .1-.1.1H95c-.4 0-.6 0-.8-.1-.3-.2-.6-.5-1-1.1-.3-.4-.6-.9-.7-1l-.1-.1h-.7s-.1 0-.1.1V60.2c0 .2.1.4.3.4h.4c.1 0 .1 0 .1.1s-.1.1-.2.1h-2c-.1 0-.1 0-.1-.1 0 0 0-.1.1-.1h.3c.2 0 .2-.2.2-.4v-3zM95.9 60.6c-.1 0-.1-.1-.1-.3v-1c0-.1 0-.2.1-.2s.1.1.1.1c0 .1 0 .3.1.4.2.6.7.7 1.2.7.6 0 1-.4 1-1 0-.3-.1-.7-.7-1.1l-.4-.3c-.9-.5-1.2-1-1.2-1.7 0-.9.8-1.5 1.9-1.5.5 0 .9.1 1 .1.1 0 .1 0 .1.1v.9c0 .2 0 .2-.1.2 0 0-.1 0-.1-.1s0-.3-.2-.5c-.1-.1-.3-.4-.8-.4s-1 .3-1 .8c0 .3.1.6.8 1l.3.2c1 .6 1.3 1.1 1.3 1.8 0 .6-.2 1-.7 1.4-.4.3-.8.3-1.2.3-.6.3-1 .2-1.4.1M100.7 57.2v-1.6c0-.3-.1-.3-.3-.4h-.3c-.1 0-.1 0-.1-.1 0 0 .1-.1.2-.1h1.9c.1 0 .1 0 .1.1s0 .1-.1.1h-.2c-.2 0-.3.1-.3.4v4.5c0 .2.1.3.3.4h.4c.1 0 .1 0 .1.1s-.1.1-.1.1h-2.2c-.1 0-.1 0-.1-.1 0 0 0-.1.1-.1h.3c.2 0 .2-.1.2-.4V57.2zM105.1 55.5H104c-.4 0-.6.1-.7.2-.1.1-.1.2-.1.3 0 .1 0 .1-.1.1s-.1 0-.1-.1.1-.8.2-.9c0-.1 0-.1.1-.1s.1.1.3.1h4.4c.1 0 .1 0 .1.2v.9c0 .1 0 .1-.1.1s-.1 0-.1-.1v-.1c0-.2-.2-.4-.9-.4h-.9v4.6c0 .2.1.4.3.4h.4c.1 0 .1 0 .1.1s-.1.1-.1.1h-2.2c-.1 0-.1 0-.1-.1 0 0 0-.1.1-.1h.3c.1 0 .2-.2.2-.4V55.5z"/><path fill="#6E7070" d="M110.3 58.7c0-.4-.1-.6-.2-.8 0-.1-1.1-1.8-1.3-2.2-.2-.3-.3-.4-.5-.5-.1 0-.2-.1-.3-.1-.1 0-.1 0-.1-.1s.1-.1.1-.1H109.7c.1 0 .1 0 .1.1s0 .1-.2.1c-.1 0-.1.1-.1.1 0 .1 0 .1.1.3.1.2 1.1 2 1.2 2.2.1-.2 1-1.8 1.1-2 .1-.2.1-.3.1-.4 0-.1 0-.1-.2-.2-.1 0-.1 0-.1-.1s0-.1.1-.1h1.5c.1 0 .1 0 .1.1s-.1.1-.1.1c-.1 0-.2 0-.3.1-.2.1-.2.1-.4.4-.2.3-1.3 2.1-1.4 2.4-.1.3-.1.5-.1.8V60.1c0 .2.1.4.3.4h.4c.1 0 .1 0 .1.1s-.1.1-.2.1h-2.2c-.1 0-.2 0-.2-.1 0 0 0-.1.1-.1h.3c.1 0 .2-.2.2-.4v-1.4zM121.1 58c0-1.7-.9-2.7-2.1-2.7-.8 0-1.8.5-1.8 2.3 0 1.5.8 2.8 2.2 2.8.6 0 1.7-.3 1.7-2.4m-5-.2c0-1.3.9-2.9 3.1-2.9 1.9 0 3 1.1 3 2.8 0 1.7-1.2 3.1-3.1 3.1-2.1 0-3-1.6-3-3M124.6 58.5v1.6c0 .2.1.4.3.4h.4c.1 0 .1 0 .1.1 0 0-.1.1-.2.1h-2.1c-.1 0-.1 0-.1-.1 0 0 0-.1.1-.1h.3c.2 0 .2-.2.2-.4V57.2v-1.6c0-.3-.1-.3-.3-.4h-.3c-.1 0-.1 0-.1-.1s.1-.1.2-.1h3.6s.1 0 .1.1 0 .1-.1.3v.6c0 .1 0 .2-.1.2s-.1 0-.1-.1v-.3c0-.1-.2-.2-.5-.2h-1.2s-.1 0-.1.1v1.8s0 .1.1.1h1.3c.1 0 .2 0 .3-.1l.1-.1v.1s0 .2-.1.5v.5c0 .1 0 .2-.1.2l-.1-.1v-.2c0-.1-.1-.3-.4-.3h-1.2s-.1 0-.1.1v.3zM134.7 57.4s.1 0 0 0v-.2-1.6c0-.3-.1-.3-.3-.4h-.3c-.1 0-.1 0-.1-.1s.1-.1.2-.1h2c.1 0 .2 0 .2.1s0 .1-.1.1h-.2c-.2 0-.3.1-.3.4v4.5c0 .2.1.4.3.4h.4c.1 0 .1 0 .1.1 0 0-.1.1-.2.1h-2.2c-.1 0-.2 0-.2-.1 0 0 0-.1.1-.1h.3c.2 0 .2-.2.2-.4v-2.2h-2.8v2.2c0 .2.1.4.3.4h.4c.1 0 .1 0 .1.1 0 0-.1.1-.2.1h-2.1c-.1 0-.1 0-.1-.1 0 0 0-.1.1-.1h.3c.2 0 .2-.2.2-.4V57.2v-1.6c0-.3-.1-.3-.3-.4h-.3c-.1 0-.1 0-.1-.1s.1-.1.2-.1h2.1c.1 0 .2 0 .2.1s0 .1-.1.1h-.2c-.2 0-.3.1-.3.4V57.5h2.7z"/><path fill="#6E7070" d="M140.1 58.4l-.7-1.9v-.1.1l-.7 1.9v.1h1.4zm-1.6.4c-.1 0-.1 0 0 0l-.5 1.1c-.1.2-.1.4-.1.5 0 .1.1.2.3.2h.1c.1 0 .1 0 .1.1s0 .1-.1.1H136.6c-.1 0-.1 0-.1-.1 0 0 0-.1.1-.1h.2c.3-.1.5-.3.6-.7l1.9-4.7c.1-.2.1-.3.2-.3s.1.1.2.2c.2.4 1.4 3.5 1.9 4.6.3.7.5.8.6.8h.3c.1 0 .1 0 .1.1s0 .1-.3.1h-1.4c-.1 0-.2 0-.2-.1 0 0 0-.1.1-.1 0 0 .1-.1.1-.2l-.6-1.5s0-.1-.1-.1h-1.7zM142.4 55.7c-.1-.3-.2-.5-.3-.5-.1-.1-.2-.1-.3-.1-.1 0-.1 0-.1-.1s.1-.1.2-.1h1.8c.1 0 .2 0 .2.1s-.1.1-.1.1h-.2c-.1 0-.1.1-.1.1 0 .1.1.3.2.7.1.5.8 2.8.9 3.1l1.4-3.8c.1-.2.2-.3.2-.3.1 0 .2.1.2.4l1.5 3.7c.1-.4.7-2.4 1-3.3 0-.2.1-.3.1-.4 0-.1-.1-.2-.4-.2-.1 0-.1 0-.1-.1s.1-.1.2-.1h1.4c.1 0 .1 0 .1.1s0 .1-.1.1h-.3c-.2.1-.3.4-.4.8-.3.9-1.1 3.3-1.5 4.4-.1.3-.1.4-.2.4s-.1-.1-.3-.4l-1.5-3.7c-.1.3-1.1 3-1.4 3.7-.1.3-.2.4-.3.4-.1 0-.1-.1-.2-.3l-1.6-4.7zM152.7 58.4l-.7-1.9v-.1.1l-.7 1.9v.1h1.4zm-1.6.4l-.5 1.1c-.1.2-.1.4-.1.5 0 .1.1.2.3.2h.1c.1 0 .1 0 .1.1s0 .1-.1.1H149.2c-.1 0-.1 0-.1-.1 0 0 0-.1.1-.1h.2c.3-.1.5-.3.6-.7l1.9-4.7c.1-.2.1-.3.2-.3s.1.1.2.2c.2.4 1.4 3.5 1.9 4.6.3.7.5.8.6.8h.3c.1 0 .1 0 .1.1s0 .1-.3.1h-1.4c-.1 0-.2 0-.2-.1 0 0 0-.1.1-.1 0 0 .1-.1.1-.2l-.6-1.5s0-.1-.1-.1h-1.7zM156.1 57.2v-1.6c0-.3-.1-.3-.2-.4h-.3c-.1 0-.1 0-.1-.1 0 0 .1-.1.2-.1h1.9c.1 0 .2 0 .2.1s0 .1-.1.1h-.2c-.2 0-.3.1-.3.4v4.5c0 .2.1.3.3.4h.4c.1 0 .1 0 .1.1s-.1.1-.1.1h-2.2c-.1 0-.1 0-.1-.1 0 0 0-.1.1-.1h.3c.1 0 .2-.1.2-.4V57.2zM159.6 55.6c.1.1.1.1.1.2 0 0 0 .1-.1.1-.2 0-.5-.1-.7-.2-.2-.1-.2-.1-.2-.3 0-.5.5-1.5.9-1.9l.1-.1v.2c-.2.3-.3.8-.3 1.4 0 .2.1.5.2.6M161.3 57.2v-1.6c0-.3-.1-.3-.3-.4h-.3c-.1 0-.1 0-.1-.1 0 0 .1-.1.2-.1h1.9c.1 0 .2 0 .2.1s0 .1-.1.1h-.2c-.2 0-.3.1-.3.4v4.5c0 .2.1.3.3.4h.4c.1 0 .1 0 .1.1s-.1.1-.1.1h-2.2c-.1 0-.1 0-.1-.1 0 0 0-.1.1-.1h.3c.2 0 .2-.1.2-.4V57.2z"/></svg>