<svg xmlns="http://www.w3.org/2000/svg" viewBox="0 0 850.5 542.4" enable-background="new 0 0 850.5 542.4"><g><path fill="#EDEBDF" d="M305.4 518.2l-3.4-2.5-.3-4.2.5-2.1-1.3-4.6-1.9-1.6-.2-2.8 2.2-.9 1.7-2.5.2-.5-1.3-1.4-.3-2.3 1.9-1.5 3.2 1.5 6.6 3.1 3.1 1.9 1.5 2.2 1.7 3.7 3.7 2.4-.4 1.6-3.6 3-3.9 1.4-1.2-.5-2.4 1.4-2 2.7-2.1 2.8-2-.3zm-14.1-32.6l-4.5-6.1 2.5-3.2 4.4 2.3 3.8 1 4.1 2.6v2.3l-3.4 1.7-4.5.9-2.4-1.5zm-10.4-5v-1.8l4 .3 1.7 2.2-.4 1.9-3.4 1.2-1.9-3.8zm.6-2.7l-5.5-1.6 1.7-2.5 4.2.9.5-.4 6.1.6-.5 1.9-2.6 1.4-3.9-.3zm-16-5l-.8.3-2.5.3-3.5-5.2.7-2 5.7-2.8 2.1 3.5 1.6 3.1 2.9 1.7-1.3 1.9-3.7.2-1.2-1zm-42.6-9.6l2.2-4.1 2.6-.4.5 1.3-2.1 3.1h-3.2zm9.1-3.4l1-3.9 3.9-1.7 4.2.5.7 3.5-1.6 3.8-2.2.3-6-2.5z"/><path fill="#fff" d="M236.9 454.8l3.7.4.6 2.9-1.4 3.4-1.8.3-5.3-2.2.8-3.2 3.4-1.6m-9.5 4.6l.3.7-1.8 2.7h-2.1l1.7-3.1 1.9-.3m37.5 4.8l1.8 3.1 1.7 3.2 2.5 1.5-.8 1.3-3.2.1-1.3-1.1-1 .4-2.1.3-3.2-4.8.6-1.5 5-2.5m13 10.1l4.1.8.6-.4 5.3.6-.3 1.1-2.2 1.3-3.8-.3-4.8-1.4 1.1-1.7m11.5 2.7l4.1 2.1 3.8 1 3.8 2.4v1.7l-3.1 1.5-4.2.8-2.1-1.3-4.2-5.8 1.9-2.4m-8 2.4l3.2.3 1.4 1.8-.3 1.4-2.7 1-1.7-3.4v-1.1m22.1 12.5l2.9 1.4 6.6 3.1 3 1.8 1.4 2.1 1.7 3.8 3.5 2.2-.3 1.1-3.4 2.8-3.7 1.3-1.3-.6-2.7 1.5-2.1 2.8-2 2.5-1.5-.1-3.1-2.2-.3-3.9.6-2.1-1.4-4.9-1.8-1.5-.1-2.2 2-.8 1.8-2.7.4-.8-1.4-1.5-.3-1.8 1.5-1.3m-1.5 1.1-65.1-39.2l-.2.1-3.5 1.5-.4.2-.1.5-.8 3.2-.2.8.8.3 5.3 2.2.3.1h.3l1.8-.3.6-.1.2-.5 1.4-3.4.1-.3-.1-.3-.6-2.9-.1-.7-.7-.1-3.7-.4-.4.1zm-8.8 4.5l-.8.1-2 .3-.5.1-.2.4-1.7 3.1-.8 1.5h4.3l.3-.4 1.8-2.7.3-.4-.2-.5-.3-.7-.2-.8zm37.2 4.6l-.8.4-5.1 2.5-.3.2-.1.4-.6 1.5-.2.5.3.4 3.2 4.8.3.5.6-.1 2.1-.3h.1l.1-.1.4-.2.8.7.3.3h.4l3.2-.1h.5l.3-.4.8-1.3.6-.9-.9-.5-2.3-1.4-1.6-3-1.8-3.1-.3-.8zm12.3 10.3l-.4.6-1.1 1.7-.8 1.1 1.3.4 4.7 1.4-.8-.1V480.7l.1.2 1.7 3.4.4.8.8-.3 2.7-1 .5-.2.1-.5.3-1.4.1-.4-.3-.4-1.4-1.8-.3-.3h-.4l-1-.1 1.6.1h.3l.3-.1 1.9-1.1-1.1 1.4-.5.6.4.6 4.2 5.8.1.2.2.1 2.1 1.3.3.2.4-.1 4.2-.8h.1l.1-.1 3.1-1.5.6-.3v-2.9l-.5-.3-3.8-2.4-.1-.1h-.2l-3.7-1-4-2.1-.7-.4-.5.6.2-.8.3-1.1-1.1-.1-5.3-.6h-.4l-.3.2-.2.2-3.6-.8-.6-.2zm25.7 17.5l-.5.4-1.4 1.1-.5.4.1.6.3 1.8v.3l.2.2.9 1-.1.2-1.6 2.4-1.7.7-.6.3v.7l.1 2.2v.4l.3.3 1.6 1.3 1.2 4.4-.5 1.8v.4l.3 3.9v.5l.4.3 3.1 2.2.2.2h.3l1.5.1h.5l.3-.4 2-2.5 2-2.7 2.1-1.2.8.4.4.2.4-.1 3.7-1.3.2-.1.1-.1 3.4-2.8.3-.2.1-.3.3-1.1.2-.7-.6-.4-3.3-2.1-1.6-3.5v-.2l-1.4-2.1-.1-.2-.2-.1-2.9-1.8h-.1l-6.6-3.1-2.9-1.4-.7-.3z"/></g><g><path fill="#EDEBDF" d="M196 523.7c-.1 0-.8-.4-1.3-1-.4-.6-1.8-2.9-1.9-3l-.5-1.1c-.2.1-.4.3-.6.3-.1 0-.3 0-.4-.1-.7-.3-1.3-1.3-1.3-1.5l-.2-.3 1.5-1.6-1.1-1.1V511l-.5 2-1.7.7-1-3.8-.1-.5.1 1.7v2.1l-2.2-1.9-3-5.1-1.9-.4-.6-3.5-1.3-2.4-1.5-1.1v-2.5l.4-.2-.8.2-3.2-2.3-2.2-2.5-4.1-2.2-3.9-2.5 1.2-3.1v-.2l-.8.7-2.8 1.1-3.4-1-4.9-2.1h-4.5l-.7.5-5.8-3.5-2-.2.1.1-3.2 1.9-.4-3.1 2.3-1.2.6 1.1-1.8-3.9-2.7.2-2.7 1.1.2 1.5.4-1.1 1.8.6-.9 2.6 2-1.7.9 2.3-3.8 4.2-1.7-.4-.4-1.8-.6-.4-1.1 1-2.4-1.6-2.3 1.6-1.6 1.8-3.1 1.9-4.6-.2-.6-2.7 3.3-.6v-.3l-2.1-.6 1-2.6 1.9-3.3V474l.2-1 4.4-2.3.9 1.3h1.3l-.6-1.3-2.8-.2-4.1 2.3-2 2.9-1.5 2.2-1 2.1-3.8 1.3-2.5 2.1-.2.8 1.8.8.9 2.3-2.6 3.1-5.7 3.7-6.8 3.7-1.9 1-4.7 1-3.7 1.6 1.3.9-1.6 1.6-.6 1.3-2.7-1-2.4.1-.7 2h-1.8l.2-1.9-2.3.8-1.4.5 1.8 1.6 2.1.3-1.1 2.6h-3.2l.9-1.8-1.3 1-2.1-2.6 1.6-.7L67 505l-2.4 1.6h-2.8l-1.7 1-1.6.8-2-.3-2.1-.9-1.7.5-1 1-2-1.4V505l3.1-1.3 5.5.6 3.6-1.3 1.9-1.9 2.6-.6 1.6-.7 2.7.2 1.3 1.1.4-.1 2-2.4 2.8-.9 3-.6 1.3-.3.6.5H82l1.1-3.1 3.6-1.3 1.6-3.1 2-4 1.3-1.2.1-.8-.5.4-3.5.7-.6-2.3-.6-.1-.5.5-.2 2.9-2.1-.2-1.1-4.5-.7.7-1.5-.7-.3-1.5-3 .1-1.9 1-3.4-.4 1.9-1.9.4-2-.6-1.9 1.7-1.1.6-.1-.4-1v-3.7l-.2-.2-.5.9h-5.8l-1.5-1.4-.6-3.5-1.8-3.1v-1.3l1.9-.7.1-1.7.6-.6-1.2.5-1.2-3 .9-4.7 4.1-2.9 2.2-1.3 1.7-3.3 2.7-1.3 2.7 1.2.3 1.9 1.5-.2 2.9-2.2 1.7.7.8.5h1.1l1.7-.9.7-3.6c.1-.8.4-2.8 1-3.3l.5-.5-.6-1-1.9.6-3 .7-1.9-.5-3-1.5-4.4-.1-3.4-3.6.5-3.6.5-1.9-1.7-1.4-1.9-3.6.7-1.2 6.2-.4h2.1l.6.6-.5-.8 3.9-.7 2.5.3 1.7 1.4-1.5 2.2-.3.8 2 1.2 4.1 1.4.9-.5-1.7-3.4-1-3.2.5-.5-2.5-1.4-.6-1.3.4-1.5-.7-3.2-2.5-4-2.4-4.1 3-2h3l1.5.6 3.4-.1 3-2.9 1-2.7 3.6-2.4 1.5.9 2.1-.5 3.3-1.8 1.3-.2.9.7 3.5-.1 2.4-2.7h1.4l3.3 2.2 1.9 2.1-.5 1.1.1.2 1.1-1.1 4 .3.3 3.4 1.4 1 6.2.6 5.3 3.5 1.2-.8 4.6 2.3 1.6-.5 1.8-.8 4.5 1.8 4.1 2.7-.3 74.2 1.1.6 2.4.1 1.3-1h2.9l.2 2.8 6 5.9.3 1.7 2.4-1.4.3-.1.3-2.5 1.5-1.7 1-.1 1.9-1.4 3.1 2.1.6 2.5 1.6 1 1 2.1 3.4 1.5 3 5.3 2.4 3.3 2 2.4 1.2 3.1 4.1 1.5 4.8 1.9.9 4 .4 2.8-.9 3.2-1.9 2.4-1.9-1-1.3-2.7-2.2-1.2-1.2-.8-.2.2 1.1 2.2.2 3.7-1.6.7-1.9-1.9-.7-.4v.1l1.3 1.8-1.2 1.2v.3zM25.4 511.3l3.7-2.5 3.1-.9 2.7.3.4 1.4 1.1.3 1.3-1.3-.3-1.6 3.1-.7 3 2.7-1.3 2.1-4.1 1.1-2.5-.4-3.1-1-3.6 1.2-1.6.3-1.9-1zm65.8-3.1l2.3-1.9 1.1 2.6-1.4 1.7-2-2.4zm8.9-5.3l-1.1-5.6 1.3-1.2 4.3-2.6 4-3.1 3.8-2.7-1.2 2.8 2.1.7-.6 1.9-2 .9-.4 2.1 1.6 2.4-4.2 2.5-4.5 2.6-3.1-.7zm8.2-8.1l.2-.1-1.1-.5-.3.2 1.2.4zM59.1 466l-3.2-3.4-.2-3.2 3.9.8 3.4.9 1 1.2-1.7 3.8-3.2-.1zm-22.2-16.4v-2.3h1.7l1.1 2.5 1.2 1.7-1.8 1.3-2.2-3.2zm20.4-13l-1.6-3.7-1.3-1.1H52l-.2-2.9L54 426l1.3 2.8 1.1 1.1 2.5.6 2 5-.2 1.4-3.4-.3z"/><path fill="#fff" d="M117.9 387.9l3.1 2.1 1.7 1.8-.4 1 .6 1 1.4-1.4 3.4.3.3 3.2 1.7 1.3 6.2.6 5.5 3.7 1.3-.8 4.5 2.2 1.8-.6 1.7-.7 4.2 1.7 3.8 2.5-.3 74.2 1.4.8 2.7.1 1.3-1h2.2l.1 2.5 6 5.9.4 2.2 2.9-1.7.6-.1.3-2.7 1.3-1.4 1-.1 1.7-1.3 2.7 1.8.6 2.5 1.7 1 1 2.1 3.4 1.5 2.9 5.2 2.4 3.4 2 2.4 1.3 3.2 4.4 1.5 4.5 1.8.8 3.8.4 2.7-.8 2.9-1.5 2-1.4-.7-1.3-2.7-2.4-1.3-1.5-1-.7.7 1.3 2.4.1 3.2-1 .4-1.7-1.7-1.8-1.1.4 1.4 1.1 1.5-.7.7s-.7-.3-1.1-.8c-.4-.6-1.8-3-1.8-3l-.8-2s-.2.9-.7.9h-.2c-.6-.3-1.1-1.3-1.1-1.3l1.5-1.7-1.3-1.3v-4.4h-1l-.7 2.9-1 .4-.8-3.2-.6-3.2-.7-.4.3 4.9v1l-1.3-1.1-3.1-5.2-1.8-.4-.6-3.2-1.4-2.5-1.4-1v-2l1.8-1.1-.4-.3-2.2.6-2.9-2.1-2.2-2.5-4.2-2.2-3.5-2.2 1.1-2.8v-1.4l-1.5 1.4-2.5 1-3.2-1-4.9-2.1h-4.8l-.6.4-5.6-3.4-1.8-.3-2.4-5.1-3.1.3-3.1 1.3.4 3.9 1-2.5.8.3-1.3 3.8 2.8-2.4.6 1.4-3.4 3.8-1.1-.3-.4-1.7-1.1-.7-1.1 1-2.4-1.5-2.7 1.8-1.5 1.8-2.9 1.8-4.1-.1-.4-1.8 3.2-.6v-1.1l-2-.6.8-2.1 2-3.4V474l.1-.7 3.8-2 .8 1.1h2.4l-1.1-2.2-3.2-.3-4.4 2.4-2.1 3-1.5 2.2-1 2-3.7 1.3-2.7 2.2-.3 1.4 2 .8.7 1.8-2.4 2.8-5.6 3.7-6.7 3.7-1.8 1-4.6 1-4.6 2 1.5 1.1-1.3 1.3-.4 1-2.4-.8-2.8.1-.7 2h-.8l.3-2.1-3.1 1.1-2.5.8-2.9-1.1-2.5 1.7h-2.8l-1.8 1.1-1.4.7-1.8-.3-2.2-1-2 .6-.8.8-1.4-1v-1.7l2.7-1.1 5.5.6 3.8-1.4 1.8-1.8 2.5-.6 1.5-.7 2.4.1 1.4 1.1.8-.3 2-2.4 2.7-.8 2.9-.6 1.1-.3.6.4h.7l1.1-3.2 3.5-1.3 1.7-3.2 2-3.9 1.4-1.3.3-2.2L91 484l-2.9.6-.6-2.1-1.1-.3-.8.8-.1 2.5-1.3-.1-1.3-5.1-1.1 1.1-1-.4-.3-1.7-3.5.1-1.8 1-2.2-.3 1.3-1.3.4-2.2-.7-1.6 1.3-.8 1.1-.1-.6-1.5v-3.8l-.8-.8-.7 1.3H69l-1.3-1.1-.6-3.4-1.8-3.1v-.8l1.8-.7.1-1.8 1-1-.7-.4-1.1.4-1-2.4.8-4.4 3.9-2.8 2.2-1.4 1.7-3.2 2.4-1.1 2.2 1 .4 1.9 2.1-.3 2.8-2.1 1.4.6.8.6h1.4l2-1.1.7-3.8s.3-2.5.8-2.9.8-.8.8-.8l-1-1.7-2.2.7-2.8.7-1.7-.4L81 433l-4.4-.1-3.1-3.2.4-3.4.6-2.1-1.8-1.5-1.7-3.2.4-.7 5.9-.4h1.8l.8.8h.6l-.1-1.4 3.4-.6 2.2.3 1.3 1-1.3 1.8-.4 1.3L88 423l4.4 1.5 1.5-.8-2-3.8-.8-2.8.8-.7-2.9-1.7-.4-1 .4-1.4-.7-3.4-2.5-4.1-2.1-3.7 2.5-1.7H89l1.5.6 3.7-.1 3.2-3.1 1-2.7 3.2-2.1 1.4.8 2.4-.6 3.2-1.8 1-.1.8.7 3.9-.1 2.4-2.7h1.2m40.6 17.6M53.9 427l1 2.1 1.3 1.3 2.4.6 1.8 4.6-.1.8-2.5-.3-1.5-3.5-1.5-1.3h-2.1l-.1-2.2 1.3-2.1m-15.6 20.8l1 2.2 1 1.4-1 .7-1.8-2.7v-1.7h.8m18 12.3l3.2.7 3.2.8.7.8-1.4 3.2-2.7-.1-2.9-3.1-.1-2.3m81.3 17.4l.8 1.5-2.1 1.3-.3-2 1.6-.8m-26.3 11.8l-.7 1.7 2.1.7-.4 1.3-3.4 1.5-1.7-.7-1.4 1 2.5.7 1.8-1.1-.4 2.1 1.4 2.1-3.8 2.2-4.4 2.5-2.5-.7-1-5.1 1.1-1 4.2-2.5 4.1-3.1 2.5-1.6m-11.8 8.3-28.6 9l1.3 1.1-1.8 1.4-1.4-1.7 1.9-.8m-30.5.4l2.5 2.2-1 1.5-3.8 1-2.4-.4-3.2-1-3.8 1.3-1.4.3-1-.6 2.9-2 2.9-.8 2.2.3.4 1.4 1.7.4 1.7-1.7-.3-1.4 2.6-.5m52.9.3l.7 1.7-.8 1-1.3-1.5 1.4-1.2m-20.9.8l1.8.3-.7 1.7h-2.1l1-2m-46.1 3.3 91.9-124.4H116.5l-.3.3-2.1 2.4-3.1.1-.5-.5-.3-.3-.4.1-1 .1h-.2l-.2.1-3.1 1.8-1.9.4-1.1-.6-.5-.3-.5.3L98 393l-.3.2-.1.3-.9 2.5-2.8 2.7-3.1.1-1.4-.5-.2-.1H86l-.3.2-2.5 1.7-.8.5.5.8L85 405l2.5 4 .6 2.9-.3 1.2-.1.3.1.3.4 1 .1.3.3.2 1.7 1-.2.2.2.6.8 2.8v.2l1.5 2.9-.3.2-3.8-1.4-1.6-.9.1-.4 1.2-1.7.5-.8-.7-.6-1.3-1-.2-.2h-.3l-2.2-.3h-.2l-3.4.6-.9.2v.4h-2l-5.9.4h-.5l-.3.4-.4.7-.3.5.3.5 1.7 3.2-.1.3.1.1 1.3 1.1-.4 1.5v.2l-.4 3.4-.1.5.3.3 3.1 3.2.3.3h.4l4.1.1 2.9 1.4h.2l1.7.4.2.1.2-.1 2.8-.7 1.5-.5.2.4-.2.2c-.6.4-1 1.7-1.2 3.6l-.6 3.3-1.3.8h-.8l-.6-.4-.1-.1h-.1l-1.4-.6-.5-.2-.4.3-2.6 2-.9.1-.1-1.1-.1-.6-.5-.2-2.2-1-.4-.2-.4.2-2.4 1.1-.3.1-.2.3-1.6 3-2 1.3-3.9 2.8-.3.2-.1.4-.8 4.4-.1.3.1.3 1 2.4.4.9.4-.1-.1 1-1.2.5-.6.2v1.8l-.1-.1-.7-.8-.2-.2-.3-.1-3.2-.8-3.3-.7-1.3-.3.1 1.3.1 2.4v.4l.3.3 2.9 3.1.3.3h.4l2.7.1h.7l.3-.6 1.4-3.2.2-.5 1.6 2.7.5 3.2.1.3.3.2 1.3 1.1.3.3h6.2v2.6l.1.2.1.4H75l-.2.1-1.3.8-.6.4.2.7.5 1.4-.3 1.7-1 1-1.4 1.4 2 .3 2.2.3h.3l.3-.2 1.6-.9 2.4-.1.1.8.1.5.5.2 1 .4.6.3.4-.4.8 3.3.2.7.7.1 1.3.1 1.1.1.1-1.1.1-2.1.2-.2.4 1.5.2.9.9-.2 2.4-.5-.6.6-.1.1-.1.2-2 3.9-1.5 2.9-3.1 1.1-.4.2-.2.5-.8 2.4-.4-.3-.5.1-1.1.3-2.9.6h-.2l-2.7.8-.3.1-.2.2-1.8 2.2h-.1l-1-.8-.2-.2h-.3l-2.4-.1h-.2l-.2.1-1.5.7-2.4.5-.3.1-.2.2-1.7 1.7-3.4 1.2-5.2-.5h-.3l-.2.1-2.7 1.1-.6.3v2.9l.4.3 1.4 1 .7.5.6-.6.7-.7 1.4-.4 1.9.8.1.1h.1l1.8.3h.3l.3-.1 1.4-.7 1.6-1h2.8l.3-.2 2.1-1.4 1.4.6-1.1.5.9 1 1.4 1.7.6.7-.3.6h4.4l.3-.6.7-1.7.5-1.2-1.3-.2-1.3-.2-.3-.3-.7-.7.5-.2 1.6-.6-.1.5-.2 1.1h2.6l.2-.7.5-1.3 1.9-.1 2.2.8.9.3.4-.9.3-.8 1.1-1.1.8-.8-.9-.7-.1-.1 2.9-1.2 4.5-1h.1l.1-.1 1.8-1 6.7-3.7 5.6-3.7.1-.1.1-.1 2.4-2.8.4-.5-.2-.6-.7-1.8-.2-.4-.4-.2-1.2-.5.1-.3 2.3-1.9 3.5-1.2.4-.1.2-.4 1-1.9 1.5-2.2 2-2.7-.1.7v1.5l-1.8 3.1v.2l-.8 2.1-.4 1 1.1.3.2.1-1.4.2-1 .2.2 1 .4 1.8.2.7h.1l-2.8 2-2.4 1.7-4.1 3.1-4.2 2.5h-.1l-.1.1-1.1 1-.4.4.1.6 1 5.1.1.6.6.2 2.5.7.4.1.4-.2 4.4-2.5 3.8-2.3.9-.5-.6-.9-1.2-1.8.3-1.7 1.5-.7.4-.2.1-.4.4-1.3.3-.9-.9-.3-1.1-.4.3-.7 1.3-3.2h.7l4.1.1h.3l.3-.2 2.9-1.8.1-.1.1-.1 1.5-1.7 2-1.4 1.8 1.2.6.4.6-.5.6-.5.2.1.3 1.3.1.6.6.1 1.1.3.6.1.4-.5 2.9-3.3.2 1.2 1.3-.8 2.1-1.3.4-.3 1.4.2 5.5 3.3.6.3.5-.4.3-.2h4.2l4.7 2h.2l3.2 1 .3.1.3-.1 2.2-.9-.6 1.4-.3.8.7.4 3.5 2.2 4.1 2.2 2.1 2.4.1.1.1.1 3 2.1.4.3v2.2l.4.3 1.2.9 1.2 2.2.5 3.1.1.7.6.1 1.4.3 2.9 4.8.1.1.1.1 1.3 1.1 1.7 1.5v-.4l.2.6 1.1-.5 1-.4v.9l.3.3.6.6-.9 1-.5.5.4.6c.2.3.8 1.3 1.5 1.7.2.1.4.2.6.2h.4l.2.5v.2c.1.2 1.4 2.5 1.9 3 .6.8 1.5 1.1 1.6 1.2l.6.2.5-.5.7-.7.3-.3.2.2.5.5.6-.3 1-.4.6-.3v-.7l-.1-3.2v-.2l-.1-.2-.4-.8 2.1 1.1 1.1 2.4.1.3.3.2 1.4.7.7.4.5-.6 1.5-2 .1-.2.1-.2.8-2.9.1-.2v-.2l-.4-2.7-.8-3.8-.1-.5-.5-.2-4.5-1.8-4-1.4-1.1-2.8-.1-.1-.1-.1-1.9-2.4-2.3-3.3-2.9-5.2-.2-.3-.3-.1-3-1.4-.8-1.8-.1-.3-.3-.2-1.3-.8-.5-2.1-.1-.4-.3-.2-2.7-1.8-.6-.4-.6.4-1.5 1.1-.7.1-.4.1-.2.3-1.3 1.4-.2.2v.3l-.2 2-.1.1-1.7 1-.2-.9-.1-.3-.2-.2-5.8-5.6-.1-2.1-.1-.9H163l-.3.2-1 .8-2-.1-.7-.4.3-73.6v-.5l-.4-.3-3.8-2.5-.1-.1h-.1l-4.2-1.7-.4-.2-.4.2-1.6.7-1.4.4-4.1-2.1-.5-.3-.5.3-.7.5-4.9-3.3-.2-.1h-.3l-5.9-.5-1.1-.8-.2-2.8-.1-.8-.8-.1-3.4-.3h-.5l-.1.1-.3-.3-1.7-1.8-.1-.1-.1-.1-3.1-2.1-.1.1zm5 84.9l-.2-.3h.4l.1.3h-.3zm10.8 2.9l2.2-.2.9 1.9h-.1l-1.5.8-.2.1-.4-1.1-1.1.9-.1.1.1-.4.3-.9-.9-.3-.8-.3h-.1l1.7-.6zM54.1 425l-1 1.4-1.5 2.1-.2.3v.4l.1 2.2.1.9h2.7l1.1.9 1.4 3.3.2.5.6.1 2.5.3.9.1.2-.9.1-.8v-.3l-.1-.3-1.8-4.6-.2-.5-.5-.1-2.1-.5-.9-.9-.9-1.9-.7-1.7zm-15.8 21.8h-1.8v3l.2.3 1.8 2.7.6.8.8-.6 1-.7.8-.6-.6-.8-.9-1.3-.9-2.2-.3-.6h-.7zm55.5 58.8l-1 .8-1.4 1.1-.8.6.6.8 1.3 1.5.8.9.8-.9.8-1 .4-.5-.2-.6-.7-1.7-.6-1zm-53.1.2l-.5.1-2.4.6-.9.2.2.9.2.9-.9.9-.6-.1-.3-.9-.2-.6-.6-.1-2.2-.3h-.2l-.2.1-2.9.8H29l-.1.1-2.9 2-1.3.9 1.4.8 1 .6.3.2.4-.1 1.4-.3h.2l3.5-1.2 2.9.9h.2l2.4.4h.2l.2-.1 3.8-1 .4-.1.2-.3 1-1.5.5-.7-.6-.6-2.5-2.2-.9-.3z"/></g><g><path fill="#EDEBDF" d="M691.3 507.9l2.9-.8.9-.2 1.2-1.9 2.3-1.6 1.4.5 1.7.3.6 1.7-3.5 1.2-3.7 1.3-2.3 1.2-1.5-1.7zm11.9-4.1l2.8-1.7 2.9-1.7 3.7-3.6 2.7-4.5.2-.5-1.2 1.4-2.9 1.4-3.3.1-1.1 1.3-2.4 1-1.4-.5-1.2-1-.3-2.7-.7-2.8-2.8-4.3-2.9-1.8-2.9-.2-.9 1.5-3.2-4.5-.6-3.1-2.1-3.3-1.1-.7-1.3 1.7-2.1-.4-1.9-4.5-2.5-3.3-2.6-4.7-2.2-2.6-3.4-3.5 2.1-2.5 2.7-4.6-.1-.9-3.4-.7-.7.3 2.4.9-1.5 4.6-1.4.8-1.8-4-1.1-4.3-.3-2.6 1.3-4.1v-8l-2.6-3.1-1.1-2.5-4.3-1.1-1.9-.6-1.4-2.3-3-1.4-1-2.9-2.3-.8-2.1-3.2-3.5-1.2-2.5-1.2h-2l-3 .6-.1 1.1.8.9-.7 1.6-2.8-.1-3.1 3-3.3 1.8h-3.4l-3.3 1.3-.3-2.9-1.2-1.5-2.5-1-1.4-1.3-6.9-3.3-6.5-1.5-3.7.5-5.2.4-5.1 1.8-3.7.7-.2-7.3-2.1-1.5-1.8-1.8.3-3.3 9.2-1.2 22.2-2.5 5.9-.6 5 .3 2.4 3.6 1.1 1.1 6.8.4 28-1.7 4.7-.6 4.9.2.4 2.6 1 .4.2-3.2-1.4-3.8 1.5-1.7 5.1.4 4.8.3 2.1 6.7 3.2 8.4 4.6 8.1 3.2 5.5 4.2 4.7 3.5 3.2 1.6 2.9-1.2 1.4-.5.8 2.4 6.1 2.5 2.5 2.3 4.7 3.1 5 4 7.3 1.1 6.7.4 10.4.6 1.6-.3 3.3-2 1.1.2 1.5-.6 1.7.3 2 .1.3.9-2.7 1.6-1.1-.2 4.1-.9 1.6-2.2 5.8-3.3 3.4-4.7 3.7-2.7 2.1-1.7-2.1z"/><path fill="#fff" d="M672.1 392.5l4.8.4 4.5.3 2 6.4 3.2 8.5 4.6 8.1 3.2 5.5 4.2 4.8 3.5 3.2 1.4 2.5-1 1.1-.7 1.1 2.5 6.5 2.5 2.5 2.2 4.6 3.1 5.1 3.9 7.2 1.1 6.6.4 10.4.6 1.5-.3 3-2.1 1.1.3 1.7-.6 1.7.3 2.1.4 1.7-2.4 2.8-2.7 1.3-3.4.1-1.3 1.4-2.1.8-1.1-.4-1-.8-.3-2.5-.7-2.9-3-4.5-3.1-2-3.4-.3-.7 1.1-2.7-3.8-.6-3.1-2.2-3.5-1.5-1-1.4 1.8-1.5-.3-1.8-4.4-2.5-3.4-2.5-4.6-2.2-2.7-3.1-3.2 1.8-2.1 2.8-4.8-.1-1.4-3.9-.8-1.4.6.3.6 2.2.8-1.3 3.9-.7.4-1.5-3.5-1.1-4.2-.3-2.4 1.3-4.1v-8.3l-2.7-3.2-1.1-2.7-4.5-1.1-1.7-.6-1.4-2.2-3-1.4-1-2.9-2.4-.8-2.1-3.2-3.7-1.3-2.5-1.3H639l-3.5.7-.1 1.7.7.8-.4 1-2.7-.1-3.2 3.1-3.1 1.7h-3.4l-2.8 1.1-.3-2.4-1.4-1.7-2.5-1-1.4-1.3-7-3.4-6.6-1.5-3.8.6-5.2.4-5.2 1.8-3 .5-.2-7-2.2-1.7-1.5-1.5.3-2.7 8.8-1.1 22.2-2.5 5.9-.6 4.7.2 2.2 3.4 1.3 1.3 7 .4 9.4-.6 18.7-1.1 4.7-.6 4.4.2.4 2.5 1.9.7.2-4-1.3-3.6 1.1-1.2m46.4 93.2l-.1 3-.8 1.5-2.2 5.8-3.2 3.4-4.6 3.7-2.4 1.8-1.1-.9 2.2-1.3 3-1.7 3.8-3.7 2.8-4.6 1.3-4 .8-2.5.5-.5M698.8 504l1.1.4 1.5.3.4.9-3 1.1-3.7 1.3-2 1.1-.8-.8 2.1-.6 1.1-.2 1.3-2 2-1.5m-6.5 4.2-20.6-116.8l-.3.4-1.1 1.3-.4.4.2.6 1.3 3.4-.1 2.5h-.1l-.3-1.9-.1-.8h-.8l-4.4-.2h-.2l-4.7.6-18.7 1.1-9.3.6-6.6-.4-.9-.9-2.2-3.3-.3-.4h-.5l-4.7-.2h-.2l-5.9.6L589 397l-8.9 1.1-.8.1-.1.8-.3 2.7v.5l.3.3 1.5 1.5.1.1h.1l1.9 1.4.2 6.5v1.2l1.1-.2 3-.5h.2l5.1-1.8 5.1-.4 3.6-.5 6.3 1.5 6.8 3.3 1.3 1.2.1.1.2.1 2.3.9 1 1.3.2 2.1.2 1.3 1.2-.5 2.6-1.1h3.5l.2-.1 3.1-1.7.1-.1.1-.1 2.9-2.8 2.2.1h.7l.3-.6.4-1 .2-.6-.4-.5-.4-.5v-.5l2.7-.5h1.9l2.3 1.2h.2l3.3 1.2 1.9 2.9.2.3.3.1 1.9.7.8 2.5.1.4.4.2 2.7 1.3 1.3 2 .2.3.3.1 1.7.6 4 1 .9 2.2.1.1.1.1 2.4 3v7.8l-1.2 3.9-.1.2v.2l.3 2.4v.2l1.1 4.2v.2l1.5 3.5.5 1 1-.6.3-.2-1.3 1.5-.6.7.6.7 3.1 3.2 2.2 2.6 2.5 4.5v.2l2.5 3.3 1.8 4.2.2.5.5.1 1.5.3.6.1.4-.5.8-1.1.6.4 2 3.2.5 2.9v.2l.1.2 2.7 3.8.9 1.2.8-1.3.4-.6 2.5.2 2.7 1.7 2.7 4.2.6 2.7.3 2.5v.4l.3.3 1 .8.1.1.2.1 1.1.4.4.1.4-.1 2.1-.8.2-.1.2-.2 1-1.1 3-.1h.2l.2-.1 1.9-.9-1.5 2.5-3.6 3.5-2.8 1.6-2.2 1.4-1.2.7 1 .9 1.1.9.6.5.6-.5 2.4-1.8 4.6-3.7h.1v-.1l3.2-3.4.1-.1.1-.2 2.1-5.7.8-1.4.1-.2v-.2l.1-2.9.1-2-1.6 1.1-.6.4-.3.2-.1.3-.2.6v-.1l.5-1.5.1-.2v-.2l-.2-1 1.5-.8.5-.3.1-.5.3-2.9v-.2l-.1-.2-.5-1.4-.4-10.2v-.2l-1.1-6.6v-.2l-.1-.1-3.9-7.2-3.1-5.1-2.2-4.6-.1-.2-.1-.1-2.4-2.4-2.3-5.8.4-.6.9-1.1.5-.5-.3-.6-1.4-2.5.3-.6-.1-.1-3.5-3.2-4.1-4.7-3.2-5.4-4.6-8.1-3.2-8.4-2-6.3-.2-.7h-.7l-4.5-.3-4.8-.4h-.4zm-.9 60.8l1-3.1.2-.8.7.1v.4l-1.9 3.4zm27.9 50.7l-.4.3-2 1.4-.2.1-.1.2-1 1.7-.7.1-2.1.6-1.7.4 1.2 1.2.8.8.5.5.6-.3 2-1 3.6-1.2 3-1.1 1-.3-.4-1-.4-.9-.2-.5-.5-.1-1.4-.3-1-.4-.6-.2z"/></g><g><path fill="#EDEBDF" d="M763.9 143.1l.5-1.9.1-3.7-.8-1.1.1-4.4.7-8v-7.3l-.9-1.5v-1.5l2.4-1 3-4.2v-3.2l-1.6-2.3-.3-5.1v-4.6l1.7-2.3 1.3 1.3.4-1.1h1.5l4.1 13 6.3 20.3.3 2.2 3.3 1 .5 2.6 2.4.9-1.2 3.4-.9 1.1-3.1 1.4-1.6 2.4-2.1.6-14.8 3.9z"/><path fill="#fff" d="M770.8 91.7h.8l4 12.6 6.3 20.4.3 2.4 3.4 1 .4 2.7 2.2.8-.9 2.9-.8.9-3.1 1.4-1.6 2.4-1.9.5-14.6 3.8-.8-.6.4-1.5.1-3.9-.8-1.1.1-4.2.7-8v-7.4l-1-1.5v-1l2.2-1 3.2-4.4v-3.5l-1.7-2.4-.3-4.9v-4.4l1.3-1.7.8.8.6.4.7-1.5m-2-1.4l-.7.9-1.3 1.7-.2.3v4.7l.3 4.9v.3l.2.2 1.5 2.1v2.9l-2.9 3.9-2 .9-.6.3v2l.2.2.8 1.3v7.1l-.7 8-.1 4.2v.4l.2.3.6.8-.1 3.5-.4 1.4-.2.7.6.4.8.6.4.3.5-.1 14.6-3.8 1.9-.5.4-.1.2-.3 1.4-2.2 2.9-1.3.2-.1.2-.2.8-.9.1-.1.1-.2.9-2.9.3-.9-.9-.3-1.7-.6-.3-2.1-.1-.6-.6-.2-2.7-.8-.2-1.7v-.2l-6.3-20.4-4-12.6-.2-.7h-2.2l-.3.6v.1l-.3-.3-1.1-.9z"/></g><g><path fill="#EDEBDF" d="M572.2 193.1l.3-2.3 2.1-4.5.8-5.1.7-4-1.2-4.1-2.5-5.6-3.2-5.3.3-2.6.3-.8.6-1.9-.4-.9-.6-4.3 1.5-3.6.9-5.1-.7-2.1v-1.5l2.1-.4.4-1.7-.5-.7.2-1.2 1.7-1.9 2.3-.9.8-3.7 2.2-.9 1.1 1.1-.7 2.4-1.1 2v3.1l2.6-1.6-.3-4.5-.3-1.4.3-2 1.5-1.8 2.4-.3 1.5-.5-1.6-.4-1.2-.4-.3-3.7 2.7-2.1 2.9-1.8 2.9 2.2.4.2.5-.5h2.7l4.8 3 3.8 1.2h2.5l1.2 2.4 2.2 2.1-.2 2.2-1.7-.3-.3.3.5 1.4 1.1.7 1.5 2.2.3 9.1-2.2 1.5-.5 2.1-.8 3.2-2.9 1.1c-.1.9-.3 3.4-.4 4 .2.3 1 .9 1.8 1.4l1 .4.7-.4 2.3-3.1 1.7-4.5 3.6-1.6 1.6-1.1 2.6 1.8 2.2 3 2 8 2.8 7.2.3 8.7-2.1 1.1-.7-.1-.2-.7-.3-.2-1 2.1-.2 3.3-1.2.4-1.1 1.1.2 4.4-1.9 1.6-1.7 3.1-.1 1.2-.2.9-3.7.4-8.9 1.3-6.5 1.1-.1-1.5-5.8.8-18.6 2-5.2.2 3.7-3.4z"/><path fill="#fff" d="M590.1 117.1l2.7 2 .8.4.6-.6h2.4l4.8 2.9 3.9 1.3h2.2l1.1 2.2 2.1 2-.1 1.4-1.4-.3-.7.7.7 1.8 1.1.7 1.4 2 .3 8.7-2.1 1.4-.6 2.2-.7 2.9-3 1.1s-.3 3.8-.4 4.4 2.1 1.8 2.1 1.8l1.3.6 1-.6 2.4-3.2 1.7-4.4 3.4-1.5 1.4-1 2.2 1.5 2.1 2.8 2 7.9 2.8 7.2.3 8.3-1.7.8-.7-.1-.1-.6-.9-.5-1.3 2.6-.2 3.1-.9.3-1.4 1.4.2 4.4-1.7 1.5-1.8 3.2-.1 1.3-.1.5-3.3.4-8.9 1.3-6 1.1-.1-1.4-6.3.9-18.6 2-3.8.1 2.8-2.7.3-2.4 2.1-4.5.8-5.2.7-4.1-1.3-4.2-2.5-5.6-3.1-5.2.3-2.4.3-.7.7-2.1-.4-1-.6-4.1 1.4-3.5 1-5.3-.7-2.1v-1l2-.4.6-2.2-.6-.7.1-.8 1.5-1.7 2.4-1 .8-3.7 1.7-.7.7.7-.6 2.1-1.1 2.1v3.7l.6.1 3.1-1.8-.3-4.8-.3-1.4.3-1.8 1.3-1.5 2.2-.3 2.2-.7-.4-.7-1.8-.4-.8-.3-.3-3.1 2.5-2 2.3-1.5m0-1.2l-.6.4-2.5 1.5-2.5 2-.4.3v.5l.3 3.1.1.7.6.2.6.2-1.9.2h-.4l-.3.3-1.3 1.5-.2.2v.3l-.2 1.1-.5-.5-.5-.5-.6.3-1.7.7-.5.2-.1.5-.7 3.1-1.9.8-.2.1-.2.2-1.5 1.7-.2.2v.3l-.1.8-.1.4.3.3.3.3-.3 1.2-1.4.3-.8.2v2l.1.2.6 1.9-.9 5-1.4 3.4-.1.2v.3l.6 4.1v.1l.1.1.3.6-.6 1.7-.3.7v.2l-.3 2.4v.3l.2.3 3.1 5.1 2.5 5.5 1.2 3.9-.7 3.8-.8 5.1-2 4.4-.1.1v.2l-.2 2-2.6 2.4-1.9 1.8 2.6-.1 3.8-.1 18.6-2 5.3-.7v.4l.1 1.1 1.1-.2 6-1.1 8.9-1.3 3.3-.4.7-.1.2-.7.1-.5v-.2l.1-1.1 1.6-2.9 1.6-1.4.4-.3v-.5l-.2-4 .9-.9.7-.2.7-.2v-.7l.2-2.9.6-1.1v.1l.6.1.7.1.3.1.3-.2 1.7-.8.6-.3v-.6l-.3-8.3v-.2l-.1-.2-2.8-7.1-2-7.8v-.2l-.1-.2-2.1-2.8-.1-.1-.1-.1-2.2-1.5-.6-.4-.6.4-1.3.9-3.3 1.5-.4.2-.1.4-1.6 4.2-2.2 3-.4.2-.8-.3c-.6-.3-1.2-.8-1.5-1.1.1-.8.3-2.5.3-3.5l2.4-.9.5-.2.1-.5.7-2.9.5-1.9 1.8-1.2.5-.3v-.6l-.3-8.7v-.3l-.2-.2-1.4-2-.3.5-.2-.1-.8-.5-.3-.7.7.1 1.1.2.1-1.1.1-1.4v-.5l-.4-.3-2-1.8-1-2.1-.3-.6h-2.7l-3.7-1.2-4.7-2.9-.2-.1H593.6l-.3.3-.1.1-.1-.1-2.6-1.9-.4-.5zm-9.9 18l1-1.9.1-.1v-.1l.3-1v.1l.2 4.1-1.6 1v-2.1z"/></g><g><path fill="#EDEBDF" d="M551.9 132.2l-1.3-1-1.7-8.9-2.9-1.1-1.8-2-10.4-2.3-2.5-.9-7.1-1.9-7-1-3.6-5 1.1-.9 2.4-.7 2.8-1.8v-.7l.8-.8 5.2-.8 2-1.6 3.6-1.7.1-1 1.8-2.7 1.6-.7 1-1.4 2.1-2.1L542 89l4.4-.5 1.4 1.4-.5 1.4-3.3.9-1.3 2.6-1.9.7-.4 1.9-2.1 2.8-.2 1.8h.1l.6-.7 3.5-2.9 1.3 1.3h1.8l3 .9 1.4 1.1 1.3 2.7 2.2 2.2 3-.1 1.5-1 1.6 1.3 1.1.3 1.1-.7h1l1.3-.8 3.5-3.1 3.1-1 5.7-.3 3.9-1.6 2.4-1.2 1.9.2v5.1l.1.1 2.3.6 1.6-.4 5.2-1.4 1.1-1.1 1.9.6v6.2l2.6 2.5 1.1.5 1 .7-.2-.9-1-.5.5-1.7 1.7-.2 2.2-.2.2.2c.5.6 1.1 1.4 1.3 1.5.1.1.5.3.6 1.8v.2l-1.4 1.4-3.4-.2-.1-.4-1.5.4-.8-.3-3.1-.4-1.8.6-1.9-.1-2.8 1.3h-1.7l-5-1.1-4.2.1-1.7 2.2-6.2.6-1.8.6-.9 2.6-1.4 1.3-.8-.3-1.1-1.2-3.7 2H560l-.9-1.4h-.1l-1.6 3.6-.8 3.4-3.1 6.8-1.6-1.5zm-26.1-49.3l2-2.3 1.9-.7 4.7-3.4 2.4-.6 1 1-4.9 4.9-2.9 1.7-2.1.9-2.1-1.5z"/><path fill="#fff" d="M536.7 76.5l.4.4-4.5 4.5-2.9 1.7-1.8.8-1.4-1 1.6-1.8 1.9-.7 4.7-3.4 2-.5m9.7 12.4l1 1-.3.8-3.2.8-1.3 2.7-2 .7-.4 2.1-2.1 2.8-.3 2.2.7.4.8-1 3.1-2.5 1.1 1.1h2l2.8.8 1.3 1 1.3 2.7 2.4 2.4 3.4-.1 1.3-.8 1.4 1.1 1.4.4 1.1-.7h1l1.4-.8 3.5-3.1 3-1 5.8-.3 3.9-1.7 2.2-1.1 1.3.1v4.9l.4.3 2.5.7 1.7-.4 5.3-1.4 1-1 1.3.4v6l2.8 2.7 1.1.6 1.1.8-1.1.3-.7-.3-3.2-.4-1.8.6-2-.1-2.8 1.3H588l-5.1-1.1-4.5.1-1.7 2.2-6 .6-2.1.7-1 2.7-1.1 1-.4-.1-1.3-1.4-3.9 2.1h-.6l-1-1.4-.7.1-1.7 3.8-.8 3.5-2.8 6.1-1-.9-1.2-.9-1.7-8.9-3.1-1.2-1.8-2-10.5-2.4-2.5-.9-7.2-1.9-6.9-1-3.2-4.5.6-.5 2.4-.7 3.1-2v-.8l.6-.6 5.2-.8 2.1-1.7 3.8-1.8.1-1.1 1.7-2.5 1.5-.7 1.1-1.5 2-2 3.8-2.1 4.2-.5m57.8 20.1s1.1 1.5 1.4 1.6c.3.1.4 1.4.4 1.4l-1.1 1.1-2.8-.1-.6-2.2-.8-.4.3-1 1.4-.1 1.8-.3M537 75.4l-.5.1-2 .5h-.2l-.2.1-4.6 3.3-1.8.6-.2.1-.2.2-1.6 1.8-.7.8.9.6 1.4 1 .5.3.5-.2 1.8-.8h.1l2.9-1.7.1-.1.1-.1 4.5-4.5.7-.7-.7-.7-.4-.4-.4-.2zm9.7 12.4h-.5l-4.1.4h-.2l-.2.1-3.8 2.1-.1.1-.1.1-2 2-.1.1v.1l-1 1.3-1.3.6-.3.1v.2l-1.7 2.5-.1.2v.2l-.1.6-3.3 1.6h-.1l-.1.1-1.9 1.5-4.9.8-.3.1-.2.2-.6.6-.3.3v.7l-2.5 1.6-2.3.7-.2.1-.2.1-.6.5-.7.6.6.8 3.2 4.5.2.3.4.1 6.8 1 7.1 1.9 2.4.9h.2l10.2 2.3 1.6 1.7.2.2.2.1 2.6 1 1.6 8.4.1.4.3.2 1.2.9 1 .9 1 .9.6-1.2 2.8-6.1v-.2l.8-3.4 1.2-2.8.4.5.3.4H561.3l.2-.1 3.2-1.7.7.8.2.2.3.1.4.1.5.2.4-.4 1.1-1 .2-.2.1-.2.8-2.2 1.5-.5 5.9-.6h.4l.3-.4 1.4-1.9 3.9-.1 4.9 1.1h1.9l.2-.1 2.6-1.2 1.7.1h.2l.2-.1 1.6-.5 2.9.4.6.2.3.1.3-.1.9-.2.1.3h.7l2.8.1h.4l.3-.3 1.1-1.1.3-.3v-.5c-.1-1.5-.4-2-.8-2.2-.2-.2-.7-.8-1.1-1.4l-.3-.5-.6.1-1.9.2-1.4.1-.7.1-.2.7-.3 1-.1.3h-.1l-2.4-2.3v-6.3l-.7-.2-1.3-.4-.6-.2-.4.4-.8.8-5.1 1.3-1.4.4-2-.5v-5l-.6-.1-1.3-.1h-.3l-.3.1-2.2 1.1-3.7 1.6-5.6.3h-.2l-3 1-.2.1-.2.1-3.4 3-1.1.7h-1l-.2.2-.7.5-.8-.2-1.3-1-.6-.5-.6.4-1 .7-2.7.1-2-2-1.2-2.5-.1-.2-.2-.1-1.3-1-.1-.1-.2-.1-2.8-.8H544l-.8-.8-.6-.6-.7.6-2.8 2.3v-.3l1.9-2.6.1-.2v-.2l.3-1.6 1.4-.5.4-.1.2-.4 1.1-2.2 2.8-.7.5-.1.2-.9.3-.8.2-.6-.4-.4-1-1-.4-.4z"/></g><g><path fill="#EDEBDF" d="M754.7 140.8l-2.4-9.1-.4-.1-2.9-1.3.8-2.8-.6-1.7-2.4-4.1.8-3.5-.6-4.3-2.1-5.6-.8-4.8 24-6.1.2 5.2 1.7 2.4v3.8l-3.4 4.7-2 .9-.1.5 1.2 1.3-.3 7.2-.5 8.1-.2 4.6.8 1.1-.1 4.3-.4 1.1 1.6 1.1-7.6 1.6-4.6.7z"/><path fill="#fff" d="M767.6 98l.3 4.8 1.7 2.4v3.5l-3.2 4.4-2.2 1v1l1.1 1.3-.3 7-.5 8-.2 4.8.8 1.1-.1 4-.4 1.5.9.6-6.5 1.3-3.9.6.3-4.6-2.5-9.4-.6-.3-2.5-1.1.7-2.5-.7-1.8-2.3-4 .8-3.4-.7-4.5-2.1-5.6-.7-4.3 22.8-5.8m.9-1.3l-1.2.3-23 5.8-.9.2.1.9.7 4.3v.2l2.1 5.5.7 4.2-.8 3.2-.1.4.2.4 2.3 4 .6 1.4-.6 2.2-.2.8.8.4 2.5 1.1.1.1 2.4 8.8-.3 4.5-.1 1.2 1.2-.2 3.9-.6 6.5-1.3 2.2-.5-1.9-1.3-.3-.2.2-.8v-.2l.1-4v-.4l-.2-.3-.6-.8.2-4.5.5-8 .3-7.1v-.4l-.3-.3-.9-1 1.6-.7.2-.1.2-.2 3.2-4.4.2-.3v-4.1l-.2-.3-1.5-2.1-.3-4.5.4-1.3z"/></g><g><path fill="#EDEBDF" d="M785.6 131.2l-.4-2.6-3.4-1-.3-2.7-6.3-20.3-4.3-13.3 1.9-.2.8.2v-1.7l1.2-4 2.3-4.1 1.1-3.2-1.6-2v-5.6l.8-.9.6-2.2-.1-1.2-.1-4.4 1.6-4.3 2.5-7.7 2-4h1.4l1.6.2v1.3l.9 1.7 1.9.4.4-.4v-.9l3.7-2.7 1.7-1.7 1.6.2 5.3 2.1 1.9 1 7.8 25.8h5.2l.9 2.1.1 4.1 2.2 1.7h.1l-.6-1.4 3.3-.2 1.8 2 2.1 3.4v1.9l-2 4.4-1.8.6-2.9 2.6-4.3 4.9h-1.3c-.1 0-.3 0-.4-.1l.4.9-.9 1.1c-.1.7-.2 1.4-.2 1.5 0 .2-.1.6-.7.7H812l-1.9-2 1.1-1.9-1.3.8-.5.8 1.4 1.3-.6.8-.5 2.7-1.8-.2.6 2.6-2.2 1.2-2-3.2 1.9-1.9.9.7v-1.3l-.1-.6-1.2.3-1.5-2.7-.9.5.8.9.4 1.3-.7 1.2.3 2.5.2 1.6-1.6 2.6-2.4.4-.3 2.4-4.9 2.8-1.5.6-1.3-1.1-2.2 2.5.9 2.9-1.3 1.2-.1 3.6-1.1 6.1-3-1.4zm26.7-32.7l1.5-.5c0-.1-.1-.2-.1-.4l-.9.1-.5.8z"/><path fill="#fff" d="M795.7 44.6l1.3.1 5.2 2.1 1.7.8 7.9 26h5.2l.7 1.7.1 4.2 2.5 2h.7l.1-.4-.4-1 2.4-.1 1.7 1.8 2 3.2v1.7l-1.8 4.1-1.7.6-3 2.7-4.2 4.8H815c-.6 0-.8-1.8-.8-1.8l-1.5.1-.8 1.3-2.1 1.3-.8 1.3 1.4 1.3-.4.6-.4 2.4-1.7-.1v-1.4l-.3-1.1-1.3.3-1.5-2.8-1.8 1.1 1.1 1.3.3 1-.7 1.1.3 2.7.1 1.4-1.4 2.2-2.5.4-.3 2.5-4.6 2.7-1.1.4-1.4-1.3-2.7 3.1.8 2.8-1.3 1.1-.1 3.8-1 5.4-2.1-1-.4-2.7-3.4-1-.3-2.4-6.3-20.4-4.1-12.7 1.2-.1 1.3.4v-2.2l1.1-3.9 2.2-4.1 1.3-3.5-1.7-2.1v-5.2l.7-.8.7-2.4-.1-1.3-.1-4.2 1.5-4.2 2.5-7.7 1.8-3.7h1.1l1.1.1v1l1.1 2 2.4.6.7-.7V49l3.5-2.5 1.5-1.9m17.9 53.9l.7 1.5-.8.7s-.2 1.5-.2 1.8c0 .2-.5.2-.8.2h-.3l-1.5-1.6 1.2-2 1.7-.6m-7.4 6.4l1.2.9.5 2.1-1.5.8-1.5-2.5 1.3-1.3m-10.9-61.3l-.3.3-1.5 1.5-3.4 2.5-.4.3v.9l-1.4-.3-.8-1.4v-1.6l-.9-.1-1.1-.1h-1.9l-.3.6-1.8 3.7v.2l-2.5 7.7-1.5 4.2-.1.2v.2l.1 4.2.1 1.1-.6 2-.6.7-.2.3V76.7l.2.3 1.3 1.7-1 2.9-2.2 4-.1.1v.1l-1.1 3.9v1.1h-.5l-1.2.1-1.3.1.4 1.2 4.1 12.7L781 125l.3 2.3.1.7.6.2 2.8.8.3 2 .1.5.5.2 2.1 1 1.2.6.2-1.3 1-5.4v-.2l.1-3.4.9-.8.5-.4-.2-.6-.7-2.3 1.6-1.9.6.6.5.4.6-.2 1.1-.4h.2l4.6-2.7.4-.3.1-.5.2-1.8 1.8-.3.4-.1.2-.4 1.4-2.2.2-.3v-.3l-.1-.5.8 1.3.5.8.8-.4 1.5-.8.7-.4-.2-.8-.4-1.6.7.1.9.1.2-.9.4-2.2.3-.4.6.6.3.3h.8c1.5 0 1.8-.7 1.8-1.2 0-.1.1-.7.2-1.3l.5-.5.5-.5-.2-.4h1.2l.3-.3 4.2-4.7 2.8-2.5 1.5-.5.4-.1.2-.4 1.8-4.1.1-.2V84.8l-.1-.2-2-3.2-.1-.1-.1-.1-1.7-1.8-.3-.3h-.5l-2.4.1-1.4.1.1.3-.6-.5-.1-3.7v-.2l-.1-.2-.7-1.7-.3-.6h-5.2l-7.7-25.3-.1-.4-.4-.2-1.7-.8-5.2-2.1-.1-.1h-.1l-1.3-.1-.4-.1zm9.1 61.1l.5-.8.2-.4-.1-.4v-.1l.2.3.4.7.3-.1-.3.3-1 1-.2-.5z"/></g><g><path fill="#EDEBDF" d="M776.9 153.7l6.1-1.9 2.2 1.9 2.9 3.8 2.6 4.3-3.2 1.8-.9-.1-.9 1.3-2.2 1.8-3.2 1z"/><path fill="#fff" d="M782.9 152.4l1.9 1.7 2.9 3.8 2.3 3.8-2.6 1.4-1.1-.1-1 1.5-2.1 1.7-2.5.8-3.2-13 5.4-1.6m.3-1.1l-.5.2-5.4 1.6-.9.3.2.9 3.2 13 .3 1.1 1-.3 2.5-.8.2-.1.1-.1 2.1-1.7.1-.1.1-.1.6-1 .5.1h.3l.3-.2 2.6-1.4.9-.5-.5-.9-2.3-3.8-2.9-3.8-.1-.1-.1-.1-1.9-1.7-.4-.5z"/></g><g><path fill="#EDEBDF" d="M755.1 188.2l-.2-3.6.4-2.4-.1-1.5-2.1-1.3-3.9-.8-3.4-1-3.4-1.6-.9-.8-2.2-.1-2.2-1.9-1.4-5.1h-2.8l-2.1-2.3-16.6 3.8-37.3 7.6-7.1 1.1-.8-6.4 1.5-1.1 1.1-1 .8-1.4 1.7-1 1.5-1.4.4-1.4 1.9-2.5.8-.7-.1-.5-1-2.3-1.5-.2-1.9-6 2.9-1.8 3.8-1.3 3.5-1.1 2.9-.4 5.7-.2 1.7 1.1 1.1.2 1.7-1.1 2.4-1 4.4-.4 1.7-1.4 1.5-2.8 1.6-1.9h1.9l1.3-.8.1-1.5-1.2-1.8-.3-1.5 1-1.9v-.6h-1.2l-1.7-.8-.9-1.2-.1-2.7 5.2-4.9.5-.6 1.2-2.5 2.6-4 2.4-3.2 1.8-2.2 2.2-1.7 2.8-1.1 4.9-1.1 2.8.1 3.8-1.2 7.2-2 .5 4.9 2.1 5.6.7 4.6-.8 3.3 2.2 3.7.8 2.1-.7 2.3 2.2.9.7.4 2.8 9.9-.5 4.5-.4 9.3.7 4.7.7 3.1 1.3 6.3v7.2l-.9 1.8 1.4 1.5.9 1.9-1.8 1.6.1.3.6-.1 1.1-1 2-2.3 1.3-.7 1.5.6 1.8.1 6.7-3.2 2.4-2.4 1.4-1.5 4.6 1.8-3.4 3.7-3.5 2.5-6.2 4.7-2.3.9-5.1 1.7-3.7 1z"/><path fill="#fff" d="M745 103.7l.5 4.3 2.1 5.6.7 4.5-.8 3.4 2.2 3.9.7 1.8-.7 2.5 2.5 1.1.6.3 2.7 9.6-.5 4.4-.4 9.4.7 4.8.7 3.1 1.3 6.3v7l-1 2 1.6 1.7.7 1.5-1.7 1.5.3 1.1 1.1-.3 1.3-1.1 2-2.2 1-.6 1.4.6 2 .1 6.9-3.4 2.5-2.4 1.1-1.3 3.7 1.4-3 3.1-3.4 2.5-6.2 4.6-2.2.8-5.1 1.7-3.5 1-1-.5-.2-3.2.4-2.4-.1-1.8-2.4-1.5-3.9-.8-3.4-1-3.2-1.5-1-.8-2.2-.1-2-1.7-1.4-5.3-3 .1-2.1-2.4-16.8 3.8-37.4 7.6-6.5 1.1-.6-5.6 1.2-1 1.1-1 .8-1.4 1.5-1 1.7-1.5.4-1.4 1.8-2.4 1-.8-.1-.8-1.1-2.7-1.5-.1-1.7-5.3 2.5-1.5 3.8-1.3 3.5-1.1 2.8-.4 5.5-.1 1.7 1.1 1.4.1 1.8-1.1 2.2-1 4.5-.4 1.8-1.5 1.5-2.8 1.4-1.7h1.8l1.7-1 .1-2-1.3-1.8-.3-1.3 1-1.8v-1.3H711l-1.5-.7-.7-1-.1-2.2 5.1-4.8.6-.7 1.3-2.5 2.5-3.9 2.4-3.2 1.8-2.1 2.1-1.6 2.7-1.1 4.8-1.1 2.8.1 3.9-1.3 6.3-1.9m-2.3 71.9 3.1-73.1l-1.1.3-6.6 1.8-3.8 1.2-2.6-.1h-.2l-4.8 1.1h-.2l-2.7 1.1h-.1l-.1.1-2.1 1.6-.1.1-.1.1-1.8 2.1-2.4 3.2-2.5 3.9-1.2 2.4-.5.6-5 4.7-.3.3v.5l.1 2.2v.3l.2.2.7 1 .2.2.2.1 1.5.7.2.1h.7l-.9 1.6-.2.3.1.4.3 1.3v.2l.1.2 1.1 1.5-.1 1.1-1 .6h-2.1l-.3.4-1.4 1.7-.1.1v.1l-1.5 2.6-1.4 1.2-4.2.4h-.2l-.1.1-2.2 1h-.2l-1.5.9-.8-.1-1.5-1-.3-.2h-.3l-5.5.1h-.2l-2.8.4h-.2l-3.5 1.1-3.8 1.3h-.1l-.1.1-2.5 1.5-.7.4.2.7 1.7 5.3.2.6.7.1.9.1.8 2v.2l-.6.5-.1.1-.1.1-1.8 2.4-.1.1-.1.2-.3 1.1-1.4 1.3-1.5.9.2.7-.1.2-.8 1.3-1 .9-1.2 1-.4.3.1.6.6 5.6.1 1 1-.2 6.5-1.1 37.4-7.6 16.3-3.7 1.7 1.9.3.3h.5l2.2-.1 1.2 4.6.1.3.2.2 2 1.7.3.2h.3l1.9.1.7.6.1.1.1.1 3.2 1.5h.2l3.4 1 3.8.8 1.9 1.1.1 1.2-.4 2.3v.2l.2 3.2v.6l.5.2 1 .5.3.2.4-.1 3.5-1 5.1-1.7 2.3-.9.1-.1.1-.1 6.2-4.6 3.4-2.5h.1l.1-.1 3-3.1 1-1.1-1.4-.5-3.7-1.4-.6-.2-.5.5-1.1 1.2-2.4 2.3-6.5 3.2-1.4.1-1.3-.5-.4-.2-.4.2-1 .6-.1.1-.1.1-1.2 1.4-.1-.2-.7-1.5-.1-.1-.1-.1-1.1-1.2.7-1.3.1-.2V168.7l-1.3-6.3-.7-3.1-.7-4.6.4-9.3.5-4.4v-.2l-.1-.2-2.7-9.6-.1-.4-.4-.2-.6-.3-1.8-.8.5-1.7.1-.3-.1-.3-.7-1.8v-.2l-2-3.6.7-3v-.4l-.7-4.5v-.2l-2.1-5.5-.4-4.2-.2-1.1z"/></g><g><path fill="#EDEBDF" d="M664.4 204.7l-2.2-8.4-2.6-17 4-2.8 1.1-.4 5.3-5.1.6 6.2 7.2-1.2 37.3-7.6 16-3.7 2.2 2.4 3.2-.1 1.4 5.6 1.8 1.5 2.1.1 1.4 1-2.6 2.6v2.6l-1.7 2.7-.1 1.1 1.1 1.1-.1 2.6-1.9.9.6 2 .1.7 2.3.2.9 2.4 3 2.1 2.3 1.5v1.2l-3 2.8-1.3 1.9-1.1 2.2-2.2 1.2-1.2.3-1.7.5-1.8 1.4-.3.3-7.4 1.4-12.9 2.4-32.9 6.7-10.4 1.3-3.3.7z"/><path fill="#fff" d="M730.9 165.3l2.1 2.3 3-.1 1.3 5.3 2 1.7 2.2.2.8.6-2.3 2.3v2.7l-1.7 2.7-.1 1.4 1.1 1.1-.1 2.1-2 1 .7 2.4.1 1 2.4.3.8 2.2 3.1 2.1 2.1 1.4v.7l-2.8 2.7-1.4 2-1.1 2.2-2 1.1-1.1.2-1.8.6-1.8 1.4-.2.2-7.2 1.4-12.9 2.5-33 6.7-10.4 1.3-2.8.6-3.1-16.7-2.2-8.5-2.5-16.6 3.7-2.6 1.1-.4 4.7-4.4.5 5.7 7.7-1.3 37.4-7.6 15.7-3.9m.4-1.1l-.6.1L715 168l-37.3 7.6-6.6 1.1-.4-4.6-.2-2-1.5 1.4-4.5 4.3-.9.4h-.1l-.1.1-3.7 2.6-.5.4.1.6 2.5 16.6 2.1 8.4 3.1 16.7.2 1 1-.2 2.8-.5 10.3-1.3 33-6.7 12.9-2.5 7.2-1.4.3-.1.2-.2.2-.2 1.7-1.3 1.6-.5 1.1-.2h.1l.1-.1 2-1.1.3-.2.1-.3 1-2.1 1.3-1.8 2.7-2.6.3-.3v-1.5l-.4-.3-2.1-1.4-2.8-1.9-.7-2-.2-.6-.6-.1-1.6-.2v-.4l-.5-1.6 1.2-.6.5-.3v-.6l.1-2.1v-.5l-.3-.3-.8-.8.1-.7 1.6-2.5.2-.2V178l2-2 .8-.8-.9-.7-.8-.6-.2-.2h-.3l-1.9-.1-1.5-1.3-1.3-5-.2-.8h-.8l-2.6.1-1.8-2-.3-.4z"/></g><g><path fill="#EDEBDF" d="M748.9 223.3l-.3-3.1.7-.8-.1-.7-3.2-.5-4.3-2-3-2.7-1-2.2.5-2.4.2-1 .5-1.7 2-1.1 1.2-2.3 1.5-2 2.5-2.3v-.2l-1.9-1.2-3.3-2.2-.8-2.1-2.4-.3-.2-1.4-.8-2.7 2.1-1.1.1-1.6-1.2-1.1.2-1.7 1.7-2.7v-2.7l2.4-2.8 3.4 1.6 3.6 1.2 4.4 1 2.8 1.7.1 2-.5 2.4.3 2.9v1.2l-2 1.9-.4.3 1.7-.2 1.3-1 1.8 3.6.1 8.1.6 1.1-1 5-2.7 5.7-2.4 3.5-.7 4.2-2.1 2.4z"/><path fill="#fff" d="M742.1 175.3m0 0l3.1 1.4 3.6 1.2 4.4 1 2.4 1.5.1 1.7-.5 2.4.3 3-.1 1-1.8 1.7-1 .8.4.4 2.4-.3 1-.7 1.4 2.9.1 8.1.6 1-1 4.8-2.5 5.8-2.4 3.5-.7 4.2-1.8 2.1h-.7l-.3-2.4.7-.8-.1-1.3-3.5-.6-4.2-2-2.8-2.5-.9-2 .5-2.3.2-1.1.4-1.4 2-1.1 1.3-2.4 1.4-2 2.6-2.3v-.7l-2.1-1.4-3.1-2.1-.8-2.2-2.4-.3-.1-1-.7-2.4 2-1 .1-2.1-1.1-1.1.1-1.4 1.7-2.7v-2.7l1.8-2.2m-.3-1.2l-.5.6-2 2.4-.2.3v2.8l-1.5 2.4-.1.2v.2l-.1 1.4v.5l.3.3.8.8-.1 1.1-1.5.7-.7.4.2.8.7 2.3.1.9.1.8.8.1 1.8.2.6 1.7.1.3.3.2 3.1 2.1 1.5 1-2.1 1.9-.1.1-.1.1-1.4 2v.2l-1.1 2.1-1.7 1-.4.2-.1.4-.4 1.4-.2 1.1-.5 2.2-.1.3.2.3.9 2 .1.2.1.1 2.8 2.5.1.1.1.1 4.2 2 .1.1h.1l2.8.4v.1l-.4.5-.3.3.1.4.3 2.4.1.9h2.1l.3-.3 1.8-2.1.2-.2v-.3l.7-4 2.3-3.3v-.2l2.7-5.6.1-.1v-.1l1-4.8.1-.4-.2-.3-.4-.8-.1-7.9v-.2l-.1-.2-1.4-2.9-.5-1.1-1 .7-.8.6 1.1-1 .3-.3v-.4l.1-1v-.2l-.3-2.8.5-2.2v-.2l-.1-1.7v-.5l-.4-.3-2.4-1.5-.1-.1h-.2l-4.4-1-3.5-1.2-3.1-1.4-1.1-.6z"/></g><g><path fill="#EDEBDF" d="M739.3 226.7l-1.8-8.4-2-4.9-1.6-4.7 2.3-1.8 1.5-.5 2.2-.5-.5 2.2-.3 1.9-.3 1.3.6 1.5 2.8 2.5 1.7 3.2 1.5 4 2.7 1.8 1.1-.5 2.3 7.5-5.9 1.1-4.8.2z"/><path fill="#fff" d="M739.2 206.6l-.3 1.5-.3 1.9-.3 1.4.8 1.8 2.7 2.5 1.7 3.1 1.5 4.1 3.1 2.1.8-.4 2 6.4-5.3 1-4.4.1-1.4-5.5-1.8-8.4-2-4.9-1.5-4.4 1.9-1.5 1.4-.4 1.4-.4m1.4-1.4l-1.6.4-1.4.3-1.4.4-.2.1-.2.1-1.9 1.5-.5.4.2.7 1.5 4.4 1.9 4.8 1.8 8.3 1.4 5.5.2.8h.8l4.4-.1h.2l5.3-1 1.1-.2-.3-1.1-2-6.4-.3-1.1-1.1.5-.3.2-2.3-1.6-1.4-3.8v-.2l-1.7-3.1-.1-.1-.1-.1-2.6-2.3-.5-1.3.2-1.1.3-1.9.3-1.4.3-1.6z"/></g><g><path fill="#EDEBDF" d="M737.7 242.6l-.1-1.6-1.2-2.6 1.2-.3-2.8-.4-2.5-3.3.3-3.4 1.2-.9-.6-.6-.7 1.3-1.2.4-.4-4.1 1.8-.8-.4-4-1.5-.3-.4-1.4 1.2-3.5 1-1.1-1.1.9-1.6 1.1c-.1.5-.3 1.2-.3 1.5 0 .5-.6 1.4-1.1 1.9l.9.9.2 2.1-1.1 4.6 1.7 4.5 2.2 1.9v1.6l1.3 1.9-1.1 2.4-2.2-.3-2.7-.8-3.7.1-4.7-1.3-.7-1.9V235l1.6-2.3.7-3.4.9-1.8-1.7-1.2-1.2 1.7-1.3-.6-5.1-1.2v-2.6l-3.4-1.4-1.1-1.4-1.6-1.4-2.5-1.2-1.3-.9-1.3.3-1.7 1.2-2.3 1.9-2.8.3-.9-.4-1.3 1.9-1.4 1.4-2.1.5-3.7 4.3-1 1-1-5.9-1.1-4.8 33-6.7 12.9-2.5 7-1.5 1.3 4.3 2.2 5.3 1.7 8.1 1.5 5.6 4.1-.1 5.7-1.1.4 5-1.9 3.8-6.1 2.6-1.5-.6-2.6-3.4-.6.3.7 2.3c.3 1.1.7 2.5.7 2.8 0 .1 0 .5-.9 1.4l-.5.4-1.4-2.4z"/><path fill="#fff" d="M734.6 208.8l1.1 3.8 2.2 5.4 1.7 8 1.6 6 4.5-.1 5.2-1 .4 4.3-1.7 3.5-5.8 2.4-1.2-.5-2.8-3.6-1.4.7-3.4-.4-2.2-2.9.3-2.9 1.4-1.1-1.4-1.5-1 1.7-.4.1-.3-3.1 1.8-.8-.4-4.8-1.5-.3-.3-1 1.1-3.2 1.3-1.4-.4-.8-1.7 1.4-1.7 1.1s-.4 1.3-.4 1.8-1.3 2-1.3 2l1.1 1.1.1 1.8-1.1 4.5 1.8 4.8 2.1 1.8v1.5l1.3 1.8-.8 1.8-1.8-.3-2.7-.8-3.7.1-4.4-1.2-.6-1.5v-1.8l1.5-2.2.7-3.5 1.1-2.2-2.5-1.7-1.2 1.8-1-.5-4.8-1.1v-2.5l-3.6-1.5-1.1-1.3-1.7-1.5-2.5-1.3-1.4-1-1.7.3-1.7 1.3-2.2 1.8-2.5.3-1.1-.6-1.5 2.2-1.3 1.3-2.1.5-2 2.3-1.8 2.1-.3.3-.8-4.9-1-4.4 32.5-6.6 12.9-2.5 6.5-1.3m4 29.5l.6 2s.6 2.4.6 2.7c0 .3-.8 1.1-.8 1.1l-1-1.6-.1-1.5-1-2.2 1.7-.5m-3.3-30.6l-.9.2-6.5 1.4-12.9 2.4-32.6 6.6-1 .2.2 1 1 4.3.8 4.9.3 1.9 1.4-1.4.3-.3 1.8-2.1 1.8-2 1.8-.5.3-.1.2-.2 1.3-1.3.1-.1.1-.1 1.1-1.5.3.2.3.1h.3l2.5-.3h.3l.2-.2 2.2-1.8 1.6-1.1 1-.3 1.1.7h.2l2.4 1.2 1.5 1.4 1 1.3.2.2.2.1 3 1.2v2.7l.8.2 4.7 1.1.9.4.8.4.5-.7.7-.9 1 .7-.7 1.4-.1.1v.1l-.6 3.3-1.4 2.1-.2.3V237.2l.1.2.6 1.5.2.5.5.1 4.4 1.2h.2l3.6-.1 2.5.8h.2l1.8.3.7.1.3-.7.8-1.8.2-.5-.3-.5-1.1-1.6v-.6l1.3 1.7.3.3.4.1.9.1.4.8.9 2 .1 1.4v.2l.1.2 1 1.6.7 1.1.9-.9c1.1-1.1 1.1-1.5 1.1-1.8 0-.1 0-.4-.7-2.9l-.4-1.4 2 2.6.2.2.3.1 1.2.5.4.1.4-.2 5.8-2.4.3-.1.2-.3 1.7-3.5.1-.3v-.3l-.4-4.3-.1-1.1-1.1.2-5.1 1-4.2.2-1.4-5.2-1.7-7.9v-.2l-2.2-5.3-1.1-3.8-.3-.9zm-5 10.5l.4-.3-.8 2.2-.1.3.1.3.3 1 .2.6.6.1.8.1.3 3.3-1.2.5-.6.3.1.7.3 3.1.1 1.3 1.2-.4h.1l-.3 2.7-1.1-1-1.6-4.3 1.1-4.3v-.4l-.1-1.8v-.4l-.3-.3-.5-.5c.6-.8.9-1.4.9-1.9-.1.1 0-.4.1-.9z"/></g><g><path fill="#EDEBDF" d="M641 281.5v-1.7l1.4-2 9.6-10.5 3.7 4.2 3 .8 2.1-.9 2.1-1.3 2.3 1.2 3-1.1 1.7-4.1 2.4.5 2.5-1.9 1.5.4 2.2-2.8.2-1.5-.9-1.2 1-1.9 4.5-10.6.6-5.2 1.7-.7 2 2.2 2.8-.2 1.7-6.5 2.5-.5.9-2.2 2.3-2.1 2.3-4.8.1-5 8.9 3.5c.2-.7.3-2.4.4-3.8v-.7l4.1 1.8.1 2.5 4.7 1.1 2 1.1 1.6 2-.6 3.5-1.7 2.2.1 1.5.4 1.3 4 1h3.9l2.7.9 2 .3.6 2.7 2.6.3 1 1.4-.4 4 1.2 1-.4 1.6 1 .7-.3 2-2.2-.1v.6l2 1.3.1 1.3 1.5 1.5.5 2.7-1.9 1 .7.6 5.1-1.5 3.7 6.2-51.2 11.1-32.6 4.6-5.8-.3-2.2 1.7-6.5.2-7.2.8-12.3 1.8 11.2-6zm99.9-27.6l.4-4.9 1.4-3.7.6-2.6-.1-2 6.8-2.7-.9 3.8-2.5 3.3-.3 3.8.4 3-1.7 4.6-2.6 2.3-1.5-4.9z"/><path fill="#fff" d="M709.7 221.8l3.2 1.4.1 2.6 5 1.1 1.9 1 1.4 1.8-.6 3.2-1.7 2.3.1 1.8.5 1.6 4.3 1.1h3.9l2.7.8 1.7.3.6 2.7 2.8.3.8 1-.4 4.1 1.2 1-.4 1.7 1.1.7-.2 1.2-2.3-.1.1 1.4 2 1.3.1 1.2 1.5 1.6.4 2.2-2.2 1.2 1.4 1.3 5-1.5 3.1 5.2-50.6 10.9-32.5 4.6-5.8-.3-2.2 1.7-6.4.2-7.3.8-9.5 1.4 9.1-4.9v-1.8l1.3-1.9 9.2-10 3.4 3.9 3.3.8 2.2-1 1.9-1.1 2.2 1.2 3.4-1.2 1.6-4 2.3.5 2.5-1.9 1.6.4 2.5-3.2.3-1.8-.8-1.1.9-1.6 4.6-10.7.5-5 1.1-.5 1.9 2.1 3.4-.3 1.7-6.6 2.4-.5.9-2.4 2.2-2 2.4-4.9.1-4.4 8.5 3.3h.1c.4.2.5-4.2.5-4.2m39.6 17l-.7 2.8-2.5 3.3-.4 4 .4 2.9-1.6 4.3-1.9 1.7-1.3-4 .4-4.7 1.4-3.6.7-2.7-.1-1.7 5.6-2.3m-2.6 28.5-37.9-47v1.5c0 1.1-.1 2.4-.2 3.1l-7.7-3-1.3-.5v1.4l-.1 4.2-2.2 4.6-2.1 1.9-.2.2-.1.2-.7 1.9-1.9.4-.6.1-.2.6-1.5 5.9-2.2.2-1.6-1.8-.5-.5-.7.3-1.1.5-.5.2-.1.6-.5 4.8-4.5 10.5-.9 1.6-.3.6.4.5.6.8-.2 1.1-1.9 2.5-.9-.3-.5-.1-.4.3-2.1 1.6-1.8-.4-.8-.2-.3.8-1.5 3.6-2.6.9-1.8-1-.5-.3-.5.3-1.9 1.1-1.8.8-2.7-.7-3.2-3.7-.7-.8-.8.8-9.2 10v.1l-1.3 1.9-.2.3v1.5l-8.6 4.6-5.1 2.7 5.7-.8 9.5-1.4 7.2-.8 6.3-.2h.3l.3-.2 2-1.5 5.4.3h.2l32.5-4.6 50.6-10.9 1.4-.3-.7-1.2-3.1-5.2-.4-.7-.7.2-4.2 1.2.8-.4.6-.3-.1-.7-.4-2.2-.1-.3-.2-.2-1.3-1.3-.1-.9v-.5l-.4-.3-1.3-.9h1.9l.1-.9.2-1.2.1-.6-.6-.4-.5-.3.2-1 .2-.6-.5-.4-.8-.6.3-3.5v-.4l-.2-.3-.8-1-.3-.4-.4-.1-2.1-.3-.5-2-.2-.7-.7-.1-1.6-.3-2.6-.8H723.9l-3.7-.9-.3-1-.1-1.3 1.5-2 .1-.2v-.2l.6-3.2.1-.4-.3-.4-1.4-1.8-.1-.2-.2-.1-1.9-1-.1-.1h-.1l-4.3-1v-2.4l-.6-.3-3.2-1.4-1.1-.3zm41.9 16.9l-1.8.7-5.6 2.2-.7.3.1.7.1 1.5-.6 2.5-1.4 3.6-.1.1v.1l-.4 4.7v.2l.1.2 1.3 4 .5 1.5 1.2-1 1.9-1.7.2-.2.1-.2 1.6-4.3.1-.2v-.2l-.4-2.8.3-3.6 2.4-3.1.1-.2v-.2l.7-2.8.3-1.8z"/></g><g><path fill="#EDEBDF" d="M655.2 272.5l-1.1-1.1-1.9-2.6-2.8-1.8-1.5-3.2-3.8-3-.5-1.9-2.2-1.2-.8-1.6-.2-5.2 2.3-.1 1.3-.5.1-2.3 1.4-1.3.1-4.2.9-3.6 1.6-.8 1.5 1.3.3 1.1.8-.4.3-1-.9-1.5v-2.4l.9-1.3 2-2.9 1.4-1.5 1.9.4 1.7-1.2 2.6-2.9 1.9-3.2.3-4.8.4-4.4v-3.9l-1-2.8 1-1.5 1.9-1.9 3.1 17.7 3.5-.6 11.3-1.6 1.1 4.7.8 4.2 1.2-1.4 2.1-2.8 2.2-.5 1.2-1.2 1.7-2.5 1.5.7 2.2-.2 2.1-1.7 1.8-1.3 1.9-.5 1.3 1 3.1 1.6 1.7 1.6 1.4 1.3-.8 5.7-5.7-2.5-3-1.1-.1 3.9-2.5 5-2.2 2.1-1.1 2.5-2.2.4-.7 2.8-1 3.8-4 .3-1.9-2-.4.2-.5 4.6-1.2 3.1-4.2 9.3.7.9-.2 2-2.7 3.8-1.7-.5-2.6 1.9-2-.5-1.6 3.8-.2.1c-.7.3-2.9 1.2-3.6 1.2-.2 0-.3 0-2.2-1l-1.8 1.1-2.3 1-3.4-1.2z"/><path fill="#fff" d="M664.7 204.2l3 17.2 4-.7 10.8-1.6 1 4.3.9 5.2 1.9-2.2 2-2.7 2.2-.5 1.3-1.3 1.5-2.2 1.3.6 2.5-.3 2.2-1.8 1.7-1.3 1.6-.4 1.1.9 3.2 1.6 1.7 1.5 1.2 1.1-.7 4.8-5.1-2.2-3.7-1.4-.1 4.5-2.4 4.8-2.2 2.1-1 2.4-2.3.4-.8 3.1-.9 3.4-3.4.3-2-2.1-.9.5-.5 4.8-1.2 3.1-4.3 9.5.8 1-.2 1.7-2.4 3.4-1.6-.5-2.6 1.9-2.2-.5-1.7 4s-2.7 1.2-3.4 1.2c-.1 0-2.1-1.1-2.1-1.1l-2 1.2-2.1.9-3.3-.8-1-1-1.9-2.6-2.7-1.7-1.5-3.1-3.7-3-.6-2-2.2-1.3-.7-1.4-.2-4.6 1.9-.1 1.7-.7.1-2.4 1.4-1.3.1-4.4.8-3.4 1.1-.6 1.1 1 .4 1.5 1.5-.8.4-1.4-1-1.5v-2.1l.8-1.1 2-2.9 1.1-1.3 1.8.4 2-1.4 2.7-2.9 2-3.4.3-4.9.4-4.4v-4.1l-1-2.7.8-1.3 1.3-.9m17.9 15-17.2-17.1l-1.4 1.4-1.1 1.1-.1.1-.1.1-.8 1.3-.3.4.2.5.9 2.5v3.8l-.4 4.3-.3 4.7-1.8 3.1-2.5 2.8-1.5 1.1-1.4-.3-.6-.1-.4.4-1.1 1.3v.2l-2 2.9-.8 1.1-.2.3V237.8l.2.2.7 1.2-.2.6h-.1l-.1-.3-.1-.3-.2-.2-1.1-1-.5-.4-.6.3-1.1.6-.4.2-.1.4-.8 3.4v.2l-.1 3.9-1.1 1-.3.3v.4l-.1 1.8-.9.4-1.7.1h-1v1l.2 4.6v.2l.1.2.7 1.4.1.3.3.2 1.9 1.1.4 1.6.1.3.2.2 3.5 2.9 1.4 2.9.1.3.2.2 2.6 1.6 1.8 2.5v.1l1 1 .2.2.3.1 3.3.8.3.1.3-.1 2.1-.9h.2l1.5-.9c1.7.9 1.8.9 2 .9h.1c.8 0 2.7-.8 3.8-1.3l.4-.2.2-.4 1.4-3.2 1.4.3.4.1.4-.3 2.2-1.6 1.1.3.7.2.4-.6 2.4-3.4.2-.2v-.3l.2-1.7v-.4l-.2-.3-.4-.5 4.1-9 1.2-3.1v-.2l.5-3.9 1.3 1.4.3.3h.5l3.4-.3.7-.1.2-.7.9-3.4.6-2.5 1.7-.3.5-.1.2-.5 1-2.2 2.1-2 .1-.1.1-.2 2.4-4.8.1-.2v-.2l.1-3.1 2.4.9 5 2.2 1.2.5.2-1.3.7-4.8.1-.5-.4-.4-1.2-1.1-1.7-1.6-.1-.1-.1-.1-3.1-1.5-1.1-.8-.4-.3-.5.1-1.6.4h-.2l-.2.1-1.7 1.3-2 1.6-2 .2-1-.5-.8-.3-.5.7-1.5 2.2-1 1-1.9.5-.4.1-.2.3-2 2.6-.5.6-.6-3.1-1-4.3-.2-.9-.9.1-10.8 1.6-3.1.5-2.9-16.3-.2-2.2z"/></g><g><path fill="#EDEBDF" d="M638.2 249.4l-1.7-.9-.5-2.1-1.3.5-1.9 1-1.6 2-5-.5-2-.3-2.2 1.2h-1.8l-1.7-1.8H614l-1.9-3.9-2.6-1.2-2 .7-4.1.1-.5-4.6-2.3-20.4-1.5-11.9-1.2-13.2 10.2-2 8.9-1.4 4.4-.6 2.2 1.2 2.1 1.2 4.6-.6 2.9 2.7 1.5-.1 4.8-2.2 2.6-.5 2.6-.6 3.5-3.3 2.9-3.3 3.5-2 5.9-3.9 2.6 17.6 2.1 8.1-1.7 1.6-.2.8.8 2.4.1 4.7-.4 4.4-.3 4.5-2.4 3.7-2.8 3-2.2 1.6-1.7-.4-.7 1.1-1.9 2.8-.6.8v1.8l1 1.7-.5 1.6-2.2 1.4-.6-2-.8-.7-.6.3-.9 3.3v4.3l-1.4 1.3-.2 2.5-1.5.6-2.2.1z"/><path fill="#fff" d="M660.1 179.5m0 0l2.5 16.8 2 7.9-1.6 1.5-.3 1 .8 2.5.2 4.6-.4 4.4-.3 4.4-2.4 3.5-2.7 2.9-2 1.4-1.8-.4-.9 1.3-1.9 2.9-.7.9-.1 2 1 1.7-.4 1.3-1.5.9-.5-1.5-1.1-1-1.1.5-.9 3.6-.1 4.2-1.4 1.3-.2 2.4-1.2.4-1.9.1-3-2-1.5-.8-.6-2.4-1.8.6-2 1.1-1.5 1.9-4.7-.4-2.2-.3-2.2 1.2-1.5.1-1.6-1.8h-4.5l-1.8-3.8-2.9-1.3-2.1.7-3.6.1-.5-4.2-2.2-20.4-1.5-11.9-1.1-12.7 9.7-1.9 8.8-1.4 4.3-.6 2.1 1.2 2.2 1.3 4.5-.6 2.9 2.7 1.8-.1 4.8-2.2 2.5-.4 2.8-.7 3.5-3.4 3-3.2 3.4-2 5.4-3.9m.8-1.7l-1.3.9-5.3 3.5-3.3 2-.1.1-.1.1-2.9 3.2-3.3 3.2-2.5.6-2.5.4h-.1l-.1.1-4.6 2.2-1.2.1-2.6-2.4-.3-.3-.5.1-4.2.5-2-1.1-2.1-1.2-.3-.2h-.3l-4.3.6-8.9 1.4-9.8 1.9-.9.2.1.9 1.1 12.7 1.5 12 2.2 20.4.5 4.2.1.9h.9l3.6-.1h.2l1.7-.6 2.2 1 1.6 3.5.3.6h4.6l1.3 1.5.3.4h.5l1.5-.1h.2l.2-.1 1.9-1 1.9.3 4.7.4h.5l.3-.4 1.4-1.7 1.8-1 .7-.2.3 1.3.1.4.4.2 1.5.8 3 2 .3.2h.3l1.9-.1h.2l.1-.1 1.2-.4.6-.2v-.6l.1-2 1.1-1 .3-.3v-.4l.1-4.1.7-3h.1l.4.4.4 1.2.4 1.2 1.1-.7 1.5-.9.3-.2.1-.4.4-1.3.1-.4-.2-.4-.8-1.4v-1.4l.5-.7 1.9-2.9.5-.8 1.2.3.4.1.4-.3 2-1.4.1-.1.1-.1 2.7-2.9v-.2l2.4-3.5.2-.2v-.3l.3-4.4.4-4.3v-.2l-.2-4.6v-.2l-.7-2.2.1-.5 1.4-1.3.4-.4-.1-.6-2-7.8-2.5-16.8.2-1.6z"/></g><g><path fill="#EDEBDF" d="M559.1 269.7l.4-4.1 2-2.6 1.6-3.3 2.2-3.6-.4-4.8-1.6-2.3-.3-3 .7-4.8-.4-6-1.1-13.9-1.1-13.3-.9-11 3.4 1 1.1.8.7-.2 1.8-1.6 2.6-1.5 4.5-.2 19.1-1.9 5.3-.5 1.4 14.3 3.7 32 .5 5.1-.3 1.8 1 1.5.2 1.7-2.5 1.5-3.2 1.4-2.5.5-.5 4-4 3-2.3 3.2.3 2-.7 1.8h-3.5l-1.2-1.3-1.9 1-2 1.1.1 2.8-1.8.4-.5-1.2-1.6-1-2.4 1-1.5 2.9-1.8-1-1.1-1.3-3.6.4-4.8.8-3.2 1.7z"/><path fill="#fff" d="M598.3 193.4l1.3 13.9 3.7 32 .5 5-.3 2 1.1 1.6.1 1.2-2.2 1.4-3.1 1.3-2.8.5-.5 4.2-4 2.9-2.4 3.5.3 2.1-.5 1.3h-2.9l-1.4-1.4-2.2 1.1-2.3 1.3.1 2.7-1 .2-.4-.9-1.9-1.3-2.8 1.2-1.3 2.6-1.2-.7-1.3-1.4-3.9.4-4.9.8-2.5 1.3.1-2.5.4-3.9 2-2.5 1.5-3.4 2.2-3.7-.4-5.1-1.5-2.4-.3-2.8.7-4.8-.4-6-1.1-13.9-1.1-13.3-.8-10.2 2.7.8 1.3.8 1-.3 1.8-1.7 2.5-1.4 4.4-.1 19.1-2 4.6-.4m-38.8 78.8 39.7-79.9l-1 .1-4.8.5-19.1 2-4.4.1h-.2l-.2.1-2.5 1.4-.1.1-.1.1-1.7 1.5-.3.1-.9-.6-.1-.1h-.1l-2.7-.8-1.4-.4.1 1.4.8 10.2 1.1 13.3 1.1 13.9.4 5.9-.7 4.7v.2l.3 2.8v.2l.1.2 1.4 2.2.4 4.5-2.1 3.4v.2l-1.5 3.3-1.9 2.4-.2.2v.3l-.4 3.9-.1 2.5v1.7l1.5-.8 2.4-1.3 4.7-.8 3.3-.4.9 1 .1.1.1.1 1.2.7.9.5.5-.9 1.2-2.3 2-.8 1.2.8.3.6.3.7.8-.2 1-.2.8-.2v-.9l-.1-2 1.8-1 1.5-.7.9.9.3.3h4l.2-.6.5-1.3.1-.2v-.3l-.2-1.7 2.1-3 3.8-2.8.4-.3.1-.4.4-3.5 2-.4h.2l3.1-1.3h.2l2.2-1.4.5-.3v-.6l-.1-1.2v-.3l-.2-.2-.8-1.2.3-1.6v-.2l-.5-5-3.7-32-1.3-13.8-.1-1.1z"/></g><g><path fill="#EDEBDF" d="M539.6 289l-1.5-3.9.8-2.5-1.7-2.6-1.7-4.2-3.8-.5-5.8-4.8-2.1-3.6.6-2.9 2-5.3.5-2.7-1.9-1-5.7-.4-1.1-1.5.2-3.7-4.5-3-6.5-6.7-2-6.5-.5-3.4 1-2.7 1.4-1-.2-1.6.3-1.5 1.6-1.1 1.3-.4v-2l.7-1.6 1.5-1.4.2-3.1-1.5-1.3-.7-1.4.6-2 .7-1.9 4.8-1.2 1.5-.6 1.8-1.4.6-2.1 1.6-3.2.5-2.8-.5-1.7-3.4-3-.4-1.6-.6-.8-2.2-.6-.3-3 40.8-2.3.3 5.2 1.1 2.1 1.5 1.6 1.1 3.3.7 2.2.3.9.8 10.2 1.1 13 1 13.7.7 6.3-.6 4.7v2.7l1.8 3 .3 4.8-2 3.7-1.6 3.5-2 2.5-.5 3.9v2.8l-1.1 3-1 .8.5 1.7.8 1.6-1.6.6-2.6.7-1.4 1-.2 1.7 1.1 2.1-.2 2.4-1.5.4-3.3-1.2-2.1-1-1.6.4-1.8 1.4-.8 1.9-1.7 1z"/><path fill="#fff" d="M555.6 183.1l.2 4.8 1.3 2.2 1.4 1.5 1.1 3.2.7 2.2.2.8.8 10.1 1.1 13 .9 13.7.7 6.2-.6 4.6.1 2.9 1.7 3.1.3 4.6-1.9 3.5-1.6 3.5-2 2.5-.5 4v2.8l-1 2.8-1.2.9.7 2 .5 1.2-1.1.4-2.6.7-1.6 1.2-.3 2.1 1.1 2.1-.2 2-1 .3-3.2-1.2-2.3-1-1.9.5-1.9 1.5-.8 1.8-1.2.8-1.6-1.8-1.4-3.6.8-2.6-1.8-2.8-1.8-4.4-4-.6-5.6-4.6-2-3.4.6-2.8 2-5.2.6-3.2-2.4-1.2-5.6-.4-.8-1.2.2-3.8-4.8-3.2-6.4-6.6-2-6.4-.4-3.2.9-2.4 1.5-1.1-.2-1.8.2-1.2 1.4-1 1.6-.4v-2.4l.6-1.4 1.6-1.4.2-3.6-1.6-1.4-.6-1.2.6-1.8.6-1.6 4.6-1.2 1.6-.6 2-1.6.6-2.2 1.6-3.2.6-3-.6-2-3.4-3-.4-1.6-.8-1-2-.6-.2-2.1 40.1-1.5m.9-1.1l-1 .1-39.8 2.3-1 .1.1 1 .2 2.1.1.7.6.2 1.7.5.5.6.3 1.4.1.3.2.2 3.2 2.8.4 1.5-.5 2.6-1.5 3.1v.2l-.5 1.9-1.6 1.3-1.4.5-4.5 1.2-.5.1-.2.5-.6 1.6-.6 1.8-.1.4.2.4.6 1.2.1.2.1.1 1.2 1.1-.1 2.7-1.3 1.1-.2.1-.1.2-.6 1.4-.1.2v1.8l-.8.2h-.2l-.2.1-1.4 1-.3.2-.1.4-.2 1.2v.2l.1 1.2-1 .8-.2.2-.1.3-.9 2.4-.1.2v.2l.4 3.2v.2l2 6.4.1.2.2.2 6.4 6.6.1.1.1.1 4.3 2.9-.2 3.2v.3l.2.3.8 1.2.3.4h.5l5.4.4 1.5.8-.4 2.3-2 5.1v.2l-.6 2.8-.1.4.2.3 2 3.4.1.2.1.1 5.6 4.6.2.2h.3l3.4.5 1.6 3.8v.2l1.5 2.4-.7 2.1-.1.3.1.3 1.4 3.6.1.2.1.1 1.6 1.8.6.6.7-.4 1.2-.8.3-.2.1-.3.7-1.6 1.6-1.2 1.3-.4 1.9.9 3.2 1.2.3.1.3-.1 1-.3.7-.2.1-.7.2-2v-.3l-.1-.3-1-1.8.2-1.3 1.1-.8 2.4-.7 1.1-.4 1-.4-.4-1-.5-1.2-.4-1.3.6-.4.3-.2.1-.3 1-2.8.1-.2v-3l.5-3.7 1.8-2.3.1-.1.1-.1 1.6-3.5 1.9-3.4.1-.3v-.3l-.3-4.6v-.2l-.1-.2-1.6-2.9-.1-2.6.6-4.5v-.2l-.7-6.2-.9-13.7-1.1-13.1-.8-10.1v-.2l-.2-.8-.7-2.3-1.1-3.3-.1-.2-.1-.2-1.3-1.5-1.1-1.9-.2-4.5-.5-.8z"/></g><g><path fill="#EDEBDF" d="M755.5 177.9l1.2-2.2-.1-7.6-1.3-6.2-1-3.3 19-4.3 4.6-.8 3.4 13.8-7.2 2.9-4.5 1-2.6 1.4-.6-.5-1.4 1.5-3.1 2.8-4.1 3.7z"/><path fill="#fff" d="M777.5 154l3.2 12.9-6.8 2.8-4.5 1-2.4 1.3-.7-.6-1.7 1.8-3.1 2.8-3.7 3.4-1.7-1.7 1.1-1.9-.2-7.8-1.3-6.3-.9-2.8 18.4-4.1 4.3-.8m.7-1.1l-.9.2-4.1.8-18.5 4.1-1.1.2.3 1 .9 2.8 1.2 6.2.1 7.4-.9 1.7-.4.7.5.5 1.7 1.7.7.7.7-.6 3.7-3.4 3.1-2.8 1.1-1.1.5.4.6-.3 2.3-1.2 4.4-1h.2l6.8-2.8.8-.3-.2-.8-3.2-12.9-.3-1.2z"/></g><g><path fill="#EDEBDF" d="M514.9 184.6l-2.5-.3-2.4-1.1-2.3-3.6-.3-3.1 1.8-3-.1-.8-2-1.3-.6-3.1-.8-6.4-1.7-2.2-6.1-3.6-3.4-4.8-3-.4-1.5-2.8h-2.9l-2.9-2.8-.4-6v-3.5l1.6-2.8-.6-2.4-2-1.6-.7-.4 2.2-5.7 4.6-3.5.9-1.1v-7.2l.2-2.6 2.2-3 1.2 1 2.3.4 2.4-.6 6.4-2.7 2.5-1.7 2.1-.8 2.4 1.7-1.4 1.4-1.6 2.6-.4 1.2.2.2 1.4-.7 1.1-.2 1.5-.3.6 1.1.6.1.9-.7 3.4 4.7 6.7 1 7.2 1.9 2.5.9 10.7 2.3 1.7 2.1 3.2 1.2 1.7 9.1 2.4 1.8-1 2.5-1.6 1.4-1.8 4-1 2 .1 1 .5.1.9-1.5 1.6-.7.7-1.8 1.7-1.6 2.4-3.5 3.7-5.6 1.3-.8.6 1.6-.2 2.1-2.6 6-2.3 4.8.4 3.6-.5 2.1.6 1.1-.1 2.7-1.7 2.1-.4 1.4.5 2.9.6 3.2-1.3 2.3-.7 2.5-.8 2.5 1 2 .5 5.4 1.1 3.9v3.3l-40 2.4z"/><path fill="#fff" d="M509 101.6l1.7 1.3-1 1-1.7 2.7-.6 1.7.8.6 1.5-.8 1-.1 1.2-.3.6 1 1 .1.7-.5 3.3 4.5 6.9 1 7.1 1.9 2.5.9 10.5 2.4 1.7 2 3.1 1.2 1.7 9 2.2 1.7-.9 2-1.5 1.4-1.8 4.1-1.1 2.1.1 1.5 1.3.3 1-1.7 1.7-.7.7-2 1.7-1.5 2.4-3.5 3.7-5.5.7-.4.3.8-.1 2-2.5 5.9-2.4 4.9.4 3.6-.6 2.2.7 1.1-.1 2.4-1.7 2.1-.4 1.5.6 3.1.6 2.9-1.3 2.2-.7 2.5-.8 2.7 1 2.1.6 5.3 1 3.9.1 2.7-39.4 2.3-1.2-1.2-2.6-.4-2.2-1-2.2-3.4-.2-2.8 1.8-3-.2-1.2-2-1.4-.6-2.9-.8-6.5-1.8-2.4-6.2-3.6-3.4-5-3-.4-1.6-2.8h-3l-2.6-2.6-.4-5.8v-3.4l1.6-2.8-.6-2.8-2.2-1.8-.4-.2 2-5.2 4.6-3.4 1-1.4v-7.4l.2-2.4 1.8-2.5.9.8 2.5.4 2.5-.6 6.5-2.8 2.5-1.7h1.8m.2-1.1l-.5.2-1.8.7h-.1l-.1.1-2.5 1.6-6.3 2.7-2.2.5-2.1-.3-.6-.6-.8-.7-.7.9-1.8 2.5-.2.2v.3l-.2 2.4v7l-.7 1-4.4 3.3-.2.2-.1.3-2 5.2-.3.8.8.4.3.1 1.8 1.5.4 2.1-1.4 2.4-.1.2V139.2l.4 5.8v.4l.3.3 2.6 2.6.3.3h2.8l1.3 2.3.2.4.5.1 2.5.3 3.1 4.6.1.2.2.1 6 3.5 1.5 2 .8 6.2.6 2.9.1.4.3.2 1.6 1.1.1.4-1.6 2.7-.2.3v.3l.2 2.8v.3l.1.2 2.2 3.4.2.2.3.1 2.2 1 .1.1h.1l2.3.3.9 1 .3.3h.5l39.4-2.3 1-.1v-1l-.1-2.7v-.2l-1-3.9-.6-5.3v-.2l-.1-.2-.8-1.8.7-2.3.7-2.4 1.2-2.1.2-.3-.1-.4-.6-2.9-.5-2.9.3-1.1 1.6-1.9.2-.2v-.3l.1-2.4v-.3l-.2-.3-.5-.8.5-1.8v-.4l-.4-3.3 2.3-4.7 2.5-5.9.1-.2v-.2l.1-2v-.2l-.1-.2-.3-.8-.4-1.2-1.1.6-.7.4-.2.1-.1.2-3.7 5.5-2.3 3.4-1.6 1.5-.2.2-.1.2-.6 1.5-1.3.5-.3.1-.2.3-.5.8v-.3l1-1.8 1.7-3.9 1.4-1.3.2-.1.1-.2.9-2 .3-.7-.6-.5-1.9-1.4-1.6-8.6-.1-.6-.5-.2-2.8-1.1-1.5-1.8-.2-.3-.3-.1-10.5-2.4-2.4-.9-7.1-1.9h-.2l-6.5-.9-3-4.1-.6-.8-.8.6-.3.2h-.1l-.3-.6-.4-.6-.7.2-1.1.2-.9.1h-.2l-.2.1-.6.3.1-.4 1.6-2.5.9-.9.8-.8-.9-.7-1.7-1.3-.4.1z"/></g><g><path fill="#EDEBDF" d="M707.2 319.4l-10.8-6.5-2.4-.7-10.9 1.3-4.1.7-1.5-3-2.3-1.7-14.2.4-6.2.7-7.8 3.9-5.4 2.3-19.1 2.3.5-4.4 1.8-1.5 2.2-.5.5-3.1 3.9-2.5 3.3-1.3 3.6-3.1 3.6-1.7.5-2.6 3.6-3.6 1.3-.3v.6s0 .5.2.5c.5 0 1.1.1 1.5.2l1.9-2.9 2.1-.6 1.7.2 1.3-2.8 2.5-2.2.4-1.7.2-3.6h4.2l6.2-.7 13.7-2 13.2-1.8 18.8-4.1 17.4-3.7 9.7-2.1 4.8-1.1 2 4.7 3 5.5 2.1 2.1.3.9 1-.3 2.6 5.2.4 4-.2 3.3-3.2 1.4-2.4 2.1-1.1 1.2-2.2-.3 3-2.9 2.8-2.3 1.1-.5.1-1.5-.5-5.1-1.2-2-.2-.5-1 .1-.3 4.1-2.3 1.2-.5 1.6-1.2 2.8-3.5 1.5-2.2-.3h-.2l.8 1.3-1.6 5h3.3l.4 1 1.5-1.5 2.5-.9-2.3 4.3-2.8 4.5h-1.5l-.9-.4-2.2.5-4.4 2.1-5.5 4.6-2.9 4-1.7 5.5-.5 2.4-4.4.5-4.9 1.2-9-7.4z"/><path fill="#fff" d="M746.7 267.3l1.8 4.3 3.1 5.6 2.1 2.1.6 2-2.1.1.7.6-.3 3.7-2.2 1.1-.6 1.8-1.1 2.5-3.2 1.4-2.1-.3-1.3-.1-1.4-1.1.3 1.1v.8h1.7l.7 1.1-1.7 5.5h3.7l.6 1.4 2-2 1.1-.4-1.7 3.1-2.7 4.2h-1.1l-1-.4-2.4.6-4.5 2.1-5.6 4.6-3 4.1-1.7 5.6-.4 2.1-4.1.4-4.7 1.2-8.6-7.1-11-6.6-2.5-.7-11 1.3-3.7.7-1.4-2.8-2.6-1.8-14.3.4-6.3.7-7.9 3.9-5.3 2.2-18.4 2.2.4-3.5 1.5-1.3 2.4-.6.6-3.2 3.7-2.4 3.4-1.3 3.7-3.1 3.8-1.8.6-2.7 3.4-3.4.6-.1s0 1 .7 1 1.7.3 1.7.3l2-3.1 1.8-.6 2 .3 1.4-3.1 2.5-2.2.4-1.8.2-3.2h3.7l6.3-.7 13.7-2 13.2-1.8 18.8-4.1 17.4-3.7 9.7-2.1 3.9-1m8.4 12.9l2.4 4.8.4 3.9-.1 2.9-2.9 1.3-2.5 2.1-1 1.1-.9-.1 2.2-2.2 2.7-2.2 1.3-.6.1-1.8-.6-5.3-1.3-2-.6-1.6.8-.3m-7.8-14.1l-.8.2-4.4 1-9.7 2.1-17.4 3.7-18.8 4.1-13.1 1.8-13.7 2-6.2.7H658.6v.9l-.2 3.1-.3 1.4-2.3 2-.2.1-.1.2-1.1 2.4-1.2-.2h-.2l-.2.1-1.8.6-.4.1-.2.3-1.6 2.5c-.3-.1-.6-.1-.9-.1v-1.2l-1.2.3-.6.1-.3.1-.2.2-3.4 3.4-.2.2-.1.3-.5 2.2-3.3 1.6-.1.1-.1.1-3.5 3-3.2 1.2h-.1l-.1.1-3.7 2.4-.4.2-.1.4-.4 2.6-1.7.4-.2.1-.2.1-1.5 1.3-.3.3v.4l-.4 3.5-.2 1.3 1.3-.2 18.4-2.2h.1l.1-.1 5.3-2.2 7.7-3.9 6.1-.7 14-.4 2.1 1.5 1.3 2.6.3.7.7-.1 3.7-.6 10.7-1.2 2.2.6 10.8 6.5 8.6 7.1.4.3.5-.1 4.7-1.1 4-.4.7-.1.1-.7.4-2.1 1.6-5.4 2.8-3.8 5.4-4.5 4.3-2 2-.5.7.3.2.1h1.9l.3-.5 2.7-4.2 1.7-3.1 1-1.8.4.1.5.1.4-.4.9-1 2.3-2 2.8-1.3.6-.3v-.6l.1-2.9v-.2l-.4-3.9v-.2l-.1-.2-2.4-4.8-.4-.8-.8.3h-.1l-.1-.3-.1-.2-.2-.2-2-2-3-5.4-1.8-4.2v-1.1zm6.6 16.2h.2v.2l.1.1 1.1 1.8.5 5-.1 1.1-.8.3-.1.1-.1.1-2.7 2.2-2.2 2.2-1.4 1.4 1.7.3-1.4.5-1.1.4-.2.1-.2.2-.9.9-.3-.6h-3l1.3-4.2.1-.4-.2-.4-.1-.2 1.2.2h.3l.3-.1 3.2-1.4.4-.2.2-.4 1.1-2.5v-.2l.4-1.4 1.9-.9.5-.3v-.6l.3-3.3z"/></g><g><path fill="#EDEBDF" d="M719.5 228.3l-1.5-.8 1.8-2.6 3.3 2.2-1.6 3.3z"/><path fill="#fff" d="M719.9 225.6l2.5 1.7-1.1 2.2-1.6-1.6-1.1-.6 1.3-1.7m-.2-1.4l-.6.8-1.3 1.8-.6.9 1 .5 1 .5 1.5 1.5 1 1 .6-1.3 1.1-2.2.4-.8-.7-.5-2.5-1.7-.9-.5z"/></g><g><path fill="#EDEBDF" d="M721.4 235.2c-3.2 0-5.7-2.6-5.7-5.7s2.6-5.7 5.7-5.7 5.7 2.6 5.7 5.7-2.6 5.7-5.7 5.7z"/><path fill="#fff" d="M721.4 224.3c2.9 0 5.2 2.3 5.2 5.2s-2.3 5.2-5.2 5.2-5.2-2.3-5.2-5.2 2.3-5.2 5.2-5.2m0-1c-3.4 0-6.2 2.8-6.2 6.2 0 3.4 2.8 6.2 6.2 6.2s6.2-2.8 6.2-6.2c0-3.4-2.8-6.2-6.2-6.2z"/></g><g><path fill="#EDEBDF" d="M794 162.9l2.5-2.8h1.8l2.4 1.9-2.8 1.2-2.2 1-1.7-1.3zm-1.6-1.4l2.2-1.3.3-1.2-.5-1.9-1.8.9-.5 1 .5 2.2-2.6 1.2-2.6-4.3-2.9-3.7-1.5-1.3-5.4 1.6-4.5.9-18.5 4.1-.7-4.7.6-9.7 4.1-.9 5.9-1.1 15.3-4 1.8-.5 1.6-2.4 3.8-1.7 2.9 4.4-2.2 4.7-.2 1 1.3 1.7.7-.5h1.9l2.1 2.4 3.3 5.1 2.7.4 1.8-.8 1.3-1.3-.6-1.9-1.4-1.1-1.4.8-1.4-1.8.9-.9 2.1-.2 1.8.8 1.8 2.3.9 2.6.4 2.6-4 1.4-3.2 1.6-3.3 3.9-2.5 1.9v-2.3zm10.2.2l1.8-.6.4-1.6 1.6.2 1.2 2.7-1.6.6-4.5.1 1.1-1.4z"/><path fill="#fff" d="M786.7 135.2l2.5 3.8-2.1 4.5-.3 1.3 1.7 2.2 1-.7h1.5l2 2.2 3.4 5.2 3.1.4 2-.8 1.5-1.5-.7-2.4-1.8-1.4-1.3.7-.8-1.1.4-.4 1.8-.1 1.5.7 1.7 2.1.8 2.5.3 2.1-3.7 1.3-3.4 1.7-3.4 3.9-1.7 1.3v-.8l2.1-1.3.4-1.5-.7-2.7-2.5 1.3-.7 1.3.4 2-1.8.9-2.4-3.9-2.9-3.8-1.8-1.6-5.7 1.6-4.4.9-18 4-.6-4.1.6-9.2 3.7-.8 5.9-1.1 15.3-4 2-.6 1.7-2.4 3.4-1.7m18.5 24.8l.9.1.9 2-1.1.4-3.4.1.4-.5 1.9-.6.4-1.5m-7.1.5l1.6 1.3-2.1.9-1.9.9-1-.8 2-2.3h1.4m-11-26.5l-.8.3-3.2 1.4-.3.1-.2.2-1.5 2.1-1.6.5-15.3 4-5.9 1.1-3.7.8-.7.2v.8l-.6 9.2v.2l.6 4.1.2 1.1 1.1-.2 18-4 4.4-.9 5.2-1.5 1.3 1.2 2.9 3.7 2.4 3.9.5.8.8-.4 1.3-.7v2.7l1.6-1.2.3-.2.4.3 1 .8.5.4.6-.3 1.9-.9 2.1-.9 1.5-.7-1.3-1-1.6-1.3-.3-.2h-1l1.1-1.3 3.1-1.6 3.6-1.2.8-.3-.1-.8-.3-2.1v-.2l-.8-2.5-.1-.2-.1-.1-1.7-2.1-.1-.2-.2-.1-1.5-.7-.2-.1h-.3l-1.8.1h-.4l-.3.3-.4.4-.6.6.5.7.8 1.1.5.7.8-.4.7-.4 1 .8.4 1.5-1 1-1.5.7-2.4-.3-3.1-4.8v-.2l-2-2.2-.3-.3H789.2l-.3.2-.2.1-.8-1.1.2-.7 2.1-4.4.2-.5-.3-.5-2.5-3.8-.5-.6zm5.8 24.3l1.2-.6.3 1.2-.2.9-1.2.7-.3-1.6.2-.6zm11.5.6l-.2.8-.3 1-1.4.4-.3.1-.2.2-.4.5-1.4 1.7 2.2-.1 3.4-.1h.2l.2-.1 1.1-.4 1-.4-.4-1-.9-2-.2-.5-.6-.1-.9-.1-.9.1z"/></g><g><path fill="#EDEBDF" d="M529.4 326.6l.8-3.5-1.4-3.4 3.7-2.1.2-2 1.2-4 2.9-2.4 1.4-4.6 1.3-6.5 7.4.1 6-.6 6.7-.2.2-3.6h3.8l17.7-2 45.1-4.4 6.9-1.6 16-2.1h6l2.3-1.8 2.6.2-.3 3.7-.4 1.9-2.6 2.3-1.5 3.3-2.2-.3-1.5.5-2.1 3.3-.4-.1s-.9-.3-1.5-.3-.9-.4-1.1-.8l-3.2 3.1-.5 2.8-4 1.8-3.6 3.1-3.5 1.3-3.3 2.2-.6 3.3-2.7.7-1.3 1.1-.4 3.6-96 9.2 1.9-1.2z"/><path fill="#fff" d="M657.8 282.6l1.9.2-.3 3.2-.4 1.7-2.6 2.3-1.4 3.1-2-.3-1.8.6-2 3.1s-1-.3-1.7-.3-.7-1-.7-1l-.5.1-3.5 3.5-.5 2.7-3.9 1.8-3.5 3.1-3.5 1.3-3.6 2.4-.6 3.2-2.5.7-1.6 1.3-.4 3.4-94 9 .8-.7.8-3.8-1.3-3.1 3.5-2 .3-2.2 1.2-3.8 2.9-2.4 1.5-4.8 1.2-6.1 7 .1 6-.6 7.1-.2.2-3.6h3.4l4-.4 13.7-1.5 45.1-4.4 7-1.7 16-2.1h6.1l2.6-1.8m-.3-1.1l-.3.2-2 1.6H649.3l-16 2.1h-.2l-6.9 1.6-45 4.3-13.7 1.5-4 .4h-4.3l-.1 1-.1 2.6-6.2.2-6 .6-7-.1h-.8l-.2.8-1.2 6.1-1.4 4.4-2.6 2.2-.2.2-.1.3-1.2 3.8v.2l-.2 1.7-3.1 1.7-.8.4.3.8 1.1 2.8-.7 3.1-.6.5-2.6 2.1 3.3-.3 94-9 .8-.1.1-.8.3-3 1.1-.9 2.3-.6.6-.2.1-.6.5-2.8 3.1-2.1 3.4-1.3.2-.1.1-.1 3.4-3 3.7-1.7.5-.2.1-.5.4-2.3 2.6-2.6c.3.3.7.5 1.2.5.4 0 1.2.2 1.4.3l.7.2.4-.7 1.8-2.8 1.2-.4 1.8.2.7.1.3-.7 1.3-2.9 2.4-2.2.2-.2.1-.3.4-1.7v-.2l.3-3.2.1-1-1-.1-1.9-.2v.4z"/></g><g><path fill="#EDEBDF" d="M472.6 359.9l-1.9-.8-2.7 1.2-2.4-2-.2-33.1-1.2-9.5v-7.2l-1.5-6.5 69-2.2 1.9 3-.9 3.6-2.6 2.2-.2.7 3.8.5 4.2-.8-1.2 3.6-1.1 3.5-.5 1.9-2.3 2 1 2.8 3.6.6-2.4 1.7-.3 3-2.2 1.1-2.3 4.6.3 1.4.1 1.7-2.6 1.3-3 4.3.7 2.1-2.3 1.9-1.2 4.7-.5 2 1.5 2.4-1.4 1.3 1.4 2.3.3 3.3-1.2 2.2-49.1 1.1z"/><path fill="#fff" d="M531.4 300.3l1.6 2.6-.8 3.2-2.6 2.2-.4 1.4 4.4.6 3.5-.6-.9 2.8-1.1 3.5-.5 1.8-2.4 2.1 1.2 3.5 2.7.4-1.5 1.1-.3 3-2.1 1.1-2.5 4.9.3 1.6.1 1.3-2.4 1.2-3.2 4.7.6 2-2.2 1.8-1.2 4.9-.6 2.2 1.4 2.2-1.4 1.3 1.6 2.6.2 3.1-1 1.8-48.3 1-.6-5.7-2.4-1-2.6 1.2-2-1.7-.2-32.9-1.2-9.5v-7.2l-1.4-6 68.2-2.5m.6-1h-.6l-68.1 2.2h-1.2l.3 1.2 1.4 5.8V315.7l1.2 9.5.2 32.8v.5l.3.3 2 1.7.5.4.6-.3 2.2-1 1.4.6.5 5.1.1.9h.9l48.3-1h.6l.3-.5 1-1.8.1-.3v-.3l-.2-3.1v-.2l-.1-.2-1.2-1.9.8-.7.6-.6-.4-.7-1.2-1.8.5-1.8 1.1-4.6 1.9-1.6.5-.4-.2-.6-.5-1.5 2.8-4.1 2.2-1.1.6-.3-.1-.7-.1-1.3v-.2l-.2-1.3 2.2-4.3 1.8-.9.5-.2.1-.5.3-2.5 1.2-.8 2-1.4-2.5-.4-2.1-.3-.8-2.3 1.9-1.6.2-.2.1-.3.5-1.8 1.1-3.5.9-2.8.5-1.6-1.6.3-3.3.6-3.1-.4 2.3-2 .2-.2.1-.3.8-3.2.1-.4-.2-.4-1.6-2.6-.4-.3z"/></g><g><path fill="#EDEBDF" d="M528.5 310.2l.7-2.3 2.7-2.1.5-2.5-1.6-2.5-9.9.2-18 .6-20.2.6-20 .8-.4-5.1-.2-4.1-.3-31.4-1.2-9.9-2-1.4-2.2-2.7-2-3.2.5-2.3 1.5-1.4v-2.1l-.9-.5-1.9-.3-2.9-2.5-2.7-3.6-2.3-3.5.2-2.1-1.4-2.7 2.8-.1 56.2-2.1 1.1 2.2 2.4 2.8-.8 2.2.2 3.5 2 6.2 5.9 6.6 4.9 3.1.1 3.8.7 1.2 5.8.7 2.1 1.1-.4 2.8-1.8 5.4-.7 2.5 1.4 3.3 5.9 4.7 4.3.8 1.7 4.2 1.7 3.1-.7 2.3 1.1 3.8 1.3 1.6 1.2-.9 2 2.9-1 1.8-.1 2.8-2.4 1.4-1.7 2-.5 5-1.6 5.1-3.8.7z"/><path fill="#fff" d="M503.2 222.5l1 2 2.2 2.7-.7 2 .2 3.7 2 6.4 6.1 6.8 4.8 3 .1 3.7.9 1.5 6 .7 1.7.9-.4 2.5-1.8 5.3-.7 2.8 1.5 3.6 6.1 4.9 4.2.7 1.6 4 1.7 3-.7 2.2 1.1 4.1 1.7 1.9 1.2-.9 1.5 2.2-.9 1.7v2.7l-2.3 1.3-1.8 2.2-.6 5.1-1.5 4.8-3.4.6-4.7-.4.5-1.6 2.7-2.1.6-2.9-1.9-3-10.1.2-18.1.7-20.2.6-19.5.8-.4-4.7-.2-4.1-.3-31.3-1.2-10.1-2.2-1.6-2.2-2.6-1.8-3 .4-2 1.6-1.4v-2.6l-1.3-.8-1.9-.2-2.7-2.4-2.7-3.6-2.2-3.4.2-2-1.1-2.2 2-.1 55.9-2.3m.6-1.1h-.6l-55.9 2.1-2 .1-1.5.1.7 1.4 1 1.9-.2 1.7v.3l.2.3 2.2 3.4 2.7 3.6.1.1.1.1 2.7 2.4.2.2h.3l1.7.2.6.4v1.6l-1.2 1.1-.3.2-.1.3-.4 2-.1.4.2.3 1.8 3v.1l.1.1 2.2 2.6.1.1.1.1 1.8 1.3 1.1 9.6.3 31.3.2 4.1.4 4.7.1 1h1l19.5-.8 20.2-.6 18.1-.7 9.5-.2 1.4 2.2-.4 2.1-2.4 1.9-.2.2-.1.3-.5 1.6-.4 1.2 1.2.1 4.7.4h.2l3.4-.6.6-.1.2-.6 1.5-4.8v-.2l.5-4.8 1.5-1.8 2.1-1.2.5-.3v-3l.8-1.5.3-.5-.3-.5-1.5-2.2-.6-.9-.8.6-.4.3-1-1.1-1-3.6.6-1.9.1-.4-.2-.4-1.7-2.9-1.6-3.9-.2-.5-.6-.1-3.9-.7-5.7-4.5-1.3-3 .6-2.4 1.8-5.2v-.2l.4-2.5.1-.7-.6-.3-1.7-.9-.2-.1h-.2l-5.5-.6-.5-.8-.1-3.4v-.5l-.5-.3-4.6-2.9-5.8-6.5-1.9-6-.2-3.3.6-1.8.2-.5-.4-.4-2.1-2.6-.9-1.9-.2-1z"/></g><g><path fill="#EDEBDF" d="M669.5 401.2l-.1-2.5h-3.6l-4.6.6-28.1 1.7-7.2-.1-2.1-2.1-2-3.1-.2-2.6-1.1-.6-.8-1 .7-2.3-.2-4.5-1.5-3.8.2-1.8.4-2.9 1.6-4.1-.2-1.5-1.6-.7-.5-3.1-2.2-2.9-1.8-5.5-1.3-6.1-1.4-4.2-1.3-5.4-2.1-8.5-2.9-6.9-.6-3-.2-1.9v-2.3l37.3-4.5.8 2.6-2.2 1.1-.6 1.4.2 1.2 1.1 1 3.1 1.9h3.2l3.1 4.6.4 1.2 2.1 2.5.4 1.2 3.8 1.4 2.8 2.1 1.9 2.5 2 1.1 1.9 1.8 1.1 2.2 1.7 1.6 3.8 1.7 2.6 5.7 1.3 4 2.1.5 2.2 2 1.1 3.2.5 1.7 1.9.9 1.9-.7.7 1.9-2.9 5.4.4 2.2-1.3 3.8-1.9 8.6.7 6-4.9-.3-4.8-.7-.7.9 1.4 3.8-.3 4.5z"/><path fill="#fff" d="M641.7 316.2l.6 1.8-1.9 1-.8 1.7.3 1.5 1.2 1.1 3.3 2 3.1-.1 2.9 4.3.4 1.3 2.1 2.5.4 1.3 3.9 1.5 2.7 2 2 2.5 2 1.1 1.8 1.7 1.1 2.2 1.8 1.7 3.7 1.7 2.5 5.5 1.4 4.2 2.2.6 2 1.8 1.1 3.1.6 1.8 2.2 1.1 1.7-.6.4 1.2-2.9 5.4.4 2.2-1.3 3.7-2 8.7.7 5.5-4.3-.3-5.1-.7-1 1.4 1.4 3.9-.3 3.8-2.2-.7-.1-2.5h-4l-4.7.6-18.7 1.1-9.4.6-6.9-.1-2-1.9-1.9-2.9-.2-2.8-1.3-.7-.6-.7.7-2.1-.3-4.6-1.4-3.8.1-1.7.4-2.8 1.5-4.2-.1-1.8-1.7-.7-.4-2.9-2.2-2.9-1.8-5.5-1.3-6-1.4-4.2-1.3-5.3-2.1-8.6-3-6.9-.6-2.9-.1-1.8v-1.9l36.7-4.5m.7-1.1l-.8.1-36.4 4.3-.9.1v2.8l.1 1.8v.2l.6 3v.2l2.9 6.8 2.1 8.5 1.3 5.3 1.4 4.2 1.3 6v.2l1.8 5.5.1.2.1.1 2.1 2.7.4 2.7.1.6.5.2 1.1.5.1 1-1.5 4v.2l-.4 2.8-.1 1.7v.2l.1.2 1.4 3.7.3 4.3-.6 1.9-.2.5.3.4.6.7.1.2.2.1.8.4.1 2.3v.3l.1.2 1.9 2.9.1.1.1.1 2 1.9.3.3h.4l6.9.1 9.4-.6 18.7-1.1 4.7-.6h3l.1 1.6v.7l.7.2 2.2.7 1.2.4.1-1.3.3-3.8v-.2l-.1-.2-1.2-3.4.3-.5 4.5.6 4.3.3 1.2.1-.1-1.2-.7-5.3 1.9-8.5 1.2-3.6.1-.3v-.3l-.4-1.9 2.7-5.1.2-.4-.2-.4-.4-1.2-.4-.9-.9.3-1.3.5-1.5-.7-.4-1.4-1.1-3.1-.1-.2-.2-.2-2-1.8-.2-.2-.2-.1-1.6-.5-1.2-3.7v-.2l-2.5-5.5-.2-.3-.3-.2-3.5-1.6-1.6-1.5-1-2.1-.1-.2-.1-.1-1.8-1.7-.1-.1-.1-.1-1.8-1-1.8-2.4-.1-.1-.1-.1-2.7-2-.1-.1h-.1l-3.5-1.4-.3-.8-.1-.2-.1-.1-2-2.4-.4-1.1v-.1l-.1-.1-3-4.3-.3-.5h-.5l-2.8.1-2.9-1.8-.9-.8-.2-.9.5-1.1 1.6-.8.8-.4-.2-.8-.6-1.8-.4-.6z"/></g><g><path fill="#EDEBDF" d="M681.6 366.3l-.6-2-1.1-3-1.7-1.7-2.4-.6-1.5-4.4-2.3-5-3.6-1.6-1.9-1.8-1.1-2.3-1.8-1.6-2-1.1-1.9-2.6-2.6-1.9-4.1-1.6-.5-1.4-2.1-2.5-.4-1.3-2.8-4.2-2.8.1-3.7-2.2-1.2-1.2-.4-1.9.9-2 1.7-.8-.4-2 5.4-2.1 8-4.1 6.8-.7 14.2-.3 2.5 1.8 1.4 2.7 3.4-.5 11-1.3 2.7.8 11 6.6 9.3 7.4-5 5.1-2.2 5.2-.4 5.7-1.5.7-1 2.4-2.2.6-1.7 3-2.5 2.4-1.9 3-1.5.7-3.2 3.1-2 .1.7 2.4-4.6 5.1-1.9 1.1-1.8 1z"/><path fill="#fff" d="M675.6 309l2.3 1.6 1.5 2.9 3.7-.5 11-1.3 2.5.7 11 6.6 8.8 7.1-4.7 4.7-2.2 5.3-.4 5.5-1.4.7-1 2.4-2.1.6-1.8 3.1-2.4 2.4-2 2.9-1.4.7-3.1 2.9-2.5.1.8 2.8-4.4 4.8-1.8 1.1-1.5.8-2.2-1.1-.6-1.8-1.1-3.1-2-1.8-2.2-.6-1.4-4.2-2.4-5.2-3.7-1.7-1.8-1.7-1.1-2.2-1.8-1.7-2-1.1-2-2.5-2.7-2-3.9-1.5-.4-1.3-2.1-2.5-.4-1.3-2.9-4.5-3 .1-3.5-2.1-1.1-1.1-.3-1.5.7-1.7 2-.8-.4-2 5-2 7.9-4 6.8-.7 13.7-.3m.3-1.1h-.3l-14 .4-6.8.7h-.2l-.2.1-7.9 4-5 2-.8.3.2.8.3 1.2-1.2.5-.4.2-.2.4-.7 1.7-.1.3.1.3.3 1.5.1.3.2.2 1.1 1.1.1.1.1.1 3.5 2.1.3.2h.3l2.4-.1 2.6 3.9.4 1.1.1.2.1.1 2 2.4.4 1.1.1.4.4.2 3.8 1.5 2.5 1.8 1.9 2.4.1.2.2.1 1.9 1.1 1.6 1.5 1 2.1.1.2.1.1 1.8 1.7.1.1.1.1 3.3 1.5 2.2 4.8 1.4 4.2.2.5.5.1 2 .5 1.6 1.5 1 2.8.6 1.8.1.4.4.2 2.2 1.1.5.2.5-.3 1.5-.8 1.8-1.1.1-.1.1-.1 4.4-4.8.4-.4-.2-.6-.5-1.6 1.3-.1h.4l.3-.3 3-2.8 1.3-.6.2-.1.1-.2 1.9-2.9 2.3-2.3.1-.1.1-.1 1.6-2.7 1.7-.5.5-.1.2-.5.8-2 1.1-.5.5-.3v-.6l.4-5.3 2.1-5 4.6-4.6.8-.8-.9-.7-8.8-7.1h-.2l-11-6.6-.1-.1h-.1l-2.5-.7-.2-.1h-.2l-11 1.3-3.1.4-1.1-2.3-.1-.2-.2-.1-2.3-1.6-.1-.3z"/></g><g><path fill="#EDEBDF" d="M539 299.2l1.9-2 2-1.2.2-2.6.7-1.4-1.4-2.2.8-2 2.1-1.7 2.1-.6 2.6 1.2 2.9 1 .5-.1.1-1.5-1.1-2.1.3-2.3 1.9-1.4 2.3-.6.9-.3-.5-1.1-.7-2.1 1.5-1c0-.1.1-.3.2-.5.2-.6.7-2 .8-2.4v-.3l3-1.5 4.7-.9 4.2-.5 1.3 1.5.8.5 1.2-2.4 3.2-1.3 2.3 1.5.3.6h.2l-.1-2.5 3-1.7 2.2-1.1 1.4 1.6h2.3l.3-.9-.3-2 2.4-3.7 4.1-2.9.6-4.4 2.8-.4 3.2-1.4 1.8-1.3-.1-.9-1-1.3.6-3.2 4-.1 2.1-.7 3.3 1.4 1.7 3.7h4.4l1.8 1.9 1.1-.1 2.3-1.1 4.7.5 2 .2 1.4-1.7 2.4-1.3 2.2-.8.6 2.8 1.6.8 2.6 2 .1 5.1.6 1.1 2.3 1.4.7 2 3.6 3 1.6 3.1 2.5 1.7-2.4 2.5-3.1 3.5-4.3 4.7-.9 1.3-.1 2-4.1 2-4.9 3-6.4 1.6-45.1 4.3-13.7 1.5-4 .4h-2.9l-.2 3.7-7.6.1-6 .6-8.4-.3z"/><path fill="#fff" d="M609.6 242.9l2.9 1.2 1.8 3.8h4.5l1.8 1.9 1.4-.1 2.3-1.1 4.6.5 2.2.2 1.5-1.8 2.3-1.2 1.6-.6.6 2.5 1.8.9 2.3 1.8.1 4.9.7 1.4 2.3 1.4.7 2 3.6 3 1.6 3.1 2.1 1.4-2 2.1-3.1 3.5-4.3 4.7-1.1 1.5-.1 1.8-3.8 1.9-4.9 2.9-6.3 1.6-45.1 4.3-13.7 1.5-4 .4h-3.4l-.2 3.7-7.1.1-6 .6-6.9-.1 1-1.1 2.2-1.3.2-2.8.8-1.6-1.4-2.2.7-1.7 2-1.5 1.8-.6 2.4 1.1 3.1 1.1 1-.3.1-2-1.1-2.1.3-2 1.7-1.3 2.2-.6 1.4-.6-.7-1.5-.6-1.7 1.3-.9s1.1-3.1 1.1-3.2l2.7-1.3 4.6-.8 3.9-.4 1.2 1.4 1.3.8 1.4-2.7 2.8-1.1 1.9 1.3.4.9 1-.2-.1-2.6 2.7-1.5 1.9-.9 1.3 1.4h2.9l.5-1.4-.3-2 2.3-3.5 4.2-3 .6-4.2 2.5-.4 3.3-1.4 2.1-1.5-.2-1.4-1-1.3.5-2.6 3.6-.1 1.8-.4m0-1l-.4.1-1.9.6-3.5.1h-.8l-.1.8-.5 2.6-.1.4.3.4.8 1 .1.5-1.5 1.1-3.1 1.3-2.4.4-.7.1-.1.7-.6 3.8-3.8 2.7-.2.1-.1.2-2.3 3.5-.2.3.1.4.3 1.7-.2.5h-1.8l-1-1.1-.5-.6-.7.3-1.9.9-2.8 1.5-.5.3v1.5l-1.6-1.1-.4-.3-.5.2-2.8 1.1-.3.1-.2.3-.9 1.8-.3-.2-1.1-1.3-.3-.4-.5.1-3.9.4-4.6.8h-.1l-.1.1-2.7 1.3-.6.3.1.5c-.1.4-.6 1.7-.8 2.3 0 .1-.1.2-.1.3l-1 .7-.6.4.2.7.6 1.7.3.6-.4.1-2.2.5h-.2l-.2.1-1.7 1.3-.3.2-.1.4-.3 2v.3l.2.3 1 1.9-.1 1-2.7-1-2.3-1.1-.4-.2-.4.1-1.8.6-.2.1-.1.1-2 1.5-.2.2-.1.2-.7 1.7-.2.5.3.4 1.1 1.7-.5 1.1-.1.2v.2l-.2 2.3-1.7 1.1-.1.1-.1.1-1 1.1-1.5 1.7h2.2l6.9.1h.1l6-.6 7.1-.1h.9v-.9l.1-2.7h2.6l4-.4 13.7-1.5 45.1-4.3h.2l6.3-1.6h.1l.1-.1 4.9-2.9 3.8-1.9.5-.3v-2.1l.8-1.2 4.2-4.7 3.1-3.5 2-2.1.8-.9-1-.7-1.9-1.3-1.5-2.9-.1-.2-.2-.1-3.4-2.8-.6-1.7-.1-.3-.3-.2-2-1.2-.5-.9-.1-4.7v-.5l-.4-.3-2.3-1.8-.1-.1h-.1l-1.4-.7-.5-2-.3-1.1-1.1.4-1.6.6h-.2l-2.3 1.2-.2.1-.1.2-1.1 1.4-1.7-.1-4.5-.5h-.3l-.3.1-2.1 1-.7.1-1.4-1.6-.3-.3h-4.2l-1.5-3.2-.2-.3-.4-.1-2.6-1-.4-.1z"/></g><g><path fill="#EDEBDF" d="M576 414.2l3.2-2.3v-.4l-2.5-4.9-1.3-.4-1.1 3.3-1.3 2.8-.9-.2h-2.8l-1.4-12.9-2.3-16.2.1-12.3.7-27-.1-14.5.1-6 39.7-3.2-.2 2.4.2 1.8.5 2.8 2.9 6.9 2.2 8.6 1.2 5.3 1.4 4.2 1.3 6.1 1.8 5.4 2.3 2.9.4 2.8 1.7.8.1 2.2-1.5 4.3-.4 2.7-.2 1.6 1.4 3.7.3 4.8-.6 2 .3.4 1.4.8.4 3.3-5.5-.3-5.8.5-22.2 2.6-8.6 1.1-.2 1.9 1.4 1.4 2.4 1.8.5 7.4-5.2 2.5z"/><path fill="#fff" d="M605.5 320.5l-.1 1.9.1 1.8.6 2.9 2.9 6.9 2.1 8.6 1.3 5.3 1.4 4.2 1.3 6 1.8 5.5 2.2 2.9.4 2.9 1.7.7.1 1.8-1.5 4.2-.4 2.8-.1 1.7 1.4 3.8.3 4.6-.7 2.1.6.7 1.3.7.3 2.5-4.9-.3-5.9.6-22.2 2.5-9 1.2-.2 2.5 1.5 1.5 2.2 1.7.5 6.9-4.8 2.2-2.4-.3 2.4-1.7v-.8l-2.7-5.2-2-.6-1.3 3.8-1.1 2.4-.6-.1h-2.4l-1.3-12.4-2.4-16.3.1-12.2.7-27-.1-14.5.1-5.6 38.8-2.8m1.1-1.1l-1.2.1-38.7 3.1-.9.1v.9l-.1 5.6.1 14.5-.7 26.9-.1 12.2v.2l2.4 16.3 1.3 12.4.1.9H572l.4.1.8.2.3-.7 1.1-2.4v-.2l1-2.9.6.2 2.4 4.6v.1l-2 1.4-2.1 1.5 2.6.3 2.4.3h.3l.3-.1 4.8-2.2.6-.3-.1-.7-.5-6.9v-.5l-.4-.3-2.2-1.6-1.2-1.2.1-1.2 8.2-1.1 22.2-2.5 5.8-.6 4.8.3 1.2.1-.1-1.2-.3-2.5-.1-.5-.4-.2-1.1-.6-.1-.1.5-1.6.1-.2v-.2l-.3-4.6v-.1l-.1-.1-1.3-3.6.1-1.4.4-2.7 1.5-4.1.1-.2v-.2l-.1-1.8v-.6l-.6-.2-1.2-.5-.3-2.4v-.3l-.1-.4-2.1-2.8-1.8-5.3-1.3-6v-.2l-1.4-4.2-1.3-5.3-2.1-8.6v-.2l-2.9-6.8-.5-2.8-.1-1.7.1-1.8v-.9z"/></g><g><path fill="#EDEBDF" d="M525.1 437.3l-1.9-1.9 1.5-1 .5-1-1.2-1.2-4.1-.3-.3-2.3-1.1-1.8-2.4-.5-1.7.9-1.6-1.3c-.6.2-2 .7-2.4.8-.1 0-.2.3-.3.5l1.9 1.1 2.2-.4 3.4 1.2-1.1 2.7-3.3-1-2.7-.9-3.2 1.2-5.8-1-9-3.1-10.4-.2-4.6 1.5-.1-3.9 1.2-2.8.6-6.3.5-2-1.4-1.9 2.7-4.6.6-7-.6-.6-.2-2.8-3.8-4.7-.8-4.4-2.2-3.6-.6-3.5-.6-8.2v-8.8l49.2-.8.1 5.9 1.6 3.8.1 1.6 2.1 1.8-.5 2.2-1 .5.5 1.9-4.5 7.7-2.8 5.1-.8 7.2.5 1.6 21.4-.4 8.3-.9.9 1.2-.9 4.7 2.8 2.7 1 3.6 1 2.3-1.8 3.3-1.3 1.5.6 1 2 .4.5-1.9 1.9-2.1 1.9-.2.3 2.8 1.2 1.8-1.8 3.2h-1.9l.9.5-.3 1.4-2-.3-.7 1.7 2.4 1.7 5.1.7 2.9 2.4h1.4v1.9l-2.4 3.2-1.3-1.1h-2.6l-.9-1.4-3.3-1.6c-1.2-.2-3-.5-3.5-.5-.2 0-.4-.1-.6-.3-.5-.5-.5-2-.5-2.7l-.1-.1-.7.8-1.5.4.1 1-.5.9 2.5.4-1.8 1.1-2 3-3.4 1.3-1.3-1.3 2.3-.8-.5-1.9-.7-.5-1.3 1.1-2.1.5-.8 2.1-3.5 1.3-7.6-3.3z"/><path fill="#fff" d="M521.7 364.2l.1 5.5 1.6 3.8.1 1.7 2 1.8-.4 1.7-1.1.6.5 2.1-4.4 7.6-2.9 5.2-.8 7.3.6 2.1 21.7-.4 8-.9.6.8-.9 4.8 2.9 2.8 1 3.5.9 2.1-1.7 3-1.5 1.7.8 1.5 2.7.6.6-2.2 1.7-1.8 1.3-.1.3 2.4 1.1 1.7-1.5 2.7h-2.8v.4l1.5.8-.1.6-2-.3-1 2.4 2.8 2 5.1.7 3 2.4h1.1v1.3l-2 2.7-1-.8h-2.5l-.8-1.3-3.5-1.7s-2.9-.6-3.7-.6c-.7 0-.6-2.7-.6-2.7l-.6-.7-1 1.1-1.8.4.1 1.3-.7 1.4 1.8.3-.7.4-2 2.9-2.9 1.1-.6-.6 2-.7-.7-2.5-1.1-.8-1.5 1.3-2.2.6-.8 2.1-3.1 1.1-7.3-3.1-1.4-1.4 1.1-.7.7-1.4-1.5-1.5-3.9-.3-.3-2-1.3-2.1-2.8-.6-1.5.8-1.5-1.3s-2.1.7-2.7.8c-.6.1-.7 1.3-.7 1.3l2.4 1.4 2.2-.4 2.8 1-.7 1.8-2.8-.8-2.8-1-3.2 1.3-5.6-1-9-3.1-10.5-.2-4.1 1.3-.1-3.1 1.2-2.8.6-6.4.6-2.2-1.4-1.8 2.6-4.4.6-7.4-.6-.6-.2-2.8-3.8-4.8-.8-4.4-2.2-3.6-.6-3.4-.6-8.1v-8.3l48.1-.9m1-1h-1l-48.2.8h-1v9.3l.6 8.1v.2l.6 3.4v.2l.1.2 2.1 3.4.8 4.2v.2l.2.2 3.6 4.5.2 2.5v.4l.3.3.3.3-.5 6.7-2.5 4.2-.3.6.4.5 1.1 1.4-.5 1.7v.2l-.6 6.2-1.1 2.6-.1.2v.2l.1 3.1v1.3l1.3-.4 3.9-1.3 10.2.2 8.8 3h.2l5.6 1h.3l.3-.1 2.9-1.1 2.5.9 2.9.9.9.3.3-.9.7-1.8.4-1-1-.3-2.6-.9.2-.1 1.2-.7 2 .4.9 1.6.3 1.8.1.8.8.1 3.6.3.8.8-.3.5-.9.6-1.1.7.9.9 1.4 1.4.1.1.2.1 7.3 3.1.4.2.4-.1 3.1-1.1.4-.2.2-.4.7-1.6 1.8-.4.2-.1.2-.1.9-.8.2.2.4 1.3-1.1.4-1.5.5 1.1 1.1.6.6.5.5.6-.2 2.9-1.1.3-.1.2-.3 1.8-2.8.5-.3 1.7-1c.1 0 .3.1.4.1.4 0 2 .3 3.3.5l3.1 1.5.7 1 .3.4h2.7l.7.6.8.7.6-.9 2-2.7.2-.3v-2.6h-1.8l-2.7-2.2-.2-.2h-.3l-4.8-.7-2-1.4.4-.9 1.2.2.9.1.2-.9.1-.6.1-.5h.8l.3-.5 1.5-2.7.3-.5-.3-.5-1-1.5-.3-2.1-.1-1-1 .1-1.3.1h-.4l-.3.3-1.7 1.8-.2.2-.1.2-.3 1.3-1.3-.3-.3-.5 1.1-1.2.1-.1.1-.1 1.7-3 .2-.4-.2-.5-.9-2-1-3.4-.1-.3-.2-.2-2.5-2.4.8-4.3.1-.4-.3-.3-.6-.8-.3-.5-.6.1-8 .9-20.9.4-.3-1.2.8-7 2.8-5 4.4-7.5.2-.3-.1-.4-.3-1.3.4-.2.4-.2.1-.4.4-1.7.1-.6-.4-.4-1.7-1.5-.1-1.3v-.2l-.1-.2-1.5-3.6-.1-5.3.1-1zm-11.8 65c.5-.2 1.3-.4 1.9-.6l1.1.9.1.1-1.8.3-1.3-.7zm35.4 4.7l1-.2.3-.1c0 .7.2 1.3.4 1.7l-1.4-.2-.5-.1.1-.2.1-.3v-.6z"/></g><g><path fill="#EDEBDF" d="M550.1 414.2l-1-3.4-3.1-2.8 1-4.9-.3-.4-1.3.2-6.9.7-21.7.4-.8-2.4.7-7.5 2.8-5 4.5-7.8-.5-2.3 1.2-.6.3-1.2-2-1.8-.1-1.9-1.6-3.6-.1-5.4 1.2-2.2-.2-2.7-1.7-2.9 1.4-1.3-1.3-2 .4-1.6 1.5-5.9 2-1.6-.5-2 3.3-4.9 2.3-1.1-.1-1.1-.3-1.6 2.6-5.1 2-1 .1-1 33.4-3.4.2 6 .1 14.5-.7 26.9-.1 12.3 2.4 16.2 1.3 11.7-.4 1.6h-5l-1.3-.7-1.6-.3-6 1.7-1.3-.6-2.1 3.4-1.5 1.1z"/><path fill="#fff" d="M566.8 323.6l.2 5.5.1 14.5-.7 27-.1 12.2 2.4 16.3 1.3 11.6-.2 1.1h-4.5l-1.3-.7-1.8-.3-5.9 1.7-1.5-.7-2.2 3.7-1 .7-1-2.2-1-3.4-3-2.8 1-4.8-.6-.8-1.6.2-6.9.8-21.3.3-.7-1.9.8-7.3 2.7-4.9 4.5-7.9-.4-2.1 1.1-.6.4-1.7-2-1.8-.1-1.9-1.6-3.6-.1-5.2 1.2-2.2-.2-3-1.5-2.7 1.3-1.3-1.4-2.2.4-1.4 1.4-5.7 2.2-1.8-.6-2.1 3.2-4.6 2.5-1.2-.2-1.5-.3-1.5 2.5-4.8 2-1.1.1-.8 32.4-3.1m3.2 87.1-2.2-88.2l-1.1.1-32.4 3.4-.8.1-.1.7v.3l-1.6.8-.3.1-.1.3-2.5 4.8-.2.3.1.3.3 1.5.1.7-1.8.9-.4.2-.2.2-3.2 4.6-.3.4.1.4.4 1.4-1.7 1.4-.3.2-.1.3-1.4 5.7-.4 1.4-.1.4.2.4.9 1.5-.7.7-.6.5.4.7 1.4 2.5.2 2.5-1 1.9-.1.2v.3l.1 5.2v.2l.1.2 1.5 3.4.1 1.7v.4l.3.3 1.6 1.4-.1.6-.7.4-.6.3.1.7.3 1.8-4.4 7.6-2.7 4.9-.1.2v.2l-.8 7.3v.2l.1.2.7 1.9.2.7h.7l21.3-.3 6.9-.8 1-.1-.9 4.3-.1.5.4.4 2.8 2.6.9 3.1v.2l1 2.2.5 1.1 1-.7 1-.7.2-.1.1-.2 1.8-2.9.7.3.3.2.4-.1 5.7-1.6 1.4.2 1.1.6.2.1h5.6l.2-.8.2-1.1v-.4l-1.3-11.6-2.4-16.3.1-12.1.7-27-.1-14.5-.2-5.5.4-.9z"/></g><g><path fill="#EDEBDF" d="M503.9 224.9l-1-2-56.8 2.2-1.1.2-2-4.4-.2-5.7-1.3-3.6-.6-4.5-2-3.2-.8-4.2-2.4-6.5-1-4.7-1.1-1.8-1.5-2.6 1.7-4.4 1.1-4.6-2.2-1.7-.5-2.7 1-2.7h1.8l72.2-1.1.8 3.9 2 1.3.3 1.7-1.8 2.9.1 2.5 2.1 3.1 2 1 2.8.5.7 1 .3 2.2 1.7.5 1 1.2.4 1.6 3.3 2.9.7 2.3-.6 3.2-1.4 2.9-.7 2.4-2.1 1.6-6.2 2-1.1 2.9.5 1 1.7 1.5-.2 4-1.7 1.4-.5 1.2.1 2.7-2 .5-1.1.8-.2.9.3 2-2 1.4z"/><path fill="#fff" d="M506.8 167.4l.7 3.6 2 1.4.2 1.2-1.8 2.9.2 2.8 2.2 3.3 2.2 1.1 2.7.4.6.7.2 2.4 1.9.5.8 1.1.4 1.6 3.3 2.9.6 2.1-.6 3-1.4 2.8-.7 2.4-1.9 1.4-1.5.5-4.8 1.6-1.2 3.3.6 1.2 1.6 1.5-.2 3.5-1.5 1.3-.7 1.4.1 2.4-1.6.4-1.4 1-.2 1.2.2 1.8-1.3 1-2.1-2.7-1.1-2.1-57.1 2.2-.8.1-1.8-3.9-.2-5.8-1.4-3.6-.6-4.6-2-3.2-.8-4.2-2.4-6.6-1-4.7-1.2-1.9-1.4-2.4 1.7-4.2 1.2-5-2.4-1.8-.4-2.4.8-2.2h1.5l71.8-.7m.8-1h-.8l-71.8 1.1h-2.2l-.2.7-.8 2.2-.1.2v.3l.4 2.4.1.4.3.2 1.9 1.4-1 4.3-1.7 4.1-.2.5.2.4 1.4 2.4 1.1 1.8 1 4.5v.2l2.4 6.5.8 4.1v.2l.1.2 1.9 3 .6 4.4v.2l1.3 3.4.2 5.6v.2l.1.2 1.8 3.9.3.7.8-.1.7-.1 56.4-2.2.8 1.6v.1l.1.1 2.1 2.7.6.8.8-.6 1.3-1 .5-.3-.1-.6-.2-1.7.1-.6.9-.6 1.5-.4.8-.2v-.8l-.1-2.2.5-1 1.4-1.2.3-.3v-.4l.2-3.5v-.5l-.4-.3-1.5-1.3-.3-.6.9-2.5 4.4-1.5 1.5-.5h.1l.1-.1 1.9-1.4.3-.2.1-.3.7-2.3 1.3-2.7.1-.1v-.1l.6-3v-.2l-.1-.2-.6-2.1-.1-.3-.2-.2-3.1-2.7-.4-1.3-.1-.2-.1-.2-.8-1.1-.2-.3-.3-.1-1.3-.3-.2-1.7v-.3l-.2-.2-.6-.7-.2-.3-.4-.1-2.5-.4-1.8-.9-1.9-2.9-.1-2.2 1.6-2.7.2-.3-.1-.4-.2-1.2-.1-.4-.3-.2-1.6-1.1-.6-3.2v-1.4z"/></g><g><path fill="#EDEBDF" d="M435.4 137.4l-.4-2.3-3.4-2.9-1.2-1.8v-1.8l2-1.5 1-1.1.2-2.5-.4-7.3-1.6-6.3-1.6-11.8-.3-8.4-1.6-2.9-1.4-4.6v-9l.5-3.3-1.7-5.3h26.4l.3-7 1-.3 2.1.5 2 .8.8 5.1 1.2 5.1 1.1 1.2h4.4l.3 1.3 5.6.2v1.9h3.3l.2-.9 1.2-1.2 2.3-.7 1.2.9h2.5l3.5 2.4 4.6 2 1.6.3.4-.7 2-.6.5 2.8 1.7.9.3-.4 1.8.3v1.9l1.9.7h2.4l1.2-.6 2.9-2.9 2.8-.5.8 1.9.4.8h.3l.8-.7 8.2-.3 1.6 2.7.6-.9 4.8-.4-.8 2.9-3.6 1.7-8.1 3.5-4.1 1.7-2.5 2.2-2.1 3-2 3.5-1.6.7-4 4.4-1.2.2-3.6 2.3-2 2.6-.2 2.6.1 7.1-1.3 1.7-4.4 3.2-1.7 4.7 2.3 1.8.7 3.2-1.7 2.8.2 3.2.3 5.6 2.3 2.3h3l1.7 2.8 2.9.4 3.4 5.1 6.2 3.5 2 2.7.6 6.3-71.6 1z"/><path fill="#fff" d="M453.2 57.8l2 .4 1.7.7.7 4.8 1.3 5.3 1.4 1.4h4.2l.3 1.3 5.5.3v1.8h4.2l.3-1.1 1-1 2-.6 1.1.8h2.5l3.4 2.2 4.6 2.1 2.1.4.4-.8 1.3-.4.4 2.5 2.2 1.1.4-.4 1.1.1v1.8l2.2.8h2.7l1.4-.7 2.8-2.8 2.2-.4.7 1.5.4 1.1h.8l.8-.7 7.7-.3 1.5 2.7h.6l.6-.9 3.9-.3-.5 2-3.4 1.6-8 3.5-4.1 1.7-2.7 2.2-2.1 3.1-2 3.4-1.5.7-3.9 4.4-1.1.1-3.8 2.4-2.1 2.8-.2 2.8.1 7-1.2 1.5-4.4 3.3-1.9 5.2 2.5 1.9.6 2.8-1.6 2.8.1 3.3.3 5.8 2.6 2.6h2.9l1.6 2.7 2.9.4 3.4 4.9 6.2 3.6 1.9 2.5.6 5.6-70.6 1-.3-31-.4-2.6-3.6-3-1-1.6v-1.4l1.8-1.4 1.2-1.2.2-2.8-.4-7.4-1.6-6.4-1.6-11.7-.4-8.5-1.6-3-1.4-4.4v-8.9l.6-3.4-1.6-4.7h26.2l.3-7.2.6.3m0-1l-.2.1-.6.1-.7.2v.7l-.2 6.2H424.9l.4 1.3 1.5 4.5-.6 3.1V82.4l1.4 4.4v.2l1.5 2.8.4 8.3 1.6 11.7v.2l1.6 6.3.4 7.2-.2 2.3-.9.9-1.7 1.4-.4.3V130.6l.2.2 1 1.6.1.1.1.1 3.3 2.7.3 2.1.3 30.9v1h1l70.6-1h1.1l-.1-1.1-.6-5.6v-.3l-.2-.2-1.9-2.5-.1-.2-.2-.1-6-3.5-3.2-4.7-.2-.4-.4-.1-2.5-.4-1.4-2.3-.3-.5h-3.1l-2.1-2-.3-5.5-.1-3 1.5-2.6.2-.3-.1-.4-.6-2.8-.1-.4-.3-.2-1.8-1.2 1.6-4.2 4.2-3.1.1-.1.1-.1 1.2-1.5.2-.3v-.4l-.1-6.9.2-2.4 1.8-2.4 3.4-2.2.9-.1h.4l.2-.3 3.8-4.2 1.4-.6.3-.1.2-.3 1.9-3.3 2-2.9 2.4-2.1 4-1.7 8-3.5 3.4-1.6.4-.2.1-.4.5-2 .4-1.4-1.4.1-3.9.3h-.5l-.3.4-1-1.7-.3-.5h-.6l-7.7.3h-.3l-.3.2-.4.3-.1-.3-.7-1.5-.3-.7-.8.1-2.2.4-.3.1-.2.2-2.7 2.7-1 .5h-2.3l-1.4-.5V78l-.9-.1-1.1-.1-.5-.1-.3.3-1.1-.6-.3-2-.2-1.2-1.1.4-1.3.4-.4.1-.2.4-.1.2-1.2-.2-4.5-2-3.3-2.2-.3-.2H479l-.9-.6-.4-.3-.5.1-2 .6-.2.1-1 1-.2.2-.1.3-.1.4h-2.4V71h-.9l-4.7-.2-.1-.5-.2-.8h-4.6l-.9-.9-1.2-5-.7-4.7-.1-.6-.5-.2-1.7-.7h-.2l-2-.4-.2-.2z"/></g><g><path fill="#EDEBDF" d="M464.6 357.7l-2.8-.8-2.9-1.6-1.8-2.2-1.1-.2-1.3 1.7h-4.2l-.6-1.4h-.5l-2.5 1.9-1.9-.9h-3.3l-.6 2-1.9 1-2.8-.8-3.2-1.2-3.7-.7-1-1.7h-.4l-1.5 3.4-1.5.8-5.9-1.9-.8-2.1h-1.9l-1.4-.5-2 1.9-2.6-.8v-1.8h-.6l-2.2-3-2.5-.5-2.1 1.8-2.4-1.7-3.6-.6-2.1-1-4-.2.4-3.6-1.4-.6v.8h-2.5l-.8-1-.3 1.1-1.1.4-2-1.1-4-3.4-.2-1.5.4-15.6 2-20.8-27.3-1.1-18.3-1 .8-10.5 15 1.1 21.1 1.2 39.1 1.8 40.3.4 11.1-.3v3.8l.7 6.2 1.3 5.6.1 7.9 1.2 9.4.3 33.3z"/><path fill="#fff" d="M337.2 289.2l14.5 1.1 21.1 1.2 39.1 1.8 40.3.4 10.5-.3.1 3.3.7 6.2 1.3 5.7.1 7.7 1.2 9.5.3 32.3-1.7-1-2.8-.8-2.8-1.6-1.8-2.2-1.6-.4-1.4 1.8h-3.6l-.6-1.4h-1l-2.4 1.8-1.8-.8h-3.8l-.6 2.2-1.6.8-2.6-.8-3.2-1.2-3.6-.6-1-1.8h-1l-1.6 3.6-1.2.6-5.5-1.8-.8-2.2h-2.2l-1.6-.6-2 2-2-.6v-2h-.8l-2.2-3-3-.6-2 1.8-2.2-1.6-3.6-.6-2.2-1-3.6-.2.4-3.4-2.4-1.2v1.2h-1.8l-1.2-1.6-.6 1.8-.6.2-1.8-1-3.8-3.2-.2-1.4.4-15.5 2-21.2-27.9-1.1-17.8-1 1.5-9.3m-1-1.1l-.1 1-.8 9.5-.1 1 1 .1 17.8 1 26.8 1.1L379 322l-.4 15.5v.2l.2 1.4.1.4.3.2 3.8 3.2.1.1h.1l1.8 1 .4.2.4-.1.6-.2.5-.2.2-.5v.1l.3.4h3.3v-.6l.3.2-.3 2.7-.1 1.1 1.1.1 3.4.2 2 .9.1.1h.1l3.3.6 2 1.5.7.5.6-.5 1.6-1.5 2.1.4 2 2.7.3.4h.3v1.7l.7.2 2 .6.6.2.4-.4 1.5-1.5 1 .4.2.1h1.7l.6 1.5.2.5.5.2 5.5 1.8.4.1.4-.2 1.2-.6.3-.2.1-.3 1.2-2.7.6 1 .2.4.5.1 3.5.6 3.1 1.2 2.6.8.4.1.4-.2 1.6-.8.4-.2.1-.4.4-1.4h2.8l1.6.7.5.2.5-.4 2.1-1.6.3.8.3.6h4.8l.3-.4 1-1.3.6.2 1.6 1.9.1.1.2.1 2.8 1.6.1.1h.1l2.7.8 1.6.9 1.5.9v-1.8l-.3-32.3v-.2l-1.2-9.5-.1-7.7v-.2l-1.2-5.6-.7-6.1-.1-3.3v-1h-1l-10.5.3-40.3-.4-39.1-1.8-21.1-1.2-14.5-1.1-1.7-.3z"/></g><path fill="#EDEBDF" stroke="#fff" stroke-miterlimit="10" d="M335.3 298.8l19.7.9 27 1-2 20.4-.3 15.8.1 1.8 3.8 3.3 1.7 1.3 1-.5.3-1.6 1 1.6h1.8v-1.3l1.5.8 1 .4-.3 3.4 3.6.1 2.5 1 3.4.5 2.1 1.8 1.8-1.8 3.2.5 1.9 2.8.9.3-.1 1.7 1.9.7 2-1.8 1.9.5h1.9l.8 2.1 5.5 1.8 1.4-.7 1.3-3.6h.3l.8.1 1.1 1.8 3.4.6 2.9 1 3 1 1.6-.8.6-2.2h3.9l1.6.8 2.4-1.8h1l.7 1.4h3.5l1.3-1.8 1.6.4 1.7 2.1 3.1 1.8 2.5.7 1.3.7 2.1 1.7 2.6-1.2 2.3 1 .5 5.3v8.4l.6 8.3.6 3.1 2.3 3.8.8 4.3 3.7 4.8.2 2.7.6.7-.6 7.3-2.5 4.4 1.3 1.9-.5 2-.6 6.4-1.3 2.9.3 3-4.9 1.4-8.6 3.9-.8 2.1-2.2 1.7-1.8 1.3-1.1.7-4.9 4.6-2.4 1.8-4.6 2.8-4.9 2.1-5.5 2.9-1.5 1.3-5.1 3.1-2.9.6-3.4 4.8-3.5.3-.8 1.7 2 1.7-1.3 4.8-1.1 3.9-1 3.4-.7 3.9.7 2.1 1.5 6 .8 5.3 1.5 2.4-.8 1.3-2.7 1.7-4.9-3.4-4.8-1-1.1.4-2.8-.6-3.7-2.7-4.5-1-6.6-2.9-1.8-3.4-1.1-5.6-2.8-1.7-.6-2 .6-.6.3-2.9-1.1-.6-.6-.8 1.1-3.8-1.4-2-2.8-1.1-2.9-3.8-3.1-5.8-3.7-2.2.1-1.7-4.6-10.7-.7-3.7-1.5-1.7-.1-1.3-5.2-4.6-2.2-2.7v-1l-2.2-1.8-5.9-1-6.5-.6-2.7-2-3.9 1.5-3.1 1.3-2 2.8-.8 3.2-3.8 5.3-2.1 2.1-2.2-.8-1.5-1-1.7-.6-3.4-2v-.6l-1.5-1.7-4.5-1.8-6.5-6.7-2-4.1v-7l-2.8-5.6-.4-2.4-1.4-.8-1-1.8-4.4-1.8-1.1-1.4-6.2-6.9-1.1-2.8-4.1-2-1.3-3.8-2.2-2.5-1.7-.4-.6-4.1 7 .6 25.2 2.4 25.2 1.4 1.9-16.9 3.4-48.3 1.4-16.3h1.2m85.8 199.9l-.5-6.2-2.4-6.3-.5-6.1 1.3-7.2 2.9-6 3-4.7 2.7-3.1.6.2-4.1 5.8-3.8 5.7-1.8 5.8-.3 4.5.8 5.3 2.2 6.3.4 4.5.1 1.3-.6.2z"/><g><path fill="#EDEBDF" d="M231 384.9l15.4-105.6 91.3 9.4-.8 10.6-1.4-.1-1.4 16.4-3.4 48.5-2 16.8-24.1-1.5-26.3-2.6-6.8-.4.6 4.1-25.5-2.4-1.1 8.7z"/><path fill="#fff" d="M246.8 279.9l90.4 9.2-.7 9.7-1.4-.1-1.5 16.8-3.4 48.6-1.9 16.3-23.7-1.5-26.2-2.6-7.5-.5.7 4.1-25.4-2.5-1.1 8.7-13.4-1.7 15.1-104.5m-.9-1.1l-.1.9-15.2 104.7-.1 1 1 .1 13.4 1.7 1 .1.1-1 1-7.7 24.4 2.4 1.3.1-.2-1.3-.5-2.9 6.3.4 26.2 2.6 23.7 1.5.9.1.1-.9 1.9-16.3 3.4-48.6 1.4-15.8h.4l1 .1.1-1 .7-9.7.1-1-1-.1-90.4-9.2-.9-.2z"/></g><g><path fill="#EDEBDF" d="M411.5 293.7l-38.8-1.8-21.9-1.1 3.5-57.1 19.6.6 35 .7 38.5.9h4.7l1.9 1.8h1.6l1.8 1.1v3.1l-1.6 1.6-.3 1.6 1.5 2.7 2.5 2.7 2.2 1.5 1.1 10 .2 31.9-11.5.2z"/><path fill="#fff" d="M354.7 234.2l19.2.6 35 .7 38.5.9h4.4l1.9 1.9h1.8l1.4.9-.1 2.6-1.6 1.5-.3 1.9 1.6 3 2.6 2.8 2 1.4 1.1 9.8.2 31.4-11 .2-40-.4-38.7-1.8-21.4-1.1 3.4-56.3m-.9-1l-.1 1-3.4 56.1-.1 1 1 .1 21.4 1.1 38.7 1.8 40.1.4 11-.2h1v-1l-.2-31.4v-.2l-1.1-9.8-.1-.4-.4-.3-1.9-1.3-2.4-2.6-1.3-2.5.2-1.3 1.3-1.3.3-.3v-.4l.1-2.6v-.6l-.5-.3-1.4-.9-.2-.2h-1.6l-1.6-1.6-.3-.3H447.5l-38.5-.9-35-.7-19.2-.6-1 .2z"/></g><g><path fill="#EDEBDF" d="M447.2 236.8l-37.8-.8-35.4-.8-19.9-.7 1-18.5-28.1-2.6 3.8-39.2 14 .9 17.5 1 15.5 1 20.7 1 9.5-.4 1.9 2.1 4.1 2.6.8.6 3.6-1.1 3.4-.4 2.6-.2 1.7 1.2 3.5 1.4 2.8 1.5.4 1.6.7 1.4h1.2l1.2.1.8 4.5 2.5 7.2.5 3.3 2.2 3.3.5 4.5 1.4 3.7.3 5.6 2.8 6.1-.1 2 2.9 4.6 3 3.5z"/><path fill="#fff" d="M331.3 174.7l13.5.9 17.5 1 15.5 1 20.7 1 9.3-.4 1.8 2 4.2 2.6 1 .8 3.8-1.2 3.4-.4 2.4-.2 1.6 1.2 3.5 1.4 2.6 1.4.4 1.4.8 1.8h2.3l.8 4.1 2.5 7.4.5 3.3 2.2 3.3.5 4.4 1.4 3.7.2 5.6 2.8 6.1-.1 2 3 4.8 2.4 2.7h-4.4l-37.8-.8-35.4-.8-19.3-.7.9-18.5-28.1-2.5 3.6-38.4m-.9-1l-.1 1-3.8 38.2-.1 1 1 .1 27.1 2.5-.9 17.6-.1 1h1l19.3.7 35.5.8 37.8.8H453.7l-1.4-1.7-2.3-2.7-2.8-4.4.1-1.7v-.2l-.1-.2-2.7-5.9-.2-5.4v-.2l-.1-.2-1.4-3.6-.5-4.3v-.2l-.1-.2-2.1-3.1-.5-3v-.2l-2.5-7.3-.8-4-.1-.8h-2.4l-.5-1.1-.4-1.3-.1-.4-.4-.2-2.6-1.4h-.2l-3.4-1.3-1.5-1.1-.3-.2h-.4l-2.4.2-3.4.4h-.2l-3.3 1-.6-.5h-.1l-4.1-2.5-1.7-1.9-.3-.4h-.5l-9.3.4-20.6-1-15.5-1-17.5-1-13.5-.9-.6-.2z"/></g><g><path fill="#EDEBDF" d="M431.9 187.3l-.4-1.2-2.3-1.3-3.7-1.4-1.3-1.1-5.5.5-4.2 1.4-.8-.9-4.5-2.8-1.6-1.8-10.2.4-20.7-1.2-15.4-.8-17.4-1-13.2-.8 4.8-56.4 48.1 3 51.1 1.4-.3 3.1-1.4 1.5-1.6 1.3v1l.7 1.2 3.7 3 .5 3.5.3 26.3.1 4.8h-2.9l-.5 1.8.3 2 2.5 1.9-1.4 5.4-1.5 4 2.4 4.1.1 1.1-2.8.2z"/><path fill="#fff" d="M335.9 119.4l47.6 3 50.6 1.4-.2 2.3-1.3 1.4-1.8 1.3.1 1.4.9 1.5 3.5 2.9.5 3.3.3 26.2.1 4.4h-2.8l-.7 2.2.3 2.4 2.4 1.8-1.3 5.1-1.6 4.1 2.5 4.2v.5l-1.9.2-.9-1.9-.3-1.3-2.6-1.4-3.7-1.4-1.5-1.2-5.7.5-3.9 1.3-.5-.6-4.5-2.8-1.7-2-10.4.4-20.7-1.1-15.4-.8-17.3-1-12.7-.8 4.6-55.5m-.9-1l-.1 1-4.6 55.3-.1 1 1 .1 12.7.8 17.3 1 15.4.8 20.7 1.1 9.9-.4 1.4 1.6.1.1.1.1 4.4 2.8.6.6.4.4.6-.2 3.8-1.2 5.2-.5 1.1.9.1.1.1.1 3.6 1.4 2.1 1.2.2.9v.2l.9 1.9.3.6.7-.1 1.9-.2 1-.1-.1-1v-.7l-.1-.2-2.3-3.8 1.4-3.6v-.2l1.3-5.1.2-.6-.5-.4-2.1-1.6-.2-1.7.4-1.3h3v-1l-.1-4.4-.3-26.2v-.2l-.5-3.3-.1-.4-.3-.2-3.4-2.8-.6-1.1v-.6l1.3-1 .1-.1.1-.1 1.3-1.4.2-.2v-.3l.2-2.3.1-1.1h-1.1l-50.6-1.4-47.6-3h-.5z"/></g><g><path fill="#EDEBDF" d="M383.7 122.9l-48.3-3 6.2-59.4 20.4 1.9 23.1 1.2 16.1.5 25.2.5 1.8 5.2-.6 3.5v8.9l1.5 4.4 1.5 2.7.4 9.7 1.7 11.2 1.4 5.9.6 8z"/><path fill="#fff" d="M342.1 61.1L362 63l23 1.1 16.2.6 24.9.5 1.6 4.8-.5 3.3v9.1l1.5 4.5 1.5 2.7.4 9.5 1.6 11.3 1.5 5.9.5 7.3-50.5-1.2-47.7-2.9 6.1-58.4m-.9-1.1l-.1 1-6.1 58.4-.1 1 1 .1 47.7 2.9 50.5 1.2h1.1l-.1-1.1-.5-7.3v-.2l-1.4-5.9-1.6-11.2-.4-9.5v-.2l-.2-.2-1.5-2.6-1.4-4.3v-8.8l.5-3.2v-.2l-.1-.2-1.6-4.8-.2-.7h-.7l-24.9-.5-16.1-.6-23-1.1-19.9-1.9-.9-.1z"/></g><g><path fill="#EDEBDF" d="M228.7 201.6l12.4-77.8 93.7 11.8-6.6 78z"/><path fill="#fff" d="M241.6 124.4l92.8 11.7-6.6 77-98.4-11.8 12.2-76.9m-.9-1.2l-.2 1-12.2 76.9-.2 1 1 .1 98.4 11.8 1 .1.1-1 6.6-77 .1-1-1-.1-92.8-11.7-.8-.1z"/></g><g><path fill="#EDEBDF" d="M242 124.9l-1.7 9.9-2.1-1.3-.4-2.8-.8-.9-2 .5-.4 2.6-2.9.5-3.2-1.5h-3.4l-2.3.9-2.9-1.5h-2l-2.2 2.2-1.5-1.2-.6-3.2.3-2.9-1.4-1.7-.7-.6-2.8-2.3-2.4-11.2.2-4.3-.7-.2-.4.7-4.4 2.7h-1.2l-2.4-3.1v-2.5l6.1-15.2-.3-1.4-2.9-.9-.5-1.2-2.3-2.7-4-9.3-2.8-1.2-1.7-4.3 1.2-4-3-6.5 4-19.2 29 6.1 16 3 28.1 4.6L290 55l25.4 3.1 27.1 2.5-7.7 76z"/><path fill="#fff" d="M191.9 38.4l28.4 6 16 2.9 28.1 4.6 25.4 3.5 25.4 3.1L342 61l-7.6 75-92.8-11.7-1.6 9.6-1.2-.7-.4-2.8-1.2-1.2-2.6.6-.4 2.6-2.4.4-3.2-1.4H225l-2.2.8-2.8-1.4h-2.4l-2 2-1-.8-.6-3 .4-3-1.6-2-.8-.6-2.6-2.2-2.4-10.9.2-4.6-1.4-.6-.6 1-4.2 2.6h-.8l-2.2-2.8v-2.2l6.2-15.3-.4-1.8-3-1-.4-1-2.3-2.8-4-9.4-2.8-1.2-1.6-4 1.2-4-3-6.6 4-18.2m-.7-1.2l-.2 1-3.9 18.5-.1.3.1.3 2.8 6.2-1.1 3.6-.1.3.1.3 1.6 4 .2.4.4.2 2.4 1 3.9 9 .1.1.1.1 2.2 2.6.3.8.2.4.4.1 2.4.8.2.9-6 15-.1.2v2.7l.2.3 2.2 2.8.3.4h1.6l.2-.1 4.2-2.6.2-.1.1-.2.1-.2-.2 3.8v.2l2.4 10.9.1.3.3.2 2.6 2.2.7.5 1.2 1.6-.3 2.6v.4l.6 3 .1.4.3.2 1 .8.7.6.6-.6 1.7-1.7h1.7l2.6 1.3.4.2.4-.1 2-.7h3.2l3 1.3.3.1h.3l2.4-.4.7-.1.1-.7.3-1.9 1.4-.3.6.6.4 2.5.1.5.4.2 1.2.7 1.2.7.2-1.4 1.5-8.6 91.8 11.5 1 .1.1-1 7.6-75 .1-1-1-.1-26.7-2.4-25.3-3.2-25.4-3.5-28.1-4.6-16-2.9-28.4-6-.9-.3z"/></g><g><path fill="#EDEBDF" d="M245.9 281.3l10.8-77.4 99.5 11.1-4.3 76z"/><path fill="#fff" d="M257.1 204.4l98.5 11-4.3 75-104.9-9.6 10.7-76.4m-.8-1.1l-.1 1-10.6 76.4-.1 1 1 .1 104.9 9.6 1 .1.1-1 4.3-75 .1-.9-.9-.1-98.5-11-1.2-.2z"/></g><g><path fill="#EDEBDF" d="M232.6 181.2c-.8-.1-76.5-14.5-82.5-15.8l-.5-.1 7.7-31.1 1.2-3.7 2.1-5-.8-1.5-2.1.1-1-1.3.5-1.2.3-2.8 4.1-5 1.6-.4.8-.8.5-2.8.9-.7 3.3-5 3.3-3.7.2-2.8-2.9-2.2-1.4-4.1 12-55.7 12.7 2.4-3.9 18.9 3.1 6.5-1.4 4.1 1.6 3.7 2.7 1.1 3.4 8.4 3 3.8.4.9 3 1 .4 2.3-6.1 15.2-.1 2 2 2.5h.4l4.1-2.5.8-1.2 2.1.9-.3 4.9 2.3 10.7 3.3 2.7 1.6 2.1-.6 3.6.8 2.2.5.5 1.9-1.8h2.8l2.5 1.1 2.2-.6 3.5-.2 3.4 1.4 1.9-.2.4-2.6 3.2-.8 1.4 1.7.4 2.5 1.3 1.1-7.4 47.4-.6-.1z"/><path fill="#fff" d="M180.1 36.2l11.7 2.2L188 57l3.1 6.5-1.4 4 1.7 4 2.7 1.1 3.3 8.3 3.1 3.9.4 1 2.9 1 .3 1.8-6.1 15.1-.1 2.2 2.3 2.9h.8l4.3-2.6.6-1 1.4.6-.2 4.7 2.4 10.9 3.4 2.8 1.5 1.9-.6 3.5.9 2.4.9.9 2.2-2h2.5l2.5 1.2 2.4-.6 3.3-.1 3.5 1.4 2.4-.3.4-2.6 2.5-.7 1.1 1.3.4 2.6 1.2 1.1-7.3 46.6s-76.4-14.5-82.5-15.8l7.6-30.6 1.2-3.7 2.2-5.2-1.1-2-2.2.1-.7-.9.4-1 .3-2.7 3.9-4.8 1.6-.4 1-1 .5-2.8.8-.6 3.4-5.1 3.4-3.8.2-3.3-3-2.3-1.3-3.8 11.7-54.9m-.7-1.2l-.2 1-11.8 55-.1.3.1.3 1.3 3.8.1.3.2.2 2.6 2-.1 2.4-3.1 3.5v.2l-3.3 4.9-.7.5-.3.2-.1.4-.4 2.5-.6.6-1.3.3-.3.1-.2.3-3.9 4.8-.2.2v.3l-.3 2.5-.3.9-.2.5.4.5.7.9.3.4h.5l1.6-.1.6 1-2 4.7-1.2 3.7-7.6 30.6-.2 1 1 .2c6 1.3 81.8 15.7 82.5 15.8l1 .2.2-1 7.3-46.6.1-.6-.4-.4-1-.8-.3-2.2v-.3l-.2-.2-1.1-1.3-.4-.5-.6.2-2.5.7-.6.2-.1.6-.3 1.9-1.4.1-3.2-1.3-.2-.1h-.2l-3.3.1h-.2l-2.1.5-2.2-1-.2-.1h-3.1l-.3.3-1.4 1.4-.1-.1-.8-2 .6-3.3.1-.4-.3-.3-1.5-1.9-.1-.1-.1-.1-3.1-2.5-2.3-10.5.2-4.5v-.7l-.6-.3-1.4-.6-.8-.3-.5.7-.5.8-3.8 2.4-1.7-2.2.1-1.7 6-15 .1-.3v-.3l-.3-1.8-.1-.6-.6-.2-2.5-.9-.3-.6-.1-.1-.1-.1-3-3.7-3.3-8.2-.2-.4-.4-.2-2.3-.9-1.4-3.3 1.3-3.7.1-.4-.5-.2-2.9-6.2 3.8-18.3.2-1-1-.2-11.7-2.2-1-.1z"/></g><g><path fill="#EDEBDF" d="M173.3 271.1l18.1-98.8 41.6 7.8-1.4 9.7-1.9 10.9 6.3.8 14.2 1.6 7.7.8-10.8 77.7z"/><path fill="#fff" d="M191.8 172.9l40.6 7.6-1.3 9.2-2 11.4 6.8.8 14.3 1.6 7.1.7-10.6 76.8-72.8-10.3 17.9-97.8m-.8-1.2l-.2 1-17.9 97.8-.2 1 1 .1 72.8 10.3 1 .1.1-1 10.6-76.7.1-1-1-.1-7.1-.7L236 201l-5.7-.7 1.8-10.4 1.3-9.3.1-.9-.9-.2-40.6-7.6-1-.2z"/></g><g><path fill="#EDEBDF" d="M209.9 382.6l-10.8-2.1-14.7-8.7-12.7-7.5-10.6-6.6-16.5-9.3-.6-1.2.3-1.6 2.6-2 3.2-.8 1.1-1.7.4-1.7-2.9-.5-.7-1.1.5-1.5-.2-1.1 2.1-.7 2.2-2.2.5-4.1 1.4-3.4 1.8-1.8 3-1.5 1.2-1 .1-1.4-.8-.4-.8-1.1-1.1-5.1-2.4-4.4.5-3.1 1.3-1.9.5-10.8.2-1.5.1-6.3 1.9-1 .9-.6h1.2l.8 1 2.5.3 1.1 2.4 1.6.1 1.4-2.3h1.3l2.7-14.3 73.7 10.5L232.1 385z"/><path fill="#fff" d="M173.9 270.6l72.8 10.4-15 103.5-21.7-2.4-10.7-2.1-14.6-8.7-12.8-7.4-10.5-6.6L145 348l-.4-.8.3-1.3 2.3-1.9 3.3-.8 1.3-1.9.5-2.4-3.2-.5-.4-.7.4-1.5-.1-.7 1.8-.6 2.5-2.4.5-4.3 1.3-3.2 1.7-1.7 3-1.5 1.4-1.2.1-2-.9-.5-.7-.9-1.1-5.1-2.6-4.1.5-2.9 1.3-1.9.5-10.9.2-1.5.1-6.1 1.7-.9.8-.5h.8l.8 1 2.4.3 1.1 2.4 2.2.1 1.5-2.3h1.4l2.6-14.2m-.8-1.1l-.2.9-2.5 13.5h-1.1l-.3.4-1.2 1.8h-1l-.8-1.8-.2-.5-.6-.1-2-.2-.5-.7-.3-.4h-1.6l-.2.2-.8.5-1.7.9-.5.3v.6l-.1 6-.2 1.4-.5 10.6-1.1 1.7-.1.2v.2l-.5 2.9-.1.3.2.3 2.3 4.1 1.1 4.9v.2l.1.2.7.9.1.2.2.1.3.2v.9l-1 .8-2.9 1.4-.1.1-.1.1-1.7 1.7-.1.1-.1.2-1.3 3.2-.1.1v.1l-.5 3.9-2.1 2-1.6.5-.8.3.1.8.1.5-.3 1.3-.1.4.2.4.4.7.2.4.5.1 2.1.3-.2 1.2-1 1.4-2.9.7-.2.1-.2.1-2.3 1.9-.3.2-.1.3-.3 1.3-.1.3.2.3.4.8.1.3.3.2 16.4 9.3 10.5 6.6 12.8 7.5 14.6 8.7.1.1h.2l10.7 2.1 21.7 2.4 1 .1.1-1 15-103.5.1-1-1-.1-72.4-10.3-.9-.1z"/></g><g><path fill="#EDEBDF" d="M154.1 304.5l-60.2-90.8 16.7-59.4 81.8 18.1-20.7 112.8-1.7.3-1.4 2.1H166l-1.3-2.4-2.3-.3-.6-.9-.5-.1-2.1 1.2-.3 5.7-.3 5-.3 7.6-1.6 2.3z"/><path fill="#fff" d="M110.9 154.8l80.9 18-20.5 111.9-1.6.3-1.4 2.1h-2.1l-1.3-2.4-2.3-.3-.7-1h-.9l-2.4 1.4-.3 5.9-.3 5-.3 7.5-1.3 1.8-2.1-.9-60-90.5 16.6-58.8m80.9 18-81.6-19.1l-.3.9-16.5 58.7-.1.4.3.4 60 90.5.2.2.3.1 2.1.9.8.3.5-.7 1.3-1.8.2-.2v-.3l.3-7.5.3-5 .2-5.4 1.7-1h.1l.4.6.2.4.4.1 1.8.3 1 1.9.3.5h3.2l.3-.5 1.1-1.7 1.2-.2.7-.1.1-.7L192.8 173l.2-.9-.9-.2-80.9-18-1-.2z"/></g><g><path fill="#EDEBDF" d="M52.1 141.6l-.4-10.9.7-7.6 1.8-2.6 7-11 5.6-11.7 4.3-12.2 2.9-5.7 2.8-8.6 2-5.9 5.4-1.9 2.5.5.6 2.2 3.5.4 2.2 3.8-.3 7-.3.4L97 81l5 .3 1.7-1.7 4 1.4.7-.1 4.8 1.9 1.4 1.1 3.8.2 1.2-.7 2.2 1.5 3.7.5 5.1-2 .4 1.4 13.2-.1 13.1 3.1 11.3 3.2 1.6 4.1 2.9 2.2-.2 3.5-3.2 3.5-3.5 4.8-1.3 3.1-1.1 1.1-1.6 1-3.7 4.6-.4 2.7-.3 1.1.8 1 2.2.1.8 1.4-2.1 5.1-.9 3.7-7.8 30.7z"/><path fill="#fff" d="M84.2 64l2 .4.6 2.2 3.6.5 2 3.4-.2 6.8-.6.7 5.2 3.6 5.4.3 1.7-1.6 3.8 1.3.7-.1 4.6 1.8 1.5 1.2 4.1.2 1.1-.6 2.1 1.4 3.9.5 4.8-1.8.4 1.2 13.4-.1 13.1 3.1 11 3.1 1.5 4 2.8 2.1-.2 3-3.1 3.4-3.5 4.9-1.3 3.1-1 1-1.6 1-3.9 4.8-.4 2.8-.4 1.3 1.1 1.5h2.2l.5 1-2 4.9-.9 3.7-7.7 30.2-97.8-22.9-.3-10.5.7-7.4 1.7-2.5 7-11L67.3 98l4.4-12.2 2.8-5.6 2.8-8.7 2-5.6 4.9-1.9m0-1l-.3.1-5 1.8-.5.1-.2.5-2 5.6-2.8 8.7-2.8 5.6v.2l-4.3 12.2-5.6 11.7-7 10.9-1.7 2.5-.1.2v.3l-.7 7.4v.2l.3 10.5v.8l.7.2 97.8 22.9 1 .2.2-1 7.7-30.2.9-3.6 2-4.8.2-.4-.2-.4-.5-1-.3-.5h-2.3l-.5-.7.2-.8v-.2l.4-2.6 3.6-4.4 1.4-.9.1-.1.1-.1 1-1 .1-.1.1-.2 1.2-3 3.4-4.8 3.1-3.3.2-.3v-.4l.2-3v-.5l-.4-.3-2.6-2-1.4-3.8-.2-.5-.5-.1-11-3.1-13.2-3.1h-.2l-12.7.1-.2-.5-.3-1-1 .4-4.5 1.7-3.4-.4-1.9-1.3-.5-.3-.5.3-.8.5-3.5-.2-1.2-1-.1-.1-.1-.1-4.6-1.8-.2-.1h-.3l-.5.1-3.5-1.2-.6-.2-.4.4-1.4 1.3-4.7-.3-4-2.8.1-.1v-.4l.2-6.8v-.3l.1-.3-2-3.4-.2-.4-.5-.1-2.9-.4-.4-1.5-.2-.6-.6-.1-2-.4-.3-.1z"/></g><g><path fill="#EDEBDF" d="M157.3 88.8l-13.4-3.1h-13.5l-.3-1-4.5 1.8-4.2-.7-1.7-1.3-1 .5-4.4-.1-1.5-1.2-4.4-1.8-.6.1-3.7-1.3-1.6 1.5-5.9-.2-5.7-4 .9-1.1.1-6.4-1.8-3-3.6-.5-.6-2.2-1.5-.3-3.4 1.2-2.3-3.3.3-3.1 2.5-.3 1.1-2.8-2.1-.9.2-4 3.2-.5-1.8-1.8-1.3-6.4.6-2.6v-6.7l-1.6-2.9 2.1-8.8 2.5.6 2.2 2.7 2.3 2.2 2.8 1.7 3.8 1.8 2.7.6 2.6 1.3 2.8.8 1.4-.3v-1.9l1.3-1.1 2.5-1.5.5 1.6.4 2.1-2.1.5-.2 1.2 1.4 1.2 1 2.2.5 1.4.5-.1.1-.5-.8-1.1-.5-3.1.7-1.5-.5-1.2V29l1.5-3-.9-2-2.2-4.4.4-1 1.3-.9 4 1.3 8.4 2.4 7.4 1.7 17.4 4.9 19.9 4.9 13.7 2.9L168.6 92l-11.3-3.2zm-52.2-59.7c-.2 0-.4 0-.5-.1-.5-.1-.6-.5-.6-.7 0-.1 0-.4 1-2l-.3-.1-.2.9-1.2 1-1.7-2.5-.5-2.8 2.7-.2.3.8.9-1h2.6l1 1.9-1.3 1.4.5.6-.8 2.3-1.4.4c-.3.1-.4.1-.5.1z"/><path fill="#fff" d="M109.9 18.2l3.8 1.3 8.4 2.4 7.4 1.7 17.4 4.9 19.9 4.9 13.2 2.8-11.8 55.3-10.8-3.1-13.4-3.2h-13.2l-.4-1.2-4.9 1.9-4-.6-1.9-1.4-1.1.6-4.1-.1-1.5-1.2-4.6-1.8-.6.1-3.8-1.3-1.6 1.6-5.4-.3-5.1-3.6.7-.8.1-6.7-2-3.3-3.6-.5-.6-2.2-2-.4-3.1 1.1-2-2.8.3-2.5 2.4-.3 1.4-3.5-2.2-1 .1-3.2 3.8-.6-2.4-2.4-1.3-6.2.6-2.5v-6.9l-1.5-2.8 2-8.1 1.8.4 2.1 2.5 2.4 2.2 2.8 1.7 3.9 1.8 2.7.6 2.5 1.3 2.9.8 2-.1v-2.1l1.1-1 1.8-1.1.3 1 .3 1.5-2 .4-.3 1.8 1.5 1.3 1 2.1.6 1.7 1.3-.1.1-1.1-.8-1.1-.4-2.8.7-1.5-.6-1.3v-2l1.5-3.1-1-2.2-2.1-4.2.3-.7 1-.8m-2.7 4.8l.7 1.3-1.3 1.5.6.7-.6 1.8-1.2.4h-.2c-.2 0-.6 0-.6-.2 0-.3 1.3-2.2 1.3-2.2l-1.5-.5-.3 1.3-.6.6-1.3-2-.4-2.2 1.8-.1.4 1.2 1.3-1.4h1.9m2.5-6.2l-.4.3-1 .7-.2.2-.1.3-.3.7-.2.4.2.4 2.1 4.2.8 1.8-1.3 2.6-.2-.9-1.1.7-.5.3v-.1l.6-1.8.2-.5-.3-.4.8-.8.5-.5-.3-.6-.7-1.3-.3-.5h-3l-.3.3-.2.2-.1-.4-.8.1-1.8.1-1.1.1.2 1.1.4 2.2v.2l.1.2 1.3 2 .6.9.4-.3c.1.4.4.9 1.5.9h.5l.8-.2-.3.2h-.1l-.1.1-1.1 1-.3.3v1.7l-.9.1-2.7-.8-2.4-1.2-.1-.1h-.1l-2.7-.9-3.8-1.8-2.7-1.6-2.2-2.1-2.1-2.5-.2-.3-.3-.1-1.8-.4-1-.2-.2 1-2 8.1-.1.4.2.3 1.4 2.6V40l-.5 2.4v.4l1.3 6.2.1.3.2.2 1 1-1.8.3-.8.1v.8l-.1 3.2v.7l.6.3 1.4.6-.8 2.1-1.8.2-.8.1-.1.8-.3 2.5v.4l.2.3 2 2.8.4.6.7-.2 2.8-1 1.1.2.4 1.6.2.6.6.1 3.1.5 1.6 2.7-.1 6-.5.5-.7.8.9.6 5.1 3.6.2.2h.3l5.4.3h.4l.3-.3 1.2-1.2 3.2 1.1.3.1.3-.1.3-.1 4.2 1.7 1.4 1.1.3.2h.3l4.1.1h.3l.2-.1.6-.3 1.4 1 .2.1h.2l4 .6h.3l.3-.1 3.9-1.5.1.2.2.7H144l13.4 3.1 10.8 3.1 1 .3.2-1 11.8-55.3.2-1-1-.2-13.2-2.8-19.9-4.9-17.4-4.9-7.4-1.7-8.4-2.4-3.7-1.3h-.7zm-1.8 16l1.3-.3h.2l-.3.8-.1.3v.3l.1.6-.2-.1-1.1-.9.1-.7z"/></g><g><path fill="#EDEBDF" d="M134.8 343l-17.2-2.4-9-1.3-.5-1.9v-8.2l-.3-2.6-2.2-3.6-.7-1.9-3-3.3-2.5 1.4-2.5-.1-3.2-.8-.5-1.5 1.3-.6-.5-2.3-1.1-1.6-4.1-.7-3.6-1.9-1.1-2.1-2.2-4.1-2.3-2.5h-2.4l-3.5-1.9-3.8-1.5-3.8-.4-2.4-2.7 2-8.1.7-1.7V283l-1.4-.8-.4-2.7-1.2-2.2-2.9-5-1.2-2.7-1.3-4.1-1.4-4.6-2.8-3.8-.5-2.7.8-3.9h1.2L57 249l.9-2.8-.7-2-2.3-.4-1.8-2.4-1.9-3.4-.1-7.4.6-1.8.6-1.9.4-1.8-4.9-5.4v-2.2l.3-.4.3-2.6-1.1-3.4-1.9-4.2L43 203l-1.6-3.6.6-3.4.6-5.1 1.5-2.7.3-5.4-1-3-1.4-3.6-2.5-3.8.8-3 1.3-3.9 1.5-.7.3-.9 2.7-2.3 4.4-10.1.1-6.4 1.5-4.6 59.2 13.9-16.5 59 59.8 90.2 2.3 1-.5 3.3 2.3 4.1 1 5 .7.8 1.1.6-.1 2.3-1.6 1.6-3 1.4-1.6 1.7-1.1 2.8-.5 4.5-2.9 2.7-1.3.4v.2l-.4 1.7.2.2 3.4.6-.6 3.2-1.5 2-3.7.5-12-1.2zm-46.3-8.7c-.3-.6-.7-1.5-.7-1.9V330l1.2-.2 1.7 3 1.4 2.3-2.2.4-1.4-1.2zm3.4-8.1l-.8-.9-1.7-2.2v-1.7l1.5-.2 2.6 1.9 1 1.8-.8 1.9-1.8-.6zm-18-17.4l-1.6-1.6-1-1.8 1.8-.9 3.3 2 3.4 1.4-1.7 1.2-4.2-.3zm-5.7-.3l-.6-1.3-.9-2 3.9-.1 1.4 1.7-.2 1.8-3.6-.1z"/><path fill="#fff" d="M52.5 141.2l58.3 13.6-16.4 58.7 60 90.5 2.1.9-.5 3 2.3 4.2 1 5.1.9.9.9.5-.1 1.8-1.4 1.4-3.1 1.4-1.7 1.9-1.2 3-.5 4.3-2.6 2.5-1.7.5.1.5-.4 1.8.4.6 3.1.5-.5 2.6-1.3 1.7-3.4.4-12-1.2-17.1-2.4-8.7-1.3-.4-1.5V329l-.3-2.8-2.2-3.7-.7-2-3.4-3.7-2.7 1.5-2.4-.1-2.8-.7-.3-.8 1.3-.6-.6-2.8-1.3-1.8-4.2-.7-3.4-1.8-1-2-2.2-4.2-2.5-2.7h-2.5l-3.4-1.8-3.9-1.5-3.7-.4-2.1-2.4.4-1.7 1.5-6.2.7-1.7v-2.1l-1.4-.8-.4-2.5-1.3-2.2-2.9-5.1-1.1-2.7-1.3-4.1-1.4-4.6-2.8-3.8-.4-2.5.7-3.4h1l1.8-1.4 1-3.1-.8-2.4-2.4-.4-1.7-2.2-1.8-3.2-.1-7.2.4-1.7.6-2 .4-2-4.9-5.5v-1.8l.3-.4.3-2.8-1.1-3.5-2-4.2-2.4-3.9-1.5-3.4.8-3.2.6-5.1 1.5-2.7.3-5.6-1-3.1-1.4-3.7-2.4-3.7.7-2.8 1.3-3.7 1.5-.7.3-1 2.7-2.2 4.5-10.3.1-6.5 1.3-4M73 305.1l3.1 1.8 2.7 1.1-.8.6-3.9-.2-1.4-1.4-.7-1.3 1-.6m-2.7.6l1.1 1.3-.1 1.1-2.8-.1-.5-1-.6-1.3h2.9m20.6 16l2.3 1.8.8 1.5-.5 1.3-1.3-.5-.7-.8-1.5-2v-1.1l.9-.2m-2.2 8.7l1.5 2.7 1.1 1.7-1.3.2-1.1-1.1s-.6-1.3-.6-1.6v-1.9h.4M51.8 140l-.3.9-1.3 4.1v.2l-.1 6.3-4.3 9.9-2.5 2.1-.2.2-.1.3-.2.5-1.1.5-.4.2-.1.4-1.3 3.7-.7 2.8-.1.4.2.4 2.3 3.6L43 180l.9 2.9-.3 5.2-1.4 2.5-.1.2v.2l-.6 5-.8 3.2-.1.3.1.3 1.5 3.4v.1l2.4 3.9 1.9 4.1 1 3.3-.2 2.4-.1.2-.2.3v2.5l.3.3 4.6 5.1-.3 1.6-.6 1.9-.5 1.6-.1.2v.2l.1 7.2v.3l.1.2 1.8 3.2v.2l1.7 2.2.2.3.4.1 1.8.3.5 1.5-.8 2.5-1.3 1h-1.4l-.2.8-.7 3.4v.4l.4 2.5v.2l.1.2 2.7 3.7 1.4 4.5 1.3 4.1 1.1 2.7v.2l2.9 5.1 1.2 2.1.4 2.4.1.5.4.2.9.6v1.3l-.6 1.5v.2l-1.5 6.2-.4 1.7-.1.5.3.4 2.1 2.4.3.3h.4l3.5.4 3.8 1.5 3.3 1.8.2.1h2.4l2.1 2.3 2.2 4.1 1 1.9.1.3.3.2 3.4 1.8.1.1h.2l3.8.6.9 1.3.4 1.8-.5.2-.8.4.3.9.3.8.2.5.5.1 2.8.7h.2l2.4.1h.3l.2-.1 2.1-1.1 2.7 2.9.6 1.8v.1l.1.1 2.1 3.5.3 2.5V337.9l.4 1.5.2.6.6.1 8.7 1.3 17.1 2.4 12.1 1.2h.2l3.4-.4.4-.1.3-.3 1.3-1.7.1-.2v-.2l.5-2.6.2-1-1-.2-2.6-.4.3-1.2v-.1l.9-.3.2-.1.2-.2 2.6-2.5.3-.3v-.4l.5-4.2 1.1-2.7 1.4-1.6 2.9-1.3.2-.1.1-.1 1.4-1.4.3-.3v-.4l.1-1.8v-.6l-.5-.3-.7-.4-.6-.6-.9-4.8v-.2l-.1-.1-2.2-3.9.4-2.7.1-.8-.7-.3-1.8-.8-59.6-89.9 16.3-58.3.3-1-1-.2-58.3-13.6-.8-.4zm21.3 164l-.5.3-1.1.6-.4.2-.3-.4h-.5l-2.9.1h-1.5l.6 1.4.6 1.3.5 1.1.3.6h.6l2.8.1h.9l.1-.9v-.3l1.1 1.1.3.3h.4l3.9.2h.4l.3-.2.8-.6 1.5-1.1-1.7-.7-2.6-1-3-1.8-.6-.3zm18.1 16.6l-.4.1-.9.1-.9.2v2.3l.2.3 1.5 2 .7.9.2.2.3.1 1.3.5.9.3.4-.9.5-1.3.2-.4-.2-.4-.8-1.5-.1-.2-.2-.1-2.3-1.8-.4-.4zm-2 8.7l-.7.1-.4.1-.8.1v2.7c0 .1 0 .6.7 2.1l.1.2.1.1 1.1 1.1.4.3.5-.1 1.3-.2 1.5-.2-.8-1.3-1.1-1.7-1.5-2.7-.4-.6z"/></g></svg>