<?xml version="1.0" encoding="utf-8"?>
<!-- Generator: Adobe Illustrator 18.1.1, SVG Export Plug-In . SVG Version: 6.00 Build 0)  -->
<svg version="1.1" id="Layer_1" xmlns="http://www.w3.org/2000/svg" xmlns:xlink="http://www.w3.org/1999/xlink" x="0px" y="0px"
	 viewBox="0 0 170 60" enable-background="new 0 0 170 60" xml:space="preserve">
<g>
	<g>
		<path fill="#6E7070" d="M39.4,46.5v-5.2h0.9v2.3h2.6v-2.3h0.9v5.2h-0.9v-2.1h-2.6v2.1H39.4z"/>
		<path fill="#6E7070" d="M47,45.3l-0.5,1.2h-0.9l2.3-5.2h0.9l2.3,5.2h-0.9l-0.5-1.2H47z M49.3,44.5l-0.9-2.2l-0.9,2.2H49.3z"/>
		<path fill="#6E7070" d="M54.3,45.1l1.2-3.8h0.8l1.2,3.8l1.3-3.8h0.9l-1.8,5.2H57L55.9,43h-0.1l-1.1,3.6h-0.9l-1.8-5.2H53
			L54.3,45.1z"/>
		<path fill="#6E7070" d="M62.1,45.3l-0.5,1.2h-0.9l2.3-5.2h0.9l2.3,5.2h-0.9l-0.5-1.2H62.1z M64.4,44.5l-0.9-2.2l-0.9,2.2H64.4z"/>
		<path fill="#6E7070" d="M68,41.3h0.9v5.2H68V41.3z"/>
		<path fill="#6E7070" d="M71.5,41.3h0.9v5.2h-0.9V41.3z"/>
		<path fill="#6E7070" d="M74.8,42.2c-0.1-0.1-0.2-0.2-0.2-0.4c0-0.2,0-0.3,0.1-0.4c0.1-0.1,0.2-0.1,0.3-0.1c0.1,0,0.2,0,0.3,0.1
			c0.1,0.1,0.1,0.2,0.1,0.3c0,0.1,0,0.3-0.1,0.4l-0.4,0.6h-0.5L74.8,42.2z"/>
		<path fill="#6E7070" d="M79.3,42c-0.3,0-0.5,0.1-0.6,0.2c-0.2,0.1-0.2,0.3-0.2,0.5c0,0.2,0.1,0.4,0.2,0.5c0.2,0.1,0.5,0.2,1,0.4
			c0.5,0.1,0.9,0.3,1.2,0.5c0.3,0.2,0.4,0.6,0.4,1s-0.2,0.8-0.5,1.1c-0.3,0.3-0.8,0.4-1.4,0.4c-0.8,0-1.5-0.3-2.2-0.8l0.6-0.7
			c0.5,0.5,1.1,0.7,1.6,0.7c0.3,0,0.5-0.1,0.7-0.2c0.2-0.1,0.3-0.3,0.3-0.5s-0.1-0.4-0.2-0.5c-0.2-0.1-0.4-0.2-0.8-0.3
			c-0.4-0.1-0.7-0.2-0.9-0.3c-0.2-0.1-0.4-0.2-0.5-0.3c-0.3-0.2-0.5-0.6-0.5-1.1c0-0.5,0.2-0.9,0.5-1.1c0.4-0.3,0.8-0.4,1.3-0.4
			c0.3,0,0.7,0.1,1,0.2c0.3,0.1,0.6,0.3,0.9,0.5l-0.5,0.7c-0.2-0.1-0.4-0.3-0.6-0.3C79.8,42,79.5,42,79.3,42z"/>
		<path fill="#6E7070" d="M87.6,42.1v1.4h2.3v0.8h-2.3v2.2h-0.9v-5.2h3.5l0,0.8H87.6z"/>
		<path fill="#6E7070" d="M92.3,41.3h0.9v5.2h-0.9V41.3z"/>
		<path fill="#6E7070" d="M99.9,43c0,0.9-0.4,1.4-1.1,1.6l1.4,1.9H99l-1.2-1.8h-1.2v1.8h-0.9v-5.2h1.9c0.8,0,1.4,0.1,1.7,0.4
			S99.9,42.4,99.9,43z M98.7,43.7c0.2-0.2,0.3-0.4,0.3-0.7s-0.1-0.6-0.3-0.7c-0.2-0.1-0.5-0.2-1-0.2h-1.1V44h1.1
			C98.2,44,98.6,43.9,98.7,43.7z"/>
		<path fill="#6E7070" d="M103.9,42c-0.3,0-0.5,0.1-0.6,0.2c-0.2,0.1-0.2,0.3-0.2,0.5c0,0.2,0.1,0.4,0.2,0.5c0.2,0.1,0.5,0.2,1,0.4
			c0.5,0.1,0.9,0.3,1.2,0.5c0.3,0.2,0.4,0.6,0.4,1s-0.2,0.8-0.5,1.1c-0.3,0.3-0.8,0.4-1.4,0.4c-0.8,0-1.5-0.3-2.2-0.8l0.6-0.7
			c0.5,0.5,1.1,0.7,1.6,0.7c0.3,0,0.5-0.1,0.7-0.2c0.2-0.1,0.3-0.3,0.3-0.5s-0.1-0.4-0.2-0.5c-0.2-0.1-0.4-0.2-0.8-0.3
			c-0.4-0.1-0.7-0.2-0.9-0.3c-0.2-0.1-0.4-0.2-0.5-0.3c-0.3-0.2-0.5-0.6-0.5-1.1c0-0.5,0.2-0.9,0.5-1.1c0.4-0.3,0.8-0.4,1.3-0.4
			c0.3,0,0.7,0.1,1,0.2c0.3,0.1,0.6,0.3,0.9,0.5l-0.5,0.7c-0.2-0.1-0.4-0.3-0.6-0.3C104.4,42,104.1,42,103.9,42z"/>
		<path fill="#6E7070" d="M110.1,42.1v4.4h-0.9v-4.4h-1.6v-0.8h4v0.8H110.1z"/>
		<path fill="#6E7070" d="M118.5,42c-0.3,0-0.5,0.1-0.6,0.2c-0.2,0.1-0.2,0.3-0.2,0.5c0,0.2,0.1,0.4,0.2,0.5c0.2,0.1,0.5,0.2,1,0.4
			c0.5,0.1,0.9,0.3,1.2,0.5c0.3,0.2,0.4,0.6,0.4,1s-0.2,0.8-0.5,1.1c-0.3,0.3-0.8,0.4-1.4,0.4c-0.8,0-1.5-0.3-2.2-0.8l0.6-0.7
			c0.5,0.5,1.1,0.7,1.6,0.7c0.3,0,0.5-0.1,0.7-0.2c0.2-0.1,0.3-0.3,0.3-0.5s-0.1-0.4-0.2-0.5c-0.2-0.1-0.4-0.2-0.8-0.3
			c-0.4-0.1-0.7-0.2-0.9-0.3c-0.2-0.1-0.4-0.2-0.5-0.3c-0.3-0.2-0.5-0.6-0.5-1.1c0-0.5,0.2-0.9,0.5-1.1c0.4-0.3,0.8-0.4,1.3-0.4
			c0.3,0,0.7,0.1,1,0.2c0.3,0.1,0.6,0.3,0.9,0.5l-0.5,0.7c-0.2-0.1-0.4-0.3-0.6-0.3C119,42,118.8,42,118.5,42z"/>
		<path fill="#6E7070" d="M127.1,45.8c-0.5,0.5-1.2,0.8-2,0.8s-1.4-0.3-2-0.8c-0.5-0.5-0.8-1.2-0.8-1.9c0-0.8,0.3-1.4,0.8-1.9
			c0.5-0.5,1.2-0.8,2-0.8s1.4,0.3,2,0.8c0.5,0.5,0.8,1.2,0.8,1.9C127.9,44.7,127.6,45.3,127.1,45.8z M126.5,42.5
			c-0.4-0.4-0.8-0.6-1.3-0.6s-1,0.2-1.3,0.6c-0.4,0.4-0.5,0.8-0.5,1.3s0.2,1,0.5,1.3c0.4,0.4,0.8,0.6,1.3,0.6s1-0.2,1.3-0.6
			c0.4-0.4,0.5-0.8,0.5-1.3S126.8,42.9,126.5,42.5z"/>
		<path fill="#6E7070" d="M131,42.1v1.4h2.3v0.8H131v2.2h-0.9v-5.2h3.5l0,0.8H131z"/>
		<path fill="#6E7070" d="M137.7,42.1v4.4h-0.9v-4.4h-1.6v-0.8h4v0.8H137.7z"/>
		<path fill="#6E7070" d="M143,45.1l1.2-3.8h0.8l1.2,3.8l1.3-3.8h0.9l-1.8,5.2h-0.9l-1.1-3.6h-0.1l-1.1,3.6h-0.9l-1.8-5.2h0.9
			L143,45.1z"/>
		<path fill="#6E7070" d="M150.8,45.3l-0.5,1.2h-0.9l2.3-5.2h0.9l2.3,5.2H154l-0.5-1.2H150.8z M153.1,44.5l-0.9-2.2l-0.9,2.2H153.1z
			"/>
		<path fill="#6E7070" d="M160.9,43c0,0.9-0.4,1.4-1.1,1.6l1.4,1.9H160l-1.2-1.8h-1.2v1.8h-0.9v-5.2h1.9c0.8,0,1.4,0.1,1.7,0.4
			S160.9,42.4,160.9,43z M159.8,43.7c0.2-0.2,0.3-0.4,0.3-0.7s-0.1-0.6-0.3-0.7c-0.2-0.1-0.5-0.2-1-0.2h-1.1V44h1.1
			C159.2,44,159.6,43.9,159.8,43.7z"/>
		<path fill="#6E7070" d="M167,41.3v0.8h-2.8v1.4h2.5v0.8h-2.5v1.4h2.9v0.8h-3.8v-5.2H167z"/>
		<path fill="#6E7070" d="M43.3,52c0.5,0.5,0.8,1.1,0.8,1.9c0,0.8-0.2,1.5-0.7,1.9c-0.5,0.5-1.2,0.7-2.2,0.7h-1.7v-5.2h1.8
			C42.1,51.3,42.8,51.5,43.3,52z M43.2,53.9c0-1.2-0.7-1.8-2.1-1.8h-0.9v3.6h1c0.6,0,1.1-0.2,1.5-0.5S43.2,54.5,43.2,53.9z"/>
		<path fill="#6E7070" d="M50,51.3v0.8h-2.8v1.4h2.5v0.8h-2.5v1.4h2.9v0.8h-3.8v-5.2H50z"/>
		<path fill="#6E7070" d="M54.7,56.5h-1l-2.1-5.2h1l1.6,3.9l1.6-3.9h1L54.7,56.5z"/>
		<path fill="#6E7070" d="M62.3,51.3v0.8h-2.8v1.4H62v0.8h-2.5v1.4h2.9v0.8h-3.8v-5.2H62.3z"/>
		<path fill="#6E7070" d="M64.7,56.5v-5.2h0.9v4.4h2.4v0.8H64.7z"/>
		<path fill="#6E7070" d="M74.2,55.8c-0.5,0.5-1.2,0.8-2,0.8s-1.4-0.3-2-0.8c-0.5-0.5-0.8-1.2-0.8-1.9c0-0.8,0.3-1.4,0.8-1.9
			c0.5-0.5,1.2-0.8,2-0.8s1.4,0.3,2,0.8c0.5,0.5,0.8,1.2,0.8,1.9C75,54.7,74.8,55.3,74.2,55.8z M73.6,52.5c-0.4-0.4-0.8-0.6-1.3-0.6
			s-1,0.2-1.3,0.6c-0.4,0.4-0.5,0.8-0.5,1.3s0.2,1,0.5,1.3c0.4,0.4,0.8,0.6,1.3,0.6s1-0.2,1.3-0.6c0.4-0.4,0.5-0.8,0.5-1.3
			S73.9,52.9,73.6,52.5z"/>
		<path fill="#6E7070" d="M80.8,51.8c0.4,0.3,0.5,0.8,0.5,1.4c0,0.6-0.2,1.1-0.6,1.4c-0.4,0.3-0.9,0.4-1.7,0.4h-0.9v1.5h-0.9v-5.2
			H79C79.8,51.3,80.4,51.5,80.8,51.8z M80.2,53.9c0.2-0.2,0.3-0.5,0.3-0.8c0-0.4-0.1-0.6-0.3-0.8s-0.6-0.2-1.1-0.2h-0.9v2.1h1
			C79.6,54.2,80,54.1,80.2,53.9z"/>
		<path fill="#6E7070" d="M84.4,56.5h-0.9v-5.2h1.4l1.6,3.3l1.6-3.3h1.4v5.2h-0.9v-4.1l-1.8,3.6h-0.5l-1.8-3.6V56.5z"/>
		<path fill="#6E7070" d="M95.6,51.3v0.8h-2.8v1.4h2.5v0.8h-2.5v1.4h2.9v0.8h-3.8v-5.2H95.6z"/>
		<path fill="#6E7070" d="M101.9,51.3h0.9v5.2h-1l-3-3.8v3.8h-0.9v-5.2h0.9l3,3.9V51.3z"/>
		<path fill="#6E7070" d="M107.3,52.1v4.4h-0.9v-4.4h-1.6v-0.8h4v0.8H107.3z"/>
		<path fill="#6E7070" d="M116.4,56.5h-2.3v-5.2h2c0.4,0,0.7,0,0.9,0.1c0.3,0.1,0.4,0.2,0.6,0.3c0.2,0.3,0.4,0.6,0.4,0.9
			c0,0.4-0.1,0.7-0.4,0.9c-0.1,0.1-0.2,0.1-0.2,0.1s-0.1,0-0.2,0.1c0.3,0.1,0.6,0.2,0.8,0.4s0.3,0.5,0.3,0.8c0,0.4-0.1,0.7-0.4,1
			C117.6,56.4,117.1,56.5,116.4,56.5z M115,53.5h1.1c0.6,0,1-0.2,1-0.6c0-0.2-0.1-0.4-0.2-0.5c-0.2-0.1-0.4-0.2-0.7-0.2H115V53.5z
			 M115,55.7h1.4c0.3,0,0.6-0.1,0.7-0.2s0.3-0.3,0.3-0.6c0-0.5-0.4-0.7-1.1-0.7H115V55.7z"/>
		<path fill="#6E7070" d="M124.9,55.8c-0.5,0.5-1.2,0.8-2,0.8s-1.4-0.3-2-0.8c-0.5-0.5-0.8-1.2-0.8-1.9c0-0.8,0.3-1.4,0.8-1.9
			c0.5-0.5,1.2-0.8,2-0.8s1.4,0.3,2,0.8c0.5,0.5,0.8,1.2,0.8,1.9C125.6,54.7,125.4,55.3,124.9,55.8z M124.2,52.5
			c-0.4-0.4-0.8-0.6-1.3-0.6s-1,0.2-1.3,0.6c-0.4,0.4-0.5,0.8-0.5,1.3s0.2,1,0.5,1.3c0.4,0.4,0.8,0.6,1.3,0.6s1-0.2,1.3-0.6
			c0.4-0.4,0.5-0.8,0.5-1.3S124.6,52.9,124.2,52.5z"/>
		<path fill="#6E7070" d="M132.2,55.8c-0.5,0.5-1.2,0.8-2,0.8s-1.4-0.3-2-0.8c-0.5-0.5-0.8-1.2-0.8-1.9c0-0.8,0.3-1.4,0.8-1.9
			c0.5-0.5,1.2-0.8,2-0.8s1.4,0.3,2,0.8c0.5,0.5,0.8,1.2,0.8,1.9C133,54.7,132.8,55.3,132.2,55.8z M131.6,52.5
			c-0.4-0.4-0.8-0.6-1.3-0.6s-1,0.2-1.3,0.6c-0.4,0.4-0.5,0.8-0.5,1.3s0.2,1,0.5,1.3c0.4,0.4,0.8,0.6,1.3,0.6s1-0.2,1.3-0.6
			c0.4-0.4,0.5-0.8,0.5-1.3S132,52.9,131.6,52.5z"/>
		<path fill="#6E7070" d="M137.1,52.1v4.4h-0.9v-4.4h-1.6v-0.8h4v0.8H137.1z"/>
		<path fill="#6E7070" d="M143.1,55.7c0.3,0,0.6-0.1,0.8-0.2c0.2-0.1,0.4-0.3,0.7-0.5l0.6,0.6c-0.6,0.6-1.2,0.9-2,0.9
			s-1.4-0.3-2-0.8c-0.5-0.5-0.8-1.1-0.8-1.9s0.3-1.4,0.8-1.9s1.2-0.8,2-0.8c0.8,0,1.5,0.3,2,0.9l-0.6,0.6c-0.2-0.2-0.5-0.4-0.7-0.5
			s-0.5-0.1-0.8-0.1c-0.5,0-1,0.2-1.3,0.5c-0.4,0.3-0.5,0.8-0.5,1.3c0,0.5,0.2,1,0.5,1.3C142.2,55.6,142.7,55.7,143.1,55.7z"/>
		<path fill="#6E7070" d="M148.1,55.3l-0.5,1.2h-0.9l2.3-5.2h0.9l2.3,5.2h-0.9l-0.5-1.2H148.1z M150.4,54.5l-0.9-2.2l-0.9,2.2H150.4
			z"/>
		<path fill="#6E7070" d="M154.9,56.5H154v-5.2h1.4l1.6,3.3l1.6-3.3h1.4v5.2H159v-4.1l-1.8,3.6h-0.5l-1.8-3.6V56.5z"/>
		<path fill="#6E7070" d="M166,51.8c0.4,0.3,0.5,0.8,0.5,1.4c0,0.6-0.2,1.1-0.6,1.4c-0.4,0.3-0.9,0.4-1.7,0.4h-0.9v1.5h-0.9v-5.2
			h1.8C165.1,51.3,165.7,51.5,166,51.8z M165.4,53.9c0.2-0.2,0.3-0.5,0.3-0.8c0-0.4-0.1-0.6-0.3-0.8s-0.6-0.2-1.1-0.2h-0.9v2.1h1
			C164.9,54.2,165.2,54.1,165.4,53.9z"/>
	</g>
	<g>
		<path fill-rule="evenodd" clip-rule="evenodd" fill="#69D0E8" d="M18.1,3.4c-4.9,3-10.1,5-15.8,5.9C3.9,21,8.3,32,18.1,39.1
			C27.8,32,32.2,21,33.9,9.3C28.2,8.4,22.9,6.4,18.1,3.4z M15.4,12.6h-0.5c-0.7,0-0.9,0.1-1,0.2c-0.1,0.1-0.2,0.4-0.2,1.3
			c0,1.5,0,2.5-0.1,2.9c-0.1,0.7-0.3,1.2-0.6,1.6c-0.2,0.3-0.5,0.5-0.8,0.7c0.5,0.3,0.8,0.6,1.1,1.1c0.3,0.6,0.5,1.5,0.5,2.8
			c0,1.1,0,1.8,0,2c0,0.3,0.1,0.5,0.3,0.6c0.1,0.1,0.3,0.2,0.9,0.2h0.5v1.9h-0.8c-0.6,0-1-0.1-1.3-0.2c-0.4-0.2-0.8-0.4-1-0.7
			c-0.3-0.3-0.5-0.8-0.5-1.3c-0.1-0.5-0.1-1.2-0.1-2.3c0-1-0.1-1.7-0.1-2.1c-0.1-0.3-0.2-0.6-0.5-0.8c-0.2-0.2-0.5-0.3-0.9-0.3
			l-0.3,0v-2l0.3,0c0.4,0,0.7-0.1,0.9-0.3c0.2-0.2,0.4-0.5,0.5-0.8c0.1-0.4,0.1-1.1,0.1-2c0-1,0-1.6,0-1.9c0.1-0.5,0.2-1,0.3-1.3
			c0.2-0.3,0.4-0.6,0.6-0.8c0.2-0.2,0.5-0.4,0.9-0.5c0.3-0.1,0.6-0.1,1.1-0.1h0.8V12.6z M26.8,20.3c-0.4,0-0.7,0.1-0.9,0.3
			c-0.2,0.2-0.4,0.5-0.5,0.8c-0.1,0.4-0.1,1-0.1,2c0,1,0,1.6,0,1.9c-0.1,0.5-0.2,1-0.3,1.3c-0.2,0.3-0.4,0.6-0.6,0.8
			c-0.2,0.2-0.5,0.4-0.9,0.5c-0.2,0.1-0.6,0.1-1.2,0.1h-0.8V26H22c0.7,0,0.9-0.1,1-0.2c0.1-0.1,0.2-0.3,0.2-1.3c0-1.5,0-2.4,0.1-2.8
			c0.1-0.7,0.3-1.2,0.6-1.7c0.2-0.3,0.5-0.5,0.8-0.7c-0.5-0.3-0.8-0.7-1.1-1.1c-0.3-0.6-0.4-1.5-0.4-2.8c0-0.9,0-1.8,0-2
			c0-0.3-0.1-0.5-0.2-0.6c-0.1-0.1-0.3-0.2-0.9-0.2h-0.5v-1.9h0.8c0.6,0,1,0.1,1.3,0.2c0.4,0.1,0.8,0.4,1,0.7
			c0.3,0.3,0.4,0.8,0.5,1.3c0.1,0.5,0.1,1.2,0.1,2.3c0,1,0.1,1.7,0.1,2.1c0.1,0.3,0.2,0.6,0.5,0.8c0.2,0.2,0.5,0.3,0.9,0.3l0.3,0v2
			L26.8,20.3z"/>
		<g>
			<path fill-rule="evenodd" clip-rule="evenodd" fill="#69D0E8" d="M138.8,14.7v8.7c0,2.6,0.7,4.2,2,5.1c1.3,0.8,2.8,1.3,4.4,1.3
				c1.6,0,3.1-0.4,4.5-1.2c1.4-0.8,2.1-2.5,2.1-5.2v-8.7h-1.9c-0.6,0-1,0.2-1.4,0.6c-0.4,0.4-0.5,0.8-0.5,1.3v7.6
				c0,0.9-0.3,1.5-0.8,1.9c-0.5,0.4-1.1,0.6-1.8,0.6c-0.7,0-1.3-0.2-1.8-0.6c-0.5-0.4-0.8-1.1-0.8-1.9v-9.5H138.8z"/>
			<path fill-rule="evenodd" clip-rule="evenodd" fill="#69D0E8" d="M85.8,10.4v19.1h3.9V12.3c0-0.5-0.2-1-0.6-1.3
				c-0.4-0.4-0.8-0.5-1.3-0.5H85.8z"/>
			<path fill-rule="evenodd" clip-rule="evenodd" fill="#69D0E8" d="M103.9,16.4c-1.2-1.3-2.9-2-5.2-2c-2.1,0-3.8,0.7-4.9,2.1
				c-1.2,1.3-1.7,3.2-1.7,5.5c0,2.5,0.6,4.4,1.8,5.7c1.2,1.4,2.8,2.1,4.9,2.1c1.7,0,3.2-0.4,4.3-1.3c1.1-0.8,1.9-2,2.3-3.6h-2.8
				c-0.4,0-0.8,0.1-1,0.3c-0.2,0.2-0.4,0.3-0.4,0.4c-0.1,0.1-0.2,0.2-0.3,0.3c-0.1,0.1-0.2,0.2-0.3,0.2c-0.4,0.3-1,0.4-1.6,0.4
				c-1,0-1.7-0.3-2.2-0.9c-0.5-0.6-0.8-1.4-0.8-2.6h9.6c0-0.1,0.1-0.2,0.1-0.4v-0.2v-0.4C105.7,19.7,105.1,17.8,103.9,16.4z
				 M96,20.6c0-1,0.3-1.7,0.8-2.2c0.5-0.5,1.2-0.8,2-0.8c0.9,0,1.6,0.3,2,0.8c0.4,0.5,0.7,1.2,0.8,2.2H96z"/>
			<path fill-rule="evenodd" clip-rule="evenodd" fill="#69D0E8" d="M166,16.4c-1.2-1.3-2.9-2-5.2-2c-2.1,0-3.8,0.7-4.9,2.1
				c-1.2,1.3-1.7,3.2-1.7,5.5c0,2.5,0.6,4.4,1.8,5.7c1.2,1.4,2.8,2.1,4.9,2.1c1.7,0,3.2-0.4,4.3-1.3c1.1-0.8,1.9-2,2.3-3.6h-2.8
				c-0.4,0-0.8,0.1-1,0.3c-0.2,0.2-0.4,0.3-0.4,0.4c-0.1,0.1-0.2,0.2-0.3,0.3c-0.1,0.1-0.2,0.2-0.3,0.2c-0.4,0.3-1,0.4-1.6,0.4
				c-1,0-1.7-0.3-2.2-0.9c-0.5-0.6-0.8-1.4-0.8-2.6h9.6c0-0.1,0.1-0.2,0.1-0.4v-0.2v-0.4C167.7,19.7,167.1,17.8,166,16.4z
				 M158.1,20.6c0-1,0.3-1.7,0.8-2.2c0.5-0.5,1.2-0.8,2-0.8c0.9,0,1.6,0.3,2,0.8c0.4,0.5,0.7,1.2,0.8,2.2H158.1z"/>
			<path fill-rule="evenodd" clip-rule="evenodd" fill="#69D0E8" d="M118.5,15.5c-1-0.7-2.6-1.1-4.7-1.1c-1.8,0-3.3,0.4-4.3,1.3
				c-0.9,0.7-1.4,1.7-1.6,2.8h3.7c0.2-0.4,0.5-0.7,0.9-0.9c0.4-0.2,0.9-0.2,1.4-0.2c0.5,0,1,0.1,1.6,0.3c0.6,0.2,0.9,0.5,0.9,1.1
				c0,0.7-0.8,1.2-2.4,1.4c-0.3,0-0.6,0.1-0.9,0.1c-0.3,0.1-0.5,0.1-0.7,0.1c-1.4,0.2-2.6,0.7-3.5,1.3c-0.9,0.7-1.4,1.8-1.4,3.3
				c0,1.7,0.5,2.9,1.5,3.6c1,0.7,2.2,1.1,3.5,1.1c0.7,0,1.4,0,2.3-0.1c0.9-0.1,1.7-0.3,2.5-0.8c0.7-0.4,1.4-1,1.9-1.8
				c0.5-0.8,0.8-2,0.8-3.5v-5.1C120.1,17.3,119.6,16.2,118.5,15.5z M116.4,23.5c0,1-0.3,1.8-0.9,2.4c-0.6,0.6-1.4,0.9-2.4,0.9
				c-0.6,0-1.1-0.1-1.4-0.4c-0.3-0.3-0.5-0.8-0.5-1.3c0-0.4,0.1-0.8,0.4-1.2c0.3-0.3,0.8-0.5,1.4-0.7l1.3-0.3
				c0.9-0.2,1.6-0.5,2.2-0.7V23.5z"/>
			<path fill-rule="evenodd" clip-rule="evenodd" fill="#69D0E8" d="M133.9,15.9c-1.5-1-3.2-1.4-4.9-1.4c-2.3,0-4,0.7-5.1,2.1
				c-1.1,1.4-1.6,3.3-1.6,5.6c0,2,0.4,3.5,1.2,4.7c0.8,1.2,1.8,2,2.9,2.5c1.1,0.4,2.2,0.5,3.4,0.3c1.1-0.3,2-0.9,2.7-1.9v0.9
				c-0.1,1.2-0.4,2.1-0.9,2.7c-0.5,0.6-1.1,1-1.7,1.1c-0.6,0.1-1.2,0.1-1.8-0.2c-0.6-0.3-1.1-0.7-1.4-1.2h-4
				c0.8,3.2,2.9,4.8,6.3,4.8c1.8,0,3.4-0.5,4.9-1.4c1.5-0.9,2.3-2.7,2.3-5.3v-7.8C136.2,18.6,135.4,16.8,133.9,15.9z M132.3,23.6
				c-0.2,0.9-0.4,1.5-0.7,1.9c-0.7,1-1.8,1.3-3.3,1c-1.5-0.3-2.2-1.7-2.2-4.2c0-1.2,0.2-2.2,0.7-3.2c0.4-0.9,1.3-1.4,2.6-1.4
				c0.9,0,1.6,0.3,2.1,1c0.5,0.7,0.8,1.4,0.9,2.3C132.5,21.8,132.4,22.7,132.3,23.6z"/>
			<path fill-rule="evenodd" clip-rule="evenodd" fill="#69D0E8" d="M50.9,10.9c-0.4-0.4-0.8-0.6-1.3-0.6h-1.9v6.3
				c-0.4-0.7-1-1.3-1.8-1.7c-0.7-0.4-1.5-0.6-2.4-0.6c-1.7,0-3.2,0.7-4.3,2.2c-1.1,1.4-1.6,3.3-1.6,5.6c0,2.4,0.5,4.2,1.6,5.6
				c0.6,0.7,1.3,1.2,2.2,1.5c0.9,0.3,1.9,0.5,2.8,0.5c1.8,0,3.4-0.5,5-1.4c1.5-0.9,2.3-2.7,2.3-5.3V12.3
				C51.5,11.8,51.3,11.3,50.9,10.9z M46.9,25.4c-0.6,0.8-1.3,1.2-2.3,1.2c-1,0-1.8-0.4-2.4-1.2c-0.6-0.8-0.8-1.9-0.8-3.4
				c0-1.3,0.3-2.4,0.8-3.1c0.6-0.8,1.3-1.2,2.3-1.2c1,0,1.8,0.4,2.4,1.1c0.6,0.8,0.8,1.8,0.8,3.2C47.7,23.5,47.4,24.6,46.9,25.4z"/>
			<path fill-rule="evenodd" clip-rule="evenodd" fill="#69D0E8" d="M66.5,16.4c-1.2-1.3-2.9-2-5.2-2c-2.1,0-3.8,0.7-4.9,2.1
				c-1.2,1.3-1.7,3.2-1.7,5.5c0,2.5,0.6,4.4,1.8,5.7c1.2,1.4,2.8,2.1,4.9,2.1c1.7,0,3.2-0.4,4.3-1.3c1.1-0.8,1.9-2,2.3-3.6h-2.8
				c-0.4,0-0.8,0.1-1,0.3c-0.2,0.2-0.4,0.3-0.4,0.4c-0.1,0.1-0.2,0.2-0.3,0.3c-0.1,0.1-0.2,0.2-0.3,0.2c-0.4,0.3-1,0.4-1.6,0.4
				c-1,0-1.7-0.3-2.2-0.9c-0.5-0.6-0.8-1.4-0.8-2.6h9.6c0-0.1,0.1-0.2,0.1-0.4v-0.2v-0.4C68.2,19.7,67.6,17.8,66.5,16.4z M58.6,20.6
				c0-1,0.3-1.7,0.8-2.2c0.5-0.5,1.2-0.8,2-0.8c0.9,0,1.6,0.3,2.1,0.8c0.4,0.5,0.7,1.2,0.8,2.2H58.6z"/>
			<path fill-rule="evenodd" clip-rule="evenodd" fill="#69D0E8" d="M69.1,14.7l5.2,14.8h3.9l5.2-14.8h-2.9c-0.9,0-1.5,0.4-1.8,1.3
				l-2.6,9.1l-2.9-10.4H69.1z"/>
		</g>
	</g>
</g>
</svg>
