<?xml version="1.0" encoding="utf-8"?>
<!-- Generator: Adobe Illustrator 18.1.1, SVG Export Plug-In . SVG Version: 6.00 Build 0)  -->
<svg version="1.1" id="Layer_1" xmlns="http://www.w3.org/2000/svg" xmlns:xlink="http://www.w3.org/1999/xlink" x="0px" y="0px"
	 viewBox="0 0 199.5 61.5" enable-background="new 0 0 199.5 61.5" xml:space="preserve">
<g>
	<path fill-rule="evenodd" clip-rule="evenodd" fill="#004A63" d="M33.1,11c5.7,3.7,11.7,5.9,18.2,6.6C49.5,33.5,43.4,45,33.1,52
		c-10.3-7-16.4-18.4-18.2-34.4C21.4,17,27.4,14.7,33.1,11z"/>
	<path fill="none" stroke="#004A63" stroke-width="0.5669" stroke-miterlimit="22.9256" d="M33.1,11c5.7,3.7,11.7,5.9,18.2,6.6
		C49.5,33.5,43.4,45,33.1,52c-10.3-7-16.4-18.4-18.2-34.4C21.4,17,27.4,14.7,33.1,11z"/>
	<path fill-rule="evenodd" clip-rule="evenodd" fill="#006D81" d="M33.1,52V11c-5.7,3.7-11.7,5.9-18.2,6.6
		C16.7,33.5,22.8,45,33.1,52"/>
	<path fill-rule="evenodd" clip-rule="evenodd" fill="#004A63" d="M33.1,11V52c10.3-7,16.4-18.4,18.2-34.4
		C44.8,16.9,38.8,14.7,33.1,11"/>
	<path opacity="0.2" fill="#FFFFFF" d="M23.7,23.6h-0.3v-1.7c-0.1,0.1-0.2,0.1-0.3,0.2c-0.1,0.1-0.2,0.1-0.3,0.1v-0.3
		c0.2-0.1,0.3-0.2,0.4-0.3c0.1-0.1,0.2-0.2,0.2-0.3h0.2V23.6z M21.2,22.5c0,0.4,0,0.6,0.1,0.7c0.1,0.1,0.2,0.2,0.3,0.2
		c0.1,0,0.2-0.1,0.3-0.2c0.1-0.1,0.1-0.4,0.1-0.7c0-0.4,0-0.6-0.1-0.7c-0.1-0.1-0.2-0.2-0.3-0.2c-0.1,0-0.2,0.1-0.3,0.2
		C21.3,21.9,21.2,22.1,21.2,22.5z M21,22.5c0-0.3,0-0.5,0.1-0.6c0.1-0.2,0.1-0.3,0.2-0.4c0.1-0.1,0.2-0.1,0.4-0.1
		c0.1,0,0.2,0,0.3,0.1c0.1,0,0.2,0.1,0.2,0.2c0.1,0.1,0.1,0.2,0.1,0.3c0,0.1,0.1,0.3,0.1,0.5c0,0.3,0,0.5-0.1,0.6
		c-0.1,0.2-0.1,0.3-0.2,0.4c-0.1,0.1-0.2,0.1-0.4,0.1c-0.2,0-0.4-0.1-0.5-0.2C21,23.2,21,22.9,21,22.5z M20.3,23.6H20v-1.7
		c-0.1,0.1-0.2,0.1-0.3,0.2c-0.1,0.1-0.2,0.1-0.3,0.1v-0.3c0.2-0.1,0.3-0.2,0.4-0.3c0.1-0.1,0.2-0.2,0.2-0.3h0.2V23.6z M43.6,19
		c0,0.4,0,0.6,0.1,0.7c0.1,0.1,0.2,0.2,0.3,0.2c0.1,0,0.2-0.1,0.3-0.2c0.1-0.1,0.1-0.4,0.1-0.7c0-0.4,0-0.6-0.1-0.7
		c-0.1-0.1-0.2-0.2-0.3-0.2c-0.1,0-0.2,0.1-0.3,0.2C43.7,18.4,43.6,18.7,43.6,19z M43.4,19c0-0.3,0-0.5,0.1-0.6
		c0.1-0.2,0.1-0.3,0.2-0.4c0.1-0.1,0.2-0.1,0.4-0.1c0.1,0,0.2,0,0.3,0.1c0.1,0,0.2,0.1,0.2,0.2c0.1,0.1,0.1,0.2,0.1,0.3
		c0,0.1,0.1,0.3,0.1,0.5c0,0.3,0,0.5-0.1,0.6c-0.1,0.2-0.1,0.3-0.2,0.4c-0.1,0.1-0.2,0.1-0.4,0.1c-0.2,0-0.4-0.1-0.5-0.2
		C43.4,19.8,43.4,19.5,43.4,19z M42.7,20.1h-0.3v-1.7c-0.1,0.1-0.2,0.1-0.3,0.2c-0.1,0.1-0.2,0.1-0.3,0.1v-0.3
		c0.2-0.1,0.3-0.2,0.4-0.3c0.1-0.1,0.2-0.2,0.2-0.3h0.2V20.1z M40.2,19c0,0.4,0,0.6,0.1,0.7c0.1,0.1,0.2,0.2,0.3,0.2
		c0.1,0,0.2-0.1,0.3-0.2c0.1-0.1,0.1-0.4,0.1-0.7c0-0.4,0-0.6-0.1-0.7c-0.1-0.1-0.2-0.2-0.3-0.2c-0.1,0-0.2,0.1-0.3,0.2
		C40.2,18.4,40.2,18.7,40.2,19z M39.9,19c0-0.3,0-0.5,0.1-0.6c0.1-0.2,0.1-0.3,0.2-0.4c0.1-0.1,0.2-0.1,0.4-0.1c0.1,0,0.2,0,0.3,0.1
		c0.1,0,0.2,0.1,0.2,0.2c0.1,0.1,0.1,0.2,0.1,0.3c0,0.1,0.1,0.3,0.1,0.5c0,0.3,0,0.5-0.1,0.6c-0.1,0.2-0.1,0.3-0.2,0.4
		c-0.1,0.1-0.2,0.1-0.4,0.1c-0.2,0-0.4-0.1-0.5-0.2C40,19.8,39.9,19.5,39.9,19z M39.2,20.1H39v-1.7c-0.1,0.1-0.2,0.1-0.3,0.2
		c-0.1,0.1-0.2,0.1-0.3,0.1v-0.3c0.2-0.1,0.3-0.2,0.4-0.3c0.1-0.1,0.2-0.2,0.2-0.3h0.2V20.1z M36.8,19c0,0.4,0,0.6,0.1,0.7
		c0.1,0.1,0.2,0.2,0.3,0.2c0.1,0,0.2-0.1,0.3-0.2c0.1-0.1,0.1-0.4,0.1-0.7c0-0.4,0-0.6-0.1-0.7c-0.1-0.1-0.2-0.2-0.3-0.2
		c-0.1,0-0.2,0.1-0.3,0.2C36.8,18.4,36.8,18.7,36.8,19z M36.5,19c0-0.3,0-0.5,0.1-0.6c0.1-0.2,0.1-0.3,0.2-0.4
		c0.1-0.1,0.2-0.1,0.4-0.1c0.1,0,0.2,0,0.3,0.1c0.1,0,0.2,0.1,0.2,0.2c0.1,0.1,0.1,0.2,0.1,0.3c0,0.1,0,0.3,0,0.5
		c0,0.3,0,0.5-0.1,0.6c-0.1,0.2-0.1,0.3-0.2,0.4c-0.1,0.1-0.2,0.1-0.4,0.1c-0.2,0-0.4-0.1-0.5-0.2C36.6,19.8,36.5,19.5,36.5,19z
		 M35.8,20.1h-0.3v-1.7c-0.1,0.1-0.2,0.1-0.3,0.2c-0.1,0.1-0.2,0.1-0.3,0.1v-0.3c0.2-0.1,0.3-0.2,0.4-0.3c0.1-0.1,0.2-0.2,0.2-0.3
		h0.2V20.1z M33.3,19c0,0.4,0,0.6,0.1,0.7c0.1,0.1,0.2,0.2,0.3,0.2c0.1,0,0.2-0.1,0.3-0.2c0.1-0.1,0.1-0.4,0.1-0.7
		c0-0.4,0-0.6-0.1-0.7c-0.1-0.1-0.2-0.2-0.3-0.2c-0.1,0-0.2,0.1-0.3,0.2C33.4,18.4,33.3,18.7,33.3,19z M33,19c0-0.3,0-0.5,0.1-0.6
		c0.1-0.2,0.1-0.3,0.2-0.4c0.1-0.1,0.2-0.1,0.4-0.1c0.1,0,0.2,0,0.3,0.1c0.1,0,0.2,0.1,0.2,0.2c0.1,0.1,0.1,0.2,0.1,0.3
		c0,0.1,0.1,0.3,0.1,0.5c0,0.3,0,0.5-0.1,0.6c-0.1,0.2-0.1,0.3-0.2,0.4c-0.1,0.1-0.2,0.1-0.4,0.1c-0.2,0-0.4-0.1-0.5-0.2
		C33.1,19.8,33,19.5,33,19z M32.3,20.1h-0.3v-1.7c-0.1,0.1-0.2,0.1-0.3,0.2c-0.1,0.1-0.2,0.1-0.3,0.1v-0.3c0.2-0.1,0.3-0.2,0.4-0.3
		c0.1-0.1,0.2-0.2,0.2-0.3h0.2V20.1z M29.9,19c0,0.4,0,0.6,0.1,0.7c0.1,0.1,0.2,0.2,0.3,0.2c0.1,0,0.2-0.1,0.3-0.2
		c0.1-0.1,0.1-0.4,0.1-0.7c0-0.4,0-0.6-0.1-0.7c-0.1-0.1-0.2-0.2-0.3-0.2c-0.1,0-0.2,0.1-0.3,0.2C29.9,18.4,29.9,18.7,29.9,19z
		 M29.6,19c0-0.3,0-0.5,0.1-0.6c0.1-0.2,0.1-0.3,0.2-0.4c0.1-0.1,0.2-0.1,0.4-0.1c0.1,0,0.2,0,0.3,0.1c0.1,0,0.2,0.1,0.2,0.2
		c0.1,0.1,0.1,0.2,0.1,0.3c0,0.1,0.1,0.3,0.1,0.5c0,0.3,0,0.5-0.1,0.6c-0.1,0.2-0.1,0.3-0.2,0.4c-0.1,0.1-0.2,0.1-0.4,0.1
		c-0.2,0-0.4-0.1-0.5-0.2C29.7,19.8,29.6,19.5,29.6,19z M28.9,20.1h-0.3v-1.7c-0.1,0.1-0.2,0.1-0.3,0.2c-0.1,0.1-0.2,0.1-0.3,0.1
		v-0.3c0.2-0.1,0.3-0.2,0.4-0.3c0.1-0.1,0.2-0.2,0.2-0.3h0.2V20.1z M26.4,19c0,0.4,0,0.6,0.1,0.7c0.1,0.1,0.2,0.2,0.3,0.2
		c0.1,0,0.2-0.1,0.3-0.2c0.1-0.1,0.1-0.4,0.1-0.7c0-0.4,0-0.6-0.1-0.7c-0.1-0.1-0.2-0.2-0.3-0.2c-0.1,0-0.2,0.1-0.3,0.2
		C26.5,18.4,26.4,18.7,26.4,19z M26.1,19c0-0.3,0-0.5,0.1-0.6c0.1-0.2,0.1-0.3,0.2-0.4c0.1-0.1,0.2-0.1,0.4-0.1c0.1,0,0.2,0,0.3,0.1
		c0.1,0,0.2,0.1,0.2,0.2c0.1,0.1,0.1,0.2,0.1,0.3c0,0.1,0.1,0.3,0.1,0.5c0,0.3,0,0.5-0.1,0.6c-0.1,0.2-0.1,0.3-0.2,0.4
		c-0.1,0.1-0.2,0.1-0.4,0.1c-0.2,0-0.4-0.1-0.5-0.2C26.2,19.8,26.1,19.5,26.1,19z M25.4,20.1h-0.3v-1.7c-0.1,0.1-0.2,0.1-0.3,0.2
		c-0.1,0.1-0.2,0.1-0.3,0.1v-0.3c0.2-0.1,0.3-0.2,0.4-0.3c0.1-0.1,0.2-0.2,0.2-0.3h0.2V20.1z M23,19c0,0.4,0,0.6,0.1,0.7
		c0.1,0.1,0.2,0.2,0.3,0.2c0.1,0,0.2-0.1,0.3-0.2c0.1-0.1,0.1-0.4,0.1-0.7c0-0.4,0-0.6-0.1-0.7c-0.1-0.1-0.2-0.2-0.3-0.2
		c-0.1,0-0.2,0.1-0.3,0.2C23,18.4,23,18.7,23,19z M22.7,19c0-0.3,0-0.5,0.1-0.6c0.1-0.2,0.1-0.3,0.2-0.4c0.1-0.1,0.2-0.1,0.4-0.1
		c0.1,0,0.2,0,0.3,0.1c0.1,0,0.2,0.1,0.2,0.2c0.1,0.1,0.1,0.2,0.1,0.3c0,0.1,0.1,0.3,0.1,0.5c0,0.3,0,0.5-0.1,0.6
		c-0.1,0.2-0.1,0.3-0.2,0.4c-0.1,0.1-0.2,0.1-0.4,0.1c-0.2,0-0.4-0.1-0.5-0.2C22.8,19.8,22.7,19.5,22.7,19z M22,20.1h-0.3v-1.7
		c-0.1,0.1-0.2,0.1-0.3,0.2c-0.1,0.1-0.2,0.1-0.3,0.1v-0.3c0.2-0.1,0.3-0.2,0.4-0.3c0.1-0.1,0.2-0.2,0.2-0.3H22V20.1z M35,15.6
		c0,0.4,0,0.6,0.1,0.7c0.1,0.1,0.2,0.2,0.3,0.2c0.1,0,0.2-0.1,0.3-0.2c0.1-0.1,0.1-0.4,0.1-0.7c0-0.4,0-0.6-0.1-0.7
		c-0.1-0.1-0.2-0.2-0.3-0.2c-0.1,0-0.2,0.1-0.3,0.2C35.1,15,35,15.2,35,15.6z M34.8,15.6c0-0.3,0-0.5,0.1-0.6
		c0.1-0.2,0.1-0.3,0.2-0.4c0.1-0.1,0.2-0.1,0.4-0.1c0.1,0,0.2,0,0.3,0.1c0.1,0,0.2,0.1,0.2,0.2c0.1,0.1,0.1,0.2,0.1,0.3
		c0,0.1,0.1,0.3,0.1,0.5c0,0.3,0,0.5-0.1,0.6c-0.1,0.2-0.1,0.3-0.2,0.4c-0.1,0.1-0.2,0.1-0.4,0.1c-0.2,0-0.4-0.1-0.5-0.2
		C34.8,16.3,34.8,16,34.8,15.6z M34.1,16.7h-0.3v-1.7c-0.1,0.1-0.2,0.1-0.3,0.2c-0.1,0.1-0.2,0.1-0.3,0.1V15
		c0.2-0.1,0.3-0.2,0.4-0.3c0.1-0.1,0.2-0.2,0.2-0.3h0.2V16.7z M31.6,15.6c0,0.4,0,0.6,0.1,0.7c0.1,0.1,0.2,0.2,0.3,0.2
		c0.1,0,0.2-0.1,0.3-0.2c0.1-0.1,0.1-0.4,0.1-0.7c0-0.4,0-0.6-0.1-0.7c-0.1-0.1-0.2-0.2-0.3-0.2c-0.1,0-0.2,0.1-0.3,0.2
		C31.6,15,31.6,15.2,31.6,15.6z M31.3,15.6c0-0.3,0-0.5,0.1-0.6c0.1-0.2,0.1-0.3,0.2-0.4c0.1-0.1,0.2-0.1,0.4-0.1
		c0.1,0,0.2,0,0.3,0.1c0.1,0,0.2,0.1,0.2,0.2c0.1,0.1,0.1,0.2,0.1,0.3c0,0.1,0.1,0.3,0.1,0.5c0,0.3,0,0.5-0.1,0.6
		c-0.1,0.2-0.1,0.3-0.2,0.4c-0.1,0.1-0.2,0.1-0.4,0.1c-0.2,0-0.4-0.1-0.5-0.2C31.4,16.3,31.3,16,31.3,15.6z M30.6,16.7h-0.3v-1.7
		c-0.1,0.1-0.2,0.1-0.3,0.2c-0.1,0.1-0.2,0.1-0.3,0.1V15c0.2-0.1,0.3-0.2,0.4-0.3c0.1-0.1,0.2-0.2,0.2-0.3h0.2V16.7z M17.7,21.7
		c0,0.2,0.1,0.4,0.1,0.6c0-0.3,0.1-0.4,0.1-0.5c0.1-0.1,0.2-0.2,0.3-0.2c0.1,0,0.2,0.1,0.3,0.2c0.1,0.1,0.1,0.4,0.1,0.7
		c0,0.4,0,0.6-0.1,0.7c-0.1,0.1-0.2,0.2-0.3,0.2c-0.1,0-0.2,0-0.2-0.1c0,0.1,0,0.2,0.1,0.3c0.1,0,0.1,0,0.2,0c0.2,0,0.3,0,0.4-0.1
		c0.1-0.1,0.2-0.2,0.2-0.4c0.1-0.2,0.1-0.4,0.1-0.6c0-0.2,0-0.4-0.1-0.5c0-0.1-0.1-0.2-0.1-0.3c-0.1-0.1-0.1-0.2-0.2-0.2
		c-0.1,0-0.2-0.1-0.3-0.1c-0.2,0-0.3,0-0.4,0.1C17.8,21.6,17.7,21.6,17.7,21.7z M18.5,18.7l-0.3,0.1v1.3h0.3V18.7z M20.4,18.1
		l-0.3,0.1c0.1,0,0.1,0.1,0.2,0.1c0.1,0.1,0.1,0.4,0.1,0.7c0,0.4,0,0.6-0.1,0.7C20.2,19.9,20.1,20,20,20s-0.2-0.1-0.3-0.2
		c-0.1-0.1-0.1-0.4-0.1-0.7c0-0.3,0-0.6,0.1-0.7l-0.3,0.1c0,0.2-0.1,0.3-0.1,0.6c0,0.4,0.1,0.7,0.2,0.9c0.1,0.2,0.3,0.2,0.5,0.2
		c0.2,0,0.3,0,0.4-0.1c0.1-0.1,0.2-0.2,0.2-0.4c0.1-0.2,0.1-0.4,0.1-0.6c0-0.2,0-0.4-0.1-0.5c0-0.1-0.1-0.2-0.1-0.3
		C20.5,18.1,20.4,18.1,20.4,18.1z M25.8,16.1l-0.3,0.1c0,0,0,0.1,0,0.1c-0.1,0.1-0.2,0.2-0.3,0.2c-0.1,0-0.1,0-0.2-0.1l-0.3,0.1
		c0.1,0.1,0.3,0.2,0.5,0.2c0.2,0,0.3,0,0.4-0.1C25.6,16.5,25.7,16.4,25.8,16.1C25.8,16.2,25.8,16.2,25.8,16.1z M27.2,15.6l-0.3,0.1
		v1h0.3V15.6z M29.2,14.9L29,15c0,0.1,0.1,0.3,0.1,0.6c0,0.4,0,0.6-0.1,0.7c-0.1,0.1-0.2,0.2-0.3,0.2c-0.1,0-0.2-0.1-0.3-0.2
		c-0.1-0.1-0.1-0.4-0.1-0.7c0-0.1,0-0.2,0-0.3l-0.3,0.1c0,0.1,0,0.1,0,0.2c0,0.4,0.1,0.7,0.2,0.9c0.1,0.2,0.3,0.2,0.5,0.2
		c0.2,0,0.3,0,0.4-0.1c0.1-0.1,0.2-0.2,0.2-0.4c0.1-0.2,0.1-0.4,0.1-0.6c0-0.2,0-0.4-0.1-0.5C29.2,15,29.2,14.9,29.2,14.9z M37.2,15
		l-0.3-0.1c-0.1,0.1-0.2,0.1-0.3,0.1v0.3c0.1,0,0.2-0.1,0.3-0.1C37.1,15.1,37.1,15,37.2,15z M37.5,15.1L37.2,15v1.7h0.3V15.1z
		 M39.6,15.8l-0.3-0.1c0,0.3-0.1,0.5-0.1,0.6c-0.1,0.1-0.2,0.2-0.3,0.2c-0.1,0-0.2-0.1-0.3-0.2c-0.1-0.1-0.1-0.4-0.1-0.7
		c0-0.1,0-0.1,0-0.2l-0.3-0.1c0,0.1,0,0.2,0,0.3c0,0.4,0.1,0.7,0.2,0.9c0.1,0.2,0.3,0.2,0.5,0.2c0.2,0,0.3,0,0.4-0.1
		c0.1-0.1,0.2-0.2,0.2-0.4C39.6,16.1,39.6,16,39.6,15.8z M40.9,16.3l-0.3-0.1v0.5h0.3V16.3z M46.1,18.2l-0.3-0.1
		c0,0-0.1,0.1-0.1,0.1c-0.1,0.1-0.2,0.2-0.4,0.3v0.3c0.1,0,0.2-0.1,0.3-0.1c0.1-0.1,0.2-0.1,0.3-0.2v1.7h0.3V18.2z M48.3,19L48,18.9
		c0,0.1,0,0.1,0,0.2c0,0.4,0,0.6-0.1,0.7c-0.1,0.1-0.2,0.2-0.3,0.2s-0.2-0.1-0.3-0.2c-0.1-0.1-0.1-0.4-0.1-0.7c0-0.2,0-0.4,0-0.5
		l-0.3-0.1c0,0.2-0.1,0.4-0.1,0.6c0,0.4,0.1,0.7,0.2,0.9c0.1,0.2,0.3,0.2,0.5,0.2c0.2,0,0.3,0,0.4-0.1c0.1-0.1,0.2-0.2,0.2-0.4
		C48.2,19.5,48.3,19.3,48.3,19C48.3,19,48.3,19,48.3,19z"/>
	<path opacity="0.2" fill="#FFFFFF" d="M30.6,30.5h-0.3v-1.7c-0.1,0.1-0.2,0.1-0.3,0.2c-0.1,0.1-0.2,0.1-0.3,0.1v-0.3
		c0.2-0.1,0.3-0.2,0.4-0.3c0.1-0.1,0.2-0.2,0.2-0.3h0.2V30.5z M28.1,29.4c0,0.4,0,0.6,0.1,0.7c0.1,0.1,0.2,0.2,0.3,0.2
		c0.1,0,0.2-0.1,0.3-0.2C29,30,29,29.8,29,29.4c0-0.4,0-0.6-0.1-0.7c-0.1-0.1-0.2-0.2-0.3-0.2c-0.1,0-0.2,0.1-0.3,0.2
		C28.2,28.8,28.1,29.1,28.1,29.4z M27.9,29.4c0-0.3,0-0.5,0.1-0.6c0.1-0.2,0.1-0.3,0.2-0.4c0.1-0.1,0.2-0.1,0.4-0.1
		c0.1,0,0.2,0,0.3,0.1c0.1,0,0.2,0.1,0.2,0.2c0.1,0.1,0.1,0.2,0.1,0.3c0,0.1,0.1,0.3,0.1,0.5c0,0.3,0,0.5-0.1,0.6
		c-0.1,0.2-0.1,0.3-0.2,0.4c-0.1,0.1-0.2,0.1-0.4,0.1c-0.2,0-0.4-0.1-0.5-0.2C27.9,30.2,27.9,29.9,27.9,29.4z M27.2,30.5h-0.3v-1.7
		c-0.1,0.1-0.2,0.1-0.3,0.2c-0.1,0.1-0.2,0.1-0.3,0.1v-0.3c0.2-0.1,0.3-0.2,0.4-0.3c0.1-0.1,0.2-0.2,0.2-0.3h0.2V30.5z M24.7,29.4
		c0,0.4,0,0.6,0.1,0.7c0.1,0.1,0.2,0.2,0.3,0.2c0.1,0,0.2-0.1,0.3-0.2c0.1-0.1,0.1-0.4,0.1-0.7c0-0.4,0-0.6-0.1-0.7
		c-0.1-0.1-0.2-0.2-0.3-0.2c-0.1,0-0.2,0.1-0.3,0.2C24.7,28.8,24.7,29.1,24.7,29.4z M24.4,29.4c0-0.3,0-0.5,0.1-0.6
		c0.1-0.2,0.1-0.3,0.2-0.4c0.1-0.1,0.2-0.1,0.4-0.1c0.1,0,0.2,0,0.3,0.1c0.1,0,0.2,0.1,0.2,0.2c0.1,0.1,0.1,0.2,0.1,0.3
		c0,0.1,0.1,0.3,0.1,0.5c0,0.3,0,0.5-0.1,0.6c-0.1,0.2-0.1,0.3-0.2,0.4c-0.1,0.1-0.2,0.1-0.4,0.1c-0.2,0-0.4-0.1-0.5-0.2
		C24.5,30.2,24.4,29.9,24.4,29.4z M23.7,30.5h-0.3v-1.7c-0.1,0.1-0.2,0.1-0.3,0.2c-0.1,0.1-0.2,0.1-0.3,0.1v-0.3
		c0.2-0.1,0.3-0.2,0.4-0.3c0.1-0.1,0.2-0.2,0.2-0.3h0.2V30.5z M21.2,29.4c0,0.4,0,0.6,0.1,0.7c0.1,0.1,0.2,0.2,0.3,0.2
		c0.1,0,0.2-0.1,0.3-0.2c0.1-0.1,0.1-0.4,0.1-0.7c0-0.4,0-0.6-0.1-0.7c-0.1-0.1-0.2-0.2-0.3-0.2c-0.1,0-0.2,0.1-0.3,0.2
		C21.3,28.8,21.2,29.1,21.2,29.4z M21,29.4c0-0.3,0-0.5,0.1-0.6c0.1-0.2,0.1-0.3,0.2-0.4c0.1-0.1,0.2-0.1,0.4-0.1
		c0.1,0,0.2,0,0.3,0.1c0.1,0,0.2,0.1,0.2,0.2c0.1,0.1,0.1,0.2,0.1,0.3c0,0.1,0.1,0.3,0.1,0.5c0,0.3,0,0.5-0.1,0.6
		c-0.1,0.2-0.1,0.3-0.2,0.4c-0.1,0.1-0.2,0.1-0.4,0.1c-0.2,0-0.4-0.1-0.5-0.2C21,30.2,21,29.9,21,29.4z M20.3,30.5H20v-1.7
		c-0.1,0.1-0.2,0.1-0.3,0.2c-0.1,0.1-0.2,0.1-0.3,0.1v-0.3c0.2-0.1,0.3-0.2,0.4-0.3c0.1-0.1,0.2-0.2,0.2-0.3h0.2V30.5z M46.1,27.1
		h-0.3v-1.7c-0.1,0.1-0.2,0.1-0.3,0.2c-0.1,0.1-0.2,0.1-0.3,0.1v-0.3c0.2-0.1,0.3-0.2,0.4-0.3c0.1-0.1,0.2-0.2,0.2-0.3h0.2V27.1z
		 M43.6,26c0,0.4,0,0.6,0.1,0.7c0.1,0.1,0.2,0.2,0.3,0.2c0.1,0,0.2-0.1,0.3-0.2c0.1-0.1,0.1-0.4,0.1-0.7c0-0.4,0-0.6-0.1-0.7
		c-0.1-0.1-0.2-0.2-0.3-0.2c-0.1,0-0.2,0.1-0.3,0.2C43.7,25.4,43.6,25.6,43.6,26z M43.4,26c0-0.3,0-0.5,0.1-0.6
		c0.1-0.2,0.1-0.3,0.2-0.4c0.1-0.1,0.2-0.1,0.4-0.1c0.1,0,0.2,0,0.3,0.1c0.1,0,0.2,0.1,0.2,0.2c0.1,0.1,0.1,0.2,0.1,0.3
		c0,0.1,0.1,0.3,0.1,0.5c0,0.3,0,0.5-0.1,0.6c-0.1,0.2-0.1,0.3-0.2,0.4c-0.1,0.1-0.2,0.1-0.4,0.1c-0.2,0-0.4-0.1-0.5-0.2
		C43.4,26.7,43.4,26.4,43.4,26z M42.7,27.1h-0.3v-1.7c-0.1,0.1-0.2,0.1-0.3,0.2c-0.1,0.1-0.2,0.1-0.3,0.1v-0.3
		c0.2-0.1,0.3-0.2,0.4-0.3c0.1-0.1,0.2-0.2,0.2-0.3h0.2V27.1z M40.2,26c0,0.4,0,0.6,0.1,0.7c0.1,0.1,0.2,0.2,0.3,0.2
		c0.1,0,0.2-0.1,0.3-0.2c0.1-0.1,0.1-0.4,0.1-0.7c0-0.4,0-0.6-0.1-0.7c-0.1-0.1-0.2-0.2-0.3-0.2c-0.1,0-0.2,0.1-0.3,0.2
		C40.2,25.4,40.2,25.6,40.2,26z M39.9,26c0-0.3,0-0.5,0.1-0.6c0.1-0.2,0.1-0.3,0.2-0.4c0.1-0.1,0.2-0.1,0.4-0.1c0.1,0,0.2,0,0.3,0.1
		c0.1,0,0.2,0.1,0.2,0.2c0.1,0.1,0.1,0.2,0.1,0.3c0,0.1,0.1,0.3,0.1,0.5c0,0.3,0,0.5-0.1,0.6c-0.1,0.2-0.1,0.3-0.2,0.4
		c-0.1,0.1-0.2,0.1-0.4,0.1c-0.2,0-0.4-0.1-0.5-0.2C40,26.7,39.9,26.4,39.9,26z M39.2,27.1H39v-1.7c-0.1,0.1-0.2,0.1-0.3,0.2
		c-0.1,0.1-0.2,0.1-0.3,0.1v-0.3c0.2-0.1,0.3-0.2,0.4-0.3c0.1-0.1,0.2-0.2,0.2-0.3h0.2V27.1z M36.8,26c0,0.4,0,0.6,0.1,0.7
		c0.1,0.1,0.2,0.2,0.3,0.2c0.1,0,0.2-0.1,0.3-0.2c0.1-0.1,0.1-0.4,0.1-0.7c0-0.4,0-0.6-0.1-0.7c-0.1-0.1-0.2-0.2-0.3-0.2
		c-0.1,0-0.2,0.1-0.3,0.2C36.8,25.4,36.8,25.6,36.8,26z M36.5,26c0-0.3,0-0.5,0.1-0.6c0.1-0.2,0.1-0.3,0.2-0.4
		c0.1-0.1,0.2-0.1,0.4-0.1c0.1,0,0.2,0,0.3,0.1c0.1,0,0.2,0.1,0.2,0.2c0.1,0.1,0.1,0.2,0.1,0.3c0,0.1,0,0.3,0,0.5
		c0,0.3,0,0.5-0.1,0.6c-0.1,0.2-0.1,0.3-0.2,0.4c-0.1,0.1-0.2,0.1-0.4,0.1c-0.2,0-0.4-0.1-0.5-0.2C36.6,26.7,36.5,26.4,36.5,26z
		 M35.8,27.1h-0.3v-1.7c-0.1,0.1-0.2,0.1-0.3,0.2c-0.1,0.1-0.2,0.1-0.3,0.1v-0.3c0.2-0.1,0.3-0.2,0.4-0.3c0.1-0.1,0.2-0.2,0.2-0.3
		h0.2V27.1z M33.3,26c0,0.4,0,0.6,0.1,0.7c0.1,0.1,0.2,0.2,0.3,0.2c0.1,0,0.2-0.1,0.3-0.2c0.1-0.1,0.1-0.4,0.1-0.7
		c0-0.4,0-0.6-0.1-0.7c-0.1-0.1-0.2-0.2-0.3-0.2c-0.1,0-0.2,0.1-0.3,0.2C33.4,25.4,33.3,25.6,33.3,26z M33,26c0-0.3,0-0.5,0.1-0.6
		c0.1-0.2,0.1-0.3,0.2-0.4c0.1-0.1,0.2-0.1,0.4-0.1c0.1,0,0.2,0,0.3,0.1c0.1,0,0.2,0.1,0.2,0.2c0.1,0.1,0.1,0.2,0.1,0.3
		c0,0.1,0.1,0.3,0.1,0.5c0,0.3,0,0.5-0.1,0.6c-0.1,0.2-0.1,0.3-0.2,0.4c-0.1,0.1-0.2,0.1-0.4,0.1c-0.2,0-0.4-0.1-0.5-0.2
		C33.1,26.7,33,26.4,33,26z M32.3,27.1h-0.3v-1.7c-0.1,0.1-0.2,0.1-0.3,0.2c-0.1,0.1-0.2,0.1-0.3,0.1v-0.3c0.2-0.1,0.3-0.2,0.4-0.3
		c0.1-0.1,0.2-0.2,0.2-0.3h0.2V27.1z M29.9,26c0,0.4,0,0.6,0.1,0.7c0.1,0.1,0.2,0.2,0.3,0.2c0.1,0,0.2-0.1,0.3-0.2
		c0.1-0.1,0.1-0.4,0.1-0.7c0-0.4,0-0.6-0.1-0.7c-0.1-0.1-0.2-0.2-0.3-0.2c-0.1,0-0.2,0.1-0.3,0.2C29.9,25.4,29.9,25.6,29.9,26z
		 M29.6,26c0-0.3,0-0.5,0.1-0.6c0.1-0.2,0.1-0.3,0.2-0.4c0.1-0.1,0.2-0.1,0.4-0.1c0.1,0,0.2,0,0.3,0.1c0.1,0,0.2,0.1,0.2,0.2
		c0.1,0.1,0.1,0.2,0.1,0.3c0,0.1,0.1,0.3,0.1,0.5c0,0.3,0,0.5-0.1,0.6c-0.1,0.2-0.1,0.3-0.2,0.4c-0.1,0.1-0.2,0.1-0.4,0.1
		c-0.2,0-0.4-0.1-0.5-0.2C29.7,26.7,29.6,26.4,29.6,26z M28.9,27.1h-0.3v-1.7c-0.1,0.1-0.2,0.1-0.3,0.2c-0.1,0.1-0.2,0.1-0.3,0.1
		v-0.3c0.2-0.1,0.3-0.2,0.4-0.3c0.1-0.1,0.2-0.2,0.2-0.3h0.2V27.1z M26.4,26c0,0.4,0,0.6,0.1,0.7c0.1,0.1,0.2,0.2,0.3,0.2
		c0.1,0,0.2-0.1,0.3-0.2c0.1-0.1,0.1-0.4,0.1-0.7c0-0.4,0-0.6-0.1-0.7c-0.1-0.1-0.2-0.2-0.3-0.2c-0.1,0-0.2,0.1-0.3,0.2
		C26.5,25.4,26.4,25.6,26.4,26z M26.1,26c0-0.3,0-0.5,0.1-0.6c0.1-0.2,0.1-0.3,0.2-0.4c0.1-0.1,0.2-0.1,0.4-0.1c0.1,0,0.2,0,0.3,0.1
		c0.1,0,0.2,0.1,0.2,0.2c0.1,0.1,0.1,0.2,0.1,0.3c0,0.1,0.1,0.3,0.1,0.5c0,0.3,0,0.5-0.1,0.6c-0.1,0.2-0.1,0.3-0.2,0.4
		c-0.1,0.1-0.2,0.1-0.4,0.1c-0.2,0-0.4-0.1-0.5-0.2C26.2,26.7,26.1,26.4,26.1,26z M25.4,27.1h-0.3v-1.7c-0.1,0.1-0.2,0.1-0.3,0.2
		c-0.1,0.1-0.2,0.1-0.3,0.1v-0.3c0.2-0.1,0.3-0.2,0.4-0.3c0.1-0.1,0.2-0.2,0.2-0.3h0.2V27.1z M23,26c0,0.4,0,0.6,0.1,0.7
		c0.1,0.1,0.2,0.2,0.3,0.2c0.1,0,0.2-0.1,0.3-0.2c0.1-0.1,0.1-0.4,0.1-0.7c0-0.4,0-0.6-0.1-0.7c-0.1-0.1-0.2-0.2-0.3-0.2
		c-0.1,0-0.2,0.1-0.3,0.2C23,25.4,23,25.6,23,26z M22.7,26c0-0.3,0-0.5,0.1-0.6c0.1-0.2,0.1-0.3,0.2-0.4c0.1-0.1,0.2-0.1,0.4-0.1
		c0.1,0,0.2,0,0.3,0.1c0.1,0,0.2,0.1,0.2,0.2c0.1,0.1,0.1,0.2,0.1,0.3c0,0.1,0.1,0.3,0.1,0.5c0,0.3,0,0.5-0.1,0.6
		c-0.1,0.2-0.1,0.3-0.2,0.4c-0.1,0.1-0.2,0.1-0.4,0.1c-0.2,0-0.4-0.1-0.5-0.2C22.8,26.7,22.7,26.4,22.7,26z M22,27.1h-0.3v-1.7
		c-0.1,0.1-0.2,0.1-0.3,0.2c-0.1,0.1-0.2,0.1-0.3,0.1v-0.3c0.2-0.1,0.3-0.2,0.4-0.3c0.1-0.1,0.2-0.2,0.2-0.3H22V27.1z M19.5,26
		c0,0.4,0,0.6,0.1,0.7c0.1,0.1,0.2,0.2,0.3,0.2s0.2-0.1,0.3-0.2c0.1-0.1,0.1-0.4,0.1-0.7c0-0.4,0-0.6-0.1-0.7
		c-0.1-0.1-0.2-0.2-0.3-0.2c-0.1,0-0.2,0.1-0.3,0.2C19.6,25.4,19.5,25.6,19.5,26z M19.2,26c0-0.3,0-0.5,0.1-0.6
		c0.1-0.2,0.1-0.3,0.2-0.4c0.1-0.1,0.2-0.1,0.4-0.1c0.1,0,0.2,0,0.3,0.1c0.1,0,0.2,0.1,0.2,0.2c0.1,0.1,0.1,0.2,0.1,0.3
		c0,0.1,0.1,0.3,0.1,0.5c0,0.3,0,0.5-0.1,0.6c-0.1,0.2-0.1,0.3-0.2,0.4c-0.1,0.1-0.2,0.1-0.4,0.1c-0.2,0-0.4-0.1-0.5-0.2
		C19.3,26.7,19.2,26.4,19.2,26z M47.8,23.6h-0.3v-1.7c-0.1,0.1-0.2,0.1-0.3,0.2c-0.1,0.1-0.2,0.1-0.3,0.1v-0.3
		c0.2-0.1,0.3-0.2,0.4-0.3c0.1-0.1,0.2-0.2,0.2-0.3h0.2V23.6z M45.4,22.5c0,0.4,0,0.6,0.1,0.7c0.1,0.1,0.2,0.2,0.3,0.2
		c0.1,0,0.2-0.1,0.3-0.2c0.1-0.1,0.1-0.4,0.1-0.7c0-0.4,0-0.6-0.1-0.7c-0.1-0.1-0.2-0.2-0.3-0.2c-0.1,0-0.2,0.1-0.3,0.2
		C45.4,21.9,45.4,22.1,45.4,22.5z M45.1,22.5c0-0.3,0-0.5,0.1-0.6c0.1-0.2,0.1-0.3,0.2-0.4c0.1-0.1,0.2-0.1,0.4-0.1
		c0.1,0,0.2,0,0.3,0.1c0.1,0,0.2,0.1,0.2,0.2c0.1,0.1,0.1,0.2,0.1,0.3c0,0.1,0.1,0.3,0.1,0.5c0,0.3,0,0.5-0.1,0.6
		c-0.1,0.2-0.1,0.3-0.2,0.4c-0.1,0.1-0.2,0.1-0.4,0.1c-0.2,0-0.4-0.1-0.5-0.2C45.2,23.2,45.1,22.9,45.1,22.5z M44.4,23.6h-0.3v-1.7
		c-0.1,0.1-0.2,0.1-0.3,0.2c-0.1,0.1-0.2,0.1-0.3,0.1v-0.3c0.2-0.1,0.3-0.2,0.4-0.3c0.1-0.1,0.2-0.2,0.2-0.3h0.2V23.6z M41.9,22.5
		c0,0.4,0,0.6,0.1,0.7c0.1,0.1,0.2,0.2,0.3,0.2c0.1,0,0.2-0.1,0.3-0.2c0.1-0.1,0.1-0.4,0.1-0.7c0-0.4,0-0.6-0.1-0.7
		c-0.1-0.1-0.2-0.2-0.3-0.2c-0.1,0-0.2,0.1-0.3,0.2C42,21.9,41.9,22.1,41.9,22.5z M41.6,22.5c0-0.3,0-0.5,0.1-0.6
		c0.1-0.2,0.1-0.3,0.2-0.4c0.1-0.1,0.2-0.1,0.4-0.1c0.1,0,0.2,0,0.3,0.1c0.1,0,0.2,0.1,0.2,0.2C43,21.7,43,21.9,43,22
		c0,0.1,0.1,0.3,0.1,0.5c0,0.3,0,0.5-0.1,0.6c-0.1,0.2-0.1,0.3-0.2,0.4c-0.1,0.1-0.2,0.1-0.4,0.1c-0.2,0-0.4-0.1-0.5-0.2
		C41.7,23.2,41.6,22.9,41.6,22.5z M40.9,23.6h-0.3v-1.7c-0.1,0.1-0.2,0.1-0.3,0.2c-0.1,0.1-0.2,0.1-0.3,0.1v-0.3
		c0.2-0.1,0.3-0.2,0.4-0.3c0.1-0.1,0.2-0.2,0.2-0.3h0.2V23.6z M38.5,22.5c0,0.4,0,0.6,0.1,0.7c0.1,0.1,0.2,0.2,0.3,0.2
		c0.1,0,0.2-0.1,0.3-0.2c0.1-0.1,0.1-0.4,0.1-0.7c0-0.4,0-0.6-0.1-0.7c-0.1-0.1-0.2-0.2-0.3-0.2c-0.1,0-0.2,0.1-0.3,0.2
		C38.5,21.9,38.5,22.1,38.5,22.5z M38.2,22.5c0-0.3,0-0.5,0.1-0.6c0.1-0.2,0.1-0.3,0.2-0.4c0.1-0.1,0.2-0.1,0.4-0.1
		c0.1,0,0.2,0,0.3,0.1c0.1,0,0.2,0.1,0.2,0.2c0.1,0.1,0.1,0.2,0.1,0.3c0,0.1,0.1,0.3,0.1,0.5c0,0.3,0,0.5-0.1,0.6
		c-0.1,0.2-0.1,0.3-0.2,0.4c-0.1,0.1-0.2,0.1-0.4,0.1c-0.2,0-0.4-0.1-0.5-0.2C38.3,23.2,38.2,22.9,38.2,22.5z M37.5,23.6h-0.3v-1.7
		c-0.1,0.1-0.2,0.1-0.3,0.2c-0.1,0.1-0.2,0.1-0.3,0.1v-0.3c0.2-0.1,0.3-0.2,0.4-0.3c0.1-0.1,0.2-0.2,0.2-0.3h0.2V23.6z M35,22.5
		c0,0.4,0,0.6,0.1,0.7c0.1,0.1,0.2,0.2,0.3,0.2c0.1,0,0.2-0.1,0.3-0.2c0.1-0.1,0.1-0.4,0.1-0.7c0-0.4,0-0.6-0.1-0.7
		c-0.1-0.1-0.2-0.2-0.3-0.2c-0.1,0-0.2,0.1-0.3,0.2C35.1,21.9,35,22.1,35,22.5z M34.8,22.5c0-0.3,0-0.5,0.1-0.6
		c0.1-0.2,0.1-0.3,0.2-0.4c0.1-0.1,0.2-0.1,0.4-0.1c0.1,0,0.2,0,0.3,0.1c0.1,0,0.2,0.1,0.2,0.2c0.1,0.1,0.1,0.2,0.1,0.3
		c0,0.1,0.1,0.3,0.1,0.5c0,0.3,0,0.5-0.1,0.6c-0.1,0.2-0.1,0.3-0.2,0.4c-0.1,0.1-0.2,0.1-0.4,0.1c-0.2,0-0.4-0.1-0.5-0.2
		C34.8,23.2,34.8,22.9,34.8,22.5z M34.1,23.6h-0.3v-1.7c-0.1,0.1-0.2,0.1-0.3,0.2c-0.1,0.1-0.2,0.1-0.3,0.1v-0.3
		c0.2-0.1,0.3-0.2,0.4-0.3c0.1-0.1,0.2-0.2,0.2-0.3h0.2V23.6z M31.6,22.5c0,0.4,0,0.6,0.1,0.7c0.1,0.1,0.2,0.2,0.3,0.2
		c0.1,0,0.2-0.1,0.3-0.2c0.1-0.1,0.1-0.4,0.1-0.7c0-0.4,0-0.6-0.1-0.7c-0.1-0.1-0.2-0.2-0.3-0.2c-0.1,0-0.2,0.1-0.3,0.2
		C31.6,21.9,31.6,22.1,31.6,22.5z M31.3,22.5c0-0.3,0-0.5,0.1-0.6c0.1-0.2,0.1-0.3,0.2-0.4c0.1-0.1,0.2-0.1,0.4-0.1
		c0.1,0,0.2,0,0.3,0.1c0.1,0,0.2,0.1,0.2,0.2c0.1,0.1,0.1,0.2,0.1,0.3c0,0.1,0.1,0.3,0.1,0.5c0,0.3,0,0.5-0.1,0.6
		c-0.1,0.2-0.1,0.3-0.2,0.4c-0.1,0.1-0.2,0.1-0.4,0.1c-0.2,0-0.4-0.1-0.5-0.2C31.4,23.2,31.3,22.9,31.3,22.5z M30.6,23.6h-0.3v-1.7
		c-0.1,0.1-0.2,0.1-0.3,0.2c-0.1,0.1-0.2,0.1-0.3,0.1v-0.3c0.2-0.1,0.3-0.2,0.4-0.3c0.1-0.1,0.2-0.2,0.2-0.3h0.2V23.6z M28.1,22.5
		c0,0.4,0,0.6,0.1,0.7c0.1,0.1,0.2,0.2,0.3,0.2c0.1,0,0.2-0.1,0.3-0.2c0.1-0.1,0.1-0.4,0.1-0.7c0-0.4,0-0.6-0.1-0.7
		c-0.1-0.1-0.2-0.2-0.3-0.2c-0.1,0-0.2,0.1-0.3,0.2C28.2,21.9,28.1,22.1,28.1,22.5z M27.9,22.5c0-0.3,0-0.5,0.1-0.6
		c0.1-0.2,0.1-0.3,0.2-0.4c0.1-0.1,0.2-0.1,0.4-0.1c0.1,0,0.2,0,0.3,0.1c0.1,0,0.2,0.1,0.2,0.2c0.1,0.1,0.1,0.2,0.1,0.3
		c0,0.1,0.1,0.3,0.1,0.5c0,0.3,0,0.5-0.1,0.6c-0.1,0.2-0.1,0.3-0.2,0.4c-0.1,0.1-0.2,0.1-0.4,0.1c-0.2,0-0.4-0.1-0.5-0.2
		C27.9,23.2,27.9,22.9,27.9,22.5z M27.2,23.6h-0.3v-1.7c-0.1,0.1-0.2,0.1-0.3,0.2c-0.1,0.1-0.2,0.1-0.3,0.1v-0.3
		c0.2-0.1,0.3-0.2,0.4-0.3c0.1-0.1,0.2-0.2,0.2-0.3h0.2V23.6z M24.7,22.5c0,0.4,0,0.6,0.1,0.7c0.1,0.1,0.2,0.2,0.3,0.2
		c0.1,0,0.2-0.1,0.3-0.2c0.1-0.1,0.1-0.4,0.1-0.7c0-0.4,0-0.6-0.1-0.7c-0.1-0.1-0.2-0.2-0.3-0.2c-0.1,0-0.2,0.1-0.3,0.2
		C24.7,21.9,24.7,22.1,24.7,22.5z M18.3,24.9c0.1,0.3,0.1,0.6,0.2,0.9v-1L18.3,24.9C18.4,24.9,18.3,24.9,18.3,24.9z M47.4,27.1
		c0-0.1,0-0.1,0.1-0.2c-0.1,0-0.1-0.1-0.2-0.2c-0.1-0.1-0.1-0.4-0.1-0.7c0-0.4,0-0.6,0.1-0.7c0.1-0.1,0.2-0.2,0.3-0.2
		c0.1,0,0.2,0,0.3,0.1c0-0.1,0-0.2,0.1-0.3c0,0,0,0,0,0c-0.1,0-0.2-0.1-0.3-0.1c-0.2,0-0.3,0-0.4,0.1c-0.1,0.1-0.2,0.2-0.2,0.4
		c-0.1,0.2-0.1,0.4-0.1,0.6c0,0.4,0.1,0.7,0.2,0.9C47.1,27,47.2,27.1,47.4,27.1z M24.4,22.5c0-0.3,0-0.5,0.1-0.6
		c0.1-0.2,0.1-0.3,0.2-0.4c0.1-0.1,0.2-0.1,0.4-0.1c0.1,0,0.2,0,0.3,0.1c0.1,0,0.2,0.1,0.2,0.2c0.1,0.1,0.1,0.2,0.1,0.3
		c0,0.1,0.1,0.3,0.1,0.5c0,0.3,0,0.5-0.1,0.6c-0.1,0.2-0.1,0.3-0.2,0.4c-0.1,0.1-0.2,0.1-0.4,0.1c-0.2,0-0.4-0.1-0.5-0.2
		C24.5,23.2,24.4,22.9,24.4,22.5z"/>
	<path opacity="0.2" fill="#FFFFFF" d="M37.5,37.5h-0.3v-1.7c-0.1,0.1-0.2,0.1-0.3,0.2C36.9,36,36.8,36,36.7,36v-0.3
		c0.2-0.1,0.3-0.2,0.4-0.3c0.1-0.1,0.2-0.2,0.2-0.3h0.2V37.5z M35,36.4c0,0.4,0,0.6,0.1,0.7c0.1,0.1,0.2,0.2,0.3,0.2
		c0.1,0,0.2-0.1,0.3-0.2c0.1-0.1,0.1-0.4,0.1-0.7c0-0.4,0-0.6-0.1-0.7c-0.1-0.1-0.2-0.2-0.3-0.2c-0.1,0-0.2,0.1-0.3,0.2
		C35.1,35.7,35,36,35,36.4z M34.8,36.4c0-0.3,0-0.5,0.1-0.6c0.1-0.2,0.1-0.3,0.2-0.4c0.1-0.1,0.2-0.1,0.4-0.1c0.1,0,0.2,0,0.3,0.1
		c0.1,0,0.2,0.1,0.2,0.2c0.1,0.1,0.1,0.2,0.1,0.3c0,0.1,0.1,0.3,0.1,0.5c0,0.3,0,0.5-0.1,0.6c-0.1,0.2-0.1,0.3-0.2,0.4
		c-0.1,0.1-0.2,0.1-0.4,0.1c-0.2,0-0.4-0.1-0.5-0.2C34.8,37.1,34.8,36.8,34.8,36.4z M34.1,37.5h-0.3v-1.7c-0.1,0.1-0.2,0.1-0.3,0.2
		C33.4,36,33.3,36,33.2,36v-0.3c0.2-0.1,0.3-0.2,0.4-0.3c0.1-0.1,0.2-0.2,0.2-0.3h0.2V37.5z M31.6,36.4c0,0.4,0,0.6,0.1,0.7
		c0.1,0.1,0.2,0.2,0.3,0.2c0.1,0,0.2-0.1,0.3-0.2c0.1-0.1,0.1-0.4,0.1-0.7c0-0.4,0-0.6-0.1-0.7c-0.1-0.1-0.2-0.2-0.3-0.2
		c-0.1,0-0.2,0.1-0.3,0.2C31.6,35.7,31.6,36,31.6,36.4z M31.3,36.4c0-0.3,0-0.5,0.1-0.6c0.1-0.2,0.1-0.3,0.2-0.4
		c0.1-0.1,0.2-0.1,0.4-0.1c0.1,0,0.2,0,0.3,0.1c0.1,0,0.2,0.1,0.2,0.2c0.1,0.1,0.1,0.2,0.1,0.3c0,0.1,0.1,0.3,0.1,0.5
		c0,0.3,0,0.5-0.1,0.6c-0.1,0.2-0.1,0.3-0.2,0.4c-0.1,0.1-0.2,0.1-0.4,0.1c-0.2,0-0.4-0.1-0.5-0.2C31.4,37.1,31.3,36.8,31.3,36.4z
		 M30.6,37.5h-0.3v-1.7c-0.1,0.1-0.2,0.1-0.3,0.2C30,36,29.9,36,29.8,36v-0.3c0.2-0.1,0.3-0.2,0.4-0.3c0.1-0.1,0.2-0.2,0.2-0.3h0.2
		V37.5z M28.1,36.4c0,0.4,0,0.6,0.1,0.7c0.1,0.1,0.2,0.2,0.3,0.2c0.1,0,0.2-0.1,0.3-0.2C29,37,29,36.7,29,36.4c0-0.4,0-0.6-0.1-0.7
		c-0.1-0.1-0.2-0.2-0.3-0.2c-0.1,0-0.2,0.1-0.3,0.2C28.2,35.7,28.1,36,28.1,36.4z M27.9,36.4c0-0.3,0-0.5,0.1-0.6
		c0.1-0.2,0.1-0.3,0.2-0.4c0.1-0.1,0.2-0.1,0.4-0.1c0.1,0,0.2,0,0.3,0.1c0.1,0,0.2,0.1,0.2,0.2c0.1,0.1,0.1,0.2,0.1,0.3
		c0,0.1,0.1,0.3,0.1,0.5c0,0.3,0,0.5-0.1,0.6c-0.1,0.2-0.1,0.3-0.2,0.4c-0.1,0.1-0.2,0.1-0.4,0.1c-0.2,0-0.4-0.1-0.5-0.2
		C27.9,37.1,27.9,36.8,27.9,36.4z M27.2,37.5h-0.3v-1.7c-0.1,0.1-0.2,0.1-0.3,0.2C26.5,36,26.4,36,26.3,36v-0.3
		c0.2-0.1,0.3-0.2,0.4-0.3c0.1-0.1,0.2-0.2,0.2-0.3h0.2V37.5z M24.7,36.4c0,0.4,0,0.6,0.1,0.7c0.1,0.1,0.2,0.2,0.3,0.2
		c0.1,0,0.2-0.1,0.3-0.2c0.1-0.1,0.1-0.4,0.1-0.7c0-0.4,0-0.6-0.1-0.7c-0.1-0.1-0.2-0.2-0.3-0.2c-0.1,0-0.2,0.1-0.3,0.2
		C24.7,35.7,24.7,36,24.7,36.4z M24.4,36.4c0-0.3,0-0.5,0.1-0.6c0.1-0.2,0.1-0.3,0.2-0.4c0.1-0.1,0.2-0.1,0.4-0.1
		c0.1,0,0.2,0,0.3,0.1c0.1,0,0.2,0.1,0.2,0.2c0.1,0.1,0.1,0.2,0.1,0.3c0,0.1,0.1,0.3,0.1,0.5c0,0.3,0,0.5-0.1,0.6
		c-0.1,0.2-0.1,0.3-0.2,0.4c-0.1,0.1-0.2,0.1-0.4,0.1c-0.2,0-0.4-0.1-0.5-0.2C24.5,37.1,24.4,36.8,24.4,36.4z M23.7,37.5h-0.3v-1.7
		c-0.1,0.1-0.2,0.1-0.3,0.2C23.1,36,23,36,22.9,36v-0.3c0.2-0.1,0.3-0.2,0.4-0.3c0.1-0.1,0.2-0.2,0.2-0.3h0.2V37.5z M43.6,32.9
		c0,0.4,0,0.6,0.1,0.7c0.1,0.1,0.2,0.2,0.3,0.2c0.1,0,0.2-0.1,0.3-0.2c0.1-0.1,0.1-0.4,0.1-0.7c0-0.4,0-0.6-0.1-0.7
		C44.3,32,44.2,32,44.1,32c-0.1,0-0.2,0.1-0.3,0.2C43.7,32.3,43.6,32.5,43.6,32.9z M43.4,32.9c0-0.3,0-0.5,0.1-0.6
		c0.1-0.2,0.1-0.3,0.2-0.4c0.1-0.1,0.2-0.1,0.4-0.1c0.1,0,0.2,0,0.3,0.1c0.1,0,0.2,0.1,0.2,0.2c0.1,0.1,0.1,0.2,0.1,0.3
		c0,0.1,0.1,0.3,0.1,0.5c0,0.3,0,0.5-0.1,0.6c-0.1,0.2-0.1,0.3-0.2,0.4C44.4,34,44.3,34,44.1,34c-0.2,0-0.4-0.1-0.5-0.2
		C43.4,33.6,43.4,33.3,43.4,32.9z M42.7,34h-0.3v-1.7c-0.1,0.1-0.2,0.1-0.3,0.2c-0.1,0.1-0.2,0.1-0.3,0.1v-0.3
		c0.2-0.1,0.3-0.2,0.4-0.3c0.1-0.1,0.2-0.2,0.2-0.3h0.2V34z M40.2,32.9c0,0.4,0,0.6,0.1,0.7c0.1,0.1,0.2,0.2,0.3,0.2
		c0.1,0,0.2-0.1,0.3-0.2c0.1-0.1,0.1-0.4,0.1-0.7c0-0.4,0-0.6-0.1-0.7C40.9,32,40.8,32,40.6,32c-0.1,0-0.2,0.1-0.3,0.2
		C40.2,32.3,40.2,32.5,40.2,32.9z M39.9,32.9c0-0.3,0-0.5,0.1-0.6c0.1-0.2,0.1-0.3,0.2-0.4c0.1-0.1,0.2-0.1,0.4-0.1
		c0.1,0,0.2,0,0.3,0.1c0.1,0,0.2,0.1,0.2,0.2c0.1,0.1,0.1,0.2,0.1,0.3c0,0.1,0.1,0.3,0.1,0.5c0,0.3,0,0.5-0.1,0.6
		c-0.1,0.2-0.1,0.3-0.2,0.4C40.9,34,40.8,34,40.6,34c-0.2,0-0.4-0.1-0.5-0.2C40,33.6,39.9,33.3,39.9,32.9z M39.2,34H39v-1.7
		c-0.1,0.1-0.2,0.1-0.3,0.2c-0.1,0.1-0.2,0.1-0.3,0.1v-0.3c0.2-0.1,0.3-0.2,0.4-0.3c0.1-0.1,0.2-0.2,0.2-0.3h0.2V34z M36.8,32.9
		c0,0.4,0,0.6,0.1,0.7c0.1,0.1,0.2,0.2,0.3,0.2c0.1,0,0.2-0.1,0.3-0.2c0.1-0.1,0.1-0.4,0.1-0.7c0-0.4,0-0.6-0.1-0.7
		C37.4,32,37.3,32,37.2,32c-0.1,0-0.2,0.1-0.3,0.2C36.8,32.3,36.8,32.5,36.8,32.9z M36.5,32.9c0-0.3,0-0.5,0.1-0.6
		c0.1-0.2,0.1-0.3,0.2-0.4c0.1-0.1,0.2-0.1,0.4-0.1c0.1,0,0.2,0,0.3,0.1c0.1,0,0.2,0.1,0.2,0.2c0.1,0.1,0.1,0.2,0.1,0.3
		c0,0.1,0,0.3,0,0.5c0,0.3,0,0.5-0.1,0.6c-0.1,0.2-0.1,0.3-0.2,0.4C37.5,34,37.4,34,37.2,34c-0.2,0-0.4-0.1-0.5-0.2
		C36.6,33.6,36.5,33.3,36.5,32.9z M35.8,34h-0.3v-1.7c-0.1,0.1-0.2,0.1-0.3,0.2c-0.1,0.1-0.2,0.1-0.3,0.1v-0.3
		c0.2-0.1,0.3-0.2,0.4-0.3c0.1-0.1,0.2-0.2,0.2-0.3h0.2V34z M33.3,32.9c0,0.4,0,0.6,0.1,0.7c0.1,0.1,0.2,0.2,0.3,0.2
		c0.1,0,0.2-0.1,0.3-0.2c0.1-0.1,0.1-0.4,0.1-0.7c0-0.4,0-0.6-0.1-0.7C34,32,33.9,32,33.7,32c-0.1,0-0.2,0.1-0.3,0.2
		C33.4,32.3,33.3,32.5,33.3,32.9z M33,32.9c0-0.3,0-0.5,0.1-0.6c0.1-0.2,0.1-0.3,0.2-0.4c0.1-0.1,0.2-0.1,0.4-0.1
		c0.1,0,0.2,0,0.3,0.1c0.1,0,0.2,0.1,0.2,0.2c0.1,0.1,0.1,0.2,0.1,0.3c0,0.1,0.1,0.3,0.1,0.5c0,0.3,0,0.5-0.1,0.6
		c-0.1,0.2-0.1,0.3-0.2,0.4C34,34,33.9,34,33.8,34c-0.2,0-0.4-0.1-0.5-0.2C33.1,33.6,33,33.3,33,32.9z M32.3,34h-0.3v-1.7
		c-0.1,0.1-0.2,0.1-0.3,0.2c-0.1,0.1-0.2,0.1-0.3,0.1v-0.3c0.2-0.1,0.3-0.2,0.4-0.3c0.1-0.1,0.2-0.2,0.2-0.3h0.2V34z M29.9,32.9
		c0,0.4,0,0.6,0.1,0.7c0.1,0.1,0.2,0.2,0.3,0.2c0.1,0,0.2-0.1,0.3-0.2c0.1-0.1,0.1-0.4,0.1-0.7c0-0.4,0-0.6-0.1-0.7
		C30.5,32,30.4,32,30.3,32c-0.1,0-0.2,0.1-0.3,0.2C29.9,32.3,29.9,32.5,29.9,32.9z M29.6,32.9c0-0.3,0-0.5,0.1-0.6
		c0.1-0.2,0.1-0.3,0.2-0.4c0.1-0.1,0.2-0.1,0.4-0.1c0.1,0,0.2,0,0.3,0.1c0.1,0,0.2,0.1,0.2,0.2c0.1,0.1,0.1,0.2,0.1,0.3
		c0,0.1,0.1,0.3,0.1,0.5c0,0.3,0,0.5-0.1,0.6c-0.1,0.2-0.1,0.3-0.2,0.4C30.6,34,30.5,34,30.3,34c-0.2,0-0.4-0.1-0.5-0.2
		C29.7,33.6,29.6,33.3,29.6,32.9z M28.9,34h-0.3v-1.7c-0.1,0.1-0.2,0.1-0.3,0.2c-0.1,0.1-0.2,0.1-0.3,0.1v-0.3
		c0.2-0.1,0.3-0.2,0.4-0.3c0.1-0.1,0.2-0.2,0.2-0.3h0.2V34z M26.4,32.9c0,0.4,0,0.6,0.1,0.7c0.1,0.1,0.2,0.2,0.3,0.2
		c0.1,0,0.2-0.1,0.3-0.2c0.1-0.1,0.1-0.4,0.1-0.7c0-0.4,0-0.6-0.1-0.7C27.1,32,27,32,26.9,32c-0.1,0-0.2,0.1-0.3,0.2
		C26.5,32.3,26.4,32.5,26.4,32.9z M26.1,32.9c0-0.3,0-0.5,0.1-0.6c0.1-0.2,0.1-0.3,0.2-0.4c0.1-0.1,0.2-0.1,0.4-0.1
		c0.1,0,0.2,0,0.3,0.1c0.1,0,0.2,0.1,0.2,0.2c0.1,0.1,0.1,0.2,0.1,0.3c0,0.1,0.1,0.3,0.1,0.5c0,0.3,0,0.5-0.1,0.6
		c-0.1,0.2-0.1,0.3-0.2,0.4C27.2,34,27,34,26.9,34c-0.2,0-0.4-0.1-0.5-0.2C26.2,33.6,26.1,33.3,26.1,32.9z M25.4,34h-0.3v-1.7
		c-0.1,0.1-0.2,0.1-0.3,0.2c-0.1,0.1-0.2,0.1-0.3,0.1v-0.3c0.2-0.1,0.3-0.2,0.4-0.3c0.1-0.1,0.2-0.2,0.2-0.3h0.2V34z M23,32.9
		c0,0.4,0,0.6,0.1,0.7c0.1,0.1,0.2,0.2,0.3,0.2c0.1,0,0.2-0.1,0.3-0.2c0.1-0.1,0.1-0.4,0.1-0.7c0-0.4,0-0.6-0.1-0.7
		C23.6,32,23.5,32,23.4,32c-0.1,0-0.2,0.1-0.3,0.2C23,32.3,23,32.5,23,32.9z M22.7,32.9c0-0.3,0-0.5,0.1-0.6
		c0.1-0.2,0.1-0.3,0.2-0.4c0.1-0.1,0.2-0.1,0.4-0.1c0.1,0,0.2,0,0.3,0.1c0.1,0,0.2,0.1,0.2,0.2c0.1,0.1,0.1,0.2,0.1,0.3
		c0,0.1,0.1,0.3,0.1,0.5c0,0.3,0,0.5-0.1,0.6c-0.1,0.2-0.1,0.3-0.2,0.4C23.7,34,23.6,34,23.4,34c-0.2,0-0.4-0.1-0.5-0.2
		C22.8,33.6,22.7,33.3,22.7,32.9z M22,34h-0.3v-1.7c-0.1,0.1-0.2,0.1-0.3,0.2c-0.1,0.1-0.2,0.1-0.3,0.1v-0.3
		c0.2-0.1,0.3-0.2,0.4-0.3c0.1-0.1,0.2-0.2,0.2-0.3H22V34z M45.4,29.4c0,0.4,0,0.6,0.1,0.7c0.1,0.1,0.2,0.2,0.3,0.2
		c0.1,0,0.2-0.1,0.3-0.2c0.1-0.1,0.1-0.4,0.1-0.7c0-0.4,0-0.6-0.1-0.7c-0.1-0.1-0.2-0.2-0.3-0.2c-0.1,0-0.2,0.1-0.3,0.2
		C45.4,28.8,45.4,29.1,45.4,29.4z M45.1,29.4c0-0.3,0-0.5,0.1-0.6c0.1-0.2,0.1-0.3,0.2-0.4c0.1-0.1,0.2-0.1,0.4-0.1
		c0.1,0,0.2,0,0.3,0.1c0.1,0,0.2,0.1,0.2,0.2c0.1,0.1,0.1,0.2,0.1,0.3c0,0.1,0.1,0.3,0.1,0.5c0,0.3,0,0.5-0.1,0.6
		c-0.1,0.2-0.1,0.3-0.2,0.4c-0.1,0.1-0.2,0.1-0.4,0.1c-0.2,0-0.4-0.1-0.5-0.2C45.2,30.2,45.1,29.9,45.1,29.4z M44.4,30.5h-0.3v-1.7
		c-0.1,0.1-0.2,0.1-0.3,0.2c-0.1,0.1-0.2,0.1-0.3,0.1v-0.3c0.2-0.1,0.3-0.2,0.4-0.3c0.1-0.1,0.2-0.2,0.2-0.3h0.2V30.5z M41.9,29.4
		c0,0.4,0,0.6,0.1,0.7c0.1,0.1,0.2,0.2,0.3,0.2c0.1,0,0.2-0.1,0.3-0.2c0.1-0.1,0.1-0.4,0.1-0.7c0-0.4,0-0.6-0.1-0.7
		c-0.1-0.1-0.2-0.2-0.3-0.2c-0.1,0-0.2,0.1-0.3,0.2C42,28.8,41.9,29.1,41.9,29.4z M41.6,29.4c0-0.3,0-0.5,0.1-0.6
		c0.1-0.2,0.1-0.3,0.2-0.4c0.1-0.1,0.2-0.1,0.4-0.1c0.1,0,0.2,0,0.3,0.1c0.1,0,0.2,0.1,0.2,0.2c0.1,0.1,0.1,0.2,0.1,0.3
		c0,0.1,0.1,0.3,0.1,0.5c0,0.3,0,0.5-0.1,0.6c-0.1,0.2-0.1,0.3-0.2,0.4c-0.1,0.1-0.2,0.1-0.4,0.1c-0.2,0-0.4-0.1-0.5-0.2
		C41.7,30.2,41.6,29.9,41.6,29.4z M40.9,30.5h-0.3v-1.7c-0.1,0.1-0.2,0.1-0.3,0.2c-0.1,0.1-0.2,0.1-0.3,0.1v-0.3
		c0.2-0.1,0.3-0.2,0.4-0.3c0.1-0.1,0.2-0.2,0.2-0.3h0.2V30.5z M38.5,29.4c0,0.4,0,0.6,0.1,0.7c0.1,0.1,0.2,0.2,0.3,0.2
		c0.1,0,0.2-0.1,0.3-0.2c0.1-0.1,0.1-0.4,0.1-0.7c0-0.4,0-0.6-0.1-0.7c-0.1-0.1-0.2-0.2-0.3-0.2c-0.1,0-0.2,0.1-0.3,0.2
		C38.5,28.8,38.5,29.1,38.5,29.4z M38.2,29.4c0-0.3,0-0.5,0.1-0.6c0.1-0.2,0.1-0.3,0.2-0.4c0.1-0.1,0.2-0.1,0.4-0.1
		c0.1,0,0.2,0,0.3,0.1c0.1,0,0.2,0.1,0.2,0.2c0.1,0.1,0.1,0.2,0.1,0.3c0,0.1,0.1,0.3,0.1,0.5c0,0.3,0,0.5-0.1,0.6
		c-0.1,0.2-0.1,0.3-0.2,0.4c-0.1,0.1-0.2,0.1-0.4,0.1c-0.2,0-0.4-0.1-0.5-0.2C38.3,30.2,38.2,29.9,38.2,29.4z M37.5,30.5h-0.3v-1.7
		c-0.1,0.1-0.2,0.1-0.3,0.2c-0.1,0.1-0.2,0.1-0.3,0.1v-0.3c0.2-0.1,0.3-0.2,0.4-0.3c0.1-0.1,0.2-0.2,0.2-0.3h0.2V30.5z M35,29.4
		c0,0.4,0,0.6,0.1,0.7c0.1,0.1,0.2,0.2,0.3,0.2c0.1,0,0.2-0.1,0.3-0.2c0.1-0.1,0.1-0.4,0.1-0.7c0-0.4,0-0.6-0.1-0.7
		c-0.1-0.1-0.2-0.2-0.3-0.2c-0.1,0-0.2,0.1-0.3,0.2C35.1,28.8,35,29.1,35,29.4z M34.8,29.4c0-0.3,0-0.5,0.1-0.6
		c0.1-0.2,0.1-0.3,0.2-0.4c0.1-0.1,0.2-0.1,0.4-0.1c0.1,0,0.2,0,0.3,0.1c0.1,0,0.2,0.1,0.2,0.2c0.1,0.1,0.1,0.2,0.1,0.3
		c0,0.1,0.1,0.3,0.1,0.5c0,0.3,0,0.5-0.1,0.6c-0.1,0.2-0.1,0.3-0.2,0.4c-0.1,0.1-0.2,0.1-0.4,0.1c-0.2,0-0.4-0.1-0.5-0.2
		C34.8,30.2,34.8,29.9,34.8,29.4z M34.1,30.5h-0.3v-1.7c-0.1,0.1-0.2,0.1-0.3,0.2c-0.1,0.1-0.2,0.1-0.3,0.1v-0.3
		c0.2-0.1,0.3-0.2,0.4-0.3c0.1-0.1,0.2-0.2,0.2-0.3h0.2V30.5z M31.6,29.4c0,0.4,0,0.6,0.1,0.7c0.1,0.1,0.2,0.2,0.3,0.2
		c0.1,0,0.2-0.1,0.3-0.2c0.1-0.1,0.1-0.4,0.1-0.7c0-0.4,0-0.6-0.1-0.7c-0.1-0.1-0.2-0.2-0.3-0.2c-0.1,0-0.2,0.1-0.3,0.2
		C31.6,28.8,31.6,29.1,31.6,29.4z M21.8,35.2c0,0.1,0.1,0.2,0.1,0.3c0,0,0.1,0.1,0.1,0.1c0,0.1,0.1,0.2,0.1,0.3
		c0.1,0.2,0.2,0.4,0.3,0.6c0-0.1,0-0.1,0-0.2c0-0.2,0-0.4-0.1-0.5c0-0.1-0.1-0.2-0.1-0.3c-0.1-0.1-0.1-0.2-0.2-0.2
		C21.9,35.3,21.9,35.2,21.8,35.2z M20.4,31.9c0.1,0.2,0.2,0.5,0.3,0.7c0-0.1,0-0.2,0-0.3c0-0.1-0.1-0.2-0.1-0.3
		C20.5,32,20.4,32,20.4,31.9z M45.6,32.4c0.1-0.2,0.1-0.3,0.2-0.5c0,0-0.1,0.1-0.1,0.1c-0.1,0.1-0.2,0.2-0.4,0.3v0.3
		C45.4,32.6,45.5,32.5,45.6,32.4C45.6,32.4,45.6,32.4,45.6,32.4z M31.3,29.4c0-0.3,0-0.5,0.1-0.6c0.1-0.2,0.1-0.3,0.2-0.4
		c0.1-0.1,0.2-0.1,0.4-0.1c0.1,0,0.2,0,0.3,0.1c0.1,0,0.2,0.1,0.2,0.2c0.1,0.1,0.1,0.2,0.1,0.3c0,0.1,0.1,0.3,0.1,0.5
		c0,0.3,0,0.5-0.1,0.6c-0.1,0.2-0.1,0.3-0.2,0.4c-0.1,0.1-0.2,0.1-0.4,0.1c-0.2,0-0.4-0.1-0.5-0.2C31.4,30.2,31.3,29.9,31.3,29.4z"
		/>
	<path opacity="0.2" fill="#FFFFFF" d="M37.5,44.4h-0.3v-1.7c-0.1,0.1-0.2,0.1-0.3,0.2c-0.1,0.1-0.2,0.1-0.3,0.1v-0.3
		c0.2-0.1,0.3-0.2,0.4-0.3c0.1-0.1,0.2-0.2,0.2-0.3h0.2V44.4z M35,43.3c0,0.4,0,0.6,0.1,0.7c0.1,0.1,0.2,0.2,0.3,0.2
		c0.1,0,0.2-0.1,0.3-0.2c0.1-0.1,0.1-0.4,0.1-0.7c0-0.4,0-0.6-0.1-0.7c-0.1-0.1-0.2-0.2-0.3-0.2c-0.1,0-0.2,0.1-0.3,0.2
		C35.1,42.7,35,42.9,35,43.3z M34.8,43.3c0-0.3,0-0.5,0.1-0.6c0.1-0.2,0.1-0.3,0.2-0.4c0.1-0.1,0.2-0.1,0.4-0.1c0.1,0,0.2,0,0.3,0.1
		c0.1,0,0.2,0.1,0.2,0.2c0.1,0.1,0.1,0.2,0.1,0.3c0,0.1,0.1,0.3,0.1,0.5c0,0.3,0,0.5-0.1,0.6c-0.1,0.2-0.1,0.3-0.2,0.4
		c-0.1,0.1-0.2,0.1-0.4,0.1c-0.2,0-0.4-0.1-0.5-0.2C34.8,44,34.8,43.7,34.8,43.3z M34.1,44.4h-0.3v-1.7c-0.1,0.1-0.2,0.1-0.3,0.2
		c-0.1,0.1-0.2,0.1-0.3,0.1v-0.3c0.2-0.1,0.3-0.2,0.4-0.3c0.1-0.1,0.2-0.2,0.2-0.3h0.2V44.4z M31.6,43.3c0,0.4,0,0.6,0.1,0.7
		c0.1,0.1,0.2,0.2,0.3,0.2c0.1,0,0.2-0.1,0.3-0.2c0.1-0.1,0.1-0.4,0.1-0.7c0-0.4,0-0.6-0.1-0.7c-0.1-0.1-0.2-0.2-0.3-0.2
		c-0.1,0-0.2,0.1-0.3,0.2C31.6,42.7,31.6,42.9,31.6,43.3z M31.3,43.3c0-0.3,0-0.5,0.1-0.6c0.1-0.2,0.1-0.3,0.2-0.4
		c0.1-0.1,0.2-0.1,0.4-0.1c0.1,0,0.2,0,0.3,0.1c0.1,0,0.2,0.1,0.2,0.2c0.1,0.1,0.1,0.2,0.1,0.3c0,0.1,0.1,0.3,0.1,0.5
		c0,0.3,0,0.5-0.1,0.6c-0.1,0.2-0.1,0.3-0.2,0.4c-0.1,0.1-0.2,0.1-0.4,0.1c-0.2,0-0.4-0.1-0.5-0.2C31.4,44,31.3,43.7,31.3,43.3z
		 M30.6,44.4h-0.3v-1.7c-0.1,0.1-0.2,0.1-0.3,0.2c-0.1,0.1-0.2,0.1-0.3,0.1v-0.3c0.2-0.1,0.3-0.2,0.4-0.3c0.1-0.1,0.2-0.2,0.2-0.3
		h0.2V44.4z M28.1,43.3c0,0.4,0,0.6,0.1,0.7c0.1,0.1,0.2,0.2,0.3,0.2c0.1,0,0.2-0.1,0.3-0.2c0.1-0.1,0.1-0.4,0.1-0.7
		c0-0.4,0-0.6-0.1-0.7c-0.1-0.1-0.2-0.2-0.3-0.2c-0.1,0-0.2,0.1-0.3,0.2C28.2,42.7,28.1,42.9,28.1,43.3z M27.9,43.3
		c0-0.3,0-0.5,0.1-0.6c0.1-0.2,0.1-0.3,0.2-0.4c0.1-0.1,0.2-0.1,0.4-0.1c0.1,0,0.2,0,0.3,0.1c0.1,0,0.2,0.1,0.2,0.2
		c0.1,0.1,0.1,0.2,0.1,0.3c0,0.1,0.1,0.3,0.1,0.5c0,0.3,0,0.5-0.1,0.6c-0.1,0.2-0.1,0.3-0.2,0.4c-0.1,0.1-0.2,0.1-0.4,0.1
		c-0.2,0-0.4-0.1-0.5-0.2C27.9,44,27.9,43.7,27.9,43.3z M40.2,39.8c0,0.4,0,0.6,0.1,0.7c0.1,0.1,0.2,0.2,0.3,0.2
		c0.1,0,0.2-0.1,0.3-0.2c0.1-0.1,0.1-0.4,0.1-0.7c0-0.4,0-0.6-0.1-0.7c-0.1-0.1-0.2-0.2-0.3-0.2c-0.1,0-0.2,0.1-0.3,0.2
		C40.2,39.2,40.2,39.5,40.2,39.8z M39.9,39.8c0-0.3,0-0.5,0.1-0.6c0.1-0.2,0.1-0.3,0.2-0.4c0.1-0.1,0.2-0.1,0.4-0.1
		c0.1,0,0.2,0,0.3,0.1c0.1,0,0.2,0.1,0.2,0.2c0.1,0.1,0.1,0.2,0.1,0.3c0,0.1,0.1,0.3,0.1,0.5c0,0.3,0,0.5-0.1,0.6
		c-0.1,0.2-0.1,0.3-0.2,0.4c-0.1,0.1-0.2,0.1-0.4,0.1c-0.2,0-0.4-0.1-0.5-0.2C40,40.5,39.9,40.2,39.9,39.8z M39.2,40.9H39v-1.7
		c-0.1,0.1-0.2,0.1-0.3,0.2c-0.1,0.1-0.2,0.1-0.3,0.1v-0.3c0.2-0.1,0.3-0.2,0.4-0.3c0.1-0.1,0.2-0.2,0.2-0.3h0.2V40.9z M36.8,39.8
		c0,0.4,0,0.6,0.1,0.7c0.1,0.1,0.2,0.2,0.3,0.2c0.1,0,0.2-0.1,0.3-0.2c0.1-0.1,0.1-0.4,0.1-0.7c0-0.4,0-0.6-0.1-0.7
		c-0.1-0.1-0.2-0.2-0.3-0.2c-0.1,0-0.2,0.1-0.3,0.2C36.8,39.2,36.8,39.5,36.8,39.8z M36.5,39.8c0-0.3,0-0.5,0.1-0.6
		c0.1-0.2,0.1-0.3,0.2-0.4c0.1-0.1,0.2-0.1,0.4-0.1c0.1,0,0.2,0,0.3,0.1c0.1,0,0.2,0.1,0.2,0.2c0.1,0.1,0.1,0.2,0.1,0.3
		c0,0.1,0,0.3,0,0.5c0,0.3,0,0.5-0.1,0.6c-0.1,0.2-0.1,0.3-0.2,0.4c-0.1,0.1-0.2,0.1-0.4,0.1c-0.2,0-0.4-0.1-0.5-0.2
		C36.6,40.5,36.5,40.2,36.5,39.8z M35.8,40.9h-0.3v-1.7c-0.1,0.1-0.2,0.1-0.3,0.2c-0.1,0.1-0.2,0.1-0.3,0.1v-0.3
		c0.2-0.1,0.3-0.2,0.4-0.3c0.1-0.1,0.2-0.2,0.2-0.3h0.2V40.9z M33.3,39.8c0,0.4,0,0.6,0.1,0.7c0.1,0.1,0.2,0.2,0.3,0.2
		c0.1,0,0.2-0.1,0.3-0.2c0.1-0.1,0.1-0.4,0.1-0.7c0-0.4,0-0.6-0.1-0.7c-0.1-0.1-0.2-0.2-0.3-0.2c-0.1,0-0.2,0.1-0.3,0.2
		C33.4,39.2,33.3,39.5,33.3,39.8z M33,39.8c0-0.3,0-0.5,0.1-0.6c0.1-0.2,0.1-0.3,0.2-0.4c0.1-0.1,0.2-0.1,0.4-0.1
		c0.1,0,0.2,0,0.3,0.1c0.1,0,0.2,0.1,0.2,0.2c0.1,0.1,0.1,0.2,0.1,0.3c0,0.1,0.1,0.3,0.1,0.5c0,0.3,0,0.5-0.1,0.6
		c-0.1,0.2-0.1,0.3-0.2,0.4C34,40.9,33.9,41,33.8,41c-0.2,0-0.4-0.1-0.5-0.2C33.1,40.5,33,40.2,33,39.8z M32.3,40.9h-0.3v-1.7
		c-0.1,0.1-0.2,0.1-0.3,0.2c-0.1,0.1-0.2,0.1-0.3,0.1v-0.3c0.2-0.1,0.3-0.2,0.4-0.3c0.1-0.1,0.2-0.2,0.2-0.3h0.2V40.9z M29.9,39.8
		c0,0.4,0,0.6,0.1,0.7c0.1,0.1,0.2,0.2,0.3,0.2c0.1,0,0.2-0.1,0.3-0.2c0.1-0.1,0.1-0.4,0.1-0.7c0-0.4,0-0.6-0.1-0.7
		c-0.1-0.1-0.2-0.2-0.3-0.2c-0.1,0-0.2,0.1-0.3,0.2C29.9,39.2,29.9,39.5,29.9,39.8z M29.6,39.8c0-0.3,0-0.5,0.1-0.6
		c0.1-0.2,0.1-0.3,0.2-0.4c0.1-0.1,0.2-0.1,0.4-0.1c0.1,0,0.2,0,0.3,0.1c0.1,0,0.2,0.1,0.2,0.2c0.1,0.1,0.1,0.2,0.1,0.3
		c0,0.1,0.1,0.3,0.1,0.5c0,0.3,0,0.5-0.1,0.6c-0.1,0.2-0.1,0.3-0.2,0.4c-0.1,0.1-0.2,0.1-0.4,0.1c-0.2,0-0.4-0.1-0.5-0.2
		C29.7,40.5,29.6,40.2,29.6,39.8z M28.9,40.9h-0.3v-1.7c-0.1,0.1-0.2,0.1-0.3,0.2c-0.1,0.1-0.2,0.1-0.3,0.1v-0.3
		c0.2-0.1,0.3-0.2,0.4-0.3c0.1-0.1,0.2-0.2,0.2-0.3h0.2V40.9z M26.4,39.8c0,0.4,0,0.6,0.1,0.7c0.1,0.1,0.2,0.2,0.3,0.2
		c0.1,0,0.2-0.1,0.3-0.2c0.1-0.1,0.1-0.4,0.1-0.7c0-0.4,0-0.6-0.1-0.7c-0.1-0.1-0.2-0.2-0.3-0.2c-0.1,0-0.2,0.1-0.3,0.2
		C26.5,39.2,26.4,39.5,26.4,39.8z M26.1,39.8c0-0.3,0-0.5,0.1-0.6c0.1-0.2,0.1-0.3,0.2-0.4c0.1-0.1,0.2-0.1,0.4-0.1
		c0.1,0,0.2,0,0.3,0.1c0.1,0,0.2,0.1,0.2,0.2c0.1,0.1,0.1,0.2,0.1,0.3c0,0.1,0.1,0.3,0.1,0.5c0,0.3,0,0.5-0.1,0.6
		c-0.1,0.2-0.1,0.3-0.2,0.4C27.2,40.9,27,41,26.9,41c-0.2,0-0.4-0.1-0.5-0.2C26.2,40.5,26.1,40.2,26.1,39.8z M25.4,40.9h-0.3v-1.7
		c-0.1,0.1-0.2,0.1-0.3,0.2c-0.1,0.1-0.2,0.1-0.3,0.1v-0.3c0.2-0.1,0.3-0.2,0.4-0.3c0.1-0.1,0.2-0.2,0.2-0.3h0.2V40.9z M41.9,36.4
		c0,0.4,0,0.6,0.1,0.7c0.1,0.1,0.2,0.2,0.3,0.2c0.1,0,0.2-0.1,0.3-0.2c0.1-0.1,0.1-0.4,0.1-0.7c0-0.4,0-0.6-0.1-0.7
		c-0.1-0.1-0.2-0.2-0.3-0.2c-0.1,0-0.2,0.1-0.3,0.2C42,35.7,41.9,36,41.9,36.4z M41.6,36.4c0-0.3,0-0.5,0.1-0.6
		c0.1-0.2,0.1-0.3,0.2-0.4c0.1-0.1,0.2-0.1,0.4-0.1c0.1,0,0.2,0,0.3,0.1c0.1,0,0.2,0.1,0.2,0.2c0.1,0.1,0.1,0.2,0.1,0.3
		c0,0.1,0.1,0.3,0.1,0.5c0,0.3,0,0.5-0.1,0.6c-0.1,0.2-0.1,0.3-0.2,0.4c-0.1,0.1-0.2,0.1-0.4,0.1c-0.2,0-0.4-0.1-0.5-0.2
		C41.7,37.1,41.6,36.8,41.6,36.4z M40.9,37.5h-0.3v-1.7c-0.1,0.1-0.2,0.1-0.3,0.2C40.3,36,40.2,36,40.1,36v-0.3
		c0.2-0.1,0.3-0.2,0.4-0.3c0.1-0.1,0.2-0.2,0.2-0.3h0.2V37.5z M38.5,36.4c0,0.4,0,0.6,0.1,0.7c0.1,0.1,0.2,0.2,0.3,0.2
		c0.1,0,0.2-0.1,0.3-0.2c0.1-0.1,0.1-0.4,0.1-0.7c0-0.4,0-0.6-0.1-0.7c-0.1-0.1-0.2-0.2-0.3-0.2c-0.1,0-0.2,0.1-0.3,0.2
		C38.5,35.7,38.5,36,38.5,36.4z M26.3,42.8c0,0.1,0.1,0.1,0.1,0.2c0.1,0,0.1-0.1,0.2-0.1c0.1-0.1,0.2-0.1,0.3-0.2v0.8
		c0.1,0.1,0.2,0.2,0.3,0.3v-1.6H27c0,0.1-0.1,0.2-0.2,0.3C26.6,42.5,26.5,42.6,26.3,42.8L26.3,42.8z M23.6,38.7
		c0.2,0.3,0.3,0.6,0.5,0.9c0-0.1,0-0.2,0-0.3c0-0.1-0.1-0.2-0.1-0.3c-0.1-0.1-0.1-0.2-0.2-0.2C23.7,38.7,23.6,38.7,23.6,38.7z
		 M44.1,35.9c0.1-0.2,0.2-0.4,0.3-0.6v-0.1h-0.2c0,0.1-0.1,0.2-0.2,0.3c-0.1,0.1-0.2,0.2-0.4,0.3V36c0.1,0,0.2-0.1,0.3-0.1
		c0.1-0.1,0.2-0.1,0.3-0.2V35.9z M42.3,39.3c0.1-0.2,0.2-0.4,0.3-0.6h-0.1c0,0.1-0.1,0.2-0.2,0.3c-0.1,0.1-0.2,0.2-0.4,0.3v0.3
		c0.1,0,0.2-0.1,0.3-0.1C42.2,39.3,42.3,39.3,42.3,39.3z M38.6,44.3c0.1-0.1,0.1-0.1,0.2-0.2c-0.1,0-0.1-0.1-0.1-0.1
		c-0.1-0.1-0.1-0.4-0.1-0.7c0-0.4,0-0.6,0.1-0.7c0.1-0.1,0.2-0.2,0.3-0.2c0.1,0,0.2,0.1,0.3,0.2c0.1,0.1,0.1,0.4,0.1,0.7
		c0,0,0,0.1,0,0.1c0.1-0.1,0.2-0.2,0.3-0.3c0-0.1,0-0.2,0-0.3c0-0.1-0.1-0.2-0.1-0.3c-0.1-0.1-0.1-0.2-0.2-0.2
		c-0.1,0-0.2-0.1-0.3-0.1c-0.2,0-0.3,0-0.4,0.1c-0.1,0.1-0.2,0.2-0.2,0.4c-0.1,0.2-0.1,0.4-0.1,0.6c0,0.4,0.1,0.7,0.2,0.9
		C38.5,44.2,38.5,44.3,38.6,44.3z M38.2,36.4c0-0.3,0-0.5,0.1-0.6c0.1-0.2,0.1-0.3,0.2-0.4c0.1-0.1,0.2-0.1,0.4-0.1
		c0.1,0,0.2,0,0.3,0.1c0.1,0,0.2,0.1,0.2,0.2c0.1,0.1,0.1,0.2,0.1,0.3c0,0.1,0.1,0.3,0.1,0.5c0,0.3,0,0.5-0.1,0.6
		c-0.1,0.2-0.1,0.3-0.2,0.4c-0.1,0.1-0.2,0.1-0.4,0.1c-0.2,0-0.4-0.1-0.5-0.2C38.3,37.1,38.2,36.8,38.2,36.4z"/>
	<path opacity="0.2" fill="#FFFFFF" d="M33.3,46.7c0,0.4,0,0.6,0.1,0.7c0.1,0.1,0.2,0.2,0.3,0.2c0.1,0,0.2-0.1,0.3-0.2
		c0.1-0.1,0.1-0.4,0.1-0.7c0-0.4,0-0.6-0.1-0.7c-0.1-0.1-0.2-0.2-0.3-0.2c-0.1,0-0.2,0.1-0.3,0.2C33.4,46.1,33.3,46.4,33.3,46.7
		 M33,46.7c0-0.3,0-0.5,0.1-0.6c0.1-0.2,0.1-0.3,0.2-0.4c0.1-0.1,0.2-0.1,0.4-0.1c0.1,0,0.2,0,0.3,0.1c0.1,0,0.2,0.1,0.2,0.2
		c0.1,0.1,0.1,0.2,0.1,0.3c0,0.1,0.1,0.3,0.1,0.5c0,0.3,0,0.5-0.1,0.6c-0.1,0.2-0.1,0.3-0.2,0.4c-0.1,0.1-0.2,0.1-0.4,0.1
		c-0.2,0-0.4-0.1-0.5-0.2C33.1,47.5,33,47.2,33,46.7z M32.3,47.8h-0.3v-1.7c-0.1,0.1-0.2,0.1-0.3,0.2c-0.1,0.1-0.2,0.1-0.3,0.1v-0.3
		c0.2-0.1,0.3-0.2,0.4-0.3c0.1-0.1,0.2-0.2,0.2-0.3h0.2V47.8z M29.6,46.4c0.1,0.1,0.2,0.2,0.3,0.3c0-0.3,0.1-0.5,0.1-0.7
		c0.1-0.1,0.2-0.2,0.3-0.2c0.1,0,0.2,0.1,0.3,0.2c0.1,0.1,0.1,0.4,0.1,0.7c0,0.3,0,0.5-0.1,0.6c0.1,0.1,0.1,0.1,0.2,0.2
		c0-0.1,0.1-0.1,0.1-0.2C31,47.2,31,47,31,46.7c0-0.2,0-0.4-0.1-0.5c0-0.1-0.1-0.2-0.1-0.3c-0.1-0.1-0.1-0.2-0.2-0.2
		c-0.1,0-0.2-0.1-0.3-0.1c-0.2,0-0.3,0-0.4,0.1c-0.1,0.1-0.2,0.2-0.2,0.4C29.6,46.2,29.6,46.3,29.6,46.4z M28.8,45.6
		C28.8,45.6,28.9,45.7,28.8,45.6L28.8,45.6L28.8,45.6z M36.5,46.5c0.1-0.1,0.2-0.2,0.3-0.3c0-0.1,0.1-0.2,0.1-0.2
		c0.1-0.1,0.2-0.2,0.3-0.2c0.1-0.1,0.1-0.1,0.2-0.2c-0.1,0-0.1,0-0.2,0c-0.2,0-0.3,0-0.4,0.1c-0.1,0.1-0.2,0.2-0.2,0.4
		C36.5,46.2,36.5,46.4,36.5,46.5z M35.5,47.4c0.1-0.1,0.2-0.2,0.3-0.2v-1.6h-0.2c0,0.1-0.1,0.2-0.2,0.3c-0.1,0.1-0.2,0.2-0.4,0.3
		v0.3c0.1,0,0.2-0.1,0.3-0.1c0.1-0.1,0.2-0.1,0.3-0.2V47.4z"/>
	<path fill-rule="evenodd" clip-rule="evenodd" fill="#608FA1" d="M33.1,13.5c-4.9,3-10.2,5.1-15.9,5.9c1.6,11.8,6.1,22.8,15.9,30.1
		c9.8-7.2,14.3-18.3,15.9-30.1C43.3,18.5,38,16.5,33.1,13.5 M33.1,50.7c10.7-7.6,15.5-19.5,17.1-32.2c-6.1-0.8-11.8-2.9-17.1-6.3
		c-5.2,3.3-10.9,5.5-17.1,6.3C17.6,31.2,22.3,43.1,33.1,50.7z"/>
	<path fill-rule="evenodd" clip-rule="evenodd" fill="#FFFFFF" d="M25.4,24.6c0,1.2-0.1,2.1-0.2,2.6c-0.1,0.5-0.4,0.9-0.7,1.2
		c-0.4,0.3-0.8,0.4-1.4,0.5v1.8c0.6,0,1,0.2,1.4,0.5c0.4,0.3,0.6,0.7,0.7,1.2c0.1,0.5,0.2,1.4,0.2,2.8c0,1.3,0.1,2.3,0.2,2.9
		c0.1,0.6,0.3,1.1,0.6,1.4c0.3,0.4,0.7,0.7,1.2,0.8c0.3,0.1,0.9,0.2,1.6,0.2h0.6v-1.7h-0.3c-0.7,0-1.2-0.1-1.4-0.3
		c-0.2-0.2-0.4-0.5-0.4-1.1c0-0.3,0-1.1,0-2.6c0-1.6-0.2-2.7-0.6-3.4c-0.4-0.7-1-1.2-1.8-1.6c0.7-0.3,1.2-0.7,1.5-1.1
		c0.3-0.4,0.6-1,0.7-1.8c0.1-0.5,0.1-1.7,0.1-3.7c0-1,0.1-1.6,0.4-1.9c0.2-0.3,0.8-0.4,1.5-0.4h0.3v-1.7h-0.6c-0.6,0-1.1,0-1.4,0.1
		c-0.4,0.1-0.8,0.3-1,0.5c-0.3,0.2-0.5,0.5-0.7,0.9c-0.2,0.4-0.3,0.9-0.4,1.5C25.4,22.5,25.4,23.3,25.4,24.6"/>
	<path fill-rule="evenodd" clip-rule="evenodd" fill="#FFFFFF" d="M38.9,24.8c0,1.6,0.2,2.7,0.5,3.4c0.4,0.7,1,1.2,1.8,1.6
		c-0.7,0.3-1.2,0.7-1.5,1.1c-0.4,0.5-0.6,1.1-0.7,2c-0.1,0.5-0.1,1.7-0.1,3.5c0,1-0.1,1.6-0.4,1.9c-0.3,0.3-0.8,0.4-1.5,0.4h-0.3
		v1.7h0.6c0.6,0,1.1,0,1.4-0.1c0.4-0.1,0.8-0.3,1-0.5c0.3-0.2,0.5-0.5,0.7-0.9c0.2-0.4,0.3-0.9,0.4-1.5c0-0.4,0.1-1.2,0.1-2.4
		c0-1.2,0.1-2.1,0.2-2.6c0.1-0.5,0.4-0.9,0.7-1.2c0.4-0.3,0.8-0.5,1.4-0.5v-1.8c-0.6,0-1-0.2-1.4-0.5c-0.4-0.3-0.6-0.7-0.7-1.2
		c-0.1-0.5-0.2-1.4-0.2-2.8c0-1.3-0.1-2.3-0.2-2.9c-0.1-0.6-0.3-1.1-0.6-1.5c-0.3-0.4-0.7-0.7-1.2-0.8c-0.3-0.1-0.9-0.2-1.6-0.2
		h-0.6v1.7H37c0.7,0,1.2,0.1,1.4,0.3c0.2,0.2,0.4,0.5,0.4,1C38.9,22.5,38.9,23.3,38.9,24.8"/>
	<g>
		<defs>
			<path id="SVGID_1_" d="M180.5,26.1c0.6-0.6,1.4-0.9,2.3-0.9c1,0,1.8,0.3,2.4,0.9c0.5,0.6,0.8,1.4,0.9,2.6h-6.5
				C179.5,27.6,179.8,26.7,180.5,26.1 M107.3,16.9V39h4.5V19c0-0.6-0.2-1.1-0.6-1.5c-0.4-0.4-0.9-0.6-1.5-0.6H107.3z M117.7,26.1
				c0.6-0.6,1.4-0.9,2.3-0.9c1,0,1.8,0.3,2.4,0.9c0.5,0.6,0.8,1.4,0.9,2.6h-6.5C116.8,27.6,117.1,26.7,117.7,26.1z M114.1,23.9
				c-1.3,1.5-2,3.7-2,6.4c0,2.9,0.7,5.1,2.1,6.6c1.4,1.6,3.3,2.4,5.7,2.4c2,0,3.7-0.5,5-1.5c1.3-0.9,2.2-2.3,2.7-4.1h-3.2
				c-0.5,0-0.9,0.1-1.2,0.3c-0.3,0.2-0.4,0.4-0.5,0.5c-0.1,0.1-0.2,0.3-0.4,0.4c-0.1,0.1-0.2,0.2-0.4,0.2c-0.5,0.3-1.1,0.5-1.9,0.5
				c-1.1,0-1.9-0.3-2.5-1c-0.6-0.6-0.9-1.6-1-3h11.1c0-0.1,0.1-0.2,0.1-0.4v-0.3v-0.4c0-2.8-0.7-5-2.1-6.6c-1.4-1.5-3.4-2.3-6-2.3
				C117.4,21.5,115.5,22.3,114.1,23.9z M136,31.2c1.1-0.3,1.9-0.5,2.5-0.8V32c0,1.2-0.3,2.1-1,2.8c-0.7,0.7-1.6,1-2.8,1
				c-0.7,0-1.3-0.2-1.7-0.5c-0.4-0.4-0.6-0.9-0.6-1.5c0-0.5,0.1-0.9,0.4-1.4c0.3-0.3,0.9-0.6,1.7-0.8L136,31.2z M130.5,23
				c-1,0.9-1.6,2-1.8,3.3h4.3c0.2-0.5,0.6-0.8,1-1c0.5-0.2,1-0.3,1.6-0.3c0.6,0,1.2,0.1,1.8,0.3c0.7,0.2,1,0.6,1,1.3
				c0,0.9-0.9,1.4-2.8,1.7c-0.4,0-0.7,0.1-1,0.2c-0.3,0.1-0.6,0.1-0.8,0.1c-1.6,0.3-3,0.8-4,1.5c-1.1,0.8-1.6,2.1-1.6,3.9
				c0,1.9,0.6,3.3,1.7,4.1c1.2,0.8,2.5,1.3,4,1.3c0.8,0,1.7-0.1,2.7-0.2c1-0.1,2-0.4,2.9-0.9c0.9-0.4,1.6-1.1,2.2-2.1
				c0.6-1,0.9-2.3,0.9-4v-5.8c0-1.5-0.6-2.7-1.9-3.6c-1.2-0.8-3-1.2-5.4-1.2C133.3,21.5,131.6,22,130.5,23z M148,26.9
				c0.5-1.1,1.5-1.6,3-1.6c1.1,0,1.9,0.4,2.4,1.2s0.9,1.6,1.1,2.6c0.2,1,0.1,2,0,3c-0.2,1-0.5,1.7-0.8,2.2c-0.8,1.1-2.1,1.5-3.8,1.2
				c-1.7-0.3-2.6-2-2.6-4.9C147.3,29.2,147.5,28,148,26.9z M144.7,24c-1.2,1.6-1.8,3.8-1.8,6.5c0,2.3,0.5,4.1,1.4,5.5
				c0.9,1.4,2,2.3,3.3,2.9c1.3,0.5,2.6,0.6,3.9,0.3c1.3-0.3,2.3-1.1,3.1-2.2V38c-0.1,1.4-0.4,2.4-1,3.1c-0.6,0.7-1.2,1.1-1.9,1.3
				c-0.7,0.1-1.4,0.1-2.1-0.3c-0.7-0.3-1.2-0.8-1.6-1.4h-4.7c0.9,3.7,3.4,5.5,7.3,5.5c2.1,0,4-0.5,5.7-1.6c1.8-1.1,2.6-3.1,2.6-6.1
				v-9c0-3-0.9-5-2.6-6.2c-1.8-1.1-3.7-1.7-5.7-1.7C147.9,21.5,145.9,22.3,144.7,24z M159.7,21.9v10c0,3,0.8,4.9,2.3,5.8
				c1.5,0.9,3.2,1.5,5,1.5c1.9,0,3.6-0.5,5.2-1.4c1.6-0.9,2.4-2.9,2.4-6v-10h-2.3c-0.6,0-1.2,0.2-1.6,0.6c-0.4,0.4-0.6,0.9-0.6,1.5
				v8.8c0,1-0.3,1.8-0.9,2.3c-0.6,0.5-1.3,0.7-2.1,0.7c-0.8,0-1.4-0.2-2-0.7c-0.6-0.5-0.9-1.2-0.9-2.3V21.9H159.7z M176.9,23.9
				c-1.3,1.5-2,3.7-2,6.4c0,2.9,0.7,5.1,2.1,6.6c1.4,1.6,3.3,2.4,5.7,2.4c2,0,3.7-0.5,5-1.5c1.3-0.9,2.2-2.3,2.7-4.1h-3.2
				c-0.5,0-0.9,0.1-1.2,0.3c-0.3,0.2-0.4,0.4-0.5,0.5c-0.1,0.1-0.2,0.3-0.4,0.4c-0.1,0.1-0.2,0.2-0.4,0.2c-0.5,0.3-1.1,0.5-1.9,0.5
				c-1.1,0-1.9-0.3-2.5-1c-0.6-0.6-0.9-1.6-1-3h11.1c0-0.1,0.1-0.2,0.1-0.4v-0.3v-0.4c0-2.8-0.7-5-2.1-6.6c-1.4-1.5-3.4-2.3-6-2.3
				C180.2,21.5,178.3,22.3,176.9,23.9z"/>
		</defs>
		<clipPath id="SVGID_2_">
			<use xlink:href="#SVGID_1_"  overflow="visible"/>
		</clipPath>
		
			<linearGradient id="SVGID_3_" gradientUnits="userSpaceOnUse" x1="-195.027" y1="449.0522" x2="-194.6663" y2="449.0522" gradientTransform="matrix(0 -81.178 231.1574 0 -103652.7812 -15785.7334)">
			<stop  offset="0" style="stop-color:#003F55"/>
			<stop  offset="1" style="stop-color:#34ACD5"/>
		</linearGradient>
		<rect x="107.3" y="16.9" clip-path="url(#SVGID_2_)" fill="url(#SVGID_3_)" width="83.4" height="29.3"/>
	</g>
	<path fill-rule="evenodd" clip-rule="evenodd" fill="#404041" d="M64.9,25.4c1.2,0,2.1,0.4,2.8,1.3c0.6,0.9,1,2.1,1,3.7
		c0,1.7-0.3,3-0.9,3.9c-0.6,0.9-1.5,1.3-2.7,1.3c-1.2,0-2.1-0.4-2.8-1.3c-0.6-0.9-1-2.2-1-3.9c0-1.5,0.3-2.7,1-3.6
		C62.9,25.8,63.7,25.4,64.9,25.4 M78.8,26.1c0.6-0.6,1.4-0.9,2.3-0.9c1,0,1.8,0.3,2.4,0.9c0.5,0.6,0.8,1.4,0.9,2.6h-6.5
		C77.9,27.6,78.2,26.7,78.8,26.1z M75.3,23.9c-1.3,1.5-2,3.7-2,6.4c0,2.9,0.7,5.1,2.1,6.6c1.4,1.6,3.3,2.4,5.7,2.4
		c2,0,3.7-0.5,5-1.5c1.3-0.9,2.2-2.3,2.7-4.1h-3.2c-0.5,0-0.9,0.1-1.2,0.3c-0.3,0.2-0.4,0.4-0.5,0.5c-0.1,0.1-0.2,0.3-0.4,0.4
		c-0.1,0.1-0.2,0.2-0.4,0.2c-0.5,0.3-1.1,0.5-1.9,0.5c-1.1,0-1.9-0.3-2.5-1c-0.6-0.6-0.9-1.6-1-3H89c0-0.1,0.1-0.2,0.1-0.4v-0.3
		v-0.4c0-2.8-0.7-5-2.1-6.6c-1.4-1.5-3.4-2.3-6-2.3C78.6,21.5,76.7,22.3,75.3,23.9z M89.8,21.9l6,17.1h4.6l6-17.1H103
		c-1,0-1.7,0.5-2.1,1.5l-3,10.5l-3.4-12H89.8z M68.6,16.8v7.3c-0.5-0.8-1.2-1.5-2.1-2c-0.8-0.4-1.8-0.6-2.8-0.6c-2,0-3.7,0.8-5,2.5
		c-1.2,1.6-1.9,3.8-1.9,6.5c0,2.7,0.6,4.9,1.9,6.5c0.6,0.8,1.5,1.4,2.6,1.8c1.1,0.4,2.2,0.5,3.3,0.5c2.1,0,4-0.5,5.7-1.6
		c1.8-1.1,2.6-3.1,2.6-6.2V19c0-0.6-0.2-1.1-0.6-1.5c-0.4-0.4-0.9-0.7-1.5-0.7H68.6z"/>
</g>
</svg>
