<?xml version="1.0" encoding="utf-8"?>
<!-- Generator: Adobe Illustrator 18.1.1, SVG Export Plug-In . SVG Version: 6.00 Build 0)  -->
<svg version="1.1" id="Layer_1" xmlns="http://www.w3.org/2000/svg" xmlns:xlink="http://www.w3.org/1999/xlink" x="0px" y="0px"
	 viewBox="0 0 741 501" enable-background="new 0 0 741 501" xml:space="preserve">
<polygon id="polygon11_1_" fill="#231F20" points="130.4,23.2 130.6,23.5 132.2,24.2 134.4,24.4 135.1,24.6 136.5,25.6 137.1,26.7 
	139.2,28.1 139.4,28.5 139.3,29.6 140.1,30.6 139.9,31.4 140.3,32 140.4,33 140.7,33.5 141.4,33.3 141.7,33.4 142,34.2 141.9,35.9 
	141.5,37 141.4,38.6 140.3,40.5 139.9,41.5 139,42.5 137.9,45.6 136.4,47.3 135.8,48.9 135.7,50 136.2,53 135.6,54.4 135.7,54.6 
	136.9,54.4 136.7,55.1 136.4,55.8 136.8,57.1 136.7,58.7 136.4,59.4 136.1,59.2 135,59.4 134.2,59.2 133.8,59.8 133.1,59.9 
	132.6,60.4 131.3,60.3 130.4,60.8 130.7,61.1 133.6,60.7 134.4,60.7 134.6,61.9 133.9,62.1 133.3,62.9 132.3,63.3 132.2,63.3 
	131.8,63.7 130.6,64.2 130,65.2 129.2,65.5 129.5,66.4 129.4,66.8 127.9,67 127.3,67.9 126.7,68.1 126.1,68.8 125.5,68.9 125,69.6 
	124.1,69.8 123.5,70.4 122.9,70.5 122.2,71.1 121.6,71.1 119.1,70.2 117.2,69.3 115.5,69.4 114.7,68.9 112.7,69.2 112.2,69.5 
	111.2,69.1 110.3,69.1 108.7,69.1 105.9,68.1 105.5,67.8 104.8,67.8 104.1,67.2 103.4,67.3 102.7,68.1 101.9,68.1 101,67.1 99.5,66 
	99,65.9 97,63.5 95.8,61.8 94.7,61.2 94.2,60.4 94.4,59.9 89,58.8 87.7,58.2 85.8,57.7 85.5,57.4 85.1,57.1 83.5,56.9 81.8,56.1 
	81.1,55.3 80.5,53.4 78.9,51.3 78.5,50.3 78.9,45.2 79.2,44 80.4,43.2 81.8,41.8 82.9,41.1 84,39.8 84.2,39.3 84.7,37.3 85.7,34.2 
	86.9,33 89.4,31.4 90.1,31.3 91.5,31.2 92.1,30.8 93.2,30.7 94.1,30 95.2,29.8 95.7,29.2 96.1,28.8 96.1,28.7 97,28.2 98.4,27 
	99.6,26.4 102.7,24.6 104.4,23.1 105.1,22.8 105.5,22.9 106.7,23.2 107.7,22.7 108.5,22.6 109.1,22.8 109.5,23.1 109.7,24.2 
	110.2,24.4 110.8,23.9 111.3,23.7 111.9,24.1 112.7,24.1 113.4,25.1 114,25.4 114.9,25.4 115.4,25 115.5,24.1 115.7,23.4 116,23 
	117.1,22.4 118.4,22.4 119.9,22.8 121.6,22.6 123.7,22.9 124.6,23.6 125.1,23 125.5,22.7 126.7,22.5 127.3,21.9 128,21.8 129,22.7 
	130.4,22.7 "/>
<polygon id="polygon13_1_" fill="#231F20" points="28.3,63.7 29.4,63.3 30,62.8 30.6,62 33.4,61.1 34.8,60.3 36.8,57.3 37,55.5 
	37.5,54.3 39.6,53 40.9,53.8 41.5,53.7 41.9,53.5 42.4,53.2 44.2,54.1 44.6,54.7 44.7,55.6 44.4,56.7 43.3,57.4 42.3,58.9 
	41.5,61.1 40.9,64.1 41.2,65.2 42,67.3 42.1,67.4 42.1,68 40.8,69 39.8,69.1 39.4,69.4 38.5,69.3 37.7,70 36.6,70 35.9,70.3 
	35.3,70.3 34.7,70.4 34.1,70.8 32.5,71 31.6,71.5 30.6,72.6 28.3,76.6 26.8,79.2 26.6,80.7 25.9,81.5 25.4,83.4 24.9,83.3 
	23.9,83.5 23.1,82.6 22.6,82.5 21.8,82.6 21.4,82.1 21.5,81.4 21.1,80.6 20.5,80.2 19.8,78.4 19.9,77.5 20.1,76.6 19.9,75.6 
	19.7,75.2 21.2,72.7 21.5,71.1 22.3,69.2 24.7,67 27.4,64 "/>
<polygon id="polygon25_1_" fill="#231F20" points="314.1,95.5 314.9,97.1 315.9,98.3 315.9,98.7 317,100.4 317.4,101.2 318.2,101.7 
	318.6,103.1 318.1,104.4 318.9,105.8 319.8,107.3 320.7,108.2 323.1,111.6 323.7,112 324,112.7 323.8,114 323.9,114.5 324.8,114.7 
	325.2,113.9 326.2,114.2 327.6,115 327.9,115.4 327.8,115.8 328.1,115.9 329.2,119.1 328.8,120.3 327.5,121.8 327.1,121.8 
	327,122.3 327.6,123.4 327.4,123.7 327.6,124.1 328.2,124.6 328.4,125.3 328.1,126.5 328.3,127.3 328.7,127.9 329.3,127.7 
	329.3,127.9 330.2,128.1 330.6,128.5 331.4,128.6 332.4,130.4 332,130.8 333,132 333.9,132.8 334.3,132.3 334.6,132.5 334.9,133 
	335.1,133.8 335.6,134.6 336.4,134.8 337.3,134.6 337.9,134.3 338.4,130.8 337.1,130.3 336.5,129.5 336.6,128.9 337.1,128.8 
	337.8,128 338.4,128 340.4,128.8 341.2,128.7 342.7,127.9 343.4,128 343.5,128.4 342.9,129.4 341.9,130 341.8,132.1 340.9,133.3 
	340.9,133.6 340.8,134 341.6,135.6 342.4,136.3 343.7,136.7 344.3,137.2 345.3,138.4 345.5,138.8 345.1,140.4 345.7,143.1 
	346.4,144.5 347.5,145.6 348.2,146.2 349.7,146.5 351.7,148.1 352.8,148 353.3,148.5 353.3,148.9 352.3,150 350,152.2 348.7,153.4 
	348.1,153.8 347.3,153.9 346.9,155.2 345.6,155.3 345.2,155.1 345,154.3 345.1,153.6 344.9,153 344.5,152.6 343.6,152.4 339.8,153 
	337.6,153.6 336.7,154.1 334.8,155.9 334.2,156 333.5,155.8 331.3,155.9 330.7,155.3 330.4,153.6 329.7,153 328.7,152.5 
	328.2,151.8 327.7,151.2 326.4,150.9 325.7,150.4 325.3,149.7 325.1,148.3 324.7,148 324,147.9 323.2,147.4 322.2,147.5 321.7,147 
	321.6,146.5 321.9,146 321.5,145.6 318.9,147.3 317.6,148.5 317.1,148.4 316.4,147.8 314.7,147.7 313.3,147.3 312.7,146.7 
	312.2,145.5 312.2,145.3 312.4,144.3 312.1,143.6 312.4,142.9 313.4,142.4 315.2,142.7 315.4,142.4 315.1,141.9 315.4,141.3 
	316.1,139.7 316,139.3 315.5,139.3 313.5,138.2 312.7,137.9 312,138.1 311.9,138.4 312.2,139.1 311.9,140 311.3,139.8 310.2,138.3 
	309.9,137.9 309.6,137.9 309.1,139.3 309.5,140.1 310.4,140.9 311,141 311.5,141.9 311.5,143.4 311.1,143.6 309.4,142.4 
	309.5,141.9 309.3,141.7 308.2,142 307.9,141.9 307.4,141.2 307.6,140.3 307.4,139.8 306.9,139.9 306.5,139.1 305.3,140 
	305.3,140.3 305.3,140.9 305,141.5 305.5,142 308.1,142.7 310.4,143.9 311.2,144.6 311.6,145.7 311.2,147 310.4,147.8 309,148.4 
	305.2,148.9 302.5,149.7 295.3,150.6 294.2,150.3 293.5,149.7 292.9,148.9 292.1,145.7 291.9,145.6 291.5,144.7 291.3,143.8 
	290.4,140.5 289.4,139.2 288.3,137.9 285.4,135.9 284.9,135.2 284.7,133.3 284.3,132.3 282.8,129.7 281.3,128.2 280.4,128 
	280,126.8 279,125.6 278.5,125.4 278.2,124.6 278.4,122.7 278.4,119.4 278.1,118.3 277.4,116.8 276.3,115.6 274.4,113.8 
	274.1,113.6 271.9,112.2 272.1,111.8 274.1,111.6 276.6,111.4 279.4,111.2 279.9,111.2 280.4,111.2 281.3,111.2 282.7,111.2 
	286.1,111.2 286.2,111.2 288.5,111.1 290.1,110.7 290.9,111 291.5,111 292.5,110.2 294.4,108.8 294.5,107.8 298.1,104.7 
	299.6,102.5 299.7,100.9 303.3,97.4 304.3,96.3 305.8,95.1 307.1,94.6 307.8,94.1 309.5,93.8 310.2,93.2 312.1,93.5 "/>
<polygon id="polygon27_1_" fill="#231F20" points="416.6,163.6 417.8,164.1 418.5,163.7 420.3,163.7 421.3,164 423.5,164 
	424.9,164.1 429.2,165.5 431.9,165.2 435.9,166.2 437.8,166.2 438.4,165.4 438.6,164.5 439.2,162.6 440.1,161.3 440.8,161.4 
	441.9,162.2 443.1,164.9 443.3,166 443.9,166.9 445.2,167.6 445.9,167.5 446.3,167.8 446.8,167.9 447.6,167.6 448.1,168 448.8,168 
	449.2,168.5 450.3,168.5 450.5,167.6 452,168.7 452.8,168.1 453.8,168.8 455.4,168.8 456.4,168.2 458.4,168.3 459.1,168.3 
	460.7,167.2 461.7,167 461.9,167 463.3,167.5 463.5,167.6 464.4,167 467.9,167 469.5,166.8 470.3,167.2 470.6,167.7 470.1,168.7 
	471.9,169.6 473.7,168.9 474.1,169.4 473.7,170.7 470.4,175.2 467.7,177.7 466.4,178.5 465.3,179.5 464.1,180.1 463.5,180.7 
	462,181.5 461.5,181.8 460.2,181.6 459.8,182 459.3,182 458.7,182.7 458.1,182.8 457.8,183.2 457.6,183.4 457.1,183.4 456,184 
	456.1,183.3 455.2,183.2 454.3,183.4 453.9,183.9 453.3,184.1 452,184.1 451,184 450.2,183.3 447.8,182.9 442.8,182 439.7,181 
	439.7,181.1 437.2,180.2 435.6,179.4 433.4,178.7 432.2,177.8 430.7,177.5 429.2,176.9 426,176.7 425.8,176.7 425.6,176.8 
	424.4,176.4 423.8,176.8 420.5,177.3 418.1,178.2 416.8,178 415.9,178.3 415.4,178.2 414.3,177.9 413.7,178.1 411.6,178.3 
	406.3,178.7 402,178.4 398.6,178 398,177.9 397.4,177.7 396.8,177.1 396.9,176.6 397.6,175.6 398,175 398.2,173.3 398.4,172.7 
	399.1,172.2 399.3,171.5 399.6,170.8 401,168.8 401.9,168.7 402.5,168.2 403.9,167 404.5,166 404.7,165.6 404.8,164.6 404.8,163 
	404.8,162.8 404.2,162 403.5,161.4 403.4,160.9 403.7,160.4 404.2,160.3 405.3,160.8 408.2,161.3 409.4,161 411,161.4 412.1,162.6 
	412.7,162.9 416.5,163.4 "/>
<polygon id="polygon29_1_" fill="#231F20" points="499.7,197.2 499.4,197.2 498.2,195.6 498.2,195.1 498.8,195.6 "/>
<polygon id="polygon31_1_" fill="#231F20" points="437.1,200.5 438.9,200.4 439.8,200.6 441,200.9 442.6,201.1 443.4,201.1 
	444.3,200.9 447.7,201.9 449.9,202.6 451.9,204 453.5,205.5 455.8,207.5 456.8,208.4 458.7,210.6 460.9,213.6 461.8,215.5 
	462,216.6 461.7,217.6 459.6,220.6 458.4,223.1 457.8,223.9 455.5,224 452.9,225.6 451.8,225.7 451,226.2 450.2,226.3 449.8,226.2 
	448.8,226.8 447.1,226.8 445.1,227.1 443.6,227.1 442.6,227.3 442,227.2 441.6,226.9 440.5,225.9 439.6,225.1 439.2,224.4 
	438.3,221.7 438.2,220.1 438.2,218.3 438.4,216.8 438.4,215.6 437.9,214.2 435.6,211.1 434.7,210.5 430.8,208.5 429.6,206.9 
	429.1,205.6 429.3,204 429.6,202.9 430.2,202.4 431.2,202.2 431.4,202.3 432.3,201.4 433.4,200.9 434.7,200.8 "/>
<g id="polygon35_1_">
	<polygon fill="#231F20" points="483.2,188.3 482.8,187.8 483.3,187.3 484,187.2 485.1,187.6 486.1,187.1 487.1,187.6 487.8,186.9 
		489.4,186.8 490.5,187.9 491.7,188.3 492.5,189 493.4,189.4 494.1,190.4 495,191 496.7,192.8 497.5,193.1 497.8,193.8 497.8,193.8 
		497.8,195.5 498.9,197.3 499.4,197.6 499.6,198 500.4,199.4 501.8,200.8 502.3,202.4 504,204.5 504.5,204.9 505,204.9 507.5,204.8 
		507.8,204.7 509.1,204.2 510.7,203.1 512.4,203.2 513.4,202.7 514.6,202.6 515.6,202.5 516.3,202.1 517.9,200.4 519.2,199.7 
		520.6,199.3 521.7,199.5 522.6,198.5 523.8,198.1 525,198.2 525.8,198.9 526.9,198.8 528.4,198.3 529,198.3 530,199.3 531.7,199 
		531.8,199.1 532.4,199.5 532.6,199.4 533.4,199.3 534.8,199.9 535.8,200.3 536.6,201.6 537.4,202.1 538.5,203.8 539.1,204.1 
		540.9,205.6 542.2,207.4 543.7,208.5 544.3,209.8 544.9,209.9 546.7,209.5 547.3,210.1 548.3,210.3 548.9,211 549.5,213 550,213.3 
		551,214.5 551.4,214.7 551.5,214.7 552.3,214.7 553.3,214.4 554.3,214.4 554.9,214.8 556.4,215.3 558.2,217 558.7,217.1 
		561.5,217.6 563.1,218.1 565.2,219.3 567.9,222.8 567.7,223.9 567.6,224.4 567.8,225.6 567.3,227.7 567.4,228.3 567,229.6 
		567.1,230.3 566.5,231.2 565,233.4 564.2,234 563.7,234.2 562.6,234.6 561.8,235.1 560.3,237.2 559.6,238.3 559.5,238.4 
		558.9,238.8 556.9,239.4 556.3,239.4 555.6,238.9 555.3,238.9 554.5,239.4 553.2,240.3 552.1,240.4 550.5,241.6 549.8,241.7 
		549,242.5 548.9,242.5 548.4,242.6 548,243.1 547.6,243.2 546.9,242.5 546.2,242.3 545,242.5 544.4,242.9 543.5,242.8 543,242.9 
		541.8,242.2 540.4,242.2 538.8,242.6 537.3,243.2 535.4,244.5 533.4,245.3 533.1,245.4 531.9,246.1 530.8,246.2 530,246.8 529,247 
		527.9,247.9 527.1,248.1 525.6,248.2 524.1,247.9 523,248 522.3,248.4 521.8,248.6 520.9,248.5 520.2,248.8 519.2,248.9 
		517.8,249.4 517,249.5 516.1,248.9 513.6,248.9 513,248.5 512.3,248.4 512,248 512.1,247.3 511.6,246.4 510.2,246.6 509.5,246.2 
		508.5,244.7 508.6,244.3 508.7,243.6 508.5,242.9 507.8,241.5 507.1,240.8 508,239.5 508.3,238.8 508.4,237 508,234.8 508.2,233.2 
		508,232.8 507.6,230 506.3,226.9 505.9,224.8 505.9,224.3 506,222.9 505.7,221.7 504.9,220.6 503.5,219.7 501.9,219.1 501.2,219 
		500,219.4 499.4,219.6 497.3,221.5 496.7,221.8 496.2,221.7 493,219.6 490.8,219.2 489.7,218.8 487.8,217.3 486.7,216.9 485,217.1 
		484.6,216.3 483.4,214.3 482.7,213.7 481.8,213.3 481.6,212.7 480.7,211.5 478.7,209.7 478,208.6 477.6,206.5 477.2,205.4 
		477.2,204.3 476.6,202.7 476.1,202.4 475.7,201.5 475.6,200.7 476,199.9 476.4,197.8 476.4,197.7 477.4,195 478.4,193.7 478.8,193 
		479.6,190.4 480.2,189.8 480.8,189.6 481.6,190.1 	"/>
</g>
<polygon id="polygon37_1_" fill="#231F20" points="489.5,246 491.1,245.6 492.7,245.6 494.3,246.4 494.6,246.9 495,247.6 
	495.9,248.3 496.2,248.9 496,250.3 495,252.7 494.6,253.9 494.6,254.6 494.3,255.1 495,255.1 495.8,254.6 496.1,254.7 496.6,255.2 
	497.2,255 497.2,255.5 497,256.1 496,256.9 495.6,257.7 495.2,257.9 494.4,257.9 493.3,257.6 492.9,257.9 492.3,257.8 491,258.5 
	489.8,258.6 489.2,258.2 488.8,257.2 488.1,256.8 487.4,257.8 486.5,257.4 485.7,257.5 483.1,258.9 482.7,258.7 482.3,257.6 
	480.6,259.3 479.9,259.5 479,259.4 477.7,258.7 477.4,257.7 476,256.8 475.4,255.7 475.4,255.3 476.6,254.1 477.4,253.6 
	478.5,252.3 479.6,251.9 480.4,251.7 481.5,251.7 482.5,251 483.3,250.2 484.1,249.9 486.2,248.3 487.1,247.2 488,247.1 "/>
<polygon id="polygon39_1_" fill="#231F20" points="587.1,328.7 587,328 587.1,327.8 587.6,325.5 587.6,324.2 587.4,323.8 586.8,323 
	585.4,321.3 584.2,319.3 582.3,317.1 582,316.8 580.8,315.5 580.3,314.7 580.1,313.6 579.8,312.5 579.1,311.2 579,309.9 
	578.8,309.2 577.8,306.4 577.7,303 577.3,301.7 577.5,301.3 577.7,300.6 577.7,299.4 578.4,296.3 578.5,296.2 580.7,292.5 
	580.8,292.5 582.4,291.7 585.7,291.9 586.1,291.9 588.1,292.6 588.9,292.8 591.1,294.2 592.3,294.4 593.6,295 594.6,294.8 
	596.9,296.3 598.3,297.4 598.6,298.2 598.9,298.5 599.6,298.6 599.5,299.8 599.8,300.4 604.6,303.4 605.1,303.5 605.9,303.6 
	610.2,306.5 610.7,306.9 611.8,308.3 612.5,308.9 613.4,308.9 614.3,309.5 615.1,309.6 615.6,310 616.7,311.7 617.6,312.1 
	621.1,310.9 622.1,310.9 624.2,311.8 625.3,311.9 627.2,312.9 627.9,312.9 629.2,313 631.4,313.9 633.5,314.4 635,315.1 
	636.3,315.4 637.5,316.1 638.2,316.6 639.3,316.9 641.3,318 642.4,318.6 643.3,319.3 643.9,319.3 644.5,319.6 646.8,321.3 
	648.1,321.4 648.4,321.5 650.6,323.2 651.2,323.4 651.6,323.6 655.3,325.4 656.7,326.1 658.3,326.5 659.2,327.1 660.6,327.9 
	661.2,328.7 661.6,329.1 663.3,330.4 664.6,330.8 665.9,331.8 666.8,332.4 668,334.2 669.2,334.7 670.5,335.9 671.6,336.4 
	672.8,337.4 676.4,341 676.7,341.4 677,341.8 678.3,344.1 678.8,344.5 679.6,345.6 680.4,345.9 681.6,347 682.6,348.6 682.9,349.9 
	681.9,352.8 681.7,354 682.2,355.4 681.9,356.8 682.3,357.4 682.2,358.4 681.7,361.1 681.7,364.4 682.1,365.4 682.5,365.8 
	683.7,366.1 684.1,365.5 684.4,365.3 684.9,365.6 685.4,365.6 685.7,365.6 686.2,365.1 686.3,365 686.4,364.9 687.3,364.9 
	688.1,364.1 688.6,364.1 689.4,365 689.8,365 689.8,364.5 690.8,364.5 691.1,364.5 691.7,364.1 692.6,364.5 693.2,364.4 
	693.5,364.7 693.7,364.8 695.2,367.9 696.5,371.2 696.4,372.2 696,373.3 696,375.1 696.2,377.2 696.6,378.1 696.8,378.6 
	697.6,379.5 698.9,379.6 700.3,380.1 700.6,380.5 700.6,382.1 700.9,382.8 702.4,383.8 705.5,387 708.1,388.5 708.5,388.9 
	708.8,389.1 709.9,389.5 711.1,390.3 712.7,390.6 714.3,391.6 715.9,391.9 717.4,393 717.9,394.5 717.5,396 716.7,397.5 
	716.1,399.8 716,399.9 714.1,401.8 712.2,404.1 710.3,405.8 708.9,406.6 707,408.5 703.2,411 702.7,411.3 700,414.3 697,416.5 
	695.4,418.2 694.1,419.1 693.5,419.4 689.6,421.1 689,421.3 683.6,423.2 681.8,424.7 678.9,426.1 676.5,428.1 674.5,428.7 
	672.2,429.4 670.9,429.4 668.7,430.3 665.9,430.5 664.1,430.2 662.6,429.5 660.9,429.3 659.8,428.8 658.5,428.9 658,429.2 
	657.4,429.5 655.1,430.1 652.8,432.1 650.2,433.4 649.8,433.8 648.5,436.3 647.6,437.1 644.6,438.6 644.4,438.6 643.3,438.8 
	639.5,440.7 638.4,442.4 637.5,443.2 636.6,444.3 635.7,445.1 634,445.8 631.9,446.1 630,446.7 628.3,447.5 627.9,447.9 
	627.9,448.6 627.4,450 626.5,450.3 626,450.4 623.7,453.3 622.5,454.4 622.1,455.1 622.3,457.9 621.8,459.7 621,461.4 618.9,463.5 
	618.6,464.6 618.5,465.1 617.5,466.8 616.5,469.8 616,470.1 614.5,469.9 613.3,472.1 610.1,475.9 608.5,477 607.5,477.6 
	606.5,477.8 606,477.7 605.8,477 606,474.8 605.8,474.2 602.9,472.4 601.3,470.6 600,469.8 598,469.5 596.6,469 596.1,468.8 
	594.7,467.9 591.5,465.1 590.6,464.7 588.3,464.2 586,463.1 581.5,461.6 581,461.4 580.1,460.6 579.1,457.7 578.1,455.8 
	576.5,453.9 575.9,452.2 575.4,448.9 575.5,447.1 576,446.3 576.3,445.9 575.6,444.6 575.6,444.1 576.2,443 576.6,442 576.5,440.8 
	577.3,438.8 577.2,438.3 577.6,437.3 577.5,435.3 577.9,432.4 577.9,431.2 578.2,429.8 579.1,425.1 578.9,422 579.5,419.7 
	578.1,413.7 577.5,413 576.8,412 576.6,411.1 576.9,409.4 576.3,408.3 576,407.4 575.3,406.4 574.9,405.5 574.4,402.6 575.4,400.9 
	575.3,400.3 574.8,399.8 574.2,399.7 573.5,400 572.9,399.4 572.3,399.3 572.1,399.2 571.6,398.4 571.7,397.2 571.5,396.1 
	570.5,394 570.8,392.1 570.7,391.5 569.3,389 569.7,388.1 569.6,387.8 569,387.4 569.1,385.9 568.7,383.9 568.4,383.5 568,382.9 
	567.7,381.9 566.9,380.8 566.5,379.4 566.6,379 565.9,378.3 564.6,378.1 563.5,377.1 561.8,376.4 561.5,376.1 561.2,375.2 
	561.2,375.1 561.8,373.8 561.7,373 561,372.3 560.8,371.3 559.3,370.2 559,369.4 558.8,367.5 558.5,366.9 557.9,366.5 557.1,366 
	557,365.6 558.2,364 558.1,363.3 558.8,361.8 558.6,360.4 558.8,359.5 559.4,358.5 561.1,357.3 563.4,355 564.8,353.1 565.1,352.9 
	567.1,350.8 568,349.5 569,348.8 570.1,348.3 571.1,348.2 571.7,348.2 572.9,348.5 573.4,348.4 574.3,347.8 575,347.6 575.1,347.3 
	574.8,346.1 575.1,345.5 575.8,344.7 576.1,344.1 576.9,343.4 577,343.3 577.2,342.1 577.7,341.6 577.8,340.9 579.5,339.8 
	578.7,338.9 578.9,338 579.4,337.2 579.4,337.2 580.2,337 580.6,336.6 580.5,335.9 581.9,336.1 581.9,335.5 582.6,334.5 
	583.8,332.8 584.3,332.5 586.7,331.3 587.2,329.2 "/>
</svg>
