<?xml version="1.0" encoding="utf-8"?>
<!-- Generator: Adobe Illustrator 18.1.1, SVG Export Plug-In . SVG Version: 6.00 Build 0)  -->
<svg version="1.1" id="Layer_1" xmlns="http://www.w3.org/2000/svg" xmlns:xlink="http://www.w3.org/1999/xlink" x="0px" y="0px"
	 viewBox="0 0 192.3 70.8" enable-background="new 0 0 192.3 70.8" xml:space="preserve">
<g>
	<path fill="#005F81" d="M26.6,22.1c0-5.5,0-6.5-0.1-7.6c-0.1-1.2-0.4-1.8-1.6-2.1c-0.3-0.1-0.9-0.1-1.4-0.1c-0.4,0-0.6-0.1-0.6-0.3
		c0-0.3,0.3-0.3,0.8-0.3c1.9,0,4.2,0.1,5.3,0.1c0.9,0,3.1-0.1,4.4-0.1c0.5,0,0.8,0.1,0.8,0.3c0,0.3-0.2,0.3-0.6,0.3
		c-0.4,0-0.6,0-1,0.1c-1,0.2-1.3,0.8-1.3,2.1c-0.1,1.2-0.1,2.2-0.1,7.6v5c0,5.2,1,7.4,2.8,8.9c1.6,1.3,3.3,1.5,4.5,1.5
		c1.6,0,3.5-0.5,5-1.9c2-2,2.1-5.2,2.1-8.9v-4.5c0-5.5,0-6.5-0.1-7.6c-0.1-1.2-0.4-1.8-1.5-2.1c-0.3-0.1-0.9-0.1-1.3-0.1
		c-0.4,0-0.6-0.1-0.6-0.3c0-0.3,0.3-0.3,0.8-0.3c1.8,0,4.1,0.1,4.1,0.1c0.4,0,2.7-0.1,4.1-0.1c0.5,0,0.8,0.1,0.8,0.3
		c0,0.3-0.2,0.3-0.6,0.3c-0.4,0-0.6,0-1,0.1c-1,0.2-1.3,0.8-1.3,2.1c-0.1,1.2-0.1,2.2-0.1,7.6v3.9c0,4-0.4,8.3-3.4,10.9
		c-2.6,2.2-5.2,2.6-7.5,2.6c-1.9,0-5.4-0.1-8-2.5c-1.8-1.7-3.2-4.3-3.2-9.6V22.1z"/>
	<path fill="#005F81" d="M77.7,23.1c0.1,0,0.2-0.1,0.2-0.3v-0.8c0-5.5,0-6.5-0.1-7.6c-0.1-1.2-0.4-1.8-1.5-2.1
		c-0.3-0.1-0.9-0.1-1.4-0.1c-0.4,0-0.6-0.1-0.6-0.3c0-0.3,0.3-0.3,0.8-0.3c1.9,0,4.2,0.1,5.2,0.1c0.9,0,3.1-0.1,4.5-0.1
		c0.5,0,0.8,0.1,0.8,0.3c0,0.3-0.2,0.3-0.7,0.3c-0.3,0-0.6,0-1,0.1c-1,0.2-1.3,0.8-1.3,2.1c-0.1,1.2-0.1,2.2-0.1,7.6v6.3
		c0,3.3,0,6.2,0.2,7.7c0.1,1,0.3,1.8,1.4,1.9c0.5,0.1,1.3,0.1,1.8,0.1c0.4,0,0.6,0.1,0.6,0.3c0,0.3-0.3,0.4-0.7,0.4
		c-2.3,0-4.6-0.1-5.6-0.1c-0.8,0-3.1,0.1-4.5,0.1c-0.5,0-0.8-0.1-0.8-0.4c0-0.2,0.1-0.3,0.6-0.3c0.5,0,1-0.1,1.3-0.1
		c0.7-0.1,0.9-0.9,1-2c0.2-1.5,0.2-4.4,0.2-7.7v-3.2c0-0.1-0.1-0.2-0.2-0.2H64c-0.1,0-0.2,0-0.2,0.2v3.2c0,3.3,0,6.2,0.2,7.7
		c0.1,1,0.3,1.8,1.4,1.9c0.5,0.1,1.3,0.1,1.8,0.1c0.4,0,0.6,0.1,0.6,0.3c0,0.3-0.3,0.4-0.7,0.4c-2.3,0-4.6-0.1-5.6-0.1
		c-0.8,0-3.1,0.1-4.5,0.1c-0.5,0-0.7-0.1-0.7-0.4c0-0.2,0.1-0.3,0.6-0.3c0.5,0,1-0.1,1.3-0.1c0.7-0.1,0.9-0.9,1-2
		c0.2-1.5,0.2-4.4,0.2-7.7v-6.3c0-5.5,0-6.5-0.1-7.6c-0.1-1.2-0.4-1.8-1.6-2.1c-0.3-0.1-0.9-0.1-1.4-0.1c-0.4,0-0.6-0.1-0.6-0.3
		c0-0.3,0.3-0.3,0.8-0.3c1.9,0,4.2,0.1,5.2,0.1c0.9,0,3.1-0.1,4.5-0.1c0.5,0,0.8,0.1,0.8,0.3c0,0.3-0.2,0.3-0.6,0.3
		c-0.3,0-0.6,0-1,0.1c-1,0.2-1.3,0.8-1.3,2.1c-0.1,1.2-0.1,2.2-0.1,7.6v0.8c0,0.2,0.1,0.3,0.2,0.3H77.7z"/>
	<path fill="#A6A8AB" d="M93.5,22.1c0-5.6,0-6.6-0.1-7.8c-0.1-1.2-0.4-1.8-1.5-2.1c-0.3-0.1-0.9-0.1-1.2-0.1c-0.1,0-0.3-0.1-0.3-0.2
		c0-0.2,0.2-0.3,0.6-0.3c0.8,0,1.8,0,2.6,0l1.5,0.1c0.3,0,7.4,0,8.3,0c0.7,0,1.3-0.1,1.5-0.2c0.2,0,0.3-0.2,0.5-0.2
		c0.1,0,0.1,0.1,0.1,0.3c0,0.3-0.2,0.7-0.3,1.7c0,0.4-0.1,1.9-0.2,2.4c0,0.2-0.1,0.4-0.3,0.4c-0.2,0-0.3-0.2-0.3-0.5
		c0-0.3,0-0.9-0.2-1.3c-0.3-0.6-0.6-1-2.6-1.2c-0.6-0.1-4.5-0.1-4.9-0.1c-0.1,0-0.2,0.1-0.2,0.4v9.9c0,0.3,0,0.4,0.2,0.4
		c0.5,0,4.9,0,5.7-0.1c0.9-0.1,1.4-0.1,1.7-0.5c0.3-0.3,0.4-0.5,0.5-0.5c0.1,0,0.2,0.1,0.2,0.3c0,0.2-0.2,0.8-0.3,2
		c-0.1,0.7-0.1,2.1-0.1,2.3c0,0.3,0,0.7-0.3,0.7c-0.2,0-0.3-0.1-0.3-0.3c0-0.4,0-0.7-0.1-1.2c-0.1-0.5-0.5-1.1-1.9-1.3
		c-1-0.1-4.5-0.2-5.2-0.2c-0.2,0-0.3,0.1-0.3,0.3v3.2c0,1.2,0,5.4,0,6.2c0.1,2.5,0.6,3,4.2,3c0.9,0,2.5,0,3.5-0.4
		c0.9-0.4,1.4-1.1,1.6-2.6c0.1-0.4,0.1-0.5,0.3-0.5c0.2,0,0.2,0.3,0.2,0.5c0,0.3-0.3,2.7-0.5,3.5c-0.3,0.9-0.5,0.9-1.9,0.9
		c-2.7,0-4.7-0.1-6.1-0.1c-1.4-0.1-2.3-0.1-2.8-0.1c-0.1,0-0.7,0-1.4,0c-0.7,0-1.6,0.1-2.1,0.1c-0.4,0-0.6-0.1-0.6-0.3
		c0-0.1,0.1-0.2,0.3-0.2c0.3,0,0.8-0.1,1.1-0.1c0.7-0.1,0.9-0.9,1-2c0.2-1.5,0.2-4.4,0.2-7.8V22.1z"/>
	<path fill="#A6A8AB" d="M118.1,25.2c0,0.2,0.1,0.3,0.3,0.4c0.5,0.3,2.2,0.6,3.8,0.6c0.9,0,1.9-0.1,2.7-0.7c1.3-0.9,2.2-2.8,2.2-5.5
		c0-4.5-2.4-7.2-6.2-7.2c-1.1,0-2.1,0.1-2.4,0.2c-0.2,0.1-0.3,0.2-0.3,0.4V25.2z M115.2,22.1c0-5.6,0-6.6-0.1-7.8
		c-0.1-1.2-0.4-1.8-1.6-2.1c-0.3-0.1-0.9-0.1-1.2-0.1c-0.1,0-0.3-0.1-0.3-0.2c0-0.2,0.2-0.3,0.6-0.3c1.6,0,3.9,0.1,4.1,0.1
		c0.4,0,3.1-0.1,4.3-0.1c2.3,0,4.7,0.2,6.6,1.6c0.9,0.7,2.5,2.4,2.5,4.9c0,2.7-1.1,5.3-4.4,8.3c3,3.8,5.4,7,7.5,9.2
		c1.9,2.1,3.5,2.5,4.4,2.6c0.7,0.1,1.2,0.1,1.4,0.1c0.2,0,0.3,0.1,0.3,0.2c0,0.2-0.2,0.3-0.9,0.3h-2.6c-2,0-2.9-0.2-3.9-0.7
		c-1.5-0.8-2.8-2.6-4.9-5.3c-1.5-2-3.2-4.4-3.9-5.3c-0.1-0.1-0.3-0.2-0.5-0.2l-4.4-0.1c-0.2,0-0.3,0.1-0.3,0.3v0.9
		c0,3.5,0,6.3,0.2,7.8c0.1,1,0.3,1.8,1.4,2c0.5,0.1,1.3,0.1,1.6,0.1c0.2,0,0.3,0.1,0.3,0.2c0,0.2-0.2,0.3-0.6,0.3
		c-2,0-4.3-0.1-4.4-0.1c0,0-2.3,0.1-3.4,0.1c-0.4,0-0.6-0.1-0.6-0.3c0-0.1,0.1-0.2,0.3-0.2c0.3,0,0.8-0.1,1.1-0.1
		c0.7-0.1,0.9-0.9,1-2c0.2-1.5,0.2-4.4,0.2-7.8V22.1z"/>
	<path fill="#A6A8AB" d="M151.9,38c3.2,0,10-1.9,10-12.4c0-8.7-5.3-13.3-11-13.3c-6,0-10.5,4-10.5,11.9
		C140.4,32.6,145.4,38,151.9,38 M151.2,11.1c8.1,0,14.2,5.1,14.2,13.5c0,8.1-5.7,14.7-14.4,14.7c-9.9,0-14-7.7-14-14.2
		C137,19.3,141.2,11.1,151.2,11.1"/>
	<path fill="#231F20" d="M11.6,45.8l-1.1,0c-0.4,0-0.6,0.1-0.7,0.2c-0.1,0.1-0.1,0.2-0.1,0.2c0,0.1,0,0.1-0.1,0.1c0,0-0.1,0-0.1-0.1
		c0-0.1,0.1-0.8,0.2-0.8c0-0.1,0-0.1,0.1-0.1c0.1,0,0.1,0.1,0.3,0.1c0.2,0,0.5,0,0.7,0h2.9c0.2,0,0.4,0,0.5,0c0.1,0,0.2,0,0.2,0
		c0,0,0.1,0,0.1,0.1c0,0.1,0,0.7,0,0.8c0,0.1,0,0.1-0.1,0.1c-0.1,0-0.1,0-0.1-0.1l0-0.1c0-0.2-0.2-0.4-0.8-0.4l-0.9,0v2.8
		c0,0.6,0,1.2,0,1.5c0,0.2,0.1,0.3,0.3,0.4c0.1,0,0.3,0,0.4,0c0.1,0,0.1,0,0.1,0.1c0,0-0.1,0.1-0.1,0.1c-0.5,0-0.9,0-1.1,0
		c-0.2,0-0.6,0-0.9,0c-0.1,0-0.1,0-0.1-0.1c0,0,0-0.1,0.1-0.1c0.1,0,0.2,0,0.2,0c0.1,0,0.2-0.2,0.2-0.4c0-0.3,0-0.8,0-1.5V45.8z"/>
	<path fill="#231F20" d="M19.4,47.6C19.5,47.6,19.5,47.6,19.4,47.6l0-0.2c0-1,0-1.3,0-1.5c0-0.2-0.1-0.3-0.3-0.4c-0.1,0-0.2,0-0.3,0
		c-0.1,0-0.1,0-0.1-0.1c0,0,0.1-0.1,0.2-0.1c0.4,0,0.9,0,1.1,0c0.2,0,0.6,0,0.9,0c0.1,0,0.2,0,0.2,0.1c0,0.1,0,0.1-0.1,0.1
		c-0.1,0-0.1,0-0.2,0c-0.2,0-0.2,0.1-0.3,0.4c0,0.2,0,0.4,0,1.4v1.2c0,0.6,0,1.2,0,1.5c0,0.2,0.1,0.3,0.3,0.4c0.1,0,0.3,0,0.4,0
		c0.1,0,0.1,0,0.1,0.1c0,0-0.1,0.1-0.1,0.1c-0.5,0-0.9,0-1.1,0c-0.2,0-0.7,0-0.9,0c-0.1,0-0.2,0-0.2-0.1c0,0,0-0.1,0.1-0.1
		c0.1,0,0.2,0,0.3,0c0.1,0,0.2-0.2,0.2-0.4c0-0.3,0-0.8,0-1.4v-0.5c0,0,0,0,0,0h-2.7c0,0,0,0,0,0v0.5c0,0.6,0,1.2,0,1.5
		c0,0.2,0.1,0.3,0.3,0.4c0.1,0,0.3,0,0.4,0c0.1,0,0.1,0,0.1,0.1c0,0-0.1,0.1-0.1,0.1c-0.5,0-0.9,0-1.2,0c-0.2,0-0.6,0-0.9,0
		c-0.1,0-0.1,0-0.1-0.1c0,0,0-0.1,0.1-0.1c0.1,0,0.2,0,0.3,0c0.1,0,0.2-0.2,0.2-0.4c0-0.3,0-0.8,0-1.5v-1.2c0-1,0-1.2,0-1.4
		c0-0.2-0.1-0.3-0.3-0.4c-0.1,0-0.2,0-0.3,0c-0.1,0-0.1,0-0.1-0.1c0,0,0.1-0.1,0.2-0.1c0.4,0,0.8,0,1,0c0.2,0,0.7,0,0.9,0
		c0.1,0,0.1,0,0.1,0.1c0,0.1,0,0.1-0.1,0.1c-0.1,0-0.1,0-0.2,0c-0.2,0-0.2,0.1-0.3,0.4c0,0.2,0,0.5,0,1.5v0.1c0,0,0,0,0,0H19.4z"/>
	<path fill="#231F20" d="M22.8,47.4c0-1,0-1.2,0-1.4c0-0.2-0.1-0.3-0.3-0.4c-0.1,0-0.2,0-0.3,0c-0.1,0-0.1,0-0.1-0.1
		c0,0,0.1-0.1,0.2-0.1c0.4,0,0.8,0,1,0c0.2,0,1.8,0,1.9,0c0.1,0,0.2,0,0.3,0c0,0,0.1,0,0.1,0c0,0,0,0,0,0.1c0,0.1,0,0.1-0.1,0.4
		c0,0.1,0,0.4,0,0.4c0,0,0,0.1-0.1,0.1c0,0-0.1,0-0.1-0.1c0,0,0-0.2,0-0.3c-0.1-0.1-0.1-0.2-0.5-0.3c-0.1,0-1,0-1.1,0
		c0,0-0.1,0-0.1,0.1v1.7c0,0,0,0.1,0.1,0.1c0.2,0,1.1,0,1.2,0c0.2,0,0.3,0,0.3-0.1c0.1,0,0.1-0.1,0.1-0.1c0,0,0.1,0,0.1,0.1
		c0,0,0,0.2-0.1,0.5c0,0.1,0,0.4,0,0.5c0,0.1,0,0.2-0.1,0.2c0,0-0.1,0-0.1-0.1c0-0.1,0-0.2,0-0.3c0-0.1-0.1-0.2-0.4-0.3
		c-0.1,0-0.9,0-1.1,0c0,0,0,0,0,0.1v0.5c0,0.2,0,0.8,0,1c0,0.5,0.2,0.6,1,0.6c0.2,0,0.5,0,0.7-0.1c0.2-0.1,0.3-0.2,0.3-0.5
		c0-0.1,0-0.1,0.1-0.1c0.1,0,0.1,0.1,0.1,0.2c0,0.2-0.1,0.6-0.1,0.8c0,0.2-0.1,0.2-0.4,0.2c-0.5,0-1,0-1.3,0c-0.3,0-0.6,0-0.8,0
		c-0.1,0-0.2,0-0.4,0c-0.2,0-0.3,0-0.5,0c-0.1,0-0.1,0-0.1-0.1c0,0,0-0.1,0.1-0.1c0.1,0,0.2,0,0.2,0c0.1,0,0.2-0.2,0.2-0.4
		c0-0.3,0-0.8,0-1.5V47.4z"/>
	<path fill="#231F20" d="M29.8,47.4c0-1,0-1.2,0-1.4c0-0.2-0.1-0.3-0.3-0.4c-0.1,0-0.2,0-0.3,0c-0.1,0-0.1,0-0.1-0.1
		c0,0,0.1-0.1,0.2-0.1c0.4,0,0.8,0,1,0c0.2,0,1.8,0,1.9,0c0.1,0,0.2,0,0.3,0c0,0,0.1,0,0.1,0c0,0,0,0,0,0.1c0,0.1,0,0.1-0.1,0.4
		c0,0.1,0,0.4,0,0.4c0,0,0,0.1-0.1,0.1c0,0-0.1,0-0.1-0.1c0,0,0-0.2,0-0.3c-0.1-0.1-0.1-0.2-0.5-0.3c-0.1,0-1,0-1.1,0c0,0,0,0,0,0.1
		v1.7c0,0,0,0.1,0,0.1c0.2,0,1.1,0,1.2,0c0.2,0,0.3,0,0.3-0.1c0.1,0,0.1-0.1,0.1-0.1c0,0,0.1,0,0.1,0.1c0,0,0,0.2-0.1,0.5
		c0,0.1,0,0.4,0,0.5c0,0.1,0,0.2-0.1,0.2c0,0-0.1,0-0.1-0.1c0-0.1,0-0.2,0-0.3c0-0.1-0.1-0.2-0.4-0.3c-0.1,0-0.9,0-1.1,0
		c0,0,0,0,0,0.1v0.5c0,0.2,0,0.8,0,1c0,0.5,0.2,0.6,1,0.6c0.2,0,0.5,0,0.7-0.1c0.2-0.1,0.3-0.2,0.3-0.5c0-0.1,0-0.1,0.1-0.1
		c0.1,0,0.1,0.1,0.1,0.2c0,0.2-0.1,0.6-0.1,0.8c0,0.2-0.1,0.2-0.4,0.2c-0.5,0-1,0-1.3,0c-0.3,0-0.6,0-0.8,0c-0.1,0-0.2,0-0.4,0
		c-0.2,0-0.3,0-0.5,0c-0.1,0-0.1,0-0.1-0.1c0,0,0-0.1,0.1-0.1c0.1,0,0.2,0,0.3,0c0.1,0,0.2-0.2,0.2-0.4c0-0.3,0-0.8,0-1.5V47.4z"/>
	<path fill="#231F20" d="M34.6,49.9c-0.7-0.6-0.9-1.4-0.9-2c0-0.5,0.2-1.3,0.8-1.9c0.5-0.4,1.2-0.7,2.2-0.7c0.4,0,0.7,0,1,0.1
		c0.3,0,0.5,0.1,0.7,0.1c0.1,0,0.1,0,0.1,0.1c0,0.1,0,0.1,0,0.4c0,0.2,0,0.6,0,0.7c0,0.1,0,0.2-0.1,0.2c-0.1,0-0.1-0.1-0.1-0.1
		c0-0.2-0.1-0.5-0.3-0.6c-0.2-0.2-0.7-0.4-1.4-0.4c-0.6,0-1,0.1-1.3,0.4c-0.5,0.5-0.7,1.1-0.7,1.8c0,1.6,1.3,2.4,2.2,2.4
		c0.6,0,1,0,1.3-0.4c0.1-0.1,0.2-0.3,0.2-0.5c0-0.1,0-0.1,0.1-0.1c0,0,0.1,0.1,0.1,0.1c0,0.1-0.1,0.7-0.2,0.9c0,0.1-0.1,0.2-0.2,0.2
		c-0.3,0.1-0.8,0.2-1.3,0.2C36,50.7,35.2,50.5,34.6,49.9"/>
	<path fill="#231F20" d="M44.2,48.1c0-1.5-0.9-2.4-2.1-2.4c-0.8,0-1.7,0.4-1.7,2.1c0,1.4,0.8,2.5,2.1,2.5
		C43,50.3,44.2,50.1,44.2,48.1 M39.4,48c0-1.2,0.8-2.7,3-2.7c1.8,0,2.9,1,2.9,2.6c0,1.6-1.1,2.8-3,2.8C40.2,50.7,39.4,49.2,39.4,48"
		/>
	<path fill="#231F20" d="M47,49.6c0,0.5,0.1,0.7,0.2,0.7c0.1,0,0.3,0,0.4,0c0.1,0,0.1,0,0.1,0.1c0,0.1-0.1,0.1-0.2,0.1
		c-0.5,0-0.8,0-0.9,0c-0.1,0-0.4,0-0.8,0c-0.1,0-0.2,0-0.2-0.1c0,0,0-0.1,0.1-0.1c0.1,0,0.2,0,0.3,0c0.2,0,0.2-0.2,0.2-0.8l0.1-4.1
		c0-0.1,0-0.2,0.1-0.2c0.1,0,0.2,0.1,0.3,0.2c0.1,0.1,1.2,1.2,2.2,2.2c0.5,0.5,1.4,1.4,1.5,1.5h0l-0.1-3c0-0.4-0.1-0.5-0.2-0.6
		c-0.1,0-0.3,0-0.4,0c-0.1,0-0.1,0-0.1-0.1c0-0.1,0.1-0.1,0.2-0.1c0.4,0,0.7,0,0.9,0c0.1,0,0.3,0,0.7,0c0.1,0,0.2,0,0.2,0.1
		c0,0,0,0.1-0.1,0.1c-0.1,0-0.1,0-0.2,0c-0.2,0.1-0.2,0.2-0.3,0.6l-0.1,4.3c0,0.2-0.1,0.2-0.1,0.2c-0.1,0-0.2-0.1-0.3-0.1
		c-0.4-0.4-1.3-1.3-2.1-2c-0.8-0.7-1.5-1.6-1.7-1.7h0L47,49.6z"/>
	<path fill="#231F20" d="M57.3,48.1c0-1.5-0.9-2.4-2.1-2.4c-0.8,0-1.7,0.4-1.7,2.1c0,1.4,0.8,2.5,2.1,2.5
		C56.2,50.3,57.3,50.1,57.3,48.1 M52.5,48c0-1.2,0.8-2.7,3-2.7c1.8,0,2.9,1,2.9,2.6c0,1.6-1.1,2.8-3,2.8
		C53.3,50.7,52.5,49.2,52.5,48"/>
	<path fill="#231F20" d="M60.1,45.4c0-0.1,0.1-0.2,0.1-0.2c0.1,0,0.1,0,0.2,0.2l1.9,3.8l1.9-3.9c0.1-0.1,0.1-0.2,0.2-0.2
		c0.1,0,0.1,0.1,0.2,0.2l0.6,4.2c0.1,0.4,0.1,0.6,0.3,0.7c0.2,0.1,0.3,0.1,0.4,0.1c0.1,0,0.1,0,0.1,0.1c0,0.1-0.1,0.1-0.2,0.1
		c-0.2,0-1.2,0-1.5,0c-0.2,0-0.2,0-0.2-0.1c0,0,0-0.1,0.1-0.1c0,0,0.1-0.1,0-0.3l-0.4-3h0l-1.5,3.1c-0.2,0.3-0.2,0.4-0.3,0.4
		c-0.1,0-0.2-0.1-0.3-0.3c-0.2-0.3-0.7-1.4-0.8-1.6c-0.1-0.1-0.5-1-0.7-1.5h0L60,49.9c0,0.1,0,0.2,0,0.3c0,0.1,0.1,0.2,0.2,0.2
		c0.1,0,0.2,0,0.2,0c0.1,0,0.1,0,0.1,0.1c0,0.1-0.1,0.1-0.2,0.1c-0.3,0-0.6,0-0.7,0c-0.1,0-0.5,0-0.7,0c-0.1,0-0.1,0-0.1-0.1
		c0,0,0-0.1,0.1-0.1c0.1,0,0.1,0,0.2,0c0.2,0,0.3-0.3,0.3-0.5L60.1,45.4z"/>
	<path fill="#231F20" d="M67.3,47.4c0-1,0-1.2,0-1.4c0-0.2-0.1-0.3-0.2-0.4c-0.1,0-0.2,0-0.3,0c-0.1,0-0.1,0-0.1-0.1
		c0,0,0.1-0.1,0.2-0.1c0.3,0,0.7,0,1,0c0.2,0,0.6,0,0.9,0c0.1,0,0.1,0,0.1,0.1c0,0.1,0,0.1-0.1,0.1c-0.1,0-0.1,0-0.2,0
		c-0.2,0-0.2,0.1-0.3,0.4c0,0.2,0,0.4,0,1.4v1.2c0,0.7,0,1.2,0,1.5c0,0.2,0.1,0.3,0.3,0.3c0.1,0,0.3,0,0.4,0c0.1,0,0.1,0,0.1,0.1
		c0,0-0.1,0.1-0.1,0.1c-0.5,0-1,0-1.1,0c-0.2,0-0.6,0-0.9,0c-0.1,0-0.1,0-0.1-0.1c0,0,0-0.1,0.1-0.1c0.1,0,0.2,0,0.2,0
		c0.1,0,0.2-0.1,0.2-0.3c0-0.3,0-0.8,0-1.5V47.4z"/>
	<path fill="#231F20" d="M70.6,49.9c-0.7-0.6-0.9-1.4-0.9-2c0-0.5,0.2-1.3,0.8-1.9c0.5-0.4,1.2-0.7,2.2-0.7c0.4,0,0.7,0,1,0.1
		c0.3,0,0.5,0.1,0.7,0.1c0.1,0,0.1,0,0.1,0.1c0,0.1,0,0.1,0,0.4c0,0.2,0,0.6,0,0.7c0,0.1,0,0.2-0.1,0.2c-0.1,0-0.1-0.1-0.1-0.1
		c0-0.2-0.1-0.5-0.3-0.6c-0.2-0.2-0.7-0.4-1.4-0.4c-0.6,0-1,0.1-1.3,0.4c-0.5,0.5-0.7,1.1-0.7,1.8c0,1.6,1.3,2.4,2.2,2.4
		c0.6,0,1,0,1.3-0.4c0.1-0.1,0.2-0.3,0.2-0.5c0-0.1,0-0.1,0.1-0.1c0,0,0.1,0.1,0.1,0.1c0,0.1-0.1,0.7-0.2,0.9c0,0.1-0.1,0.2-0.2,0.2
		c-0.3,0.1-0.8,0.2-1.3,0.2C72.1,50.7,71.2,50.5,70.6,49.9"/>
	<path fill="#231F20" d="M79.5,47.9c0,0.1,0,0.1,0.1,0.1c0.2,0,0.4,0.1,0.5,0.1c0.3,0,0.4,0,0.5-0.1c0.2-0.2,0.5-0.5,0.5-1
		c0-1-0.7-1.2-1.1-1.2c-0.2,0-0.3,0-0.4,0c0,0-0.1,0-0.1,0.1V47.9z M78.6,47.4c0-1,0-1.2,0-1.4c0-0.2-0.1-0.3-0.3-0.4
		c-0.1,0-0.2,0-0.3,0c-0.1,0-0.1,0-0.1-0.1c0,0,0.1-0.1,0.2-0.1c0.4,0,0.8,0,1,0c0.2,0,0.9,0,1.1,0c0.5,0,1,0,1.3,0.3
		c0.2,0.1,0.5,0.5,0.5,0.9c0,0.5-0.3,1-1,1.5c0.6,0.8,1.1,1.4,1.6,1.8c0.4,0.4,0.6,0.4,0.8,0.5c0.1,0,0.1,0,0.2,0
		c0.1,0,0.1,0,0.1,0.1c0,0.1,0,0.1-0.1,0.1h-0.7c-0.4,0-0.6,0-0.8-0.1c-0.3-0.2-0.6-0.5-1-1c-0.3-0.4-0.6-0.8-0.7-0.9
		c0,0-0.1,0-0.1,0l-0.6,0c0,0-0.1,0-0.1,0.1v0.1c0,0.6,0,1.2,0,1.5c0,0.2,0.1,0.3,0.3,0.4c0.1,0,0.3,0,0.3,0c0.1,0,0.1,0,0.1,0.1
		c0,0-0.1,0.1-0.1,0.1c-0.4,0-1,0-1.1,0c-0.1,0-0.6,0-0.9,0c-0.1,0-0.1,0-0.1-0.1c0,0,0-0.1,0.1-0.1c0.1,0,0.2,0,0.2,0
		c0.1,0,0.2-0.2,0.2-0.4c0-0.3,0-0.8,0-1.5V47.4z"/>
	<path fill="#231F20" d="M84.1,47.4c0-1,0-1.2,0-1.4c0-0.2-0.1-0.3-0.3-0.4c-0.1,0-0.2,0-0.3,0c-0.1,0-0.1,0-0.1-0.1
		c0,0,0.1-0.1,0.2-0.1c0.4,0,0.8,0,1,0c0.2,0,1.8,0,1.9,0c0.1,0,0.2,0,0.3,0c0,0,0.1,0,0.1,0c0,0,0,0,0,0.1c0,0.1,0,0.1-0.1,0.4
		c0,0.1,0,0.4,0,0.4c0,0,0,0.1-0.1,0.1c0,0-0.1,0-0.1-0.1c0,0,0-0.2,0-0.3c-0.1-0.1-0.1-0.2-0.5-0.3c-0.1,0-1,0-1.1,0c0,0,0,0,0,0.1
		v1.7c0,0,0,0.1,0,0.1c0.2,0,1.1,0,1.2,0c0.2,0,0.3,0,0.3-0.1c0.1,0,0.1-0.1,0.1-0.1c0,0,0.1,0,0.1,0.1c0,0,0,0.2-0.1,0.5
		c0,0.1,0,0.4,0,0.5c0,0.1,0,0.2-0.1,0.2c0,0-0.1,0-0.1-0.1c0-0.1,0-0.2,0-0.3c0-0.1-0.1-0.2-0.4-0.3c-0.1,0-0.9,0-1.1,0
		c0,0,0,0,0,0.1v0.5c0,0.2,0,0.8,0,1c0,0.5,0.2,0.6,1,0.6c0.2,0,0.5,0,0.7-0.1c0.2-0.1,0.3-0.2,0.3-0.5c0-0.1,0-0.1,0.1-0.1
		c0.1,0,0.1,0.1,0.1,0.2c0,0.2-0.1,0.6-0.1,0.8c0,0.2-0.1,0.2-0.4,0.2c-0.5,0-1,0-1.3,0c-0.3,0-0.6,0-0.8,0c-0.1,0-0.2,0-0.4,0
		c-0.2,0-0.3,0-0.5,0c-0.1,0-0.1,0-0.1-0.1c0,0,0-0.1,0.1-0.1c0.1,0,0.2,0,0.3,0c0.1,0,0.2-0.2,0.2-0.4c0-0.3,0-0.8,0-1.5V47.4z"/>
	<path fill="#231F20" d="M88.4,50.5c-0.1,0-0.1-0.1-0.1-0.2c0-0.4,0-0.8,0-0.9c0-0.1,0-0.2,0.1-0.2c0.1,0,0.1,0.1,0.1,0.1
		c0,0.1,0,0.2,0.1,0.4c0.2,0.5,0.7,0.7,1.1,0.7c0.6,0,1-0.4,1-0.9c0-0.3-0.1-0.6-0.7-1l-0.4-0.2c-0.8-0.5-1.1-1-1.1-1.6
		c0-0.8,0.8-1.4,1.8-1.4c0.5,0,0.8,0.1,1,0.1c0.1,0,0.1,0,0.1,0.1c0,0.1,0,0.3,0,0.8c0,0.1,0,0.2-0.1,0.2c0,0-0.1,0-0.1-0.1
		c0-0.1,0-0.3-0.2-0.4c-0.1-0.1-0.3-0.3-0.8-0.3c-0.5,0-1,0.3-1,0.7c0,0.3,0.1,0.5,0.7,0.9l0.3,0.2c0.9,0.5,1.2,1,1.2,1.7
		c0,0.5-0.2,0.9-0.7,1.3c-0.3,0.2-0.8,0.3-1.2,0.3C89.1,50.7,88.7,50.6,88.4,50.5"/>
	<path fill="#231F20" d="M92.9,47.4c0-1,0-1.2,0-1.4c0-0.2-0.1-0.3-0.3-0.4c-0.1,0-0.2,0-0.3,0c-0.1,0-0.1,0-0.1-0.1
		c0,0,0.1-0.1,0.2-0.1c0.4,0,0.8,0,1,0c0.2,0,1.8,0,1.9,0c0.1,0,0.2,0,0.3,0c0,0,0.1,0,0.1,0c0,0,0.1,0,0.1,0.1c0,0.1,0,0.1-0.1,0.4
		c0,0.1,0,0.4,0,0.4c0,0,0,0.1-0.1,0.1c0,0-0.1,0-0.1-0.1c0,0,0-0.2,0-0.3c-0.1-0.1-0.1-0.2-0.5-0.3c-0.1,0-1,0-1.1,0c0,0,0,0,0,0.1
		v1.7c0,0,0,0.1,0,0.1c0.2,0,1.1,0,1.2,0c0.2,0,0.3,0,0.3-0.1c0.1,0,0.1-0.1,0.1-0.1c0,0,0.1,0,0.1,0.1c0,0,0,0.2-0.1,0.5
		c0,0.1,0,0.4,0,0.5c0,0.1,0,0.2-0.1,0.2c0,0-0.1,0-0.1-0.1c0-0.1,0-0.2,0-0.3c0-0.1-0.1-0.2-0.4-0.3c-0.1,0-0.9,0-1.1,0
		c0,0,0,0,0,0.1v0.5c0,0.2,0,0.8,0,1c0,0.5,0.2,0.6,1,0.6c0.2,0,0.5,0,0.7-0.1c0.2-0.1,0.3-0.2,0.3-0.5c0-0.1,0-0.1,0.1-0.1
		c0.1,0,0.1,0.1,0.1,0.2c0,0.2-0.1,0.6-0.1,0.8c0,0.2-0.1,0.2-0.4,0.2c-0.5,0-1,0-1.3,0c-0.3,0-0.6,0-0.8,0c-0.1,0-0.2,0-0.4,0
		c-0.2,0-0.3,0-0.5,0c-0.1,0-0.1,0-0.1-0.1c0,0,0-0.1,0.1-0.1c0.1,0,0.2,0,0.2,0c0.1,0,0.2-0.2,0.2-0.4c0-0.3,0-0.8,0-1.5V47.4z"/>
	<path fill="#231F20" d="M99.4,48.5C99.4,48.5,99.4,48.5,99.4,48.5l-0.6-1.8c0,0,0-0.1,0-0.1c0,0,0,0,0,0.1L98,48.4c0,0,0,0,0,0
		H99.4z M97.9,48.9C97.8,48.9,97.8,48.9,97.9,48.9l-0.4,1c-0.1,0.2-0.1,0.3-0.1,0.4c0,0.1,0.1,0.2,0.3,0.2h0.1c0.1,0,0.1,0,0.1,0.1
		c0,0.1,0,0.1-0.1,0.1c-0.2,0-0.6,0-0.8,0c-0.1,0-0.5,0-0.8,0c-0.1,0-0.1,0-0.1-0.1c0,0,0-0.1,0.1-0.1c0.1,0,0.1,0,0.2,0
		c0.3,0,0.4-0.3,0.6-0.6l1.9-4.3c0.1-0.2,0.1-0.3,0.2-0.3c0.1,0,0.1,0.1,0.2,0.2c0.2,0.4,1.4,3.2,1.8,4.2c0.3,0.6,0.5,0.7,0.6,0.7
		c0.1,0,0.2,0,0.3,0c0.1,0,0.1,0,0.1,0.1c0,0.1,0,0.1-0.3,0.1c-0.3,0-0.8,0-1.4,0c-0.1,0-0.2,0-0.2-0.1c0,0,0-0.1,0.1-0.1
		c0,0,0.1-0.1,0.1-0.2l-0.5-1.4c0,0,0-0.1-0.1-0.1H97.9z"/>
	<path fill="#231F20" d="M103.6,47.9c0,0.1,0,0.1,0.1,0.1c0.2,0,0.4,0.1,0.5,0.1c0.3,0,0.4,0,0.5-0.1c0.2-0.2,0.5-0.5,0.5-1
		c0-1-0.7-1.2-1.1-1.2c-0.2,0-0.3,0-0.4,0c0,0-0.1,0-0.1,0.1V47.9z M102.7,47.4c0-1,0-1.2,0-1.4c0-0.2-0.1-0.3-0.3-0.4
		c-0.1,0-0.2,0-0.3,0c-0.1,0-0.1,0-0.1-0.1c0,0,0.1-0.1,0.2-0.1c0.4,0,0.8,0,1,0c0.2,0,0.9,0,1.1,0c0.5,0,1,0,1.3,0.3
		c0.2,0.1,0.5,0.5,0.5,0.9c0,0.5-0.3,1-1,1.5c0.6,0.8,1.1,1.4,1.6,1.8c0.4,0.4,0.6,0.4,0.8,0.5c0.1,0,0.1,0,0.2,0
		c0.1,0,0.1,0,0.1,0.1c0,0.1,0,0.1-0.1,0.1h-0.7c-0.4,0-0.6,0-0.8-0.1c-0.3-0.2-0.6-0.5-1-1c-0.3-0.4-0.6-0.8-0.7-0.9
		c0,0-0.1,0-0.1,0l-0.6,0c0,0-0.1,0-0.1,0.1v0.1c0,0.6,0,1.2,0,1.5c0,0.2,0.1,0.3,0.3,0.4c0.1,0,0.3,0,0.3,0c0.1,0,0.1,0,0.1,0.1
		c0,0-0.1,0.1-0.1,0.1c-0.4,0-1,0-1.1,0c-0.1,0-0.6,0-0.9,0c-0.1,0-0.1,0-0.1-0.1c0,0,0-0.1,0.1-0.1c0.1,0,0.2,0,0.2,0
		c0.1,0,0.2-0.2,0.2-0.4c0-0.3,0-0.8,0-1.5V47.4z"/>
	<path fill="#231F20" d="M108.3,49.9c-0.7-0.6-0.9-1.4-0.9-2c0-0.5,0.2-1.3,0.8-1.9c0.5-0.4,1.2-0.7,2.2-0.7c0.4,0,0.7,0,1,0.1
		c0.3,0,0.5,0.1,0.7,0.1c0.1,0,0.1,0,0.1,0.1c0,0.1,0,0.1,0,0.4c0,0.2,0,0.6,0,0.7c0,0.1,0,0.2-0.1,0.2c-0.1,0-0.1-0.1-0.1-0.1
		c0-0.2-0.1-0.5-0.3-0.6c-0.2-0.2-0.7-0.4-1.4-0.4c-0.6,0-1,0.1-1.3,0.4c-0.5,0.5-0.7,1.1-0.7,1.8c0,1.6,1.3,2.4,2.2,2.4
		c0.6,0,1,0,1.3-0.4c0.1-0.1,0.2-0.3,0.2-0.5c0-0.1,0-0.1,0.1-0.1c0,0,0.1,0.1,0.1,0.1c0,0.1-0.1,0.7-0.2,0.9c0,0.1-0.1,0.2-0.2,0.2
		c-0.3,0.1-0.8,0.2-1.3,0.2C109.7,50.7,108.9,50.5,108.3,49.9"/>
	<path fill="#231F20" d="M117.5,47.6C117.5,47.6,117.5,47.6,117.5,47.6l0-0.2c0-1,0-1.3,0-1.5c0-0.2-0.1-0.3-0.3-0.4
		c-0.1,0-0.2,0-0.3,0c-0.1,0-0.1,0-0.1-0.1c0,0,0-0.1,0.1-0.1c0.4,0,0.9,0,1.1,0c0.2,0,0.6,0,0.9,0c0.1,0,0.2,0,0.2,0.1
		c0,0.1,0,0.1-0.1,0.1c-0.1,0-0.1,0-0.2,0c-0.2,0-0.2,0.1-0.3,0.4c0,0.2,0,0.4,0,1.4v1.2c0,0.6,0,1.2,0,1.5c0,0.2,0.1,0.3,0.3,0.4
		c0.1,0,0.3,0,0.4,0c0.1,0,0.1,0,0.1,0.1c0,0-0.1,0.1-0.1,0.1c-0.5,0-0.9,0-1.1,0c-0.2,0-0.7,0-0.9,0c-0.1,0-0.2,0-0.2-0.1
		c0,0,0-0.1,0.1-0.1c0.1,0,0.2,0,0.3,0c0.1,0,0.2-0.2,0.2-0.4c0-0.3,0-0.8,0-1.4v-0.5c0,0,0,0,0,0h-2.7c0,0,0,0,0,0v0.5
		c0,0.6,0,1.2,0,1.5c0,0.2,0.1,0.3,0.3,0.4c0.1,0,0.3,0,0.4,0c0.1,0,0.1,0,0.1,0.1c0,0-0.1,0.1-0.1,0.1c-0.5,0-1,0-1.2,0
		c-0.2,0-0.6,0-0.9,0c-0.1,0-0.1,0-0.1-0.1c0,0,0-0.1,0.1-0.1c0.1,0,0.2,0,0.3,0c0.1,0,0.2-0.2,0.2-0.4c0-0.3,0-0.8,0-1.5v-1.2
		c0-1,0-1.2,0-1.4c0-0.2-0.1-0.3-0.3-0.4c-0.1,0-0.2,0-0.3,0c-0.1,0-0.1,0-0.1-0.1c0,0,0.1-0.1,0.2-0.1c0.4,0,0.8,0,1,0
		c0.2,0,0.7,0,0.9,0c0.1,0,0.1,0,0.1,0.1c0,0.1,0,0.1-0.1,0.1c-0.1,0-0.1,0-0.2,0c-0.2,0-0.3,0.1-0.3,0.4c0,0.2,0,0.5,0,1.5v0.1
		c0,0,0,0,0,0H117.5z"/>
	<path fill="#231F20" d="M127.3,48.1c0-1.5-0.9-2.4-2.1-2.4c-0.8,0-1.7,0.4-1.7,2.1c0,1.4,0.8,2.5,2.1,2.5
		C126.1,50.3,127.3,50.1,127.3,48.1 M122.5,48c0-1.2,0.8-2.7,3-2.7c1.8,0,2.9,1,2.9,2.6c0,1.6-1.1,2.8-3,2.8
		C123.3,50.7,122.5,49.2,122.5,48"/>
	<path fill="#231F20" d="M130.5,47.9c0,0.1,0,0.1,0.1,0.1c0.2,0,0.4,0.1,0.5,0.1c0.3,0,0.4,0,0.5-0.1c0.2-0.2,0.5-0.5,0.5-1
		c0-1-0.7-1.2-1.1-1.2c-0.2,0-0.3,0-0.4,0c0,0-0.1,0-0.1,0.1V47.9z M129.6,47.4c0-1,0-1.2,0-1.4c0-0.2-0.1-0.3-0.3-0.4
		c-0.1,0-0.2,0-0.3,0c-0.1,0-0.1,0-0.1-0.1c0,0,0.1-0.1,0.2-0.1c0.4,0,0.8,0,1,0c0.2,0,0.9,0,1.1,0c0.5,0,1,0,1.3,0.3
		c0.2,0.1,0.5,0.5,0.5,0.9c0,0.5-0.3,1-1,1.5c0.6,0.8,1.1,1.4,1.6,1.8c0.4,0.4,0.6,0.4,0.8,0.5c0.1,0,0.1,0,0.2,0
		c0.1,0,0.1,0,0.1,0.1c0,0.1,0,0.1-0.1,0.1h-0.7c-0.4,0-0.6,0-0.8-0.1c-0.3-0.2-0.6-0.5-1-1c-0.3-0.4-0.6-0.8-0.7-0.9
		c0,0-0.1,0-0.1,0l-0.6,0c0,0-0.1,0-0.1,0.1v0.1c0,0.6,0,1.2,0,1.5c0,0.2,0.1,0.3,0.3,0.4c0.1,0,0.3,0,0.3,0c0.1,0,0.1,0,0.1,0.1
		c0,0-0.1,0.1-0.1,0.1c-0.4,0-1,0-1.1,0c-0.1,0-0.6,0-0.9,0c-0.1,0-0.1,0-0.1-0.1c0,0,0-0.1,0.1-0.1c0.1,0,0.2,0,0.2,0
		c0.1,0,0.2-0.2,0.2-0.4c0-0.3,0-0.8,0-1.5V47.4z"/>
	<path fill="#231F20" d="M139.5,50.1c0,0.2,0,0.2-0.1,0.2c-0.5,0.2-1.2,0.3-1.7,0.3c-1.7,0-3.3-0.8-3.3-2.7c0-1.1,0.6-1.9,1.2-2.2
		c0.7-0.4,1.3-0.4,1.9-0.4c0.5,0,1.1,0.1,1.3,0.1c0.1,0,0.4,0.1,0.6,0.1c0.1,0,0.1,0,0.1,0.1c0,0.1,0,0.3,0,1.1c0,0.1,0,0.2-0.1,0.2
		c0,0-0.1,0-0.1-0.1c0-0.2-0.1-0.4-0.2-0.6c-0.2-0.2-0.7-0.5-1.5-0.5c-0.4,0-0.9,0-1.4,0.4c-0.4,0.3-0.6,0.8-0.6,1.7
		c0,1.5,0.9,2.5,2.5,2.5c0.2,0,0.3,0,0.5-0.1c0.1,0,0.1-0.1,0.1-0.2v-0.6c0-0.3,0-0.6,0-0.8c0-0.2-0.1-0.3-0.3-0.4
		c-0.1,0-0.2,0-0.3,0c-0.1,0-0.1,0-0.1-0.1c0-0.1,0.1-0.1,0.2-0.1c0.4,0,0.9,0,1.1,0c0.2,0,0.6,0,0.8,0c0.1,0,0.1,0,0.1,0.1
		c0,0,0,0.1-0.1,0.1c-0.1,0-0.1,0-0.2,0c-0.2,0-0.3,0.1-0.3,0.4c0,0.2,0,0.5,0,0.8V50.1z"/>
	<path fill="#231F20" d="M143.3,48.5C143.3,48.5,143.3,48.5,143.3,48.5l-0.6-1.8c0,0,0-0.1,0-0.1c0,0,0,0,0,0.1l-0.7,1.7
		c0,0,0,0,0,0H143.3z M141.7,48.9C141.7,48.9,141.7,48.9,141.7,48.9l-0.4,1c-0.1,0.2-0.1,0.3-0.1,0.4c0,0.1,0.1,0.2,0.3,0.2h0.1
		c0.1,0,0.1,0,0.1,0.1c0,0.1,0,0.1-0.1,0.1c-0.2,0-0.6,0-0.8,0c-0.1,0-0.4,0-0.8,0c-0.1,0-0.1,0-0.1-0.1c0,0,0-0.1,0.1-0.1
		c0.1,0,0.1,0,0.2,0c0.3,0,0.4-0.3,0.6-0.6l1.9-4.3c0.1-0.2,0.1-0.3,0.2-0.3c0.1,0,0.1,0.1,0.2,0.2c0.2,0.4,1.4,3.2,1.8,4.2
		c0.3,0.6,0.5,0.7,0.6,0.7c0.1,0,0.2,0,0.3,0c0.1,0,0.1,0,0.1,0.1c0,0.1,0,0.1-0.3,0.1c-0.2,0-0.8,0-1.4,0c-0.1,0-0.2,0-0.2-0.1
		c0,0,0-0.1,0.1-0.1c0.1,0,0.1-0.1,0.1-0.2l-0.5-1.4c0,0,0-0.1-0.1-0.1H141.7z"/>
	<path fill="#231F20" d="M147,49.6c0,0.5,0.1,0.7,0.2,0.7c0.1,0,0.3,0,0.4,0c0.1,0,0.1,0,0.1,0.1c0,0.1-0.1,0.1-0.2,0.1
		c-0.5,0-0.8,0-0.9,0c-0.1,0-0.4,0-0.8,0c-0.1,0-0.2,0-0.2-0.1c0,0,0-0.1,0.1-0.1c0.1,0,0.2,0,0.3,0c0.2,0,0.2-0.2,0.2-0.8l0.1-4.1
		c0-0.1,0-0.2,0.1-0.2c0.1,0,0.2,0.1,0.3,0.2c0.1,0.1,1.2,1.2,2.2,2.2c0.5,0.5,1.4,1.4,1.5,1.5h0l-0.1-3c0-0.4-0.1-0.5-0.2-0.6
		c-0.1,0-0.3,0-0.4,0c-0.1,0-0.1,0-0.1-0.1c0-0.1,0.1-0.1,0.2-0.1c0.4,0,0.7,0,0.9,0c0.1,0,0.3,0,0.7,0c0.1,0,0.2,0,0.2,0.1
		c0,0,0,0.1-0.1,0.1c-0.1,0-0.1,0-0.2,0c-0.2,0.1-0.2,0.2-0.3,0.6l-0.1,4.3c0,0.2-0.1,0.2-0.1,0.2c-0.1,0-0.2-0.1-0.3-0.1
		c-0.4-0.4-1.3-1.3-2.1-2c-0.8-0.7-1.5-1.6-1.7-1.7h0L147,49.6z"/>
	<path fill="#231F20" d="M153.3,47.4c0-1,0-1.2,0-1.4c0-0.2-0.1-0.3-0.2-0.4c-0.1,0-0.2,0-0.3,0c-0.1,0-0.1,0-0.1-0.1
		c0,0,0.1-0.1,0.2-0.1c0.3,0,0.7,0,0.9,0c0.2,0,0.6,0,0.9,0c0.1,0,0.1,0,0.1,0.1c0,0.1,0,0.1-0.1,0.1c-0.1,0-0.1,0-0.2,0
		c-0.2,0-0.3,0.1-0.3,0.4c0,0.2,0,0.4,0,1.4v1.2c0,0.7,0,1.2,0,1.5c0,0.2,0.1,0.3,0.3,0.3c0.1,0,0.3,0,0.4,0c0.1,0,0.1,0,0.1,0.1
		c0,0-0.1,0.1-0.1,0.1c-0.5,0-1,0-1.1,0c-0.2,0-0.6,0-0.9,0c-0.1,0-0.1,0-0.1-0.1c0,0,0-0.1,0.1-0.1c0.1,0,0.2,0,0.2,0
		c0.1,0,0.2-0.1,0.2-0.3c0-0.3,0-0.8,0-1.5V47.4z"/>
	<path fill="#231F20" d="M158.7,50.1c0.7,0,1-0.1,1.1-0.4c0.1-0.1,0.1-0.2,0.1-0.3c0-0.1,0-0.1,0.1-0.1c0.1,0,0.1,0,0.1,0.2
		c0,0.2-0.1,0.7-0.1,0.8c0,0.1-0.1,0.2-0.2,0.2c-1.2,0-2.4,0-3.8,0c-0.1,0-0.1,0-0.1-0.1c0,0,0-0.1,0.1-0.2c1-1.5,2-3.1,3-4.5h-1.3
		c-0.4,0-0.8,0-1,0.1c-0.2,0.1-0.4,0.4-0.4,0.5c0,0.1,0,0.1-0.1,0.1c0,0-0.1,0-0.1-0.1c0-0.2,0.1-0.8,0.1-1c0-0.1,0-0.1,0.1-0.1
		c0.1,0,0.1,0,0.3,0c0.7,0,1,0,1.3,0h2.2c0.1,0,0.1,0,0.1,0.1c0,0.1,0,0.1,0,0.1c-1,1.5-2,3.1-3,4.5H158.7z"/>
	<path fill="#231F20" d="M163.3,48.5C163.3,48.5,163.3,48.5,163.3,48.5l-0.6-1.8c0,0,0-0.1,0-0.1c0,0,0,0,0,0.1l-0.7,1.7
		c0,0,0,0,0,0H163.3z M161.8,48.9C161.8,48.9,161.7,48.9,161.8,48.9l-0.4,1c-0.1,0.2-0.1,0.3-0.1,0.4c0,0.1,0.1,0.2,0.3,0.2h0.1
		c0.1,0,0.1,0,0.1,0.1c0,0.1,0,0.1-0.1,0.1c-0.2,0-0.6,0-0.8,0c-0.1,0-0.5,0-0.8,0c-0.1,0-0.1,0-0.1-0.1c0,0,0-0.1,0.1-0.1
		c0.1,0,0.1,0,0.2,0c0.3,0,0.4-0.3,0.6-0.6l1.9-4.3c0.1-0.2,0.1-0.3,0.2-0.3c0.1,0,0.1,0.1,0.2,0.2c0.2,0.4,1.4,3.2,1.8,4.2
		c0.3,0.6,0.5,0.7,0.6,0.7c0.1,0,0.2,0,0.3,0c0.1,0,0.1,0,0.1,0.1c0,0.1,0,0.1-0.3,0.1c-0.2,0-0.8,0-1.4,0c-0.1,0-0.2,0-0.2-0.1
		c0,0,0-0.1,0.1-0.1c0,0,0.1-0.1,0.1-0.2l-0.5-1.4c0,0,0-0.1-0.1-0.1H161.8z"/>
	<path fill="#231F20" d="M167,45.8l-1.1,0c-0.4,0-0.6,0.1-0.7,0.2c-0.1,0.1-0.1,0.2-0.1,0.2c0,0.1,0,0.1-0.1,0.1c0,0-0.1,0-0.1-0.1
		c0-0.1,0.1-0.8,0.2-0.8c0-0.1,0-0.1,0.1-0.1c0.1,0,0.1,0.1,0.3,0.1c0.2,0,0.5,0,0.7,0h2.9c0.2,0,0.4,0,0.5,0c0.1,0,0.2,0,0.2,0
		c0,0,0.1,0,0.1,0.1c0,0.1,0,0.7,0,0.8c0,0.1,0,0.1-0.1,0.1c-0.1,0-0.1,0-0.1-0.1l0-0.1c0-0.2-0.2-0.4-0.8-0.4l-0.9,0v2.8
		c0,0.6,0,1.2,0,1.5c0,0.2,0.1,0.3,0.3,0.4c0.1,0,0.3,0,0.4,0c0.1,0,0.1,0,0.1,0.1c0,0-0.1,0.1-0.1,0.1c-0.5,0-0.9,0-1.1,0
		c-0.2,0-0.6,0-0.9,0c-0.1,0-0.1,0-0.1-0.1c0,0,0-0.1,0.1-0.1c0.1,0,0.2,0,0.2,0c0.1,0,0.2-0.2,0.2-0.4c0-0.3,0-0.8,0-1.5V45.8z"/>
	<path fill="#231F20" d="M171.2,47.4c0-1,0-1.2,0-1.4c0-0.2-0.1-0.3-0.2-0.4c-0.1,0-0.2,0-0.3,0c-0.1,0-0.1,0-0.1-0.1
		c0,0,0.1-0.1,0.2-0.1c0.3,0,0.7,0,1,0c0.2,0,0.6,0,0.9,0c0.1,0,0.1,0,0.1,0.1c0,0.1,0,0.1-0.1,0.1c-0.1,0-0.1,0-0.2,0
		c-0.2,0-0.2,0.1-0.3,0.4c0,0.2,0,0.4,0,1.4v1.2c0,0.7,0,1.2,0,1.5c0,0.2,0.1,0.3,0.3,0.3c0.1,0,0.3,0,0.4,0c0.1,0,0.1,0,0.1,0.1
		c0,0-0.1,0.1-0.1,0.1c-0.5,0-0.9,0-1.1,0c-0.2,0-0.6,0-0.9,0c-0.1,0-0.1,0-0.1-0.1c0,0,0-0.1,0.1-0.1c0.1,0,0.2,0,0.3,0
		c0.1,0,0.2-0.1,0.2-0.3c0-0.3,0-0.8,0-1.5V47.4z"/>
	<path fill="#231F20" d="M178.4,48.1c0-1.5-0.9-2.4-2.1-2.4c-0.8,0-1.7,0.4-1.7,2.1c0,1.4,0.8,2.5,2.1,2.5
		C177.3,50.3,178.4,50.1,178.4,48.1 M173.6,48c0-1.2,0.8-2.7,3-2.7c1.8,0,2.9,1,2.9,2.6c0,1.6-1.1,2.8-3,2.8
		C174.4,50.7,173.6,49.2,173.6,48"/>
	<path fill="#231F20" d="M181.2,49.6c0,0.5,0.1,0.7,0.2,0.7c0.1,0,0.3,0,0.4,0c0.1,0,0.1,0,0.1,0.1c0,0.1-0.1,0.1-0.2,0.1
		c-0.5,0-0.8,0-0.9,0c-0.1,0-0.4,0-0.8,0c-0.1,0-0.2,0-0.2-0.1c0,0,0-0.1,0.1-0.1c0.1,0,0.2,0,0.3,0c0.2,0,0.2-0.2,0.2-0.8l0.1-4.1
		c0-0.1,0-0.2,0.1-0.2c0.1,0,0.2,0.1,0.3,0.2c0.1,0.1,1.2,1.2,2.2,2.2c0.5,0.5,1.4,1.4,1.5,1.5h0l-0.1-3c0-0.4-0.1-0.5-0.2-0.6
		c-0.1,0-0.3,0-0.4,0c-0.1,0-0.1,0-0.1-0.1c0-0.1,0.1-0.1,0.2-0.1c0.4,0,0.7,0,0.9,0c0.1,0,0.3,0,0.7,0c0.1,0,0.2,0,0.2,0.1
		c0,0,0,0.1-0.1,0.1c-0.1,0-0.1,0-0.2,0c-0.2,0.1-0.2,0.2-0.3,0.6l-0.1,4.3c0,0.2-0.1,0.2-0.1,0.2c-0.1,0-0.2-0.1-0.3-0.1
		c-0.4-0.4-1.3-1.3-2.1-2c-0.8-0.7-1.5-1.6-1.7-1.7h0L181.2,49.6z"/>
	<path fill="#231F20" d="M35.6,58.5C35.6,58.5,35.6,58.5,35.6,58.5l-0.6-1.8c0,0,0-0.1,0-0.1c0,0,0,0,0,0.1l-0.7,1.7c0,0,0,0,0,0
		H35.6z M34.1,58.9C34,58.9,34,58.9,34.1,58.9l-0.4,1c-0.1,0.2-0.1,0.3-0.1,0.4c0,0.1,0.1,0.2,0.3,0.2h0.1c0.1,0,0.1,0,0.1,0.1
		c0,0.1,0,0.1-0.1,0.1c-0.2,0-0.6,0-0.8,0c-0.1,0-0.5,0-0.8,0c-0.1,0-0.1,0-0.1-0.1c0,0,0-0.1,0.1-0.1c0.1,0,0.1,0,0.2,0
		c0.3,0,0.4-0.3,0.6-0.6l1.9-4.3c0.1-0.2,0.1-0.3,0.2-0.3c0.1,0,0.1,0.1,0.2,0.2c0.2,0.4,1.4,3.2,1.8,4.2c0.3,0.6,0.5,0.7,0.6,0.7
		c0.1,0,0.2,0,0.3,0c0.1,0,0.1,0,0.1,0.1c0,0.1,0,0.1-0.3,0.1c-0.2,0-0.8,0-1.4,0c-0.1,0-0.2,0-0.2-0.1c0,0,0-0.1,0.1-0.1
		c0.1,0,0.1-0.1,0.1-0.2l-0.5-1.4c0,0,0,0-0.1,0H34.1z"/>
	<path fill="#231F20" d="M39.3,55.8l-1.1,0c-0.4,0-0.6,0.1-0.7,0.2c-0.1,0.1-0.1,0.2-0.1,0.2c0,0.1,0,0.1-0.1,0.1c0,0-0.1,0-0.1-0.1
		c0-0.1,0.1-0.8,0.2-0.8c0-0.1,0-0.1,0.1-0.1c0.1,0,0.1,0.1,0.3,0.1c0.2,0,0.5,0,0.7,0h2.9c0.2,0,0.4,0,0.5,0c0.1,0,0.2,0,0.2,0
		c0,0,0.1,0,0.1,0.1c0,0.1,0,0.7,0,0.8c0,0.1,0,0.1-0.1,0.1c-0.1,0-0.1,0-0.1-0.1l0-0.1c0-0.2-0.2-0.4-0.8-0.4l-0.9,0v2.8
		c0,0.6,0,1.2,0,1.5c0,0.2,0.1,0.3,0.3,0.4c0.1,0,0.3,0,0.4,0c0.1,0,0.1,0,0.1,0.1c0,0-0.1,0.1-0.1,0.1c-0.5,0-0.9,0-1.1,0
		c-0.2,0-0.6,0-0.9,0c-0.1,0-0.1,0-0.1-0.1c0,0,0-0.1,0.1-0.1c0.1,0,0.2,0,0.2,0c0.1,0,0.2-0.2,0.2-0.4c0-0.3,0-0.8,0-1.5V55.8z"/>
	<path fill="#231F20" d="M46.8,55.8l-1.1,0c-0.4,0-0.6,0.1-0.7,0.2c-0.1,0.1-0.1,0.2-0.1,0.2c0,0.1,0,0.1-0.1,0.1c0,0-0.1,0-0.1-0.1
		c0-0.1,0.1-0.8,0.2-0.8c0-0.1,0-0.1,0.1-0.1c0.1,0,0.1,0.1,0.3,0.1c0.2,0,0.5,0,0.7,0h2.9c0.2,0,0.4,0,0.5,0c0.1,0,0.2,0,0.2,0
		c0,0,0.1,0,0.1,0.1c0,0.1,0,0.7,0,0.8c0,0.1,0,0.1-0.1,0.1c-0.1,0-0.1,0-0.1-0.1l0-0.1c0-0.2-0.2-0.4-0.8-0.4l-0.9,0v2.8
		c0,0.6,0,1.2,0,1.5c0,0.2,0.1,0.3,0.3,0.4c0.1,0,0.3,0,0.4,0c0.1,0,0.1,0,0.1,0.1c0,0-0.1,0.1-0.1,0.1c-0.5,0-0.9,0-1.1,0
		c-0.2,0-0.6,0-0.9,0c-0.1,0-0.1,0-0.1-0.1c0,0,0-0.1,0.1-0.1c0.1,0,0.2,0,0.3,0c0.1,0,0.2-0.2,0.2-0.4c0-0.3,0-0.8,0-1.5V55.8z"/>
	<path fill="#231F20" d="M54.6,57.7C54.6,57.7,54.6,57.7,54.6,57.7l0-0.2c0-1,0-1.3,0-1.5c0-0.2-0.1-0.3-0.3-0.4c-0.1,0-0.2,0-0.3,0
		c-0.1,0-0.1,0-0.1-0.1c0,0,0-0.1,0.2-0.1c0.4,0,0.9,0,1.1,0c0.2,0,0.6,0,0.9,0c0.1,0,0.2,0,0.2,0.1c0,0.1-0.1,0.1-0.1,0.1
		c-0.1,0-0.1,0-0.2,0c-0.2,0-0.2,0.1-0.3,0.4c0,0.2,0,0.4,0,1.4v1.2c0,0.6,0,1.2,0,1.5c0,0.2,0.1,0.3,0.3,0.4c0.1,0,0.2,0,0.4,0
		c0.1,0,0.1,0,0.1,0.1c0,0-0.1,0.1-0.1,0.1c-0.5,0-0.9,0-1.1,0c-0.2,0-0.7,0-0.9,0c-0.1,0-0.2,0-0.2-0.1c0,0,0-0.1,0.1-0.1
		c0.1,0,0.2,0,0.3,0c0.1,0,0.2-0.2,0.2-0.4c0-0.3,0-0.8,0-1.4v-0.5c0,0,0,0,0,0h-2.7c0,0,0,0,0,0v0.5c0,0.6,0,1.2,0,1.5
		c0,0.2,0.1,0.3,0.3,0.4c0.1,0,0.3,0,0.4,0c0.1,0,0.1,0,0.1,0.1c0,0-0.1,0.1-0.1,0.1c-0.5,0-0.9,0-1.2,0c-0.2,0-0.6,0-0.9,0
		c-0.1,0-0.1,0-0.1-0.1c0,0,0-0.1,0.1-0.1c0.1,0,0.2,0,0.3,0c0.1,0,0.2-0.2,0.2-0.4c0-0.3,0-0.8,0-1.5v-1.2c0-1,0-1.2,0-1.4
		c0-0.2-0.1-0.3-0.3-0.4c-0.1,0-0.2,0-0.3,0c-0.1,0-0.1,0-0.1-0.1c0,0,0.1-0.1,0.2-0.1c0.4,0,0.8,0,1,0c0.2,0,0.7,0,0.9,0
		c0.1,0,0.1,0,0.1,0.1c0,0.1,0,0.1-0.1,0.1c-0.1,0-0.1,0-0.2,0c-0.2,0-0.2,0.1-0.3,0.4c0,0.2,0,0.5,0,1.5v0.1c0,0,0,0,0,0H54.6z"/>
	<path fill="#231F20" d="M57.9,57.4c0-1,0-1.2,0-1.4c0-0.2-0.1-0.3-0.3-0.4c-0.1,0-0.2,0-0.3,0c-0.1,0-0.1,0-0.1-0.1
		c0,0,0.1-0.1,0.2-0.1c0.4,0,0.8,0,1,0c0.2,0,1.8,0,1.9,0c0.1,0,0.2,0,0.3,0c0,0,0.1,0,0.1,0c0,0,0,0,0,0.1c0,0,0,0.1-0.1,0.4
		c0,0.1,0,0.4,0,0.5c0,0,0,0.1-0.1,0.1c0,0-0.1,0-0.1-0.1c0,0,0-0.2,0-0.2c-0.1-0.1-0.1-0.2-0.5-0.3c-0.1,0-1,0-1.1,0c0,0,0,0,0,0.1
		v1.7c0,0,0,0.1,0,0.1c0.2,0,1.1,0,1.2,0c0.2,0,0.3,0,0.3-0.1c0.1,0,0.1-0.1,0.1-0.1c0,0,0.1,0,0.1,0.1c0,0,0,0.2-0.1,0.5
		c0,0.1,0,0.4,0,0.5c0,0.1,0,0.2-0.1,0.2c0,0-0.1,0-0.1-0.1c0-0.1,0-0.2,0-0.2c0-0.1-0.1-0.2-0.4-0.3c-0.1,0-0.9,0-1.1,0
		c0,0,0,0,0,0.1v0.5c0,0.2,0,0.8,0,1c0,0.5,0.2,0.6,1,0.6c0.2,0,0.5,0,0.7-0.1c0.2-0.1,0.3-0.2,0.3-0.5c0-0.1,0-0.1,0.1-0.1
		c0.1,0,0.1,0.1,0.1,0.2c0,0.2-0.1,0.6-0.1,0.8c0,0.2-0.1,0.2-0.4,0.2c-0.5,0-1,0-1.3,0c-0.3,0-0.6,0-0.8,0c-0.1,0-0.2,0-0.4,0
		c-0.2,0-0.3,0-0.5,0c-0.1,0-0.1,0-0.1-0.1c0,0,0-0.1,0.1-0.1c0.1,0,0.2,0,0.2,0c0.1,0,0.2-0.2,0.2-0.4c0-0.3,0-0.8,0-1.5V57.4z"/>
	<path fill="#231F20" d="M64.7,57.4c0-1,0-1.2,0-1.4c0-0.2-0.1-0.3-0.3-0.4c-0.1,0-0.2,0-0.3,0c-0.1,0-0.1,0-0.1-0.1
		c0,0,0-0.1,0.2-0.1c0.4,0,0.9,0,1.1,0c0.2,0,0.7,0,0.9,0c0.1,0,0.2,0,0.2,0.1c0,0.1,0,0.1-0.1,0.1c-0.1,0-0.1,0-0.2,0
		c-0.2,0-0.2,0.1-0.3,0.4c0,0.2,0,0.4,0,1.4v1c0,1,0.2,1.4,0.5,1.7c0.3,0.2,0.7,0.3,0.9,0.3c0.3,0,0.7-0.1,1-0.4
		c0.4-0.4,0.4-1,0.4-1.7v-0.9c0-1,0-1.2,0-1.4c0-0.2-0.1-0.3-0.3-0.4c-0.1,0-0.2,0-0.3,0c-0.1,0-0.1,0-0.1-0.1c0,0,0-0.1,0.1-0.1
		c0.4,0,0.8,0,0.8,0c0.1,0,0.6,0,0.8,0c0.1,0,0.1,0,0.1,0.1c0,0.1,0,0.1-0.1,0.1c-0.1,0-0.1,0-0.2,0c-0.2,0-0.2,0.1-0.3,0.4
		c0,0.2,0,0.4,0,1.4v0.7c0,0.8-0.1,1.6-0.7,2.1c-0.5,0.4-1,0.5-1.5,0.5c-0.4,0-1.1,0-1.6-0.5c-0.4-0.3-0.6-0.8-0.6-1.8V57.4z"/>
	<path fill="#231F20" d="M71.4,59.7c0,0.5,0.1,0.7,0.2,0.7c0.1,0,0.3,0,0.4,0c0.1,0,0.1,0,0.1,0.1c0,0.1-0.1,0.1-0.2,0.1
		c-0.5,0-0.8,0-0.9,0c-0.1,0-0.4,0-0.8,0c-0.1,0-0.2,0-0.2-0.1c0,0,0-0.1,0.1-0.1c0.1,0,0.2,0,0.3,0c0.2,0,0.2-0.2,0.2-0.8l0.1-4.1
		c0-0.1,0-0.2,0.1-0.2c0.1,0,0.2,0.1,0.3,0.2c0.1,0.1,1.2,1.2,2.2,2.2c0.5,0.5,1.4,1.4,1.5,1.5h0l-0.1-3c0-0.4-0.1-0.5-0.2-0.6
		c-0.1,0-0.3,0-0.4,0c-0.1,0-0.1,0-0.1-0.1c0-0.1,0.1-0.1,0.2-0.1c0.4,0,0.7,0,0.9,0c0.1,0,0.3,0,0.7,0c0.1,0,0.2,0,0.2,0.1
		c0,0,0,0.1-0.1,0.1c-0.1,0-0.1,0-0.2,0c-0.2,0.1-0.2,0.2-0.3,0.6l-0.1,4.3c0,0.2-0.1,0.2-0.1,0.2c-0.1,0-0.2-0.1-0.3-0.1
		c-0.4-0.4-1.3-1.3-2.1-2c-0.8-0.7-1.5-1.6-1.7-1.7h0L71.4,59.7z"/>
	<path fill="#231F20" d="M77.7,57.4c0-1,0-1.2,0-1.4c0-0.2-0.1-0.3-0.2-0.4c-0.1,0-0.2,0-0.3,0c-0.1,0-0.1,0-0.1-0.1
		c0,0,0.1-0.1,0.2-0.1c0.3,0,0.7,0,0.9,0c0.2,0,0.6,0,0.9,0c0.1,0,0.1,0,0.1,0.1c0,0.1,0,0.1-0.1,0.1c-0.1,0-0.1,0-0.2,0
		c-0.2,0-0.2,0.1-0.3,0.4c0,0.2,0,0.4,0,1.4v1.2c0,0.7,0,1.2,0,1.5c0,0.2,0.1,0.3,0.3,0.3c0.1,0,0.3,0,0.4,0c0.1,0,0.1,0,0.1,0.1
		c0,0-0.1,0.1-0.1,0.1c-0.5,0-0.9,0-1.1,0c-0.2,0-0.6,0-0.9,0c-0.1,0-0.1,0-0.1-0.1c0,0,0-0.1,0.1-0.1c0.1,0,0.2,0,0.2,0
		c0.1,0,0.2-0.1,0.2-0.3c0-0.3,0-0.8,0-1.5V57.4z"/>
	<path fill="#231F20" d="M80.3,56.1c-0.2-0.4-0.3-0.4-0.5-0.5c-0.1,0-0.2,0-0.3,0c-0.1,0-0.1,0-0.1-0.1c0-0.1,0.1-0.1,0.2-0.1
		c0.4,0,0.8,0,1,0c0.2,0,0.5,0,0.9,0c0.1,0,0.2,0,0.2,0.1c0,0.1-0.1,0.1-0.1,0.1c-0.1,0-0.2,0-0.3,0c0,0-0.1,0.1-0.1,0.1
		c0,0.1,0.1,0.3,0.2,0.5l1.2,3.1h0c0.3-0.7,1.2-2.9,1.4-3.4c0-0.1,0.1-0.2,0.1-0.3c0-0.1,0-0.1-0.1-0.1c-0.1,0-0.2,0-0.3,0
		c-0.1,0-0.1,0-0.1-0.1c0,0,0.1-0.1,0.2-0.1c0.4,0,0.7,0,0.8,0c0.1,0,0.5,0,0.7,0c0.1,0,0.1,0,0.1,0.1c0,0.1,0,0.1-0.1,0.1
		c-0.1,0-0.2,0-0.3,0.1c-0.1,0.1-0.2,0.2-0.4,0.6c-0.3,0.6-0.5,1-0.9,1.9c-0.5,1-0.8,1.7-0.9,2.1c-0.2,0.4-0.2,0.5-0.3,0.5
		c-0.1,0-0.2-0.1-0.3-0.4L80.3,56.1z"/>
	<path fill="#231F20" d="M86.1,57.4c0-1,0-1.2,0-1.4c0-0.2-0.1-0.3-0.3-0.4c-0.1,0-0.2,0-0.3,0c-0.1,0-0.1,0-0.1-0.1
		c0,0,0.1-0.1,0.2-0.1c0.4,0,0.8,0,1,0c0.2,0,1.8,0,1.9,0c0.1,0,0.2,0,0.3,0c0,0,0.1,0,0.1,0c0,0,0,0,0,0.1c0,0,0,0.1-0.1,0.4
		c0,0.1,0,0.4,0,0.5c0,0,0,0.1-0.1,0.1c0,0-0.1,0-0.1-0.1c0,0,0-0.2,0-0.2c-0.1-0.1-0.1-0.2-0.5-0.3c-0.1,0-1,0-1.1,0c0,0,0,0,0,0.1
		v1.7c0,0,0,0.1,0,0.1c0.2,0,1.1,0,1.2,0c0.2,0,0.3,0,0.3-0.1c0.1,0,0.1-0.1,0.1-0.1c0,0,0.1,0,0.1,0.1c0,0,0,0.2-0.1,0.5
		c0,0.1,0,0.4,0,0.5c0,0.1,0,0.2-0.1,0.2c0,0-0.1,0-0.1-0.1c0-0.1,0-0.2,0-0.2c0-0.1-0.1-0.2-0.4-0.3c-0.1,0-0.9,0-1.1,0
		c0,0,0,0,0,0.1v0.5c0,0.2,0,0.8,0,1c0,0.5,0.2,0.6,1,0.6c0.2,0,0.5,0,0.7-0.1c0.2-0.1,0.3-0.2,0.3-0.5c0-0.1,0-0.1,0.1-0.1
		c0.1,0,0.1,0.1,0.1,0.2c0,0.2-0.1,0.6-0.1,0.8c0,0.2-0.1,0.2-0.4,0.2c-0.5,0-1,0-1.3,0c-0.3,0-0.6,0-0.8,0c-0.1,0-0.2,0-0.4,0
		c-0.2,0-0.3,0-0.5,0c-0.1,0-0.1,0-0.1-0.1c0,0,0-0.1,0.1-0.1c0.1,0,0.2,0,0.2,0c0.1,0,0.2-0.2,0.2-0.4c0-0.3,0-0.8,0-1.5V57.4z"/>
	<path fill="#231F20" d="M91.5,57.9c0,0.1,0,0.1,0.1,0.1c0.2,0,0.4,0.1,0.5,0.1c0.3,0,0.4,0,0.5-0.1c0.2-0.2,0.5-0.5,0.5-1
		c0-1-0.7-1.2-1.1-1.2c-0.2,0-0.3,0-0.4,0c0,0-0.1,0-0.1,0.1V57.9z M90.6,57.4c0-1,0-1.2,0-1.4c0-0.2-0.1-0.3-0.3-0.4
		c-0.1,0-0.2,0-0.3,0c-0.1,0-0.1,0-0.1-0.1c0,0,0.1-0.1,0.2-0.1c0.4,0,0.8,0,1,0c0.2,0,0.9,0,1.1,0c0.5,0,1,0,1.3,0.3
		c0.2,0.1,0.5,0.5,0.5,0.9c0,0.5-0.3,1-1,1.5c0.6,0.8,1.1,1.4,1.6,1.8c0.4,0.4,0.6,0.4,0.8,0.5c0.1,0,0.1,0,0.2,0
		c0.1,0,0.1,0,0.1,0.1c0,0.1,0,0.1-0.1,0.1h-0.7c-0.4,0-0.6,0-0.8-0.1c-0.3-0.2-0.6-0.5-1-1c-0.3-0.4-0.6-0.8-0.7-0.9
		c0,0-0.1,0-0.1,0l-0.6,0c0,0-0.1,0-0.1,0.1v0.1c0,0.6,0,1.2,0,1.5c0,0.2,0.1,0.3,0.3,0.4c0.1,0,0.3,0,0.3,0c0.1,0,0.1,0,0.1,0.1
		c0,0-0.1,0.1-0.1,0.1c-0.4,0-1,0-1.1,0c-0.1,0-0.6,0-0.9,0c-0.1,0-0.1,0-0.1-0.1c0,0,0-0.1,0.1-0.1c0.1,0,0.2,0,0.2,0
		c0.1,0,0.2-0.2,0.2-0.4c0-0.3,0-0.8,0-1.5V57.4z"/>
	<path fill="#231F20" d="M95.6,60.5c-0.1,0-0.1-0.1-0.1-0.2c0-0.4,0-0.8,0-0.9c0-0.1,0-0.2,0.1-0.2c0.1,0,0.1,0.1,0.1,0.1
		c0,0.1,0,0.2,0.1,0.4c0.1,0.5,0.7,0.7,1.1,0.7c0.6,0,1-0.4,1-0.9c0-0.3-0.1-0.6-0.7-1l-0.4-0.2c-0.8-0.5-1.1-1-1.1-1.6
		c0-0.8,0.8-1.4,1.8-1.4c0.5,0,0.8,0.1,1,0.1c0.1,0,0.1,0,0.1,0.1c0,0.1,0,0.3,0,0.8c0,0.1,0,0.2-0.1,0.2c0,0-0.1,0-0.1-0.1
		c0-0.1,0-0.3-0.2-0.5c-0.1-0.1-0.3-0.3-0.8-0.3c-0.5,0-1,0.3-1,0.7c0,0.3,0.1,0.5,0.7,0.9l0.3,0.2c0.9,0.5,1.2,1,1.2,1.7
		c0,0.5-0.2,0.9-0.7,1.3c-0.3,0.2-0.8,0.3-1.2,0.3C96.3,60.7,95.9,60.7,95.6,60.5"/>
	<path fill="#231F20" d="M100.2,57.4c0-1,0-1.2,0-1.4c0-0.2-0.1-0.3-0.2-0.4c-0.1,0-0.2,0-0.3,0c-0.1,0-0.1,0-0.1-0.1
		c0,0,0.1-0.1,0.2-0.1c0.3,0,0.7,0,1,0c0.2,0,0.6,0,0.9,0c0.1,0,0.1,0,0.1,0.1c0,0.1,0,0.1-0.1,0.1c-0.1,0-0.1,0-0.2,0
		c-0.2,0-0.2,0.1-0.3,0.4c0,0.2,0,0.4,0,1.4v1.2c0,0.7,0,1.2,0,1.5c0,0.2,0.1,0.3,0.3,0.3c0.1,0,0.3,0,0.4,0c0.1,0,0.1,0,0.1,0.1
		c0,0-0.1,0.1-0.1,0.1c-0.5,0-0.9,0-1.1,0c-0.2,0-0.6,0-0.9,0c-0.1,0-0.1,0-0.1-0.1c0,0,0-0.1,0.1-0.1c0.1,0,0.2,0,0.2,0
		c0.1,0,0.2-0.1,0.2-0.3c0-0.3,0-0.8,0-1.5V57.4z"/>
	<path fill="#231F20" d="M104.4,55.8l-1.1,0c-0.4,0-0.6,0.1-0.7,0.2c-0.1,0.1-0.1,0.2-0.1,0.2c0,0.1,0,0.1-0.1,0.1
		c0,0-0.1,0-0.1-0.1c0-0.1,0.1-0.8,0.2-0.8c0-0.1,0-0.1,0.1-0.1c0.1,0,0.1,0.1,0.3,0.1c0.2,0,0.5,0,0.7,0h2.9c0.2,0,0.4,0,0.5,0
		c0.1,0,0.2,0,0.2,0c0.1,0,0.1,0,0.1,0.1c0,0.1,0,0.7,0,0.8c0,0.1,0,0.1-0.1,0.1c-0.1,0-0.1,0-0.1-0.1l0-0.1c0-0.2-0.2-0.4-0.8-0.4
		l-0.9,0v2.8c0,0.6,0,1.2,0,1.5c0,0.2,0.1,0.3,0.3,0.4c0.1,0,0.3,0,0.4,0c0.1,0,0.1,0,0.1,0.1c0,0-0.1,0.1-0.1,0.1
		c-0.5,0-0.9,0-1.1,0c-0.2,0-0.6,0-0.9,0c-0.1,0-0.1,0-0.1-0.1c0,0,0-0.1,0.1-0.1c0.1,0,0.2,0,0.2,0c0.1,0,0.2-0.2,0.2-0.4
		c0-0.3,0-0.8,0-1.5V55.8z"/>
	<path fill="#231F20" d="M109.4,58.8c0-0.4-0.1-0.5-0.2-0.7c0-0.1-1-1.6-1.3-2c-0.2-0.2-0.3-0.4-0.5-0.5c-0.1,0-0.2-0.1-0.3-0.1
		c-0.1,0-0.1,0-0.1-0.1c0,0,0.1-0.1,0.1-0.1c0.1,0,0.7,0,0.9,0c0.2,0,0.5,0,0.8,0c0.1,0,0.1,0,0.1,0.1c0,0.1,0,0.1-0.2,0.1
		c-0.1,0-0.1,0-0.1,0.1c0,0.1,0,0.1,0.1,0.2c0.1,0.2,1.1,1.8,1.2,2c0.1-0.2,0.9-1.6,1.1-1.8c0.1-0.2,0.1-0.3,0.1-0.4
		c0-0.1,0-0.1-0.2-0.2c-0.1,0-0.1,0-0.1-0.1c0,0,0-0.1,0.1-0.1c0.2,0,0.5,0,0.7,0c0.2,0,0.6,0,0.8,0c0.1,0,0.1,0,0.1,0.1
		c0,0-0.1,0.1-0.1,0.1c-0.1,0-0.2,0-0.3,0.1c-0.2,0.1-0.2,0.1-0.4,0.3c-0.2,0.3-1.2,1.9-1.4,2.2c-0.1,0.2-0.1,0.5-0.1,0.7v0.5
		c0,0.1,0,0.4,0,0.7c0,0.2,0.1,0.3,0.3,0.4c0.1,0,0.3,0,0.4,0c0.1,0,0.1,0,0.1,0.1c0,0-0.1,0.1-0.2,0.1c-0.4,0-0.9,0-1.1,0
		c-0.2,0-0.7,0-0.9,0c-0.1,0-0.2,0-0.2-0.1c0,0,0-0.1,0.1-0.1c0.1,0,0.2,0,0.2,0c0.1,0,0.2-0.2,0.2-0.4c0-0.3,0-0.6,0-0.7V58.8z"/>
	<path fill="#231F20" d="M119.8,58.1c0-1.5-0.9-2.4-2.1-2.4c-0.8,0-1.7,0.4-1.7,2.1c0,1.4,0.8,2.5,2.1,2.5
		C118.7,60.3,119.8,60.1,119.8,58.1 M115,58c0-1.2,0.8-2.7,3-2.7c1.8,0,2.9,1,2.9,2.6c0,1.6-1.1,2.8-3,2.8
		C115.8,60.7,115,59.2,115,58"/>
	<path fill="#231F20" d="M123.1,58.6c0,0.7,0,1.1,0,1.4c0,0.2,0.1,0.3,0.3,0.4c0.1,0,0.3,0,0.3,0c0.1,0,0.1,0,0.1,0.1
		c0,0,0,0.1-0.2,0.1c-0.5,0-0.9,0-1.1,0c-0.2,0-0.6,0-0.9,0c-0.1,0-0.1,0-0.1-0.1c0,0,0-0.1,0.1-0.1c0.1,0,0.2,0,0.2,0
		c0.1,0,0.2-0.2,0.2-0.4c0-0.3,0-0.8,0-1.5v-1.2c0-1,0-1.2,0-1.4c0-0.2-0.1-0.3-0.3-0.4c-0.1,0-0.2,0-0.3,0c-0.1,0-0.1,0-0.1-0.1
		c0,0,0.1-0.1,0.2-0.1c0.4,0,0.8,0,1,0c0.3,0,1.8,0,2,0c0.1,0,0.2,0,0.3,0c0,0,0.1,0,0.1,0c0,0,0,0,0,0.1c0,0,0,0.1-0.1,0.3
		c0,0.1,0,0.5,0,0.6c0,0.1,0,0.1-0.1,0.1c0,0-0.1,0-0.1-0.1c0-0.1,0-0.2,0-0.3c0-0.1-0.2-0.2-0.4-0.2l-1.2,0c0,0-0.1,0-0.1,0.1v1.7
		c0,0,0,0.1,0,0.1l1,0c0.1,0,0.2,0,0.3,0c0.1,0,0.2,0,0.3-0.1c0,0,0.1-0.1,0.1-0.1c0,0,0,0,0,0.1c0,0,0,0.2-0.1,0.4
		c0,0.1,0,0.5,0,0.5c0,0.1,0,0.2-0.1,0.2c0,0-0.1,0-0.1-0.1c0,0,0-0.1,0-0.2c0-0.1-0.1-0.2-0.3-0.2c-0.2,0-1,0-1.1,0c0,0,0,0,0,0.1
		V58.6z"/>
	<path fill="#231F20" d="M132.8,57.7C132.9,57.7,132.9,57.7,132.8,57.7l0-0.2c0-1,0-1.3,0-1.5c0-0.2-0.1-0.3-0.3-0.4
		c-0.1,0-0.2,0-0.3,0c-0.1,0-0.1,0-0.1-0.1c0,0,0-0.1,0.2-0.1c0.4,0,0.9,0,1.1,0c0.2,0,0.6,0,0.9,0c0.1,0,0.2,0,0.2,0.1
		c0,0.1,0,0.1-0.1,0.1c-0.1,0-0.1,0-0.2,0c-0.2,0-0.2,0.1-0.3,0.4c0,0.2,0,0.4,0,1.4v1.2c0,0.6,0,1.2,0,1.5c0,0.2,0.1,0.3,0.3,0.4
		c0.1,0,0.2,0,0.4,0c0.1,0,0.1,0,0.1,0.1c0,0-0.1,0.1-0.1,0.1c-0.5,0-0.9,0-1.1,0c-0.2,0-0.7,0-0.9,0c-0.1,0-0.2,0-0.2-0.1
		c0,0,0-0.1,0.1-0.1c0.1,0,0.2,0,0.3,0c0.1,0,0.2-0.2,0.2-0.4c0-0.3,0-0.8,0-1.4v-0.5c0,0,0,0,0,0h-2.7c0,0,0,0,0,0v0.5
		c0,0.6,0,1.2,0,1.5c0,0.2,0.1,0.3,0.3,0.4c0.1,0,0.3,0,0.4,0c0.1,0,0.1,0,0.1,0.1c0,0-0.1,0.1-0.1,0.1c-0.5,0-0.9,0-1.2,0
		c-0.2,0-0.6,0-0.9,0c-0.1,0-0.1,0-0.1-0.1c0,0,0-0.1,0.1-0.1c0.1,0,0.2,0,0.2,0c0.1,0,0.2-0.2,0.2-0.4c0-0.3,0-0.8,0-1.5v-1.2
		c0-1,0-1.2,0-1.4c0-0.2-0.1-0.3-0.3-0.4c-0.1,0-0.2,0-0.3,0c-0.1,0-0.1,0-0.1-0.1c0,0,0.1-0.1,0.2-0.1c0.4,0,0.8,0,1,0
		c0.2,0,0.7,0,0.9,0c0.1,0,0.1,0,0.1,0.1c0,0.1,0,0.1-0.1,0.1c-0.1,0-0.1,0-0.2,0c-0.2,0-0.3,0.1-0.3,0.4c0,0.2,0,0.5,0,1.5v0.1
		c0,0,0,0,0,0H132.8z"/>
	<path fill="#231F20" d="M138,58.5C138,58.5,138,58.5,138,58.5l-0.6-1.8c0,0,0-0.1,0-0.1c0,0,0,0,0,0.1l-0.7,1.7c0,0,0,0,0,0H138z
		 M136.4,58.9C136.4,58.9,136.4,58.9,136.4,58.9l-0.4,1c-0.1,0.2-0.1,0.3-0.1,0.4c0,0.1,0.1,0.2,0.3,0.2h0.1c0.1,0,0.1,0,0.1,0.1
		c0,0.1,0,0.1-0.1,0.1c-0.2,0-0.6,0-0.8,0c-0.1,0-0.5,0-0.8,0c-0.1,0-0.1,0-0.1-0.1c0,0,0-0.1,0.1-0.1c0.1,0,0.1,0,0.2,0
		c0.3,0,0.4-0.3,0.6-0.6l1.9-4.3c0.1-0.2,0.1-0.3,0.2-0.3c0.1,0,0.1,0.1,0.2,0.2c0.2,0.4,1.4,3.2,1.8,4.2c0.3,0.6,0.5,0.7,0.6,0.7
		c0.1,0,0.2,0,0.3,0c0.1,0,0.1,0,0.1,0.1c0,0.1,0,0.1-0.3,0.1c-0.3,0-0.8,0-1.4,0c-0.1,0-0.2,0-0.2-0.1c0,0,0-0.1,0.1-0.1
		c0,0,0.1-0.1,0.1-0.2l-0.5-1.4c0,0,0,0-0.1,0H136.4z"/>
	<path fill="#231F20" d="M140.2,56.1c-0.1-0.2-0.1-0.4-0.3-0.5c-0.1,0-0.2-0.1-0.3-0.1c-0.1,0-0.1,0-0.1-0.1c0,0,0.1-0.1,0.2-0.1
		c0.4,0,0.8,0,0.8,0c0.1,0,0.4,0,0.8,0c0.1,0,0.2,0,0.2,0.1c0,0.1-0.1,0.1-0.1,0.1c-0.1,0-0.1,0-0.2,0c-0.1,0-0.1,0.1-0.1,0.1
		c0,0.1,0.1,0.3,0.2,0.6c0.1,0.4,0.8,2.5,0.9,2.8h0l1.4-3.5c0.1-0.2,0.1-0.3,0.2-0.3c0.1,0,0.1,0.1,0.2,0.3l1.4,3.4h0
		c0.1-0.4,0.7-2.2,0.9-3c0-0.2,0.1-0.3,0.1-0.4c0-0.1-0.1-0.2-0.3-0.2c-0.1,0-0.1,0-0.1-0.1c0,0,0.1-0.1,0.2-0.1c0.4,0,0.7,0,0.8,0
		c0,0,0.4,0,0.6,0c0.1,0,0.1,0,0.1,0.1c0,0,0,0.1-0.1,0.1c-0.1,0-0.2,0-0.3,0c-0.2,0.1-0.2,0.3-0.4,0.7c-0.3,0.9-1.1,3-1.4,4.1
		c-0.1,0.2-0.1,0.3-0.2,0.3c-0.1,0-0.1-0.1-0.2-0.3l-1.4-3.4h0c-0.1,0.3-1.1,2.7-1.4,3.3c-0.1,0.3-0.2,0.4-0.3,0.4
		c-0.1,0-0.1-0.1-0.2-0.2L140.2,56.1z"/>
	<path fill="#231F20" d="M150.1,58.5C150.1,58.5,150.1,58.5,150.1,58.5l-0.6-1.8c0,0,0-0.1,0-0.1c0,0,0,0,0,0.1l-0.7,1.7
		c0,0,0,0,0,0H150.1z M148.6,58.9C148.5,58.9,148.5,58.9,148.6,58.9l-0.4,1c-0.1,0.2-0.1,0.3-0.1,0.4c0,0.1,0.1,0.2,0.3,0.2h0.1
		c0.1,0,0.1,0,0.1,0.1c0,0.1,0,0.1-0.1,0.1c-0.2,0-0.6,0-0.8,0c-0.1,0-0.5,0-0.8,0c-0.1,0-0.1,0-0.1-0.1c0,0,0-0.1,0.1-0.1
		c0.1,0,0.1,0,0.2,0c0.3,0,0.4-0.3,0.6-0.6l1.9-4.3c0.1-0.2,0.1-0.3,0.2-0.3c0.1,0,0.1,0.1,0.2,0.2c0.2,0.4,1.4,3.2,1.8,4.2
		c0.3,0.6,0.5,0.7,0.6,0.7c0.1,0,0.2,0,0.3,0c0.1,0,0.1,0,0.1,0.1c0,0.1,0,0.1-0.3,0.1c-0.2,0-0.8,0-1.4,0c-0.1,0-0.2,0-0.2-0.1
		c0,0,0-0.1,0.1-0.1c0,0,0.1-0.1,0.1-0.2l-0.5-1.4c0,0,0,0-0.1,0H148.6z"/>
	<path fill="#231F20" d="M153.4,57.4c0-1,0-1.2,0-1.4c0-0.2-0.1-0.3-0.2-0.4c-0.1,0-0.2,0-0.3,0c-0.1,0-0.1,0-0.1-0.1
		c0,0,0.1-0.1,0.2-0.1c0.3,0,0.7,0,1,0c0.2,0,0.6,0,0.9,0c0.1,0,0.1,0,0.1,0.1c0,0.1,0,0.1-0.1,0.1c-0.1,0-0.1,0-0.2,0
		c-0.2,0-0.2,0.1-0.3,0.4c0,0.2,0,0.4,0,1.4v1.2c0,0.7,0,1.2,0,1.5c0,0.2,0.1,0.3,0.3,0.3c0.1,0,0.3,0,0.4,0c0.1,0,0.1,0,0.1,0.1
		c0,0-0.1,0.1-0.1,0.1c-0.5,0-0.9,0-1.1,0c-0.2,0-0.6,0-0.9,0c-0.1,0-0.1,0-0.1-0.1c0,0,0-0.1,0.1-0.1c0.1,0,0.2,0,0.2,0
		c0.1,0,0.2-0.1,0.2-0.3c0-0.3,0-0.8,0-1.5V57.4z"/>
	<path fill="#231F20" d="M156.7,55.9c0.1,0.1,0.1,0.1,0.1,0.1c0,0,0,0.1-0.1,0.1c-0.2,0-0.5-0.1-0.7-0.2c-0.2-0.1-0.2-0.1-0.2-0.2
		c0-0.5,0.5-1.4,0.9-1.7c0,0,0.1-0.1,0.1-0.1c0,0,0,0,0,0c0,0,0,0,0,0.1c-0.1,0.3-0.3,0.8-0.3,1.3C156.5,55.7,156.7,55.9,156.7,55.9
		"/>
	<path fill="#231F20" d="M158.4,57.4c0-1,0-1.2,0-1.4c0-0.2-0.1-0.3-0.2-0.4c-0.1,0-0.2,0-0.3,0c-0.1,0-0.1,0-0.1-0.1
		c0,0,0.1-0.1,0.2-0.1c0.3,0,0.7,0,1,0c0.2,0,0.6,0,0.9,0c0.1,0,0.1,0,0.1,0.1c0,0.1,0,0.1-0.1,0.1c-0.1,0-0.1,0-0.2,0
		c-0.2,0-0.3,0.1-0.3,0.4c0,0.2,0,0.4,0,1.4v1.2c0,0.7,0,1.2,0,1.5c0,0.2,0.1,0.3,0.3,0.3c0.1,0,0.3,0,0.4,0c0.1,0,0.1,0,0.1,0.1
		c0,0-0.1,0.1-0.1,0.1c-0.5,0-1,0-1.1,0c-0.2,0-0.6,0-0.9,0c-0.1,0-0.1,0-0.1-0.1c0,0,0-0.1,0.1-0.1c0.1,0,0.2,0,0.2,0
		c0.1,0,0.2-0.1,0.2-0.3c0-0.3,0-0.8,0-1.5V57.4z"/>
</g>
</svg>
