<?xml version="1.0" encoding="utf-8"?>
<!-- Generator: Adobe Illustrator 18.1.1, SVG Export Plug-In . SVG Version: 6.00 Build 0)  -->
<svg version="1.1" id="Layer_1" xmlns="http://www.w3.org/2000/svg" xmlns:xlink="http://www.w3.org/1999/xlink" x="0px" y="0px"
	 viewBox="0 0 197 67" enable-background="new 0 0 197 67" xml:space="preserve">
<g>
	<path fill="#FFFFFF" d="M24.1,18.5c0-6,0-7.1-0.1-8.4c-0.1-1.3-0.4-2-1.6-2.3c-0.3-0.1-0.9-0.1-1.5-0.1c-0.4,0-0.6-0.1-0.6-0.4
		c0-0.3,0.3-0.4,0.8-0.4c2,0,4.4,0.1,5.5,0.1c0.9,0,3.3-0.1,4.6-0.1c0.6,0,0.8,0.1,0.8,0.4c0,0.3-0.2,0.4-0.6,0.4
		c-0.4,0-0.6,0-1.1,0.1c-1,0.2-1.3,0.9-1.4,2.3c-0.1,1.3-0.1,2.4-0.1,8.4V24c0,5.7,1.1,8.1,2.9,9.7c1.7,1.5,3.4,1.6,4.7,1.6
		c1.7,0,3.7-0.6,5.2-2.1c2.1-2.2,2.2-5.7,2.2-9.8v-4.9c0-6,0-7.1-0.1-8.4c-0.1-1.3-0.4-2-1.6-2.3c-0.3-0.1-0.9-0.1-1.4-0.1
		c-0.4,0-0.6-0.1-0.6-0.4C40.2,7.1,40.5,7,41,7c1.9,0,4.3,0.1,4.3,0.1c0.5,0,2.8-0.1,4.3-0.1c0.5,0,0.8,0.1,0.8,0.4
		c0,0.3-0.2,0.4-0.7,0.4c-0.4,0-0.6,0-1.1,0.1c-1,0.2-1.3,0.9-1.4,2.3c-0.1,1.3-0.1,2.4-0.1,8.4v4.2c0,4.4-0.4,9-3.6,11.9
		c-2.7,2.4-5.4,2.8-7.8,2.8c-2,0-5.6-0.1-8.3-2.7c-1.9-1.8-3.3-4.7-3.3-10.5V18.5z"/>
	<path fill="#FFFFFF" d="M77.3,19.6c0.1,0,0.2-0.1,0.2-0.3v-0.8c0-6,0-7.1-0.1-8.4c-0.1-1.3-0.4-2-1.6-2.2c-0.3-0.1-0.9-0.1-1.5-0.1
		c-0.4,0-0.6-0.1-0.6-0.4C73.8,7.1,74,7,74.6,7c2,0,4.4,0.1,5.4,0.1c0.9,0,3.3-0.1,4.7-0.1c0.5,0,0.8,0.1,0.8,0.4
		c0,0.3-0.2,0.4-0.7,0.4c-0.3,0-0.6,0-1.1,0.1c-1,0.2-1.3,0.9-1.4,2.2c-0.1,1.3-0.1,2.4-0.1,8.4v6.9c0,3.6,0,6.7,0.2,8.4
		c0.1,1.1,0.3,2,1.5,2.1c0.5,0.1,1.4,0.2,1.9,0.2c0.4,0,0.6,0.1,0.6,0.3c0,0.3-0.3,0.4-0.8,0.4c-2.4,0-4.8-0.1-5.9-0.1
		c-0.9,0-3.2,0.1-4.7,0.1c-0.5,0-0.8-0.1-0.8-0.4c0-0.2,0.2-0.3,0.6-0.3c0.6,0,1-0.1,1.4-0.2c0.7-0.2,0.9-1,1.1-2.2
		c0.2-1.7,0.2-4.8,0.2-8.4v-3.5c0-0.2-0.1-0.2-0.2-0.2H63c-0.1,0-0.2,0-0.2,0.2v3.5c0,3.6,0,6.7,0.2,8.4c0.1,1.1,0.3,2,1.5,2.1
		c0.5,0.1,1.4,0.2,1.9,0.2c0.4,0,0.6,0.1,0.6,0.3c0,0.3-0.3,0.4-0.7,0.4c-2.4,0-4.8-0.1-5.9-0.1c-0.9,0-3.2,0.1-4.7,0.1
		c-0.5,0-0.7-0.1-0.7-0.4c0-0.2,0.1-0.3,0.6-0.3c0.6,0,1-0.1,1.4-0.2c0.8-0.2,0.9-1,1.1-2.2c0.2-1.7,0.2-4.8,0.2-8.4v-6.9
		c0-6,0-7.1-0.1-8.4c-0.1-1.3-0.4-2-1.6-2.2c-0.3-0.1-0.9-0.1-1.5-0.1c-0.4,0-0.6-0.1-0.6-0.4c0-0.3,0.3-0.4,0.8-0.4
		c2,0,4.4,0.1,5.4,0.1c0.9,0,3.3-0.1,4.7-0.1C65.7,7,66,7.1,66,7.4c0,0.3-0.2,0.4-0.7,0.4c-0.3,0-0.6,0-1.1,0.1
		c-1,0.2-1.3,0.9-1.4,2.2c-0.1,1.3-0.1,2.4-0.1,8.4v0.8c0,0.2,0.1,0.3,0.2,0.3H77.3z"/>
	<path fill="#7FC4C9" d="M93.8,18.5c0-6.2,0-7.3-0.1-8.5c-0.1-1.3-0.4-2-1.6-2.2c-0.3-0.1-0.9-0.1-1.3-0.1c-0.2,0-0.3-0.1-0.3-0.2
		c0-0.2,0.2-0.3,0.6-0.3c0.9,0,1.9,0,2.7,0l1.5,0.1c0.3,0,7.7,0,8.6,0c0.7,0,1.3-0.1,1.6-0.2c0.2,0,0.3-0.2,0.5-0.2
		c0.1,0,0.1,0.2,0.1,0.4c0,0.3-0.2,0.7-0.3,1.9c0,0.4-0.1,2.1-0.2,2.6c0,0.2-0.1,0.4-0.3,0.4c-0.2,0-0.3-0.2-0.3-0.5
		c0-0.3,0-0.9-0.2-1.4c-0.3-0.6-0.6-1.1-2.7-1.3c-0.6-0.1-4.7-0.1-5.1-0.1c-0.1,0-0.2,0.1-0.2,0.4v10.9c0,0.3,0,0.4,0.2,0.4
		c0.5,0,5.1,0,6-0.1c0.9-0.1,1.4-0.2,1.8-0.6c0.3-0.3,0.4-0.5,0.6-0.5c0.1,0,0.2,0.1,0.2,0.3c0,0.2-0.2,0.9-0.3,2.2
		c-0.1,0.8-0.1,2.3-0.1,2.5c0,0.3,0,0.8-0.3,0.8c-0.2,0-0.3-0.2-0.3-0.4c0-0.4,0-0.8-0.1-1.3c-0.1-0.6-0.5-1.2-2-1.4
		c-1-0.1-4.7-0.2-5.4-0.2c-0.2,0-0.3,0.1-0.3,0.3v3.5c0,1.3,0,5.9,0,6.7c0.1,2.7,0.7,3.2,4.4,3.2c1,0,2.6,0,3.6-0.4
		c1-0.4,1.4-1.2,1.7-2.8c0.1-0.4,0.1-0.6,0.3-0.6c0.2,0,0.2,0.3,0.2,0.6c0,0.3-0.3,3-0.5,3.8c-0.3,1-0.6,1-2,1
		c-2.8,0-4.9-0.1-6.3-0.1c-1.5-0.1-2.4-0.1-2.9-0.1c-0.1,0-0.7,0-1.5,0c-0.8,0-1.6,0.1-2.2,0.1c-0.4,0-0.6-0.1-0.6-0.3
		c0-0.1,0.1-0.2,0.3-0.2c0.3,0,0.8-0.1,1.1-0.2c0.7-0.2,0.9-1,1.1-2.2c0.2-1.7,0.2-4.8,0.2-8.6V18.5z"/>
	<path fill="#7FC4C9" d="M119.3,21.9c0,0.2,0.1,0.4,0.3,0.5c0.6,0.4,2.3,0.6,3.9,0.6c0.9,0,2-0.1,2.8-0.8c1.3-0.9,2.3-3.1,2.3-6.1
		c0-4.9-2.5-7.9-6.5-7.9c-1.1,0-2.1,0.1-2.5,0.2c-0.2,0.1-0.3,0.2-0.3,0.5V21.9z M116.3,18.5c0-6.2,0-7.3-0.1-8.5
		c-0.1-1.3-0.4-2-1.6-2.2c-0.3-0.1-0.9-0.1-1.3-0.1c-0.1,0-0.3-0.1-0.3-0.2c0-0.2,0.2-0.3,0.6-0.3c1.7,0,4.1,0.1,4.2,0.1
		c0.4,0,3.3-0.1,4.4-0.1c2.4,0,4.9,0.2,6.9,1.7c0.9,0.7,2.6,2.6,2.6,5.4c0,2.9-1.2,5.8-4.5,9.1c3.1,4.1,5.6,7.7,7.8,10.1
		c2,2.3,3.6,2.7,4.6,2.8c0.7,0.1,1.2,0.1,1.5,0.1c0.2,0,0.3,0.1,0.3,0.2c0,0.2-0.2,0.3-0.9,0.3h-2.7c-2.1,0-3-0.2-4-0.7
		c-1.6-0.9-2.9-2.8-5.1-5.8c-1.6-2.2-3.3-4.8-4.1-5.8c-0.2-0.2-0.3-0.2-0.5-0.2l-4.6-0.1c-0.2,0-0.3,0.1-0.3,0.3v0.9
		c0,3.8,0,6.9,0.2,8.6c0.1,1.1,0.3,2,1.5,2.2c0.5,0.1,1.4,0.2,1.7,0.2c0.2,0,0.3,0.1,0.3,0.2c0,0.2-0.2,0.3-0.6,0.3
		c-2.1,0-4.4-0.1-4.6-0.1c0,0-2.4,0.1-3.5,0.1c-0.4,0-0.6-0.1-0.6-0.3c0-0.1,0.1-0.2,0.3-0.2c0.3,0,0.8-0.1,1.1-0.2
		c0.7-0.2,0.9-1,1.1-2.2c0.2-1.7,0.2-4.8,0.2-8.6V18.5z"/>
	<path fill="#7FC4C9" d="M154.6,35.9c3.4,0,10.4-2.1,10.4-13.5c0-9.5-5.5-14.6-11.4-14.6c-6.3,0-11,4.3-11,13
		C142.6,30,147.8,35.9,154.6,35.9 M153.8,6.5c8.4,0,14.8,5.6,14.8,14.8c0,8.8-5.9,16.1-15,16.1c-10.3,0-14.6-8.4-14.6-15.5
		C139,15.5,143.5,6.5,153.8,6.5"/>
	<path fill="#6E7070" d="M8.5,44.5l-1.1,0c-0.4,0-0.6,0.1-0.7,0.2c-0.1,0.1-0.1,0.2-0.1,0.3c0,0.1,0,0.1-0.1,0.1
		c-0.1,0-0.1,0-0.1-0.1c0-0.1,0.1-0.8,0.2-0.9c0-0.1,0-0.1,0.1-0.1C6.7,43.9,6.8,44,7,44c0.2,0,0.5,0,0.7,0h3c0.2,0,0.4,0,0.5,0
		c0.1,0,0.2,0,0.2,0c0,0,0.1,0,0.1,0.2c0,0.2,0,0.7,0,0.9c0,0.1,0,0.1-0.1,0.1c-0.1,0-0.1,0-0.1-0.2l0-0.1c0-0.2-0.2-0.4-0.9-0.4
		l-0.9,0v3c0,0.7,0,1.3,0,1.6c0,0.2,0.1,0.4,0.3,0.4c0.1,0,0.3,0,0.4,0c0.1,0,0.1,0,0.1,0.1c0,0.1-0.1,0.1-0.1,0.1c-0.5,0-1,0-1.2,0
		c-0.2,0-0.7,0-1,0c-0.1,0-0.1,0-0.1-0.1c0,0,0-0.1,0.1-0.1c0.1,0,0.2,0,0.3,0c0.2,0,0.2-0.2,0.2-0.4c0-0.3,0-0.9,0-1.6V44.5z"/>
	<path fill="#6E7070" d="M16.6,46.5C16.7,46.5,16.7,46.5,16.6,46.5l0-0.2c0-1.1,0-1.4,0-1.6c0-0.3-0.1-0.3-0.3-0.4
		c-0.1,0-0.2,0-0.3,0c-0.1,0-0.1,0-0.1-0.1c0-0.1,0.1-0.1,0.2-0.1c0.4,0,0.9,0,1.1,0c0.2,0,0.7,0,0.9,0c0.1,0,0.2,0,0.2,0.1
		c0,0.1-0.1,0.1-0.1,0.1c-0.1,0-0.1,0-0.2,0c-0.2,0-0.3,0.1-0.3,0.4c0,0.2,0,0.4,0,1.6v1.3c0,0.7,0,1.3,0,1.6c0,0.2,0.1,0.4,0.3,0.4
		c0.1,0,0.3,0,0.4,0c0.1,0,0.1,0,0.1,0.1c0,0.1-0.1,0.1-0.2,0.1c-0.5,0-1,0-1.2,0c-0.2,0-0.7,0-1,0c-0.1,0-0.2,0-0.2-0.1
		c0,0,0-0.1,0.1-0.1c0.1,0,0.2,0,0.3,0c0.1,0,0.2-0.2,0.2-0.4c0-0.3,0-0.9,0-1.6V47c0,0,0,0,0,0h-2.8c0,0,0,0,0,0v0.6
		c0,0.7,0,1.3,0,1.6c0,0.2,0.1,0.4,0.3,0.4c0.1,0,0.3,0,0.4,0c0.1,0,0.1,0,0.1,0.1c0,0.1-0.1,0.1-0.1,0.1c-0.5,0-1,0-1.2,0
		c-0.2,0-0.7,0-0.9,0c-0.1,0-0.1,0-0.1-0.1c0,0,0-0.1,0.1-0.1c0.1,0,0.2,0,0.3,0c0.2,0,0.2-0.2,0.2-0.4c0-0.3,0-0.9,0-1.6v-1.3
		c0-1.1,0-1.3,0-1.6c0-0.3-0.1-0.3-0.3-0.4c-0.1,0-0.2,0-0.3,0c-0.1,0-0.1,0-0.1-0.1c0-0.1,0.1-0.1,0.2-0.1c0.4,0,0.9,0,1.1,0
		c0.2,0,0.7,0,1,0c0.1,0,0.2,0,0.2,0.1c0,0.1,0,0.1-0.1,0.1c-0.1,0-0.1,0-0.2,0c-0.2,0-0.3,0.1-0.3,0.4c0,0.2,0,0.5,0,1.6v0.2
		c0,0,0,0.1,0,0.1H16.6z"/>
	<path fill="#6E7070" d="M20.1,46.2c0-1.1,0-1.3,0-1.6c0-0.3-0.1-0.3-0.3-0.4c-0.1,0-0.2,0-0.3,0c-0.1,0-0.1,0-0.1-0.1
		c0-0.1,0.1-0.1,0.2-0.1c0.4,0,0.9,0,1.1,0c0.2,0,1.9,0,2,0c0.1,0,0.3,0,0.3,0c0,0,0.1,0,0.1,0c0,0,0.1,0,0.1,0.1
		c0,0.1,0,0.1-0.1,0.5c0,0.1,0,0.4,0,0.5c0,0,0,0.1-0.1,0.1c-0.1,0-0.1,0-0.1-0.1c0-0.1,0-0.2,0-0.3c-0.1-0.1-0.1-0.2-0.5-0.3
		c-0.1,0-1,0-1.2,0c0,0-0.1,0-0.1,0.1v1.9c0,0,0,0.1,0.1,0.1c0.2,0,1.1,0,1.3,0c0.2,0,0.3,0,0.4-0.1c0.1-0.1,0.1-0.1,0.1-0.1
		c0,0,0.1,0,0.1,0.1c0,0,0,0.2-0.1,0.5c0,0.1,0,0.4,0,0.5c0,0.1,0,0.2-0.1,0.2c0,0-0.1,0-0.1-0.1c0-0.1,0-0.2,0-0.3
		c0-0.1-0.1-0.3-0.4-0.3c-0.1,0-1,0-1.2,0c0,0,0,0,0,0.1v0.6c0,0.3,0,0.9,0,1.1c0,0.5,0.2,0.6,1,0.6c0.2,0,0.5,0,0.7-0.1
		c0.2-0.1,0.3-0.2,0.3-0.6c0-0.1,0-0.1,0.1-0.1c0.1,0,0.1,0.1,0.1,0.2c0,0.2-0.1,0.7-0.1,0.8c0,0.2-0.1,0.2-0.4,0.2
		c-0.6,0-1,0-1.4,0c-0.4,0-0.6,0-0.9,0c-0.1,0-0.2,0-0.4,0c-0.2,0-0.4,0-0.5,0c-0.1,0-0.1,0-0.1-0.1c0,0,0-0.1,0.1-0.1
		c0.1,0,0.2,0,0.3,0c0.2,0,0.2-0.2,0.2-0.4c0-0.3,0-0.9,0-1.6V46.2z"/>
	<path fill="#6E7070" d="M27.4,46.2c0-1.1,0-1.3,0-1.6c0-0.3-0.1-0.3-0.3-0.4c-0.1,0-0.2,0-0.3,0c-0.1,0-0.1,0-0.1-0.1
		c0-0.1,0.1-0.1,0.2-0.1c0.4,0,0.9,0,1.1,0c0.2,0,1.9,0,2,0c0.1,0,0.3,0,0.3,0c0,0,0.1,0,0.1,0c0,0,0.1,0,0.1,0.1
		c0,0.1,0,0.1-0.1,0.5c0,0.1,0,0.4,0,0.5c0,0,0,0.1-0.1,0.1c-0.1,0-0.1,0-0.1-0.1c0-0.1,0-0.2-0.1-0.3c-0.1-0.1-0.1-0.2-0.5-0.3
		c-0.1,0-1,0-1.2,0c0,0-0.1,0-0.1,0.1v1.9c0,0,0,0.1,0.1,0.1c0.2,0,1.1,0,1.3,0c0.2,0,0.3,0,0.4-0.1c0.1-0.1,0.1-0.1,0.1-0.1
		c0,0,0.1,0,0.1,0.1c0,0,0,0.2-0.1,0.5c0,0.1,0,0.4,0,0.5c0,0.1,0,0.2-0.1,0.2c-0.1,0-0.1,0-0.1-0.1c0-0.1,0-0.2,0-0.3
		c0-0.1-0.1-0.3-0.4-0.3c-0.1,0-1,0-1.2,0c0,0,0,0,0,0.1v0.6c0,0.3,0,0.9,0,1.1c0,0.5,0.2,0.6,1,0.6c0.2,0,0.5,0,0.7-0.1
		c0.2-0.1,0.3-0.2,0.3-0.6c0-0.1,0-0.1,0.1-0.1c0.1,0,0.1,0.1,0.1,0.2c0,0.2-0.1,0.7-0.1,0.8c-0.1,0.2-0.1,0.2-0.4,0.2
		c-0.6,0-1,0-1.4,0c-0.4,0-0.6,0-0.9,0c-0.1,0-0.2,0-0.4,0c-0.2,0-0.4,0-0.5,0c-0.1,0-0.1,0-0.1-0.1c0,0,0-0.1,0.1-0.1
		c0.1,0,0.2,0,0.3,0c0.2,0,0.2-0.2,0.2-0.4c0-0.3,0-0.9,0-1.6V46.2z"/>
	<path fill="#6E7070" d="M32.4,49c-0.7-0.6-0.9-1.5-0.9-2.2c0-0.5,0.2-1.4,0.9-2.1c0.5-0.5,1.2-0.8,2.3-0.8c0.5,0,0.7,0,1.1,0.1
		c0.3,0,0.5,0.1,0.7,0.1c0.1,0,0.1,0,0.1,0.1c0,0.1,0,0.2,0,0.4c0,0.2,0,0.7,0,0.8c0,0.1,0,0.2-0.1,0.2c-0.1,0-0.1-0.1-0.1-0.2
		c0-0.2-0.1-0.5-0.3-0.7c-0.3-0.3-0.7-0.4-1.4-0.4c-0.6,0-1.1,0.1-1.4,0.4c-0.5,0.5-0.7,1.2-0.7,1.9c0,1.8,1.3,2.6,2.3,2.6
		c0.7,0,1,0,1.3-0.4c0.1-0.1,0.2-0.4,0.3-0.5c0-0.1,0-0.2,0.1-0.2c0.1,0,0.1,0.1,0.1,0.1c0,0.1-0.1,0.7-0.2,1c0,0.1-0.1,0.2-0.2,0.2
		c-0.3,0.1-0.9,0.2-1.3,0.2C33.9,49.8,33.1,49.6,32.4,49"/>
	<path fill="#6E7070" d="M42.4,47c0-1.7-0.9-2.7-2.1-2.7c-0.8,0-1.8,0.5-1.8,2.3c0,1.5,0.8,2.8,2.2,2.8C41.2,49.4,42.4,49.1,42.4,47
		 M37.4,46.9c0-1.3,0.9-2.9,3.1-2.9c1.9,0,3,1.1,3,2.8c0,1.7-1.2,3.1-3.1,3.1C38.2,49.8,37.4,48.2,37.4,46.9"/>
	<path fill="#6E7070" d="M45.3,48.7c0,0.6,0.1,0.8,0.3,0.8c0.1,0,0.3,0.1,0.4,0.1c0.1,0,0.1,0,0.1,0.1c0,0.1-0.1,0.1-0.2,0.1
		c-0.5,0-0.8,0-1,0c-0.1,0-0.4,0-0.8,0c-0.1,0-0.2,0-0.2-0.1c0,0,0.1-0.1,0.1-0.1c0.1,0,0.2,0,0.3,0c0.2-0.1,0.2-0.3,0.2-0.9
		l0.1-4.4c0-0.2,0-0.3,0.1-0.3c0.1,0,0.2,0.1,0.3,0.2c0.1,0.1,1.2,1.3,2.3,2.4c0.5,0.5,1.5,1.6,1.6,1.7h0L49,44.9
		c0-0.5-0.1-0.6-0.3-0.7c-0.1,0-0.3,0-0.4,0c-0.1,0-0.1,0-0.1-0.1c0-0.1,0.1-0.1,0.2-0.1c0.4,0,0.8,0,0.9,0c0.1,0,0.4,0,0.7,0
		c0.1,0,0.2,0,0.2,0.1c0,0,0,0.1-0.1,0.1c-0.1,0-0.1,0-0.2,0c-0.2,0.1-0.3,0.2-0.3,0.6l-0.1,4.7c0,0.2-0.1,0.2-0.1,0.2
		c-0.1,0-0.2-0.1-0.3-0.2c-0.5-0.5-1.4-1.4-2.2-2.2c-0.8-0.8-1.6-1.7-1.7-1.9h0L45.3,48.7z"/>
	<path fill="#6E7070" d="M56,47c0-1.7-0.9-2.7-2.1-2.7c-0.8,0-1.8,0.5-1.8,2.3c0,1.5,0.8,2.8,2.2,2.8C54.9,49.4,56,49.1,56,47
		 M51,46.9c0-1.3,0.9-2.9,3.1-2.9c1.9,0,3,1.1,3,2.8c0,1.7-1.2,3.1-3.1,3.1C51.9,49.8,51,48.2,51,46.9"/>
	<path fill="#6E7070" d="M59,44.1c0-0.1,0.1-0.2,0.1-0.2c0.1,0,0.1,0,0.2,0.2l2,4.2l2-4.2c0.1-0.1,0.1-0.2,0.2-0.2
		c0.1,0,0.1,0.1,0.2,0.2l0.7,4.6c0.1,0.5,0.1,0.7,0.4,0.7c0.2,0.1,0.3,0.1,0.4,0.1c0.1,0,0.1,0,0.1,0.1c0,0.1-0.1,0.1-0.2,0.1
		c-0.2,0-1.2,0-1.5-0.1c-0.2,0-0.2,0-0.2-0.1c0,0,0-0.1,0.1-0.1c0,0,0.1-0.1,0-0.3L63,45.9h0l-1.6,3.3c-0.2,0.4-0.2,0.4-0.3,0.4
		c-0.1,0-0.2-0.1-0.3-0.4c-0.2-0.3-0.8-1.5-0.9-1.7c-0.1-0.1-0.5-1.1-0.7-1.6h0l-0.4,2.9c0,0.1,0,0.2,0,0.4c0,0.1,0.1,0.2,0.2,0.2
		c0.1,0,0.2,0,0.3,0c0.1,0,0.1,0,0.1,0.1c0,0.1-0.1,0.1-0.2,0.1c-0.3,0-0.6,0-0.8,0c-0.1,0-0.5,0-0.7,0c-0.1,0-0.1,0-0.1-0.1
		c0,0,0-0.1,0.1-0.1c0.1,0,0.1,0,0.2,0c0.2,0,0.3-0.3,0.3-0.6L59,44.1z"/>
	<path fill="#6E7070" d="M66.5,46.2c0-1.1,0-1.3,0-1.6c0-0.3-0.1-0.3-0.3-0.4c-0.1,0-0.2,0-0.3,0c-0.1,0-0.1,0-0.1-0.1
		c0,0,0.1-0.1,0.2-0.1c0.3,0,0.8,0,1,0c0.2,0,0.7,0,0.9,0c0.1,0,0.2,0,0.2,0.1c0,0.1,0,0.1-0.1,0.1c-0.1,0-0.1,0-0.2,0
		c-0.2,0-0.3,0.1-0.3,0.4c0,0.2,0,0.5,0,1.6v1.3c0,0.7,0,1.3,0,1.6c0,0.2,0.1,0.3,0.3,0.4c0.1,0,0.3,0,0.4,0c0.1,0,0.1,0,0.1,0.1
		c0,0.1-0.1,0.1-0.1,0.1c-0.5,0-1,0-1.2,0c-0.2,0-0.7,0-1,0c-0.1,0-0.1,0-0.1-0.1c0,0,0-0.1,0.1-0.1c0.1,0,0.2,0,0.3,0
		c0.1,0,0.2-0.1,0.2-0.4c0-0.3,0-0.9,0-1.6V46.2z"/>
	<path fill="#6E7070" d="M69.9,49c-0.7-0.6-0.9-1.5-0.9-2.2c0-0.5,0.2-1.4,0.9-2.1c0.5-0.5,1.2-0.8,2.3-0.8c0.5,0,0.7,0,1.1,0.1
		c0.3,0,0.5,0.1,0.7,0.1c0.1,0,0.1,0,0.1,0.1c0,0.1,0,0.2,0,0.4c0,0.2,0,0.7,0,0.8c0,0.1,0,0.2-0.1,0.2c-0.1,0-0.1-0.1-0.1-0.2
		c0-0.2-0.1-0.5-0.3-0.7c-0.3-0.3-0.7-0.4-1.4-0.4c-0.6,0-1.1,0.1-1.4,0.4c-0.5,0.5-0.7,1.2-0.7,1.9c0,1.8,1.3,2.6,2.3,2.6
		c0.7,0,1,0,1.3-0.4c0.1-0.1,0.2-0.4,0.3-0.5c0-0.1,0-0.2,0.1-0.2c0.1,0,0.1,0.1,0.1,0.1c0,0.1-0.1,0.7-0.2,1c0,0.1-0.1,0.2-0.2,0.2
		c-0.3,0.1-0.9,0.2-1.3,0.2C71.4,49.8,70.6,49.6,69.9,49"/>
	<path fill="#6E7070" d="M79.2,46.8c0,0.1,0,0.1,0.1,0.1c0.2,0.1,0.4,0.1,0.6,0.1c0.3,0,0.4,0,0.5-0.1c0.2-0.2,0.5-0.5,0.5-1.1
		c0-1.1-0.7-1.3-1.1-1.3c-0.2,0-0.4,0-0.4,0c0,0-0.1,0-0.1,0.1V46.8z M78.2,46.2c0-1.1,0-1.3,0-1.6c0-0.3-0.1-0.3-0.3-0.4
		c-0.1,0-0.2,0-0.3,0c-0.1,0-0.1,0-0.1-0.1c0-0.1,0.1-0.1,0.2-0.1c0.4,0,0.9,0,1,0c0.3,0,0.9,0,1.1,0c0.5,0,1,0,1.4,0.3
		c0.2,0.1,0.5,0.5,0.5,1c0,0.6-0.3,1-1,1.7c0.7,0.8,1.2,1.5,1.6,2c0.4,0.4,0.7,0.5,0.8,0.5c0.1,0,0.1,0,0.2,0c0.1,0,0.1,0,0.1,0.1
		c0,0.1-0.1,0.1-0.1,0.1h-0.7c-0.4,0-0.6,0-0.8-0.1c-0.3-0.2-0.6-0.5-1-1.1c-0.3-0.4-0.6-0.9-0.7-1c0,0-0.1-0.1-0.1-0.1l-0.7,0
		c0,0-0.1,0-0.1,0.1v0.1c0,0.7,0,1.3,0,1.6c0,0.2,0.1,0.4,0.3,0.4c0.1,0,0.3,0,0.4,0c0.1,0,0.1,0,0.1,0.1c0,0.1-0.1,0.1-0.2,0.1
		c-0.4,0-1,0-1.1,0c-0.1,0-0.6,0-0.9,0c-0.1,0-0.1,0-0.1-0.1c0,0,0-0.1,0.1-0.1c0.1,0,0.2,0,0.3,0c0.2,0,0.2-0.2,0.2-0.4
		c0-0.3,0-0.9,0-1.6V46.2z"/>
	<path fill="#6E7070" d="M84,46.2c0-1.1,0-1.3,0-1.6c0-0.3-0.1-0.3-0.3-0.4c-0.1,0-0.2,0-0.3,0c-0.1,0-0.1,0-0.1-0.1
		c0-0.1,0.1-0.1,0.2-0.1c0.4,0,0.9,0,1.1,0c0.2,0,1.9,0,2,0c0.1,0,0.3,0,0.3,0c0,0,0.1,0,0.1,0c0,0,0,0,0,0.1c0,0.1,0,0.1-0.1,0.5
		c0,0.1,0,0.4,0,0.5c0,0,0,0.1-0.1,0.1c0,0-0.1,0-0.1-0.1c0-0.1,0-0.2,0-0.3c-0.1-0.1-0.1-0.2-0.5-0.3c-0.1,0-1,0-1.2,0
		c0,0-0.1,0-0.1,0.1v1.9c0,0,0,0.1,0.1,0.1c0.2,0,1.1,0,1.3,0c0.2,0,0.3,0,0.4-0.1c0.1-0.1,0.1-0.1,0.1-0.1c0,0,0.1,0,0.1,0.1
		c0,0,0,0.2-0.1,0.5c0,0.1,0,0.4,0,0.5c0,0.1,0,0.2-0.1,0.2c0,0-0.1,0-0.1-0.1c0-0.1,0-0.2,0-0.3c0-0.1-0.1-0.3-0.4-0.3
		c-0.1,0-1,0-1.2,0c0,0,0,0,0,0.1v0.6c0,0.3,0,0.9,0,1.1c0,0.5,0.2,0.6,1,0.6c0.2,0,0.5,0,0.7-0.1c0.2-0.1,0.3-0.2,0.3-0.6
		c0-0.1,0-0.1,0.1-0.1c0.1,0,0.1,0.1,0.1,0.2c0,0.2-0.1,0.7-0.1,0.8c-0.1,0.2-0.1,0.2-0.4,0.2c-0.6,0-1,0-1.4,0c-0.4,0-0.6,0-0.9,0
		c-0.1,0-0.2,0-0.4,0c-0.2,0-0.4,0-0.5,0c-0.1,0-0.1,0-0.1-0.1c0,0,0-0.1,0.1-0.1c0.1,0,0.2,0,0.3,0c0.1,0,0.2-0.2,0.2-0.4
		c0-0.3,0-0.9,0-1.6V46.2z"/>
	<path fill="#6E7070" d="M88.4,49.6c-0.1,0-0.1-0.1-0.1-0.3c0-0.4,0-0.9,0-1c0-0.1,0-0.2,0.1-0.2c0.1,0,0.1,0.1,0.1,0.1
		c0,0.1,0,0.3,0.1,0.4c0.2,0.6,0.7,0.7,1.2,0.7c0.6,0,1-0.4,1-1c0-0.3-0.1-0.7-0.7-1.1l-0.4-0.3c-0.9-0.5-1.2-1-1.2-1.7
		c0-0.9,0.8-1.5,1.9-1.5c0.5,0,0.9,0.1,1,0.1c0.1,0,0.1,0,0.1,0.1c0,0.1,0,0.3,0,0.9c0,0.2,0,0.2-0.1,0.2c-0.1,0-0.1,0-0.1-0.1
		c0-0.1,0-0.3-0.2-0.5c-0.1-0.1-0.3-0.4-0.8-0.4c-0.5,0-1,0.3-1,0.8c0,0.3,0.1,0.6,0.8,1l0.3,0.2c1,0.6,1.3,1.1,1.3,1.8
		c0,0.6-0.2,1-0.7,1.4c-0.4,0.3-0.8,0.3-1.2,0.3C89.2,49.8,88.7,49.8,88.4,49.6"/>
	<path fill="#6E7070" d="M93.2,46.2c0-1.1,0-1.3,0-1.6c0-0.3-0.1-0.3-0.3-0.4c-0.1,0-0.2,0-0.3,0c-0.1,0-0.1,0-0.1-0.1
		c0-0.1,0.1-0.1,0.2-0.1c0.4,0,0.9,0,1.1,0c0.2,0,1.9,0,2,0c0.1,0,0.2,0,0.3,0c0,0,0.1,0,0.1,0c0,0,0.1,0,0.1,0.1
		c0,0.1,0,0.1-0.1,0.5c0,0.1,0,0.4,0,0.5c0,0,0,0.1-0.1,0.1c-0.1,0-0.1,0-0.1-0.1c0-0.1,0-0.2-0.1-0.3c-0.1-0.1-0.1-0.2-0.5-0.3
		c-0.1,0-1,0-1.2,0c0,0,0,0,0,0.1v1.9c0,0,0,0.1,0,0.1c0.2,0,1.1,0,1.3,0c0.2,0,0.3,0,0.4-0.1c0.1-0.1,0.1-0.1,0.1-0.1
		c0,0,0.1,0,0.1,0.1c0,0,0,0.2-0.1,0.5c0,0.1,0,0.4,0,0.5c0,0.1,0,0.2-0.1,0.2c-0.1,0-0.1,0-0.1-0.1c0-0.1,0-0.2,0-0.3
		c0-0.1-0.1-0.3-0.4-0.3c-0.1,0-1,0-1.2,0c0,0,0,0,0,0.1v0.6c0,0.3,0,0.9,0,1.1c0,0.5,0.2,0.6,1,0.6c0.2,0,0.5,0,0.7-0.1
		c0.2-0.1,0.3-0.2,0.3-0.6c0-0.1,0-0.1,0.1-0.1c0.1,0,0.1,0.1,0.1,0.2c0,0.2-0.1,0.7-0.1,0.8c0,0.2-0.1,0.2-0.4,0.2
		c-0.6,0-1,0-1.4,0c-0.4,0-0.6,0-0.9,0c-0.1,0-0.2,0-0.4,0c-0.2,0-0.4,0-0.5,0c-0.1,0-0.1,0-0.1-0.1c0,0,0-0.1,0.1-0.1
		c0.1,0,0.2,0,0.3,0c0.2,0,0.2-0.2,0.2-0.4c0-0.3,0-0.9,0-1.6V46.2z"/>
	<path fill="#6E7070" d="M99.9,47.4C99.9,47.4,99.9,47.4,99.9,47.4l-0.7-1.9c0,0,0-0.1,0-0.1c0,0,0,0,0,0.1l-0.7,1.9
		c0,0,0,0.1,0,0.1H99.9z M98.3,47.8C98.3,47.8,98.3,47.8,98.3,47.8l-0.5,1.1c-0.1,0.2-0.1,0.4-0.1,0.5c0,0.1,0.1,0.2,0.3,0.2h0.1
		c0.1,0,0.1,0,0.1,0.1c0,0.1,0,0.1-0.1,0.1c-0.2,0-0.6,0-0.8,0c-0.1,0-0.5,0-0.9,0c-0.1,0-0.1,0-0.1-0.1c0,0,0-0.1,0.1-0.1
		c0.1,0,0.1,0,0.2,0c0.3-0.1,0.5-0.3,0.6-0.7l1.9-4.7c0.1-0.2,0.1-0.3,0.2-0.3c0.1,0,0.1,0.1,0.2,0.2c0.2,0.4,1.4,3.5,1.9,4.6
		c0.3,0.7,0.5,0.8,0.6,0.8c0.1,0,0.2,0,0.3,0c0.1,0,0.1,0,0.1,0.1c0,0.1,0,0.1-0.3,0.1c-0.3,0-0.8,0-1.4,0c-0.1,0-0.2,0-0.2-0.1
		c0,0,0-0.1,0.1-0.1c0.1,0,0.1-0.1,0.1-0.2l-0.6-1.5c0,0,0-0.1-0.1-0.1H98.3z"/>
	<path fill="#6E7070" d="M104.2,46.8c0,0.1,0,0.1,0.1,0.1c0.2,0.1,0.4,0.1,0.6,0.1c0.3,0,0.4,0,0.5-0.1c0.2-0.2,0.5-0.5,0.5-1.1
		c0-1.1-0.7-1.3-1.1-1.3c-0.2,0-0.4,0-0.4,0c-0.1,0-0.1,0-0.1,0.1V46.8z M103.3,46.2c0-1.1,0-1.3,0-1.6c0-0.3-0.1-0.3-0.3-0.4
		c-0.1,0-0.2,0-0.3,0c-0.1,0-0.1,0-0.1-0.1c0-0.1,0.1-0.1,0.2-0.1c0.4,0,0.9,0,1,0c0.3,0,0.9,0,1.1,0c0.5,0,1,0,1.4,0.3
		c0.2,0.1,0.5,0.5,0.5,1c0,0.6-0.3,1-1,1.7c0.7,0.8,1.2,1.5,1.6,2c0.4,0.4,0.7,0.5,0.8,0.5c0.1,0,0.1,0,0.2,0c0.1,0,0.1,0,0.1,0.1
		c0,0.1,0,0.1-0.1,0.1h-0.7c-0.4,0-0.6,0-0.8-0.1c-0.3-0.2-0.6-0.5-1-1.1c-0.3-0.4-0.6-0.9-0.7-1c0,0-0.1-0.1-0.1-0.1l-0.7,0
		c0,0-0.1,0-0.1,0.1v0.1c0,0.7,0,1.3,0,1.6c0,0.2,0.1,0.4,0.3,0.4c0.1,0,0.3,0,0.4,0c0.1,0,0.1,0,0.1,0.1c0,0.1-0.1,0.1-0.2,0.1
		c-0.4,0-1,0-1.1,0c-0.1,0-0.6,0-0.9,0c-0.1,0-0.1,0-0.1-0.1c0,0,0-0.1,0.1-0.1c0.1,0,0.2,0,0.3,0c0.2,0,0.2-0.2,0.2-0.4
		c0-0.3,0-0.9,0-1.6V46.2z"/>
	<path fill="#6E7070" d="M109.1,49c-0.7-0.6-0.9-1.5-0.9-2.2c0-0.5,0.2-1.4,0.9-2.1c0.5-0.5,1.2-0.8,2.3-0.8c0.5,0,0.7,0,1.1,0.1
		c0.3,0,0.5,0.1,0.7,0.1c0.1,0,0.1,0,0.1,0.1c0,0.1,0,0.2,0,0.4c0,0.2,0,0.7,0,0.8c0,0.1,0,0.2-0.1,0.2c-0.1,0-0.1-0.1-0.1-0.2
		c0-0.2-0.1-0.5-0.3-0.7c-0.2-0.3-0.7-0.4-1.4-0.4c-0.6,0-1.1,0.1-1.4,0.4c-0.5,0.5-0.7,1.2-0.7,1.9c0,1.8,1.3,2.6,2.3,2.6
		c0.7,0,1,0,1.3-0.4c0.1-0.1,0.2-0.4,0.3-0.5c0-0.1,0-0.2,0.1-0.2c0.1,0,0.1,0.1,0.1,0.1c0,0.1-0.1,0.7-0.2,1c0,0.1-0.1,0.2-0.2,0.2
		c-0.3,0.1-0.9,0.2-1.3,0.2C110.7,49.8,109.8,49.6,109.1,49"/>
	<path fill="#6E7070" d="M118.7,46.5C118.8,46.5,118.8,46.5,118.7,46.5l0-0.2c0-1.1,0-1.4,0-1.6c0-0.3-0.1-0.3-0.3-0.4
		c-0.1,0-0.2,0-0.3,0c-0.1,0-0.1,0-0.1-0.1c0-0.1,0-0.1,0.2-0.1c0.4,0,0.9,0,1.1,0c0.2,0,0.7,0,0.9,0c0.1,0,0.2,0,0.2,0.1
		c0,0.1,0,0.1-0.1,0.1c-0.1,0-0.1,0-0.2,0c-0.2,0-0.3,0.1-0.3,0.4c0,0.2,0,0.4,0,1.6v1.3c0,0.7,0,1.3,0,1.6c0,0.2,0.1,0.4,0.3,0.4
		c0.1,0,0.3,0,0.4,0c0.1,0,0.1,0,0.1,0.1c0,0.1-0.1,0.1-0.2,0.1c-0.5,0-1,0-1.2,0c-0.2,0-0.7,0-1,0c-0.1,0-0.2,0-0.2-0.1
		c0,0,0-0.1,0.1-0.1c0.1,0,0.2,0,0.3,0c0.2,0,0.2-0.2,0.2-0.4c0-0.3,0-0.9,0-1.6V47c0,0,0,0,0,0H116c0,0,0,0,0,0v0.6
		c0,0.7,0,1.3,0,1.6c0,0.2,0.1,0.4,0.3,0.4c0.1,0,0.3,0,0.4,0c0.1,0,0.1,0,0.1,0.1c0,0.1-0.1,0.1-0.1,0.1c-0.5,0-1,0-1.2,0
		c-0.2,0-0.7,0-0.9,0c-0.1,0-0.1,0-0.1-0.1c0,0,0-0.1,0.1-0.1c0.1,0,0.2,0,0.3,0c0.2,0,0.2-0.2,0.2-0.4c0-0.3,0-0.9,0-1.6v-1.3
		c0-1.1,0-1.3,0-1.6c0-0.3-0.1-0.3-0.3-0.4c-0.1,0-0.2,0-0.3,0c-0.1,0-0.1,0-0.1-0.1c0-0.1,0.1-0.1,0.2-0.1c0.4,0,0.9,0,1.1,0
		c0.2,0,0.7,0,1,0c0.1,0,0.1,0,0.1,0.1c0,0.1,0,0.1-0.1,0.1c-0.1,0-0.1,0-0.2,0c-0.2,0-0.3,0.1-0.3,0.4c0,0.2,0,0.5,0,1.6v0.2
		c0,0,0,0.1,0,0.1H118.7z"/>
	<path fill="#6E7070" d="M128.9,47c0-1.7-0.9-2.7-2.1-2.7c-0.8,0-1.8,0.5-1.8,2.3c0,1.5,0.8,2.8,2.2,2.8
		C127.7,49.4,128.9,49.1,128.9,47 M123.9,46.9c0-1.3,0.9-2.9,3.1-2.9c1.9,0,3,1.1,3,2.8c0,1.7-1.2,3.1-3.1,3.1
		C124.8,49.8,123.9,48.2,123.9,46.9"/>
	<path fill="#6E7070" d="M132.3,46.8c0,0.1,0,0.1,0.1,0.1c0.2,0.1,0.4,0.1,0.6,0.1c0.3,0,0.4,0,0.5-0.1c0.2-0.2,0.5-0.5,0.5-1.1
		c0-1.1-0.7-1.3-1.1-1.3c-0.2,0-0.4,0-0.4,0c0,0-0.1,0-0.1,0.1V46.8z M131.4,46.2c0-1.1,0-1.3,0-1.6c0-0.3-0.1-0.3-0.3-0.4
		c-0.1,0-0.2,0-0.3,0c-0.1,0-0.1,0-0.1-0.1c0-0.1,0.1-0.1,0.2-0.1c0.4,0,0.9,0,1,0c0.3,0,0.9,0,1.1,0c0.5,0,1,0,1.4,0.3
		c0.2,0.1,0.5,0.5,0.5,1c0,0.6-0.3,1-1,1.7c0.7,0.8,1.2,1.5,1.6,2c0.4,0.4,0.7,0.5,0.8,0.5c0.1,0,0.1,0,0.2,0c0.1,0,0.1,0,0.1,0.1
		c0,0.1,0,0.1-0.1,0.1h-0.7c-0.4,0-0.6,0-0.8-0.1c-0.3-0.2-0.6-0.5-1-1.1c-0.3-0.4-0.6-0.9-0.7-1c0,0-0.1-0.1-0.1-0.1l-0.7,0
		c0,0-0.1,0-0.1,0.1v0.1c0,0.7,0,1.3,0,1.6c0,0.2,0.1,0.4,0.3,0.4c0.1,0,0.3,0,0.4,0c0.1,0,0.1,0,0.1,0.1c0,0.1-0.1,0.1-0.1,0.1
		c-0.4,0-1,0-1.1,0c-0.1,0-0.6,0-0.9,0c-0.1,0-0.1,0-0.1-0.1c0,0,0-0.1,0.1-0.1c0.1,0,0.2,0,0.3,0c0.1,0,0.2-0.2,0.2-0.4
		c0-0.3,0-0.9,0-1.6V46.2z"/>
	<path fill="#6E7070" d="M141.6,49.2c0,0.2,0,0.2-0.1,0.3c-0.5,0.3-1.2,0.3-1.8,0.3c-1.8,0-3.4-0.9-3.4-2.9c0-1.2,0.6-2,1.3-2.5
		c0.7-0.4,1.4-0.5,2-0.5c0.5,0,1.2,0.1,1.3,0.1c0.2,0,0.4,0.1,0.6,0.1c0.1,0,0.1,0,0.1,0.1c0,0.1,0,0.3,0,1.2c0,0.1,0,0.2-0.1,0.2
		c0,0-0.1,0-0.1-0.1c0-0.2-0.1-0.4-0.3-0.6c-0.2-0.2-0.8-0.6-1.6-0.6c-0.4,0-0.9,0-1.4,0.4c-0.4,0.4-0.7,0.9-0.7,1.8
		c0,1.6,1,2.8,2.6,2.8c0.2,0,0.3,0,0.5-0.1c0.1,0,0.1-0.1,0.1-0.3v-0.7c0-0.4,0-0.7,0-0.9c0-0.3-0.1-0.3-0.3-0.4c-0.1,0-0.2,0-0.3,0
		c-0.1,0-0.1,0-0.1-0.1c0-0.1,0.1-0.1,0.2-0.1c0.4,0,0.9,0,1.1,0c0.2,0,0.6,0,0.9,0c0.1,0,0.1,0,0.1,0.1c0,0,0,0.1-0.1,0.1
		c-0.1,0-0.1,0-0.2,0c-0.2,0-0.3,0.1-0.3,0.4c0,0.2,0,0.5,0,0.9V49.2z"/>
	<path fill="#6E7070" d="M145.6,47.4C145.6,47.4,145.6,47.4,145.6,47.4l-0.7-1.9c0,0,0-0.1,0-0.1c0,0,0,0,0,0.1l-0.7,1.9
		c0,0,0,0.1,0,0.1H145.6z M144,47.8C143.9,47.8,143.9,47.8,144,47.8l-0.5,1.1c-0.1,0.2-0.1,0.4-0.1,0.5c0,0.1,0.1,0.2,0.3,0.2h0.1
		c0.1,0,0.1,0,0.1,0.1c0,0.1,0,0.1-0.1,0.1c-0.2,0-0.6,0-0.8,0c-0.1,0-0.5,0-0.9,0c-0.1,0-0.1,0-0.1-0.1c0,0,0-0.1,0.1-0.1
		c0.1,0,0.2,0,0.2,0c0.3-0.1,0.5-0.3,0.6-0.7l1.9-4.7c0.1-0.2,0.1-0.3,0.2-0.3c0.1,0,0.1,0.1,0.2,0.2c0.2,0.4,1.4,3.5,1.9,4.6
		c0.3,0.7,0.5,0.8,0.6,0.8c0.1,0,0.2,0,0.3,0c0.1,0,0.1,0,0.1,0.1c0,0.1,0,0.1-0.3,0.1c-0.3,0-0.8,0-1.4,0c-0.1,0-0.2,0-0.2-0.1
		c0,0,0-0.1,0.1-0.1c0.1,0,0.1-0.1,0.1-0.2l-0.6-1.5c0,0,0-0.1-0.1-0.1H144z"/>
	<path fill="#6E7070" d="M149.4,48.7c0,0.6,0.1,0.8,0.3,0.8c0.1,0,0.3,0.1,0.4,0.1c0.1,0,0.1,0,0.1,0.1c0,0.1-0.1,0.1-0.2,0.1
		c-0.5,0-0.8,0-1,0c-0.1,0-0.4,0-0.8,0c-0.1,0-0.2,0-0.2-0.1c0,0,0.1-0.1,0.1-0.1c0.1,0,0.2,0,0.3,0c0.2-0.1,0.2-0.3,0.2-0.9
		l0.1-4.4c0-0.2,0.1-0.3,0.1-0.3c0.1,0,0.2,0.1,0.3,0.2c0.1,0.1,1.2,1.3,2.3,2.4c0.5,0.5,1.5,1.6,1.6,1.7h0l-0.1-3.3
		c0-0.5-0.1-0.6-0.3-0.7c-0.1,0-0.3,0-0.4,0c-0.1,0-0.1,0-0.1-0.1c0-0.1,0.1-0.1,0.2-0.1c0.4,0,0.8,0,0.9,0c0.1,0,0.4,0,0.7,0
		c0.1,0,0.2,0,0.2,0.1c0,0,0,0.1-0.1,0.1c-0.1,0-0.1,0-0.2,0c-0.2,0.1-0.3,0.2-0.3,0.6l-0.1,4.7c0,0.2-0.1,0.2-0.1,0.2
		c-0.1,0-0.2-0.1-0.3-0.2c-0.5-0.5-1.4-1.4-2.2-2.2c-0.8-0.8-1.6-1.7-1.7-1.9h0L149.4,48.7z"/>
	<path fill="#6E7070" d="M156,46.2c0-1.1,0-1.3,0-1.6c0-0.3-0.1-0.3-0.2-0.4c-0.1,0-0.2,0-0.3,0c-0.1,0-0.1,0-0.1-0.1
		c0,0,0.1-0.1,0.2-0.1c0.3,0,0.8,0,1,0c0.2,0,0.7,0,0.9,0c0.1,0,0.2,0,0.2,0.1c0,0.1,0,0.1-0.1,0.1c-0.1,0-0.1,0-0.2,0
		c-0.2,0-0.3,0.1-0.3,0.4c0,0.2,0,0.5,0,1.6v1.3c0,0.7,0,1.3,0,1.6c0,0.2,0.1,0.3,0.3,0.4c0.1,0,0.3,0,0.4,0c0.1,0,0.1,0,0.1,0.1
		c0,0.1-0.1,0.1-0.1,0.1c-0.5,0-1,0-1.2,0c-0.2,0-0.7,0-1,0c-0.1,0-0.1,0-0.1-0.1c0,0,0-0.1,0.1-0.1c0.1,0,0.2,0,0.3,0
		c0.2,0,0.2-0.1,0.2-0.4c0-0.3,0-0.9,0-1.6V46.2z"/>
	<path fill="#6E7070" d="M161.7,49.2c0.8,0,1-0.2,1.1-0.4c0.1-0.1,0.1-0.2,0.1-0.3c0-0.1,0-0.1,0.1-0.1c0.1,0,0.1,0.1,0.1,0.2
		c0,0.2-0.1,0.7-0.1,0.9c0,0.1-0.1,0.2-0.2,0.2c-1.2,0-2.5,0-4,0c-0.1,0-0.1,0-0.1-0.1c0,0,0-0.1,0.1-0.2c1-1.6,2.1-3.3,3.1-4.9
		h-1.4c-0.4,0-0.8,0-1,0.1c-0.2,0.1-0.4,0.4-0.4,0.6c0,0.1,0,0.1-0.1,0.1c0,0-0.1,0-0.1-0.1c0-0.2,0.1-0.9,0.2-1.1
		c0-0.1,0-0.1,0.1-0.1c0.1,0,0.1,0,0.3,0.1c0.7,0,1.1,0,1.4,0h2.3c0.1,0,0.1,0,0.1,0.1c0,0.1,0,0.1,0,0.1c-1,1.7-2.1,3.4-3.2,5
		H161.7z"/>
	<path fill="#6E7070" d="M166.4,47.4C166.5,47.4,166.5,47.4,166.4,47.4l-0.7-1.9c0,0,0-0.1,0-0.1c0,0,0,0,0,0.1l-0.7,1.9
		c0,0,0,0.1,0,0.1H166.4z M164.9,47.8C164.8,47.8,164.8,47.8,164.9,47.8l-0.5,1.1c-0.1,0.2-0.1,0.4-0.1,0.5c0,0.1,0.1,0.2,0.3,0.2
		h0.1c0.1,0,0.1,0,0.1,0.1c0,0.1,0,0.1-0.1,0.1c-0.2,0-0.6,0-0.8,0c-0.1,0-0.5,0-0.9,0c-0.1,0-0.1,0-0.1-0.1c0,0,0-0.1,0.1-0.1
		c0.1,0,0.1,0,0.2,0c0.3-0.1,0.5-0.3,0.6-0.7l1.9-4.7c0.1-0.2,0.1-0.3,0.2-0.3c0.1,0,0.1,0.1,0.2,0.2c0.2,0.4,1.4,3.5,1.9,4.6
		c0.3,0.7,0.5,0.8,0.6,0.8c0.1,0,0.2,0,0.3,0c0.1,0,0.1,0,0.1,0.1c0,0.1,0,0.1-0.3,0.1c-0.3,0-0.8,0-1.4,0c-0.1,0-0.2,0-0.2-0.1
		c0,0,0-0.1,0.1-0.1c0.1,0,0.1-0.1,0.1-0.2l-0.6-1.5c0,0,0-0.1-0.1-0.1H164.9z"/>
	<path fill="#6E7070" d="M170.3,44.5l-1.1,0c-0.4,0-0.6,0.1-0.7,0.2c-0.1,0.1-0.1,0.2-0.1,0.3c0,0.1,0,0.1-0.1,0.1
		c-0.1,0-0.1,0-0.1-0.1c0-0.1,0.1-0.8,0.2-0.9c0-0.1,0-0.1,0.1-0.1c0.1,0,0.1,0.1,0.3,0.1c0.2,0,0.5,0,0.7,0h3c0.2,0,0.4,0,0.5,0
		c0.1,0,0.2,0,0.2,0c0,0,0.1,0,0.1,0.2c0,0.2,0,0.7,0,0.9c0,0.1,0,0.1-0.1,0.1c-0.1,0-0.1,0-0.1-0.2l0-0.1c0-0.2-0.2-0.4-0.9-0.4
		l-0.9,0v3c0,0.7,0,1.3,0,1.6c0,0.2,0.1,0.4,0.3,0.4c0.1,0,0.3,0,0.4,0c0.1,0,0.1,0,0.1,0.1c0,0.1-0.1,0.1-0.1,0.1c-0.5,0-1,0-1.2,0
		c-0.2,0-0.7,0-1,0c-0.1,0-0.1,0-0.1-0.1c0,0,0-0.1,0.1-0.1c0.1,0,0.2,0,0.3,0c0.2,0,0.2-0.2,0.2-0.4c0-0.3,0-0.9,0-1.6V44.5z"/>
	<path fill="#6E7070" d="M174.6,46.2c0-1.1,0-1.3,0-1.6c0-0.3-0.1-0.3-0.3-0.4c-0.1,0-0.2,0-0.3,0c-0.1,0-0.1,0-0.1-0.1
		c0,0,0.1-0.1,0.2-0.1c0.3,0,0.8,0,1,0c0.2,0,0.7,0,0.9,0c0.1,0,0.1,0,0.1,0.1c0,0.1,0,0.1-0.1,0.1c-0.1,0-0.1,0-0.2,0
		c-0.2,0-0.3,0.1-0.3,0.4c0,0.2,0,0.5,0,1.6v1.3c0,0.7,0,1.3,0,1.6c0,0.2,0.1,0.3,0.3,0.4c0.1,0,0.3,0,0.4,0c0.1,0,0.1,0,0.1,0.1
		c0,0.1-0.1,0.1-0.1,0.1c-0.5,0-1,0-1.2,0c-0.2,0-0.7,0-1,0c-0.1,0-0.1,0-0.1-0.1c0,0,0-0.1,0.1-0.1c0.1,0,0.2,0,0.3,0
		c0.2,0,0.2-0.1,0.2-0.4c0-0.3,0-0.9,0-1.6V46.2z"/>
	<path fill="#6E7070" d="M182.1,47c0-1.7-0.9-2.7-2.1-2.7c-0.8,0-1.8,0.5-1.8,2.3c0,1.5,0.8,2.8,2.2,2.8
		C181,49.4,182.1,49.1,182.1,47 M177.1,46.9c0-1.3,0.9-2.9,3.1-2.9c1.9,0,3,1.1,3,2.8c0,1.7-1.2,3.1-3.1,3.1
		C178,49.8,177.1,48.2,177.1,46.9"/>
	<path fill="#6E7070" d="M185.1,48.7c0,0.6,0.1,0.8,0.3,0.8c0.1,0,0.3,0.1,0.4,0.1c0.1,0,0.1,0,0.1,0.1c0,0.1-0.1,0.1-0.2,0.1
		c-0.5,0-0.8,0-1,0c-0.1,0-0.4,0-0.8,0c-0.1,0-0.2,0-0.2-0.1c0,0,0.1-0.1,0.1-0.1c0.1,0,0.2,0,0.3,0c0.2-0.1,0.2-0.3,0.2-0.9
		l0.1-4.4c0-0.2,0-0.3,0.1-0.3c0.1,0,0.2,0.1,0.3,0.2c0.1,0.1,1.2,1.3,2.3,2.4c0.5,0.5,1.5,1.6,1.6,1.7h0l-0.1-3.3
		c0-0.5-0.1-0.6-0.3-0.7c-0.1,0-0.3,0-0.4,0c-0.1,0-0.1,0-0.1-0.1c0-0.1,0.1-0.1,0.2-0.1c0.4,0,0.8,0,0.9,0c0.1,0,0.4,0,0.7,0
		c0.1,0,0.2,0,0.2,0.1c0,0,0,0.1-0.1,0.1c-0.1,0-0.1,0-0.2,0c-0.2,0.1-0.3,0.2-0.3,0.6l-0.1,4.7c0,0.2-0.1,0.2-0.1,0.2
		c-0.1,0-0.2-0.1-0.3-0.2c-0.5-0.5-1.4-1.4-2.2-2.2c-0.8-0.8-1.6-1.7-1.7-1.9h0L185.1,48.7z"/>
	<path fill="#6E7070" d="M33.4,58.4C33.5,58.4,33.5,58.4,33.4,58.4l-0.7-1.9c0,0,0-0.1,0-0.1c0,0,0,0,0,0.1L32,58.3c0,0,0,0.1,0,0.1
		H33.4z M31.9,58.8C31.8,58.8,31.8,58.8,31.9,58.8l-0.5,1.1c-0.1,0.2-0.1,0.4-0.1,0.5c0,0.1,0.1,0.2,0.3,0.2h0.1
		c0.1,0,0.1,0,0.1,0.1c0,0.1,0,0.1-0.1,0.1c-0.2,0-0.6,0-0.8,0c-0.1,0-0.5,0-0.9,0c-0.1,0-0.1,0-0.1-0.1c0,0,0-0.1,0.1-0.1
		c0.1,0,0.2,0,0.2,0c0.3-0.1,0.5-0.3,0.6-0.7l1.9-4.7c0.1-0.2,0.1-0.3,0.2-0.3c0.1,0,0.1,0.1,0.2,0.2c0.2,0.4,1.4,3.5,1.9,4.6
		c0.3,0.7,0.5,0.8,0.6,0.8c0.1,0,0.2,0,0.3,0c0.1,0,0.1,0,0.1,0.1c0,0.1,0,0.1-0.3,0.1c-0.3,0-0.8,0-1.4,0c-0.1,0-0.2,0-0.2-0.1
		c0,0,0-0.1,0.1-0.1c0.1,0,0.1-0.1,0.1-0.2l-0.6-1.5c0,0,0-0.1-0.1-0.1H31.9z"/>
	<path fill="#6E7070" d="M37.3,55.5l-1.1,0c-0.4,0-0.6,0.1-0.7,0.2c-0.1,0.1-0.1,0.2-0.1,0.3c0,0.1,0,0.1-0.1,0.1
		c-0.1,0-0.1,0-0.1-0.1c0-0.1,0.1-0.8,0.2-0.9c0-0.1,0-0.1,0.1-0.1c0.1,0,0.1,0.1,0.3,0.1c0.2,0,0.5,0,0.7,0h3c0.2,0,0.4,0,0.5,0
		c0.1,0,0.2,0,0.2,0c0.1,0,0.1,0,0.1,0.2c0,0.2,0,0.7,0,0.9c0,0.1,0,0.1-0.1,0.1c-0.1,0-0.1,0-0.1-0.1l0-0.1c0-0.2-0.2-0.4-0.9-0.4
		l-0.9,0v3c0,0.7,0,1.3,0,1.6c0,0.2,0.1,0.4,0.3,0.4c0.1,0,0.3,0,0.4,0c0.1,0,0.1,0,0.1,0.1c0,0.1-0.1,0.1-0.1,0.1c-0.5,0-1,0-1.2,0
		c-0.2,0-0.7,0-1,0c-0.1,0-0.1,0-0.1-0.1c0,0,0-0.1,0.1-0.1c0.1,0,0.2,0,0.3,0c0.2,0,0.2-0.2,0.2-0.4c0-0.3,0-0.9,0-1.6V55.5z"/>
	<path fill="#6E7070" d="M45.1,55.5l-1.1,0c-0.4,0-0.6,0.1-0.7,0.2c-0.1,0.1-0.1,0.2-0.1,0.3c0,0.1,0,0.1-0.1,0.1
		c-0.1,0-0.1,0-0.1-0.1c0-0.1,0.1-0.8,0.2-0.9c0-0.1,0-0.1,0.1-0.1c0.1,0,0.1,0.1,0.3,0.1c0.2,0,0.5,0,0.7,0h3c0.2,0,0.4,0,0.5,0
		c0.1,0,0.2,0,0.2,0c0,0,0.1,0,0.1,0.2c0,0.2,0,0.7,0,0.9c0,0.1,0,0.1-0.1,0.1c-0.1,0-0.1,0-0.1-0.1l0-0.1c0-0.2-0.2-0.4-0.9-0.4
		l-0.9,0v3c0,0.7,0,1.3,0,1.6c0,0.2,0.1,0.4,0.3,0.4c0.1,0,0.3,0,0.4,0c0.1,0,0.1,0,0.1,0.1c0,0.1-0.1,0.1-0.1,0.1c-0.5,0-1,0-1.2,0
		c-0.2,0-0.7,0-1,0c-0.1,0-0.1,0-0.1-0.1c0,0,0-0.1,0.1-0.1c0.1,0,0.2,0,0.3,0c0.1,0,0.2-0.2,0.2-0.4c0-0.3,0-0.9,0-1.6V55.5z"/>
	<path fill="#6E7070" d="M53.2,57.4C53.3,57.4,53.3,57.4,53.2,57.4l0-0.2c0-1.1,0-1.4,0-1.6c0-0.3-0.1-0.3-0.3-0.4
		c-0.1,0-0.2,0-0.3,0c-0.1,0-0.1,0-0.1-0.1c0-0.1,0-0.1,0.2-0.1c0.4,0,0.9,0,1.1,0c0.2,0,0.7,0,0.9,0c0.1,0,0.2,0,0.2,0.1
		c0,0.1-0.1,0.1-0.1,0.1c-0.1,0-0.1,0-0.2,0c-0.2,0-0.3,0.1-0.3,0.4c0,0.2,0,0.4,0,1.6v1.3c0,0.7,0,1.3,0,1.6c0,0.2,0.1,0.4,0.3,0.4
		c0.1,0,0.3,0,0.4,0c0.1,0,0.1,0,0.1,0.1c0,0-0.1,0.1-0.2,0.1c-0.5,0-1,0-1.2,0c-0.2,0-0.7,0-1,0c-0.1,0-0.2,0-0.2-0.1
		c0,0,0-0.1,0.1-0.1c0.1,0,0.2,0,0.3,0c0.1,0,0.2-0.2,0.2-0.4c0-0.3,0-0.9,0-1.6v-0.6c0,0,0,0,0,0h-2.8c0,0-0.1,0-0.1,0v0.6
		c0,0.7,0,1.3,0,1.6c0,0.2,0.1,0.4,0.3,0.4c0.1,0,0.3,0,0.4,0c0.1,0,0.1,0,0.1,0.1c0,0-0.1,0.1-0.2,0.1c-0.5,0-1,0-1.2,0
		c-0.2,0-0.7,0-0.9,0c-0.1,0-0.1,0-0.1-0.1c0,0,0-0.1,0.1-0.1c0.1,0,0.2,0,0.3,0c0.2,0,0.2-0.2,0.2-0.4c0-0.3,0-0.9,0-1.6v-1.3
		c0-1.1,0-1.3,0-1.6c0-0.3-0.1-0.3-0.3-0.4c-0.1,0-0.2,0-0.3,0c-0.1,0-0.1,0-0.1-0.1c0-0.1,0.1-0.1,0.2-0.1c0.4,0,0.9,0,1.1,0
		c0.2,0,0.7,0,1,0c0.1,0,0.1,0,0.1,0.1c0,0.1,0,0.1-0.1,0.1c-0.1,0-0.1,0-0.2,0c-0.2,0-0.3,0.1-0.3,0.4c0,0.2,0,0.5,0,1.6v0.2
		c0,0,0,0.1,0.1,0.1H53.2z"/>
	<path fill="#6E7070" d="M56.7,57.2c0-1.1,0-1.3,0-1.6c0-0.3-0.1-0.3-0.3-0.4c-0.1,0-0.2,0-0.3,0c-0.1,0-0.1,0-0.1-0.1
		C56,55,56,55,56.1,55c0.4,0,0.9,0,1.1,0c0.2,0,1.9,0,2,0c0.1,0,0.2,0,0.3,0c0,0,0.1,0,0.1,0c0,0,0.1,0,0.1,0.1c0,0.1,0,0.1-0.1,0.5
		c0,0.1,0,0.4,0,0.5c0,0,0,0.1-0.1,0.1c-0.1,0-0.1,0-0.1-0.1c0,0,0-0.2-0.1-0.3c-0.1-0.1-0.1-0.2-0.5-0.3c-0.1,0-1,0-1.2,0
		c0,0-0.1,0-0.1,0.1v1.9c0,0,0,0.1,0.1,0.1c0.2,0,1.1,0,1.3,0c0.2,0,0.3,0,0.4-0.1c0.1-0.1,0.1-0.1,0.1-0.1c0,0,0.1,0,0.1,0.1
		c0,0,0,0.2-0.1,0.5c0,0.1,0,0.4,0,0.5c0,0.1,0,0.2-0.1,0.2c-0.1,0-0.1,0-0.1-0.1c0-0.1,0-0.2,0-0.3c0-0.1-0.1-0.3-0.4-0.3
		c-0.1,0-1,0-1.2,0c0,0,0,0,0,0.1v0.6c0,0.3,0,0.9,0,1.1c0,0.5,0.2,0.6,1,0.6c0.2,0,0.5,0,0.7-0.1c0.2-0.1,0.3-0.2,0.3-0.6
		c0-0.1,0-0.1,0.1-0.1c0.1,0,0.1,0.1,0.1,0.2c0,0.2-0.1,0.7-0.1,0.8c0,0.2-0.1,0.2-0.4,0.2c-0.6,0-1,0-1.4,0c-0.4,0-0.6,0-0.9,0
		c-0.1,0-0.2,0-0.4,0c-0.2,0-0.4,0-0.5,0c-0.1,0-0.1,0-0.1-0.1c0,0,0-0.1,0.1-0.1c0.1,0,0.2,0,0.3,0c0.2,0,0.2-0.2,0.2-0.4
		c0-0.3,0-0.9,0-1.6V57.2z"/>
	<path fill="#6E7070" d="M63.7,57.2c0-1.1,0-1.3,0-1.6c0-0.3-0.1-0.3-0.3-0.4c-0.1,0-0.2,0-0.3,0c-0.1,0-0.1,0-0.1-0.1
		c0-0.1,0-0.1,0.2-0.1c0.4,0,0.9,0,1.1,0c0.2,0,0.7,0,0.9,0c0.1,0,0.2,0,0.2,0.1c0,0.1,0,0.1-0.1,0.1c-0.1,0-0.1,0-0.2,0
		c-0.2,0-0.3,0.1-0.3,0.4c0,0.2,0,0.4,0,1.6v1.1c0,1.1,0.2,1.5,0.6,1.8c0.3,0.3,0.7,0.3,0.9,0.3c0.3,0,0.7-0.1,1-0.4
		c0.4-0.4,0.4-1.1,0.4-1.8v-0.9c0-1.1,0-1.3,0-1.6c0-0.3-0.1-0.3-0.3-0.4c-0.1,0-0.2,0-0.3,0c-0.1,0-0.1,0-0.1-0.1
		c0-0.1,0-0.1,0.1-0.1c0.4,0,0.9,0,0.9,0c0.1,0,0.6,0,0.9,0c0.1,0,0.2,0,0.2,0.1c0,0.1,0,0.1-0.1,0.1c-0.1,0-0.1,0-0.2,0
		c-0.2,0-0.3,0.1-0.3,0.4c0,0.2,0,0.4,0,1.6V58c0,0.8-0.1,1.7-0.7,2.3c-0.5,0.5-1.1,0.5-1.6,0.5c-0.4,0-1.1,0-1.7-0.5
		c-0.4-0.3-0.7-0.9-0.7-2V57.2z"/>
	<path fill="#6E7070" d="M70.7,59.7c0,0.6,0.1,0.8,0.3,0.8c0.1,0,0.3,0.1,0.4,0.1c0.1,0,0.1,0,0.1,0.1c0,0.1-0.1,0.1-0.2,0.1
		c-0.5,0-0.8,0-1,0c-0.1,0-0.4,0-0.8,0c-0.1,0-0.2,0-0.2-0.1c0,0,0.1-0.1,0.1-0.1c0.1,0,0.2,0,0.3,0c0.2-0.1,0.2-0.3,0.2-0.9
		l0.1-4.4c0-0.1,0-0.3,0.1-0.3c0.1,0,0.2,0.1,0.3,0.2c0.1,0.1,1.2,1.3,2.3,2.4c0.5,0.5,1.5,1.6,1.6,1.7h0l-0.1-3.3
		c0-0.5-0.1-0.6-0.3-0.7c-0.1,0-0.3,0-0.4,0c-0.1,0-0.1,0-0.1-0.1c0-0.1,0.1-0.1,0.2-0.1c0.4,0,0.8,0,0.9,0c0.1,0,0.4,0,0.7,0
		c0.1,0,0.2,0,0.2,0.1c0,0,0,0.1-0.1,0.1c-0.1,0-0.1,0-0.2,0c-0.2,0.1-0.3,0.2-0.3,0.6L75,60.5c0,0.2-0.1,0.2-0.1,0.2
		c-0.1,0-0.2-0.1-0.3-0.2c-0.5-0.5-1.4-1.4-2.2-2.2c-0.8-0.8-1.6-1.7-1.7-1.9h0L70.7,59.7z"/>
	<path fill="#6E7070" d="M77.3,57.2c0-1.1,0-1.3,0-1.6c0-0.3-0.1-0.3-0.3-0.4c-0.1,0-0.2,0-0.3,0c-0.1,0-0.1,0-0.1-0.1
		c0,0,0.1-0.1,0.2-0.1c0.3,0,0.8,0,1,0c0.2,0,0.7,0,0.9,0c0.1,0,0.2,0,0.2,0.1c0,0.1,0,0.1-0.1,0.1c-0.1,0-0.1,0-0.2,0
		c-0.2,0-0.3,0.1-0.3,0.4c0,0.2,0,0.4,0,1.6v1.3c0,0.7,0,1.3,0,1.6c0,0.2,0.1,0.3,0.3,0.4c0.1,0,0.3,0,0.4,0c0.1,0,0.1,0,0.1,0.1
		c0,0.1-0.1,0.1-0.1,0.1c-0.5,0-1,0-1.2,0c-0.2,0-0.7,0-1,0c-0.1,0-0.1,0-0.1-0.1c0,0,0-0.1,0.1-0.1c0.1,0,0.2,0,0.3,0
		c0.1,0,0.2-0.1,0.2-0.4c0-0.3,0-0.9,0-1.6V57.2z"/>
	<path fill="#6E7070" d="M80,55.7c-0.2-0.4-0.3-0.5-0.5-0.6c-0.1,0-0.2,0-0.3,0c-0.1,0-0.1,0-0.1-0.1c0-0.1,0.1-0.1,0.2-0.1
		c0.4,0,0.8,0,1.1,0c0.2,0,0.6,0,0.9,0c0.1,0,0.2,0,0.2,0.1c0,0.1-0.1,0.1-0.1,0.1c-0.1,0-0.2,0-0.3,0.1c0,0-0.1,0.1-0.1,0.1
		c0,0.1,0.1,0.3,0.2,0.6l1.2,3.4h0c0.3-0.8,1.3-3.2,1.4-3.7c0-0.1,0.1-0.2,0.1-0.3c0-0.1,0-0.1-0.1-0.1c-0.1,0-0.2,0-0.3,0
		c-0.1,0-0.1,0-0.1-0.1c0-0.1,0.1-0.1,0.2-0.1c0.4,0,0.7,0,0.8,0c0.1,0,0.5,0,0.7,0c0.1,0,0.2,0,0.2,0.1c0,0.1,0,0.1-0.1,0.1
		c-0.1,0-0.2,0-0.4,0.1c-0.1,0.1-0.2,0.2-0.4,0.7c-0.3,0.7-0.5,1.1-0.9,2c-0.5,1.1-0.8,1.9-1,2.3c-0.2,0.4-0.3,0.5-0.4,0.5
		c-0.1,0-0.2-0.1-0.3-0.4L80,55.7z"/>
	<path fill="#6E7070" d="M86.1,57.2c0-1.1,0-1.3,0-1.6c0-0.3-0.1-0.3-0.3-0.4c-0.1,0-0.2,0-0.3,0c-0.1,0-0.1,0-0.1-0.1
		c0-0.1,0.1-0.1,0.2-0.1c0.4,0,0.9,0,1.1,0c0.2,0,1.9,0,2,0c0.1,0,0.3,0,0.3,0c0,0,0.1,0,0.1,0c0,0,0.1,0,0.1,0.1
		c0,0.1,0,0.1-0.1,0.5c0,0.1,0,0.4,0,0.5c0,0,0,0.1-0.1,0.1c-0.1,0-0.1,0-0.1-0.1c0,0,0-0.2-0.1-0.3c-0.1-0.1-0.1-0.2-0.5-0.3
		c-0.1,0-1,0-1.2,0c0,0-0.1,0-0.1,0.1v1.9c0,0,0,0.1,0.1,0.1c0.2,0,1.1,0,1.3,0c0.2,0,0.3,0,0.4-0.1c0.1-0.1,0.1-0.1,0.1-0.1
		c0,0,0.1,0,0.1,0.1c0,0,0,0.2-0.1,0.5c0,0.1,0,0.4,0,0.5c0,0.1,0,0.2-0.1,0.2c-0.1,0-0.1,0-0.1-0.1c0-0.1,0-0.2,0-0.3
		c0-0.1-0.1-0.3-0.4-0.3c-0.1,0-1,0-1.2,0c0,0,0,0,0,0.1v0.6c0,0.3,0,0.9,0,1.1c0,0.5,0.2,0.6,1,0.6c0.2,0,0.5,0,0.7-0.1
		c0.2-0.1,0.3-0.2,0.3-0.6c0-0.1,0-0.1,0.1-0.1c0.1,0,0.1,0.1,0.1,0.2c0,0.2-0.1,0.7-0.1,0.8c0,0.2-0.1,0.2-0.4,0.2
		c-0.6,0-1,0-1.4,0c-0.4,0-0.6,0-0.9,0c-0.1,0-0.2,0-0.4,0c-0.2,0-0.4,0-0.5,0c-0.1,0-0.1,0-0.1-0.1c0,0,0-0.1,0.1-0.1
		c0.1,0,0.2,0,0.3,0c0.2,0,0.2-0.2,0.2-0.4c0-0.3,0-0.9,0-1.6V57.2z"/>
	<path fill="#6E7070" d="M91.7,57.8c0,0.1,0,0.1,0.1,0.1c0.2,0.1,0.4,0.1,0.6,0.1c0.3,0,0.4,0,0.5-0.1c0.2-0.2,0.5-0.5,0.5-1.1
		c0-1.1-0.7-1.3-1.1-1.3c-0.2,0-0.4,0-0.4,0c-0.1,0-0.1,0-0.1,0.1V57.8z M90.7,57.2c0-1.1,0-1.3,0-1.6c0-0.3-0.1-0.3-0.3-0.4
		c-0.1,0-0.2,0-0.3,0c-0.1,0-0.1,0-0.1-0.1C90,55,90,55,90.1,55c0.4,0,0.9,0,1,0c0.3,0,0.9,0,1.1,0c0.5,0,1,0,1.4,0.3
		c0.2,0.1,0.5,0.5,0.5,1c0,0.6-0.3,1.1-1,1.7c0.7,0.8,1.2,1.5,1.6,2c0.4,0.4,0.7,0.5,0.8,0.5c0.1,0,0.1,0,0.2,0c0.1,0,0.1,0,0.1,0.1
		c0,0.1,0,0.1-0.1,0.1H95c-0.4,0-0.6,0-0.8-0.1c-0.3-0.2-0.6-0.5-1-1.1c-0.3-0.4-0.6-0.9-0.7-1c0,0-0.1-0.1-0.1-0.1l-0.7,0
		c0,0-0.1,0-0.1,0.1v0.1c0,0.7,0,1.3,0,1.6c0,0.2,0.1,0.4,0.3,0.4c0.1,0,0.3,0,0.4,0c0.1,0,0.1,0,0.1,0.1c0,0.1-0.1,0.1-0.2,0.1
		c-0.4,0-1,0-1.1,0c-0.1,0-0.6,0-0.9,0c-0.1,0-0.1,0-0.1-0.1c0,0,0-0.1,0.1-0.1c0.1,0,0.2,0,0.3,0c0.2,0,0.2-0.2,0.2-0.4
		c0-0.3,0-0.9,0-1.6V57.2z"/>
	<path fill="#6E7070" d="M95.9,60.6c-0.1,0-0.1-0.1-0.1-0.3c0-0.4,0-0.9,0-1c0-0.1,0-0.2,0.1-0.2c0.1,0,0.1,0.1,0.1,0.1
		c0,0.1,0,0.3,0.1,0.4c0.2,0.6,0.7,0.7,1.2,0.7c0.6,0,1-0.4,1-1c0-0.3-0.1-0.7-0.7-1.1l-0.4-0.3c-0.9-0.5-1.2-1-1.2-1.7
		c0-0.9,0.8-1.5,1.9-1.5c0.5,0,0.9,0.1,1,0.1c0.1,0,0.1,0,0.1,0.1c0,0.1,0,0.3,0,0.9c0,0.2,0,0.2-0.1,0.2c0,0-0.1,0-0.1-0.1
		c0-0.1,0-0.3-0.2-0.5c-0.1-0.1-0.3-0.4-0.8-0.4c-0.5,0-1,0.3-1,0.8c0,0.3,0.1,0.6,0.8,1l0.3,0.2c1,0.6,1.3,1.1,1.3,1.8
		c0,0.6-0.2,1-0.7,1.4c-0.4,0.3-0.8,0.3-1.2,0.3C96.7,60.8,96.3,60.7,95.9,60.6"/>
	<path fill="#6E7070" d="M100.7,57.2c0-1.1,0-1.3,0-1.6c0-0.3-0.1-0.3-0.3-0.4c-0.1,0-0.2,0-0.3,0c-0.1,0-0.1,0-0.1-0.1
		c0,0,0.1-0.1,0.2-0.1c0.3,0,0.8,0,1,0c0.2,0,0.7,0,0.9,0c0.1,0,0.1,0,0.1,0.1c0,0.1,0,0.1-0.1,0.1c-0.1,0-0.1,0-0.2,0
		c-0.2,0-0.3,0.1-0.3,0.4c0,0.2,0,0.4,0,1.6v1.3c0,0.7,0,1.3,0,1.6c0,0.2,0.1,0.3,0.3,0.4c0.1,0,0.3,0,0.4,0c0.1,0,0.1,0,0.1,0.1
		c0,0.1-0.1,0.1-0.1,0.1c-0.5,0-1,0-1.2,0c-0.2,0-0.7,0-1,0c-0.1,0-0.1,0-0.1-0.1c0,0,0-0.1,0.1-0.1c0.1,0,0.2,0,0.3,0
		c0.2,0,0.2-0.1,0.2-0.4c0-0.3,0-0.9,0-1.6V57.2z"/>
	<path fill="#6E7070" d="M105.1,55.5l-1.1,0c-0.4,0-0.6,0.1-0.7,0.2c-0.1,0.1-0.1,0.2-0.1,0.3c0,0.1,0,0.1-0.1,0.1s-0.1,0-0.1-0.1
		c0-0.1,0.1-0.8,0.2-0.9c0-0.1,0-0.1,0.1-0.1c0.1,0,0.1,0.1,0.3,0.1c0.2,0,0.5,0,0.7,0h3c0.2,0,0.4,0,0.5,0c0.1,0,0.2,0,0.2,0
		c0.1,0,0.1,0,0.1,0.2c0,0.2,0,0.7,0,0.9c0,0.1,0,0.1-0.1,0.1c-0.1,0-0.1,0-0.1-0.1l0-0.1c0-0.2-0.2-0.4-0.9-0.4l-0.9,0v3
		c0,0.7,0,1.3,0,1.6c0,0.2,0.1,0.4,0.3,0.4c0.1,0,0.3,0,0.4,0c0.1,0,0.1,0,0.1,0.1c0,0.1-0.1,0.1-0.1,0.1c-0.5,0-1,0-1.2,0
		c-0.2,0-0.7,0-1,0c-0.1,0-0.1,0-0.1-0.1c0,0,0-0.1,0.1-0.1c0.1,0,0.2,0,0.3,0c0.1,0,0.2-0.2,0.2-0.4c0-0.3,0-0.9,0-1.6V55.5z"/>
	<path fill="#6E7070" d="M110.3,58.7c0-0.4-0.1-0.6-0.2-0.8c0-0.1-1.1-1.8-1.3-2.2c-0.2-0.3-0.3-0.4-0.5-0.5c-0.1,0-0.2-0.1-0.3-0.1
		c-0.1,0-0.1,0-0.1-0.1c0-0.1,0.1-0.1,0.1-0.1c0.1,0,0.7,0,0.9,0c0.2,0,0.5,0,0.8,0c0.1,0,0.1,0,0.1,0.1c0,0.1,0,0.1-0.2,0.1
		c-0.1,0-0.1,0.1-0.1,0.1c0,0.1,0,0.1,0.1,0.3c0.1,0.2,1.1,2,1.2,2.2c0.1-0.2,1-1.8,1.1-2c0.1-0.2,0.1-0.3,0.1-0.4
		c0-0.1,0-0.1-0.2-0.2c-0.1,0-0.1,0-0.1-0.1c0-0.1,0-0.1,0.1-0.1c0.2,0,0.5,0,0.7,0c0.2,0,0.6,0,0.8,0c0.1,0,0.1,0,0.1,0.1
		c0,0.1-0.1,0.1-0.1,0.1c-0.1,0-0.2,0-0.3,0.1c-0.2,0.1-0.2,0.1-0.4,0.4c-0.2,0.3-1.3,2.1-1.4,2.4c-0.1,0.3-0.1,0.5-0.1,0.8v0.6
		c0,0.1,0,0.4,0,0.7c0,0.2,0.1,0.4,0.3,0.4c0.1,0,0.3,0,0.4,0c0.1,0,0.1,0,0.1,0.1c0,0.1-0.1,0.1-0.2,0.1c-0.5,0-1,0-1.2,0
		c-0.2,0-0.7,0-1,0c-0.1,0-0.2,0-0.2-0.1c0,0,0-0.1,0.1-0.1c0.1,0,0.2,0,0.3,0c0.1,0,0.2-0.2,0.2-0.4c0-0.3,0-0.6,0-0.7V58.7z"/>
	<path fill="#6E7070" d="M121.1,58c0-1.7-0.9-2.7-2.1-2.7c-0.8,0-1.8,0.5-1.8,2.3c0,1.5,0.8,2.8,2.2,2.8
		C120,60.4,121.1,60.1,121.1,58 M116.1,57.8c0-1.3,0.9-2.9,3.1-2.9c1.9,0,3,1.1,3,2.8c0,1.7-1.2,3.1-3.1,3.1
		C117,60.8,116.1,59.2,116.1,57.8"/>
	<path fill="#6E7070" d="M124.6,58.5c0,0.7,0,1.3,0,1.6c0,0.2,0.1,0.4,0.3,0.4c0.1,0,0.3,0,0.4,0c0.1,0,0.1,0,0.1,0.1
		c0,0-0.1,0.1-0.2,0.1c-0.5,0-1,0-1.2,0c-0.2,0-0.7,0-0.9,0c-0.1,0-0.1,0-0.1-0.1c0,0,0-0.1,0.1-0.1c0.1,0,0.2,0,0.3,0
		c0.2,0,0.2-0.2,0.2-0.4c0-0.3,0-0.9,0-1.6v-1.3c0-1.1,0-1.3,0-1.6c0-0.3-0.1-0.3-0.3-0.4c-0.1,0-0.2,0-0.3,0c-0.1,0-0.1,0-0.1-0.1
		c0-0.1,0.1-0.1,0.2-0.1c0.4,0,0.8,0,1.1,0c0.3,0,1.9,0,2.1,0c0.1,0,0.2,0,0.3,0c0,0,0.1,0,0.1,0c0,0,0.1,0,0.1,0.1
		c0,0.1,0,0.1-0.1,0.3c0,0.1,0,0.5,0,0.6c0,0.1,0,0.2-0.1,0.2c-0.1,0-0.1,0-0.1-0.1c0-0.1,0-0.2,0-0.3c0-0.1-0.2-0.2-0.5-0.2l-1.2,0
		c0,0-0.1,0-0.1,0.1v1.8c0,0,0,0.1,0.1,0.1l1,0c0.1,0,0.2,0,0.3,0c0.1,0,0.2,0,0.3-0.1c0,0,0.1-0.1,0.1-0.1c0,0,0,0,0,0.1
		c0,0,0,0.2-0.1,0.5c0,0.1,0,0.5,0,0.5c0,0.1,0,0.2-0.1,0.2c0,0-0.1-0.1-0.1-0.1c0,0,0-0.1,0-0.2c0-0.1-0.1-0.3-0.4-0.3
		c-0.2,0-1.1,0-1.2,0c0,0-0.1,0-0.1,0.1V58.5z"/>
	<path fill="#6E7070" d="M134.7,57.4C134.7,57.4,134.8,57.4,134.7,57.4l0-0.2c0-1.1,0-1.4,0-1.6c0-0.3-0.1-0.3-0.3-0.4
		c-0.1,0-0.2,0-0.3,0c-0.1,0-0.1,0-0.1-0.1c0-0.1,0.1-0.1,0.2-0.1c0.4,0,0.9,0,1.1,0c0.2,0,0.7,0,0.9,0c0.1,0,0.2,0,0.2,0.1
		c0,0.1,0,0.1-0.1,0.1c-0.1,0-0.1,0-0.2,0c-0.2,0-0.3,0.1-0.3,0.4c0,0.2,0,0.4,0,1.6v1.3c0,0.7,0,1.3,0,1.6c0,0.2,0.1,0.4,0.3,0.4
		c0.1,0,0.3,0,0.4,0c0.1,0,0.1,0,0.1,0.1c0,0-0.1,0.1-0.2,0.1c-0.5,0-1,0-1.2,0c-0.2,0-0.7,0-1,0c-0.1,0-0.2,0-0.2-0.1
		c0,0,0-0.1,0.1-0.1c0.1,0,0.2,0,0.3,0c0.2,0,0.2-0.2,0.2-0.4c0-0.3,0-0.9,0-1.6v-0.6c0,0,0,0,0,0h-2.8c0,0,0,0,0,0v0.6
		c0,0.7,0,1.3,0,1.6c0,0.2,0.1,0.4,0.3,0.4c0.1,0,0.3,0,0.4,0c0.1,0,0.1,0,0.1,0.1c0,0-0.1,0.1-0.2,0.1c-0.5,0-1,0-1.2,0
		c-0.2,0-0.7,0-0.9,0c-0.1,0-0.1,0-0.1-0.1c0,0,0-0.1,0.1-0.1c0.1,0,0.2,0,0.3,0c0.2,0,0.2-0.2,0.2-0.4c0-0.3,0-0.9,0-1.6v-1.3
		c0-1.1,0-1.3,0-1.6c0-0.3-0.1-0.3-0.3-0.4c-0.1,0-0.2,0-0.3,0c-0.1,0-0.1,0-0.1-0.1c0-0.1,0.1-0.1,0.2-0.1c0.4,0,0.9,0,1.1,0
		c0.2,0,0.7,0,1,0c0.1,0,0.2,0,0.2,0.1c0,0.1,0,0.1-0.1,0.1c-0.1,0-0.1,0-0.2,0c-0.2,0-0.3,0.1-0.3,0.4c0,0.2,0,0.5,0,1.6v0.2
		c0,0,0,0.1,0,0.1H134.7z"/>
	<path fill="#6E7070" d="M140.1,58.4C140.1,58.4,140.1,58.4,140.1,58.4l-0.7-1.9c0,0,0-0.1,0-0.1c0,0,0,0,0,0.1l-0.7,1.9
		c0,0,0,0.1,0,0.1H140.1z M138.5,58.8C138.4,58.8,138.4,58.8,138.5,58.8l-0.5,1.1c-0.1,0.2-0.1,0.4-0.1,0.5c0,0.1,0.1,0.2,0.3,0.2
		h0.1c0.1,0,0.1,0,0.1,0.1c0,0.1,0,0.1-0.1,0.1c-0.2,0-0.6,0-0.8,0c-0.1,0-0.5,0-0.9,0c-0.1,0-0.1,0-0.1-0.1c0,0,0-0.1,0.1-0.1
		c0.1,0,0.2,0,0.2,0c0.3-0.1,0.5-0.3,0.6-0.7l1.9-4.7c0.1-0.2,0.1-0.3,0.2-0.3c0.1,0,0.1,0.1,0.2,0.2c0.2,0.4,1.4,3.5,1.9,4.6
		c0.3,0.7,0.5,0.8,0.6,0.8c0.1,0,0.2,0,0.3,0c0.1,0,0.1,0,0.1,0.1c0,0.1,0,0.1-0.3,0.1c-0.3,0-0.8,0-1.4,0c-0.1,0-0.2,0-0.2-0.1
		c0,0,0-0.1,0.1-0.1c0,0,0.1-0.1,0.1-0.2l-0.6-1.5c0,0,0-0.1-0.1-0.1H138.5z"/>
	<path fill="#6E7070" d="M142.4,55.7c-0.1-0.3-0.2-0.5-0.3-0.5c-0.1-0.1-0.2-0.1-0.3-0.1c-0.1,0-0.1,0-0.1-0.1
		c0-0.1,0.1-0.1,0.2-0.1c0.4,0,0.8,0,0.9,0c0.1,0,0.4,0,0.9,0c0.1,0,0.2,0,0.2,0.1c0,0.1-0.1,0.1-0.1,0.1c-0.1,0-0.1,0-0.2,0
		c-0.1,0-0.1,0.1-0.1,0.1c0,0.1,0.1,0.3,0.2,0.7c0.1,0.5,0.8,2.8,0.9,3.1h0l1.4-3.8c0.1-0.2,0.2-0.3,0.2-0.3c0.1,0,0.2,0.1,0.2,0.4
		l1.5,3.7h0c0.1-0.4,0.7-2.4,1-3.3c0-0.2,0.1-0.3,0.1-0.4c0-0.1-0.1-0.2-0.4-0.2c-0.1,0-0.1,0-0.1-0.1c0-0.1,0.1-0.1,0.2-0.1
		c0.4,0,0.7,0,0.8,0c0,0,0.4,0,0.6,0c0.1,0,0.1,0,0.1,0.1c0,0.1,0,0.1-0.1,0.1c-0.1,0-0.2,0-0.3,0c-0.2,0.1-0.3,0.4-0.4,0.8
		c-0.3,0.9-1.1,3.3-1.5,4.4c-0.1,0.3-0.1,0.4-0.2,0.4c-0.1,0-0.1-0.1-0.3-0.4l-1.5-3.7h0c-0.1,0.3-1.1,3-1.4,3.7
		c-0.1,0.3-0.2,0.4-0.3,0.4c-0.1,0-0.1-0.1-0.2-0.3L142.4,55.7z"/>
	<path fill="#6E7070" d="M152.7,58.4C152.7,58.4,152.7,58.4,152.7,58.4l-0.7-1.9c0,0,0-0.1,0-0.1c0,0,0,0,0,0.1l-0.7,1.9
		c0,0,0,0.1,0,0.1H152.7z M151.1,58.8C151.1,58.8,151.1,58.8,151.1,58.8l-0.5,1.1c-0.1,0.2-0.1,0.4-0.1,0.5c0,0.1,0.1,0.2,0.3,0.2
		h0.1c0.1,0,0.1,0,0.1,0.1c0,0.1,0,0.1-0.1,0.1c-0.2,0-0.6,0-0.8,0c-0.1,0-0.5,0-0.9,0c-0.1,0-0.1,0-0.1-0.1c0,0,0-0.1,0.1-0.1
		c0.1,0,0.2,0,0.2,0c0.3-0.1,0.5-0.3,0.6-0.7l1.9-4.7c0.1-0.2,0.1-0.3,0.2-0.3c0.1,0,0.1,0.1,0.2,0.2c0.2,0.4,1.4,3.5,1.9,4.6
		c0.3,0.7,0.5,0.8,0.6,0.8c0.1,0,0.2,0,0.3,0c0.1,0,0.1,0,0.1,0.1c0,0.1,0,0.1-0.3,0.1c-0.3,0-0.8,0-1.4,0c-0.1,0-0.2,0-0.2-0.1
		c0,0,0-0.1,0.1-0.1c0,0,0.1-0.1,0.1-0.2l-0.6-1.5c0,0,0-0.1-0.1-0.1H151.1z"/>
	<path fill="#6E7070" d="M156.1,57.2c0-1.1,0-1.3,0-1.6c0-0.3-0.1-0.3-0.2-0.4c-0.1,0-0.2,0-0.3,0c-0.1,0-0.1,0-0.1-0.1
		c0,0,0.1-0.1,0.2-0.1c0.3,0,0.8,0,1,0c0.2,0,0.7,0,0.9,0c0.1,0,0.2,0,0.2,0.1c0,0.1,0,0.1-0.1,0.1c-0.1,0-0.1,0-0.2,0
		c-0.2,0-0.3,0.1-0.3,0.4c0,0.2,0,0.4,0,1.6v1.3c0,0.7,0,1.3,0,1.6c0,0.2,0.1,0.3,0.3,0.4c0.1,0,0.3,0,0.4,0c0.1,0,0.1,0,0.1,0.1
		c0,0.1-0.1,0.1-0.1,0.1c-0.5,0-1,0-1.2,0c-0.2,0-0.7,0-1,0c-0.1,0-0.1,0-0.1-0.1c0,0,0-0.1,0.1-0.1c0.1,0,0.2,0,0.3,0
		c0.1,0,0.2-0.1,0.2-0.4c0-0.3,0-0.9,0-1.6V57.2z"/>
	<path fill="#6E7070" d="M159.6,55.6c0.1,0.1,0.1,0.1,0.1,0.2c0,0,0,0.1-0.1,0.1c-0.2,0-0.5-0.1-0.7-0.2c-0.2-0.1-0.2-0.1-0.2-0.3
		c0-0.5,0.5-1.5,0.9-1.9c0.1-0.1,0.1-0.1,0.1-0.1c0,0,0,0,0,0.1c0,0,0,0,0,0.1c-0.2,0.3-0.3,0.8-0.3,1.4
		C159.4,55.2,159.5,55.5,159.6,55.6"/>
	<path fill="#6E7070" d="M161.3,57.2c0-1.1,0-1.3,0-1.6c0-0.3-0.1-0.3-0.3-0.4c-0.1,0-0.2,0-0.3,0c-0.1,0-0.1,0-0.1-0.1
		c0,0,0.1-0.1,0.2-0.1c0.3,0,0.8,0,1,0c0.2,0,0.7,0,0.9,0c0.1,0,0.2,0,0.2,0.1c0,0.1,0,0.1-0.1,0.1c-0.1,0-0.1,0-0.2,0
		c-0.2,0-0.3,0.1-0.3,0.4c0,0.2,0,0.4,0,1.6v1.3c0,0.7,0,1.3,0,1.6c0,0.2,0.1,0.3,0.3,0.4c0.1,0,0.3,0,0.4,0c0.1,0,0.1,0,0.1,0.1
		c0,0.1-0.1,0.1-0.1,0.1c-0.5,0-1,0-1.2,0c-0.2,0-0.7,0-1,0c-0.1,0-0.1,0-0.1-0.1c0,0,0-0.1,0.1-0.1c0.1,0,0.2,0,0.3,0
		c0.2,0,0.2-0.1,0.2-0.4c0-0.3,0-0.9,0-1.6V57.2z"/>
</g>
</svg>
