<?xml version="1.0" encoding="utf-8"?>
<!-- Generator: Adobe Illustrator 18.1.1, SVG Export Plug-In . SVG Version: 6.00 Build 0)  -->
<svg version="1.1" id="Layer_1" xmlns="http://www.w3.org/2000/svg" xmlns:xlink="http://www.w3.org/1999/xlink" x="0px" y="0px"
	 viewBox="0 0 1200 1000" enable-background="new 0 0 1200 1000" xml:space="preserve">
<g id="Hawaii">
	<path stroke="#FFFFFF" stroke-miterlimit="10" d="M430.9,848.5l-4.8-3.5l-0.4-5.9l0.7-3l-1.8-6.5l-2.7-2.3l-0.3-4l3.1-1.3l2.4-3.5
		l0.3-0.7l-1.8-2l-0.4-3.2l2.7-2.1l4.5,2.1l9.3,4.4l4.4,2.7l2.1,3.1l2.4,5.2l5.2,3.4l-0.6,2.3l-5.1,4.2l-5.5,2l-1.7-0.7l-3.4,2
		l-2.8,3.8l-3,4L430.9,848.5z M411,802.5l-6.3-8.6l3.5-4.5l6.2,3.2l5.4,1.4l5.8,3.7v3.2l-4.8,2.4l-6.3,1.3L411,802.5z M396.3,795.4
		v-2.5l5.6,0.4l2.4,3.1l-0.6,2.7l-4.8,1.7L396.3,795.4z M397.2,791.6l-7.8-2.3l2.4-3.5l5.9,1.3l0.7-0.6l8.6,0.8l-0.7,2.7l-3.7,2
		L397.2,791.6z M374.6,784.6l-1.1,0.4l-3.5,0.4l-4.9-7.3l1-2.8l8-4l3,4.9l2.3,4.4l4.1,2.4l-1.8,2.7l-5.2,0.3L374.6,784.6z
		 M314.5,771l3.1-5.8l3.7-0.6l0.7,1.8l-3,4.4h-4.5L314.5,771L314.5,771z M327.3,766.2l1.4-5.5l5.5-2.4l5.9,0.7l1,4.9l-2.3,5.4
		l-3.1,0.4L327.3,766.2z"/>
</g>
<g id="Alaska">
	<path stroke="#FFFFFF" stroke-miterlimit="10" d="M276.5,856.3c-0.1,0-1.1-0.6-1.8-1.4c-0.6-0.8-2.5-4.1-2.7-4.2l-0.7-1.6
		c-0.3,0.1-0.6,0.4-0.8,0.4c-0.1,0-0.4,0-0.6-0.1c-1-0.4-1.8-1.8-1.8-2.1l-0.3-0.4l2.1-2.3l-1.6-1.6v-4.7l-0.7,2.8l-2.4,1l-1.4-5.4
		l-0.1-0.7l0.1,2.4v3l-3.1-2.7l-4.2-7.2l-2.7-0.6L253,826l-1.8-3.4l-2.1-1.6v-3.5l0.6-0.3l-1.1,0.3l-4.5-3.2l-3.1-3.5l-5.8-3.1
		l-5.5-3.5l1.7-4.4v-0.3l-1.1,1l-4,1.6l-4.8-1.4l-6.9-3h-6.3l-1,0.7l-8.2-4.9l-2.8-0.3l0.1,0.1l-4.5,2.7l-0.6-4.4l3.2-1.7l0.8,1.6
		l-2.5-5.5l-3.8,0.3l-3.8,1.6l0.3,2.1l0.6-1.6l2.5,0.8l-1.3,3.7l2.8-2.4l1.3,3.2l-5.4,5.9l-2.4-0.6l-0.6-2.5l-0.8-0.6l-1.6,1.4
		l-3.4-2.3l-3.2,2.3l-2.3,2.5l-4.4,2.7l-6.5-0.3l-0.8-3.8l4.7-0.8v-0.4l-3-0.8l1.4-3.7l2.7-4.7v-2l0.3-1.4l6.2-3.2l1.3,1.8h1.8
		l-0.8-1.8l-4-0.3l-5.8,3.2l-2.8,4.1l-2.1,3.1l-1.4,3l-5.4,1.8l-3.5,3l-0.3,1.1l2.5,1.1l1.3,3.2l-3.7,4.4l-8,5.2l-9.6,5.2l-2.7,1.4
		l-6.6,1.4l-5.2,2.3l1.8,1.3l-2.3,2.3L116,830l-3.8-1.4l-3.4,0.1l-1,2.8h-2.5l0.3-2.7l-3.2,1.1l-2,0.7l2.5,2.3l3,0.4l-1.6,3.7h-4.5
		l1.3-2.5l-1.8,1.4l-3-3.7l2.3-1l-4-1.6l-3.4,2.3h-4l-2.4,1.4l-2.3,1.1l-2.8-0.4l-3-1.3l-2.4,0.7l-1.4,1.4l-2.8-2v-3.2l4.4-1.8
		l7.8,0.8l5.1-1.8l2.7-2.7l3.7-0.8l2.3-1l3.8,0.3l1.8,1.6l0.6-0.1l2.8-3.4l4-1.3l4.2-0.8l1.8-0.4l0.8,0.7h-0.1l1.6-4.4l5.1-1.8
		l2.3-4.4l2.8-5.6l1.8-1.7l0.1-1.1l-0.7,0.6l-4.9,1l-0.8-3.2l-0.8-0.1l-0.7,0.7l-0.3,4.1l-3-0.3l-1.6-6.3l-1,1l-2.1-1l-0.4-2.1
		l-4.2,0.1l-2.7,1.4l-4.8-0.6l2.7-2.7l0.6-2.8L104,787l2.4-1.6l0.8-0.1l-0.6-1.4v-5.2l-0.3-0.3l-0.7,1.3h-8.2l-2.1-2l-0.8-4.9
		l-2.5-4.4v-1.8l2.7-1l0.1-2.4l0.8-0.8l-1.7,0.7l-1.7-4.2l1.3-6.6L99,748l3.1-1.8l2.4-4.7l3.8-1.8l3.8,1.7l0.4,2.7l2.1-0.3l4.1-3.1
		l2.4,1l1.1,0.7h1.6l2.4-1.3l1-5.1c0.1-1.1,0.6-4,1.4-4.7c0.3-0.3,0.6-0.6,0.7-0.7l-0.8-1.4l-2.7,0.8l-4.2,1l-2.7-0.7l-4.2-2.1
		l-6.2-0.1l-4.8-5.1l0.7-5.1l0.7-2.7l-2.4-2l-2.7-5.1l1-1.7l8.7-0.6h3l0.8,0.8l-0.7-1.1l5.5-1l3.5,0.4l2.4,2l-2.1,3.1l-0.4,1.1
		l2.8,1.7l5.8,2l1.3-0.7l-2.4-4.8l-1.4-4.5l0.7-0.7l-3.5-2l-0.8-1.8l0.6-2.1l-1-4.5l-3.5-5.6l-3.4-5.8l4.2-2.8h4.2l2.1,0.8l4.8-0.1
		l4.2-4.1l1.4-3.8l5.1-3.4l2.1,1.3l3-0.7l4.7-2.5l1.8-0.3l1.3,1l4.9-0.1l3.4-3.8h2l4.7,3.1l2.7,3l-0.7,1.6l0.1,0.3l1.6-1.6l5.6,0.4
		l0.4,4.8l2,1.4l8.7,0.8l7.5,4.9l1.7-1.1l6.5,3.2l2.3-0.7l2.5-1.1l6.3,2.5l5.8,3.8l-0.4,104.7l1.6,0.8l3.4,0.1l1.8-1.4h4.1l0.3,4
		l8.5,8.3l0.4,2.4l3.4-2l0.4-0.1l0.4-3.5l2.1-2.4l1.4-0.1l2.7-2l4.4,3l0.8,3.5l2.3,1.4l1.4,3l4.8,2.1l4.2,7.5l3.4,4.7l2.8,3.4
		l1.7,4.4l5.8,2.1l6.8,2.7l1.3,5.6l0.6,4l-1.3,4.5l-2.7,3.4l-2.7-1.4l-1.8-3.8l-3.1-1.7l-1.7-1.1l-0.3,0.3l1.6,3.1l0.3,5.2l-2.3,1
		l-2.7-2.7l-1-0.6v0.1l1.8,2.5l-1.7,1.7L276.5,856.3z M35.8,838.8l5.2-3.5l4.4-1.3l3.8,0.4l0.6,2l1.6,0.4l1.8-1.8l-0.4-2.3l4.4-1
		l4.2,3.8l-1.8,3l-5.8,1.6l-3.5-0.6l-4.4-1.4l-5.1,1.7l-2.3,0.4L35.8,838.8z M128.7,834.4l3.2-2.7l1.6,3.7l-2,2.4L128.7,834.4z
		 M141.2,826.9l-1.6-7.9l1.8-1.7l6.1-3.7l5.6-4.4l5.4-3.8l-1.7,4l3,1l-0.8,2.7l-2.8,1.3l-0.6,3l2.3,3.4l-5.9,3.5l-6.3,3.7
		L141.2,826.9z M152.8,815.5l0.3-0.1l-1.6-0.7l-0.4,0.3L152.8,815.5z M83.4,774.9l-4.5-4.8l-0.3-4.5l5.5,1.1l4.8,1.3l1.4,1.7
		l-2.4,5.4L83.4,774.9z M52.1,751.7v-3.2h2.4L56,752l1.7,2.4l-2.5,1.8L52.1,751.7z M80.8,733.4l-2.3-5.2l-1.8-1.6h-3.4l-0.3-4.1
		l3.1-4.1l1.8,4l1.6,1.6l3.5,0.8l2.8,7.1l-0.3,2L80.8,733.4z"/>
</g>
<g id="Florida">
	<path stroke="#FFFFFF" stroke-miterlimit="10" d="M975.4,834l4.1-1.1l1.3-0.3l1.7-2.7l3.2-2.3l2,0.7l2.4,0.4l0.8,2.4l-4.9,1.7
		l-5.2,1.8l-3.2,1.7L975.4,834z M992.2,828.2l4-2.4l4.1-2.4l5.2-5.1l3.8-6.3l0.3-0.7l-1.7,2l-4.1,2l-4.7,0.1l-1.6,1.8l-3.4,1.4
		l-2-0.7l-1.7-1.4l-0.4-3.8l-1-4l-4-6.1l-4.1-2.5l-4.1-0.3l-1.3,2.1l-4.5-6.3l-0.8-4.4l-3-4.7l-1.6-1L964,788l-3-0.6l-2.7-6.3
		l-3.5-4.7l-3.7-6.6l-3.1-3.7l-4.8-4.9l3-3.5l3.8-6.5l-0.1-1.3l-4.8-1l-1,0.4l3.4,1.3l-2.1,6.5l-2,1.1l-2.5-5.6l-1.6-6.1l-0.4-3.7
		l1.8-5.8v-11.3l-3.7-4.4l-1.6-3.5l-6.1-1.6l-2.7-0.8l-2-3.2l-4.2-2l-1.4-4.1l-3.2-1.1l-3-4.5l-4.9-1.7l-3.5-1.7h-2.8l-4.2,0.8
		l-0.1,1.6l1.1,1.3l-1,2.3l-4-0.1l-4.4,4.2l-4.7,2.5h-4.8l-4.7,1.8l-0.4-4.1l-1.7-2.1l-3.5-1.4l-2-1.8l-9.7-4.7l-9.2-2.1l-5.2,0.7
		l-7.3,0.6l-7.2,2.5l-5.2,1l-0.3-10.3l-3-2.1l-2.5-2.5l0.4-4.7l13-1.7l31.3-3.5l8.3-0.8l7.1,0.4l3.4,5.1l1.6,1.6l9.6,0.6l39.5-2.4
		l6.6-0.8l6.9,0.3l0.6,3.7l1.4,0.6l0.3-4.5l-2-5.4l2.1-2.4l7.2,0.6l6.8,0.4l3,9.5l4.5,11.9l6.5,11.4l4.5,7.8l5.9,6.6l4.9,4.5
		l2.3,4.1l-1.7,2l-0.7,1.1l3.4,8.6l3.5,3.5l3.2,6.6l4.4,7.1l5.6,10.3l1.6,9.5l0.6,14.7l0.8,2.3l-0.4,4.7l-2.8,1.6l0.3,2.1l-0.8,2.4
		l0.4,2.8l0.1,0.4l1.3-3.8l2.3-1.6l-0.3,5.8l-1.3,2.3l-3.1,8.2l-4.7,4.8l-6.6,5.2l-3.8,3L992.2,828.2z"/>
</g>
<g id="New_Hampshire">
	<polygon stroke="#FFFFFF" stroke-miterlimit="10" points="1077.8,319.3 1078.5,316.6 1078.7,311.4 1077.5,309.8 1077.7,303.6 
		1078.7,292.3 1078.7,282 1077.4,279.9 1077.4,277.8 1080.8,276.4 1085,270.4 1085,265.9 1082.8,262.7 1082.3,255.5 1082.3,249 
		1084.7,245.7 1086.6,247.6 1087.1,246 1089.2,246 1095,264.4 1103.9,293 1104.3,296.1 1109,297.5 1109.7,301.2 1113.1,302.5 
		1111.4,307.3 1110.1,308.8 1105.7,310.8 1103.5,314.2 1100.5,315 1079.6,320.5 	"/>
</g>
<g id="Michigan">
	<path stroke="#FFFFFF" stroke-miterlimit="10" d="M885.4,350.6l-4-10.2l-2.8-11.3l-3.1-4.2l-3.7-2.5l-2.3,1.6l-5.1,2.3l-2.4,6.3
		l-3.2,4.4l-1,0.6l-1.4-0.6c-1.1-0.7-2.3-1.6-2.5-2c0.1-0.8,0.4-4.4,0.6-5.6l4.1-1.6l1.1-4.5l0.7-3l3.1-2.1l-0.4-12.8l-2.1-3.1
		l-1.6-1l-0.7-2l0.4-0.4l2.4,0.4l0.3-3.1l-3.1-3l-1.7-3.4h-3.5l-5.4-1.7l-6.8-4.2h-3.8l-0.7,0.7l-0.6-0.3l-4.1-3.1l-4.1,2.5l-3.8,3
		l0.4,5.2l1.7,0.6l2.3,0.6l-2.1,0.7l-3.4,0.4l-2.1,2.5l-0.4,2.8l0.4,2l0.4,6.3l-3.7,2.3v-4.4l1.6-2.8l1-3.4l-1.6-1.6l-3.1,1.3
		l-1.1,5.2l-3.2,1.3l-2.4,2.7l-0.3,1.7l0.7,1l-0.6,2.4l-3,0.6v2.1l1,3l-1.3,7.2l-2.1,5.1l0.8,6.1l0.6,1.3l-0.8,2.7l-0.4,1.1
		l-0.4,3.7l4.5,7.5l3.5,7.9l1.7,5.8l-1,5.6l-1.1,7.2l-3,6.3l-0.4,3.2l-5.2,4.8l7.3-0.3l26.2-2.8l8.2-1.1l0.1,2.1l9.2-1.6l12.6-1.8
		l5.2-0.6l0.3-1.3l0.1-1.7l2.4-4.4l2.7-2.3l-0.3-6.2l1.6-1.6l1.7-0.6l0.3-4.7l1.4-3l0.4,0.3l0.3,1l1,0.1l3-1.6L885.4,350.6z"/>
	<path stroke="#FFFFFF" stroke-miterlimit="10" d="M805.6,281.4l8.7-0.8l2.4-3.1l5.9-0.1l7.1,1.6h2.4l4-1.8l2.7,0.1l2.5-0.8l4.4,0.6
		l1.1,0.4l2.1-0.6l0.1,0.6l4.8,0.3l2-2v-0.3c-0.1-2.1-0.7-2.4-0.8-2.5c-0.3-0.1-1.1-1.3-1.8-2.1l-0.3-0.3l-3.1,0.3l-2.4,0.3
		l-0.7,2.4l1.4,0.7l0.3,1.3l-1.4-1l-1.6-0.7l-3.7-3.5v-8.7l-2.7-0.8l-1.6,1.6l-7.3,2l-2.3,0.6l-3.2-0.8l-0.1-0.1V257l-2.7-0.3
		l-3.4,1.7l-5.5,2.3l-8,0.4l-4.4,1.4l-4.9,4.4l-1.8,1.1h-1.4l-1.6,1l-1.6-0.4l-2.3-1.8l-2.1,1.4l-4.2,0.1l-3.1-3.1l-1.8-3.8l-2-1.6
		l-4.2-1.3H767l-1.8-1.8l-4.9,4.1l-0.8,1h-0.1l0.3-2.5l3-4l0.6-2.7l2.7-1l1.8-3.7l4.7-1.3l0.7-2l-2-2l-6.2,0.7l-5.5,3.1l-3,3l-1.4,2
		l-2.3,1l-2.5,3.8l-0.1,1.4l-5.1,2.4l-2.8,2.3l-7.3,1.1l-1.1,1.1v1l-4,2.5l-3.4,1l-1.6,1.3l5.1,7.1l9.9,1.4l10,2.7l3.5,1.3l14.7,3.2
		l2.5,2.8l4.1,1.6l2.4,12.6l1.8,1.4l2.3,2.1l4.4-9.6l1.1-4.8l2.3-5.1h0.1l1.3,2h1.8l5.2-2.8l1.6,1.7l1.1,0.4l2-1.8l1.3-3.7
		L805.6,281.4z"/>
</g>
<g id="Vermont">
	<polygon stroke="#FFFFFF" stroke-miterlimit="10" points="1064.8,316 1061.4,303.2 1060.9,303 1056.8,301.2 1057.9,297.2 
		1057.1,294.9 1053.7,289.1 1054.8,284.1 1054,278.1 1051,270.2 1049.9,263.4 1083.7,254.8 1084,262.1 1086.4,265.5 1086.4,270.9 
		1081.6,277.5 1078.8,278.8 1078.7,279.5 1080.4,281.3 1079.9,291.5 1079.2,302.9 1078.9,309.4 1080.1,310.9 1079.9,317 
		1079.4,318.6 1081.6,320.1 1070.9,322.4 1064.4,323.4 	"/>
</g>
<g id="Maine">
	<path stroke="#FFFFFF" stroke-miterlimit="10" d="M1108.4,302.5l-0.6-3.7l-4.8-1.4l-0.4-3.8l-8.9-28.6l-6.1-18.8l2.7-0.3l1.1,0.3
		v-2.4l1.7-5.6l3.2-5.8l1.6-4.5l-2.3-2.8v-7.9l1.1-1.3l0.8-3.1l-0.1-1.7l-0.1-6.2l2.3-6.1l3.5-10.9l2.8-5.6h2l2.3,0.3v1.8l1.3,2.4
		l2.7,0.6l0.6-0.6v-1.3l5.2-3.8l2.4-2.4l2.3,0.3l7.5,3l2.7,1.4l11,36.4h7.3l1.3,3l0.1,5.8l3.1,2.4h0.1l-0.8-2l4.7-0.3l2.5,2.8l3,4.8
		v2.7l-2.8,6.2l-2.5,0.8l-4.1,3.7l-6.1,6.9h-1.8c-0.1,0-0.4,0-0.6-0.1l0.6,1.3l-1.3,1.6c-0.1,1-0.3,2-0.3,2.1c0,0.3-0.1,0.8-1,1
		c-0.3,0-0.6,0-0.8,0c-0.3,0-0.4,0-0.4,0h-0.3l-2.7-2.8l1.6-2.7l-1.8,1.1l-0.7,1.1l2,1.8l-0.8,1.1l-0.7,3.8l-2.5-0.3l0.8,3.7
		l-3.1,1.7l-2.8-4.5l2.7-2.7l1.3,1v-1.8l-0.1-0.8l-1.7,0.4l-2.1-3.8l-1.3,0.7l1.1,1.3l0.6,1.8l-1,1.7l0.4,3.5l0.3,2.3l-2.3,3.7
		l-3.4,0.6l-0.4,3.4l-6.9,4l-2.1,0.8l-1.8-1.6l-3.1,3.5l1.3,4.1l-1.8,1.7l-0.1,5.1l-1.6,8.6L1108.4,302.5z M1146.1,256.3l2.1-0.7
		c0-0.1-0.1-0.3-0.1-0.6l-1.3,0.1L1146.1,256.3z"/>
</g>
<g id="Rhode_Island">
	<polygon stroke="#FFFFFF" stroke-miterlimit="10" points="1096.2,334.2 1104.8,331.5 1107.9,334.2 1112,339.6 1115.6,345.6 
		1111.1,348.2 1109.8,348 1108.6,349.9 1105.5,352.4 1101,353.8 	"/>
</g>
<g id="New_York">
	<polygon stroke="#FFFFFF" stroke-miterlimit="10" points="1065.4,382.9 1065.1,377.8 1065.7,374.4 1065.5,372.3 1062.6,370.5 
		1057.1,369.3 1052.3,367.9 1047.5,365.7 1046.2,364.6 1043.1,364.4 1040,361.7 1038,354.5 1034.1,354.5 1031.1,351.3 1007.7,356.6 
		955.1,367.4 945,368.9 943.9,359.9 946,358.3 947.6,356.9 948.7,355 951.1,353.5 953.2,351.6 953.8,349.6 956.5,346.1 957.6,345.1 
		957.5,344.4 956,341.1 953.9,340.8 951.3,332.4 955.3,329.8 960.7,328 965.6,326.5 969.7,325.9 977.8,325.6 980.2,327.2 
		981.7,327.4 984.1,325.9 987.5,324.5 993.7,323.9 996.1,321.9 998.2,318 1000.5,315.3 1003.2,315.3 1005,314.2 1005.1,312.1 
		1003.5,309.5 1003,307.4 1004.4,304.7 1004.4,303.9 1002.8,303.9 1000.4,302.8 999.1,301.1 998.9,297.2 1006.3,290.3 1007,289.5 
		1008.7,286 1012.3,280.3 1015.7,275.8 1018.3,272.7 1021.4,270.3 1025.3,268.7 1032.2,267.2 1036.2,267.3 1041.6,265.6 
		1051.7,262.8 1052.4,269.7 1055.4,277.6 1056.4,284.1 1055.2,288.8 1058.3,294 1059.5,297 1058.5,300.2 1061.6,301.5 1062.6,302 
		1066.5,316 1065.8,322.4 1065.3,335.5 1066.2,342.1 1067.2,346.5 1069.1,355.4 1069.1,365.5 1067.8,368.1 1069.8,370.2 1071,372.9 
		1068.5,375.1 1068.6,375.6 1069.5,375.4 1071,374 1073.9,370.8 1075.7,369.8 1077.8,370.6 1080.4,370.8 1089.8,366.2 1093.2,362.9 
		1095.2,360.7 1101.7,363.3 1096.9,368.5 1091.9,372 1083.2,378.7 1079.9,379.9 1072.7,382.3 1067.5,383.7 	"/>
</g>
<g id="Pennsylvania">
	<polygon stroke="#FFFFFF" stroke-miterlimit="10" points="937.4,406.2 934.3,394.3 930.7,370.3 936.3,366.4 937.8,365.8 
		945.3,358.6 946.2,367.4 956.3,365.7 1009,355 1031.5,349.7 1034.6,353.1 1039.2,353 1041.1,360.9 1043.7,363 1046.6,363.1 
		1048.6,364.6 1044.9,368.2 1044.9,371.9 1042.5,375.7 1042.4,377.2 1044,378.8 1043.8,382.5 1041.1,383.7 1042,386.6 1042.1,387.5 
		1045.4,387.8 1046.6,391.2 1050.9,394.2 1054.1,396.3 1054.1,398 1049.9,401.9 1048,404.6 1046.5,407.7 1043.4,409.4 1041.7,409.8 
		1039.3,410.5 1036.8,412.5 1036.3,412.9 1025.9,414.9 1007.7,418.3 961.3,427.8 946.6,429.6 941.9,430.6 	"/>
</g>
<g id="New_Jersey">
	<polygon stroke="#FFFFFF" stroke-miterlimit="10" points="1056.6,432.4 1056.2,428 1057.2,426.9 1057.1,425.9 1052.6,425.2 
		1046.5,422.4 1042.3,418.6 1040.8,415.5 1041.6,412.1 1041.8,410.7 1042.5,408.3 1045.4,406.7 1047.1,403.5 1049.2,400.7 
		1052.7,397.4 1052.7,397.1 1050,395.4 1045.4,392.3 1044.2,389.4 1040.8,389 1040.6,387 1039.4,383.2 1042.4,381.6 1042.5,379.4 
		1040.8,377.8 1041.1,375.4 1043.5,371.6 1043.5,367.8 1046.9,363.8 1051.7,366.1 1056.8,367.8 1063,369.2 1066.9,371.6 
		1067.1,374.4 1066.4,377.8 1066.8,381.9 1066.8,383.6 1064,386.3 1063.4,386.7 1065.8,386.4 1067.7,385 1070.2,390.1 1070.3,401.5 
		1071.2,403.1 1069.8,410.1 1066,418.2 1062.6,423.1 1061.6,429 1058.6,432.4 	"/>
</g>
<g id="Delaware">
	<polygon stroke="#FFFFFF" stroke-miterlimit="10" points="1043.1,437.2 1040.6,425.4 1037.7,418.4 1035.5,411.8 1038.7,409.3 
		1040.8,408.6 1044,407.9 1043.2,411 1042.8,413.7 1042.4,415.5 1043.2,417.6 1047.2,421.1 1049.6,425.6 1051.7,431.3 1055.5,433.8 
		1057.1,433.1 1060.3,443.7 1052,445.3 1045.2,445.5 	"/>
</g>
<g id="Maryland">
	<path stroke="#FFFFFF" stroke-miterlimit="10" d="M1040.8,459.6l-0.1-2.3l-1.7-3.7l1.7-0.4l-4-0.6l-3.5-4.7l0.4-4.8l1.7-1.3
		l-0.8-0.8l-1,1.8l-1.7,0.6l-0.6-5.8l2.5-1.1l-0.6-5.6l-2.1-0.4l-0.6-2l1.7-4.9l1.4-1.6l-1.6,1.3l-2.3,1.6c-0.1,0.7-0.4,1.7-0.4,2.1
		c0,0.7-0.8,2-1.6,2.7l1.3,1.3l0.3,3l-1.6,6.5l2.4,6.3l3.1,2.7v2.3l1.8,2.7l-1.6,3.4l-3.1-0.4l-3.8-1.1l-5.2,0.1l-6.6-1.8l-1-2.7v-3
		l2.3-3.2l1-4.8l1.3-2.5l-2.4-1.7l-1.7,2.4l-1.8-0.8l-7.2-1.7V433l-4.8-2l-1.6-2l-2.3-2l-3.5-1.7l-1.8-1.3l-1.8,0.4l-2.4,1.7
		l-3.2,2.7l-4,0.4l-1.3-0.6l-1.8,2.7l-2,2l-3,0.7l-5.2,6.1l-1.4,1.4l-1.4-8.3l-1.6-6.8l46.6-9.5l18.2-3.5l9.9-2.1l1.8,6.1l3.1,7.5
		l2.4,11.4l2.1,7.9l5.8-0.1l8-1.6l0.6,7.1l-2.7,5.4l-8.6,3.7l-2.1-0.8l-3.7-4.8l-0.8,0.4l1,3.2c0.4,1.6,1,3.5,1,4c0,0.1,0,0.7-1.3,2
		l-0.7,0.6L1040.8,459.6z"/>
</g>
<g id="Virgina">
	<path stroke="#FFFFFF" stroke-miterlimit="10" d="M904.4,514.5v-2.4l2-2.8l13.5-14.8l5.2,5.9l4.2,1.1l3-1.3l3-1.8l3.2,1.7l4.2-1.6
		l2.4-5.8l3.4,0.7l3.5-2.7l2.1,0.6l3.1-4l0.3-2.1l-1.3-1.7l1.4-2.7l6.3-15l0.8-7.3l2.4-1l2.8,3.1l4-0.3l2.4-9.2l3.5-0.7l1.3-3.1
		l3.2-3l3.2-6.8l0.1-7.1l12.6,4.9c0.3-1,0.4-3.4,0.6-5.4v-1l5.8,2.5l0.1,3.5l6.6,1.6l2.8,1.6l2.3,2.8l-0.8,4.9l-2.4,3.1l0.1,2.1
		l0.6,1.8l5.6,1.4h5.5l3.8,1.3l2.8,0.4l0.8,3.8l3.7,0.4l1.4,2l-0.6,5.6l1.7,1.4l-0.6,2.3l1.4,1l-0.4,2.8l-3.1-0.1v0.8l2.8,1.8
		l0.1,1.8l2.1,2.1l0.7,3.8l-2.7,1.4l1,0.8l7.2-2.1l5.2,8.7l-72.2,15.7l-46,6.5l-8.2-0.4l-3.1,2.4l-9.2,0.3l-10.2,1.1l-17.4,2.5
		L904.4,514.5z M1045.4,475.6l0.6-6.9l2-5.2l0.8-3.7l-0.1-2.8l9.6-3.8l-1.3,5.4l-3.5,4.7l-0.4,5.4l0.6,4.2l-2.4,6.5l-3.7,3.2
		L1045.4,475.6z"/>
</g>
<g id="West_Virginia">
	<path stroke="#FFFFFF" stroke-miterlimit="10" d="M924.4,501.8l-1.6-1.6l-2.7-3.7l-4-2.5l-2.1-4.5l-5.4-4.2l-0.7-2.7L905,481
		l-1.1-2.3l-0.3-7.3l3.2-0.1l1.8-0.7l0.1-3.2l2-1.8l0.1-5.9l1.3-5.1l2.3-1.1l2.1,1.8l0.4,1.6l1.1-0.6l0.4-1.4l-1.3-2.1v-3.4l1.3-1.8
		l2.8-4.1l2-2.1l2.7,0.6l2.4-1.7l3.7-4.1l2.7-4.5l0.4-6.8l0.6-6.2v-5.5l-1.4-4l1.4-2.1l2.7-2.7l4.4,25l4.9-0.8l15.9-2.3l1.6,6.6
		l1.1,5.9l1.7-2l3-4l3.1-0.7l1.7-1.7l2.4-3.5l2.1,1l3.1-0.3l3-2.4l2.5-1.8l2.7-0.7l1.8,1.4l4.4,2.3l2.4,2.3l2,1.8l-1.1,8l-8-3.5
		l-4.2-1.6l-0.1,5.5l-3.5,7.1l-3.1,3l-1.6,3.5l-3.1,0.6l-1,4l-1.4,5.4l-5.6,0.4l-2.7-2.8l-0.6,0.3l-0.7,6.5l-1.7,4.4l-5.9,13.1
		l1,1.3l-0.3,2.8l-3.8,5.4l-2.4-0.7l-3.7,2.7l-2.8-0.7l-2.3,5.4l-0.3,0.1c-1,0.4-4.1,1.7-5.1,1.7c-0.3,0-0.4,0-3.1-1.4l-2.5,1.6
		l-3.2,1.4L924.4,501.8z"/>
</g>
<g id="Ohio">
	<polygon stroke="#FFFFFF" stroke-miterlimit="10" points="900.5,469.2 898.1,468 897.4,465 895.5,465.7 892.8,467.1 890.6,469.9 
		883.5,469.2 880.7,468.8 877.6,470.5 875.1,470.5 872.7,468 866.3,468 863.6,462.5 860,460.8 857.1,461.8 851.4,461.9 850.7,455.4 
		847.4,426.6 845.3,409.8 843.6,391.2 858,388.4 870.5,386.4 876.8,385.6 879.9,387.3 882.8,389 889.3,388.1 893.4,391.9 
		895.5,391.8 902.3,388.7 906,388 909.6,387.1 914.6,382.5 918.7,377.8 923.6,375 931.9,369.5 935.6,394.3 938.6,405.7 936.2,408 
		935.9,409.1 937,412.5 937.1,419.2 936.6,425.4 936.2,431.7 932.8,436.9 928.8,441.2 925.7,443.4 923.3,442.9 922.3,444.4 
		919.6,448.4 918.8,449.5 918.8,452 920.2,454.4 919.5,456.7 916.4,458.7 915.6,455.8 914.4,454.9 913.6,455.3 912.3,459.9 
		912.3,466 910.3,467.8 910.1,471.4 907.9,472.2 904.8,472.3 	"/>
</g>
<g id="Indiana">
	<polygon stroke="#FFFFFF" stroke-miterlimit="10" points="788.9,497.9 789.4,492.1 792.2,488.4 794.5,483.8 797.6,478.7 797,471.9 
		794.8,468.7 794.4,464.4 795.3,457.7 794.8,449.2 793.2,429.6 791.7,410.8 790.4,395.3 795.2,396.7 796.8,397.8 797.7,397.6 
		800.3,395.3 804,393.2 810.3,392.9 837.2,390.2 844.7,389.5 846.7,409.7 851.9,454.9 852.6,462 852.2,464.6 853.6,466.7 
		853.9,469.1 850.4,471.2 845.9,473.2 842.3,473.9 841.6,479.5 836,483.8 832.7,488.3 833.2,491.1 832.2,493.7 827.2,493.7 
		825.5,491.8 822.9,493.2 820,494.8 820.2,498.7 817.6,499.3 816.9,497.6 814.7,496.2 811.3,497.6 809.2,501.7 806.6,500.3 
		805.1,498.4 800,499 793.2,500.1 788.7,502.5 	"/>
</g>
<g id="Illinois">
	<polygon stroke="#FFFFFF" stroke-miterlimit="10" points="761.3,525.1 759.2,519.6 760.4,516.1 758,512.4 755.6,506.5 750.2,505.8 
		742,499 739,493.9 739.9,489.8 742.7,482.4 743.4,478.6 740.7,477.1 732.7,476.6 731.1,474.5 731.4,469.2 725.1,465 715.9,455.6 
		713.1,446.4 712.4,441.6 713.8,437.8 715.8,436.4 715.5,434.1 715.9,432 718.2,430.4 720,429.9 720,427.1 721,424.8 723.1,422.8 
		723.4,418.4 721.3,416.6 720.3,414.6 721.1,411.8 722.1,409.1 728.9,407.4 731,406.6 733.5,404.6 734.4,401.7 736.6,397.1 
		737.4,393.2 736.6,390.8 731.9,386.6 731.3,384.3 730.4,383.2 727.3,382.3 726.9,378.1 784.5,374.9 784.9,382.2 786.5,385.1 
		788.6,387.4 790.1,392.1 791.1,395.2 791.5,396.4 792.7,410.8 794.2,429.2 795.6,448.5 796.6,457.4 795.8,464 795.8,467.8 
		798.3,472.1 798.7,478.8 795.9,484.1 793.7,489 790.8,492.5 790.1,498 790.1,502 788.6,506.2 787.2,507.3 787.9,509.7 789,512 
		786.7,512.8 783.1,513.8 781.1,515.2 780.8,517.6 782.4,520.6 782.1,524 780,524.6 775.3,522.9 772.3,521.4 770.1,522 767.5,524 
		766.4,526.7 764,528.1 	"/>
</g>
<g id="Connecticut">
	<polygon stroke="#FFFFFF" stroke-miterlimit="10" points="1066,368.4 1067.7,365.3 1067.5,354.5 1065.7,345.8 1064.3,341.1 
		1091.1,335.1 1097.6,333.9 1102.4,353.4 1092.2,357.5 1085.9,358.9 1082.2,360.9 1081.3,360.2 1079.4,362.3 1075,366.2 
		1069.2,371.5 	"/>
</g>
<g id="Wisconson">
	<polygon stroke="#FFFFFF" stroke-miterlimit="10" points="726.5,377.8 723,377.4 719.6,375.8 716.3,370.8 715.9,366.4 718.4,362.2 
		718.3,361 715.5,359.2 714.6,354.8 713.5,345.8 711.1,342.7 702.5,337.6 697.7,330.8 693.5,330.3 691.4,326.3 687.3,326.3 
		683.2,322.4 682.6,313.9 682.6,309 684.9,305 684,301.6 681.2,299.4 680.2,298.8 683.3,290.8 689.8,285.8 691.1,284.3 691.1,274.1 
		691.4,270.4 694.5,266.2 696.2,267.6 699.4,268.2 702.8,267.3 711.8,263.5 715.3,261.1 718.3,260 721.7,262.4 719.7,264.4 
		717.5,268 716.9,269.7 717.2,270 719.2,269 720.7,268.7 722.8,268.3 723.7,269.9 724.5,270 725.8,269 730.6,275.7 740,277.1 
		750.2,279.8 753.7,281 768.8,284.3 771.2,287.2 775.7,288.9 778.1,301.8 781.5,304.3 780.1,307.8 777.8,309.8 775.3,315.4 
		773.9,318.3 774,319.7 774.7,319.8 776,317.7 778.3,316.7 779.3,314.2 781.7,311.9 785,307 790.3,299.1 792.1,298 792.9,300.2 
		792.7,303.2 789,311.6 785.7,318.4 786.3,323.5 785.6,326.5 786.5,328 786.3,331.8 783.9,334.8 783.4,336.8 784.1,340.8 
		784.9,345.4 783.1,348.6 782.1,352.1 781,355.7 782.4,358.5 783.1,366.1 784.6,371.6 784.6,376.3 728.2,379.6 	"/>
</g>
<g id="North_Carolina">
	<path stroke="#FFFFFF" stroke-miterlimit="10" d="M997.8,568l-15.2-9.2l-3.4-1l-15.4,1.8l-5.8,1l-2.1-4.2l-3.2-2.4l-20,0.6l-8.7,1
		l-11,5.5l-7.6,3.2l-26.9,3.2l0.7-6.2l2.5-2.1l3.1-0.7l0.7-4.4l5.5-3.5l4.7-1.8l5.1-4.4l5.1-2.4l0.7-3.7l5.1-5.1l1.8-0.4v0.8
		c0,0,0,0.7,0.3,0.7c0.7,0,1.6,0.1,2.1,0.3l2.7-4.1l3-0.8l2.4,0.3l1.8-4l3.5-3.1l0.6-2.4l0.3-5.1h5.9l8.7-1l19.3-2.8l18.6-2.5
		l26.5-5.8l24.6-5.2l13.7-3l6.8-1.6l2.8,6.6l4.2,7.8l3,3l0.4,1.3l1.4-0.4l3.7,7.3l0.6,5.6l-0.3,4.7l-4.5,2l-3.4,3l-1.6,1.7l-3.1-0.4
		l4.2-4.1l4-3.2l1.6-0.7l0.1-2.1l-0.7-7.2l-1.7-2.8l-0.3-0.7l-1.4,0.1l-0.4,5.8l-3.2,1.7l-0.7,2.3l-1.7,4l-4.9,2.1l-3.1-0.4h-0.3
		l1.1,1.8l-2.3,7.1h4.7l0.6,1.4l2.1-2.1l3.5-1.3l-3.2,6.1l-4,6.3h-2.1l-1.3-0.6l-3.1,0.7l-6.2,3l-7.8,6.5l-4.1,5.6l-2.4,7.8
		l-0.7,3.4l-6.2,0.7l-6.9,1.7L997.8,568z"/>
</g>
<g id="Massachusetts">
	<path stroke="#FFFFFF" stroke-miterlimit="10" d="M1120.3,347.2l3.5-4h2.5l3.4,2.7l-4,1.7l-3.1,1.4L1120.3,347.2z M1118,345.2
		l3.1-1.8l0.4-1.7l-0.7-2.7l-2.5,1.3l-0.7,1.4l0.7,3.1l-3.7,1.7l-3.7-6.1l-4.1-5.2l-2.1-1.8l-7.6,2.3l-6.3,1.3l-26.1,5.8l-1-6.6
		l0.8-13.7l5.8-1.3l8.3-1.6l21.6-5.6l2.5-0.7l2.3-3.4l5.4-2.4l4.1,6.2l-3.1,6.6l-0.3,1.4l1.8,2.4l1-0.7h2.7l3,3.4l4.7,7.2l3.8,0.6
		l2.5-1.1l1.8-1.8l-0.8-2.7l-2-1.6l-2,1.1l-2-2.5l1.3-1.3l3-0.3l2.5,1.1l2.5,3.2l1.3,3.7l0.6,3.7l-5.6,2l-4.5,2.3l-4.7,5.5l-3.5,2.7
		v-3.2h-0.5V345.2z M1132.4,345.5l2.5-0.8l0.6-2.3l2.3,0.3l1.7,3.8l-2.3,0.8l-6.3,0.1L1132.4,345.5z"/>
</g>
<g id="Tennessee">
	<path stroke="#FFFFFF" stroke-miterlimit="10" d="M746.9,578.2l1.1-4.9l-2-4.8l5.2-3l0.3-2.8l1.7-5.6l4.1-3.4l2-6.5l1.8-9.2
		l10.4,0.1l8.5-0.8l9.5-0.3l0.3-5.1h5.4l25-2.8l63.6-6.2l9.7-2.3l22.6-3h8.5l3.2-2.5l3.7,0.3l-0.4,5.2l-0.6,2.7l-3.7,3.2l-2.1,4.7
		l-3.1-0.4l-2.1,0.7l-3,4.7L916,536c0,0-1.3-0.4-2.1-0.4s-1.3-0.6-1.6-1.1l-4.5,4.4l-0.7,4l-5.6,2.5l-5.1,4.4l-4.9,1.8l-4.7,3.1
		l-0.8,4.7l-3.8,1l-1.8,1.6l-0.6,5.1l-135.4,13L746.9,578.2z"/>
</g>
<g id="Arkansas">
	<polygon stroke="#FFFFFF" stroke-miterlimit="10" points="666.8,625.1 664.1,624 660.3,625.7 656.9,622.9 656.6,576.2 655,562.8 
		655,552.6 652.8,543.5 750.2,540.4 752.9,544.6 751.6,549.7 747.9,552.8 747.7,553.8 753,554.5 758.9,553.3 757.2,558.4 
		755.7,563.4 755,566 751.7,568.9 753.2,572.8 758.2,573.7 754.9,576 754.4,580.3 751.3,581.8 748.1,588.3 748.5,590.3 748.6,592.7 
		745,594.5 740.7,600.6 741.7,603.6 738.5,606.2 736.8,612.9 736.1,615.7 738.2,619.1 736.2,620.9 738.2,624.2 738.6,628.8 
		736.9,631.9 667.7,633.5 	"/>
</g>
<g id="Missouri">
	<polygon stroke="#FFFFFF" stroke-miterlimit="10" points="745.7,555 746.7,551.8 750.5,548.8 751.2,545.3 748.9,541.8 735,542 
		709.6,542.9 681.1,543.7 652.8,544.9 652.3,537.7 652,531.9 651.6,487.6 649.9,473.6 647.1,471.6 644,467.8 641.1,463.3 
		641.8,460.1 644,458.1 644,455.1 642.7,454.4 640,454 635.9,450.5 632.1,445.4 628.9,440.5 629.1,437.5 627.2,433.7 631.1,433.5 
		710.4,430.6 712,433.7 715.3,437.6 714.2,440.7 714.5,445.7 717.3,454.4 725.6,463.7 732.6,468.1 732.7,473.5 733.7,475.2 
		741.9,476.2 744.8,477.7 744.3,481.7 741.7,489.3 740.7,492.8 742.7,497.5 751,504.1 757.1,505.2 759.5,511.1 761.9,515.5 
		760.9,518.8 762.5,524.1 764.3,526.4 766,525.1 768.8,529.2 767.4,531.7 767.3,535.7 763.9,537.7 761.5,540.5 760.8,547.5 
		758.5,554.7 753.2,555.7 	"/>
</g>
<g id="Georgia">
	<polygon stroke="#FFFFFF" stroke-miterlimit="10" points="944.6,683.4 944.5,679.9 939.4,679.9 932.9,680.7 893.3,683.1 883.1,683 
		880.1,680 877.3,675.7 877,672 875.5,671.1 874.4,669.7 875.3,666.5 875.1,660.1 872.9,654.8 873.2,652.2 873.8,648.1 876,642.4 
		875.8,640.2 873.5,639.3 872.8,634.9 869.7,630.8 867.2,623 865.3,614.4 863.4,608.5 861.5,600.9 858.6,588.9 854.5,579.2 
		853.6,574.9 853.3,572.2 853.3,569 906,562.6 907.1,566.3 904,567.9 903.1,569.8 903.4,571.5 905,572.9 909.3,575.6 913.9,575.6 
		918.2,582.1 918.8,583.8 921.8,587.3 922.3,589 927.7,591 931.6,594 934.3,597.5 937.1,599 939.8,601.6 941.4,604.7 943.8,606.9 
		949.1,609.3 952.8,617.4 954.6,623 957.6,623.7 960.7,626.6 962.3,631.1 963,633.5 965.6,634.7 968.3,633.8 969.3,636.4 
		965.2,644.1 965.8,647.2 964,652.5 961.3,664.7 962.3,673.1 955.3,672.7 948.6,671.7 947.6,673 949.6,678.3 949.1,684.7 	"/>
</g>
<g id="South_Carolina">
	<polygon stroke="#FFFFFF" stroke-miterlimit="10" points="961.7,634.2 960.8,631.4 959.3,627.1 956.9,624.7 953.5,623.9 
		951.4,617.7 948.1,610.6 943.1,608.4 940.4,605.8 938.8,602.6 936.3,600.3 933.5,598.8 930.8,595.1 927.1,592.4 921.3,590.2 
		920.6,588.2 917.7,584.7 917.1,582.8 913.2,576.9 909.2,577 904,573.9 902.3,572.2 901.7,569.6 903,566.7 905.4,565.6 904.8,562.8 
		912.5,559.8 923.7,554 933.3,553.1 953.4,552.6 956.9,555.2 958.9,559 963.7,558.3 979.2,556.4 983,557.6 998.5,566.9 
		1011.6,577.3 1004.6,584.5 1001.5,591.9 1000.9,599.9 998.8,600.9 997.4,604.3 994.3,605.1 991.9,609.3 988.4,612.7 985.7,617 
		983.6,618 979,622.3 976.2,622.5 977.2,625.9 970.7,633.1 968,634.6 965.5,636 	"/>
</g>
<g id="Kentucky">
	<path stroke="#FFFFFF" stroke-miterlimit="10" d="M760.5,539.5l2.7-2.8l2.8-1.7l0.3-3.7l1-2l-2-3.1l1.1-2.8l3-2.4l3-0.8l3.7,1.7
		l4.1,1.4l0.7-0.1l0.1-2.1l-1.6-3l0.4-3.2l2.7-2l3.2-0.8l1.3-0.4l-0.7-1.6l-1-3l2.1-1.4c0-0.1,0.1-0.4,0.3-0.7
		c0.3-0.8,1-2.8,1.1-3.4v-0.4l4.2-2.1l6.6-1.3l5.9-0.7l1.8,2.1l1.1,0.7l1.7-3.4l4.5-1.8l3.2,2.1l0.4,0.8h0.3l-0.1-3.5l4.2-2.4
		l3.1-1.6l2,2.3h3.2l0.4-1.3l-0.4-2.8l3.4-5.2l5.8-4.1l0.8-6.2l4-0.6l4.5-2l2.5-1.8l-0.1-1.3l-1.4-1.8l0.8-4.5l5.6-0.1l3-1l4.7,2
		l2.4,5.2h6.2l2.5,2.7l1.6-0.1l3.2-1.6l6.6,0.7l2.8,0.3l2-2.4l3.4-1.8l3.1-1.1l0.8,4l2.3,1.1l3.7,2.8l0.1,7.2l0.8,1.6l3.2,2l1,2.8
		l5.1,4.2l2.3,4.4l3.5,2.4l-3.4,3.5l-4.4,4.9l-6.1,6.6l-1.3,1.8l-0.1,2.8l-5.8,2.8l-6.9,4.2l-9,2.3l-63.6,6.1l-19.3,2.1l-5.6,0.6
		h-4.1l-0.3,5.2l-10.7,0.1l-8.5,0.8L760.5,539.5z"/>
</g>
<g id="Alabama">
	<polygon stroke="#FFFFFF" stroke-miterlimit="10" points="812.7,701.8 817.2,698.5 817.2,698 813.7,691 811.9,690.5 810.3,695.1 
		808.5,699.1 807.2,698.8 803.2,698.8 801.3,680.6 798,657.7 798.2,640.4 799.2,602.3 799,581.8 799.2,573.4 855.2,568.9 
		854.9,572.2 855.2,574.8 855.9,578.7 860,588.5 863.1,600.6 864.8,608.1 866.7,614 868.6,622.6 871.1,630.2 874.4,634.3 
		874.9,638.3 877.3,639.4 877.5,642.5 875.3,648.6 874.8,652.4 874.5,654.6 876.5,659.9 876.9,666.6 876,669.5 876.5,670 
		878.4,671.1 879,675.8 871.3,675.4 863.1,676.1 831.7,679.8 819.6,681.3 819.3,684 821.3,686 824.7,688.5 825.4,698.9 818.1,702.5 
			"/>
</g>
<g id="Louisiana">
	<path stroke="#FFFFFF" stroke-miterlimit="10" d="M740.9,734.4l-2.7-2.7l2.1-1.4l0.7-1.4l-1.7-1.7l-5.8-0.4l-0.4-3.2l-1.6-2.5
		l-3.4-0.7l-2.4,1.3l-2.3-1.8c-0.8,0.3-2.8,1-3.4,1.1c-0.1,0-0.3,0.4-0.4,0.7l2.7,1.6l3.1-0.6l4.8,1.7l-1.6,3.8l-4.7-1.4l-3.8-1.3
		l-4.5,1.7l-8.2-1.4l-12.7-4.4l-14.7-0.3l-6.5,2.1l-0.1-5.5l1.7-4l0.8-8.9l0.7-2.8l-2-2.7l3.8-6.5l0.8-9.9l-0.8-0.8l-0.3-4l-5.4-6.6
		l-1.1-6.2l-3.1-5.1l-0.8-4.9l-0.8-11.6v-12.4l69.4-1.1l0.1,8.3l2.3,5.4l0.1,2.3l3,2.5l-0.7,3.1l-1.4,0.7l0.7,2.7l-6.3,10.9l-4,7.2
		l-1.1,10.2l0.7,2.3l30.2-0.6l11.7-1.3l1.3,1.7l-1.3,6.6l4,3.8l1.4,5.1l1.4,3.2l-2.5,4.7l-1.8,2.1l0.8,1.4l2.8,0.6l0.7-2.7l2.7-3
		l2.7-0.3l0.4,4l1.7,2.5l-2.5,4.5h-2.7l1.3,0.7l-0.4,2l-2.8-0.4l-1,2.4l3.4,2.4l7.2,1l4.1,3.4h2v2.7l-3.4,4.5l-1.8-1.6h-3.7l-1.3-2
		l-4.7-2.3c-1.7-0.3-4.2-0.7-4.9-0.7c-0.3,0-0.6-0.1-0.8-0.4c-0.7-0.7-0.7-2.8-0.7-3.8l-0.1-0.1l-1,1.1l-2.1,0.6l0.1,1.4l-0.7,1.3
		l3.5,0.6l-2.5,1.6l-2.8,4.2l-4.8,1.8l-1.8-1.8l3.2-1.1l-0.7-2.7l-1-0.7l-1.8,1.6l-3,0.7l-1.1,3l-4.9,1.8L740.9,734.4z"/>
</g>
<g id="Mississippi">
	<polygon stroke="#FFFFFF" stroke-miterlimit="10" points="776.2,701.8 774.7,697 770.4,693 771.8,686.1 771.4,685.5 769.5,685.8 
		759.8,686.8 729.2,687.4 728,684 729,673.4 733,666.3 739.3,655.3 738.6,652.1 740.3,651.3 740.7,649.6 737.9,647 737.8,644.3 
		735.5,639.3 735.4,631.6 737.1,628.5 736.8,624.7 734.4,620.6 736.4,618.8 734.5,616 735.1,613.7 737.2,605.4 740,603.1 
		739.3,600.3 744,593.4 747.2,591.9 747.1,590.3 746.7,588 750.3,580.8 753.2,579.4 753.3,578 800.4,573.2 800.7,581.7 800.8,602.2 
		799.9,640.1 799.7,657.5 803.1,680.3 804.9,696.8 804.4,699.1 797.3,699.1 795.5,698.1 793.2,697.7 784.8,700.1 782.9,699.2 
		780,704 777.8,705.6 	"/>
</g>
<g id="Iowa">
	<polygon stroke="#FFFFFF" stroke-miterlimit="10" points="711,434.7 709.6,431.9 629.4,435 627.9,435.2 625,429 624.8,421 
		622.9,415.9 622.1,409.6 619.3,405 618.1,399.1 614.7,389.9 613.3,383.3 611.8,380.8 609.7,377.1 612.1,370.9 613.6,364.4 
		610.5,362 609.8,358.2 611.2,354.4 613.8,354.4 715.6,352.8 716.8,358.3 719.6,360.2 720,362.6 717.5,366.7 717.6,370.2 
		720.6,374.6 723.4,376 727.3,376.7 728.3,378.1 728.7,381.2 731.1,381.9 732.6,383.6 733.1,385.9 737.8,389.9 738.8,393.2 
		737.9,397.7 735.9,401.8 735,405.2 732,407.4 723.2,410.3 721.7,414.4 722.4,415.8 724.8,417.9 724.5,423.5 722.1,425.5 
		721.4,427.2 721.6,431 718.7,431.7 717.2,432.8 716.9,434.1 717.3,436.9 714.5,438.9 	"/>
</g>
<g id="Minnesota">
	<polygon stroke="#FFFFFF" stroke-miterlimit="10" points="614.3,311.2 613.8,308 609,303.9 607.3,301.3 607.3,298.8 610.1,296.7 
		611.5,295.1 611.8,291.6 611.2,281.3 609,272.4 606.7,255.8 606.3,243.9 604,239.8 602,233.3 602,220.6 602.8,216 600.4,208.5 
		637.6,208.5 638,198.6 639.4,198.2 642.4,198.9 645.2,200 646.3,207.2 648,214.4 649.6,216.1 655.8,216.1 656.2,218 664.1,218.2 
		664.1,220.9 668.8,220.9 669.1,219.6 670.8,218 674,217 675.7,218.2 679.2,218.2 684.2,221.6 690.7,224.4 692.9,224.9 693.5,223.9 
		696.3,223 697,227 699.4,228.3 699.8,227.7 702.4,228.1 702.4,230.8 705,231.8 708.4,231.8 710.1,230.9 714.2,226.8 718.2,226.1 
		719.3,228.8 719.9,229.9 720.3,229.9 721.4,229 733,228.5 735.2,232.3 735.2,232.3 736.1,231.1 742.9,230.5 741.7,234.6 736.6,237 
		725.2,241.9 719.4,244.3 715.9,247.4 712.9,251.7 710.1,256.6 707.9,257.6 702.2,263.8 700.5,264.1 695.4,267.3 692.6,271 
		692.3,274.7 692.5,284.7 690.7,287.1 684.4,291.6 682,298.2 685.3,300.8 686.3,305.3 683.9,309.2 684.2,313.8 684.6,321.7 
		687.8,324.9 692.1,324.9 694.5,328.9 698.6,329.4 703.4,336.6 712.1,341.6 714.9,345.4 715.8,354.3 614.7,355.7 	"/>
</g>
<g id="Oklahoma">
	<polygon stroke="#FFFFFF" stroke-miterlimit="10" points="655.5,622 651.6,620.9 647.5,618.7 644.9,615.6 643.4,615.3 641.6,617.7 
		635.6,617.7 634.8,615.7 634.1,615.7 630.5,618.4 627.9,617.1 623.2,617.1 622.4,619.9 619.7,621.3 615.7,620.2 611.2,618.5 
		606,617.5 604.6,615.1 604,615.1 601.9,619.9 599.8,621.1 591.5,618.4 590.3,615.4 587.7,615.4 585.7,614.7 582.9,617.4 
		579.2,616.3 579.2,613.7 578.3,613.7 575.2,609.5 571.7,608.8 568.7,611.3 565.4,608.9 560.3,608.1 557.3,606.7 551.7,606.4 
		552.2,601.3 550.3,600.5 550.3,601.6 546.7,601.6 545.6,600.2 545.2,601.7 543.6,602.3 540.8,600.7 535.2,595.9 534.9,593.8 
		535.4,571.8 538.3,542.5 499.8,540.9 473.9,539.5 475.1,524.7 496.2,526.2 526,527.9 581.2,530.5 638,531 653.7,530.6 653.7,536 
		654.7,544.7 656.5,552.6 656.6,563.8 658.3,577 658.8,624 	"/>
</g>
<g id="Texas">
	<path id="TX_6_" stroke="#FFFFFF" stroke-miterlimit="10" d="M473.1,538.9l27.8,1.3l38.1,1.4l-2.8,28.8l-0.4,22.3l0.1,2.5l5.4,4.7
		l2.4,1.8l1.4-0.7l0.4-2.3l1.4,2.3h2.5v-1.8l2.1,1.1l1.4,0.6l-0.4,4.8l5.1,0.1l3.5,1.4l4.8,0.7l3,2.5l2.5-2.5l4.5,0.7l2.7,4l1.3,0.4
		l-0.1,2.4l2.7,1l2.8-2.5l2.7,0.7h2.7l1.1,3l7.8,2.5l2-1l1.8-5.1h0.4l1.1,0.1l1.6,2.5l4.8,0.8l4.1,1.4l4.2,1.4l2.3-1.1l0.8-3.1h5.5
		l2.3,1.1l3.4-2.5h1.4l1,2h4.9l1.8-2.5l2.3,0.6l2.4,3l4.4,2.5l3.5,1l1.8,1l3,2.4l3.7-1.7l3.2,1.4l0.7,7.5v11.9l0.8,11.7l0.8,4.4
		l3.2,5.4l1.1,6.1l5.2,6.8l0.3,3.8l0.8,1l-0.8,10.3l-3.5,6.2l1.8,2.7l-0.7,2.8l-0.8,9l-1.8,4.1l0.4,4.2l-6.9,2l-12.1,5.5l-1.1,3
		l-3.1,2.4l-2.5,1.8l-1.6,1l-6.9,6.5l-3.4,2.5l-6.5,4l-6.9,3L616,758l-2.1,1.8l-7.2,4.4l-4.1,0.8l-4.8,6.8l-4.9,0.4l-1.1,2.4
		l2.8,2.4l-1.8,6.8l-1.6,5.5l-1.4,4.8l-1,5.5l1,3l2.1,8.5l1.1,7.5l2.1,3.4l-1.1,1.8l-3.8,2.4l-6.9-4.8l-6.8-1.4l-1.6,0.6l-4-0.8
		l-5.2-3.8l-6.3-1.4l-9.3-4.1l-2.5-4.8l-1.6-7.9l-4-2.4l-0.8-2.8l0.8-0.8l0.4-4.1l-1.6-0.8l-0.8-1.1l1.6-5.4l-2-2.8l-4-1.6l-4.1-5.4
		l-4.4-8.2l-5.2-3.1l0.1-2.4l-6.5-15.1l-1-5.2l-2.1-2.4l-0.1-1.8l-7.3-6.5l-3.1-3.8v-1.4l-3.1-2.5l-8.3-1.4l-9.2-0.8l-3.8-2.8
		l-5.5,2.1l-4.4,1.8l-2.8,4l-1.1,4.5l-5.4,7.5l-3,3l-3.1-1.1l-2.1-1.4l-2.4-0.8l-4.8-2.8v-0.8l-2.1-2.4l-6.3-2.5l-9.2-9.5l-2.8-5.8
		v-9.9l-4-7.9l-0.6-3.4l-2-1.1l-1.4-2.5l-6.2-2.5l-1.6-2L398,670l-1.6-4l-5.8-2.8L389,657l-3.1-3.5l-2.4-0.6l-0.8-5.8l9.9,0.8
		l35.6,3.4l35.6,2l2.7-23.8l4.8-68.1l2-23h1.7 M595.8,820.4l-0.7-8.7l-3.4-8.9l-0.7-8.6l1.8-10.2l4.1-8.5l4.2-6.6l3.8-4.4l0.8,0.3
		l-5.8,8.2l-5.4,8l-2.5,8.2l-0.4,6.3l1.1,7.5l3.1,8.9l0.6,6.3l0.1,1.8L595.8,820.4L595.8,820.4z"/>
</g>
<g id="New_Mexico">
	<polygon stroke="#FFFFFF" stroke-miterlimit="10" points="325.9,660.4 347.7,511.4 476.5,524.7 475.3,539.6 473.4,539.5 
		471.4,562.6 466.6,631.1 463.8,654.8 429.8,652.7 392.7,649 383.1,648.4 383.9,654.2 347.9,650.8 346.4,663.1 	"/>
</g>
<g id="Kansas">
	<polygon stroke="#FFFFFF" stroke-miterlimit="10" points="580.6,531.7 525.9,529.2 495,527.7 499.9,447.1 527.5,447.9 576.9,448.9 
		631.3,450.2 637.9,450.2 640.6,452.7 642.8,452.7 645.4,454.3 645.4,458.7 643.1,460.9 642.7,463.2 644.8,467 648.3,470.8 
		651.4,472.9 653,487 653.3,532 637,532.3 	"/>
</g>
<g id="Nebraska">
	<polygon stroke="#FFFFFF" stroke-miterlimit="10" points="631,451.5 577.6,450.3 527.7,449.2 499.6,448.2 501,422.1 461.4,418.4 
		466.7,363.1 486.5,364.4 511.2,365.8 533.1,367.2 562.3,368.6 575.7,368.1 578.3,371 584.1,374.7 585.3,375.6 590.3,374 
		595.1,373.4 598.8,373.2 601.2,374.9 606.1,376.8 610.1,378.9 610.7,381.2 611.6,383.2 613.3,383.2 615,383.3 616.2,389.7 
		619.7,399.8 620.4,404.5 623.5,409.1 624.2,415.5 626.2,420.7 626.6,428.6 630.5,437.2 630.4,440 634.5,446.5 638.7,451.5 	"/>
</g>
<g id="South_Dakota">
	<polygon stroke="#FFFFFF" stroke-miterlimit="10" points="609.4,381.6 608.8,379.9 605.6,378.1 600.4,376.1 598.5,374.6 
		590.8,375.3 584.8,377.2 583.7,376 577.4,372 575.1,369.5 560.7,370.1 531.5,368.4 509.8,367.2 485.2,365.8 466.6,364.7 
		473.4,285.1 541.2,289.3 613.3,291.3 612.9,295.7 610.9,297.8 608.7,299.6 608.7,301.1 609.7,302.8 614.9,307 615.6,311.9 616,349 
		616.2,355.8 612.1,355.8 611.4,358.3 611.8,361.2 615.3,363.8 613.3,371.5 611.2,377.1 614.6,382.9 614.7,384.4 610.8,384.7 	"/>
</g>
<g id="North_Dakota">
	<polygon stroke="#FFFFFF" stroke-miterlimit="10" points="541.4,290.8 473.2,286.5 482,202.7 510.8,205.4 543.4,207.1 566.1,207.8 
		601.6,208.5 604.2,215.8 603.3,220.8 603.3,233.3 605.4,239.5 607.5,243.4 608.1,257 610.5,272.8 612.5,281.2 613.3,292.5 	"/>
</g>
<g id="Wyoming">
	<polygon stroke="#FFFFFF" stroke-miterlimit="10" points="322.7,401.8 340.2,292 472.4,308.7 463.1,418.7 	"/>
</g>
<g id="Montana">
	<polygon stroke="#FFFFFF" stroke-miterlimit="10" points="341.4,293.6 339,307.5 336.1,305.7 335.5,301.8 334.4,300.5 331.6,301.2 
		331,304.9 326.9,305.6 322.4,303.5 317.6,303.5 314.4,304.7 310.3,302.6 307.4,302.6 304.3,305.7 302.2,304 301.4,299.5 
		301.8,295.4 299.8,293 298.8,292.2 294.9,288.9 291.5,273.1 291.8,267.1 290.8,266.8 290.2,267.8 284,271.6 282.3,271.6 
		278.9,267.2 278.9,263.7 287.5,242.2 287.1,240.2 283,239 282.3,237.3 279.1,233.5 273.4,220.4 269.5,218.7 267.1,212.6 
		268.8,206.9 264.6,197.8 270.2,170.7 311.1,179.3 333.7,183.5 373.3,190 409.2,195 445,199.3 483.2,202.9 472.4,310.1 	"/>
</g>
<g id="Colorado">
	<polygon stroke="#FFFFFF" stroke-miterlimit="10" points="346.9,514.3 362.2,405 502.6,420.7 496.5,527.9 	"/>
</g>
<g id="Idaho">
	<path stroke="#FFFFFF" stroke-miterlimit="10" d="M328.2,373c-1.1-0.1-107.9-20.5-116.4-22.3l-0.7-0.1l10.9-43.9l1.7-5.2l3-7.1
		l-1.1-2.1l-3,0.1l-1.4-1.8l0.7-1.7l0.4-4l5.8-7.1l2.3-0.6l1.1-1.1l0.7-4l1.3-1l4.7-7.1l4.7-5.2l0.3-4l-4.1-3.1l-2-5.8l16.9-78.6
		l17.9,3.4l-5.5,26.7l4.4,9.2l-2,5.8l2.3,5.2l3.8,1.6l4.8,11.9l4.2,5.4l0.6,1.3l4.2,1.4l0.6,3.2l-8.6,21.4l-0.1,2.8l2.8,3.5h0.6
		l5.8-3.5l1.1-1.7l3,1.3l-0.4,6.9l3.2,15.1l4.7,3.8l2.3,3l-0.8,5.1l1.1,3.1l0.7,0.7l2.7-2.5h4l3.5,1.6l3.1-0.8l4.9-0.3l4.8,2
		l2.7-0.3l0.6-3.7l4.5-1.1l2,2.4l0.6,3.5l1.8,1.6L329,373.2L328.2,373z"/>
</g>
<g id="Utah">
	<polygon stroke="#FFFFFF" stroke-miterlimit="10" points="244.5,499.9 270.1,360.5 328.7,371.5 326.8,385.1 324.1,400.5 333,401.7 
		353,403.9 363.9,405 348.6,514.7 	"/>
</g>
<g id="Arizona">
	<polygon stroke="#FFFFFF" stroke-miterlimit="10" points="296.2,657.2 280.9,654.2 260.2,641.9 242.3,631.4 227.3,622 204,608.9 
		203.2,607.2 203.6,605 207.3,602.2 211.8,601 213.3,598.6 213.9,596.2 209.8,595.5 208.8,594 209.5,591.9 209.2,590.3 212.2,589.3 
		215.3,586.2 216,580.4 218,575.6 220.5,573.1 224.8,571 226.5,569.6 226.6,567.6 225.5,567 224.3,565.5 222.8,558.3 219.4,552.1 
		220.1,547.7 221.9,545 222.6,529.8 222.9,527.7 223.1,518.8 225.7,517.4 227,516.5 228.7,516.5 229.8,517.9 233.4,518.3 
		234.9,521.7 237.2,521.9 239.2,518.6 241,518.6 244.8,498.4 348.8,513.3 327.5,660.6 	"/>
</g>
<g id="Nevada">
	<polygon stroke="#FFFFFF" stroke-miterlimit="10" points="217.4,547 132.5,418.9 156,335.1 271.5,360.6 242.3,519.8 239.9,520.2 
		237.9,523.1 234.2,523.1 232.4,519.8 229.1,519.3 228.3,518.1 227.6,517.9 224.6,519.6 224.2,527.7 223.8,534.7 223.4,545.4 
		221.1,548.7 	"/>
</g>
<g id="Oregon">
	<polygon stroke="#FFFFFF" stroke-miterlimit="10" points="73.5,317.1 72.9,301.8 73.9,291 76.5,287.4 86.3,271.9 94.3,255.3 
		100.3,238.1 104.4,230.1 108.4,218 111.2,209.6 118.8,206.9 122.3,207.7 123.2,210.8 128.1,211.3 131.2,216.7 130.8,226.6 
		130.4,227.1 136.9,231.6 143.9,232.1 146.3,229.7 152,231.6 152.9,231.5 159.7,234.2 161.7,235.7 167.1,236 168.7,235 171.9,237.1 
		177.1,237.8 184.3,235 184.8,237 203.5,236.9 221.9,241.2 237.9,245.7 240.1,251.5 244.2,254.6 244,259.6 239.4,264.5 234.5,271.3 
		232.7,275.7 231.1,277.2 228.9,278.6 223.6,285.1 223.1,288.9 222.6,290.5 223.8,291.9 226.9,292 228,294 225,301.2 223.8,306.4 
		212.8,349.7 	"/>
</g>
<g id="Washington">
	<path stroke="#FFFFFF" stroke-miterlimit="10" d="M221.9,242.6l-18.9-4.4h-19l-0.4-1.4l-6.3,2.5l-5.9-1l-2.4-1.8l-1.4,0.7l-6.2-0.1
		l-2.1-1.7l-6.2-2.5l-0.8,0.1l-5.2-1.8l-2.3,2.1l-8.3-0.3l-8-5.6l1.3-1.6l0.1-9l-2.5-4.2l-5.1-0.7l-0.8-3.1l-2.1-0.4l-4.8,1.7
		l-3.2-4.7l0.4-4.4l3.5-0.4l1.6-4l-3-1.3l0.3-5.6l4.5-0.7l-2.5-2.5l-1.8-9l0.8-3.7v-9.5l-2.3-4.1l3-12.4l3.5,0.8l3.1,3.8l3.2,3.1
		l4,2.4l5.4,2.5l3.8,0.8l3.7,1.8l4,1.1l2-0.4V161l1.8-1.6l3.5-2.1l0.7,2.3l0.6,3l-3,0.7l-0.3,1.7l2,1.7l1.4,3.1l0.7,2l0.7-0.1
		l0.1-0.7l-1.1-1.6L155,165l1-2.1l-0.7-1.7v-3.1l2.1-4.2l-1.3-2.8l-3.1-6.2l0.6-1.4l1.8-1.3l5.6,1.8l11.9,3.4l10.4,2.4l24.6,6.9
		l28.1,6.9l19.3,4.1L238.2,247L221.9,242.6z M148.3,158.4c-0.3,0-0.6,0-0.7-0.1c-0.7-0.1-0.8-0.7-0.8-1c0-0.1,0-0.6,1.4-2.8
		l-0.4-0.1l-0.3,1.3l-1.7,1.4l-2.4-3.5l-0.7-4l3.8-0.3l0.4,1.1l1.3-1.4h3.7l1.4,2.7l-1.8,2l0.7,0.8l-1.1,3.2l-2,0.6
		C148.6,158.4,148.4,158.4,148.3,158.4z"/>
</g>
<g id="California">
	<path stroke="#FFFFFF" stroke-miterlimit="10" d="M190.2,601.3l-24.3-3.4l-12.7-1.8l-0.7-2.7v-11.6l-0.4-3.7L149,573l-1-2.7
		l-4.2-4.7l-3.5,2l-3.5-0.1l-4.5-1.1l-0.7-2.1l1.8-0.8l-0.7-3.2l-1.6-2.3l-5.8-1l-5.1-2.7l-1.6-3l-3.1-5.8l-3.2-3.5h-3.4l-4.9-2.7
		l-5.4-2.1l-5.4-0.6l-3.4-3.8l2.8-11.4l1-2.4v-2.4l-2-1.1l-0.6-3.8l-1.7-3.1l-4.1-7.1l-1.7-3.8l-1.8-5.8l-2-6.5l-4-5.4l-0.7-3.8
		l1.1-5.5H78l2.4-2.1l1.3-4l-1-2.8l-3.2-0.6l-2.5-3.4l-2.7-4.8l-0.1-10.4l0.8-2.5l0.8-2.7l0.6-2.5l-6.9-7.6v-3.1l0.4-0.6l0.4-3.7
		l-1.6-4.8l-2.7-5.9l-3.4-5.5l-2.3-5.1l0.8-4.8l0.8-7.2l2.1-3.8l0.4-7.6L61,371l-2-5.1l-3.5-5.4l1.1-4.2l1.8-5.5l2.1-1l0.4-1.3
		l3.8-3.2l6.2-14.3l0.1-9l2.1-6.5l83.5,19.6l-23.3,83.2l84.4,127.3l3.2,1.4l-0.7,4.7l3.2,5.8l1.4,7.1l1,1.1l1.6,0.8l-0.1,3.2
		L225,572l-4.2,2l-2.3,2.4l-1.6,4l-0.7,6.3l-4.1,3.8l-1.8,0.6v0.3l-0.6,2.4l0.3,0.3l4.8,0.8l-0.8,4.5l-2.1,2.8l-5.2,0.7L190.2,601.3
		z M124.9,589L124.9,589c-0.4-0.8-1-2.1-1-2.7V583l1.7-0.3l2.4,4.2l2,3.2l-3.1,0.6L124.9,589z M129.7,577.6l-1.1-1.3l-2.4-3.1v-2.4
		l2.1-0.3l3.7,2.7l1.4,2.5l-1.1,2.7L129.7,577.6z M104.3,553.1l-2.3-2.3l-1.4-2.5l2.5-1.3l4.7,2.8l4.8,2l-2.4,1.7L104.3,553.1z
		 M96.2,552.6l-0.8-1.8l-1.3-2.8l5.5-0.1l2,2.4l-0.3,2.5L96.2,552.6z"/>
</g>
</svg>
