<svg id="Layer_1" xmlns="http://www.w3.org/2000/svg" viewBox="0 0 250 250"><style>.st0{fill:#F89925;} .st1{fill:#676767;} .st2{font-family:&amp;apos;Montserrat-Regular&amp;apos;;} .st3{font-size:14px;} .st4{fill:none;} .st5{fill:#FCBA83;} .st6{fill:#FFFFFF;} .st7{font-family:&amp;apos;Gotham-Bold&amp;apos;;} .st8{font-size:13.6356px;}</style><path class="st0" d="M96.5 69h44.7v163.2H96.5V69z"/><text transform="matrix(.903 0 0 1 29.706 199.26)" class="st1 st2 st3">$10K</text><text transform="matrix(.903 0 0 1 27.762 162.055)" class="st1 st2 st3">$20K</text><text transform="matrix(.903 0 0 1 27.762 124.847)" class="st1 st2 st3">$30K</text><text transform="matrix(.903 0 0 1 27.762 87.64)" class="st1 st2 st3">$40K</text><text transform="matrix(.903 0 0 1 27.762 50.432)" class="st1 st2 st3">$50K</text><text transform="matrix(.903 0 0 1 27.762 13.225)" class="st1 st2 st3">$60K</text><path class="st4" d="M51.4 226.1h30.5v22.2H51.4z"/><text transform="matrix(.903 0 0 1 51.405 236.296)" class="st1 st2 st3">0</text><path class="st5" d="M166.8 27h45.7v205.2h-45.7z"/><g><path class="st4" d="M179.2 34.7h43v34.1h-43z"/><text transform="translate(179.212 44.623)" class="st6 st7 st8">US</text></g><path class="st4" d="M110.4 75.9h43V110h-43z"/><text transform="translate(110.39 85.875)" class="st6 st7 st8">HI</text></svg>