<svg id="Layer_1" xmlns="http://www.w3.org/2000/svg" viewBox="0 0 217 217"><style>.st0{fill:#F89928;} .st1{fill:#FCBA81;} .st2{enable-background:new ;} .st3{fill:#FFFFFF;} .st4{fill:#505050;}</style><path class="st0" d="M50.6 51.9h55.7v148.8H50.6V51.9z"/><path class="st1" d="M135.6 39h55.7v162.6h-55.7z" id="Layer_2"/><g class="st2"><path class="st3" d="M77 62.8h2.9v12.9H77v-5.1h-5.1v5.1H69V62.8h2.9v5.4H77v-5.4zM83 62.8h2.9v12.9H83V62.8z"/></g><g class="st2"><path class="st3" d="M155.5 60.1c.5.6 1.1.9 1.9.9s1.5-.3 1.9-.9c.5-.6.7-1.4.7-2.4v-7.1h2.9v7.2c0 1.9-.5 3.3-1.6 4.3-1 1-2.4 1.5-4 1.5s-2.9-.5-4-1.5c-1-1-1.6-2.4-1.6-4.3v-7.2h2.9v7.1c.1 1 .4 1.8.9 2.4zM168.9 53.1c-.3.2-.4.5-.4.9s.2.7.5.9c.3.2 1.1.5 2.3.8 1.2.3 2.2.8 2.9 1.4.7.6 1 1.5 1 2.6s-.4 2.1-1.3 2.8-2 1.1-3.4 1.1c-2 0-3.9-.8-5.5-2.3l1.7-2.1c1.4 1.2 2.7 1.8 3.9 1.8.5 0 .9-.1 1.2-.3.3-.2.5-.5.5-.9s-.2-.7-.5-.9c-.3-.2-1-.5-1.9-.7-1.5-.4-2.6-.8-3.3-1.4-.7-.6-1-1.5-1-2.7 0-1.2.4-2.2 1.3-2.8.9-.7 2-1 3.3-1 .9 0 1.7.1 2.6.4s1.6.7 2.3 1.3l-1.5 2.1c-1.1-.8-2.3-1.3-3.5-1.3-.5 0-.9.1-1.2.3z"/></g><path class="st4" d="M14.4 34c-1-.1-2-.5-2.8-1.2l.8-1.1c.7.6 1.3.9 2.1 1v-2.4c-1.8-.5-2.6-1.1-2.6-2.5 0-1.3 1-2.2 2.5-2.3v-.7h1v.7c.9.1 1.6.4 2.3.9l-.7 1.3c-.5-.4-1.1-.6-1.6-.8v2.3c1.8.5 2.6 1.2 2.6 2.5s-1 2.2-2.6 2.3v1.2h-1V34zm0-7.2c-.8.1-1.2.5-1.2 1s.2.8 1.2 1.1v-2.1zm2.1 5c0-.6-.3-.9-1.2-1.2v2.2c.8-.1 1.2-.5 1.2-1zM20.3 33.3c-.6-.6-1-1.5-1-3.2 0-2.6 1.2-4.6 3.6-4.6 1.1 0 1.8.3 2.6.9l-.8 1.1c-.6-.5-1.1-.7-1.8-.7-1.2 0-1.9 1.1-2 2.7.4-.4 1-.8 2-.8 1.6 0 2.9 1 2.9 2.6 0 1.7-1.4 2.9-3.1 2.9-1.1-.1-1.8-.4-2.4-.9zm4-2c0-.9-.7-1.5-1.7-1.5s-1.7.7-1.7 1.5c0 .9.7 1.5 1.7 1.5 1.1.1 1.7-.6 1.7-1.5zM27.2 29.8c0-2.4 1.5-4.4 3.7-4.4s3.6 1.9 3.6 4.3S33 34 30.8 34c-2.2.1-3.6-1.8-3.6-4.2zm5.8 0c0-1.7-.9-3-2.1-3s-2.1 1.3-2.1 3 .8 3 2.1 3 2.1-1.3 2.1-3zM36.3 25.6h1.5v4.2l4-4.2h1.8l-3.5 3.6 3.6 4.8h-1.8L39 30.2l-1.3 1.3V34h-1.5v-8.4zM14.6 61.8c-1-.1-2-.5-2.8-1.2l.8-1.1c.7.6 1.3.9 2.1 1v-2.4c-1.8-.5-2.6-1.1-2.6-2.5 0-1.3 1-2.2 2.5-2.3v-.7h1v.7c.9.1 1.6.4 2.3.9l-.7 1.1c-.5-.4-1.1-.6-1.6-.8V57c1.8.5 2.6 1.2 2.6 2.5s-1 2.2-2.6 2.3V63h-1v-1.2zm0-7.1c-.8.1-1.2.5-1.2 1s.2.8 1.2 1.1v-2.1zm2.1 4.9c0-.6-.3-.9-1.2-1.2v2.2c.8 0 1.2-.4 1.2-1zM19.4 60.7l.9-1.1c.7.6 1.4 1 2.2 1 1 0 1.7-.6 1.7-1.5s-.7-1.4-1.7-1.4c-.6 0-1.1.2-1.5.4l-1-.5.2-4.1h5v1.3h-3.7l-.1 2c.4-.1.8-.2 1.3-.2 1.6 0 2.9.9 2.9 2.6 0 1.7-1.2 2.8-3.1 2.8-1.3 0-2.3-.5-3.1-1.3zM27 57.7c0-2.4 1.5-4.4 3.7-4.4s3.6 1.9 3.6 4.3-1.5 4.3-3.7 4.3c-2.2.1-3.6-1.8-3.6-4.2zm5.8 0c0-1.7-.9-3-2.1-3s-2.1 1.3-2.1 3 .8 3 2.1 3c1.3-.1 2.1-1.4 2.1-3zM36.1 53.4h1.5v4.2l4-4.2h1.8L39.9 57l3.6 4.8h-1.8L38.8 58l-1.3 1.3v2.4H36v-8.3z"/><g><path class="st4" d="M14.2 90.8c-1-.1-2-.5-2.8-1.2l.8-1.1c.7.6 1.3.9 2.1 1v-2.4c-1.8-.5-2.6-1.1-2.6-2.5 0-1.3 1-2.2 2.5-2.3v-.7h1v.7c.9.1 1.6.4 2.3.9l-.7 1.1c-.5-.4-1.1-.6-1.6-.8V86c1.8.5 2.6 1.2 2.6 2.5s-1 2.2-2.6 2.3V92h-1v-1.2zm0-7.2c-.8.1-1.2.5-1.2 1s.2.8 1.2 1.1v-2.1zm2.2 5c0-.6-.3-.9-1.2-1.2v2.2c.8-.1 1.2-.4 1.2-1zM23.4 88.9h-4.2l-.3-1.1 4.7-5.5h1.3v5.4H26v1.2h-1.2v1.9h-1.4v-1.9zm0-1.2v-3.3l-2.8 3.3h2.8zM27.3 86.6c0-2.4 1.5-4.4 3.7-4.4s3.6 1.9 3.6 4.3-1.5 4.3-3.7 4.3c-2.1.2-3.6-1.8-3.6-4.2zm5.8 0c0-1.7-.9-3-2.1-3-1.3 0-2.1 1.3-2.1 3s.8 3 2.1 3 2.1-1.3 2.1-3zM36.4 82.4h1.5v4.2l4-4.2h1.8L40.2 86l3.6 4.8H42L39.2 87l-1.3 1.3v2.4h-1.5v-8.3z"/></g><g><path class="st4" d="M14.6 118.9c-1-.1-2-.5-2.8-1.2l.8-1.1c.7.6 1.3.9 2.1 1v-2.4c-1.8-.5-2.6-1.1-2.6-2.5 0-1.3 1-2.2 2.5-2.3v-.7h1v.7c.9.1 1.6.4 2.3.9l-.7 1.1c-.5-.4-1.1-.6-1.6-.8v2.3c1.8.5 2.6 1.2 2.6 2.5s-1 2.2-2.6 2.3v1.2h-1v-1zm0-7.2c-.8.1-1.2.5-1.2 1s.2.8 1.2 1.1v-2.1zm2.2 5c0-.6-.3-.9-1.2-1.2v2.2c.7-.1 1.2-.5 1.2-1zM19.4 117.6l1-1c.6.7 1.3 1.1 2.2 1.1.8 0 1.5-.5 1.5-1.3s-.8-1.3-1.9-1.3h-.7l-.2-.9 2.3-2.4H20v-1.3h5.6v1.1l-2.3 2.4c1.3.2 2.5.8 2.5 2.4 0 1.5-1.2 2.7-2.9 2.7-1.8 0-2.8-.7-3.5-1.5zM27 114.7c0-2.4 1.5-4.4 3.7-4.4s3.6 1.9 3.6 4.3-1.5 4.3-3.7 4.3c-2.2.2-3.6-1.8-3.6-4.2zm5.8 0c0-1.7-.9-3-2.1-3s-2.1 1.3-2.1 3 .8 3 2.1 3c1.2 0 2.1-1.3 2.1-3zM36 110.5h1.5v4.2l4-4.2h1.8l-3.5 3.6 3.6 4.8h-1.8l-2.9-3.8-1.3 1.3v2.4H36v-8.3z"/></g><g><path class="st4" d="M14.6 147.7c-1-.1-2-.5-2.8-1.2l.8-1.1c.7.6 1.3.9 2.1 1V144c-1.8-.5-2.6-1.1-2.6-2.5 0-1.3 1-2.2 2.5-2.3v-.7h1v.7c.9.1 1.6.4 2.3.9l-.7 1.1c-.5-.4-1.1-.6-1.6-.8v2.3c1.8.5 2.6 1.2 2.6 2.5s-1 2.2-2.6 2.3v1.2h-1v-1zm.1-7.1c-.8.1-1.2.5-1.2 1s.2.8 1.2 1.1v-2.1zm2.1 4.9c0-.6-.3-.9-1.2-1.2v2.2c.8 0 1.2-.4 1.2-1zM19.5 146.6l2.9-2.5c1.2-1 1.6-1.5 1.6-2.3 0-.8-.6-1.3-1.4-1.3s-1.3.4-1.9 1.3l-1-.8c.8-1.1 1.6-1.8 3.1-1.8 1.6 0 2.8 1 2.8 2.5 0 1.3-.7 2-2.2 3.3l-1.7 1.4h4v1.3h-6.1v-1.1zM26.9 143.6c0-2.4 1.5-4.4 3.7-4.4s3.6 1.9 3.6 4.3-1.5 4.3-3.7 4.3c-2.1.1-3.6-1.8-3.6-4.2zm5.8 0c0-1.7-.9-3-2.1-3-1.3 0-2.1 1.3-2.1 3s.8 3 2.1 3 2.1-1.4 2.1-3zM36 139.3h1.5v4.2l4-4.2h1.8l-3.5 3.6 3.6 4.8h-1.8l-2.9-3.8-1.3 1.3v2.4H36v-8.3z"/></g><g><path class="st4" d="M16.9 175.6c-1-.1-2-.5-2.8-1.2l.8-1.1c.7.6 1.3.9 2.1 1V172c-1.8-.5-2.6-1.1-2.6-2.5 0-1.3 1-2.2 2.5-2.3v-.7h1v.7c.9.1 1.6.4 2.3.9l-.7 1.1c-.5-.4-1.1-.6-1.6-.8v2.3c1.8.5 2.6 1.2 2.6 2.5s-1 2.2-2.6 2.3v1.2h-1v-1.1zm.1-7.2c-.8.1-1.2.5-1.2 1s.2.8 1.2 1.1v-2.1zm2.1 4.9c0-.6-.3-.9-1.2-1.2v2.2c.8 0 1.2-.4 1.2-1zM23.3 168.6l-1.5.4-.3-1.2 2.3-.7h1v8.5h-1.5v-7zM26.6 171.4c0-2.4 1.5-4.4 3.7-4.4s3.6 1.9 3.6 4.3-1.5 4.3-3.7 4.3c-2.1.1-3.6-1.8-3.6-4.2zm5.8 0c0-1.7-.9-3-2.1-3-1.3 0-2.1 1.3-2.1 3s.8 3 2.1 3 2.1-1.3 2.1-3zM35.7 167.2h1.5v4.2l4-4.2H43l-3.5 3.6 3.6 4.8h-1.8l-2.9-3.8-1.3 1.3v2.4h-1.5v-8.3z"/></g><g><path class="st4" d="M22.3 203c-1-.1-2-.5-2.8-1.2l.8-1.1c.7.6 1.3.9 2.1 1v-2.4c-1.8-.5-2.6-1.1-2.6-2.5 0-1.3 1-2.2 2.5-2.3v-.7h1v.7c.9.1 1.6.4 2.3.9l-.7 1.1c-.5-.4-1.1-.6-1.6-.8v2.3c1.8.5 2.6 1.2 2.6 2.5s-1 2.2-2.6 2.3v1.2h-1v-1zm0-7.2c-.8.1-1.2.5-1.2 1s.2.8 1.2 1.1v-2.1zm2.2 5c0-.6-.3-.9-1.2-1.2v2.2c.7-.1 1.2-.5 1.2-1zM27.3 198.8c0-2.4 1.5-4.4 3.7-4.4s3.6 1.9 3.6 4.3-1.5 4.3-3.7 4.3c-2.2.2-3.6-1.8-3.6-4.2zm5.7 0c0-1.7-.9-3-2.1-3-1.3 0-2.1 1.3-2.1 3s.8 3 2.1 3 2.1-1.3 2.1-3zM36.3 194.6h1.5v4.2l4-4.2h1.8l-3.5 3.6 3.6 4.8H42l-2.9-3.8-1.3 1.3v2.4h-1.5v-8.3z"/></g></svg>