<svg xmlns="http://www.w3.org/2000/svg" width="217" height="217" viewBox="0 0 217 217"><path fill="#F89927" d="M72.73 66.214h35.12v128.23H72.73V66.213z"/><text transform="matrix(.903 0 0 1 20.248 168.56)" fill="#676868" font-family="'ArialMT'" font-size="11">$10K</text><text transform="matrix(.903 0 0 1 18.72 139.327)" fill="#676868" font-family="'ArialMT'" font-size="11">$20K</text><text transform="matrix(.903 0 0 1 18.72 110.093)" fill="#676868" font-family="'ArialMT'" font-size="11">$30K</text><text transform="matrix(.903 0 0 1 18.72 80.86)" fill="#676868" font-family="'ArialMT'" font-size="11">$40K</text><text transform="matrix(.903 0 0 1 18.72 51.624)" fill="#676868" font-family="'ArialMT'" font-size="11">$50K</text><text transform="matrix(.903 0 0 1 18.72 22.39)" fill="#676868" font-family="'ArialMT'" font-size="11">$60K</text><path fill="none" d="M37.293 189.65h23.964v17.44H37.293z"/><text transform="matrix(.903 0 0 1 37.297 197.66)" fill="#676868" font-family="'ArialMT'" font-size="11">0</text><path fill="#FCBA82" d="M127.964 33.214h35.907v161.23h-35.906z"/><g><path fill="none" d="M137.706 39.264h33.786v26.793h-33.786z"/><text transform="translate(137.717 47.06)" fill="#FFF" font-family="'GothamBook'" font-size="10.714">US</text></g><path fill="none" d="M83.65 71.635h33.786v26.792H83.65z"/><text transform="translate(83.642 79.473)" fill="#FFF" font-family="'GothamBook'" font-size="10.714">HI</text></svg>