<svg xmlns="http://www.w3.org/2000/svg" width="217" height="217" viewBox="0 0 217 217"><path fill="#F89928" d="M50.59 51.875h55.687V200.72H50.59V51.876z"/><g fill="#5A5A5A"><path d="M22.067 204.17v-.73c-.914-.093-1.733-.456-2.46-1.09l.73-.87c.56.487 1.136.777 1.73.87v-1.94c-.753-.18-1.305-.416-1.655-.71-.35-.292-.525-.728-.525-1.304 0-.577.202-1.05.605-1.415.403-.366.928-.565 1.575-.6v-.5h.64v.51c.733.054 1.426.304 2.08.75l-.65.92c-.44-.312-.917-.506-1.43-.58v1.88h.03c.767.18 1.33.424 1.69.73s.54.752.54 1.335c0 .584-.207 1.06-.62 1.426-.413.367-.96.567-1.64.6v.72h-.64zm-.705-6.455c-.17.15-.255.337-.255.56s.066.4.2.53c.133.13.387.256.76.376v-1.73c-.3.027-.535.115-.705.265zm2.105 4.386c.187-.152.28-.346.28-.58s-.073-.418-.22-.555c-.147-.136-.42-.265-.82-.385v1.8c.32-.033.574-.126.76-.28zM26.727 202.545c-.473-.656-.71-1.535-.71-2.635s.237-1.98.71-2.635c.474-.657 1.187-.985 2.14-.985.953 0 1.667.328 2.14.985.473.656.71 1.535.71 2.635s-.237 1.98-.71 2.635c-.474.657-1.187.985-2.14.985-.953 0-1.666-.328-2.14-.985zm.845-4.524c-.277.48-.415 1.11-.415 1.89s.138 1.41.415 1.89c.276.48.708.722 1.295.722s1.015-.238 1.285-.715.405-1.108.405-1.896c0-.785-.135-1.417-.405-1.894s-.7-.716-1.285-.716-1.018.24-1.295.72zM33.277 196.46h1.18v3.41l3.2-3.41h1.5l-2.81 3.06 2.85 3.93h-1.4l-2.32-3.06-1.02 1.1v1.96h-1.18v-6.99z"/></g><g fill="#5A5A5A"><path d="M17.086 175.842v-.73c-.914-.093-1.733-.456-2.46-1.09l.73-.87c.56.487 1.136.777 1.73.87v-1.94c-.753-.18-1.305-.416-1.655-.71-.35-.292-.524-.728-.524-1.304 0-.577.202-1.05.605-1.415.404-.367.93-.566 1.576-.6v-.5h.64v.51c.733.053 1.426.303 2.08.75l-.65.92c-.44-.313-.917-.507-1.43-.58v1.88h.03c.767.18 1.33.423 1.69.73s.54.75.54 1.334c0 .584-.207 1.06-.62 1.426-.413.366-.96.566-1.64.6v.72h-.64zm-.705-6.455c-.17.15-.254.337-.254.56s.066.4.2.53c.133.13.387.256.76.376v-1.73c-.3.025-.535.114-.705.264zm2.106 4.385c.187-.153.28-.347.28-.58s-.073-.42-.22-.556c-.147-.136-.42-.265-.82-.385v1.8c.32-.03.573-.124.76-.278zM20.736 168.132h2.54v6.99h-1.12v-5.94h-1.42v-1.05zM25.556 174.217c-.473-.656-.71-1.535-.71-2.635s.237-1.98.71-2.635c.474-.657 1.187-.985 2.14-.985.953 0 1.667.328 2.14.985.473.656.71 1.535.71 2.635s-.237 1.98-.71 2.635c-.474.657-1.187.985-2.14.985-.954 0-1.667-.328-2.14-.985zm.845-4.525c-.276.48-.414 1.11-.414 1.89s.138 1.41.415 1.89c.277.48.71.72 1.296.72s1.015-.237 1.285-.714.406-1.108.406-1.896c0-.786-.135-1.418-.405-1.895s-.698-.716-1.284-.716-1.02.242-1.295.722zM32.106 168.132h1.18v3.41l3.2-3.41h1.5l-2.81 3.06 2.85 3.93h-1.4l-2.32-3.06-1.02 1.1v1.96h-1.18v-6.99z"/></g><g fill="#5A5A5A"><path d="M13.392 147.504v-.73c-.914-.093-1.733-.456-2.46-1.09l.73-.87c.56.487 1.136.777 1.73.87v-1.94c-.753-.18-1.305-.416-1.655-.71-.35-.292-.525-.728-.525-1.304 0-.577.202-1.05.605-1.415.403-.367.928-.566 1.575-.6v-.5h.64v.51c.733.053 1.426.303 2.08.75l-.65.92c-.44-.313-.917-.507-1.43-.58v1.88h.03c.767.18 1.33.423 1.69.73s.54.75.54 1.334c0 .583-.207 1.058-.62 1.425-.413.366-.96.566-1.64.6v.72h-.64zm-.705-6.455c-.17.15-.255.336-.255.56s.066.4.2.53c.133.13.387.255.76.375v-1.73c-.3.026-.536.114-.705.264zm2.105 4.385c.187-.153.28-.347.28-.58s-.073-.42-.22-.556c-.147-.137-.42-.266-.82-.386v1.8c.32-.033.573-.126.76-.28zM20.46 142.524c.2-.273.3-.55.3-.83s-.105-.52-.32-.715c-.212-.198-.482-.296-.81-.296-.572 0-1.05.293-1.43.88l-.95-.55c.308-.46.646-.807 1.016-1.04.37-.233.846-.35 1.43-.35s1.095.185 1.535.554c.44.37.66.875.66 1.516 0 .36-.093.703-.28 1.03-.186.326-.53.746-1.03 1.26l-1.64 1.67h3.17v1.13h-4.78v-1l2.12-2.13c.475-.48.81-.856 1.01-1.13zM23.94 145.88c-.472-.657-.71-1.536-.71-2.636s.238-1.98.71-2.635c.475-.658 1.188-.986 2.14-.986.954 0 1.668.328 2.14.985.474.655.71 1.534.71 2.634s-.236 1.98-.71 2.635c-.473.656-1.186.984-2.14.984-.953 0-1.665-.328-2.14-.985zm.846-4.526c-.277.48-.415 1.11-.415 1.89s.14 1.41.416 1.89c.276.48.708.72 1.295.72s1.016-.237 1.286-.714.405-1.108.405-1.896c0-.786-.134-1.418-.404-1.895s-.7-.717-1.285-.717-1.017.24-1.294.72zM30.49 139.794h1.18v3.41l3.2-3.41h1.5l-2.81 3.06 2.85 3.93h-1.4l-2.32-3.06-1.02 1.1v1.96h-1.18v-6.99z"/></g><g fill="#5A5A5A"><path d="M13.392 119.166v-.73c-.914-.093-1.733-.456-2.46-1.09l.73-.87c.56.487 1.136.777 1.73.87v-1.94c-.753-.18-1.305-.416-1.655-.71-.35-.292-.525-.728-.525-1.304 0-.577.202-1.05.605-1.415.403-.367.928-.566 1.575-.6v-.5h.64v.51c.733.053 1.426.303 2.08.75l-.65.92c-.44-.313-.917-.507-1.43-.58v1.88h.03c.767.18 1.33.423 1.69.73s.54.75.54 1.334c0 .585-.207 1.06-.62 1.427-.413.366-.96.566-1.64.6v.72h-.64zm-.705-6.455c-.17.15-.255.338-.255.562s.066.4.2.53c.133.13.387.255.76.375v-1.73c-.3.026-.536.115-.705.264zm2.105 4.387c.187-.153.28-.347.28-.58s-.073-.42-.22-.556c-.147-.135-.42-.264-.82-.384v1.8c.32-.033.573-.126.76-.28zM17.52 112.506v-1.05h4.09v.92l-1.69 1.89c.64.02 1.14.223 1.5.605.36.385.54.843.54 1.376 0 .714-.24 1.273-.724 1.68-.483.407-1.105.61-1.865.61s-1.502-.243-2.23-.73l.5-.95c.574.4 1.174.6 1.8.6.408 0 .743-.094 1.006-.284.264-.19.395-.463.395-.82s-.145-.64-.44-.854c-.292-.213-.7-.32-1.22-.32-.26 0-.51.037-.75.11v-.9l1.62-1.88h-2.53zM23.83 117.54c-.472-.655-.71-1.534-.71-2.634s.238-1.98.71-2.635c.475-.656 1.188-.984 2.14-.984.954 0 1.668.328 2.14.985.474.657.71 1.536.71 2.636s-.236 1.98-.71 2.635c-.473.658-1.186.986-2.14.986-.952 0-1.665-.328-2.14-.985zm.846-4.523c-.277.48-.415 1.11-.415 1.89s.14 1.41.416 1.89c.276.48.708.72 1.295.72s1.016-.237 1.286-.714.405-1.108.405-1.896c0-.786-.134-1.418-.404-1.895s-.7-.716-1.285-.716-1.017.24-1.294.72zM30.38 111.456h1.18v3.41l3.2-3.41h1.5l-2.81 3.06 2.85 3.93h-1.4l-2.32-3.06-1.02 1.1v1.96h-1.18v-6.99z"/></g><g fill="#5A5A5A"><path d="M13.392 90.82v-.728c-.914-.094-1.733-.457-2.46-1.09l.73-.87c.56.486 1.136.776 1.73.87v-1.94c-.753-.18-1.305-.417-1.655-.71-.35-.293-.525-.73-.525-1.305 0-.577.202-1.05.605-1.415.403-.367.928-.566 1.575-.6v-.5h.64v.51c.733.053 1.426.303 2.08.75l-.65.92c-.44-.313-.917-.507-1.43-.58v1.88h.03c.767.18 1.33.423 1.69.73s.54.75.54 1.334c0 .584-.207 1.06-.62 1.426-.413.366-.96.566-1.64.6v.72h-.64zm-.705-6.454c-.17.15-.255.337-.255.56s.066.4.2.53c.133.13.387.256.76.376v-1.73c-.3.026-.536.115-.705.264zm2.105 4.386c.187-.153.28-.347.28-.58s-.073-.42-.22-.556c-.147-.136-.42-.265-.82-.385v1.8c.32-.032.573-.125.76-.278zM20.122 87.27v-1.28h1.12v1.28h.84v1.07h-.84v1.76h-1.12v-1.76h-3V87.3l2.57-4.19h1.29l-2.53 4.16h1.67zM23.77 89.196c-.472-.656-.71-1.535-.71-2.635s.238-1.978.71-2.634c.475-.657 1.188-.985 2.14-.985.954 0 1.668.33 2.14.986.474.656.71 1.535.71 2.635s-.236 1.98-.71 2.636c-.473.657-1.186.985-2.14.985-.952.002-1.665-.326-2.14-.984zm.846-4.524c-.277.48-.415 1.11-.415 1.89s.14 1.41.416 1.89c.276.48.708.72 1.295.72s1.016-.237 1.286-.714.405-1.108.405-1.896c0-.786-.134-1.418-.404-1.895s-.7-.716-1.285-.716-1.017.24-1.294.722zM30.32 83.11h1.18v3.41l3.2-3.41h1.5l-2.81 3.062 2.85 3.93h-1.4l-2.32-3.06-1.02 1.1v1.96h-1.18v-6.99z"/></g><g fill="#5A5A5A"><path d="M13.392 62.49v-.728c-.914-.094-1.733-.457-2.46-1.09l.73-.87c.56.486 1.136.776 1.73.87v-1.94c-.753-.18-1.305-.417-1.655-.71-.35-.293-.525-.73-.525-1.305 0-.577.202-1.05.605-1.415.403-.367.928-.566 1.575-.6v-.5h.64v.51c.733.053 1.426.303 2.08.75l-.65.92c-.44-.313-.917-.507-1.43-.58v1.88h.03c.767.18 1.33.423 1.69.73s.54.75.54 1.334c0 .584-.207 1.06-.62 1.426-.413.366-.96.566-1.64.6v.72h-.64zm-.705-6.454c-.17.15-.255.337-.255.56s.066.4.2.53c.133.13.387.256.76.376v-1.73c-.3.026-.536.115-.705.264zm2.105 4.386c.187-.153.28-.347.28-.58s-.073-.42-.22-.556c-.147-.136-.42-.265-.82-.385v1.8c.32-.032.573-.125.76-.278zM21.61 54.77v1.07h-2.95v1.72c.294-.16.627-.24 1-.24.654 0 1.217.198 1.69.59.474.395.71.928.71 1.602 0 .673-.246 1.23-.74 1.675-.492.443-1.1.665-1.82.665-.94 0-1.69-.313-2.25-.94l.63-.86c.054.054.126.117.216.19s.275.172.555.295c.28.124.587.186.92.186s.638-.1.91-.3c.274-.2.41-.492.41-.875 0-.384-.144-.68-.434-.89s-.657-.315-1.1-.315-.865.11-1.265.33l-.5-.54v-3.36h4.02zM23.84 60.866c-.472-.656-.71-1.535-.71-2.635s.238-1.978.71-2.634c.475-.657 1.188-.985 2.14-.985.954 0 1.668.33 2.14.986.474.656.71 1.535.71 2.635s-.236 1.98-.71 2.636c-.473.657-1.186.985-2.14.985-.952.002-1.665-.327-2.14-.984zm.847-4.524c-.277.48-.415 1.11-.415 1.89s.138 1.41.415 1.89c.276.48.708.72 1.295.72s1.015-.237 1.285-.714.405-1.108.405-1.896c0-.786-.135-1.418-.405-1.895s-.7-.716-1.285-.716-1.02.24-1.295.722zM30.392 54.78h1.18v3.41l3.2-3.41h1.5l-2.81 3.062 2.85 3.93h-1.4l-2.32-3.06-1.02 1.1v1.96h-1.18v-6.99z"/></g><g fill="#5A5A5A"><path d="M13.392 34.152v-.73c-.914-.093-1.733-.456-2.46-1.09l.73-.87c.56.487 1.136.777 1.73.87v-1.94c-.753-.18-1.305-.416-1.655-.71-.35-.292-.525-.728-.525-1.304 0-.577.202-1.05.605-1.415.403-.367.928-.566 1.575-.6v-.5h.64v.51c.733.053 1.426.303 2.08.75l-.65.92c-.44-.313-.917-.507-1.43-.58v1.88h.03c.767.18 1.33.423 1.69.73s.54.75.54 1.334c0 .584-.207 1.06-.62 1.426-.413.366-.96.566-1.64.6v.72h-.64zm-.705-6.455c-.17.15-.255.337-.255.56s.066.4.2.53c.133.13.387.256.76.376v-1.73c-.3.026-.536.115-.705.264zm2.105 4.386c.187-.153.28-.347.28-.58s-.073-.42-.22-.556c-.147-.136-.42-.265-.82-.385v1.8c.32-.033.573-.126.76-.28zM20.292 27.373c-.62 0-1.077.21-1.37.63s-.443.986-.45 1.7c.167-.188.406-.362.72-.525s.66-.245 1.04-.245c.626 0 1.15.208 1.575.625.423.417.635.97.635 1.66s-.23 1.245-.685 1.665-1.032.63-1.725.63c-1.12 0-1.893-.5-2.32-1.5-.24-.573-.36-1.22-.36-1.94s.077-1.32.23-1.8c.153-.48.363-.86.63-1.14.52-.547 1.158-.82 1.915-.82.756 0 1.44.237 2.055.71l-.59.87c-.153-.133-.358-.253-.615-.36-.257-.107-.485-.16-.685-.16zm-.215 2.6c-.404 0-.74.11-1.01.335s-.405.514-.405.87.13.663.39.92.587.385.98.385c.394 0 .72-.115.98-.345.26-.23.39-.523.39-.88s-.12-.66-.36-.91-.562-.375-.965-.375zM24.25 32.527c-.472-.656-.71-1.535-.71-2.635s.238-1.98.71-2.635c.475-.657 1.188-.985 2.14-.985.954 0 1.668.328 2.14.985.474.656.71 1.535.71 2.635s-.236 1.98-.71 2.635c-.473.657-1.186.985-2.14.985-.952 0-1.665-.327-2.14-.985zm.846-4.524c-.277.48-.415 1.11-.415 1.89s.14 1.41.416 1.89c.276.48.708.72 1.295.72s1.016-.237 1.286-.714.405-1.11.405-1.897c0-.786-.134-1.418-.404-1.895s-.7-.716-1.285-.716-1.017.24-1.294.72zM30.8 26.442h1.18v3.41l3.2-3.41h1.5l-2.81 3.06 2.85 3.93h-1.4L33 30.373l-1.02 1.1v1.96H30.8v-6.99z"/></g><g><path fill="#FCBA81" d="M135.643 38.975h55.694v162.63h-55.694z"/></g><g fill="#FFF"><path d="M76.974 62.826h2.88v12.91h-2.88v-5.08H71.84v5.08h-2.882v-12.91h2.88v5.393h5.136v-5.394zM83.03 62.826h2.882v12.91h-2.88v-12.91z"/></g><g fill="#FFF"><path d="M155.46 60.115c.48.598 1.128.896 1.94.896s1.456-.297 1.93-.895c.475-.597.712-1.413.712-2.447v-7.13h2.882v7.223c0 1.872-.518 3.31-1.553 4.314-1.032 1.004-2.356 1.505-3.97 1.505s-2.94-.505-3.98-1.515c-1.04-1.01-1.56-2.444-1.56-4.304v-7.22h2.88v7.128c0 1.034.24 1.85.72 2.447zM168.936 53.115c-.277.23-.416.53-.416.905s.17.674.508.896c.338.222 1.12.483 2.346.785 1.225.303 2.176.755 2.854 1.358.677.604 1.016 1.484 1.016 2.642s-.434 2.096-1.302 2.816c-.868.72-2.01 1.08-3.427 1.08-2.044 0-3.885-.757-5.52-2.27l1.716-2.106c1.393 1.22 2.68 1.828 3.86 1.828.53 0 .945-.113 1.248-.342.3-.228.452-.535.452-.923s-.16-.695-.48-.924c-.32-.23-.954-.46-1.9-.693-1.504-.357-2.603-.822-3.298-1.395-.696-.572-1.044-1.472-1.044-2.696 0-1.226.44-2.17 1.32-2.836.88-.664 1.98-.997 3.297-.997.862 0 1.724.147 2.586.443s1.613.714 2.254 1.256l-1.46 2.105c-1.12-.85-2.276-1.274-3.472-1.274-.482 0-.86.115-1.136.342z"/></g></svg>