<svg id="Layer_1" xmlns="http://www.w3.org/2000/svg" xmlns:xlink="http://www.w3.org/1999/xlink" viewBox="0 0 217 217"><style>.st0{fill:#505150;}</style><defs><path id="SVGID_1_" d="M46.9 43.5h28v137h-28z"/></defs><use xlink:href="#SVGID_1_" overflow="visible" fill-rule="evenodd" clip-rule="evenodd" fill="#F89929"/><clipPath id="SVGID_2_"><use xlink:href="#SVGID_1_" overflow="visible"/></clipPath><defs><path id="SVGID_3_" d="M92.7 21.3h28v159.1h-28z"/></defs><use xlink:href="#SVGID_3_" overflow="visible" fill-rule="evenodd" clip-rule="evenodd" fill="#F89929"/><clipPath id="SVGID_4_"><use xlink:href="#SVGID_3_" overflow="visible"/></clipPath><defs><path id="SVGID_5_" d="M136.5 26.7h28v153.8h-28z"/></defs><use xlink:href="#SVGID_5_" overflow="visible" fill-rule="evenodd" clip-rule="evenodd" fill="#F89929"/><clipPath id="SVGID_6_"><use xlink:href="#SVGID_5_" overflow="visible"/></clipPath><defs><path id="SVGID_7_" d="M178.6 46h28v134.5h-28z"/></defs><use xlink:href="#SVGID_7_" overflow="visible" fill-rule="evenodd" clip-rule="evenodd" fill="#F89929"/><clipPath id="SVGID_8_"><use xlink:href="#SVGID_7_" overflow="visible"/></clipPath><path class="st0" d="M19.8 179.3c0-2.6 1.6-4.6 3.9-4.6s3.9 2 3.9 4.6c0 2.6-1.6 4.6-3.9 4.6s-3.9-2-3.9-4.6zm6.2 0c0-1.8-.9-3.2-2.3-3.2s-2.3 1.4-2.3 3.2c0 1.8.9 3.2 2.3 3.2s2.3-1.4 2.3-3.2zM11.8 155.1l3.1-2.6c1.2-1 1.7-1.6 1.7-2.4 0-.9-.6-1.4-1.4-1.4-.8 0-1.4.4-2.1 1.3l-1.1-.9c.9-1.2 1.7-1.9 3.3-1.9 1.7 0 2.9 1.1 2.9 2.7 0 1.4-.7 2.2-2.3 3.5L14 155h4.2v1.4h-6.5v-1.3zM19.7 151.9c0-2.6 1.6-4.6 3.9-4.6s3.9 2 3.9 4.6c0 2.6-1.6 4.6-3.9 4.6-2.4 0-3.9-2-3.9-4.6zm6.2 0c0-1.8-.9-3.2-2.3-3.2s-2.3 1.4-2.3 3.2c0 1.8.9 3.2 2.3 3.2s2.3-1.4 2.3-3.2z"/><g><path class="st0" d="M15.6 127h-4.5l-.3-1.1 5-5.9h1.3v5.7h1.3v1.3h-1.3v2h-1.5v-2zm0-1.3v-3.5l-2.9 3.5h2.9zM19.7 124.5c0-2.6 1.6-4.6 3.9-4.6s3.9 2 3.9 4.6c0 2.6-1.6 4.6-3.9 4.6s-3.9-2-3.9-4.6zm6.2 0c0-1.8-.9-3.2-2.3-3.2s-2.3 1.4-2.3 3.2c0 1.8.9 3.2 2.3 3.2s2.3-1.4 2.3-3.2z"/></g><g><path class="st0" d="M12.5 100.8c-.7-.7-1.1-1.6-1.1-3.4 0-2.7 1.3-4.9 3.8-4.9 1.2 0 2 .4 2.7 1l-.8 1.2c-.6-.5-1.2-.8-1.9-.8-1.3 0-2.1 1.2-2.1 2.8.5-.5 1.1-.9 2.1-.9 1.7 0 3.1 1 3.1 2.8 0 1.8-1.4 3-3.3 3-1.1.1-1.9-.2-2.5-.8zm4.2-2.1c0-.9-.7-1.6-1.8-1.6s-1.8.7-1.8 1.6c0 .9.7 1.6 1.8 1.6 1.1.1 1.8-.6 1.8-1.6zM19.8 97.1c0-2.6 1.6-4.6 3.9-4.6s3.9 2 3.9 4.6c0 2.6-1.6 4.6-3.9 4.6-2.4 0-3.9-2-3.9-4.6zm6.1 0c0-1.8-.9-3.2-2.3-3.2s-2.3 1.4-2.3 3.2c0 1.8.9 3.2 2.3 3.2s2.3-1.4 2.3-3.2z"/></g><g><path class="st0" d="M11.7 71.8c0-1.1.6-1.8 1.6-2.2-.8-.4-1.3-1-1.3-2 0-1.4 1.3-2.4 3.1-2.4s3.1 1 3.1 2.4c0 1-.5 1.6-1.3 2 1 .4 1.6 1.1 1.6 2.1 0 1.6-1.5 2.6-3.4 2.6s-3.4-1-3.4-2.5zm5.3-.1c0-.8-.8-1.4-1.9-1.4-1.1 0-1.9.5-1.9 1.4 0 .7.7 1.3 1.9 1.3s1.9-.6 1.9-1.3zm-.3-4c0-.7-.6-1.3-1.6-1.3s-1.6.6-1.6 1.2c0 .8.7 1.3 1.6 1.3.9.1 1.6-.4 1.6-1.2zM19.8 69.7c0-2.6 1.6-4.6 3.9-4.6s3.9 2 3.9 4.6c0 2.6-1.6 4.6-3.9 4.6s-3.9-2-3.9-4.6zm6.2 0c0-1.8-.9-3.2-2.3-3.2s-2.3 1.4-2.3 3.2c0 1.8.9 3.2 2.3 3.2s2.3-1.4 2.3-3.2z"/></g><g><path class="st0" d="M6.7 39.4l-1.6.4-.3-1.3 2.4-.8h1.1v9H6.7v-7.3zM10.2 42.4c0-2.6 1.6-4.6 3.9-4.6s3.9 2 3.9 4.6c0 2.6-1.6 4.6-3.9 4.6-2.4-.1-3.9-2.1-3.9-4.6zm6.1 0c0-1.8-.9-3.2-2.3-3.2s-2.3 1.4-2.3 3.2c0 1.8.9 3.2 2.3 3.2s2.3-1.5 2.3-3.2zM19.4 42.4c0-2.6 1.6-4.6 3.9-4.6s3.9 2 3.9 4.6c0 2.6-1.6 4.6-3.9 4.6-2.3-.1-3.9-2.1-3.9-4.6zm6.2 0c0-1.8-.9-3.2-2.3-3.2S21 40.6 21 42.4c0 1.8.9 3.2 2.3 3.2 1.4-.1 2.3-1.5 2.3-3.2z"/></g><g><path class="st0" d="M8 12l-1.6.4-.3-1.3 2.4-.8h1.1v9H8V12zM11.4 18.2l3.1-2.6c1.2-1 1.7-1.6 1.7-2.4 0-.9-.6-1.4-1.4-1.4s-1.4.4-2.1 1.3l-1.1-.9c.9-1.2 1.7-1.9 3.3-1.9 1.7 0 2.9 1.1 2.9 2.7 0 1.4-.7 2.2-2.3 3.5L13.7 18h4.2v1.4h-6.5v-1.2zM19.4 15c0-2.6 1.6-4.6 3.9-4.6s3.9 2 3.9 4.6c0 2.6-1.6 4.6-3.9 4.6-2.4 0-3.9-2.1-3.9-4.6zm6.1 0c0-1.8-.9-3.2-2.3-3.2s-2.3 1.4-2.3 3.2c0 1.8.9 3.2 2.3 3.2 1.5-.1 2.3-1.5 2.3-3.2z"/></g><g><path class="st0" d="M53.9 194.3v-5.1h1.6v5.1c0 1.7.9 2.6 2.3 2.6s2.2-.8 2.2-2.5v-5.1h1.6v5.1c0 2.7-1.5 4-3.8 4-2.5-.1-3.9-1.5-3.9-4.1zM63.1 196.8l.9-1.1c.9.7 1.7 1.2 2.8 1.2 1 0 1.6-.4 1.6-1.1 0-.6-.4-1-2-1.4-1.9-.5-3-1-3-2.7 0-1.5 1.3-2.6 3-2.6 1.3 0 2.3.4 3.2 1.1l-.8 1.2c-.8-.6-1.6-.9-2.4-.9-.9 0-1.5.5-1.5 1.1 0 .7.4 1 2.1 1.4 1.9.5 2.9 1.1 2.9 2.6 0 1.7-1.3 2.7-3.2 2.7-1.3 0-2.6-.5-3.6-1.5z"/></g><g><path class="st0" d="M99.9 189.2h1.6v3.7h4.3v-3.7h1.6v8.9h-1.6v-3.8h-4.3v3.8h-1.6v-8.9zM109.7 189.2h1.6v8.9h-1.6v-8.9z"/></g><g><path class="st0" d="M142.1 193.7c0-2.6 1.9-4.6 4.6-4.6 1.6 0 2.6.6 3.5 1.4l-1 1.2c-.7-.7-1.5-1.1-2.5-1.1-1.7 0-2.9 1.4-2.9 3.1 0 1.7 1.2 3.2 2.9 3.2 1.1 0 1.8-.4 2.6-1.2l1 1c-.9 1-2 1.6-3.6 1.6-2.6 0-4.6-2-4.6-4.6zM155.1 189.1h1.5l3.9 9h-1.7l-.9-2.2h-4.2l-.9 2.2h-1.6l3.9-9zm2.3 5.5l-1.5-3.6-1.5 3.6h3z"/></g><g><path class="st0" d="M184.9 189.2h1.5l4.8 6.2v-6.2h1.5v8.9h-1.3l-4.9-6.4v6.4H185v-8.9zM194.2 189.2h1.7l2.7 6.9 2.7-6.9h1.7l-3.7 9h-1.4l-3.7-9z"/></g></svg>