<svg xmlns="http://www.w3.org/2000/svg" xmlns:xlink="http://www.w3.org/1999/xlink" viewBox="0 0 217 217" enable-background="new 0 0 217 217"><style type="text/css">.st0{fill:#505150;}</style><defs><path id="SVGID_1_" d="M54.4 67.7h26.3v128.8H54.4z"/></defs><use xlink:href="#SVGID_1_" overflow="visible" fill-rule="evenodd" clip-rule="evenodd" fill="#F89929"/><clipPath id="SVGID_2_"><use xlink:href="#SVGID_1_" overflow="visible"/></clipPath><defs><path id="SVGID_3_" d="M97.4 46.9h26.3v149.7H97.4z"/></defs><use xlink:href="#SVGID_3_" overflow="visible" fill-rule="evenodd" clip-rule="evenodd" fill="#F89929"/><clipPath id="SVGID_4_"><use xlink:href="#SVGID_3_" overflow="visible"/></clipPath><defs><path id="SVGID_5_" d="M138.7 51.9H165v144.6h-26.3z"/></defs><use xlink:href="#SVGID_5_" overflow="visible" fill-rule="evenodd" clip-rule="evenodd" fill="#F89929"/><clipPath id="SVGID_6_"><use xlink:href="#SVGID_5_" overflow="visible"/></clipPath><defs><path id="SVGID_7_" d="M178.2 70.1h26.3v126.5h-26.3z"/></defs><use xlink:href="#SVGID_7_" overflow="visible" fill-rule="evenodd" clip-rule="evenodd" fill="#F89929"/><clipPath id="SVGID_8_"><use xlink:href="#SVGID_7_" overflow="visible"/></clipPath><path class="st0" d="M28.9 195.4c0-2.4 1.5-4.4 3.7-4.4s3.6 1.9 3.6 4.3-1.5 4.3-3.7 4.3c-2.1.1-3.6-1.8-3.6-4.2zm5.8 0c0-1.7-.9-3-2.1-3s-2.1 1.3-2.1 3 .8 3 2.1 3 2.1-1.3 2.1-3zM21.4 172.7l2.9-2.5c1.2-1 1.6-1.5 1.6-2.3 0-.8-.6-1.3-1.4-1.3s-1.3.4-1.9 1.3l-1-.8c.8-1.1 1.6-1.8 3.1-1.8 1.6 0 2.8 1 2.8 2.5 0 1.3-.7 2-2.2 3.2l-1.7 1.4h4v1.3h-6.1v-1zM28.8 169.7c0-2.4 1.5-4.4 3.7-4.4s3.6 1.9 3.6 4.3-1.5 4.3-3.7 4.3c-2.1.1-3.6-1.8-3.6-4.2zm5.8 0c0-1.7-.9-3-2.1-3s-2.1 1.3-2.1 3 .8 3 2.1 3 2.1-1.4 2.1-3zM24.9 146.2h-4.2l-.3-1.1 4.7-5.5h1.3v5.4h1.2v1.2h-1.2v1.9H25v-1.9zm0-1.2v-3.3l-2.8 3.3h2.8zM28.8 143.9c0-2.4 1.5-4.4 3.7-4.4s3.6 1.9 3.6 4.3-1.5 4.3-3.7 4.3c-2.1.1-3.6-1.8-3.6-4.2zm5.8 0c0-1.7-.9-3-2.1-3s-2.1 1.3-2.1 3 .8 3 2.1 3 2.1-1.3 2.1-3zM22 121.6c-.6-.6-1-1.5-1-3.2 0-2.6 1.2-4.6 3.6-4.6 1.1 0 1.8.3 2.6.9l-.8 1.1c-.6-.5-1.1-.7-1.8-.7-1.2 0-1.9 1.1-2 2.7.4-.4 1-.8 2-.8 1.6 0 2.9 1 2.9 2.6 0 1.7-1.4 2.9-3.1 2.9-1.1 0-1.8-.4-2.4-.9zm4-1.9c0-.9-.7-1.5-1.7-1.5s-1.7.7-1.7 1.5c0 .9.7 1.5 1.7 1.5 1.1 0 1.7-.7 1.7-1.5zM28.9 118.1c0-2.4 1.5-4.4 3.7-4.4s3.6 1.9 3.6 4.3-1.5 4.3-3.7 4.3c-2.2.2-3.6-1.8-3.6-4.2zm5.8 0c0-1.7-.9-3-2.1-3s-2.1 1.3-2.1 3 .8 3 2.1 3 2.1-1.3 2.1-3zM21.3 94.3c0-1 .6-1.7 1.5-2.1-.7-.4-1.2-.9-1.2-1.9 0-1.3 1.2-2.3 2.9-2.3s2.9 1 2.9 2.3c0 .9-.5 1.5-1.2 1.9.9.4 1.5 1 1.5 2 0 1.5-1.4 2.4-3.2 2.4s-3.2-.9-3.2-2.3zm4.9-.1c0-.8-.8-1.3-1.8-1.3s-1.8.5-1.8 1.3c0 .7.7 1.3 1.8 1.3s1.8-.6 1.8-1.3zm-.2-3.7c0-.7-.6-1.2-1.5-1.2s-1.5.5-1.5 1.1c0 .7.6 1.2 1.5 1.2.8.1 1.5-.4 1.5-1.1zM28.9 92.4c0-2.4 1.5-4.4 3.7-4.4s3.6 1.9 3.6 4.3-1.5 4.3-3.7 4.3c-2.1.1-3.6-1.8-3.6-4.2zm5.8 0c0-1.7-.9-3-2.1-3s-2.1 1.3-2.1 3 .8 3 2.1 3 2.1-1.4 2.1-3zM16.6 63.8l-1.6.5-.3-1.2 2.3-.7h1v8.5h-1.5v-7.1zM19.9 66.6c0-2.4 1.5-4.4 3.7-4.4s3.6 1.9 3.6 4.3-1.5 4.3-3.7 4.3c-2.2.1-3.6-1.8-3.6-4.2zm5.8 0c0-1.7-.9-3-2.1-3s-2.1 1.3-2.1 3 .8 3 2.1 3 2.1-1.3 2.1-3zM28.5 66.6c0-2.4 1.5-4.4 3.7-4.4s3.6 1.9 3.6 4.3-1.5 4.3-3.7 4.3c-2.1.1-3.6-1.8-3.6-4.2zm5.8 0c0-1.7-.9-3-2.1-3s-2.1 1.3-2.1 3 .8 3 2.1 3 2.1-1.3 2.1-3zM17.8 38.1l-1.5.4-.3-1.2 2.3-.7h1V45h-1.5v-6.9zM21.1 43.9l2.9-2.5c1.2-1 1.6-1.5 1.6-2.3 0-.8-.6-1.3-1.4-1.3s-1.3.4-1.9 1.3l-1-.8c.8-1.1 1.6-1.8 3.1-1.8 1.6 0 2.8 1 2.8 2.5 0 1.3-.7 2-2.2 3.3l-1.7 1.4h4V45h-6.1v-1.1zM28.5 40.9c0-2.4 1.5-4.4 3.7-4.4s3.6 1.9 3.6 4.3-1.5 4.3-3.7 4.3c-2.2.1-3.6-1.8-3.6-4.2zm5.8 0c0-1.7-.9-3-2.1-3s-2.1 1.3-2.1 3 .8 3 2.1 3c1.3-.1 2.1-1.4 2.1-3zM17.1 12.3l-1.5.4-.3-1.2 2.3-.7h1v8.5h-1.5v-7zM24.6 17.4h-4.2l-.3-1.1 4.7-5.5H26v5.4h1.2v1.2H26v1.9h-1.4v-1.9zm0-1.2v-3.3l-2.8 3.3h2.8zM28.5 15.1c0-2.4 1.5-4.4 3.7-4.4s3.6 1.9 3.6 4.3-1.5 4.3-3.7 4.3c-2.1.1-3.6-1.8-3.6-4.2zm5.8 0c0-1.7-.9-3-2.1-3s-2.1 1.3-2.1 3 .8 3 2.1 3 2.1-1.3 2.1-3zM60.9 209.6v-4.8h1.5v4.8c0 1.6.8 2.4 2.1 2.4s2.1-.8 2.1-2.3v-4.8h1.5v4.8c0 2.5-1.4 3.8-3.6 3.8-2.2-.2-3.6-1.5-3.6-3.9zM69.6 211.9l.9-1.1c.8.7 1.6 1.1 2.7 1.1.9 0 1.5-.4 1.5-1.1 0-.6-.3-.9-1.9-1.3-1.8-.4-2.8-1-2.8-2.5 0-1.4 1.2-2.4 2.9-2.4 1.2 0 2.2.4 3 1.1l-.8 1.1c-.8-.6-1.5-.9-2.3-.9-.9 0-1.4.4-1.4 1s.4.9 2 1.3c1.8.4 2.7 1.1 2.7 2.5 0 1.6-1.2 2.5-3 2.5-1.3.1-2.5-.4-3.5-1.3zM104.2 204.7h1.5v3.5h4v-3.5h1.5v8.4h-1.5v-3.5h-4v3.5h-1.5v-8.4zM113.4 204.7h1.5v8.4h-1.5v-8.4zM144 209c0-2.4 1.8-4.4 4.3-4.4 1.5 0 2.5.5 3.3 1.3l-.9 1.1c-.7-.6-1.4-1-2.4-1-1.6 0-2.8 1.3-2.8 3 0 1.6 1.2 3 2.8 3 1 0 1.7-.4 2.4-1.1l.9 1c-.9.9-1.8 1.5-3.4 1.5-2.4-.1-4.2-2-4.2-4.4zM156.2 204.7h1.4l3.7 8.5h-1.6l-.9-2h-4l-.9 2h-1.5l3.8-8.5zm2.1 5.1l-1.5-3.4-1.4 3.4h2.9zM184.2 204.7h1.4l4.5 5.8v-5.8h1.5v8.4h-1.2l-4.6-6v6h-1.5v-8.4zM192.9 204.7h1.6l2.5 6.5 2.5-6.5h1.6l-3.5 8.5h-1.3l-3.4-8.5z"/></svg>