<svg id="Layer_1" xmlns="http://www.w3.org/2000/svg" xmlns:xlink="http://www.w3.org/1999/xlink" viewBox="0 0 217 217"><style>.st0{fill:#505150;}</style><defs><path id="SVGID_1_" d="M73.4 59.2h56.4v138.3H73.4z"/></defs><use xlink:href="#SVGID_1_" overflow="visible" fill-rule="evenodd" clip-rule="evenodd" fill="#1D809B"/><clipPath id="SVGID_2_"><use xlink:href="#SVGID_1_" overflow="visible"/></clipPath><defs><path id="SVGID_3_" d="M145.6 41.1H202v156.3h-56.4z"/></defs><use xlink:href="#SVGID_3_" overflow="visible" fill-rule="evenodd" clip-rule="evenodd" fill="#1D809B"/><clipPath id="SVGID_4_"><use xlink:href="#SVGID_3_" overflow="visible"/></clipPath><path class="st0" d="M54 197.6c0-2.4 1.5-4.4 3.7-4.4s3.6 1.9 3.6 4.3-1.5 4.3-3.7 4.3c-2.1.1-3.6-1.8-3.6-4.2zm5.8 0c0-1.7-.9-3-2.1-3s-2.1 1.3-2.1 3 .8 3 2.1 3 2.1-1.4 2.1-3zM53.9 153.2l.9-1.1c.7.6 1.4 1 2.2 1 1 0 1.7-.6 1.7-1.5s-.7-1.4-1.7-1.4c-.6 0-1.1.2-1.5.4l-.9-.6.2-4.1h5v1.3H56l-.1 2c.4-.1.8-.2 1.3-.2 1.6 0 2.9.9 2.9 2.6 0 1.7-1.2 2.8-3.1 2.8-1.3.1-2.3-.4-3.1-1.2zM50.1 100l-1.5.4-.3-1.2 2.3-.7h1v8.5h-1.5v-7zM53.4 102.8c0-2.4 1.5-4.4 3.7-4.4s3.6 1.9 3.6 4.3-1.5 4.3-3.7 4.3c-2.2.1-3.6-1.8-3.6-4.2zm5.8 0c0-1.7-.9-3-2.1-3s-2.1 1.3-2.1 3 .8 3 2.1 3 2.1-1.3 2.1-3z"/><g><path class="st0" d="M50.1 52.7l-1.5.4-.3-1.2 2.3-.7h1v8.5h-1.5v-7zM53.3 58.5l.9-1.1c.7.6 1.4 1 2.2 1 1 0 1.7-.6 1.7-1.5s-.7-1.4-1.7-1.4c-.6 0-1.1.2-1.5.4l-.9-.6.2-4.1h5v1.3h-3.7l-.1 2c.4-.1.8-.2 1.3-.2 1.6 0 2.9.9 2.9 2.6 0 1.7-1.2 2.8-3.1 2.8-1.4.1-2.5-.4-3.2-1.2z"/></g><g><path class="st0" d="M48.5 11.1l2.9-2.5c1.2-1 1.6-1.5 1.6-2.3 0-.8-.6-1.3-1.4-1.3s-1.3.4-1.9 1.3l-1-.8c.8-1.1 1.6-1.8 3.1-1.8 1.6 0 2.8 1 2.8 2.5 0 1.3-.7 2-2.2 3.3L50.6 11h4v1.3h-6.1v-1.2zM56 8.1c0-2.4 1.5-4.4 3.7-4.4s3.6 1.9 3.6 4.3-1.5 4.3-3.7 4.3c-2.2.1-3.6-1.8-3.6-4.2zm5.8 0c0-1.7-.9-3-2.1-3s-2.1 1.3-2.1 3 .8 3 2.1 3 2.1-1.4 2.1-3z"/></g><g><path class="st0" d="M91.3 213.8l2.9-2.5c1.2-1 1.6-1.5 1.6-2.3 0-.8-.6-1.3-1.4-1.3-.8 0-1.3.4-1.9 1.3l-1-.8c.8-1.1 1.6-1.8 3.1-1.8 1.6 0 2.8 1 2.8 2.5 0 1.3-.7 2-2.2 3.2l-1.7 1.4h4v1.3h-6.1v-1zM98.8 210.8c0-2.4 1.5-4.4 3.7-4.4s3.6 1.9 3.6 4.3-1.5 4.3-3.7 4.3c-2.2.1-3.6-1.8-3.6-4.2zm5.8 0c0-1.7-.9-3-2.1-3-1.3 0-2.1 1.3-2.1 3s.8 3 2.1 3 2.1-1.4 2.1-3zM107.5 210.8c0-2.4 1.5-4.4 3.7-4.4s3.6 1.9 3.6 4.3-1.5 4.3-3.7 4.3c-2.2.1-3.6-1.8-3.6-4.2zm5.8 0c0-1.7-.9-3-2.1-3-1.3 0-2.1 1.3-2.1 3s.8 3 2.1 3 2.1-1.4 2.1-3zM116.2 210.8c0-2.4 1.5-4.4 3.7-4.4s3.6 1.9 3.6 4.3-1.5 4.3-3.7 4.3c-2.2.1-3.6-1.8-3.6-4.2zm5.8 0c0-1.7-.9-3-2.1-3-1.3 0-2.1 1.3-2.1 3s.8 3 2.1 3 2.1-1.4 2.1-3z"/></g><g><path class="st0" d="M163.6 213.8l2.9-2.5c1.2-1 1.6-1.5 1.6-2.3 0-.8-.6-1.3-1.4-1.3s-1.3.4-1.9 1.3l-1-.8c.8-1.1 1.6-1.8 3.1-1.8 1.6 0 2.8 1 2.8 2.5 0 1.3-.7 2-2.2 3.2l-1.7 1.4h4v1.3h-6.1v-1zM171 210.8c0-2.4 1.5-4.4 3.7-4.4s3.6 1.9 3.6 4.3-1.5 4.3-3.7 4.3c-2.1.1-3.6-1.8-3.6-4.2zm5.8 0c0-1.7-.9-3-2.1-3-1.3 0-2.1 1.3-2.1 3s.8 3 2.1 3 2.1-1.4 2.1-3zM181.2 208l-1.5.4-.3-1.2 2.3-.7h1v8.5h-1.5v-7zM184.3 213.6l1-1c.6.7 1.3 1.1 2.2 1.1.8 0 1.5-.5 1.5-1.3s-.8-1.3-1.9-1.3h-.7l-.2-.9 2.3-2.4h-3.6v-1.3h5.6v1.1L188 210c1.3.2 2.5.8 2.5 2.4 0 1.5-1.2 2.7-2.9 2.7-1.5 0-2.6-.6-3.3-1.5z"/></g><g><path class="st0" d="M22.2 202.2v-1.5h1.1c-.7-.5-1.2-1.1-1.2-2.1 0-1.5 1.2-3 3.3-3 2.1 0 3.3 1.4 3.3 3 0 1-.5 1.7-1.1 2.1h2.9v1.5h-8.3zm3.2-5c-1.2 0-2.1.8-2.1 1.8s.8 1.8 2 1.8 2-.9 2-1.8c.1-1-.7-1.8-1.9-1.8zM25.4 194.6c-1.8 0-3.3-1.3-3.3-3.1 0-2 1.6-3 3.4-3h.4v4.7c1-.2 1.6-.9 1.6-1.8 0-.7-.3-1.2-.8-1.7l.8-.9c.7.6 1.2 1.4 1.2 2.6 0 1.7-1.4 3.2-3.3 3.2zm-.5-4.7c-.9.1-1.7.6-1.7 1.6 0 .9.7 1.5 1.7 1.6v-3.2zM22.2 187v-1.5h1.4c-.9-.4-1.6-1.1-1.5-2.2h1.5v.1c0 1.3.8 2.2 2.5 2.2h2.4v1.5h-6.3zM21.6 177.2l.4 1.5-1.2.3-.7-2.3v-1h8.5v1.5h-7zM24.3 173.9c-2.4 0-4.4-1.5-4.4-3.7s1.9-3.6 4.3-3.6 4.3 1.5 4.3 3.7c.2 2.1-1.8 3.6-4.2 3.6zm0-5.8c-1.7 0-3 .9-3 2.1 0 1.3 1.3 2.1 3 2.1s3-.8 3-2.1-1.3-2.1-3-2.1zM24.3 165.2c-2.4 0-4.4-1.5-4.4-3.7s1.9-3.6 4.3-3.6 4.3 1.5 4.3 3.7c.2 2.2-1.8 3.6-4.2 3.6zm0-5.8c-1.7 0-3 .9-3 2.1 0 1.3 1.3 2.1 3 2.1s3-.8 3-2.1-1.3-2.1-3-2.1zM24.3 156.5c-2.4 0-4.4-1.5-4.4-3.7s1.9-3.6 4.3-3.6 4.3 1.5 4.3 3.7c.2 2.2-1.8 3.6-4.2 3.6zm0-5.8c-1.7 0-3 .9-3 2.1 0 1.3 1.3 2.1 3 2.1s3-.8 3-2.1-1.3-2.1-3-2.1zM25.4 144.3c-1.8 0-3.3-1.4-3.3-3.3 0-1.2.4-1.9 1.1-2.5l1 .9c-.5.4-.8.9-.8 1.6 0 1.1.9 1.8 2 1.8s2-.8 2-1.9c0-.7-.3-1.2-.8-1.6l.9-.9c.7.6 1.2 1.4 1.2 2.6 0 1.9-1.5 3.3-3.3 3.3zM25.4 137.7c-1.8 0-3.3-1.4-3.3-3.4 0-1.9 1.5-3.4 3.3-3.4 1.8 0 3.3 1.4 3.3 3.4 0 1.9-1.5 3.4-3.3 3.4zm0-5.3c-1.1 0-2.1.8-2.1 1.9 0 1.2.9 1.9 2 1.9s2-.8 2-1.9c.1-1.2-.8-1.9-1.9-1.9zM19.8 129.3v-1.5h8.8v1.5h-8.8zM19.8 125.9v-1.5h8.8v1.5h-8.8zM25.4 122.9c-1.8 0-3.3-1.3-3.3-3.1 0-2 1.6-3 3.4-3h.4v4.7c1-.2 1.6-.9 1.6-1.8 0-.7-.3-1.2-.8-1.7l.8-.9c.7.6 1.2 1.4 1.2 2.6 0 1.8-1.4 3.2-3.3 3.2zm-.5-4.7c-.9.1-1.7.6-1.7 1.6 0 .9.7 1.5 1.7 1.6v-3.2zM29.7 115.3l-1.1-.5c.4-.7.7-1.4.7-2.3 0-1.3-.7-2-1.9-2h-.5c.7.5 1.2 1.2 1.2 2.2 0 1.5-1.1 2.9-3 2.9s-3-1.4-3-2.9c0-1.1.5-1.7 1.1-2.2h-.9V109h5c1.1 0 1.9.3 2.4.8.6.6.9 1.5.9 2.6-.1 1.1-.4 2.1-.9 2.9zm-4.7-4.8c-1.1 0-1.8.9-1.8 1.9s.7 1.8 1.7 1.8 1.8-.8 1.8-1.8c.1-1-.6-1.9-1.7-1.9zM25.4 107.6c-1.8 0-3.3-1.3-3.3-3.1 0-2 1.6-3 3.4-3h.4v4.7c1-.2 1.6-.9 1.6-1.8 0-.7-.3-1.2-.8-1.7l.8-.9c.7.6 1.2 1.4 1.2 2.6 0 1.8-1.4 3.2-3.3 3.2zm-.5-4.7c-.9.1-1.7.6-1.7 1.6 0 .9.7 1.5 1.7 1.6v-3.2zM28.5 92.6h-.8c.5.4.9 1.1.9 2.1 0 1.2-.7 2.3-2 2.3-1.4 0-2.1-1.1-2.1-2.6 0-.8.1-1.3.3-1.8h-.1c-.9 0-1.4.6-1.4 1.6 0 .7.2 1.2.4 1.8l-1.2.4c-.3-.7-.5-1.4-.5-2.4 0-1.9 1-2.8 2.7-2.8h3.8v1.4zm-2.6-.1c-.1.4-.3.9-.3 1.5 0 .9.4 1.5 1 1.5s.9-.5.9-1.2c0-1-.5-1.7-1.3-1.7h-.3zM29.7 89.4l-1.1-.5c.4-.7.7-1.4.7-2.3 0-1.3-.7-2-1.9-2h-.5c.7.5 1.2 1.2 1.2 2.2 0 1.5-1.1 2.9-3 2.9s-3-1.4-3-2.9c0-1.1.5-1.7 1.1-2.2h-.9v-1.5h5c1.1 0 1.9.3 2.4.8.6.6.9 1.5.9 2.6-.1 1.1-.4 2.1-.9 2.9zM25 84.6c-1.1 0-1.8.9-1.8 1.9 0 1 .7 1.8 1.7 1.8s1.8-.8 1.8-1.8c.1-1.1-.6-1.9-1.7-1.9zM25.4 81.7c-1.8 0-3.3-1.3-3.3-3.1 0-2 1.6-3 3.4-3h.4v4.7c1-.2 1.6-.9 1.6-1.8 0-.7-.3-1.2-.8-1.7l.8-.9c.7.6 1.2 1.4 1.2 2.6 0 1.8-1.4 3.2-3.3 3.2zm-.5-4.7c-.9.1-1.7.6-1.7 1.6 0 .9.7 1.5 1.7 1.6V77zM25.4 74.4c-2.1 0-3.3-1.4-3.3-2.9 0-1 .5-1.7 1.1-2.2h-3.4v-1.5h8.8v1.5h-1.1c.7.5 1.2 1.1 1.2 2.2-.1 1.5-1.2 2.9-3.3 2.9zm0-5.1c-1.2 0-2.1.9-2.1 1.8 0 1 .8 1.8 2 1.8s2-.8 2-1.8c.1-.9-.7-1.8-1.9-1.8zM22.2 62.5V61h1.4c-.9-.4-1.6-1.1-1.5-2.2h1.5v.1c0 1.3.8 2.2 2.5 2.2h2.4v1.5h-6.3zM25.4 58.1c-1.8 0-3.3-1.3-3.3-3.1 0-2 1.6-3 3.4-3h.4v4.7c1-.2 1.6-.9 1.6-1.8 0-.7-.3-1.2-.8-1.7l.8-.9c.7.6 1.2 1.4 1.2 2.6 0 1.8-1.4 3.2-3.3 3.2zm-.5-4.7c-.9.1-1.7.6-1.7 1.6 0 .9.7 1.5 1.7 1.6v-3.2zM27.7 51l-1-.6c.5-.7.8-1.4.8-2.1 0-.6-.3-1-.7-1-.5 0-.7.7-.9 1.4-.3.9-.6 2-1.9 2-1.2 0-1.9-1-1.9-2.3 0-.8.3-1.7.7-2.3l1 .6c-.4.6-.6 1.3-.6 1.8 0 .6.3.9.6.9.5 0 .6-.7.9-1.4.3-.9.7-2 1.8-2 1.3 0 2 1 2 2.4.1.8-.2 1.8-.8 2.6zM19.8 44.4v-1.6h1.4v1.6h-1.4zm2.4 0v-1.5h6.3v1.5h-6.3zM25.4 41.4c-2.1 0-3.3-1.4-3.3-2.9 0-1 .5-1.7 1.1-2.2h-3.4v-1.5h8.8v1.5h-1.1c.7.5 1.2 1.1 1.2 2.2-.1 1.4-1.2 2.9-3.3 2.9zm0-5.2c-1.2 0-2.1.9-2.1 1.8 0 1 .8 1.8 2 1.8s2-.8 2-1.8c.1-.9-.7-1.8-1.9-1.8zM25.4 33.3c-1.8 0-3.3-1.3-3.3-3.1 0-2 1.6-3 3.4-3h.4v4.7c1-.2 1.6-.9 1.6-1.8 0-.7-.3-1.2-.8-1.7l.8-.9c.7.6 1.2 1.4 1.2 2.6 0 1.8-1.4 3.2-3.3 3.2zm-.5-4.6c-.9.1-1.7.6-1.7 1.6 0 .9.7 1.5 1.7 1.6v-3.2zM22.2 25.8v-1.5h1c-.6-.4-1.1-1-1.1-2 0-1.4 1-2.3 2.4-2.3h4v1.5h-3.6c-1 0-1.5.5-1.5 1.4 0 .8.6 1.4 1.6 1.4h3.6v1.5h-6.4zM26.8 18h-3.3v.8h-1.2V18h-1.7v-1.5h1.7v-1.7h1.2v1.7h3.1c.6 0 .8-.3.8-.8 0-.3-.1-.6-.2-.9h1.2c.2.4.3.8.3 1.3-.1 1.2-.6 1.9-1.9 1.9zM27.7 13.9l-1-.6c.5-.7.8-1.4.8-2.1 0-.6-.3-1-.7-1-.5 0-.7.7-.9 1.4-.3.9-.6 2-1.9 2-1.2 0-1.9-1-1.9-2.3 0-.8.3-1.7.7-2.3l1 .6c-.4.6-.6 1.3-.6 1.8 0 .6.3.9.6.9.5 0 .6-.7.9-1.4.3-.9.7-2 1.8-2 1.3 0 2 1 2 2.4.1.8-.2 1.8-.8 2.6z"/></g></svg>