<svg xmlns="http://www.w3.org/2000/svg" width="217" height="217" viewBox="0 0 217 217"><g><path fill="#1A809B" d="M61.494 163.13h45.51v27.908h-45.51V163.13zm72.75-88.234h45.515v116.142h-45.515V74.896z"/><g enable-background="new" fill="#676868"><path d="M33.512 184.085h2.786v7.667H35.07v-6.516h-1.558v-1.15zM41.07 188.647v-1.403h1.228v1.403h.92v1.174h-.92v1.932h-1.23v-1.93h-3.29v-1.142l2.82-4.596h1.414l-2.775 4.563h1.832z"/></g><g enable-background="new" fill="#676868"><path d="M33.512 137.66h2.786v7.667H35.07v-6.516h-1.558v-1.15zM42.704 137.65v1.173h-3.236v1.887c.322-.176.688-.264 1.097-.264.716 0 1.334.216 1.854.647s.778 1.016.778 1.755c0 .738-.27 1.35-.812 1.837-.542.486-1.207.73-1.997.73-1.032 0-1.855-.345-2.47-1.032l.692-.943c.06.06.137.128.236.21.1.08.302.187.61.322s.643.203 1.008.203.698-.11.998-.33c.3-.22.45-.538.45-.96s-.16-.745-.477-.976c-.318-.23-.72-.346-1.207-.346-.486 0-.95.12-1.388.36l-.548-.59v-3.687h4.41z"/></g><g enable-background="new" fill="#676868"><path d="M33.512 91.223h2.786v7.667H35.07v-6.516h-1.558v-1.15zM41.256 92.243c-.68 0-1.18.23-1.503.69-.322.46-.486 1.083-.493 1.865.183-.205.446-.396.79-.576.344-.18.724-.27 1.14-.27.69 0 1.264.23 1.73.687s.695 1.062.695 1.82-.25 1.365-.75 1.825c-.502.46-1.133.69-1.893.69-1.23 0-2.077-.548-2.545-1.645-.263-.63-.395-1.338-.395-2.128s.084-1.447.252-1.974c.168-.527.398-.943.69-1.25.57-.6 1.27-.9 2.1-.9s1.582.26 2.255.78l-.648.953c-.168-.145-.393-.277-.674-.395-.282-.113-.533-.172-.752-.172zm-.236 2.852c-.442 0-.812.122-1.108.367-.296.245-.444.563-.444.954 0 .392.143.728.428 1.01.285.28.643.422 1.075.422.432 0 .79-.126 1.076-.378.285-.253.428-.574.428-.966 0-.39-.13-.724-.395-.998s-.618-.41-1.06-.41z"/></g><g enable-background="new" fill="#676868"><path d="M33.512 44.8h2.786v7.667H35.07V45.95h-1.558V44.8zM37.877 47.005V44.8h5.396v1.15l-3.247 6.517H38.6l3.17-6.493h-2.72v1.03h-1.173z"/></g><g enable-background="new" fill="#676868"><path d="M74.72 209.756c.22-.3.33-.603.33-.91 0-.307-.118-.568-.352-.784-.234-.216-.53-.323-.89-.323-.628 0-1.15.32-1.567.964l-1.04-.604c.335-.504.707-.884 1.112-1.14.406-.257.93-.385 1.568-.385.64 0 1.2.203 1.684.61.483.404.724.958.724 1.66 0 .395-.103.77-.307 1.13s-.58.82-1.13 1.382l-1.798 1.832h3.477v1.238h-5.244v-1.097l2.325-2.335c.52-.526.89-.94 1.11-1.24zM78.536 213.437c-.52-.72-.78-1.684-.78-2.89 0-1.207.26-2.17.78-2.89.52-.722 1.302-1.082 2.347-1.082 1.046 0 1.828.36 2.347 1.08.52.72.78 1.685.78 2.89 0 1.208-.26 2.17-.78 2.892-.52.72-1.3 1.08-2.347 1.08-1.045 0-1.828-.36-2.347-1.08zm.927-4.964c-.303.526-.455 1.218-.455 2.073s.152 1.547.455 2.073c.304.525.777.788 1.42.788s1.113-.26 1.41-.784c.296-.522.444-1.215.444-2.078 0-.862-.148-1.556-.444-2.078-.296-.523-.766-.784-1.41-.784s-1.116.262-1.42.79zM86.083 213.437c-.52-.72-.78-1.684-.78-2.89 0-1.207.26-2.17.78-2.89.52-.722 1.302-1.082 2.347-1.082 1.046 0 1.828.36 2.347 1.08.52.72.78 1.685.78 2.89 0 1.208-.26 2.17-.78 2.892-.52.72-1.3 1.08-2.347 1.08-1.046 0-1.828-.36-2.347-1.08zm.926-4.964c-.304.526-.456 1.218-.456 2.073s.152 1.547.455 2.073c.303.525.776.788 1.42.788s1.112-.26 1.41-.784c.295-.522.443-1.215.443-2.078 0-.862-.148-1.556-.444-2.078-.297-.523-.767-.784-1.41-.784s-1.117.262-1.42.79zM93.628 213.437c-.52-.72-.78-1.684-.78-2.89 0-1.207.26-2.17.78-2.89.52-.722 1.302-1.082 2.347-1.082 1.046 0 1.828.36 2.347 1.08.52.72.78 1.685.78 2.89 0 1.208-.26 2.17-.78 2.892-.52.72-1.3 1.08-2.347 1.08-1.045 0-1.828-.36-2.347-1.08zm.927-4.964c-.303.526-.455 1.218-.455 2.073s.152 1.547.455 2.073c.304.525.777.788 1.42.788s1.113-.26 1.41-.784c.296-.522.444-1.215.444-2.078 0-.862-.15-1.556-.445-2.078-.296-.523-.766-.784-1.41-.784s-1.116.262-1.42.79z"/></g><g enable-background="new" fill="#676868"><path d="M149.69 209.756c.218-.3.328-.603.328-.91 0-.307-.117-.568-.35-.784-.235-.216-.532-.323-.89-.323-.63 0-1.152.32-1.568.964l-1.043-.604c.337-.504.708-.884 1.113-1.14.406-.257.93-.385 1.568-.385.64 0 1.2.203 1.684.61.483.404.725.958.725 1.66 0 .395-.103.77-.307 1.13-.205.358-.582.82-1.13 1.382l-1.8 1.832h3.478v1.238h-5.243v-1.097l2.326-2.335c.52-.526.89-.94 1.11-1.24zM153.506 213.437c-.52-.72-.78-1.684-.78-2.89 0-1.207.26-2.17.78-2.89.52-.722 1.302-1.082 2.348-1.082 1.045 0 1.828.36 2.347 1.08.52.72.78 1.685.78 2.89 0 1.208-.26 2.17-.78 2.892-.518.72-1.3 1.08-2.346 1.08s-1.83-.36-2.348-1.08zm.927-4.964c-.304.526-.455 1.218-.455 2.073s.15 1.547.455 2.073.776.788 1.42.788c.644 0 1.114-.26 1.41-.784.296-.522.444-1.215.444-2.078 0-.862-.148-1.556-.444-2.078-.296-.523-.767-.784-1.41-.784-.644 0-1.117.262-1.42.79zM159.944 206.762h2.786v7.667h-1.23v-6.517h-1.557v-1.15zM164.65 207.913v-1.15h4.485v1.008l-1.854 2.074c.703.022 1.252.243 1.647.664.395.42.592.923.592 1.508 0 .782-.267 1.396-.796 1.843-.53.445-1.212.668-2.046.668-.833 0-1.65-.267-2.446-.8l.55-1.043c.628.438 1.286.658 1.974.658.445 0 .813-.104 1.102-.313s.434-.508.434-.9c0-.39-.16-.703-.482-.937-.322-.234-.768-.352-1.338-.352-.285 0-.56.042-.822.122v-.987l1.776-2.063h-2.776z"/></g></g><g enable-background="new" fill="#676868"><path d="M13.603 194.254c0-.86.298-1.597.894-2.208.595-.61 1.388-.917 2.377-.917s1.793.303 2.413.91c.62.606.93 1.315.93 2.123 0 .81-.355 1.534-1.063 2.178h3.306v1.353H13.7v-1.352h1.122c-.813-.53-1.22-1.226-1.22-2.086zm3.318 2.11c.612 0 1.113-.185 1.503-.554.39-.37.585-.82.585-1.352s-.192-.994-.58-1.388c-.385-.394-.886-.59-1.5-.59s-1.127.19-1.533.577c-.406.387-.61.85-.61 1.39s.204.99.61 1.362c.406.37.915.555 1.526.555zM17.5 183.61v5.032c.467-.03.843-.244 1.128-.64.286-.394.43-.844.43-1.35 0-.806-.255-1.417-.762-1.835l.845-.77c.717.69 1.075 1.59 1.075 2.7 0 .902-.3 1.668-.9 2.3-.598.63-1.402.946-2.412.946s-1.812-.32-2.406-.965c-.596-.644-.894-1.4-.894-2.274 0-.872.264-1.614.79-2.226.527-.61 1.254-.918 2.18-.918h.927zm-1.062 5.033v-3.68c-.54 0-.953.17-1.243.508-.29.34-.434.755-.434 1.25s.15.938.453 1.332c.303.394.71.59 1.225.59zM14.967 178.762c0 .668.217 1.17.65 1.508.435.338 1.02.508 1.75.508h2.75v1.352H13.7v-1.352h1.29c-.4-.218-.73-.514-.99-.887-.256-.374-.39-.77-.397-1.188l1.364-.012v.072zM11.685 174.66v-3.064h8.434v1.352H12.95v1.713h-1.267zM19.026 168.846c-.792.57-1.853.855-3.18.855s-2.387-.284-3.18-.854c-.79-.572-1.187-1.432-1.187-2.582s.395-2.012 1.187-2.582c.792-.57 1.852-.857 3.18-.857s2.387.286 3.18.857c.79.57 1.187 1.432 1.187 2.582s-.396 2.01-1.188 2.582zm-5.46-1.02c.58.334 1.34.5 2.28.5.94 0 1.7-.166 2.28-.5.58-.334.87-.855.87-1.563s-.288-1.225-.863-1.55-1.338-.49-2.287-.49c-.948 0-1.71.163-2.286.49s-.862.842-.862 1.55c0 .708.29 1.23.868 1.563zM19.026 160.545c-.792.57-1.853.855-3.18.855s-2.387-.285-3.18-.855c-.79-.572-1.187-1.432-1.187-2.582s.395-2.012 1.187-2.582c.792-.57 1.852-.856 3.18-.856s2.387.286 3.18.857c.79.57 1.187 1.433 1.187 2.583s-.396 2.01-1.188 2.582zm-5.46-1.02c.58.334 1.34.5 2.28.5.94 0 1.7-.166 2.28-.5.58-.334.87-.855.87-1.563s-.288-1.225-.863-1.55-1.338-.49-2.287-.49c-.948 0-1.71.163-2.286.49s-.862.842-.862 1.55c0 .708.29 1.23.868 1.563zM19.026 152.244c-.792.57-1.853.855-3.18.855s-2.387-.286-3.18-.856c-.79-.572-1.187-1.432-1.187-2.582s.395-2.012 1.187-2.582c.792-.57 1.852-.857 3.18-.857s2.387.286 3.18.857c.79.57 1.187 1.432 1.187 2.582s-.396 2.01-1.188 2.582zm-5.46-1.02c.58.335 1.34.5 2.28.5.94 0 1.7-.165 2.28-.5.58-.333.87-.854.87-1.562 0-.708-.288-1.225-.863-1.55s-1.338-.49-2.287-.49c-.948 0-1.71.163-2.286.49s-.862.842-.862 1.55c0 .707.29 1.23.868 1.563zM20.215 138.38c0 .895-.304 1.663-.91 2.306-.608.645-1.402.965-2.384.965s-1.778-.334-2.394-1.006c-.615-.67-.924-1.49-.924-2.455s.334-1.783 1.002-2.45l.978.796c-.483.555-.725 1.114-.725 1.678 0 .563.188 1.05.562 1.465.373.414.855.62 1.446.62.592 0 1.093-.204 1.503-.614s.614-.915.614-1.515c0-.598-.273-1.163-.82-1.694l.868-.796c.788.78 1.183 1.68 1.183 2.7zM19.256 129.043c.64.644.96 1.447.96 2.413s-.32 1.77-.96 2.413c-.64.643-1.422.964-2.347.964s-1.71-.32-2.348-.965c-.64-.645-.96-1.448-.96-2.414s.32-1.77.96-2.413c.64-.644 1.422-.965 2.347-.965s1.706.32 2.346.965zm-.833 3.867c.39-.383.585-.867.585-1.454s-.194-1.07-.585-1.454c-.39-.382-.895-.572-1.514-.572s-1.125.19-1.516.572c-.39.383-.585.867-.585 1.454s.194 1.07.584 1.454c.39.382.896.572 1.515.572s1.123-.19 1.513-.572zM20.118 125.194v1.352h-8.952v-1.352h8.952zM20.118 121.89v1.35h-8.952v-1.35h8.952zM17.5 113.962v5.03c.467-.03.843-.244 1.128-.64.286-.393.43-.843.43-1.35 0-.805-.255-1.416-.762-1.835l.845-.77c.717.69 1.075 1.592 1.075 2.702 0 .9-.3 1.665-.9 2.297-.598.632-1.402.947-2.412.947s-1.812-.32-2.406-.966c-.596-.643-.894-1.4-.894-2.273s.264-1.615.79-2.227c.527-.61 1.254-.917 2.18-.917h.927zm-1.062 5.03v-3.68c-.54 0-.953.17-1.243.508-.29.338-.434.754-.434 1.248 0 .495.15.94.453 1.334s.71.59 1.225.59zM13.7 106.542h5.598c1.134 0 1.984.308 2.552.923s.85 1.405.85 2.37c0 .966-.3 1.84-.904 2.618l-1.025-.64c.476-.626.713-1.26.713-1.9 0-.64-.165-1.145-.494-1.52-.33-.374-.858-.56-1.582-.56h-.82c.378.2.68.488.905.862.225.374.337.795.337 1.26 0 .854-.297 1.554-.893 2.1-.595.548-1.335.82-2.22.82s-1.625-.272-2.22-.82c-.596-.546-.894-1.244-.894-2.092 0-.85.35-1.54 1.05-2.07H13.7v-1.35zm2.96 5.007c.528 0 .982-.164 1.364-.49.383-.325.573-.764.573-1.314s-.185-.997-.555-1.34c-.37-.34-.83-.512-1.382-.512-.55 0-1.017.173-1.4.52-.38.345-.572.79-.572 1.338s.197.983.592 1.31c.394.324.855.487 1.38.487zM17.5 98.615v5.03c.467-.03.843-.244 1.128-.638.286-.394.43-.845.43-1.352 0-.804-.255-1.416-.762-1.834l.845-.77c.717.69 1.075 1.592 1.075 2.702 0 .9-.3 1.667-.9 2.298-.598.63-1.402.947-2.412.947s-1.812-.322-2.406-.965c-.596-.644-.894-1.4-.894-2.274 0-.873.264-1.615.79-2.226.527-.61 1.254-.917 2.18-.917h.927zm-1.062 5.03v-3.68c-.54 0-.953.17-1.243.508-.29.338-.434.754-.434 1.25s.15.938.453 1.332c.303.395.71.59 1.225.59zM20.118 88.625v1.23h-.856c.636.532.953 1.244.953 2.137 0 .667-.19 1.22-.567 1.66-.378.437-.883.657-1.514.657-.632 0-1.104-.234-1.418-.7s-.47-1.1-.47-1.896v-1.75h-.242c-.853 0-1.28.476-1.28 1.424 0 .596.22 1.215.653 1.858l-.845.604c-.62-.78-.93-1.665-.93-2.654 0-.756.19-1.374.573-1.852.383-.48.983-.72 1.804-.72h4.138zm-2.39 1.352h-.542v1.52c0 .974.306 1.46.917 1.46.313 0 .553-.12.718-.362s.248-.577.248-1.007-.12-.806-.36-1.128c-.243-.322-.568-.483-.98-.483zM13.7 80.81h5.598c1.134 0 1.984.307 2.552.922s.85 1.405.85 2.37c0 .966-.3 1.84-.904 2.62l-1.025-.64c.476-.63.713-1.262.713-1.9s-.165-1.147-.494-1.522c-.33-.374-.858-.56-1.582-.56h-.82c.378.2.68.487.905.86.225.375.337.796.337 1.262 0 .853-.297 1.553-.893 2.1-.595.547-1.335.82-2.22.82s-1.625-.273-2.22-.82c-.596-.547-.894-1.245-.894-2.094s.35-1.538 1.05-2.068H13.7v-1.35zm2.96 5.005c.528 0 .982-.163 1.364-.488.383-.326.573-.765.573-1.315s-.185-.997-.555-1.34-.83-.512-1.382-.512c-.55 0-1.017.173-1.4.52-.38.345-.572.79-.572 1.338s.197.983.592 1.31c.394.324.855.487 1.38.487zM17.5 72.882v5.03c.467-.03.843-.245 1.128-.64.286-.394.43-.844.43-1.35 0-.805-.255-1.416-.762-1.835l.845-.772c.717.692 1.075 1.593 1.075 2.703 0 .9-.3 1.667-.9 2.298-.598.632-1.402.947-2.412.947s-1.812-.32-2.406-.965c-.596-.644-.894-1.4-.894-2.274 0-.872.264-1.614.79-2.226.527-.61 1.254-.917 2.18-.917h.927zm-1.062 5.03v-3.68c-.54 0-.953.17-1.243.507-.29.337-.434.753-.434 1.248s.15.94.453 1.333c.303.396.71.593 1.225.593zM19.298 70.903c-.61.603-1.416.904-2.413.904s-1.794-.31-2.39-.93c-.595-.618-.893-1.356-.893-2.213s.362-1.546 1.086-2.07h-3.522v-1.35h8.952v1.35h-.965c.707.5 1.062 1.228 1.062 2.185 0 .812-.306 1.52-.917 2.123zm-2.36-.446c.616 0 1.116-.197 1.503-.592.387-.394.58-.856.58-1.388 0-.53-.195-.98-.585-1.35-.39-.37-.892-.557-1.503-.557-.61 0-1.122.186-1.532.556s-.615.824-.615 1.363.205 1 .615 1.387c.41.387.923.58 1.54.58zM14.967 56.617c0 .668.217 1.17.65 1.51.435.337 1.02.506 1.75.506h2.75v1.35H13.7v-1.35h1.29c-.4-.218-.73-.514-.99-.888-.256-.374-.39-.77-.397-1.188l1.364-.013v.073zM17.5 49.223v5.03c.467-.03.843-.245 1.128-.64.286-.394.43-.844.43-1.35 0-.805-.255-1.416-.762-1.835l.845-.772c.717.692 1.075 1.593 1.075 2.703 0 .9-.3 1.666-.9 2.297-.598.632-1.402.947-2.412.947s-1.812-.32-2.406-.965c-.596-.645-.894-1.402-.894-2.275 0-.872.264-1.614.79-2.226.527-.612 1.254-.918 2.18-.918h.927zm-1.062 5.03v-3.68c-.54 0-.953.17-1.243.507-.29.338-.434.754-.434 1.25s.15.938.453 1.332c.303.395.71.592 1.225.592zM18.2 43.166c.61 0 1.1.22 1.466.663s.55 1.01.55 1.7c0 .467-.086.95-.255 1.454s-.404.947-.71 1.333l-1.05-.65c.563-.75.844-1.473.844-2.173 0-.306-.07-.547-.21-.724s-.32-.266-.538-.266c-.32 0-.61.427-.868 1.28-.024.063-.04.11-.05.144-.36 1.335-.964 2.003-1.81 2.003-.594 0-1.07-.23-1.43-.692-.356-.463-.536-1.064-.536-1.804s.218-1.44.652-2.1l1 .507c-.345.523-.518 1.09-.518 1.702 0 .32.06.583.175.784s.293.302.525.302c.21 0 .362-.104.46-.314.07-.145.14-.348.204-.608.063-.262.128-.493.192-.694s.137-.396.217-.585.192-.393.337-.61c.29-.434.742-.65 1.353-.65zM12.42 41.55c-.168.168-.37.252-.603.252s-.435-.084-.604-.253-.253-.37-.253-.605.084-.435.253-.604.37-.252.604-.252.435.084.604.253.254.37.254.605-.084.435-.253.604zm7.698-1.268v1.35h-6.42v-1.35h6.42zM19.298 37.833c-.61.603-1.416.904-2.413.904s-1.794-.31-2.39-.93c-.595-.618-.893-1.356-.893-2.213s.362-1.546 1.086-2.07h-3.522v-1.35h8.952v1.35h-.965c.707.5 1.062 1.228 1.062 2.185 0 .81-.306 1.52-.917 2.123zm-2.36-.446c.616 0 1.116-.197 1.503-.592.387-.394.58-.856.58-1.388 0-.53-.195-.98-.585-1.35-.39-.37-.892-.557-1.503-.557-.61 0-1.122.186-1.532.556s-.615.824-.615 1.363.205 1 .615 1.387c.41.386.923.58 1.54.58zM17.5 24.248v5.03c.467-.03.843-.245 1.128-.64.286-.394.43-.844.43-1.35 0-.805-.255-1.416-.762-1.835l.845-.772c.717.693 1.075 1.594 1.075 2.704 0 .9-.3 1.667-.9 2.298-.598.632-1.402.947-2.412.947s-1.812-.322-2.406-.966c-.596-.644-.894-1.4-.894-2.274 0-.872.264-1.614.79-2.226.527-.61 1.254-.917 2.18-.917h.927zm-1.062 5.03V25.6c-.54 0-.953.17-1.243.507-.29.338-.434.754-.434 1.25s.15.938.453 1.332c.303.395.71.592 1.225.592zM16.644 21.413h3.475v1.35H13.7v-1.35h1.17c-.394-.218-.703-.518-.93-.9-.224-.38-.337-.793-.337-1.235 0-.725.222-1.31.664-1.756s1.082-.67 1.918-.67h3.934v1.352h-3.524c-1.182 0-1.773.49-1.773 1.472 0 .467.155.873.465 1.22.308.344.76.517 1.356.517zM14.785 13.39h3.258c.306 0 .55-.08.73-.242.18-.16.27-.386.27-.676 0-.29-.14-.566-.422-.832l.954-.555c.427.475.64 1 .64 1.574s-.2 1.064-.598 1.47c-.397.407-.935.61-1.61.61h-3.222v.81h-1.086v-.81h-2.015v-1.352h2.015V11.7h1.086v1.69zM18.2 5.438c.61 0 1.1.22 1.466.663s.55 1.01.55 1.702c0 .467-.086.95-.255 1.454s-.404.947-.71 1.333l-1.05-.652c.563-.748.844-1.472.844-2.172 0-.306-.07-.547-.21-.724s-.32-.266-.538-.266c-.32 0-.61.427-.868 1.28-.024.063-.04.11-.05.144-.36 1.335-.964 2.003-1.81 2.003-.594 0-1.07-.23-1.43-.693-.356-.463-.536-1.064-.536-1.804s.218-1.44.652-2.1l1 .507c-.345.522-.518 1.09-.518 1.7 0 .322.06.584.175.785s.293.302.525.302c.21 0 .362-.104.46-.314.07-.145.14-.348.204-.608.063-.262.128-.493.192-.694s.137-.396.217-.585.192-.394.337-.61c.29-.435.742-.652 1.353-.652z"/></g></svg>