<svg xmlns="http://www.w3.org/2000/svg" width="217" height="217" viewBox="0 0 217 217"><g fill="#5A5A5A"><path d="M5.31 147.144c-.478-.66-.716-1.546-.716-2.654 0-1.107.238-1.992.715-2.653.476-.66 1.194-.992 2.154-.992s1.68.33 2.155.992.714 1.546.714 2.653c0 1.108-.24 1.993-.715 2.654s-1.196.992-2.156.992c-.96 0-1.678-.33-2.155-.992zm.85-4.558c-.28.483-.418 1.118-.418 1.903 0 .785.14 1.42.418 1.902s.713.726 1.304.726 1.022-.24 1.294-.72.408-1.116.408-1.91c0-.79-.136-1.427-.408-1.907s-.704-.72-1.294-.72-1.025.243-1.304.726zM13.98 141.313c.29.312.433.69.433 1.133 0 .442-.146.822-.438 1.138s-.654.474-1.087.474-.794-.156-1.083-.47c-.29-.31-.433-.688-.433-1.132s.146-.822.438-1.138.654-.474 1.087-.474.794.156 1.083.47zm4.1-.298l-5.157 7.04h-1.3l5.158-7.04h1.3zm-4.774 1.96c.107-.14.16-.308.16-.51 0-.2-.056-.37-.17-.508s-.253-.207-.418-.207-.3.07-.408.207-.16.307-.16.508c0 .202.056.37.17.51s.253.206.418.206.3-.07.408-.206zm4.673 2.416c.288.314.432.69.432 1.134 0 .443-.146.823-.438 1.14s-.655.473-1.088.473-.794-.156-1.083-.47-.433-.688-.433-1.132.146-.822.438-1.14c.292-.314.655-.472 1.088-.472s.794.156 1.083.468zm-.656 1.682c.107-.137.16-.307.16-.508 0-.202-.056-.37-.17-.51-.114-.137-.253-.206-.418-.206s-.3.07-.408.207-.16.307-.16.51c0 .2.056.37.17.507.114.138.253.207.418.207s.3-.07.408-.208z"/></g><g fill="#5A5A5A"><path d="M5.277 125.05h2.558v7.04H6.708v-5.982h-1.43v-1.058zM11.874 125.348c.29.312.433.69.433 1.133 0 .443-.146.823-.438 1.14s-.655.473-1.088.473-.794-.156-1.083-.47c-.29-.31-.434-.688-.434-1.132s.146-.82.438-1.137.654-.474 1.087-.474.795.155 1.084.468zm4.1-.298l-5.157 7.04h-1.3l5.157-7.04h1.3zm-4.775 1.96c.106-.14.16-.308.16-.51 0-.2-.057-.37-.17-.508s-.254-.207-.42-.207-.3.07-.407.207-.16.307-.16.508c0 .202.056.37.17.51s.253.206.418.206.302-.07.41-.207zm4.672 2.416c.29.313.433.69.433 1.133 0 .442-.146.822-.438 1.138s-.655.474-1.088.474-.795-.156-1.084-.47-.433-.688-.433-1.132.146-.822.438-1.14c.293-.314.656-.472 1.09-.472s.793.156 1.082.468zm-.655 1.68c.107-.136.16-.306.16-.507 0-.203-.056-.372-.17-.51-.114-.138-.253-.207-.418-.207s-.302.07-.41.207-.16.307-.16.51c0 .2.057.37.17.507.115.138.254.207.42.207s.3-.07.407-.207z"/></g><g fill="#5A5A5A"><path d="M7.722 111.83c.202-.276.302-.556.302-.837 0-.282-.107-.522-.322-.72-.215-.198-.487-.298-.816-.298-.578 0-1.057.296-1.44.887l-.957-.555c.308-.463.65-.812 1.02-1.047s.854-.353 1.44-.353 1.104.187 1.547.56c.443.372.665.88.665 1.525 0 .362-.094.708-.282 1.037s-.534.75-1.037 1.268L6.19 114.98h3.193v1.14H4.57v-1.008l2.134-2.146c.477-.483.817-.862 1.018-1.137zM12.97 109.377c.288.312.432.69.432 1.133 0 .442-.146.822-.438 1.138s-.654.474-1.087.474-.794-.156-1.083-.47c-.29-.31-.433-.688-.433-1.132s.147-.822.44-1.138.653-.474 1.086-.474.794.156 1.083.47zm4.097-.298l-5.156 7.04h-1.298l5.157-7.04h1.297zm-4.773 1.958c.107-.138.16-.307.16-.51 0-.2-.056-.37-.17-.507s-.253-.206-.418-.206-.3.07-.408.207-.16.308-.16.51c0 .2.056.37.17.508s.253.207.418.207.3-.07.408-.207zm4.673 2.417c.29.313.433.69.433 1.133 0 .443-.146.823-.438 1.14s-.655.473-1.088.473-.794-.155-1.083-.468-.432-.69-.432-1.133.146-.823.438-1.14c.292-.315.655-.473 1.088-.473s.794.157 1.083.468zm-.655 1.682c.107-.137.16-.307.16-.508 0-.203-.056-.372-.17-.51-.114-.138-.253-.207-.418-.207s-.3.07-.408.207-.16.307-.16.51c0 .2.056.37.17.507.114.138.253.207.418.207s.3-.07.408-.207z"/></g><g fill="#5A5A5A"><path d="M4.76 94.165v-1.058h4.12v.927l-1.702 1.903c.645.02 1.148.224 1.51.61.364.386.545.847.545 1.384 0 .72-.244 1.283-.73 1.693-.487.41-1.113.614-1.878.614s-1.514-.245-2.246-.735l.503-.957c.577.403 1.182.604 1.813.604.41 0 .747-.097 1.012-.288s.398-.467.398-.826c0-.358-.148-.646-.443-.86s-.705-.322-1.23-.322c-.26 0-.513.037-.754.11v-.906l1.63-1.894H4.76zM12.858 93.405c.29.312.433.69.433 1.133 0 .442-.145.822-.437 1.138s-.654.474-1.087.474-.794-.156-1.083-.47c-.29-.31-.433-.688-.433-1.132s.146-.822.438-1.138.654-.474 1.087-.474.794.157 1.083.47zm4.1-.298l-5.157 7.04h-1.298l5.157-7.04h1.297zm-4.775 1.96c.107-.14.16-.308.16-.51 0-.2-.056-.37-.17-.508s-.253-.208-.418-.208-.3.07-.408.207-.16.306-.16.507c0 .202.056.37.17.51s.253.206.418.206.3-.07.408-.207zm4.673 2.416c.29.313.433.69.433 1.133 0 .443-.147.823-.44 1.14s-.654.473-1.087.473-.794-.157-1.083-.47-.433-.69-.433-1.133.146-.822.438-1.14c.292-.314.655-.472 1.088-.472s.794.157 1.083.468zm-.655 1.682c.108-.137.162-.307.162-.508 0-.202-.057-.37-.17-.51-.115-.137-.254-.206-.42-.206s-.3.07-.407.208-.16.307-.16.51c0 .2.056.37.17.507.114.138.253.207.418.207s.3-.07.408-.207z"/></g><g fill="#5A5A5A"><path d="M7.38 81.33v-1.288h1.127v1.29h.846v1.077h-.846v1.77H7.38v-1.77H4.357v-1.05l2.588-4.22h1.3l-2.55 4.19H7.38zM12.798 77.44c.29.31.433.688.433 1.132 0 .442-.145.822-.437 1.138s-.654.474-1.087.474-.794-.156-1.083-.47c-.29-.31-.433-.688-.433-1.132s.146-.822.438-1.138.654-.474 1.087-.474.794.157 1.083.47zm4.098-.298l-5.156 7.04h-1.3l5.158-7.04h1.298zm-4.773 1.96c.107-.14.16-.308.16-.51 0-.2-.056-.37-.17-.508s-.253-.207-.418-.207-.3.07-.408.207-.16.307-.16.508c0 .202.056.37.17.51s.253.206.418.206.3-.07.408-.207zm4.673 2.416c.29.313.433.69.433 1.133 0 .444-.147.824-.44 1.14s-.654.474-1.087.474-.794-.156-1.083-.47-.433-.688-.433-1.132.146-.822.438-1.14c.292-.314.655-.472 1.088-.472s.794.156 1.083.468zm-.655 1.68c.108-.136.162-.306.162-.507 0-.2-.057-.37-.17-.508-.115-.138-.254-.207-.42-.207s-.3.07-.407.207-.16.307-.16.51c0 .2.056.37.17.507.114.137.253.206.418.206s.3-.07.408-.207z"/></g><g fill="#5A5A5A"><path d="M8.88 61.16v1.078H5.91v1.732c.294-.16.63-.24 1.006-.24.658 0 1.225.197 1.702.593.477.396.715.934.715 1.61 0 .68-.25 1.242-.745 1.69-.497.445-1.108.67-1.833.67-.947 0-1.702-.317-2.266-.948l.634-.866c.054.053.126.117.216.19.09.074.277.173.56.297.28.125.59.187.925.187.336 0 .64-.1.917-.302.275-.202.413-.495.413-.882 0-.386-.146-.685-.438-.896-.292-.212-.662-.317-1.108-.317-.448 0-.872.11-1.275.332l-.503-.545V61.16H8.88zM12.868 61.47c.29.31.433.688.433 1.132 0 .442-.145.822-.437 1.138s-.654.474-1.087.474-.794-.156-1.083-.47c-.29-.31-.433-.688-.433-1.132s.146-.822.438-1.138.654-.474 1.087-.474.794.156 1.083.47zm4.1-.3l-5.157 7.04h-1.298l5.157-7.04h1.297zm-4.775 1.96c.107-.138.16-.307.16-.51 0-.2-.056-.37-.17-.507s-.253-.207-.418-.207-.3.07-.408.207-.16.307-.16.508c0 .203.056.372.17.51s.253.207.418.207.3-.07.408-.207zm4.673 2.417c.29.313.433.69.433 1.133 0 .443-.147.823-.44 1.14s-.654.473-1.087.473-.794-.156-1.083-.47-.433-.688-.433-1.132.146-.82.438-1.138c.292-.315.655-.473 1.088-.473s.795.155 1.083.467zm-.655 1.682c.108-.138.162-.308.162-.51 0-.2-.057-.37-.17-.508-.115-.138-.254-.207-.42-.207s-.3.07-.407.207-.16.307-.16.51c0 .2.056.37.17.507.114.137.253.206.418.206s.3-.07.408-.207z"/></g><g fill="#5A5A5A"><path d="M10.406 165.98c-.053-.338-.18-.606-.377-.805-.2-.2-.446-.295-.74-.282-.29.013-.554.134-.786.366-.408.408-.537.956-.39 1.645l-1.07.283c-.108-.545-.114-1.033-.017-1.463.097-.43.354-.852.77-1.268.414-.414.91-.647 1.487-.697.577-.05 1.094.153 1.55.61.256.255.434.565.533.93.1.368.154.91.164 1.632l.022 2.357 2.258-2.258.805.804-3.404 3.404-.712-.71-.007-3.028c-.004-.678-.03-1.186-.084-1.522zM15.273 165.892c-.805-.13-1.6-.588-2.383-1.372-.783-.783-1.24-1.576-1.37-2.38s.144-1.548.822-2.227 1.42-.953 2.226-.823c.805.13 1.6.588 2.382 1.37.784.784 1.24 1.58 1.372 2.384.13.805-.145 1.547-.823 2.226s-1.422.95-2.227.822zm-2.62-3.826c.144.54.494 1.087 1.05 1.643.555.554 1.102.903 1.64 1.048.54.146 1.02.01 1.437-.408s.553-.893.406-1.424c-.146-.533-.5-1.078-1.062-1.64-.56-.56-1.105-.913-1.638-1.06-.53-.148-1.006-.012-1.424.406-.417.418-.554.896-.41 1.434zM20.174 160.992c-.805-.13-1.6-.588-2.383-1.372-.782-.783-1.24-1.577-1.37-2.382-.13-.805.145-1.547.822-2.225.68-.68 1.422-.953 2.227-.822.803.13 1.597.587 2.38 1.37.784.784 1.24 1.578 1.37 2.383s-.142 1.547-.82 2.227c-.68.678-1.42.95-2.226.822zm-2.62-3.824c.144.54.493 1.086 1.05 1.64.555.557 1.102.907 1.64 1.052s1.02.008 1.437-.41c.418-.417.554-.893.407-1.424-.148-.53-.502-1.078-1.063-1.64-.56-.56-1.105-.912-1.637-1.06-.532-.147-1.008-.012-1.425.406-.418.418-.554.897-.41 1.436zM21.11 152.884l-.75-.748 2.913-2.913.656.656.142 2.548c.47-.44.97-.654 1.498-.637.53.018.984.216 1.363.595.51.51.734 1.08.682 1.713-.055.635-.353 1.222-.895 1.764-.54.54-1.244.896-2.107 1.068l-.32-1.033c.693-.123 1.262-.408 1.71-.855.288-.29.46-.596.512-.918s-.05-.61-.304-.865c-.252-.255-.56-.354-.92-.296-.36.057-.727.27-1.097.64-.186.187-.338.39-.457.612l-.64-.64-.186-2.493-1.8 1.8z"/></g><g fill="#5A5A5A"><path d="M45.353 165.98c-.053-.338-.18-.607-.377-.807-.2-.2-.445-.293-.738-.28-.29.012-.555.134-.787.366-.407.407-.536.956-.39 1.644l-1.068.285c-.11-.547-.115-1.034-.018-1.464.097-.43.354-.853.77-1.268.414-.416.91-.648 1.487-.698.578-.05 1.095.153 1.55.608.257.257.435.567.534.934.1.365.154.908.164 1.63l.02 2.358 2.26-2.258.804.805-3.404 3.404-.713-.712-.007-3.026c-.005-.678-.033-1.186-.085-1.523zM50.22 165.89c-.805-.13-1.6-.587-2.383-1.37-.783-.783-1.24-1.578-1.37-2.382-.13-.806.144-1.547.822-2.226.678-.68 1.42-.953 2.225-.822.805.13 1.6.587 2.382 1.37.784.784 1.24 1.577 1.372 2.382.128.805-.146 1.547-.824 2.227-.68.677-1.422.95-2.226.82zm-2.62-3.824c.144.54.494 1.086 1.05 1.64.555.558 1.102.907 1.64 1.052s1.02.008 1.437-.41c.418-.417.553-.893.406-1.424s-.5-1.077-1.062-1.638c-.56-.56-1.104-.914-1.637-1.062-.53-.146-1.006-.012-1.424.406s-.556.897-.41 1.436zM55.12 160.99c-.805-.13-1.6-.588-2.383-1.37s-1.24-1.578-1.37-2.382c-.13-.806.144-1.547.82-2.227.68-.678 1.423-.952 2.228-.82.804.13 1.598.587 2.38 1.37.785.783 1.24 1.578 1.372 2.383.13.804-.143 1.546-.822 2.225-.678.68-1.42.953-2.225.822zm-2.62-3.824c.144.54.493 1.086 1.05 1.642s1.102.905 1.64 1.05 1.02.01 1.437-.408c.417-.418.553-.894.406-1.424-.148-.533-.502-1.078-1.063-1.64-.56-.56-1.105-.913-1.637-1.06-.532-.148-1.008-.012-1.425.405-.418.42-.554.897-.41 1.436zM58.214 149.215l.762.762-2.102 2.102 1.226 1.224c.095-.322.274-.617.54-.883.467-.464 1.008-.725 1.625-.782.617-.057 1.165.154 1.645.634s.7 1.054.666 1.72c-.035.668-.31 1.258-.822 1.77-.67.67-1.428.98-2.27.934l-.165-1.063c.075 0 .17-.004.287-.017s.317-.073.605-.186c.288-.11.55-.286.786-.522.238-.238.383-.525.436-.86.05-.34-.06-.644-.332-.917-.272-.272-.588-.38-.943-.323s-.692.244-1.01.56c-.314.315-.536.694-.665 1.136l-.74-.03-2.393-2.392 2.862-2.865z"/></g><g fill="#5A5A5A"><path d="M80.3 165.98c-.053-.338-.18-.607-.377-.807-.2-.2-.445-.293-.738-.28-.29.012-.555.134-.787.366-.408.407-.537.956-.39 1.644l-1.07.285c-.108-.547-.114-1.034-.017-1.464.098-.43.355-.853.77-1.268.415-.416.912-.648 1.488-.698.577-.05 1.094.153 1.55.608.256.257.434.567.533.934.1.365.155.908.165 1.63l.02 2.358 2.26-2.258.804.805-3.405 3.404-.713-.712-.007-3.026c-.005-.678-.032-1.186-.085-1.523zM85.167 165.89c-.805-.13-1.6-.587-2.383-1.37-.783-.783-1.24-1.578-1.37-2.382-.13-.806.144-1.547.822-2.226.68-.68 1.42-.953 2.226-.822.805.13 1.6.587 2.382 1.37.784.784 1.24 1.577 1.372 2.382.13.805-.145 1.547-.823 2.227-.68.677-1.42.95-2.226.82zm-2.62-3.824c.144.54.494 1.086 1.05 1.64.555.558 1.102.907 1.64 1.052s1.02.008 1.437-.41c.418-.417.553-.893.406-1.424s-.5-1.077-1.062-1.638c-.56-.56-1.105-.914-1.638-1.062-.53-.146-1.006-.012-1.424.406s-.555.897-.41 1.436zM90.067 160.99c-.805-.13-1.6-.588-2.383-1.37s-1.24-1.578-1.37-2.382c-.13-.806.144-1.547.82-2.227.68-.678 1.423-.952 2.228-.82.804.13 1.598.587 2.38 1.37.785.783 1.24 1.578 1.372 2.383.13.804-.143 1.546-.822 2.225-.678.68-1.42.953-2.225.822zm-2.62-3.824c.144.54.493 1.086 1.05 1.642s1.102.905 1.64 1.05 1.02.01 1.437-.408c.417-.418.553-.894.406-1.424-.148-.533-.502-1.078-1.063-1.64-.56-.56-1.105-.913-1.637-1.06-.532-.148-1.008-.012-1.425.405-.417.42-.553.897-.41 1.436zM91.466 153.787l-1.432-1.432 3.504-3.504.748.75 2.12 6.337-.925.926-2.155-6.273-1.767 1.767.67.67-.762.76z"/></g><g fill="#5A5A5A"><path d="M115.24 165.98c-.052-.338-.178-.607-.376-.807-.2-.2-.445-.293-.738-.28-.29.012-.555.134-.787.366-.41.407-.538.956-.392 1.644l-1.068.285c-.11-.547-.115-1.034-.018-1.464.097-.43.354-.853.77-1.268.414-.416.91-.648 1.487-.698.576-.05 1.093.153 1.55.608.255.257.433.567.532.934.1.365.154.908.164 1.63l.02 2.358 2.26-2.258.804.805-3.404 3.404-.713-.712-.007-3.026c-.005-.678-.032-1.186-.085-1.523zM120.108 165.89c-.805-.13-1.6-.587-2.383-1.37-.783-.783-1.24-1.578-1.37-2.382-.13-.806.144-1.547.822-2.226.68-.68 1.42-.953 2.226-.822.805.13 1.6.587 2.382 1.37.784.784 1.24 1.577 1.372 2.382.13.805-.145 1.547-.823 2.227-.68.677-1.42.95-2.226.82zm-2.62-3.824c.144.54.494 1.086 1.05 1.64.555.558 1.102.907 1.64 1.052s1.02.008 1.437-.41c.418-.417.553-.893.406-1.424s-.5-1.077-1.06-1.638c-.56-.56-1.106-.914-1.64-1.062-.53-.146-1.005-.012-1.423.406s-.554.897-.41 1.436zM125.01 160.99c-.806-.13-1.6-.588-2.384-1.37s-1.24-1.578-1.37-2.382c-.13-.806.144-1.547.82-2.227.68-.678 1.423-.952 2.228-.82.804.13 1.598.587 2.38 1.37.785.783 1.24 1.578 1.372 2.383.13.804-.143 1.546-.822 2.225-.678.68-1.42.953-2.225.822zm-2.622-3.824c.145.54.494 1.086 1.05 1.642s1.103.905 1.642 1.05 1.018.01 1.436-.408c.417-.418.553-.894.406-1.424-.148-.533-.502-1.078-1.063-1.64-.56-.56-1.106-.913-1.638-1.06-.532-.148-1.008-.012-1.425.405-.418.42-.554.897-.41 1.436zM130.82 155.068c.442-.44.62-.915.53-1.423-.092-.51-.39-1.02-.893-1.532.016.252-.03.548-.138.888-.108.34-.297.645-.566.916-.447.445-.97.672-1.567.676-.6.005-1.143-.238-1.634-.73-.492-.49-.725-1.05-.698-1.673s.286-1.184.78-1.678c.797-.798 1.703-.992 2.72-.584.58.238 1.125.612 1.638 1.125s.885.994 1.118 1.445c.233.45.354.87.364 1.26.02.762-.24 1.41-.78 1.95-.538.538-1.194.857-1.97.956l-.198-1.04c.205-.013.436-.074.693-.18.26-.108.46-.233.6-.376zm-1.696-2.004c.287-.287.447-.606.48-.958s-.077-.653-.332-.907c-.253-.255-.564-.382-.932-.38-.367.004-.69.144-.97.42-.276.28-.424.59-.44.934-.018.344.104.646.36.9.255.258.554.392.893.403.34.012.654-.125.94-.413z"/></g><g fill="#5A5A5A"><path d="M150.187 165.98c-.053-.336-.18-.605-.377-.805-.2-.2-.445-.293-.738-.28-.29.012-.555.134-.787.366-.408.41-.537.958-.39 1.646l-1.07.285c-.108-.545-.114-1.032-.017-1.462.097-.43.354-.853.77-1.268.414-.416.91-.648 1.487-.698.577-.05 1.094.153 1.55.608.256.257.434.567.533.934.1.365.154.908.164 1.63l.02 2.358 2.26-2.258.804.805-3.404 3.403-.713-.713-.008-3.026c-.005-.678-.033-1.186-.085-1.523zM155.054 165.893c-.805-.13-1.6-.588-2.383-1.37-.782-.784-1.24-1.58-1.37-2.383-.13-.806.145-1.547.823-2.226.68-.68 1.42-.953 2.226-.822.804.13 1.598.587 2.38 1.37.785.784 1.242 1.577 1.373 2.382.13.805-.145 1.547-.823 2.227-.68.68-1.422.952-2.226.823zm-2.62-3.825c.144.54.494 1.086 1.05 1.64.555.558 1.102.907 1.64 1.052s1.02.008 1.437-.41c.42-.417.554-.893.407-1.424s-.5-1.077-1.062-1.638c-.56-.56-1.105-.914-1.638-1.062-.53-.146-1.006-.012-1.424.406s-.555.897-.41 1.436zM154.9 157.378l1.81-1.81 4.977 4.98-.797.797-4.23-4.23-1.01 1.012-.75-.75zM157.613 154.665l1.81-1.81 4.978 4.98-.797.797-4.23-4.23-1.01 1.012-.75-.75z"/></g><g fill="#5A5A5A"><path d="M185.133 165.98c-.053-.338-.18-.606-.377-.805-.2-.2-.445-.295-.738-.282-.29.013-.555.134-.787.366-.407.408-.536.956-.39 1.645l-1.068.283c-.11-.545-.115-1.033-.018-1.463.097-.43.354-.852.77-1.268.414-.414.91-.647 1.487-.697.578-.05 1.095.153 1.55.61.257.255.435.565.534.93.1.368.154.91.164 1.632l.02 2.357 2.26-2.258.804.804-3.404 3.404-.713-.71-.007-3.028c-.005-.678-.032-1.186-.085-1.522zM190 165.892c-.805-.13-1.6-.588-2.383-1.372-.783-.783-1.24-1.576-1.37-2.38s.144-1.548.822-2.227 1.42-.953 2.225-.823c.805.13 1.6.588 2.382 1.37.784.784 1.24 1.58 1.372 2.384.128.805-.146 1.547-.824 2.226s-1.42.95-2.226.822zm-2.62-3.826c.144.54.494 1.087 1.05 1.643.555.554 1.102.903 1.64 1.048.54.146 1.02.01 1.437-.408s.553-.893.406-1.424c-.146-.533-.5-1.078-1.062-1.64-.56-.56-1.104-.913-1.637-1.06-.53-.148-1.006-.012-1.424.406-.42.418-.556.896-.41 1.434zM189.847 157.377l1.81-1.81 4.977 4.98-.797.797-4.23-4.23-1.01 1.012-.75-.75zM193.65 155.07l-.75-.748 2.914-2.912.654.654.143 2.55c.472-.44.972-.653 1.5-.638.53.018.985.215 1.364.595.508.51.734 1.08.68 1.714-.054.634-.352 1.222-.893 1.763s-1.243.897-2.107 1.068l-.32-1.033c.692-.123 1.263-.408 1.708-.854.292-.29.462-.596.515-.92.052-.322-.05-.61-.303-.865-.254-.253-.562-.352-.922-.295-.36.057-.727.27-1.097.642-.185.185-.337.39-.456.612l-.64-.64-.187-2.495-1.8 1.803z"/></g><g><path fill="#ABD483" d="M23.53 83.27v62.77H217V70.225l-17.648 1.625-19.106-.34-33.94 3.872-17.876-.85-68.448 7.86-18.884-.47"/></g><g fill="#80BC56"><path d="M93.084 84.904v60.614h123.514V78.632l-35.983.27-17.058-4.218-32.375 9.497-19.59 3.888M23.36 83.27v62.248h35.814v-63.87l-16.9 2.014"/></g><g fill="#FFF"><path d="M150.95 103.51h1.56v6.99h-1.56v-2.75h-2.78v2.75h-1.56v-6.99h1.56v2.92h2.78v-2.92zM154.23 103.51h1.56v6.99h-1.56v-6.99z"/><g><path d="M111.96 83.445c.26.323.61.484 1.05.484.44 0 .79-.162 1.045-.485.257-.323.385-.766.385-1.325v-3.86H116v3.91c0 1.014-.28 1.792-.84 2.335-.56.544-1.277.815-2.15.815s-1.592-.273-2.154-.82c-.564-.547-.846-1.323-.846-2.33v-3.91h1.56v3.86c0 .56.13 1.002.39 1.325zM119.255 79.655c-.15.123-.226.286-.226.49 0 .203.09.364.274.484s.606.26 1.27.424c.664.164 1.18.41 1.545.735.366.326.55.803.55 1.43 0 .626-.235 1.135-.705 1.524-.47.39-1.088.585-1.855.585-1.106 0-2.104-.41-2.99-1.23l.93-1.14c.754.66 1.45.99 2.09.99.287 0 .513-.063.676-.187.164-.123.245-.29.245-.5s-.086-.376-.26-.5c-.172-.123-.516-.248-1.03-.375-.812-.193-1.407-.444-1.784-.755-.377-.31-.564-.796-.564-1.46 0-.663.238-1.175.715-1.535.477-.36 1.072-.54 1.785-.54.467 0 .934.08 1.4.24.466.16.873.387 1.22.68l-.79 1.14c-.607-.46-1.234-.69-1.88-.69-.263.002-.468.063-.617.187z"/></g></g></svg>