<svg xmlns="http://www.w3.org/2000/svg" viewBox="0 0 217 217" enable-background="new 0 0 217 217"><style type="text/css">.st0{fill:#5A5B5B;} .st1{fill:#AAD483;} .st2{fill:#80BC56;} .st3{fill:#FFFFFF;}</style><g id="Layer_1"><path class="st0" d="M21 161.7h-1l2-4.4h-2v.7h-.8v-1.5H23v.7l-2 4.5zM28 159.1c0 1.7-.8 2.6-2.2 2.6-1.4 0-2.2-.9-2.2-2.6 0-1.7.8-2.6 2.2-2.6 1.4 0 2.2.9 2.2 2.6zm-3.5 0c0 1.3.4 1.9 1.3 1.9s1.3-.6 1.3-1.9c0-1.3-.4-1.9-1.3-1.9s-1.3.6-1.3 1.9zM31.4 158c0 1-.5 1.6-1.4 1.6s-1.4-.6-1.4-1.6.5-1.6 1.4-1.6 1.4.7 1.4 1.6zm-2.2 0c0 .7.3 1.1.8 1.1s.8-.4.8-1.1c0-.7-.3-1-.8-1s-.8.4-.8 1zm4.3-1.5h.8l-3.8 5.2h-.8l3.8-5.2zm1.9 3.7c0 1-.5 1.6-1.4 1.6s-1.4-.6-1.4-1.6.5-1.6 1.4-1.6 1.4.6 1.4 1.6zm-2.2 0c0 .7.3 1.1.8 1.1s.8-.4.8-1.1c0-.7-.3-1.1-.8-1.1s-.8.4-.8 1.1zM21.5 133.6h-.9l2-4.4h-2v.7h-.8v-1.5h3.8v.7l-2.1 4.5zM25.1 129.2v1.1h.7c1.1 0 1.9.7 1.9 1.6 0 1.1-.8 1.8-1.9 1.8-.6 0-1.3-.2-1.9-.6l.4-.7c.4.4.9.6 1.4.6.7 0 1.1-.4 1.1-.9s-.4-.9-1.1-.9c-.3 0-1 0-1.4.1v-2.8h3.2v.8h-2.4zM31.1 129.9c0 1-.5 1.6-1.4 1.6-.9 0-1.4-.6-1.4-1.6s.5-1.6 1.4-1.6c.9.1 1.4.6 1.4 1.6zm-2.2 0c0 .7.3 1.1.8 1.1s.8-.4.8-1.1c0-.7-.3-1-.8-1s-.8.3-.8 1zm4.3-1.5h.8l-3.8 5.2h-.8l3.8-5.2zm1.8 3.7c0 1-.5 1.6-1.4 1.6s-1.4-.6-1.4-1.6.5-1.6 1.4-1.6 1.4.6 1.4 1.6zm-2.2 0c0 .7.3 1.1.8 1.1s.8-.4.8-1.1c0-.7-.3-1.1-.8-1.1s-.8.4-.8 1.1zM23.1 101.6c0 .5-.3.9-.8 1.1.6.2 1 .7 1 1.3 0 .9-.8 1.5-2 1.5s-2-.6-2-1.5c0-.6.4-1.1 1.1-1.3-.5-.2-.8-.6-.8-1.2 0-.8.7-1.3 1.7-1.3 1.1 0 1.8.5 1.8 1.4zm-3 2.3c0 .6.4.9 1.2.9.7 0 1.2-.3 1.2-.9 0-.5-.4-.9-1.2-.9-.7.1-1.2.4-1.2.9zm.2-2.3c0 .5.4.8 1 .8s1-.3 1-.8-.4-.8-1-.8-1 .3-1 .8zM28.4 102.9c0 1.7-.8 2.6-2.2 2.6-1.4 0-2.2-.9-2.2-2.6 0-1.7.8-2.6 2.2-2.6 1.5-.1 2.2.9 2.2 2.6zm-3.5 0c0 1.3.4 1.9 1.3 1.9s1.3-.6 1.3-1.9c0-1.3-.4-1.9-1.3-1.9-.9-.1-1.3.5-1.3 1.9zM31.9 101.8c0 1-.5 1.6-1.4 1.6-.9 0-1.4-.6-1.4-1.6s.5-1.6 1.4-1.6c.8 0 1.4.6 1.4 1.6zm-2.2 0c0 .7.3 1.1.8 1.1s.8-.4.8-1.1c0-.7-.3-1-.8-1-.5-.1-.8.3-.8 1zm4.2-1.6h.8l-3.8 5.2h-.8l3.8-5.2zm1.9 3.7c0 1-.5 1.6-1.4 1.6-.9 0-1.4-.6-1.4-1.6s.5-1.6 1.4-1.6c.9.1 1.4.7 1.4 1.6zm-2.2 0c0 .7.3 1.1.8 1.1s.8-.4.8-1.1c0-.7-.3-1.1-.8-1.1s-.8.5-.8 1.1zM22.6 73.4c0 .5-.3.9-.8 1.1.6.2 1 .7 1 1.3 0 .9-.8 1.5-2 1.5s-2-.6-2-1.5c0-.6.4-1.1 1.1-1.3-.5-.2-.8-.6-.8-1.2 0-.8.7-1.3 1.7-1.3 1.2.1 1.8.6 1.8 1.4zm-2.9 2.4c0 .6.4.9 1.2.9s1.2-.3 1.2-.9c0-.5-.4-.9-1.2-.9-.8 0-1.2.4-1.2.9zm.2-2.3c0 .5.4.8 1 .8s1-.3 1-.8-.4-.8-1-.8-1 .3-1 .8zM24.6 72.9V74h.7c1.1 0 1.9.7 1.9 1.6 0 1.1-.8 1.8-1.9 1.8-.6 0-1.3-.2-1.9-.6l.4-.7c.4.4.9.6 1.4.6.7 0 1.1-.4 1.1-.9s-.4-.9-1.1-.9c-.3 0-1 0-1.4.1v-2.8H27v.8h-2.4zM30.6 73.7c0 1-.5 1.6-1.4 1.6-.9 0-1.4-.6-1.4-1.6s.5-1.6 1.4-1.6c.9 0 1.4.6 1.4 1.6zm-2.2 0c0 .7.3 1.1.8 1.1s.8-.4.8-1.1c0-.7-.3-1-.8-1-.5-.1-.8.3-.8 1zm4.2-1.6h.8l-3.8 5.2h-.8l3.8-5.2zm1.9 3.7c0 1-.5 1.6-1.4 1.6s-1.4-.6-1.4-1.6.5-1.6 1.4-1.6 1.4.6 1.4 1.6zm-2.2 0c0 .7.3 1.1.8 1.1s.8-.4.8-1.1c0-.7-.3-1.1-.8-1.1s-.8.4-.8 1.1zM19.4 48.9l.3-.7c.3.2.8.3 1.2.3 1 0 1.5-.8 1.5-1.9-.3.5-.8.7-1.4.7-1 0-1.7-.7-1.7-1.7 0-1.1.7-1.8 1.8-1.8 1.3 0 2.1.9 2.1 2.5 0 1.7-.9 2.8-2.3 2.8-.4.2-1 0-1.5-.2zm2.8-3.2c0-.5-.3-1-1.1-1-.6 0-1.1.4-1.1 1s.4 1 1 1c.8 0 1.2-.5 1.2-1zM28.4 46.6c0 1.7-.8 2.6-2.2 2.6-1.4 0-2.2-.9-2.2-2.6 0-1.7.8-2.6 2.2-2.6 1.4 0 2.2.9 2.2 2.6zm-3.6 0c0 1.3.4 1.9 1.3 1.9s1.3-.6 1.3-1.9c0-1.3-.4-1.9-1.3-1.9-.8 0-1.3.6-1.3 1.9zM31.8 45.5c0 1-.5 1.6-1.4 1.6-.9 0-1.4-.6-1.4-1.6s.5-1.6 1.4-1.6c.8.1 1.4.7 1.4 1.6zm-2.2 0c0 .7.3 1.1.8 1.1s.8-.4.8-1.1c0-.7-.3-1-.8-1s-.8.4-.8 1zm4.2-1.5h.8l-3.8 5.2H30l3.8-5.2zm1.9 3.7c0 1-.5 1.6-1.4 1.6-.9 0-1.4-.6-1.4-1.6s.5-1.6 1.4-1.6c.9 0 1.4.6 1.4 1.6zm-2.2 0c0 .7.3 1.1.8 1.1s.8-.4.8-1.1c0-.7-.3-1.1-.8-1.1s-.8.4-.8 1.1zM37.4 182.6l-3.9-3.9-.9.9-.7-.7 1.7-1.7 4.6 4.6-.8.8zM39.1 180.3l-.3-.9c.5-.1 1-.4 1.3-.7.9-.9.6-2-.4-3 .2.7 0 1.3-.6 1.9-.9.9-2.1.9-3 0-1-1-.9-2.2.1-3.2 1.2-1.2 2.7-1.1 4.1.4 1.5 1.5 1.7 3.2.4 4.4-.4.5-1.1.9-1.6 1.1zm-.4-5.3c-.4-.4-1.1-.6-1.8.1-.6.6-.6 1.3-.1 1.8s1.2.5 1.8-.1c.6-.6.6-1.4.1-1.8zM43.2 169.9c.4.4.5 1.1.3 1.7.7-.4 1.5-.3 2.1.3.8.8.6 2-.5 3.1s-2.3 1.3-3.1.5c-.6-.6-.6-1.4-.2-2.1-.7.2-1.3.2-1.7-.3-.7-.7-.6-1.8.4-2.7.9-1.1 1.9-1.3 2.7-.5zm-2.4 2.4c.4.4 1 .3 1.6-.2.6-.6.6-1.1.2-1.6-.4-.4-1-.4-1.6.2-.6.6-.6 1.2-.2 1.6zm1.9 2.2c.5.5 1.2.4 1.8-.3.7-.7.8-1.3.3-1.8s-1.1-.4-1.8.3-.8 1.4-.3 1.8zM47 165.9c.5.5.6 1.3.7 2.4l.1 2.5 2.3-2.3.7.7-3.3 3.3-.6-.6-.1-3.5c0-.7-.2-1.3-.4-1.5-.4-.4-.9-.3-1.4.2-.4.4-.6 1.1-.7 1.8l-.9-.3c.1-.9.4-1.7 1-2.3.9-.9 1.9-1.1 2.6-.4zM64.5 182.6l-3.9-3.9-.9.9-.7-.7 1.7-1.7 4.6 4.6-.8.8zM66.2 180.3l-.3-.9c.5-.1 1-.4 1.3-.7.9-.9.6-2-.4-3 .2.7 0 1.3-.6 1.9-.9.9-2.1.9-3 0-1-1-.9-2.2.1-3.2 1.2-1.2 2.7-1 4.1.4 1.5 1.5 1.7 3.2.4 4.4-.3.5-1 .9-1.6 1.1zm-.3-5.3c-.4-.4-1.2-.6-1.8.1-.6.6-.6 1.3-.1 1.8s1.2.5 1.8-.1c.6-.6.6-1.4.1-1.8zM70.3 169.9c.4.4.5 1.1.3 1.7.7-.4 1.5-.3 2.1.3.8.8.6 2-.5 3.1s-2.3 1.3-3.1.5c-.6-.6-.6-1.4-.2-2.1-.7.2-1.3.2-1.7-.3-.7-.7-.6-1.8.4-2.7.9-1.1 2-1.3 2.7-.5zm-2.4 2.4c.4.4 1 .3 1.6-.2.6-.6.6-1.1.2-1.6-.4-.4-1-.4-1.6.2-.5.6-.6 1.2-.2 1.6zm1.9 2.2c.5.5 1.2.4 1.8-.3.7-.7.8-1.3.3-1.8s-1.1-.4-1.8.3-.8 1.4-.3 1.8zM76.1 171l-.8.8-2.1-5.7-1.8 1.8.6.7-.7.7L70 168l3.4-3.4.6.6 2.1 5.8zM91.6 182.6l-3.9-3.9-.9.9-.7-.7 1.7-1.7 4.6 4.6-.8.8zM93.3 180.3l-.3-.9c.5-.1 1-.4 1.3-.7.9-.9.6-2-.4-3 .2.7 0 1.3-.6 1.9-.9.9-2.1.9-3 0-1-1-.9-2.2.1-3.2 1.2-1.2 2.7-1 4.1.4 1.5 1.5 1.7 3.2.4 4.4-.4.5-1.1.9-1.6 1.1zm-.4-5.3c-.4-.4-1.1-.6-1.8.1-.6.6-.6 1.3-.1 1.8s1.2.5 1.8-.1c.7-.6.6-1.4.1-1.8zM97.3 176.2l-.3-.9c.5-.1 1-.4 1.3-.7.9-.9.6-2-.4-3 .2.7 0 1.3-.6 1.9-.9.9-2.1.9-3 0-1-1-.9-2.2.1-3.2 1.2-1.2 2.7-1 4.1.4 1.5 1.5 1.7 3.2.4 4.4-.3.5-1 .9-1.6 1.1zm-.3-5.3c-.4-.4-1.1-.6-1.8.1-.6.6-.6 1.3-.1 1.8s1.2.5 1.8-.1c.6-.5.6-1.3.1-1.8zM101.2 166c.5.5.6 1.3.7 2.4l.1 2.5 2.3-2.3.7.7-3.3 3.3-.7-.6-.1-3.5c0-.7-.2-1.3-.4-1.5-.4-.4-.9-.3-1.4.2-.4.4-.6 1.1-.7 1.8l-.9-.3c.1-.9.4-1.7 1-2.3.9-1 2-1.1 2.7-.4zM118.7 182.6l-3.9-3.9-.9.9-.7-.7 1.7-1.7 4.6 4.6-.8.8zM120.4 180.3l-.3-.9c.5-.1 1-.4 1.3-.7.9-.9.6-2-.4-3 .2.7 0 1.3-.6 1.9-.9.9-2.1.9-3 0-1-1-.9-2.2.1-3.2 1.2-1.2 2.7-1.1 4.1.4 1.5 1.5 1.7 3.2.4 4.4-.3.5-1 .9-1.6 1.1zm-.3-5.3c-.4-.4-1.1-.6-1.8.1-.6.6-.6 1.3-.1 1.8s1.2.5 1.8-.1c.6-.6.6-1.4.1-1.8zM124.5 176.2l-.3-.9c.5-.1 1-.4 1.3-.7.9-.9.6-2-.4-3 .2.7 0 1.3-.6 1.9-.9.9-2.1.9-3 0-1-1-.9-2.2.1-3.2 1.2-1.2 2.7-1.1 4.1.4 1.5 1.5 1.7 3.2.4 4.4-.4.5-1 .9-1.6 1.1zm-.4-5.3c-.4-.4-1.1-.6-1.8.1-.6.6-.6 1.3-.1 1.8s1.2.5 1.8-.1c.7-.5.6-1.3.1-1.8zM130.2 171.1l-.8.8-2.1-5.7-1.8 1.8.6.7-.7.7-1.3-1.3 3.4-3.4.6.6 2.1 5.8zM144.6 176.7c.5.5.6 1.3.7 2.4l.1 2.5 2.3-2.3.7.7-3.3 3.3-.6-.6-.1-3.5c0-.7-.2-1.3-.4-1.5-.4-.4-.9-.3-1.4.2-.4.4-.6 1.1-.7 1.8l-.9-.3c.1-.9.4-1.8 1-2.3.9-1 1.9-1.1 2.6-.4zM150.6 173.1c1.5 1.5 1.6 3 .4 4.3-1.3 1.3-2.8 1.1-4.3-.4s-1.6-3-.4-4.3c1.3-1.2 2.8-1.1 4.3.4zm-3.1 3.1c1.2 1.2 2.1 1.3 2.9.5.8-.8.6-1.7-.6-2.9s-2.1-1.3-2.9-.6c-.8.9-.6 1.9.6 3zM155.1 168.5c1.5 1.5 1.6 3 .4 4.3-1.3 1.3-2.8 1.1-4.3-.4s-1.6-3-.4-4.3c1.3-1.2 2.8-1 4.3.4zm-3.1 3.2c1.2 1.2 2.1 1.3 2.9.5.8-.8.6-1.7-.6-2.9s-2.1-1.3-2.9-.6c-.7.9-.6 1.8.6 3zM157.7 163.7c.5.5.6 1.3.7 2.4l.1 2.5 2.3-2.3.7.7-3.3 3.3-.6-.6-.1-3.5c0-.7-.2-1.3-.4-1.5-.4-.4-.9-.3-1.4.2-.4.4-.6 1.1-.7 1.8l-.9-.3c.1-.9.4-1.8 1-2.3.8-1 1.9-1.1 2.6-.4zM171.8 176.7c.5.5.6 1.3.7 2.4l.1 2.5 2.3-2.3.7.7-3.3 3.3-.6-.6-.1-3.5c0-.7-.2-1.3-.4-1.5-.4-.4-.9-.3-1.4.2-.4.4-.6 1.1-.7 1.8l-.9-.3c.1-.9.4-1.7 1-2.3.8-1 1.9-1.1 2.6-.4zM177.7 173.1c1.5 1.5 1.6 3 .4 4.3-1.3 1.3-2.8 1.1-4.3-.4s-1.6-3-.4-4.3c1.3-1.2 2.8-1.1 4.3.4zm-3.1 3.1c1.2 1.2 2.1 1.3 2.9.5.8-.8.6-1.7-.6-2.9s-2.1-1.3-2.9-.6c-.7.9-.6 1.9.6 3zM182.3 168.5c1.5 1.5 1.6 3 .4 4.3-1.3 1.3-2.8 1.1-4.3-.4s-1.6-3-.4-4.3c1.3-1.2 2.8-1.1 4.3.4zm-3.1 3.2c1.2 1.2 2.1 1.3 2.9.5.8-.8.6-1.7-.6-2.9s-2.1-1.3-2.9-.6c-.8.9-.6 1.8.6 3zM186.7 168.8l-.8.8-2.1-5.7-1.8 1.8.6.7-.7.7-1.3-1.3 3.4-3.4.6.6 2.1 5.8zM198.9 176.7c.5.5.6 1.3.7 2.4l.1 2.5 2.3-2.3.7.7-3.3 3.3-.6-.6-.1-3.5c0-.7-.2-1.3-.4-1.5-.4-.4-.9-.3-1.4.2-.4.4-.6 1.1-.7 1.8l-.9-.3c.1-.9.4-1.7 1-2.3.8-1 1.8-1.1 2.6-.4zM204.8 173.1c1.5 1.5 1.6 3 .4 4.3-1.3 1.3-2.8 1.1-4.3-.4s-1.6-3-.4-4.3c1.3-1.2 2.8-1.1 4.3.4zm-3.1 3.1c1.2 1.2 2.1 1.3 2.9.5.8-.8.6-1.7-.6-2.9s-2.1-1.3-2.9-.6c-.8.9-.6 1.9.6 3zM208.4 174.1l-3.9-3.9-.9.9-.7-.7 1.7-1.7 4.6 4.6-.8.8zM209.9 165.7c.5.5.6 1.3.7 2.4l.1 2.5 2.3-2.3.7.7-3.3 3.3-.6-.6-.1-3.5c0-.7-.2-1.3-.4-1.5-.4-.4-.9-.3-1.4.2-.4.4-.6 1.1-.7 1.8l-.9-.3c.1-.9.4-1.7 1-2.3.8-1 1.9-1.1 2.6-.4z"/></g><path class="st1" d="M46.6 110.5v49.2h165V55.6L200 58l-11.4 6.5-9.6 8.3-5.7 1.7h-4.7l-10.9 3.4h-5.9l-10.5 3.6-5.1-1-4-1.1h-6.7l-4.5 1.2-5.9.9-10.7 2.8-4.4 7.5-6 4-2.7 3.8-7.8 5-4.8 2.5-6.8.5-8-5-6.6-4-5.3-.9z" id="Layer_3"/><path class="st2" d="M46.6 143.9v15.8h165.2V51.4L199.4 57l-5.4 6.2-5.4-3.1-7.8 10.1-7.8 7.4-5.6-1.1-5-2.8-5.2 3.9-5.2-3.9-5.7 9.6-5-5.2-5.3 6.1-10.5.1-5.2 5.3h-5.2l-5.4.9-4.4 5L99 107l-5.2 6.9-5 4.3-6.1-5-4.5-1.7-5.4.9-5.2-3.5-10 11.1-6.1 3z" id="Layer_2"/><g id="Layer_4"><path class="st3" d="M89 108.7c0 1.5-1 2.5-2.6 2.5s-2.6-.9-2.6-2.5v-3.4h1v3.4c0 1 .6 1.6 1.6 1.6s1.6-.6 1.6-1.6v-3.4h1v3.4zM94.4 105.8l-.4.9c-.6-.4-1.3-.5-1.7-.5-.6 0-1 .2-1 .6 0 1.3 3.2.6 3.2 2.7 0 1.1-.9 1.7-2.2 1.7-.9 0-1.8-.4-2.4-.9l.4-.9c.6.6 1.4.9 2 .9.7 0 1.1-.3 1.1-.7 0-1.3-3.2-.6-3.2-2.7 0-1 .9-1.6 2.1-1.6.8-.1 1.6.1 2.1.5zM153.3 127.5v-2.4h-3.1v2.4h-1v-5.9h1v2.6h3.1v-2.6h1v5.9h-1zM155.8 127.5v-5.9h1v5.9h-1z"/><path class="st0" d="M5.8 160.5c1.3 0 2.1.7 2.1 1.9s-.8 1.9-2.1 1.9-2.1-.7-2.1-1.9.8-1.9 2.1-1.9zm-2.1-2.8v-1.1l7.1 5.2v1.1l-7.1-5.2zm2.1 5.8c.9 0 1.4-.4 1.4-1.1 0-.7-.5-1.1-1.4-1.1-.9 0-1.4.4-1.4 1.1 0 .7.5 1.1 1.4 1.1zm2.9-8.3c1.3 0 2.1.7 2.1 1.9S10 159 8.7 159s-2.1-.7-2.1-1.9.8-1.9 2.1-1.9zm0 2.9c.9 0 1.4-.4 1.4-1.1s-.5-1.1-1.4-1.1c-.9 0-1.4.4-1.4 1.1s.5 1.1 1.4 1.1zM8.1 146.2c1.6 0 2.7 1.1 2.7 2.8 0 1.7-1.1 2.8-2.7 2.8s-2.7-1.1-2.7-2.8c0-1.7 1.1-2.8 2.7-2.8zm0 4.5c1 0 1.8-.7 1.8-1.7s-.7-1.6-1.8-1.6c-1 0-1.7.7-1.7 1.6 0 1 .7 1.7 1.7 1.7zM5 143.6h.6v-1.4h.9v1.4h4.3v1.2H6.5v.7h-.9v-.7h-.5c-1.3 0-1.9-.9-1.9-1.9 0-.4.1-.9.4-1.2l.9.4c-.2.2-.3.5-.3.7 0 .5.3.8.8.8zM3.7 136c0-1.8.9-2.8 2.4-2.8 1.6 0 2.5 1 2.5 2.8v1.6h2.1v1.2h-7V136zm3.9 1.7v-1.6c0-1.1-.5-1.7-1.4-1.7-.9 0-1.4.6-1.4 1.7v1.6h2.8zM6.5 131c-.7-.4-1.1-1-1.1-1.9h1.1c-.1 1.1.5 1.8 1.5 1.9h2.8v1.2H5.4V131h1.1zM3.9 126.9c.4 0 .7.3.7.7 0 .4-.3.7-.7.7-.4 0-.7-.3-.7-.7-.1-.4.2-.7.7-.7zm6.9 1.2H5.4V127h5.4v1.1zM10.8 124l-5.4 2.1v-1.2l4.2-1.5-4.2-1.5v-1.2l5.4 2.1v1.2zM10.1 116.8c.5.4.7 1 .7 1.8 0 1.2-.7 1.9-1.7 1.9s-1.6-.7-1.6-2v-1.6h-.1c-.7 0-1.1.4-1.1 1.3 0 .5.2 1.1.5 1.6l-.8.4c-.4-.8-.7-1.3-.7-2.3 0-1.4.7-2.2 1.9-2.2h3.5v1.1h-.6zm-1.2.1h-.5v1.5c0 .8.2 1.1.7 1.1.5 0 .8-.4.8-1 0-1-.4-1.6-1-1.6zM10.4 111.1c.3.4.4.9.4 1.3 0 .8-.5 1.5-1.6 1.5H6.5v.8h-.9v-.8H4.1v-1.2h1.5v-1.6h.9v1.6h2.6c.6 0 .7-.2.7-.6 0-.2-.1-.5-.2-.8l.8-.2zM8.5 105.3v4.1c.8-.2 1.3-.8 1.3-1.7 0-.6-.2-1.1-.6-1.5l.7-.6c.6.5.9 1.3.9 2.2 0 1.7-1.1 2.8-2.7 2.8s-2.7-1.1-2.7-2.7c0-1.9 1.2-2.7 3.1-2.6zm-.8 1c-.9 0-1.4.6-1.4 1.5s.5 1.4 1.4 1.6v-3.1zM4.4 96.6l1.1.5c-.5.8-.7 1.5-.7 2.1 0 .7.3 1.2.7 1.2 1.6 0 .7-3.8 3.3-3.8 1.3 0 2 1.1 2 2.7 0 1.1-.5 2.2-1.1 2.9l-1-.5c.7-.7 1-1.6 1-2.4 0-.8-.3-1.3-.9-1.3-1.6 0-.7 3.8-3.2 3.8-1.2 0-2-1-2-2.6 0-1 .3-1.9.8-2.6zM8.5 90.4v4.1c.8-.2 1.3-.8 1.3-1.7 0-.6-.2-1.1-.6-1.5l.7-.6c.6.5.9 1.3.9 2.2 0 1.7-1.1 2.8-2.7 2.8S5.4 94.6 5.4 93c0-1.9 1.2-2.7 3.1-2.6zm-.8 1.1c-.9 0-1.4.6-1.4 1.5s.5 1.4 1.4 1.6v-3.1zM6.2 84.8l.8.6c-.4.4-.6.9-.6 1.5 0 .9.7 1.6 1.7 1.6s1.7-.7 1.7-1.6c0-.7-.2-1.2-.6-1.6l.6-.6c.6.5 1 1.3 1 2.3 0 1.6-1.1 2.7-2.7 2.7S5.4 88.6 5.4 87c0-1 .3-1.7.8-2.2zM10.4 80.5c.3.4.4.9.4 1.3 0 .8-.5 1.5-1.6 1.5H6.5v.8h-.9v-.8H4.1v-1.2h1.5v-1.6h.9v1.6h2.6c.6 0 .7-.2.7-.6 0-.2-.1-.5-.2-.8l.8-.2zM8.1 74.3c1.6 0 2.7 1.1 2.7 2.8 0 1.7-1.1 2.8-2.7 2.8s-2.7-1.1-2.7-2.8c0-1.6 1.1-2.8 2.7-2.8zm0 4.5c1 0 1.8-.7 1.8-1.7s-.7-1.6-1.8-1.6c-1 0-1.7.7-1.7 1.6 0 1 .7 1.7 1.7 1.7zM6.5 71.9c-.7-.4-1.1-1-1.1-1.9h1.1c-.1 1.2.5 1.9 1.5 1.9h2.8v1.2H5.4v-1.2h1.1zM8.6 63.1c1.4 0 2.2.8 2.2 2.2 0 .9-.4 1.6-1 2.1l-.9-.6c.5-.5.8-1 .8-1.5 0-.6-.4-1-1.1-1H4.8v2.5H3.7v-3.7h4.9zM8.1 56.3c1.6 0 2.7 1.1 2.7 2.8 0 1.7-1.1 2.8-2.7 2.8s-2.7-1.1-2.7-2.8c0-1.6 1.1-2.8 2.7-2.8zm0 4.5c1 0 1.8-.7 1.8-1.7s-.7-1.6-1.8-1.6c-1 0-1.7.7-1.7 1.6 0 1 .7 1.7 1.7 1.7zM8.1 49.4c1.6 0 2.7 1 2.7 2.6 0 .9-.3 1.5-1 1.9h.9v1.2H3.3v-1.2h3.1c-.6-.4-1-1-1-1.9 0-1.5 1.1-2.6 2.7-2.6zm0 1.2c-1 0-1.7.7-1.7 1.6 0 1 .7 1.6 1.7 1.6s1.8-.7 1.8-1.6c-.1-.9-.8-1.6-1.8-1.6zM5.9 44.7l.9.4c-.3.5-.5 1.1-.5 1.6s.2.8.5.8c1 0 .5-2.9 2.4-2.9 1.1 0 1.6 1 1.6 2.1 0 .8-.3 1.6-.8 2.2l-.8-.4c.4-.5.7-1.2.7-1.8 0-.5-.2-.9-.6-.9-1.1 0-.5 2.8-2.4 2.8-1.1 0-1.6-1-1.6-2 0-.7.2-1.4.6-1.9z"/></g></svg>