<svg xmlns="http://www.w3.org/2000/svg" width="217" height="217" viewBox="0 0 217 217"><text transform="translate(4 148.055)" fill="#5A5A5A" font-family="'Montserrat-Regular'" font-size="10.071">0%</text><text transform="translate(4.985 132.09)" fill="#5A5A5A" font-family="'Montserrat-Regular'" font-size="10.071">1%</text><text transform="translate(3.985 116.12)" fill="#5A5A5A" font-family="'Montserrat-Regular'" font-size="10.071">2%</text><text transform="translate(3.985 100.148)" fill="#5A5A5A" font-family="'Montserrat-Regular'" font-size="10.071">3%</text><text transform="translate(3.985 84.18)" fill="#5A5A5A" font-family="'Montserrat-Regular'" font-size="10.071">4%</text><text transform="translate(3.985 68.21)" fill="#5A5A5A" font-family="'Montserrat-Regular'" font-size="10.071">5%</text><text transform="rotate(-45 212.606 72.796)" fill="#5A5A5A" font-family="'Montserrat-Regular'" font-size="10.071">2003</text><text transform="rotate(-45 230.078 30.61)" fill="#5A5A5A" font-family="'Montserrat-Regular'" font-size="10.071">2005</text><text transform="rotate(-45 247.552 -11.573)" fill="#5A5A5A" font-family="'Montserrat-Regular'" font-size="10.071">2007</text><text transform="rotate(-45 265.023 -53.75)" fill="#5A5A5A" font-family="'Montserrat-Regular'" font-size="10.071">2009</text><text transform="rotate(-45 282.5 -95.933)" fill="#5A5A5A" font-family="'Montserrat-Regular'" font-size="10.071">2011</text><text transform="rotate(-45 299.972 -138.117)" fill="#5A5A5A" font-family="'Montserrat-Regular'" font-size="10.071">2013</text><g><path fill-rule="evenodd" clip-rule="evenodd" fill="#ABD483" d="M23.53 83.27v62.77H217V70.225l-17.648 1.625-19.106-.34-33.94 3.872-17.876-.85-68.448 7.86-18.884-.47"/></g><g fill="#80BC56"><path fill-rule="evenodd" clip-rule="evenodd" d="M93.084 84.904v60.613h123.514V78.632l-35.983.27-17.058-4.218-32.375 9.497-19.59 3.888"/><path d="M23.36 83.27v62.247h35.814v-63.87l-16.9 2.015"/></g><g fill="#FFF" font-family="'Montserrat-Bold'" font-size="10"><text transform="translate(145.75 110.5)">HI</text><text transform="translate(109.25 85.25)">US</text></g></svg>