<svg xmlns="http://www.w3.org/2000/svg" width="217" height="217" viewBox="0 0 217 217"><path fill="#D5E7B4" d="M30.412 53.808l62.49-3.686 59.255-10.43 21.488 2.067 21.222-3.597 19.42-1.62V158.65H30.413"/><path fill="#80BC57" d="M30.412 80.873v77.506h184.325V62.8L193.7 65.046l-20.323 1.53-40.644 9.8h-20.318l-20.32-3.057-41.363 8.27"/><g font-family="'ArialMT'"><text transform="translate(18.597 159.465)" fill="#676868" font-size="12.588">0</text><text transform="translate(19.686 133.05)" fill="#676868" font-size="12.588">1</text><text transform="translate(19.686 106.397)" fill="#676868" font-size="12.588">2</text><text transform="translate(20.594 80.17)" fill="#676868" font-size="12.588">3</text><text transform="translate(19.333 52.547)" fill="#676868" font-size="12.588">4</text><text transform="translate(20.05 26.625)" fill="#676868" font-size="12.588">5</text><text transform="rotate(-47.258 226.904 77.005)" fill="#676868" font-size="12.588">2003</text><text transform="rotate(-42.7 273.568 22.042)" fill="#676868" font-size="12.588">2005</text><text transform="rotate(-44.332 286.337 -30.605)" fill="#676868" font-size="12.588">2007</text><text transform="rotate(-41.807 322.183 -91.866)" fill="#676868" font-size="12.588">2009</text><text transform="rotate(-49.18 301.86 -106.717)" fill="#676868" font-size="12.589">2011</text><text transform="rotate(-90 84.535 71.517)" fill="#676868" font-size="12.588">% of all occupations</text><text transform="translate(152.295 106.397)" fill="#FFF" font-size="12.588">HI</text><text transform="translate(144.963 60.67)" fill="#FFF" font-size="12.588">US</text></g></svg>