<svg xmlns="http://www.w3.org/2000/svg" xmlns:xlink="http://www.w3.org/1999/xlink" viewBox="0 0 250 250" enable-background="new 0 0 250 250"><style type="text/css">.st0{display:none;} .st1{display:inline;} .st2{clip-path:url(#SVGID_2_);fill:none;stroke:#989798;stroke-linejoin:round;stroke-miterlimit:10;} .st3{clip-path:url(#SVGID_4_);fill:none;stroke:#989798;stroke-linejoin:round;stroke-miterlimit:10;} .st4{fill:#D4E7B3;} .st5{fill:#7FBB57;} .st6{fill:#676767;} .st7{font-family:&apos;Montserrat-Regular&apos;;} .st8{font-size:14px;} .st9{display:none;fill:#676767;enable-background:new ;} .st10{font-size:14.0007px;} .st11{fill:#FFFFFF;}</style><g id="Layer_1_1_" class="st0"><g class="st1"><defs><path id="SVGID_1_" d="M5.4 27.3h319.8v191.9H5.4z"/></defs><clipPath id="SVGID_2_"><use xlink:href="#SVGID_1_" overflow="visible"/></clipPath><path class="st2" d="M25.8 38.9H243M25.8 70.8H243M25.8 101.9H243m-217.2 32H243M25.8 165H243"/></g><g class="st1"><defs><path id="SVGID_3_" d="M5.4 27.3h319.8v191.9H5.4z"/></defs><clipPath id="SVGID_4_"><use xlink:href="#SVGID_3_" overflow="visible"/></clipPath><path class="st3" d="M26 196.7V38.9"/></g></g><path class="st4" d="M32.1 77l69.5-4.1 65.9-11.6 23.9 2.3 23.6-4 21.6-1.8v135.8H32.1z" id="Layer_4"/><path class="st5" d="M32.1 107.1v86.2h205V87l-23.4 2.5-22.6 1.7-45.2 10.9h-22.6l-22.6-3.4-46 9.2z" id="Layer_3"/><g id="Layer_2"><text transform="translate(18.959 194.508)" class="st6 st7 st8">0</text><text transform="translate(20.171 165.13)" class="st6 st7 st8">1</text><text transform="translate(20.171 135.489)" class="st6 st7 st8">2</text><text transform="translate(21.182 106.318)" class="st6 st7 st8">3</text><text transform="translate(19.778 75.599)" class="st6 st7 st8">4</text><text transform="translate(20.576 46.768)" class="st6 st7 st8">5</text><text transform="matrix(.679 -.734 .734 .679 16.461 230.002)" class="st6 st7 st8">2003</text><text transform="matrix(.695 -.719 .719 .695 38.656 230.001)" class="st9 st7 st8">2004</text><text transform="matrix(.735 -.678 .678 .735 62.309 230)" class="st6 st7 st8">2005</text><text transform="matrix(.717 -.698 .698 .717 87.644 230.001)" class="st9 st7 st8">2006</text><text transform="matrix(.715 -.699 .699 .715 112.725 230.002)" class="st6 st7 st8">2007</text><text transform="matrix(.739 -.674 .674 .739 136.218 230.002)" class="st9 st7 st8">2008</text><text transform="matrix(.745 -.667 .667 .745 157.612 230.002)" class="st6 st7 st8">2009</text><text transform="matrix(.719 -.696 .696 .719 181.932 230.002)" class="st9 st7 st10">2010</text><text transform="matrix(.654 -.757 .757 .654 204.37 230.124)" class="st6 st7 st8">2011</text><text transform="matrix(.761 -.649 .649 .761 222.451 230.003)" class="st9 st7 st8">2012</text><text transform="matrix(0 -1 1 0 12.755 190.715)" class="st6 st7 st8">% of all occupations</text><text transform="translate(167.653 135.489)" class="st11 st7 st8">HI</text><text transform="translate(159.498 84.631)" class="st11 st7 st8">US</text></g></svg>