<svg xmlns="http://www.w3.org/2000/svg" width="217" height="217" viewBox="0 0 217 217"><path d="M5.309 147.144c-.477-.661-.715-1.546-.715-2.654 0-1.107.238-1.992.715-2.653s1.195-.992 2.155-.992c.96 0 1.679.331 2.155.992s.715 1.546.715 2.653c0 1.108-.239 1.993-.715 2.654s-1.195.992-2.155.992c-.96 0-1.678-.331-2.155-.992zm.851-4.558c-.279.483-.418 1.118-.418 1.903 0 .786.139 1.42.418 1.903s.713.726 1.304.726 1.022-.24 1.294-.72.408-1.116.408-1.909c0-.792-.136-1.428-.408-1.908s-.704-.72-1.294-.72-1.025.242-1.304.725zm7.82-1.273c.289.312.433.689.433 1.133 0 .442-.146.822-.438 1.138s-.654.474-1.087.474-.794-.156-1.083-.469c-.289-.312-.433-.689-.433-1.133s.146-.822.438-1.138.654-.474 1.087-.474.794.156 1.083.469zm4.099-.298l-5.156 7.04h-1.299l5.157-7.04h1.298zm-4.773 1.959a.805.805 0 0 0 .161-.509c0-.201-.057-.37-.171-.508s-.253-.207-.418-.207-.3.069-.408.207-.161.307-.161.508c0 .202.057.371.171.509s.253.207.418.207.3-.07.408-.207zm4.673 2.417c.289.313.433.69.433 1.133 0 .443-.146.823-.438 1.139s-.655.474-1.088.474-.794-.156-1.083-.469-.433-.689-.433-1.133.146-.822.438-1.139c.292-.315.655-.473 1.088-.473s.794.156 1.083.468zm-.655 1.681a.802.802 0 0 0 .161-.508.772.772 0 0 0-.171-.509c-.114-.138-.253-.207-.418-.207s-.301.069-.408.207-.161.307-.161.509c0 .201.057.371.171.508.114.138.253.207.418.207s.3-.069.408-.207zM5.277 125.05h2.558v7.04H6.708v-5.982h-1.43v-1.058zm6.597.298c.289.312.433.689.433 1.133 0 .442-.146.822-.438 1.138s-.654.474-1.087.474-.794-.156-1.083-.469c-.289-.312-.433-.689-.433-1.133s.146-.822.438-1.138.654-.474 1.087-.474.794.156 1.083.469zm4.099-.298l-5.156 7.04h-1.3l5.157-7.04h1.299zm-4.774 1.959a.805.805 0 0 0 .161-.509c0-.201-.057-.37-.171-.508s-.253-.207-.418-.207-.3.069-.408.207-.161.307-.161.508c0 .202.057.371.171.509s.253.207.418.207.301-.07.408-.207zm4.673 2.417c.289.313.433.69.433 1.133 0 .443-.146.823-.438 1.139s-.655.474-1.088.474-.794-.156-1.083-.469-.433-.689-.433-1.133.146-.822.438-1.139c.292-.315.655-.473 1.088-.473s.794.156 1.083.468zm-.655 1.681a.802.802 0 0 0 .161-.508.772.772 0 0 0-.171-.509c-.114-.138-.253-.207-.418-.207s-.301.069-.408.207-.161.307-.161.509c0 .201.057.371.171.508.114.138.253.207.418.207s.301-.069.408-.207zm-7.495-19.278c.202-.275.302-.555.302-.836a.946.946 0 0 0-.322-.721c-.215-.197-.487-.297-.816-.297-.578 0-1.057.296-1.44.887l-.957-.555c.309-.463.65-.812 1.022-1.047s.853-.353 1.44-.353 1.103.187 1.546.559c.443.373.665.882.665 1.526 0 .362-.094.708-.282 1.037s-.534.752-1.037 1.269l-1.652 1.683h3.192v1.138H4.569v-1.007l2.135-2.146c.477-.483.817-.862 1.018-1.137zm5.247-2.452c.289.312.433.689.433 1.133 0 .442-.146.822-.438 1.138s-.654.474-1.087.474-.794-.156-1.083-.469c-.289-.312-.433-.689-.433-1.133s.146-.822.438-1.138.654-.474 1.087-.474.794.156 1.083.469zm4.098-.298l-5.156 7.04h-1.299l5.157-7.04h1.298zm-4.773 1.959a.805.805 0 0 0 .161-.509c0-.201-.057-.37-.171-.508s-.253-.207-.418-.207-.3.069-.408.207-.161.307-.161.508c0 .202.057.371.171.509s.253.207.418.207.301-.069.408-.207zm4.673 2.417c.289.313.433.69.433 1.133 0 .443-.146.823-.438 1.139s-.655.474-1.088.474-.794-.156-1.083-.469-.433-.689-.433-1.133.146-.822.438-1.139c.292-.315.655-.473 1.088-.473s.794.157 1.083.468zm-.655 1.682a.802.802 0 0 0 .161-.508.772.772 0 0 0-.171-.509c-.114-.138-.253-.207-.418-.207s-.301.069-.408.207-.161.307-.161.509c0 .201.057.371.171.508.114.138.253.207.418.207s.301-.07.408-.207zM4.761 94.165v-1.058H8.88v.927l-1.702 1.903c.645.021 1.148.224 1.511.609.363.387.544.848.544 1.385 0 .719-.244 1.282-.73 1.692-.487.409-1.113.614-1.878.614s-1.514-.245-2.246-.735l.504-.957c.577.403 1.182.604 1.813.604.41 0 .747-.096 1.012-.287s.398-.467.398-.826c0-.358-.148-.646-.443-.86s-.705-.322-1.229-.322c-.262 0-.514.037-.755.11v-.906l1.632-1.894h-2.55zm8.097-.76c.289.312.433.689.433 1.133 0 .442-.146.822-.438 1.138s-.654.474-1.087.474-.794-.156-1.083-.469c-.289-.312-.433-.689-.433-1.133s.146-.822.438-1.138.654-.474 1.087-.474.794.157 1.083.469zm4.099-.298l-5.156 7.04h-1.299l5.157-7.04h1.298zm-4.774 1.959a.805.805 0 0 0 .161-.509c0-.201-.057-.37-.171-.508s-.253-.207-.418-.207-.3.069-.408.207-.161.307-.161.508c0 .202.057.371.171.509s.253.207.418.207.301-.069.408-.207zm4.673 2.417c.289.313.433.69.433 1.133 0 .443-.146.823-.438 1.139s-.655.474-1.088.474-.794-.156-1.083-.469-.433-.689-.433-1.133.146-.822.438-1.139c.292-.315.655-.473 1.088-.473s.794.157 1.083.468zm-.655 1.682a.802.802 0 0 0 .161-.508.772.772 0 0 0-.171-.509c-.114-.138-.253-.207-.418-.207s-.301.069-.408.207-.161.307-.161.509c0 .201.057.371.171.508.114.138.253.207.418.207s.301-.069.408-.207zM7.379 81.331v-1.289h1.128v1.289h.846v1.078h-.846v1.772H7.379v-1.772H4.358v-1.048l2.588-4.22h1.299L5.697 81.33h1.682zm5.419-3.892c.289.312.433.689.433 1.133 0 .442-.146.822-.438 1.138s-.654.474-1.087.474-.794-.156-1.083-.469c-.289-.312-.433-.689-.433-1.133s.146-.822.438-1.138.654-.474 1.087-.474.794.157 1.083.469zm4.098-.297l-5.156 7.04h-1.299l5.157-7.04h1.298zm-4.773 1.959a.805.805 0 0 0 .161-.509c0-.201-.057-.37-.171-.508s-.253-.207-.418-.207-.3.069-.408.207-.161.307-.161.508c0 .202.057.371.171.509s.253.207.418.207.301-.07.408-.207zm4.673 2.417c.289.313.433.69.433 1.133 0 .443-.146.823-.438 1.139s-.655.474-1.088.474-.794-.156-1.083-.469-.433-.689-.433-1.133.146-.822.438-1.139c.292-.315.655-.473 1.088-.473s.794.156 1.083.468zm-.655 1.681a.802.802 0 0 0 .161-.508.772.772 0 0 0-.171-.509c-.114-.138-.253-.207-.418-.207s-.301.069-.408.207-.161.307-.161.509c0 .201.057.371.171.508.114.138.253.207.418.207s.301-.069.408-.207zM8.88 61.161v1.077H5.909v1.732a2.068 2.068 0 0 1 1.007-.241c.658 0 1.225.198 1.702.594.477.396.715.934.715 1.611 0 .679-.249 1.241-.745 1.688-.497.446-1.108.67-1.833.67-.947 0-1.702-.316-2.266-.947l.635-.866c.054.054.126.118.216.191.091.074.277.173.559.297.282.125.591.187.926.187.336 0 .641-.101.917-.302.275-.202.413-.495.413-.882 0-.386-.146-.685-.438-.896-.292-.212-.662-.317-1.108-.317a2.6 2.6 0 0 0-1.274.332l-.503-.544v-3.384H8.88zm3.988.308c.289.312.433.689.433 1.133 0 .442-.146.822-.438 1.138s-.654.474-1.087.474-.794-.156-1.083-.469c-.289-.312-.433-.689-.433-1.133s.146-.822.438-1.138.654-.474 1.087-.474.794.156 1.083.469zm4.099-.298l-5.156 7.04h-1.299l5.157-7.04h1.298zm-4.774 1.959a.805.805 0 0 0 .161-.509c0-.201-.057-.37-.171-.508s-.253-.207-.418-.207-.3.069-.408.207-.161.307-.161.508c0 .202.057.371.171.509s.253.207.418.207.301-.069.408-.207zm4.673 2.417c.289.313.433.69.433 1.133 0 .443-.146.823-.438 1.139s-.655.474-1.088.474-.794-.156-1.083-.469-.433-.689-.433-1.133.146-.822.438-1.139c.292-.315.655-.473 1.088-.473s.795.156 1.083.468zm-.655 1.682a.802.802 0 0 0 .161-.508.772.772 0 0 0-.171-.509c-.114-.138-.253-.207-.418-.207s-.301.069-.408.207-.161.307-.161.509c0 .201.057.371.171.508.114.138.253.207.418.207s.301-.07.408-.207zm-5.805 98.751c-.053-.338-.179-.606-.377-.805a.94.94 0 0 0-.738-.282 1.164 1.164 0 0 0-.787.366c-.408.409-.537.957-.391 1.646l-1.068.283c-.109-.545-.115-1.033-.018-1.463.097-.43.354-.852.77-1.268a2.331 2.331 0 0 1 1.487-.697c.577-.05 1.094.153 1.55.609.256.256.434.566.533.932.1.367.154.91.164 1.631l.021 2.357 2.258-2.257.805.804-3.404 3.404-.713-.711-.007-3.027c-.005-.678-.032-1.186-.085-1.522zm4.867-.088c-.805-.131-1.599-.588-2.383-1.372-.783-.783-1.24-1.576-1.37-2.381s.144-1.547.822-2.226 1.421-.953 2.226-.823c.805.131 1.599.588 2.382 1.371.784.783 1.241 1.578 1.372 2.383.129.805-.145 1.547-.823 2.226s-1.421.951-2.226.822zm-2.621-3.826c.145.539.495 1.087 1.051 1.643.555.555 1.102.904 1.641 1.049.539.146 1.018.01 1.436-.408s.553-.893.406-1.424c-.146-.533-.501-1.078-1.062-1.639-.56-.561-1.105-.914-1.638-1.061-.531-.148-1.006-.012-1.424.406-.417.418-.554.896-.41 1.434zm7.522-1.074c-.805-.131-1.6-.588-2.383-1.372-.783-.783-1.24-1.577-1.371-2.382-.13-.805.145-1.547.822-2.225.68-.68 1.422-.953 2.227-.822.804.13 1.598.586 2.381 1.369.784.784 1.24 1.578 1.371 2.383s-.143 1.547-.822 2.227c-.678.678-1.42.951-2.225.822zm-2.621-3.824c.145.539.494 1.086 1.05 1.641.556.556 1.103.906 1.642 1.051s1.018.008 1.436-.41c.417-.417.553-.893.406-1.424-.148-.531-.502-1.078-1.063-1.639-.56-.56-1.105-.913-1.637-1.061-.532-.147-1.008-.012-1.425.406-.418.418-.554.897-.409 1.436zm3.556-4.284l-.748-.748 2.912-2.913.656.656.143 2.549c.469-.441.969-.654 1.498-.637.53.017.984.215 1.363.594.509.509.734 1.08.682 1.713-.055.635-.353 1.222-.895 1.764-.541.541-1.244.896-2.107 1.068l-.32-1.033c.693-.123 1.262-.408 1.709-.855.289-.289.461-.596.513-.918s-.049-.611-.304-.865a1.008 1.008 0 0 0-.922-.295c-.36.057-.726.271-1.096.641a2.594 2.594 0 0 0-.457.611l-.641-.641-.185-2.492-1.801 1.801zm24.244 13.095c-.053-.337-.179-.606-.377-.806a.946.946 0 0 0-.738-.281 1.166 1.166 0 0 0-.787.367c-.408.408-.537.957-.391 1.645l-1.068.285c-.109-.546-.115-1.033-.018-1.463.097-.431.354-.853.77-1.268a2.323 2.323 0 0 1 1.487-.698c.577-.05 1.094.153 1.55.608.256.257.434.567.533.934.1.365.154.908.164 1.63l.021 2.358 2.258-2.258.805.805-3.404 3.404-.713-.713-.007-3.026c-.005-.678-.033-1.186-.085-1.523zm4.867-.088c-.805-.131-1.599-.588-2.383-1.371-.783-.783-1.24-1.578-1.37-2.382-.13-.806.144-1.547.822-2.226.679-.68 1.421-.953 2.226-.822.805.13 1.599.587 2.382 1.37.784.784 1.241 1.577 1.372 2.382.129.805-.145 1.547-.823 2.227-.679.678-1.422.952-2.226.822zm-2.621-3.825c.145.539.495 1.086 1.051 1.641.555.557 1.102.906 1.641 1.051s1.018.008 1.436-.409c.418-.418.553-.894.406-1.425s-.501-1.077-1.062-1.638c-.56-.56-1.105-.914-1.638-1.062-.531-.146-1.006-.012-1.424.406s-.555.897-.41 1.436zm7.521-1.076c-.805-.131-1.6-.588-2.383-1.371s-1.24-1.577-1.371-2.381c-.13-.806.145-1.547.822-2.227.68-.679 1.422-.953 2.227-.822.804.131 1.598.588 2.381 1.371.784.783 1.24 1.578 1.371 2.383.131.804-.143 1.546-.822 2.225-.678.68-1.42.953-2.225.822zm-2.621-3.824c.145.539.494 1.086 1.05 1.642s1.103.905 1.642 1.05 1.018.01 1.436-.408c.417-.418.553-.894.406-1.424-.148-.533-.502-1.078-1.063-1.639-.56-.561-1.105-.914-1.637-1.061-.532-.148-1.008-.012-1.425.405-.418.418-.554.896-.409 1.435zm5.715-7.951l.762.762-2.102 2.102 1.226 1.225c.095-.322.274-.617.541-.883.466-.465 1.007-.726 1.624-.783.617-.057 1.165.154 1.645.634.48.479.701 1.054.666 1.72-.035.668-.31 1.258-.822 1.771-.67.669-1.428.979-2.271.933l-.164-1.063c.076 0 .172-.004.288-.017s.317-.073.605-.186c.288-.11.55-.286.786-.522.238-.238.383-.525.436-.861.051-.338-.059-.643-.332-.916-.272-.273-.588-.381-.943-.324s-.691.244-1.008.559a2.624 2.624 0 0 0-.666 1.137l-.74-.029-2.393-2.393 2.862-2.866zM80.3 165.979c-.053-.337-.179-.606-.377-.806a.946.946 0 0 0-.738-.281 1.166 1.166 0 0 0-.787.367c-.408.408-.537.957-.391 1.645l-1.068.285c-.109-.546-.115-1.033-.018-1.463.097-.431.354-.853.77-1.268a2.323 2.323 0 0 1 1.487-.698c.577-.05 1.094.153 1.55.608.256.257.434.567.533.934.1.365.154.908.164 1.63l.021 2.358 2.258-2.258.805.805-3.404 3.404-.713-.713-.007-3.026c-.005-.678-.032-1.186-.085-1.523zm4.867-.088c-.805-.131-1.599-.588-2.383-1.371-.783-.783-1.24-1.578-1.37-2.382-.13-.806.144-1.547.822-2.226.679-.68 1.421-.953 2.226-.822.805.13 1.599.587 2.382 1.37.784.784 1.241 1.577 1.372 2.382.129.805-.145 1.547-.823 2.227-.679.678-1.421.952-2.226.822zm-2.621-3.825c.145.539.495 1.086 1.051 1.641.555.557 1.102.906 1.641 1.051s1.018.008 1.436-.409c.418-.418.553-.894.406-1.425s-.501-1.077-1.062-1.638c-.56-.56-1.105-.914-1.638-1.062-.531-.146-1.006-.012-1.424.406s-.555.897-.41 1.436zm7.521-1.076c-.805-.131-1.6-.588-2.383-1.371s-1.24-1.577-1.371-2.381c-.13-.806.145-1.547.822-2.227.68-.679 1.422-.953 2.227-.822.804.131 1.598.588 2.381 1.371.784.783 1.24 1.578 1.371 2.383.131.804-.143 1.546-.822 2.225-.678.68-1.42.953-2.225.822zm-2.621-3.824c.145.539.494 1.086 1.05 1.642s1.103.905 1.642 1.05 1.018.01 1.436-.408c.417-.418.553-.894.406-1.424-.148-.533-.502-1.078-1.063-1.639-.56-.561-1.105-.914-1.637-1.061-.532-.148-1.008-.012-1.425.405-.417.418-.553.896-.409 1.435zm4.02-3.379l-1.432-1.432 3.504-3.504.748.748 2.121 6.338-.926.926-2.156-6.273-1.767 1.767.669.669-.761.761zm23.775 12.192c-.053-.337-.179-.606-.377-.806a.946.946 0 0 0-.738-.281 1.166 1.166 0 0 0-.787.367c-.408.408-.537.957-.391 1.645l-1.068.285c-.109-.546-.115-1.033-.018-1.463.097-.431.354-.853.77-1.268a2.323 2.323 0 0 1 1.487-.698c.577-.05 1.094.153 1.55.608.256.257.434.567.533.934.1.365.154.908.164 1.63l.021 2.358 2.258-2.258.805.805-3.404 3.404-.713-.713-.007-3.026c-.005-.678-.032-1.186-.085-1.523zm4.867-.088c-.805-.131-1.599-.588-2.383-1.371-.783-.783-1.24-1.578-1.37-2.382-.13-.806.144-1.547.822-2.226.679-.68 1.421-.953 2.226-.822.805.13 1.599.587 2.382 1.37.784.784 1.241 1.577 1.372 2.382.129.805-.145 1.547-.823 2.227-.679.678-1.421.952-2.226.822zm-2.621-3.825c.145.539.495 1.086 1.051 1.641.555.557 1.102.906 1.641 1.051s1.018.008 1.436-.409c.418-.418.553-.894.406-1.425s-.501-1.077-1.062-1.638c-.56-.56-1.105-.914-1.638-1.062-.531-.146-1.006-.012-1.424.406s-.554.897-.41 1.436zm7.522-1.076c-.805-.131-1.6-.588-2.383-1.371s-1.24-1.577-1.371-2.381c-.13-.806.145-1.547.822-2.227.68-.679 1.422-.953 2.227-.822.804.131 1.598.588 2.381 1.371.784.783 1.24 1.578 1.371 2.383.131.804-.143 1.546-.822 2.225-.678.68-1.421.953-2.225.822zm-2.621-3.824c.145.539.494 1.086 1.05 1.642s1.103.905 1.642 1.05 1.018.01 1.436-.408c.417-.418.553-.894.406-1.424-.148-.533-.502-1.078-1.063-1.639-.56-.561-1.105-.914-1.637-1.061-.532-.148-1.008-.012-1.425.405-.418.418-.554.896-.409 1.435zm8.433-2.098c.441-.441.618-.915.528-1.423-.091-.509-.388-1.019-.892-1.532.016.252-.031.548-.138.888a2.253 2.253 0 0 1-.565.915c-.447.445-.969.672-1.567.676-.599.005-1.143-.238-1.634-.73-.492-.491-.725-1.049-.698-1.673s.286-1.183.78-1.677c.797-.798 1.703-.992 2.719-.584.58.238 1.126.612 1.639 1.125s.885.994 1.118 1.445c.232.451.353.871.363 1.261a2.56 2.56 0 0 1-.779 1.948 3.298 3.298 0 0 1-1.97.957l-.199-1.039c.205-.014.436-.075.693-.182.26-.107.461-.232.602-.375zm-1.697-2.004c.287-.287.447-.606.48-.958s-.077-.653-.332-.907a1.256 1.256 0 0 0-.932-.379 1.355 1.355 0 0 0-.969.421c-.277.278-.425.589-.441.933-.018.344.104.646.359.901.256.257.555.391.894.402.34.012.654-.125.941-.413zm21.063 12.917c-.053-.337-.179-.606-.377-.806a.946.946 0 0 0-.738-.281 1.166 1.166 0 0 0-.787.367c-.408.408-.537.957-.391 1.645l-1.068.285c-.109-.546-.115-1.033-.018-1.463.097-.431.354-.853.77-1.268a2.323 2.323 0 0 1 1.487-.698c.577-.05 1.094.153 1.55.608.256.257.434.567.533.934.1.365.154.908.164 1.63l.021 2.358 2.258-2.258.805.805-3.404 3.404-.713-.713-.007-3.026c-.005-.678-.033-1.186-.085-1.523zm4.867-.088c-.805-.131-1.599-.588-2.383-1.371-.783-.783-1.24-1.578-1.37-2.382-.13-.806.144-1.547.822-2.226.679-.68 1.421-.953 2.226-.822.805.13 1.599.587 2.382 1.37.784.784 1.241 1.577 1.372 2.382.129.805-.145 1.547-.823 2.227-.679.678-1.422.951-2.226.822zm-2.621-3.825c.145.539.495 1.086 1.051 1.641.555.557 1.102.906 1.641 1.051s1.018.008 1.436-.409c.418-.418.553-.894.406-1.425s-.501-1.077-1.062-1.638c-.56-.56-1.105-.914-1.638-1.062-.531-.146-1.006-.012-1.424.406s-.555.897-.41 1.436zm2.467-4.69l1.809-1.809 4.978 4.978-.797.798-4.23-4.229-1.011 1.011-.749-.749zm2.713-2.713l1.81-1.81 4.978 4.979-.798.798-4.23-4.229-1.011 1.011-.749-.749zm27.52 11.315c-.053-.338-.179-.606-.377-.805a.94.94 0 0 0-.738-.282 1.164 1.164 0 0 0-.787.366c-.408.409-.537.957-.391 1.646l-1.068.283c-.109-.545-.115-1.033-.018-1.463.097-.43.354-.852.77-1.268a2.331 2.331 0 0 1 1.487-.697c.577-.05 1.094.153 1.55.609.256.256.434.566.533.932.1.367.154.91.164 1.631l.021 2.357 2.258-2.257.805.804-3.404 3.404-.713-.711-.007-3.027c-.005-.678-.032-1.186-.085-1.522zm4.867-.088c-.805-.131-1.599-.588-2.383-1.372-.783-.783-1.24-1.576-1.37-2.381s.144-1.547.822-2.226 1.421-.953 2.226-.823c.805.131 1.599.588 2.382 1.371.784.783 1.241 1.578 1.372 2.383.129.805-.145 1.547-.823 2.226s-1.421.951-2.226.822zm-2.621-3.826c.145.539.495 1.087 1.051 1.643.555.555 1.102.904 1.641 1.049.539.146 1.018.01 1.436-.408s.553-.893.406-1.424c-.146-.533-.501-1.078-1.062-1.639-.56-.561-1.105-.914-1.638-1.061-.531-.148-1.006-.012-1.424.406-.418.418-.555.896-.41 1.434zm2.468-4.689l1.809-1.809 4.978 4.979-.797.797-4.23-4.23-1.011 1.012-.749-.749zm3.802-2.307l-.748-.748 2.913-2.912.654.654.143 2.551c.471-.442.971-.654 1.5-.639.529.018.984.215 1.363.595.508.509.734 1.079.681 1.713-.055.634-.353 1.222-.894 1.763s-1.244.897-2.108 1.068l-.32-1.033c.692-.123 1.263-.408 1.708-.854.291-.291.461-.596.514-.919.052-.323-.049-.611-.303-.866a1.015 1.015 0 0 0-.922-.295c-.361.057-.727.271-1.097.642-.185.185-.337.39-.456.612l-.641-.641-.186-2.494-1.801 1.803z" fill="#5A5A5A"/><path fill="#ABD483" d="M23.53 83.27v62.77H217V70.225l-17.648 1.625-19.106-.34-33.939 3.872-17.877-.85-68.448 7.859-18.884-.469z"/><path d="M93.084 84.904v60.614h123.514V78.632l-35.983.269-17.058-4.217-32.375 9.497-19.59 3.887zM23.36 83.27v62.248h35.814V81.647l-16.9 2.015z" fill="#80BC56"/><path d="M150.95 103.51h1.56v6.99h-1.56v-2.75h-2.78v2.75h-1.561v-6.99h1.561v2.92h2.78v-2.92zm3.28 0h1.56v6.99h-1.56v-6.99zm-42.27-20.065c.261.323.61.484 1.05.484.44 0 .789-.161 1.045-.484.257-.323.385-.766.385-1.325v-3.86H116v3.91c0 1.014-.279 1.792-.84 2.335-.561.544-1.277.815-2.15.815s-1.592-.273-2.154-.82c-.564-.547-.846-1.323-.846-2.33v-3.91h1.561v3.86c-.001.56.129 1.002.389 1.325zm7.295-3.79a.605.605 0 0 0-.226.489c0 .204.092.365.275.485s.606.262 1.27.425c.664.164 1.179.409 1.545.735.367.327.551.804.551 1.43 0 .627-.235 1.136-.705 1.525-.471.39-1.088.585-1.855.585-1.106 0-2.104-.41-2.99-1.23l.931-1.14c.753.66 1.45.99 2.09.99.286 0 .512-.062.675-.186.164-.123.245-.29.245-.5s-.087-.376-.26-.5c-.173-.123-.517-.248-1.03-.375-.813-.193-1.408-.444-1.785-.755-.377-.31-.564-.796-.564-1.46 0-.663.238-1.175.715-1.535.477-.359 1.072-.54 1.785-.54.467 0 .934.08 1.4.24.466.16.873.387 1.219.68l-.789 1.141c-.607-.46-1.234-.69-1.881-.69-.262.001-.467.062-.616.186z" fill="#FFF"/></svg>