<svg xmlns="http://www.w3.org/2000/svg" viewBox="0 0 217 217" enable-background="new 0 0 217 217"><style type="text/css">.st0{fill:#AAD483;} .st1{fill:#80BC56;} .st2{fill:#505050;} .st3{fill:#FFFFFF;}</style><path class="st0" d="M46.6 110.5v49.2h165V55.6L200 58l-11.4 6.5-9.6 8.3-5.7 1.7h-4.7l-10.9 3.4h-5.9l-10.5 3.6-5.1-1-4-1.1h-6.7l-4.5 1.2-5.9.9-10.7 2.8-4.4 7.5-6 4-2.7 3.8-7.8 5-4.8 2.5-6.8.5-8-5-6.6-4-5.3-.9z" id="Layer_3"/><path class="st1" d="M46.6 143.9v15.8h165.2V51.4L199.4 57l-5.4 6.2-5.4-3.1-7.8 10.1-7.8 7.4-5.6-1.1-5-2.8-5.2 3.9-5.2-3.9-5.7 9.6-5-5.2-5.3 6.1-10.5.1-5.2 5.3h-5.2l-5.4.9-4.4 5L99 107l-5.2 6.9-5 4.3-6.1-5-4.5-1.7-5.4.9-5.2-3.5-10 11.1-6.1 3z" id="Layer_2"/><path class="st2" d="M19 49.3l.8-1.1c.6.5 1.2.8 1.9.8 1.2 0 2-1.1 2-2.6-.4.5-1.1.9-2 .9-1.8 0-3-1-3-2.7 0-1.6 1.3-2.9 3.1-2.9 1.1 0 1.7.3 2.3.9.6.6 1 1.5 1 3.2 0 2.7-1.3 4.6-3.6 4.6-1-.1-1.8-.5-2.5-1.1zm4.7-4.8c0-.9-.7-1.6-1.8-1.6-1 0-1.7.7-1.7 1.6 0 .9.7 1.5 1.7 1.5 1.1 0 1.8-.7 1.8-1.5zM26.6 46c0-2.4 1.5-4.4 3.7-4.4s3.6 1.9 3.6 4.3-1.5 4.3-3.7 4.3c-2.1.1-3.6-1.8-3.6-4.2zm5.8 0c0-1.7-.9-3-2.1-3s-2.1 1.3-2.1 3 .8 3 2.1 3 2.1-1.3 2.1-3zM35.2 43.9c0-1.2.8-2.2 2-2.2s2 1 2 2.1c0 1.2-.8 2.1-2 2.1-1.2.1-2-.9-2-2zm7-2.1h1.2l-6.1 8.4h-1.2l6.1-8.4zm-4.1 2.1c0-.7-.4-1.2-.9-1.2-.6 0-.9.6-.9 1.2 0 .7.4 1.2.9 1.2.6 0 .9-.6.9-1.2zm2.2 4.3c0-1.2.8-2.2 2-2.2s2 1 2 2.1c0 1.2-.8 2.1-2 2.1-1.2.1-2-.9-2-2zm2.9 0c0-.7-.4-1.2-.9-1.2-.6 0-.9.6-.9 1.2 0 .7.4 1.2.9 1.2s.9-.6.9-1.2zM18.6 76.5c0-1 .6-1.7 1.5-2.1-.7-.4-1.2-.9-1.2-1.9 0-1.3 1.2-2.3 2.9-2.3s2.9 1 2.9 2.3c0 .9-.5 1.5-1.2 1.9.9.4 1.5 1 1.5 2 0 1.5-1.4 2.4-3.2 2.4s-3.2-.8-3.2-2.3zm5-.1c0-.8-.8-1.3-1.8-1.3s-1.8.5-1.8 1.3c0 .7.7 1.3 1.8 1.3s1.8-.6 1.8-1.3zm-.3-3.7c0-.7-.6-1.2-1.5-1.2s-1.5.5-1.5 1.2.6 1.2 1.5 1.2c.9.1 1.5-.5 1.5-1.2zM26.2 77.7l.9-1.1c.7.6 1.4 1 2.2 1 1 0 1.7-.6 1.7-1.5s-.7-1.4-1.7-1.4c-.6 0-1.1.2-1.5.4l-.9-.6.2-4.1h5v1.3h-3.7l-.1 2c.4-.1.8-.2 1.3-.2 1.6 0 2.9.9 2.9 2.6 0 1.7-1.2 2.8-3.1 2.8-1.4 0-2.4-.5-3.2-1.2zM33.7 72.5c0-1.2.8-2.2 2-2.2s2 1 2 2.1c0 1.2-.8 2.1-2 2.1-1.2.1-2-.9-2-2zm7-2.1h1.2l-6.1 8.4h-1.2l6.1-8.4zm-4.1 2.1c0-.7-.4-1.2-.9-1.2-.6 0-.9.6-.9 1.2 0 .7.4 1.2.9 1.2s.9-.6.9-1.2zm2.1 4.3c0-1.2.8-2.2 2-2.2s2 1 2 2.1c0 1.2-.8 2.1-2 2.1-1.2.1-2-.9-2-2zm2.9 0c0-.7-.4-1.2-.9-1.2-.6 0-.9.6-.9 1.2 0 .7.4 1.2.9 1.2.6 0 .9-.6.9-1.2zM18.6 104c0-1 .6-1.7 1.5-2.1-.7-.4-1.2-.9-1.2-1.9 0-1.3 1.2-2.3 2.9-2.3s2.9 1 2.9 2.3c0 .9-.5 1.5-1.2 1.9.9.4 1.5 1 1.5 2 0 1.5-1.4 2.4-3.2 2.4s-3.2-.8-3.2-2.3zm5-.1c0-.8-.8-1.3-1.8-1.3s-1.8.5-1.8 1.3c0 .7.7 1.3 1.8 1.3s1.8-.6 1.8-1.3zm-.3-3.7c0-.7-.6-1.2-1.5-1.2s-1.5.5-1.5 1.2.6 1.2 1.5 1.2c.9.1 1.5-.5 1.5-1.2zM26.3 102.1c0-2.4 1.5-4.4 3.7-4.4s3.6 1.9 3.6 4.3-1.5 4.3-3.7 4.3c-2.2.1-3.6-1.8-3.6-4.2zm5.8 0c0-1.7-.9-3-2.1-3s-2.1 1.3-2.1 3 .8 3 2.1 3 2.1-1.3 2.1-3zM34.9 100c0-1.2.8-2.2 2-2.2s2 1 2 2.1c0 1.2-.8 2.1-2 2.1-1.2.1-2-.9-2-2zm7-2.1h1.2l-6.1 8.4h-1.2l6.1-8.4zm-4.1 2.1c0-.7-.4-1.2-.9-1.2-.6 0-.9.6-.9 1.2 0 .7.4 1.2.9 1.2s.9-.6.9-1.2zm2.2 4.3c0-1.2.8-2.2 2-2.2s2 1 2 2.1c0 1.2-.8 2.1-2 2.1-1.2.1-2-.9-2-2zm2.9 0c0-.7-.4-1.2-.9-1.2-.6 0-.9.6-.9 1.2 0 .7.4 1.2.9 1.2s.9-.6.9-1.2zM23.1 128.3h-4.2V127h5.9v1.1l-3.8 7.3h-1.7l3.8-7.1zM25.6 134.3l.9-1.1c.7.6 1.4 1 2.2 1 1 0 1.7-.6 1.7-1.5s-.7-1.4-1.7-1.4c-.6 0-1.1.2-1.5.4l-.9-.6.2-4.1h5v1.3h-3.7l-.1 2c.4-.1.8-.2 1.3-.2 1.6 0 2.9.9 2.9 2.6 0 1.7-1.2 2.8-3.1 2.8-1.4 0-2.4-.5-3.2-1.2zM33.1 129.1c0-1.2.8-2.2 2-2.2s2 1 2 2.1c0 1.2-.8 2.1-2 2.1-1.2.1-2-.9-2-2zm7-2.1h1.2l-6.1 8.4H34l6.1-8.4zm-4.1 2.1c0-.7-.4-1.2-.9-1.2-.6 0-.9.6-.9 1.2 0 .7.4 1.2.9 1.2.6 0 .9-.6.9-1.2zm2.2 4.3c0-1.2.8-2.2 2-2.2s2 1 2 2.1c0 1.2-.8 2.1-2 2.1-1.2.1-2-.9-2-2zm2.9 0c0-.7-.4-1.2-.9-1.2-.6 0-.9.6-.9 1.2 0 .7.4 1.2.9 1.2s.9-.6.9-1.2zM23.1 156.2h-4.2v-1.3h5.9v1.1l-3.8 7.3h-1.7l3.8-7.1zM25.8 159.1c0-2.4 1.5-4.4 3.7-4.4s3.6 1.9 3.6 4.3-1.5 4.3-3.7 4.3c-2.1.1-3.6-1.8-3.6-4.2zm5.8 0c0-1.7-.9-3-2.1-3s-2.1 1.3-2.1 3 .8 3 2.1 3 2.1-1.3 2.1-3zM34.4 157c0-1.2.8-2.2 2-2.2s2 1 2 2.1c0 1.2-.8 2.1-2 2.1-1.2.1-2-.9-2-2zm7-2.1h1.2l-6.1 8.4h-1.2l6.1-8.4zm-4.1 2.1c0-.7-.4-1.2-.9-1.2-.6 0-.9.6-.9 1.2 0 .7.4 1.2.9 1.2s.9-.6.9-1.2zm2.2 4.3c0-1.2.8-2.2 2-2.2s2 1 2 2.1c0 1.2-.8 2.1-2 2.1-1.2.1-2-.9-2-2zm2.9 0c0-.7-.4-1.2-.9-1.2-.6 0-.9.6-.9 1.2 0 .7.4 1.2.9 1.2s.9-.6.9-1.2zM5.5 179.7c-1.2 0-2.2-.8-2.2-2s1-2 2.1-2c1.2 0 2.1.8 2.1 2 .1 1.2-.9 2-2 2zm-2.1-7v-1.2l8.4 6.1v1.2l-8.4-6.1zm2.1 4.1c-.7 0-1.2.4-1.2.9 0 .6.6.9 1.2.9.7 0 1.2-.4 1.2-.9s-.6-.9-1.2-.9zm4.3-2.1c-1.2 0-2.2-.8-2.2-2s1-2 2.1-2c1.2 0 2.1.8 2.1 2 .1 1.2-.9 2-2 2zm0-2.9c-.7 0-1.2.4-1.2.9 0 .6.6.9 1.2.9.7 0 1.2-.4 1.2-.9 0-.6-.6-.9-1.2-.9zM8.7 165.9c-1.8 0-3.3-1.4-3.3-3.4 0-1.9 1.5-3.4 3.3-3.4 1.8 0 3.3 1.4 3.3 3.4-.1 2-1.5 3.4-3.3 3.4zm0-5.3c-1.1 0-2.1.8-2.1 1.9 0 1.2.9 1.9 2 1.9s2-.8 2-1.9c.1-1.1-.8-1.9-1.9-1.9zM6.7 157.4v.8H5.5v-.8H5c-.7 0-1.2-.2-1.6-.5s-.4-.8-.4-1.5c0-.5.1-.9.2-1.2h1.2c-.1.3-.2.5-.2.9 0 .6.3.8 1 .8h.3v-1.7h1.2v1.7h5.1v1.5H6.7zM3.4 149.4v-3.3c0-2 1.1-3.2 2.8-3.2 1.9 0 2.9 1.5 2.9 3.4v1.7h2.7v1.5H3.4zm4.4-3.2c0-1.1-.6-1.8-1.5-1.8-1 0-1.5.7-1.5 1.8v1.7h3v-1.7zM5.5 141.6v-1.5h1.4c-.9-.4-1.6-1.1-1.5-2.2h1.5v.1c0 1.3.8 2.2 2.5 2.2h2.4v1.5H5.5zM3.1 136.6V135h1.4v1.6H3.1zm2.4-.1V135h6.3v1.5H5.5zM5.5 133.8v-1.6l4.7-1.7-4.7-1.7v-1.5l6.4 2.6v1.3l-6.4 2.6zM11.8 122.5H11c.5.4.9 1.1.9 2.1 0 1.2-.7 2.3-2 2.3-1.4 0-2.1-1.1-2.1-2.6 0-.8.1-1.3.3-1.8H8c-.9 0-1.4.6-1.4 1.6 0 .7.2 1.2.4 1.8l-1.2.4c-.3-.7-.5-1.4-.5-2.4 0-1.9 1-2.8 2.7-2.8h3.8v1.4zm-2.7 0c-.1.4-.3.9-.3 1.5 0 .9.4 1.5 1 1.5s.9-.5.9-1.2c0-1-.5-1.7-1.3-1.7h-.3zM10 119.1H6.7v.8H5.5v-.8H3.7v-1.5h1.7v-1.7h1.2v1.7h3.1c.6 0 .8-.3.8-.8 0-.3-.1-.6-.2-.9h1.2c.2.4.3.8.3 1.3.1 1.1-.4 1.9-1.8 1.9zM8.7 115c-1.8 0-3.3-1.3-3.3-3.1 0-2 1.6-3 3.4-3h.4v4.7c1-.2 1.6-.9 1.6-1.8 0-.7-.3-1.2-.8-1.7l.8-.9c.7.6 1.2 1.4 1.2 2.6-.1 1.8-1.4 3.2-3.3 3.2zm-.5-4.7c-.9.1-1.7.6-1.7 1.6 0 .9.7 1.5 1.7 1.6v-3.2zM10.6 104.2l-1.1-.9c.7-.8 1.1-1.6 1.1-2.7 0-.9-.4-1.5-1.1-1.5-.6 0-.9.3-1.3 1.9-.4 1.8-1 2.8-2.5 2.8-1.4 0-2.4-1.2-2.4-2.9 0-1.2.4-2.2 1.1-3l1.1.8c-.6.8-.9 1.5-.9 2.3 0 .9.4 1.4 1 1.4s.9-.4 1.3-2c.4-1.8 1.1-2.7 2.5-2.7 1.6 0 2.5 1.2 2.5 3 0 1.3-.4 2.5-1.3 3.5zM8.7 96.5c-1.8 0-3.3-1.3-3.3-3.1 0-2 1.6-3 3.4-3h.4V95c1-.2 1.6-.9 1.6-1.8 0-.7-.3-1.2-.8-1.7l.8-.9c.7.6 1.2 1.4 1.2 2.6-.1 1.8-1.4 3.3-3.3 3.3zm-.5-4.7c-.9.1-1.7.6-1.7 1.6 0 .9.7 1.5 1.7 1.6v-3.2zM8.7 89.2c-1.8 0-3.3-1.4-3.3-3.3 0-1.2.4-1.9 1.1-2.5l1 .9c-.5.4-.8.9-.8 1.6 0 1.1.9 1.8 2 1.8s2-.8 2-1.9c0-.7-.3-1.2-.8-1.6l.9-.9c.7.6 1.2 1.4 1.2 2.6-.1 1.9-1.5 3.3-3.3 3.3zM10 81.7H6.7v.8H5.5v-.8H3.7v-1.5h1.7v-1.7h1.2v1.7h3.1c.6 0 .8-.3.8-.8 0-.3-.1-.6-.2-.9h1.2c.2.4.3.8.3 1.3.1 1.2-.4 1.9-1.8 1.9zM8.7 77.6c-1.8 0-3.3-1.4-3.3-3.4 0-1.9 1.5-3.4 3.3-3.4 1.8 0 3.3 1.4 3.3 3.4-.1 2-1.5 3.4-3.3 3.4zm0-5.3c-1.1 0-2.1.8-2.1 1.9 0 1.2.9 1.9 2 1.9s2-.8 2-1.9c.1-1.1-.8-1.9-1.9-1.9zM5.5 69.4v-1.5h1.4c-.9-.4-1.6-1.1-1.5-2.2h1.5v.1c0 1.3.8 2.2 2.5 2.2h2.4v1.5H5.5zM10.6 61.5l-1-1c.6-.5 1-1 1-1.7 0-.8-.5-1.3-1.6-1.3H3.4V56h5.5c1 0 1.7.3 2.2.8.5.5.7 1.2.7 2 .1 1.3-.5 2.1-1.2 2.7zM8.7 54.5c-1.8 0-3.3-1.4-3.3-3.4 0-1.9 1.5-3.4 3.3-3.4 1.8 0 3.3 1.4 3.3 3.4-.1 1.9-1.5 3.4-3.3 3.4zm0-5.3c-1.1 0-2.1.8-2.1 1.9 0 1.2.9 1.9 2 1.9s2-.8 2-1.9c.1-1.2-.8-1.9-1.9-1.9zM10.8 44.8h1v1.5H3v-1.5h3.5c-.7-.5-1.2-1.1-1.2-2.1 0-1.5 1.2-3 3.3-3 2.1 0 3.3 1.4 3.3 3 0 1-.5 1.6-1.1 2.1zm-2.2-3.6c-1.2 0-2.1.8-2.1 1.8s.8 1.8 2 1.8 2-.9 2-1.8c.2-1-.6-1.8-1.9-1.8zM11 38.7l-1-.6c.5-.7.8-1.4.8-2.1 0-.6-.3-1-.7-1-.5 0-.7.7-.9 1.4-.3.9-.6 2-1.9 2-1.2 0-1.9-1-1.9-2.3 0-.8.3-1.7.7-2.3l1 .6c-.4.6-.6 1.3-.6 1.8 0 .6.3.9.6.9.5 0 .6-.7.9-1.4.3-.9.7-2 1.8-2 1.3 0 2 1 2 2.4.1.8-.2 1.8-.8 2.6z"/><path class="st3" d="M83.1 109.4v-4h1.2v4c0 1.3.7 2 1.8 2s1.8-.7 1.8-1.9v-4h1.2v4c0 2.1-1.2 3.1-3 3.1-1.8-.2-3-1.2-3-3.2zM90.3 111.3l.7-.9c.7.6 1.3.9 2.2.9.8 0 1.2-.3 1.2-.9 0-.5-.3-.8-1.6-1.1-1.5-.4-2.3-.8-2.3-2.1 0-1.2 1-2 2.4-2 1 0 1.8.3 2.5.9l-.7.9c-.6-.5-1.3-.7-1.9-.7-.7 0-1.1.4-1.1.8 0 .5.3.8 1.7 1.1 1.5.4 2.2.9 2.2 2 0 1.3-1 2.1-2.5 2.1-.9.1-1.9-.2-2.8-1zM116.2 115.7h1.2v2.9h3.3v-2.9h1.2v7h-1.2v-2.9h-3.3v2.9h-1.2v-7zM123.9 115.7h1.2v7h-1.2v-7z"/><path class="st2" d="M32 183l-.8 1.4-1.1-.6 1.1-2.1.7-.7 6 6-1 1-4.9-5zM38.8 184.8l-.2-1.4c.8-.1 1.4-.3 1.9-.8.9-.9.6-2.2-.4-3.3.1.7-.1 1.4-.8 2-1.3 1.3-2.8 1.4-4 .2-1.2-1.2-1.2-3 .2-4.3.7-.7 1.4-1 2.3-1 .9 0 1.8.4 3 1.5 1.9 1.9 2.3 4.2.7 5.8-.9 1-1.8 1.3-2.7 1.3zm-.1-6.7c-.6-.6-1.6-.6-2.3.1-.7.7-.7 1.7-.1 2.3.6.6 1.5.6 2.3-.2.7-.7.7-1.6.1-2.2zM43.1 178.5c-.7-.7-.8-1.6-.4-2.5-.8.2-1.5.2-2.2-.5-.9-.9-.7-2.5.5-3.7s2.7-1.4 3.7-.5c.7.7.7 1.4.5 2.2.9-.3 1.8-.3 2.5.4 1.1 1.1.8 2.7-.5 4-1.4 1.3-3.1 1.6-4.1.6zm.7-6c-.5-.5-1.3-.4-1.9.2-.6.6-.7 1.4-.2 1.9.5.5 1.3.4 1.9-.2.6-.6.7-1.4.2-1.9zm2.8 2.4c-.6-.6-1.5-.4-2.2.3-.7.7-.9 1.6-.3 2.1.5.5 1.4.4 2.1-.4s.9-1.5.4-2zM49.3 173.9l.3-3.8c.1-1.5 0-2.2-.5-2.7-.6-.6-1.3-.5-1.9 0-.5.5-.6 1.2-.5 2.3l-1.3.2c-.2-1.4-.1-2.4.9-3.4 1.2-1.2 2.7-1.2 3.7-.2.9.9 1 1.9.8 3.8l-.2 2.2 2.8-2.8.9.9-4.3 4.3-.7-.8zM59.1 184l-.8 1.4-1.1-.6 1.1-2.1.7-.7 6 6-1 1-4.9-5zM65.9 185.8l-.2-1.4c.8-.1 1.4-.3 1.9-.8.9-.9.6-2.2-.4-3.3.1.7-.1 1.4-.8 2-1.3 1.3-2.8 1.4-4 .2-1.2-1.2-1.2-3 .2-4.3.7-.7 1.4-1 2.3-1 .9 0 1.8.4 3 1.5 1.9 1.9 2.3 4.2.7 5.8-.9 1-1.8 1.3-2.7 1.3zm-.1-6.7c-.6-.6-1.6-.6-2.3.1-.7.7-.7 1.7-.1 2.3.6.6 1.5.6 2.3-.2.7-.7.7-1.6.1-2.2zM70.2 179.5c-.7-.7-.8-1.6-.4-2.5-.8.2-1.5.2-2.2-.5-.9-.9-.7-2.5.5-3.7 1.2-1.2 2.7-1.4 3.7-.5.7.7.7 1.4.5 2.2.9-.3 1.8-.3 2.5.4 1.1 1.1.8 2.7-.5 4-1.4 1.3-3.1 1.6-4.1.6zm.7-6c-.5-.5-1.3-.4-1.9.2-.6.6-.7 1.4-.2 1.9.5.5 1.3.4 1.9-.2.6-.6.7-1.4.2-1.9zm2.8 2.4c-.6-.6-1.5-.4-2.2.3-.7.7-.9 1.6-.3 2.1.5.5 1.4.4 2.1-.4.8-.6.9-1.5.4-2zM75.2 167.7l-3 3-.9-.9 4.2-4.2.8.8 2.5 7.8-1.2 1.2-2.4-7.7zM85.8 183l-.8 1.4-1.1-.6 1.1-2.1.7-.7 6 6-1 1-4.9-5zM92.6 184.8l-.2-1.4c.8-.1 1.4-.3 1.9-.8.9-.9.6-2.2-.4-3.3.1.7-.1 1.4-.8 2-1.3 1.3-2.8 1.4-4 .2-1.2-1.2-1.2-3 .2-4.3.7-.7 1.4-1 2.3-1 .9 0 1.8.4 3 1.5 1.9 1.9 2.3 4.2.7 5.8-.9 1-1.7 1.3-2.7 1.3zm-.1-6.7c-.6-.6-1.6-.6-2.3.1-.7.7-.7 1.7-.1 2.3.6.6 1.5.6 2.3-.2.8-.7.7-1.6.1-2.2zM98.2 179.3l-.2-1.4c.8-.1 1.4-.3 1.9-.8.9-.9.6-2.2-.4-3.3.1.7-.1 1.4-.8 2-1.3 1.3-2.8 1.4-4 .2-1.2-1.2-1.2-3 .2-4.3.7-.7 1.4-1 2.3-1 .9 0 1.8.4 3 1.5 1.9 1.9 2.3 4.2.7 5.8-.9.9-1.8 1.2-2.7 1.3zm-.1-6.8c-.6-.6-1.6-.6-2.3.1-.7.7-.7 1.7-.1 2.3.6.6 1.5.6 2.3-.2.7-.7.7-1.6.1-2.2zM103.3 173.8l.3-3.8c.1-1.5 0-2.2-.5-2.7-.6-.6-1.3-.5-1.9 0-.5.5-.6 1.2-.5 2.3l-1.3.2c-.2-1.4-.1-2.4.9-3.4 1.2-1.2 2.7-1.2 3.7-.2.9.9 1 1.9.8 3.8l-.2 2.2 2.8-2.8.9.9-4.3 4.3-.7-.8zM112.6 183.5l-.8 1.4-1.1-.6 1.1-2.1.7-.7 6 6-1 1-4.9-5zM119.3 185.4l-.2-1.4c.8-.1 1.4-.3 1.9-.8.9-.9.6-2.2-.4-3.3.1.7-.1 1.4-.8 2-1.3 1.3-2.8 1.4-4 .2-1.2-1.2-1.2-3 .2-4.3.7-.7 1.4-1 2.3-1 .9 0 1.8.4 3 1.5 1.9 1.9 2.3 4.2.7 5.8-.9.9-1.7 1.2-2.7 1.3zm0-6.8c-.6-.6-1.6-.6-2.3.1-.7.7-.7 1.7-.1 2.3.6.6 1.5.6 2.3-.2.7-.7.6-1.6.1-2.2zM124.9 179.8l-.2-1.4c.8-.1 1.4-.3 1.9-.8.9-.9.6-2.2-.4-3.3.1.7-.1 1.4-.8 2-1.3 1.3-2.8 1.4-4 .2-1.2-1.2-1.2-3 .2-4.3.7-.7 1.4-1 2.3-1 .9 0 1.8.4 3 1.5 1.9 1.9 2.3 4.2.7 5.8-.9.9-1.8 1.2-2.7 1.3zm-.1-6.7c-.6-.6-1.6-.6-2.3.1-.7.7-.7 1.7-.1 2.3.6.6 1.5.6 2.3-.2.7-.7.7-1.7.1-2.2zM128.9 167l-3 3-.9-.9 4.2-4.2.8.8 2.5 7.8-1.2 1.2-2.4-7.7zM171.3 191.2l.3-3.8c.1-1.5 0-2.2-.5-2.7-.6-.6-1.3-.5-1.9 0s-.6 1.2-.5 2.3l-1.3.2c-.2-1.4-.1-2.4.9-3.4 1.2-1.2 2.7-1.2 3.7-.2.9.9.9 1.9.8 3.8l-.2 2.2 2.8-2.8.9.9-4.3 4.3-.7-.8zM174.4 183.8c-1.7-1.7-2.1-4.1-.5-5.7 1.6-1.6 3.9-1.2 5.6.5 1.7 1.7 2 4.1.5 5.7-1.5 1.6-3.9 1.2-5.6-.5zm4.1-4.1c-1.2-1.2-2.7-1.5-3.7-.6-.9.9-.6 2.4.6 3.6 1.2 1.2 2.7 1.5 3.6.6 1-.9.7-2.4-.5-3.6zM180.5 177.7c-1.7-1.7-2.1-4.1-.5-5.7 1.6-1.6 3.9-1.2 5.6.5 1.7 1.7 2 4.1.5 5.7-1.5 1.5-3.9 1.2-5.6-.5zm4.1-4.1c-1.2-1.2-2.7-1.5-3.7-.6-.9.9-.6 2.4.6 3.6 1.2 1.2 2.7 1.5 3.6.6 1.1-.9.7-2.4-.5-3.6zM187.5 166.6l-3 3-.9-.9 4.2-4.2.8.8 2.5 7.8-1.2 1.2-2.4-7.7zM196.2 188.1l.3-3.8c.1-1.5 0-2.2-.5-2.7-.6-.6-1.3-.5-1.9 0-.5.5-.6 1.2-.5 2.3l-1.3.2c-.2-1.4-.1-2.4.9-3.4 1.2-1.2 2.7-1.2 3.7-.2.9.9.9 1.9.8 3.8l-.2 2.2 2.8-2.8.9.9-4.3 4.3-.7-.8zM199.4 180.7c-1.7-1.7-2.1-4.1-.5-5.7 1.6-1.6 3.9-1.2 5.6.5 1.7 1.7 2 4.1.5 5.7-1.5 1.6-3.9 1.2-5.6-.5zm4.1-4.1c-1.2-1.2-2.7-1.5-3.7-.6s-.6 2.4.6 3.6c1.2 1.2 2.7 1.5 3.6.6 1-.9.6-2.4-.5-3.6zM204.5 171.6l-.8 1.4-1.1-.6 1.1-2.1.7-.7 6 6-1 1-4.9-5zM210.9 173.5l.3-3.8c.1-1.5 0-2.2-.5-2.7-.6-.6-1.3-.5-1.9 0s-.6 1.2-.5 2.3l-1.3.2c-.2-1.4-.1-2.4.9-3.4 1.2-1.2 2.7-1.2 3.7-.2.9.9.9 1.9.8 3.8l-.2 2.2 2.8-2.8.9.9-4.3 4.3-.7-.8zM142.6 191.2l.3-3.8c.1-1.5 0-2.2-.5-2.7-.6-.6-1.3-.5-1.9 0-.5.5-.6 1.2-.5 2.3l-1.3.2c-.2-1.4-.1-2.4.9-3.4 1.2-1.2 2.7-1.2 3.7-.2.9.9 1 1.9.8 3.8l-.2 2.2 2.8-2.8.9.9-4.3 4.3-.7-.8zM145.7 183.8c-1.7-1.7-2.1-4.1-.5-5.7 1.6-1.6 3.9-1.2 5.6.5 1.7 1.7 2 4.1.5 5.7s-3.9 1.2-5.6-.5zm4.1-4.1c-1.2-1.2-2.7-1.5-3.7-.6s-.6 2.4.6 3.6c1.2 1.2 2.7 1.5 3.6.6 1.1-.9.7-2.4-.5-3.6zM151.9 177.7c-1.7-1.7-2.1-4.1-.5-5.7 1.6-1.6 3.9-1.2 5.6.5 1.7 1.7 2 4.1.5 5.7s-3.9 1.2-5.6-.5zm4.1-4.1c-1.2-1.2-2.7-1.5-3.7-.6s-.6 2.4.6 3.6c1.2 1.2 2.7 1.5 3.6.6 1-.9.6-2.5-.5-3.6zM160 173.8l.3-3.8c.1-1.5 0-2.2-.5-2.7-.6-.6-1.3-.5-1.9 0-.5.5-.6 1.2-.5 2.3l-1.3.2c-.2-1.4-.1-2.4.9-3.4 1.2-1.2 2.7-1.2 3.7-.2.9.9.9 1.9.8 3.8l-.2 2.2 2.8-2.8.9.9-4.3 4.3-.7-.8z"/></svg>