<svg id="Layer_1" xmlns="http://www.w3.org/2000/svg" xmlns:xlink="http://www.w3.org/1999/xlink" viewBox="0 0 250 250"><style>.st0{display:none;} .st1{display:inline;} .st2{clip-path:url(#SVGID_2_);fill:none;stroke:#989798;stroke-linejoin:round;stroke-miterlimit:10;} .st3{clip-path:url(#SVGID_4_);fill:none;stroke:#989798;stroke-linejoin:round;stroke-miterlimit:10;} .st4{fill:#D4E7B3;} .st5{fill:#7FBB57;} .st6{fill:#676767;} .st7{font-family:&amp;apos;Montserrat-Regular&amp;apos;;} .st8{font-size:14px;} .st9{display:none;fill:#676767;enable-background:new ;} .st10{font-size:14.0007px;} .st11{fill:#FFFFFF;}</style><g id="Layer_1_1_" class="st0"><g class="st1"><defs><path id="SVGID_1_" d="M5.4 27.3h319.8v191.9H5.4z"/></defs><clipPath id="SVGID_2_"><use xlink:href="#SVGID_1_" overflow="visible"/></clipPath><path class="st2" d="M25.8 38.9H243M25.8 70.8H243M25.8 101.9H243m-217.2 32H243M25.8 165H243"/></g><g class="st1"><defs><path id="SVGID_3_" d="M5.4 27.3h319.8v191.9H5.4z"/></defs><clipPath id="SVGID_4_"><use xlink:href="#SVGID_3_" overflow="visible"/></clipPath><path class="st3" d="M26 196.7V38.9"/></g></g><path class="st4" d="M32.1 77l69.5-4.1 65.9-11.6 23.9 2.3 23.6-4 21.6-1.8v135.8H32.1z" id="Layer_4"/><path class="st5" d="M32.1 107.1v86.2h205V87l-23.4 2.5-22.6 1.7-45.2 10.9h-22.6l-22.6-3.4-46 9.2z" id="Layer_3"/><g id="Layer_2"><text transform="translate(18.96 194.508)" class="st6 st7 st8">0</text><text transform="translate(20.17 165.13)" class="st6 st7 st8">1</text><text transform="translate(20.17 135.49)" class="st6 st7 st8">2</text><text transform="translate(21.182 106.318)" class="st6 st7 st8">3</text><text transform="translate(19.778 75.6)" class="st6 st7 st8">4</text><text transform="translate(20.576 46.768)" class="st6 st7 st8">5</text><text transform="rotate(-47.258 271.1 96.192)" class="st6 st7 st8">2003</text><text transform="rotate(-45.98 290.38 69.447)" class="st9 st7 st8">2004</text><text transform="rotate(-42.7 325.336 35.297)" class="st6 st7 st8">2005</text><text transform="rotate(-44.226 326.847 7.145)" class="st9 st7 st8">2006</text><text transform="rotate(-44.332 338.65 -23.342)" class="st6 st7 st8">2007</text><text transform="rotate(-42.38 364.776 -60.685)" class="st9 st7 st8">2008</text><text transform="rotate(-41.807 379.922 -91.335)" class="st6 st7 st8">2009</text><text transform="rotate(-44.072 375.07 -109.735)" class="st9 st7 st10">2010</text><text transform="rotate(-49.18 353.602 -108.225)" class="st6 st7 st8">2011</text><text transform="rotate(-40.483 423.108 -186.627)" class="st9 st7 st8">2012</text><text transform="rotate(-90 101.735 88.98)" class="st6 st7 st8">% of all occupations</text><text transform="translate(167.653 135.49)" class="st11 st7 st8">HI</text><text transform="translate(159.498 84.63)" class="st11 st7 st8">US</text></g></svg>