<svg id="Layer_1" xmlns="http://www.w3.org/2000/svg" xmlns:xlink="http://www.w3.org/1999/xlink" viewBox="0 0 217 217"><style>.st0{clip-path:url(#SVGID_2_);fill:#73B0B1;stroke:#73B0B1;stroke-width:1.5;stroke-miterlimit:10;} .st1{fill:#505050;}</style><g id="Layer_1_1_"><defs><path id="SVGID_1_" d="M43 29.3h171.9v118.6H43z"/></defs><clipPath id="SVGID_2_"><use xlink:href="#SVGID_1_" overflow="visible"/></clipPath><path class="st0" d="M202.1 62.7l12.8-29.2m-26.3 49.1l13.5-19.9m-27-7.9l13.5 27.7m-26.3 39.8l12.8-67.5m-26.3 42l13.5 25.6M136 116l12.8-19.2m-26.3 3.5L136 116m-27 27.6l13.5-43.3m-26.3 14.2l12.8 29.1m-26.3-35.4l13.5 6.4M70 94.6l12.8 13.5M56.5 66.9L70 94.6m-27 10l13.5-37.7"/></g><path class="st1" d="M22 31.2l.8-1.1c.6.5 1.2.8 1.9.8 1.2 0 2-1.1 2-2.6-.4.5-1.1.9-2 .9-1.8 0-3-1-3-2.7 0-1.6 1.3-2.9 3.1-2.9 1.1 0 1.7.3 2.3.9.6.6 1 1.5 1 3.2 0 2.7-1.3 4.6-3.6 4.6-1-.1-1.8-.5-2.5-1.1zm4.7-4.9c0-.9-.7-1.6-1.8-1.6-1 0-1.7.7-1.7 1.6 0 .9.7 1.5 1.7 1.5 1.1.1 1.8-.6 1.8-1.5zM29.6 27.9c0-2.4 1.5-4.4 3.7-4.4s3.6 1.9 3.6 4.3-1.5 4.3-3.7 4.3c-2.1.1-3.6-1.8-3.6-4.2zm5.8 0c0-1.7-.9-3-2.1-3s-2.1 1.3-2.1 3 .8 3 2.1 3 2.1-1.4 2.1-3zM21.8 48.2c0-1 .6-1.7 1.5-2.1-.7-.4-1.2-.9-1.2-1.9 0-1.3 1.2-2.3 2.9-2.3s2.9 1 2.9 2.3c0 .9-.5 1.5-1.2 1.9.9.4 1.5 1 1.5 2 0 1.5-1.4 2.4-3.2 2.4s-3.2-.9-3.2-2.3zm5-.1c0-.8-.8-1.3-1.8-1.3s-1.8.5-1.8 1.3c0 .7.7 1.3 1.8 1.3s1.8-.6 1.8-1.3zm-.3-3.7c0-.7-.6-1.2-1.5-1.2s-1.5.5-1.5 1.2.6 1.2 1.5 1.2 1.5-.5 1.5-1.2zM29.5 46.3c0-2.4 1.5-4.4 3.7-4.4s3.6 1.9 3.6 4.3-1.5 4.3-3.7 4.3c-2.2.1-3.6-1.8-3.6-4.2zm5.8 0c0-1.7-.9-3-2.1-3s-2.1 1.3-2.1 3 .8 3 2.1 3 2.1-1.3 2.1-3zM26.5 62.9h-4.2v-1.3h5.9v1.1L24.4 70h-1.7l3.8-7.1zM29.2 65.9c0-2.4 1.5-4.4 3.7-4.4s3.6 1.9 3.6 4.3-1.5 4.3-3.7 4.3c-2.1.1-3.6-1.8-3.6-4.2zm5.8 0c0-1.7-.9-3-2.1-3s-2.1 1.3-2.1 3 .8 3 2.1 3 2.1-1.4 2.1-3zM22.8 88.8c-.6-.6-1-1.5-1-3.2 0-2.6 1.2-4.6 3.6-4.6 1.1 0 1.8.3 2.6.9l-.8 1.1c-.6-.5-1.1-.7-1.8-.7-1.2 0-1.9 1.1-2 2.7.4-.4 1-.8 2-.8 1.6 0 2.9 1 2.9 2.6 0 1.7-1.4 2.9-3.1 2.9-1.1 0-1.9-.3-2.4-.9zm3.9-1.9c0-.9-.7-1.5-1.7-1.5s-1.7.7-1.7 1.5c0 .9.7 1.5 1.7 1.5 1.1 0 1.7-.6 1.7-1.5zM29.6 85.4c0-2.4 1.5-4.4 3.7-4.4s3.6 1.9 3.6 4.3-1.5 4.3-3.7 4.3c-2.1.1-3.6-1.8-3.6-4.2zm5.8 0c0-1.7-.9-3-2.1-3-1.3 0-2.1 1.3-2.1 3s.8 3 2.1 3 2.1-1.4 2.1-3zM21.8 108.8l.9-1.1c.7.6 1.4 1 2.2 1 1 0 1.7-.6 1.7-1.5s-.7-1.4-1.7-1.4c-.6 0-1.1.2-1.5.4l-.9-.6.2-4.1h5v1.3H24l-.1 2c.4-.1.8-.2 1.3-.2 1.6 0 2.9.9 2.9 2.6 0 1.7-1.2 2.8-3.1 2.8-1.4.1-2.4-.4-3.2-1.2zM29.4 105.8c0-2.4 1.5-4.4 3.7-4.4s3.6 1.9 3.6 4.3-1.5 4.3-3.7 4.3c-2.2.1-3.6-1.8-3.6-4.2zm5.8 0c0-1.7-.9-3-2.1-3-1.3 0-2.1 1.3-2.1 3s.8 3 2.1 3 2.1-1.4 2.1-3zM25.9 126.8h-4.2l-.3-1.1 4.7-5.5h1.3v5.4h1.2v1.2h-1.2v1.9H26v-1.9zm0-1.2v-3.3l-2.8 3.3h2.8zM29.8 124.6c0-2.4 1.5-4.4 3.7-4.4s3.6 1.9 3.6 4.3-1.5 4.3-3.7 4.3c-2.2.1-3.6-1.8-3.6-4.2zm5.8 0c0-1.7-.9-3-2.1-3-1.3 0-2.1 1.3-2.1 3s.8 3 2.1 3 2.1-1.4 2.1-3zM21.8 146.6l1-1c.6.7 1.3 1.1 2.2 1.1.8 0 1.5-.5 1.5-1.3s-.8-1.3-1.9-1.3h-.7l-.2-.9 2.3-2.4h-3.6v-1.3H28v1.1l-2.3 2.4c1.3.2 2.5.8 2.5 2.4 0 1.5-1.2 2.7-2.9 2.7s-2.8-.7-3.5-1.5zM29.4 143.7c0-2.4 1.5-4.4 3.7-4.4s3.6 1.9 3.6 4.3-1.5 4.3-3.7 4.3c-2.2.2-3.6-1.8-3.6-4.2zm5.8 0c0-1.7-.9-3-2.1-3-1.3 0-2.1 1.3-2.1 3s.8 3 2.1 3 2.1-1.3 2.1-3zM4.7 143.1v-1.4l5.8-4.5H4.7v-1.5h8.4v1.2l-6 4.6h6v1.5H4.7zM10.8 133.9h-4v-1.5h3.6c1 0 1.5-.5 1.5-1.4 0-.8-.6-1.4-1.6-1.4H6.7v-1.5H13v1.5h-1c.6.4 1.1 1 1.1 2 .1 1.5-.9 2.3-2.3 2.3zM6.7 126.4v-1.5h1c-.6-.4-1.1-1-1.1-1.9 0-.9.4-1.5 1.1-1.9-.7-.5-1.1-1.2-1.1-2.1 0-1.4.9-2.2 2.4-2.2h4v1.5H9.5c-1 0-1.5.5-1.5 1.3s.6 1.4 1.6 1.4h3.6v1.5H9.4c-1 0-1.5.5-1.5 1.3s.6 1.4 1.6 1.4h3.6v1.5H6.7zM12.1 113.5h1v1.5H4.3v-1.5h3.5c-.7-.5-1.2-1.1-1.2-2.1 0-1.5 1.2-3 3.3-3 2.1 0 3.3 1.4 3.3 3 0 1-.5 1.7-1.1 2.1zm-2.2-3.6c-1.2 0-2.1.8-2.1 1.8s.8 1.8 2 1.8 2-.9 2-1.8c.1-1-.7-1.8-1.9-1.8zM9.9 107.3c-1.8 0-3.3-1.3-3.3-3.1 0-2 1.6-3 3.4-3h.4v4.7c1-.2 1.6-.9 1.6-1.8 0-.7-.3-1.2-.8-1.7l.8-.9c.7.6 1.2 1.4 1.2 2.6 0 1.8-1.3 3.2-3.3 3.2zm-.5-4.7c-.9.1-1.7.6-1.7 1.6 0 .9.7 1.5 1.7 1.6v-3.2zM6.7 99.7v-1.5h1.4c-.9-.4-1.6-1.1-1.5-2.2h1.5v.1c0 1.3.8 2.2 2.5 2.2H13v1.5H6.7zM9.9 91.5c-1.8 0-3.3-1.4-3.3-3.4s1.5-3.4 3.3-3.4c1.8 0 3.3 1.4 3.3 3.4s-1.5 3.4-3.3 3.4zm0-5.3c-1.1 0-2.1.8-2.1 1.9 0 1.2.9 1.9 2 1.9s2-.8 2-1.9c.1-1.2-.8-1.9-1.9-1.9zM8 82.9v.8H6.8v-.8h-.5c-.7 0-1.2-.2-1.6-.5s-.5-.8-.5-1.4c0-.5.1-.9.2-1.2h1.2c-.1.3-.2.5-.2.9 0 .6.3.8 1 .8h.3v-1.7H8v1.7h5.1V83H8zM4.7 75v-3.3c0-2 1.1-3.2 2.8-3.2 1.9 0 2.9 1.5 2.9 3.4v1.7h2.7V75H4.7zM9 71.8c0-1.1-.6-1.8-1.5-1.8-1 0-1.5.7-1.5 1.8v1.7h3v-1.7zM13.1 63.4h-.8c.5.4.9 1.1.9 2.1 0 1.2-.7 2.3-2 2.3-1.4 0-2.1-1.1-2.1-2.6 0-.8.1-1.3.3-1.8h-.1c-.9 0-1.4.6-1.4 1.6 0 .7.2 1.2.4 1.8l-1.2.4c-.3-.7-.5-1.4-.5-2.4 0-1.9 1-2.8 2.7-2.8h3.8v1.4zm-2.7-.1c-.1.4-.3.9-.3 1.5 0 .9.4 1.5 1 1.5s.9-.5.9-1.2c0-1-.5-1.7-1.3-1.7h-.3zM11.3 60H8v.8H6.7V60H5v-1.5h1.7v-1.7H8v1.7h3.1c.6 0 .8-.3.8-.8 0-.3-.1-.6-.2-.9h1.2c.2.4.3.8.3 1.3 0 1.1-.5 1.9-1.9 1.9zM9.9 55.9c-1.8 0-3.3-1.3-3.3-3.1 0-2 1.6-3 3.4-3h.4v4.7c1-.2 1.6-.9 1.6-1.8 0-.7-.3-1.2-.8-1.7l.8-1c.7.6 1.2 1.4 1.2 2.6 0 1.9-1.3 3.3-3.3 3.3zm-.5-4.7c-.9.1-1.7.6-1.7 1.6 0 .9.7 1.5 1.7 1.6v-3.2zM6.7 48.3v-1.5h1c-.6-.4-1.1-1-1.1-2 0-1.4 1-2.3 2.4-2.3h4V44H9.5c-1 0-1.5.5-1.5 1.4 0 .8.6 1.4 1.6 1.4h3.6v1.5H6.7zM11.3 40.5H8v.8H6.7v-.8H5V39h1.7v-1.7H8V39h3.1c.6 0 .8-.3.8-.8 0-.3-.1-.6-.2-.9h1.2c.2.4.3.8.3 1.3 0 1.2-.5 1.9-1.9 1.9zM12.2 36.4l-1-.6c.5-.7.8-1.4.8-2.1 0-.6-.3-1-.7-1-.5 0-.7.7-.9 1.4-.3.9-.6 2-1.9 2-1.2 0-1.9-1-1.9-2.3 0-.8.3-1.7.7-2.3l1 .6c-.4.6-.6 1.3-.6 1.8 0 .6.3.9.6.9.5 0 .6-.7.9-1.4.3-.9.7-2 1.8-2 1.3 0 2 1 2 2.4.2.8-.1 1.8-.8 2.6z"/><g><path class="st1" d="M25 182.1l.3-3.8c.1-1.5 0-2.2-.5-2.7-.6-.6-1.3-.5-1.9 0-.5.5-.6 1.2-.5 2.3l-1.3.2c-.2-1.4-.1-2.4.9-3.4 1.2-1.2 2.7-1.2 3.7-.2.9.9.9 1.9.8 3.8l-.2 2.2 2.8-2.8.9.9-4.3 4.3-.7-.8zM28.1 174.7c-1.7-1.7-2.1-4.1-.5-5.7 1.6-1.6 3.9-1.2 5.6.5 1.7 1.7 2 4.1.5 5.7-1.5 1.6-3.9 1.2-5.6-.5zm4.1-4.1c-1.2-1.2-2.7-1.5-3.7-.6s-.6 2.4.6 3.6c1.2 1.2 2.7 1.5 3.6.6 1.1-.9.7-2.4-.5-3.6zM34.3 168.6c-1.7-1.7-2.1-4.1-.5-5.7 1.6-1.6 3.9-1.2 5.6.5 1.7 1.7 2 4.1.5 5.7s-3.9 1.2-5.6-.5zm4.1-4.1c-1.2-1.2-2.7-1.5-3.7-.6s-.6 2.4.6 3.6c1.2 1.2 2.7 1.5 3.6.6 1-.9.6-2.4-.5-3.6zM40.4 162.4c-1.7-1.7-2.1-4.1-.5-5.7 1.6-1.6 3.9-1.2 5.6.5 1.7 1.7 2 4.1.5 5.7s-3.9 1.2-5.6-.5zm4.1-4.1c-1.2-1.2-2.7-1.5-3.7-.6s-.6 2.4.6 3.6c1.2 1.2 2.7 1.5 3.6.6 1-.9.7-2.4-.5-3.6z"/></g><g><path class="st1" d="M49.9 181.6l.3-3.8c.1-1.5 0-2.2-.5-2.7-.6-.6-1.3-.5-1.9 0-.5.5-.6 1.2-.5 2.3l-1.3.2c-.2-1.4-.1-2.4.9-3.4 1.2-1.2 2.7-1.2 3.7-.2.9.9 1 1.9.8 3.8l-.2 2.2 2.8-2.8.9.9-4.3 4.3-.7-.8zM53.1 174.2c-1.7-1.7-2.1-4.1-.5-5.7 1.6-1.6 3.9-1.2 5.6.5 1.7 1.7 2 4.1.5 5.7s-3.9 1.2-5.6-.5zm4.1-4.1c-1.2-1.2-2.7-1.5-3.7-.6s-.6 2.4.6 3.6c1.2 1.2 2.7 1.5 3.6.6 1-.9.6-2.4-.5-3.6zM59.2 168.1c-1.7-1.7-2.1-4.1-.5-5.7 1.6-1.6 3.9-1.2 5.6.5 1.7 1.7 2 4.1.5 5.7-1.5 1.5-3.9 1.2-5.6-.5zm4.1-4.1c-1.2-1.2-2.7-1.5-3.7-.6s-.6 2.4.6 3.6c1.2 1.2 2.7 1.5 3.6.6 1-.9.7-2.5-.5-3.6zM67.3 164.2l.3-3.8c.1-1.5 0-2.2-.5-2.7-.6-.6-1.3-.5-1.9 0-.5.5-.6 1.2-.5 2.3l-1.3.2c-.2-1.4-.1-2.4.9-3.4 1.2-1.2 2.7-1.2 3.7-.2.9.9.9 1.9.8 3.8l-.2 2.2 2.8-2.8.9.9L68 165l-.7-.8z"/></g><g><path class="st1" d="M75.1 181.9l.3-3.8c.1-1.5 0-2.2-.5-2.7-.6-.6-1.3-.5-1.9 0-.5.5-.6 1.2-.5 2.3l-1.3.2c-.2-1.4-.1-2.4.9-3.4 1.2-1.2 2.7-1.2 3.7-.2.9.9.9 1.9.8 3.8l-.2 2.2 2.8-2.8.9.9-4.3 4.3-.7-.8zM78.2 174.5c-1.7-1.7-2.1-4.1-.5-5.7 1.6-1.6 3.9-1.2 5.6.5 1.7 1.7 2 4.1.5 5.7-1.5 1.6-3.9 1.2-5.6-.5zm4.1-4.1c-1.2-1.2-2.7-1.5-3.7-.6s-.6 2.4.6 3.6c1.2 1.2 2.7 1.5 3.6.6 1-.9.7-2.4-.5-3.6zM84.4 168.4c-1.7-1.7-2.1-4.1-.5-5.7 1.6-1.6 3.9-1.2 5.6.5 1.7 1.7 2 4.1.5 5.7s-4 1.2-5.6-.5zm4-4.1c-1.2-1.2-2.7-1.5-3.7-.6s-.6 2.4.6 3.6c1.2 1.2 2.7 1.5 3.6.6 1.1-.9.7-2.4-.5-3.6zM95.1 160.9l-3 3-.9-.6-.6-7.2.9-.9 3.8 3.8.8-.8.9.8-.8.8 1.3 1.3-1 1-1.4-1.2zm-.8-.9l-2.3-2.3.4 4.3 1.9-2z"/></g><g><path class="st1" d="M102.1 181.8l.3-3.8c.1-1.5 0-2.2-.5-2.7-.6-.6-1.3-.5-1.9 0s-.6 1.2-.5 2.3l-1.3.2c-.2-1.4-.1-2.4.9-3.4 1.2-1.2 2.7-1.2 3.7-.2.9.9.9 1.9.8 3.8l-.2 2.2 2.8-2.8.9.9-4.3 4.3-.7-.8zM105.2 174.4c-1.7-1.7-2.1-4.1-.5-5.7 1.6-1.6 3.9-1.2 5.6.5 1.7 1.7 2 4.1.5 5.7s-3.9 1.2-5.6-.5zm4.1-4.1c-1.2-1.2-2.7-1.5-3.7-.6s-.6 2.4.6 3.6c1.2 1.2 2.7 1.5 3.6.6 1-.9.7-2.4-.5-3.6zM111.4 168.3c-1.7-1.7-2.1-4.1-.5-5.7 1.6-1.6 3.9-1.2 5.6.5 1.7 1.7 2 4.1.5 5.7-1.6 1.5-3.9 1.2-5.6-.5zm4.1-4.1c-1.2-1.2-2.7-1.5-3.7-.6-.9.9-.6 2.4.6 3.6 1.2 1.2 2.7 1.5 3.6.6 1-.9.6-2.4-.5-3.6zM120.7 163.9c-.9 0-1.8-.4-3-1.6-1.8-1.8-2.4-4.1-.7-5.8.8-.8 1.5-1.1 2.5-1.2l.2 1.4c-.7.1-1.3.3-1.8.8-.9.9-.6 2.2.5 3.3 0-.6.1-1.3.8-2 1.2-1.2 2.8-1.4 3.9-.2 1.2 1.2 1.1 3-.2 4.2-.7.8-1.5 1.1-2.2 1.1zm1.4-4.2c-.6-.6-1.5-.6-2.3.2-.7.7-.7 1.7-.2 2.2.6.6 1.6.6 2.3-.2.8-.7.8-1.6.2-2.2z"/></g><g><path class="st1" d="M128.5 181.7l.3-3.8c.1-1.5 0-2.2-.5-2.7-.6-.6-1.3-.5-1.9 0s-.6 1.2-.5 2.3l-1.3.2c-.2-1.4-.1-2.4.9-3.4 1.2-1.2 2.7-1.2 3.7-.2.9.9 1 1.9.8 3.8l-.2 2.2 2.8-2.8.9.9-4.3 4.3-.7-.8zM131.7 174.3c-1.7-1.7-2.1-4.1-.5-5.7 1.6-1.6 3.9-1.2 5.6.5 1.7 1.7 2 4.1.5 5.7-1.6 1.6-3.9 1.2-5.6-.5zm4.1-4.1c-1.2-1.2-2.7-1.5-3.7-.6-.9.9-.6 2.4.6 3.6 1.2 1.2 2.7 1.5 3.6.6 1-.9.6-2.4-.5-3.6zM137.8 168.2c-1.7-1.7-2.1-4.1-.5-5.7 1.6-1.6 3.9-1.2 5.6.5 1.7 1.7 2 4.1.5 5.7s-3.9 1.2-5.6-.5zm4.1-4.1c-1.2-1.2-2.7-1.5-3.7-.6-.9.9-.6 2.4.6 3.6 1.2 1.2 2.7 1.5 3.6.6s.7-2.4-.5-3.6zM145.2 163.5c-.7-.7-.8-1.6-.4-2.5-.8.2-1.5.2-2.2-.5-.9-.9-.7-2.5.5-3.7 1.2-1.2 2.7-1.4 3.7-.5.7.7.7 1.4.5 2.2.9-.3 1.8-.3 2.5.4 1.1 1.1.8 2.7-.5 4s-3.1 1.6-4.1.6zm.6-6.1c-.5-.5-1.3-.4-1.9.2-.6.6-.7 1.4-.2 1.9.5.5 1.3.4 1.9-.2.7-.5.8-1.3.2-1.9zm2.9 2.5c-.6-.6-1.5-.4-2.2.3-.7.7-.9 1.6-.3 2.1.5.5 1.4.4 2.1-.4.8-.7.8-1.5.4-2z"/></g><g><path class="st1" d="M157 179.7l.3-3.8c.1-1.5 0-2.2-.5-2.7-.6-.6-1.3-.5-1.9 0-.5.5-.6 1.2-.5 2.3l-1.3.2c-.2-1.4-.1-2.4.9-3.4 1.2-1.2 2.7-1.2 3.7-.2.9.9.9 1.9.8 3.8l-.2 2.2 2.8-2.8.9.9-4.3 4.3-.7-.8zM160.1 172.3c-1.7-1.7-2.1-4.1-.5-5.7 1.6-1.6 3.9-1.2 5.6.5 1.7 1.7 2 4.1.5 5.7-1.5 1.5-3.9 1.2-5.6-.5zm4.1-4.1c-1.2-1.2-2.7-1.5-3.7-.6s-.6 2.4.6 3.6c1.2 1.2 2.7 1.5 3.6.6 1.1-.9.7-2.4-.5-3.6zM165.3 163.2l-.8 1.4-1.1-.6 1.1-2.1.7-.7 6 6-1 1-4.9-5zM169.6 162.9c-1.7-1.7-2.1-4.1-.5-5.7 1.6-1.6 3.9-1.2 5.6.5 1.7 1.7 2 4.1.5 5.7-1.5 1.5-3.9 1.1-5.6-.5zm4.1-4.1c-1.2-1.2-2.7-1.5-3.7-.6-.9.9-.6 2.4.6 3.6 1.2 1.2 2.7 1.5 3.6.6s.7-2.5-.5-3.6z"/></g><g><path class="st1" d="M183.5 179.2l.3-3.8c.1-1.5 0-2.2-.5-2.7-.6-.6-1.3-.5-1.9 0-.5.5-.6 1.2-.5 2.3l-1.3.2c-.2-1.4-.1-2.4.9-3.4 1.2-1.2 2.7-1.2 3.7-.2.9.9.9 1.9.8 3.8l-.2 2.2 2.8-2.8.9.9-4.3 4.3-.7-.8zM186.6 171.8c-1.7-1.7-2.1-4.1-.5-5.7 1.6-1.6 3.9-1.2 5.6.5 1.7 1.7 2 4.1.5 5.7s-3.9 1.2-5.6-.5zm4.1-4.1c-1.2-1.2-2.7-1.5-3.7-.6-.9.9-.6 2.4.6 3.6 1.2 1.2 2.7 1.5 3.6.6s.7-2.4-.5-3.6zM191.8 162.7l-.8 1.4-1.1-.6 1.1-2.1.7-.7 6 6-1 1-4.9-5zM198.1 164.6l.3-3.8c.1-1.5 0-2.2-.5-2.7-.6-.6-1.3-.5-1.9 0-.5.5-.6 1.2-.5 2.3l-1.3.2c-.2-1.4-.1-2.4.9-3.4 1.2-1.2 2.7-1.2 3.7-.2.9.9.9 1.9.8 3.8l-.2 2.2 2.8-2.8.9.9-4.3 4.3-.7-.8z"/></g></svg>