<svg xmlns="http://www.w3.org/2000/svg" xmlns:xlink="http://www.w3.org/1999/xlink" width="217" height="217" viewBox="0 0 217 217"><defs><path id="a" d="M49.246 20.907H197.97v156.516H49.247z"/></defs><clipPath id="b"><use xlink:href="#a" overflow="visible"/></clipPath><path opacity=".4" clip-path="url(#b)" fill="#81C5C9" d="M49.246 92.658l10.36-4.025 11.045 4.025 10.275 8.905 11.046-7.278 10.36.77 10.96-34.848 10.36 17.81h10.362l10.96-2.398 10.358 2.396 10.96-18.58 10.36-1.627 10.362-13.786 10.96 20.207v113.193H49.245"/><path fill="#81C5C9" d="M49.246 134.783h10.36l11.045-1.627 10.275-9.676 11.046-10.53 10.36-7.364 10.96-2.397 10.36.855 10.362 2.397 10.96 2.398 10.358-4.795 10.96-13.785 10.36-4.11 10.362-4.024 10.96 6.507v88.79H49.245"/><g fill="#676868"><path d="M26.437 176.45c.18-.274.27-.552.27-.83 0-.28-.095-.52-.288-.716-.193-.197-.438-.295-.732-.295-.518 0-.948.292-1.292.878l-.857-.55c.275-.46.58-.806.915-1.04.334-.232.765-.35 1.292-.35.526 0 .99.186 1.386.555.397.37.596.875.596 1.516 0 .358-.085.702-.254 1.028-.168.327-.48.747-.93 1.26l-1.48 1.67h2.862v1.13h-4.315v-1l1.914-2.13c.426-.478.73-.855.91-1.13zM29.195 180.568c-.13-.146-.194-.322-.194-.53s.066-.38.195-.524c.13-.143.288-.215.474-.215s.345.07.478.214c.132.144.2.318.2.525s-.067.382-.2.528-.292.22-.48.22-.343-.073-.473-.22zM32.008 179.805c-.428-.657-.64-1.535-.64-2.636s.212-1.98.64-2.636c.427-.657 1.07-.985 1.932-.985s1.505.327 1.932.984.64 1.534.64 2.635-.213 1.978-.64 2.635c-.427.656-1.07.984-1.932.984s-1.504-.33-1.932-.985zm.763-4.526c-.25.478-.374 1.108-.374 1.89s.125 1.41.375 1.89.64.72 1.17.72.917-.238 1.16-.715.366-1.11.366-1.896-.122-1.42-.366-1.897-.63-.715-1.16-.715-.92.24-1.17.72zM38.22 179.805c-.428-.657-.64-1.535-.64-2.636s.212-1.98.64-2.636c.427-.657 1.07-.985 1.932-.985s1.505.327 1.932.984.64 1.534.64 2.635-.213 1.978-.64 2.635c-.427.656-1.07.984-1.932.984s-1.505-.33-1.932-.985zm.762-4.526c-.25.478-.375 1.108-.375 1.89s.125 1.41.375 1.89.64.72 1.17.72.916-.238 1.16-.715.365-1.11.365-1.896-.122-1.42-.366-1.897-.63-.715-1.16-.715-.918.24-1.168.72z"/></g><g fill="#676868"><path d="M26.437 154.093c.18-.273.27-.55.27-.83s-.095-.52-.288-.716c-.193-.195-.438-.295-.732-.295-.518 0-.948.294-1.292.88l-.857-.55c.275-.46.58-.807.915-1.04.334-.233.765-.35 1.292-.35.526 0 .99.185 1.386.556.397.37.596.875.596 1.515 0 .36-.085.703-.254 1.03-.168.326-.48.746-.93 1.26l-1.48 1.67h2.862v1.13h-4.315v-1l1.914-2.13c.426-.48.73-.857.91-1.13zM29.195 158.213c-.13-.146-.194-.324-.194-.53s.066-.382.195-.524c.13-.146.288-.217.474-.217s.345.07.478.216c.132.142.2.317.2.523s-.067.384-.2.53-.292.22-.48.22-.343-.074-.473-.22zM35.322 151.353v1.07h-2.664v1.72c.265-.16.565-.24.903-.24.59 0 1.1.197 1.527.59.427.394.64.928.64 1.6s-.222 1.232-.667 1.676c-.446.442-.993.664-1.644.664-.85 0-1.526-.313-2.03-.94l.568-.86c.048.054.113.117.194.19.082.074.25.172.5.295.254.123.53.185.832.185.3 0 .575-.1.82-.3.248-.2.37-.492.37-.876s-.13-.68-.392-.89-.593-.316-.993-.316-.78.11-1.142.33l-.452-.54v-3.36h3.632zM37.335 157.447c-.428-.656-.64-1.535-.64-2.635s.212-1.98.64-2.635c.427-.656 1.07-.985 1.932-.985s1.505.33 1.932.985.64 1.535.64 2.635-.214 1.98-.64 2.635c-.428.657-1.072.985-1.933.985s-1.505-.328-1.932-.985zm.763-4.525c-.25.48-.375 1.11-.375 1.89 0 .78.125 1.41.375 1.892.25.48.64.72 1.17.72s.916-.24 1.16-.716.365-1.107.365-1.895-.122-1.418-.366-1.895-.63-.715-1.16-.715-.92.24-1.17.72z"/></g><g fill="#676868"><path d="M23.783 130.057v-1.05h3.693v.92l-1.526 1.89c.578.02 1.03.223 1.354.605.325.384.488.842.488 1.375 0 .714-.218 1.273-.655 1.68-.437.407-.998.61-1.684.61-.687 0-1.357-.243-2.014-.73l.45-.95c.52.4 1.06.6 1.626.6.367 0 .67-.094.908-.283.237-.19.356-.464.356-.82 0-.357-.132-.642-.397-.855-.265-.214-.632-.32-1.102-.32-.233 0-.46.036-.676.11v-.9l1.462-1.88h-2.283zM29.096 135.857c-.13-.146-.194-.324-.194-.53s.065-.382.194-.524c.13-.145.288-.216.474-.216s.346.07.48.216c.13.143.198.318.198.524s-.066.384-.2.53-.29.22-.478.22-.344-.073-.474-.22zM31.91 135.092c-.43-.656-.642-1.535-.642-2.635s.213-1.98.64-2.635c.428-.656 1.072-.985 1.933-.985s1.506.33 1.933.985.64 1.535.64 2.635-.213 1.98-.64 2.635c-.427.657-1.07.985-1.932.985s-1.504-.328-1.93-.985zm.76-4.526c-.25.48-.374 1.11-.374 1.89 0 .78.125 1.41.375 1.892.25.48.64.72 1.17.72s.917-.24 1.16-.716.366-1.107.366-1.895-.122-1.418-.366-1.895-.63-.715-1.16-.715-.92.24-1.17.72zM38.12 135.092c-.427-.656-.64-1.535-.64-2.635s.213-1.98.64-2.635c.428-.656 1.072-.985 1.933-.985s1.505.33 1.932.985.64 1.535.64 2.635-.213 1.98-.64 2.635c-.427.657-1.07.985-1.932.985s-1.505-.328-1.932-.985zm.763-4.526c-.25.48-.375 1.11-.375 1.89 0 .78.125 1.41.375 1.892.25.48.64.72 1.17.72s.916-.24 1.16-.716.365-1.107.365-1.895-.122-1.418-.366-1.895-.63-.715-1.16-.715-.92.24-1.17.72z"/></g><g fill="#676868"><path d="M23.783 107.7v-1.05h3.693v.92l-1.526 1.89c.578.02 1.03.222 1.354.605.325.384.488.842.488 1.375 0 .714-.218 1.273-.655 1.68-.437.407-.998.61-1.684.61-.687 0-1.357-.243-2.014-.73l.45-.95c.52.4 1.06.6 1.626.6.367 0 .67-.094.908-.284.237-.19.356-.463.356-.82 0-.355-.132-.64-.397-.854-.265-.213-.632-.32-1.102-.32-.233 0-.46.037-.676.11v-.9l1.462-1.88h-2.283zM29.096 113.5c-.13-.146-.194-.322-.194-.53s.065-.38.194-.524c.13-.143.288-.215.474-.215s.346.073.48.216c.13.144.198.318.198.525s-.066.384-.2.53-.29.22-.478.22-.344-.074-.474-.22zM35.222 106.64v1.07h-2.664v1.72c.265-.16.565-.24.903-.24.59 0 1.1.197 1.527.592.427.393.64.926.64 1.6s-.222 1.23-.667 1.675c-.446.443-.993.665-1.644.665-.85 0-1.526-.313-2.03-.94l.568-.86c.048.055.113.117.194.19.082.073.25.172.5.296.254.123.53.185.832.185.3 0 .575-.1.82-.3.248-.2.37-.492.37-.875 0-.384-.13-.68-.392-.89-.262-.21-.593-.315-.993-.315s-.78.11-1.142.33l-.45-.543v-3.36h3.63zM37.236 112.736c-.428-.657-.64-1.535-.64-2.636s.212-1.978.64-2.635c.427-.657 1.07-.985 1.932-.985s1.505.33 1.932.985.64 1.534.64 2.635-.213 1.98-.64 2.636c-.427.656-1.07.984-1.932.984s-1.505-.327-1.932-.984zM38 108.21c-.25.48-.376 1.11-.376 1.89s.125 1.41.375 1.89.64.72 1.168.72.917-.237 1.16-.714.366-1.11.366-1.896-.122-1.418-.366-1.895-.63-.715-1.16-.715-.92.24-1.17.72z"/></g><g fill="#676868"><path d="M26.13 88.453v-1.28h1.01v1.28h.76v1.07h-.758v1.76H26.13v-1.76h-2.71v-1.04l2.32-4.19h1.166l-2.284 4.16h1.508zM29.042 91.143c-.13-.146-.194-.323-.194-.53s.065-.382.194-.525c.13-.144.288-.215.474-.215s.346.072.48.215c.13.143.198.318.198.525s-.066.383-.2.53-.29.22-.478.22-.345-.073-.474-.22zM31.854 90.378c-.428-.657-.64-1.535-.64-2.635s.212-1.978.64-2.635c.427-.657 1.07-.985 1.932-.985s1.505.33 1.932.985.64 1.535.64 2.635-.213 1.98-.64 2.635-1.07.985-1.932.985-1.504-.328-1.932-.985zm.763-4.525c-.25.48-.375 1.11-.375 1.89 0 .78.125 1.41.375 1.89s.64.72 1.17.72.916-.238 1.16-.715.365-1.108.365-1.895-.122-1.418-.366-1.895-.63-.715-1.16-.715-.92.24-1.17.72zM38.066 90.378c-.428-.657-.64-1.535-.64-2.635s.212-1.978.64-2.635c.427-.657 1.07-.985 1.932-.985s1.505.33 1.932.985.64 1.535.64 2.635-.213 1.98-.64 2.635-1.07.985-1.932.985-1.504-.328-1.932-.985zm.763-4.525c-.25.48-.376 1.11-.376 1.89 0 .78.125 1.41.375 1.89s.64.72 1.168.72.917-.238 1.16-.715.366-1.108.366-1.895-.122-1.418-.366-1.895-.63-.715-1.16-.715-.92.24-1.17.72z"/></g><g fill="#676868"><path d="M26.13 66.098v-1.28h1.01v1.28h.76v1.07h-.758v1.76H26.13v-1.76h-2.71v-1.04l2.32-4.19h1.166l-2.284 4.16h1.508zM29.042 68.788c-.13-.146-.194-.323-.194-.53s.065-.382.194-.525c.13-.144.288-.215.474-.215s.346.072.48.215c.13.143.198.318.198.525s-.066.383-.2.53-.29.22-.478.22-.345-.074-.474-.22zM35.168 61.928v1.07h-2.664v1.72c.265-.16.565-.24.903-.24.59 0 1.1.197 1.526.59.427.393.64.927.64 1.6s-.222 1.23-.667 1.675c-.446.443-.993.665-1.644.665-.85 0-1.526-.313-2.03-.94l.568-.86c.048.054.113.117.194.19.082.073.25.17.5.295.254.124.53.185.832.185.3 0 .575-.1.82-.3.248-.2.37-.492.37-.875s-.13-.68-.392-.89c-.262-.21-.593-.315-.993-.315s-.78.11-1.14.33l-.453-.54v-3.36h3.63zM37.182 68.023c-.428-.657-.64-1.535-.64-2.635s.212-1.978.64-2.635c.427-.657 1.07-.985 1.932-.985s1.505.33 1.932.985.64 1.535.64 2.635-.213 1.98-.64 2.635-1.07.985-1.932.985-1.505-.328-1.932-.985zm.762-4.525c-.25.48-.375 1.11-.375 1.89 0 .78.124 1.41.374 1.89s.64.72 1.17.72.916-.238 1.16-.715.365-1.108.365-1.895-.123-1.418-.367-1.895-.63-.715-1.16-.715-.92.24-1.17.72z"/></g><g fill="#676868"><path d="M27.476 39.57v1.07h-2.664v1.72c.265-.16.565-.24.903-.24.59 0 1.1.198 1.526.59.428.394.642.928.642 1.6s-.223 1.232-.668 1.676c-.446.443-.993.665-1.644.665-.85 0-1.526-.312-2.03-.94l.568-.86c.048.055.113.118.194.19.082.074.25.172.5.296.254.124.53.185.832.185.3 0 .575-.1.82-.3.248-.2.37-.49.37-.874s-.13-.68-.392-.89c-.262-.21-.593-.315-.993-.315s-.782.11-1.143.33l-.452-.54v-3.36h3.63zM29.105 46.43c-.13-.145-.194-.322-.194-.53s.066-.38.195-.524c.13-.144.288-.215.474-.215s.345.073.478.216c.132.143.2.318.2.525s-.067.384-.2.53-.292.22-.48.22-.344-.072-.473-.22zM31.918 45.667c-.428-.657-.64-1.535-.64-2.635s.212-1.978.64-2.635c.427-.657 1.07-.985 1.932-.985s1.505.33 1.932.985.64 1.535.64 2.635-.213 1.98-.64 2.635-1.07.985-1.932.985-1.505-.33-1.932-.985zm.763-4.526c-.25.48-.374 1.11-.374 1.89 0 .78.125 1.41.375 1.89s.64.72 1.17.72.917-.237 1.16-.714.366-1.108.366-1.895-.122-1.417-.366-1.894-.63-.715-1.16-.715-.92.24-1.17.72zM38.13 45.667c-.428-.657-.64-1.535-.64-2.635s.212-1.978.64-2.635c.427-.657 1.07-.985 1.932-.985s1.505.33 1.932.985.64 1.535.64 2.635-.213 1.98-.64 2.635-1.07.985-1.932.985-1.505-.33-1.932-.985zm.763-4.526c-.25.48-.375 1.11-.375 1.89 0 .78.125 1.41.375 1.89s.64.72 1.17.72.916-.237 1.16-.714.365-1.108.365-1.895-.122-1.417-.366-1.894-.63-.715-1.16-.715-.92.24-1.17.72z"/></g><g fill="#676868"><path d="M27.476 17.213v1.07h-2.664v1.72c.265-.16.565-.24.903-.24.59 0 1.1.197 1.526.59.428.393.642.927.642 1.6s-.223 1.23-.668 1.675c-.446.443-.993.665-1.644.665-.85 0-1.526-.313-2.03-.94l.568-.86c.048.054.113.117.194.19.082.073.25.17.5.295.254.124.53.185.832.185.3 0 .575-.1.82-.3.248-.2.37-.492.37-.875s-.13-.68-.392-.89c-.262-.21-.593-.315-.993-.315s-.782.11-1.143.33l-.452-.54v-3.36h3.63zM29.105 24.073c-.13-.146-.194-.323-.194-.53s.066-.382.195-.525c.13-.144.288-.215.474-.215s.345.072.478.215c.132.143.2.318.2.525s-.067.383-.2.53-.292.22-.48.22-.344-.074-.473-.22zM35.23 17.213v1.07h-2.663v1.72c.265-.16.565-.24.903-.24.59 0 1.1.197 1.526.59.427.393.64.927.64 1.6s-.222 1.23-.667 1.675c-.447.443-.994.665-1.645.665-.85 0-1.526-.313-2.03-.94l.568-.86c.048.054.113.117.194.19.082.073.25.17.5.295.254.124.53.185.832.185.3 0 .574-.1.82-.3.247-.2.37-.492.37-.875s-.13-.68-.393-.89c-.262-.21-.593-.315-.993-.315s-.78.11-1.142.33l-.452-.54v-3.36h3.63zM37.245 23.308c-.428-.657-.64-1.535-.64-2.635s.212-1.978.64-2.635c.427-.657 1.07-.985 1.932-.985s1.505.33 1.932.985.64 1.535.64 2.635-.214 1.98-.64 2.635-1.072.985-1.933.985-1.505-.328-1.932-.985zm.762-4.525c-.25.48-.375 1.11-.375 1.89 0 .78.125 1.41.375 1.89s.64.72 1.17.72.916-.238 1.16-.715.365-1.108.365-1.895-.122-1.418-.366-1.895-.63-.715-1.16-.715-.92.24-1.17.72z"/></g><g fill="#676868"><path d="M37.362 196.976l1.716-1.52 4.638 5.23-.756.67-3.94-4.444-.96.85-.698-.786zM45.524 197.77c.42-.37.588-.802.508-1.29-.08-.49-.354-1.004-.823-1.543.01.24-.036.514-.14.824-.103.312-.283.58-.54.808-.423.375-.917.534-1.48.476-.56-.058-1.07-.345-1.53-.862-.457-.516-.67-1.068-.64-1.656.028-.587.278-1.088.746-1.504.757-.67 1.61-.76 2.563-.268.542.285 1.052.697 1.53 1.236.478.538.823 1.033 1.038 1.484s.325.86.33 1.23c.012.72-.238 1.31-.75 1.762s-1.13.686-1.858.7l-.18-1.006c.193.01.412-.024.655-.1.245-.072.434-.17.57-.29zm-1.58-2.073c.272-.242.426-.526.46-.855.034-.33-.067-.627-.304-.895-.236-.266-.528-.418-.874-.454-.346-.036-.65.063-.914.296-.263.232-.405.51-.423.835s.09.62.33.89c.238.27.517.43.836.476.32.047.616-.052.888-.293zM49.706 194.063c.42-.372.588-.802.508-1.292-.08-.49-.355-1.003-.824-1.54.01.24-.035.514-.14.823-.102.312-.282.58-.54.807-.422.376-.915.534-1.478.476-.563-.058-1.072-.346-1.53-.86-.458-.517-.672-1.07-.642-1.657.03-.59.28-1.09.748-1.505.756-.672 1.61-.76 2.563-.268.543.284 1.053.697 1.53 1.236.48.537.825 1.033 1.04 1.484.214.45.325.86.33 1.23.012.72-.238 1.307-.75 1.76-.51.454-1.13.688-1.858.7l-.18-1.005c.193.01.412-.023.655-.1.244-.07.433-.168.57-.29zm-1.58-2.074c.272-.242.426-.527.46-.855.035-.33-.067-.628-.304-.895s-.527-.418-.874-.455-.65.063-.914.297c-.264.232-.405.512-.423.835-.018.325.093.622.33.89.24.27.52.43.838.475.32.046.616-.052.888-.293zM49.376 186.846c.067-.53.328-1 .783-1.403s.95-.606 1.486-.61c.536-.002.982.197 1.338.598.355.403.502.91.438 1.518.737-.084 1.363.163 1.876.74.398.45.57.972.515 1.563-.054.594-.345 1.123-.872 1.59s-1.086.692-1.68.676c-.595-.017-1.09-.25-1.49-.7-.512-.577-.683-1.228-.51-1.95-.613-.01-1.098-.217-1.453-.617-.354-.406-.498-.873-.43-1.404zm1.987 1.158c.304.002.57-.098.8-.302s.362-.456.396-.76c.033-.3-.048-.562-.245-.784s-.445-.333-.747-.332c-.302-.002-.567.102-.797.305-.228.204-.362.456-.398.756-.036.3.044.56.24.782.197.222.447.334.75.336zm2.045 2.437c.338-.036.624-.158.858-.366.234-.207.39-.477.466-.808.077-.33-.006-.633-.25-.907-.242-.275-.53-.4-.86-.373-.33.025-.623.15-.875.373s-.41.5-.476.825c-.065.324.025.625.268.898.242.276.532.394.87.358z"/></g><g fill="#676868"><path d="M61.36 199.773c-.058-.322-.184-.584-.377-.787-.194-.2-.43-.307-.703-.315-.276-.008-.52.09-.732.294-.374.358-.48.867-.323 1.528l-1 .197c-.118-.525-.138-.987-.058-1.387.08-.4.31-.782.69-1.146.38-.365.84-.55 1.383-.56.544-.007 1.036.22 1.48.683.247.26.425.566.53.92.103.352.17.87.2 1.552l.085 2.23 2.066-1.98.783.815-3.116 2.986-.69-.722-.093-2.86c-.023-.642-.064-1.124-.123-1.447zM65.95 200.02c-.762-.177-1.524-.663-2.285-1.458-.76-.793-1.215-1.576-1.36-2.346-.146-.77.092-1.452.713-2.048.622-.596 1.313-.804 2.077-.626.763.18 1.525.666 2.286 1.46.762.794 1.215 1.575 1.36 2.345.146.77-.09 1.453-.713 2.05-.62.595-1.313.804-2.076.624zm-2.58-3.792c.152.52.498 1.06 1.038 1.624.54.563 1.065.932 1.578 1.104.513.174.96.078 1.343-.288.38-.367.495-.807.342-1.32s-.503-1.053-1.048-1.62c-.544-.568-1.068-.94-1.574-1.115-.506-.176-.95-.08-1.333.286-.383.365-.498.807-.346 1.328zM70.436 195.725c-.763-.18-1.525-.666-2.286-1.46-.76-.794-1.215-1.575-1.36-2.345-.146-.77.092-1.453.713-2.05.622-.595 1.313-.804 2.077-.624.763.178 1.525.664 2.286 1.46.76.792 1.214 1.575 1.36 2.345.145.77-.092 1.453-.714 2.05-.62.594-1.314.802-2.076.625zm-2.58-3.795c.15.52.496 1.06 1.036 1.623.54.564 1.065.932 1.578 1.105s.96.078 1.343-.29c.382-.364.496-.806.343-1.317-.153-.512-.503-1.052-1.048-1.62-.544-.568-1.068-.94-1.574-1.115s-.95-.08-1.333.285c-.382.367-.497.81-.345 1.33zM74.92 191.426c-.764-.178-1.525-.664-2.286-1.46-.76-.792-1.215-1.575-1.36-2.345-.146-.77.092-1.45.713-2.047.622-.596 1.313-.804 2.077-.626.762.18 1.524.666 2.285 1.46.76.794 1.214 1.575 1.36 2.345.145.77-.092 1.453-.714 2.05-.62.594-1.313.803-2.077.624zm-2.58-3.794c.15.52.497 1.06 1.037 1.624.54.563 1.065.932 1.578 1.104.513.174.96.078 1.343-.288.382-.367.496-.807.343-1.32s-.502-1.053-1.047-1.62c-.544-.568-1.068-.94-1.575-1.115-.505-.176-.95-.08-1.332.286-.383.366-.498.808-.346 1.33z"/></g><g fill="#676868"><path d="M83.45 200.004c-.083-.317-.228-.57-.436-.758-.208-.188-.45-.276-.724-.266-.275.012-.51.127-.708.346-.347.383-.42.9-.214 1.547l-.983.268c-.156-.513-.207-.972-.157-1.376.05-.404.253-.803.606-1.193s.8-.607 1.34-.654c.542-.046 1.05.145 1.525.575.266.24.464.534.594.88.128.344.232.854.31 1.534l.246 2.218L86.77 201l.838.758-2.896 3.2-.742-.67-.295-2.85c-.07-.64-.145-1.116-.226-1.434zM88.043 199.924c-.773-.123-1.568-.555-2.384-1.29-.816-.74-1.325-1.487-1.525-2.245-.2-.758-.012-1.456.566-2.095.58-.638 1.253-.896 2.028-.77.774.122 1.568.554 2.384 1.29s1.325 1.486 1.524 2.244c.2.757.012 1.454-.566 2.093s-1.253.895-2.027.77zm-2.843-3.6c.188.506.572 1.02 1.15 1.545.58.522 1.13.853 1.653.99.524.136.964.007 1.32-.386s.437-.84.247-1.34-.577-1.015-1.16-1.543c-.584-.526-1.134-.86-1.65-.998-.517-.14-.954-.013-1.31.38s-.44.844-.25 1.352zM92.21 195.317c-.772-.123-1.568-.555-2.383-1.292-.815-.738-1.324-1.485-1.524-2.242-.2-.758-.012-1.456.565-2.095.578-.638 1.253-.896 2.027-.772.774.124 1.57.555 2.384 1.293.814.736 1.323 1.484 1.523 2.24.2.76.012 1.457-.566 2.095-.577.64-1.252.896-2.026.772zm-2.843-3.6c.188.506.572 1.02 1.15 1.545.58.523 1.13.854 1.653.99.524.137.964.01 1.32-.384.354-.393.437-.84.247-1.34-.19-.5-.577-1.015-1.16-1.543-.584-.527-1.135-.86-1.65-1-.518-.14-.955-.012-1.31.38-.355.395-.44.844-.25 1.352zM95.35 186.847c-.08-.317-.226-.57-.434-.757-.208-.19-.45-.277-.724-.266-.275.01-.51.125-.708.344-.347.385-.42.9-.214 1.548l-.983.268c-.156-.515-.207-.973-.157-1.378.05-.404.253-.802.606-1.192.353-.39.8-.608 1.34-.655.542-.048 1.05.144 1.525.573.268.24.466.534.596.88.128.343.232.854.31 1.534l.246 2.22 1.92-2.124.838.758-2.895 3.2-.742-.67-.295-2.848c-.07-.64-.146-1.118-.227-1.435z"/></g><g fill="#676868"><path d="M104.862 200.79c-.086-.315-.234-.565-.445-.75s-.453-.27-.73-.253c-.274.015-.508.134-.702.355-.342.39-.404.906-.188 1.55l-.98.284c-.163-.512-.222-.97-.178-1.375.044-.403.24-.805.586-1.2.348-.396.79-.62 1.33-.678.54-.055 1.052.128 1.533.55.27.237.474.526.608.87.134.342.245.85.334 1.53l.28 2.212 1.887-2.152.85.744-2.844 3.246-.752-.658-.342-2.844c-.08-.636-.163-1.113-.25-1.43zM109.457 200.637c-.775-.11-1.577-.528-2.404-1.252-.827-.725-1.348-1.465-1.56-2.22s-.036-1.454.53-2.103c.568-.646 1.24-.915 2.015-.803.776.108 1.578.527 2.405 1.252.827.724 1.348 1.464 1.56 2.218.213.754.036 1.455-.53 2.103s-1.24.916-2.016.804zm-2.9-3.554c.195.503.587 1.013 1.174 1.526s1.144.835 1.67.962c.525.13.963-.006 1.313-.404s.424-.847.227-1.344c-.198-.498-.594-1.006-1.186-1.523s-1.146-.843-1.666-.973-.954.003-1.303.4c-.35.4-.427.85-.23 1.356zM113.55 195.965c-.775-.11-1.577-.53-2.404-1.254s-1.348-1.463-1.56-2.217c-.213-.755-.036-1.456.53-2.103.568-.648 1.24-.916 2.016-.805.775.11 1.577.53 2.404 1.254s1.348 1.463 1.56 2.216c.213.756.036 1.456-.53 2.104-.57.65-1.24.916-2.016.805zm-2.902-3.555c.196.504.588 1.013 1.175 1.527.587.514 1.143.834 1.67.963.524.128.963-.008 1.312-.406s.424-.846.227-1.343c-.198-.496-.594-1.004-1.186-1.523-.592-.518-1.146-.842-1.666-.973s-.954.003-1.303.4-.426.852-.23 1.356zM117.426 188.617l-.963-.843.667-.76.963.843.5-.57.804.704-.5.572 1.325 1.16-.667.76-1.324-1.16-1.783 2.038-.782-.685-1.624-4.507.77-.876 1.624 4.46.992-1.135z"/></g><g fill="#676868"><path d="M126.055 200.445c-.092-.314-.244-.563-.456-.744-.215-.18-.458-.263-.733-.244-.274.02-.508.142-.698.366-.337.394-.393.912-.168 1.554l-.977.295c-.17-.508-.235-.965-.196-1.37s.228-.81.57-1.21c.34-.4.78-.633 1.32-.695.54-.063 1.054.114 1.54.53.274.233.48.52.62.86.14.34.258.85.355 1.525l.31 2.21 1.857-2.178.86.732-2.8 3.284-.76-.648-.38-2.838c-.087-.637-.176-1.11-.267-1.427zM130.646 200.23c-.777-.1-1.585-.508-2.422-1.22-.837-.716-1.366-1.447-1.59-2.198-.222-.752-.054-1.455.505-2.11.557-.654 1.225-.932 2.002-.83.777.1 1.584.507 2.42 1.222.838.713 1.368 1.445 1.59 2.197.224.752.055 1.455-.503 2.11-.56.655-1.226.932-2.004.83zm-2.948-3.515c.203.502.6 1.005 1.194 1.512.594.506 1.154.82 1.682.94.527.122.964-.02 1.308-.423.343-.402.412-.852.207-1.347s-.606-.997-1.206-1.507c-.6-.512-1.158-.828-1.68-.952-.52-.124-.953.017-1.296.42-.344.403-.413.855-.21 1.357zM134.677 195.504c-.777-.1-1.585-.508-2.422-1.222s-1.366-1.446-1.59-2.197-.054-1.454.505-2.11c.558-.654 1.226-.932 2.003-.83.777.1 1.584.507 2.42 1.22s1.368 1.448 1.59 2.2.055 1.453-.503 2.108c-.56.655-1.226.932-2.003.83zm-2.948-3.516c.202.5.6 1.004 1.193 1.51.594.507 1.154.82 1.682.94.527.123.964-.018 1.308-.42.343-.404.412-.853.207-1.35-.205-.493-.605-.995-1.205-1.506-.6-.51-1.158-.827-1.68-.952-.52-.123-.953.017-1.296.42-.345.403-.415.856-.21 1.358zM136.095 185.893c-.362.426-.47.877-.32 1.352.146.474.49.943 1.028 1.41-.044-.234-.037-.513.022-.834s.2-.612.422-.873c.367-.43.833-.655 1.398-.677.565-.02 1.11.193 1.636.642.525.447.814.964.867 1.55.052.587-.126 1.118-.53 1.595-.657.77-1.49.976-2.502.62-.576-.207-1.14-.543-1.688-1.012-.547-.467-.96-.908-1.234-1.325s-.44-.808-.498-1.172c-.11-.712.055-1.328.498-1.85.442-.52 1.023-.835 1.743-.95l.316.97c-.19.02-.403.082-.635.19-.23.105-.405.228-.522.365zm1.853 1.835c-.235.277-.348.58-.336.91.012.332.153.613.425.845.27.23.58.34.93.328s.635-.152.866-.423c.23-.27.333-.568.31-.896-.022-.327-.17-.606-.44-.838s-.572-.346-.903-.343c-.332 0-.615.14-.852.418z"/></g><g fill="#676868"><path d="M147.263 200.375c-.09-.315-.24-.564-.45-.748s-.455-.268-.73-.25c-.274.016-.508.136-.7.358-.34.392-.402.908-.184 1.552l-.978.287c-.168-.51-.23-.97-.186-1.373.043-.404.236-.807.58-1.204.347-.398.79-.625 1.328-.684.54-.057 1.053.123 1.537.543.272.236.476.525.612.867.137.34.25.85.342 1.527l.29 2.212 1.877-2.16.855.74-2.83 3.26-.754-.656-.353-2.842c-.08-.637-.167-1.113-.254-1.43zM151.855 200.2c-.776-.106-1.58-.52-2.41-1.24s-1.354-1.46-1.57-2.213c-.217-.753-.042-1.455.52-2.104.565-.65 1.235-.922 2.013-.814.775.107 1.58.522 2.41 1.243s1.354 1.457 1.57 2.21c.215.754.04 1.456-.523 2.105-.563.65-1.234.92-2.01.813zm-2.917-3.54c.198.502.593 1.01 1.18 1.52.59.512 1.148.83 1.675.956.525.126.963-.012 1.31-.41.348-.4.42-.85.22-1.346-.198-.496-.596-1.002-1.19-1.518-.595-.516-1.15-.838-1.67-.967-.52-.128-.955.008-1.302.408-.347.4-.422.853-.222 1.356zM155.927 195.51c-.776-.107-1.58-.52-2.41-1.242-.83-.72-1.355-1.46-1.57-2.21-.216-.755-.042-1.457.522-2.106.563-.65 1.233-.922 2.01-.814.776.108 1.58.523 2.41 1.244.83.72 1.354 1.457 1.57 2.21.216.754.042 1.456-.522 2.105-.565.65-1.235.92-2.01.813zm-2.917-3.542c.2.503.592 1.01 1.182 1.522.59.51 1.146.83 1.673.955s.963-.012 1.31-.41c.348-.4.422-.85.22-1.346-.198-.497-.596-1.003-1.19-1.52-.594-.515-1.15-.837-1.67-.965-.52-.13-.955.007-1.302.407-.35.4-.422.853-.223 1.356zM155.816 186.95c-.004-.536.195-1.034.594-1.493s.862-.726 1.395-.8c.53-.07.998.067 1.404.42.403.35.615.833.63 1.444.722-.178 1.374-.015 1.958.492.453.394.692.887.715 1.48.023.595-.196 1.157-.657 1.688-.462.532-.988.828-1.58.89-.59.06-1.113-.106-1.566-.5-.584-.506-.838-1.128-.762-1.867-.607.07-1.115-.07-1.52-.423-.407-.35-.61-.794-.612-1.33zm2.12.89c.303-.037.553-.172.754-.404s.3-.5.294-.803c-.006-.305-.12-.553-.345-.748-.225-.194-.486-.27-.785-.232-.3.04-.55.176-.75.407s-.302.5-.298.8c.004.302.117.55.34.744.225.195.488.273.79.236zm2.345 2.148c.33-.08.6-.238.804-.475s.324-.523.357-.862c.034-.336-.088-.625-.365-.866-.276-.24-.578-.326-.9-.257-.327.068-.6.23-.82.484-.22.257-.343.55-.364.88-.022.33.105.617.382.857.276.24.58.32.91.24z"/></g><g><g fill="#676868"><path d="M169.713 199.833c-.103-.312-.265-.553-.485-.726s-.468-.244-.74-.213c-.275.03-.503.16-.685.393-.32.408-.354.927-.104 1.56l-.963.335c-.19-.502-.275-.956-.253-1.362.022-.407.196-.818.52-1.233.326-.414.757-.663 1.293-.748.536-.085 1.056.07 1.56.466.283.222.502.5.655.835.152.334.29.838.417 1.51l.4 2.196 1.766-2.253.89.697-2.664 3.396-.786-.617-.496-2.82c-.115-.635-.224-1.105-.327-1.417zM174.292 199.43c-.78-.068-1.604-.442-2.47-1.12-.864-.68-1.424-1.39-1.677-2.13-.254-.743-.114-1.452.417-2.13.53-.677 1.187-.98 1.968-.912.78.068 1.604.442 2.47 1.122.864.678 1.424 1.39 1.677 2.13.253.74.114 1.45-.417 2.128-.53.677-1.188.982-1.968.912zm-3.09-3.392c.224.492.642.98 1.256 1.46s1.187.773 1.72.872c.53.1.96-.058 1.287-.476.327-.416.378-.868.153-1.354-.225-.486-.646-.973-1.266-1.457-.62-.486-1.19-.78-1.717-.882s-.952.056-1.28.473c-.326.417-.376.872-.153 1.365zM172.774 191.505l1.415-1.805 5.5 4.313-.625.796-4.674-3.667-.79 1.01-.826-.648zM180.248 191.835c-.78-.068-1.604-.442-2.47-1.12s-1.424-1.39-1.677-2.13c-.253-.743-.113-1.453.418-2.13.53-.678 1.187-.982 1.968-.912.78.068 1.604.442 2.47 1.12.865.68 1.424 1.39 1.677 2.13.253.743.114 1.453-.417 2.13-.53.678-1.188.98-1.968.912zm-3.09-3.392c.225.492.643.98 1.257 1.46.614.482 1.187.772 1.718.872.532.1.962-.06 1.288-.476.328-.418.38-.87.155-1.355s-.646-.972-1.266-1.457-1.192-.78-1.718-.882-.953.056-1.28.472c-.326.417-.377.87-.154 1.365z"/></g></g><g><g fill="#676868"><path d="M191.084 199.29c-.1-.314-.26-.558-.478-.733-.22-.176-.464-.25-.738-.223-.274.026-.503.155-.688.385-.324.402-.365.92-.124 1.557l-.966.323c-.185-.504-.263-.96-.235-1.365.028-.407.206-.816.536-1.227s.766-.653 1.303-.73c.537-.078 1.056.084 1.555.484.28.227.494.507.644.844.148.336.28.84.397 1.514l.372 2.2 1.795-2.23.88.71-2.706 3.362-.778-.627-.46-2.827c-.107-.635-.208-1.107-.308-1.42zM195.667 198.944c-.78-.08-1.6-.464-2.455-1.153s-1.407-1.405-1.65-2.15c-.244-.745-.096-1.452.443-2.122.54-.67 1.2-.967 1.98-.89.778.08 1.597.464 2.453 1.153s1.407 1.41 1.65 2.153c.244.745.097 1.453-.443 2.123-.54.672-1.2.967-1.978.888zm-3.046-3.43c.217.494.63.986 1.237 1.476s1.177.787 1.707.894c.53.106.962-.047 1.294-.46.332-.412.39-.862.17-1.352-.217-.49-.633-.98-1.246-1.474-.612-.492-1.18-.793-1.705-.902-.523-.11-.953.042-1.285.455-.332.413-.39.868-.17 1.364zM194.25 191l1.438-1.787 5.445 4.383-.634.788-4.63-3.725-.803.998-.817-.658zM200.47 187.627c-.1-.313-.26-.557-.477-.732-.22-.176-.465-.25-.74-.223-.273.026-.502.155-.687.385-.324.403-.365.922-.123 1.557l-.967.324c-.185-.504-.263-.96-.235-1.365.03-.407.207-.816.537-1.227s.765-.654 1.302-.732c.536-.076 1.055.086 1.554.486.28.227.494.507.644.844.148.336.28.84.397 1.514l.374 2.2 1.793-2.23.88.71-2.706 3.362-.78-.627-.458-2.827c-.108-.635-.21-1.108-.31-1.42z"/></g></g><g><path fill="none" d="M116.373 129.39h31.852v25.26h-31.852z"/><g fill="#FFF"><path d="M120.314 137.097c-.45 0-.857-.067-1.227-.202s-.688-.335-.953-.6-.47-.596-.615-.99c-.147-.393-.22-.845-.22-1.355v-4.213h.818v4.16c0 .788.195 1.392.585 1.813s.934.632 1.63.632c.67 0 1.2-.2 1.595-.6s.59-.998.59-1.792v-4.213h.818v4.15c0 .532-.073.998-.218 1.398-.145.4-.35.734-.615 1.004-.266.268-.584.47-.953.604s-.78.203-1.236.203zM127.768 137.086c-.58 0-1.11-.095-1.59-.285-.48-.188-.937-.48-1.37-.873l.507-.6c.38.344.762.602 1.148.77s.832.253 1.336.253c.488 0 .88-.115 1.173-.347.294-.23.44-.526.44-.885v-.02c0-.167-.028-.317-.083-.45-.055-.136-.152-.26-.29-.37s-.33-.21-.576-.3-.56-.175-.94-.258c-.414-.09-.775-.193-1.083-.31s-.562-.26-.762-.426c-.2-.165-.35-.358-.446-.58s-.146-.478-.146-.775v-.022c0-.282.06-.545.176-.786s.283-.45.497-.627c.213-.176.465-.313.755-.414.29-.1.607-.148.952-.148.53 0 .996.074 1.393.223s.78.37 1.154.667l-.477.632c-.338-.276-.678-.477-1.02-.6s-.7-.188-1.07-.188c-.477 0-.854.112-1.13.337-.275.225-.413.502-.413.833v.02c0 .174.027.327.082.462.056.135.156.26.3.373.146.114.346.218.6.312.257.093.585.18.985.264.808.18 1.403.428 1.786.745s.574.754.574 1.306v.02c0 .312-.06.593-.184.845s-.292.47-.508.648c-.215.18-.475.317-.777.414-.303.095-.634.144-.992.144z"/></g></g><g><path fill="none" d="M116.373 83.667h31.852v25.26h-31.852z"/><g fill="#FFF"><path d="M117.416 83.95h.817v3.22h4.183v-3.22h.817v7.246h-.817v-3.26h-4.183v3.26h-.817V83.95zM125.355 83.95h.817v7.246h-.817V83.95z"/></g></g><g><path fill="none" d="M21.49 182.176l-15.84.092L4.653 10.33l15.84-.09z"/><g fill="#676868"><path d="M7.8 178.86c.003.376.083.686.238.927.156.24.39.36.7.357.313-.003.55-.126.713-.37.164-.242.337-.76.522-1.55.184-.79.447-1.385.79-1.787s.847-.606 1.518-.61c.67-.007 1.217.24 1.64.745.42.502.635 1.164.642 1.985.01 1.202-.396 2.273-1.218 3.212l-.985-.808c.668-.783 1-1.592.992-2.43-.003-.417-.096-.748-.277-.992s-.42-.365-.718-.363c-.297.003-.527.12-.69.353-.163.232-.31.632-.44 1.196-.132.566-.253.996-.365 1.29-.112.295-.258.557-.44.785-.34.46-.867.69-1.58.695-.71.006-1.26-.248-1.65-.762-.388-.515-.586-1.152-.592-1.916-.004-.49.073-.98.23-1.465.158-.484.38-.904.672-1.26l.984.686c-.203.23-.37.54-.5.93-.127.39-.19.773-.186 1.15zM14.512 172.133c.005.72-.19 1.334-.585 1.843-.396.51-.94.767-1.638.772-.83.006-1.57-.59-2.227-1.787-.342.304-.623.518-.842.64-.218.123-.496.186-.833.19-.586.003-1.04-.21-1.358-.64-.32-.43-.48-.94-.486-1.525-.004-.588.142-1.087.44-1.5.296-.412.717-.62 1.26-.625.725-.006 1.416.575 2.07 1.742.714-.592 1.26-1.072 1.638-1.44-.34-.226-.732-.4-1.18-.52l.63-.908c.507.187.952.4 1.335.64.298-.297.66-.674 1.08-1.13l.777.817-.994 1.02c.6.64.904 1.446.912 2.413zm-6.99-.51c.002.244.08.465.236.658.155.193.336.29.542.288.205-.002.39-.053.554-.153.165-.1.393-.272.684-.517-.417-.826-.802-1.237-1.154-1.234-.293.002-.51.102-.652.297s-.21.417-.21.662zm5.617 1.48c.206-.28.308-.652.304-1.114-.003-.463-.22-.952-.65-1.47-.77.746-1.42 1.338-1.944 1.775.454.824.95 1.235 1.484 1.23.33-.002.6-.143.805-.423zM6.648 161.23l1.22-.01.034 4.103 2.035-.016-.03-3.686 1.156-.01.03 3.687 2.056-.016-.035-4.234 1.22-.01.045 5.533-7.69.06-.042-5.4zM9.06 150.264c1.268-.01 2.072.537 2.41 1.643l2.78-2.035.012 1.65-2.57 1.857.013 1.703 2.585-.02.01 1.298-7.69.062-.02-2.86c-.01-1.173.182-2.015.573-2.523.39-.51 1.023-.77 1.896-.776zm1.102 1.718c-.23-.262-.595-.39-1.098-.387-.502.004-.846.143-1.03.414-.185.272-.275.757-.27 1.454l.013 1.648 2.75-.02-.013-1.616c-.006-.734-.123-1.232-.352-1.494zM14.308 146.284c.006.72-.19 1.333-.585 1.843-.396.51-.942.766-1.64.77-.828.007-1.57-.588-2.224-1.786-.343.305-.624.52-.843.64-.22.124-.497.187-.834.19-.586.003-1.04-.21-1.358-.64-.318-.43-.48-.938-.485-1.525-.004-.587.142-1.086.44-1.5.296-.412.717-.62 1.26-.625.725-.006 1.415.575 2.07 1.743.714-.593 1.26-1.073 1.64-1.442-.34-.224-.733-.397-1.182-.52l.63-.906c.508.187.953.4 1.336.64.298-.297.66-.674 1.08-1.13l.777.817-.993 1.02c.6.642.903 1.446.91 2.414zm-6.99-.51c.002.244.08.464.236.657.155.194.336.29.542.288.205-.002.39-.053.554-.152.165-.102.393-.273.684-.518-.417-.825-.802-1.236-1.154-1.234-.293.002-.51.102-.652.297-.142.197-.212.417-.21.663zm5.617 1.478c.207-.28.308-.65.305-1.113-.004-.462-.22-.952-.65-1.47-.77.747-1.42 1.34-1.944 1.775.454.825.95 1.236 1.484 1.23.33 0 .598-.142.805-.423zM7.447 134.953c.665-.746 1.595-1.123 2.79-1.133 1.197-.01 2.146.342 2.848 1.055.702.714 1.06 1.81 1.07 3.293l.02 2.55-7.688.062-.02-2.64c-.012-1.378.315-2.44.98-3.187zm2.834.176c-1.76.013-2.63 1.028-2.615 3.045l.01 1.298 5.27-.042-.012-1.44c-.007-.93-.235-1.642-.683-2.134-.447-.492-1.104-.734-1.97-.727zM8.12 126.19c-.006-.784.26-1.457.8-2.02.537-.56 1.257-.845 2.16-.853.9-.007 1.637.264 2.206.813.57.55.856 1.193.862 1.93.006.737-.31 1.402-.952 1.994l3.014-.024.01 1.23-7.986.065-.01-1.232 1.023-.008c-.745-.478-1.12-1.108-1.127-1.894zm3.04 1.902c.558-.004 1.013-.176 1.366-.516.353-.34.527-.753.524-1.237-.004-.484-.183-.904-.538-1.262-.355-.356-.813-.532-1.374-.527-.56.005-1.025.185-1.393.54-.367.354-.55.777-.546 1.27.003.49.192.904.564 1.238.375.334.84.5 1.397.494zM11.597 116.46l.036 4.59c.425-.034.767-.23 1.024-.593s.384-.772.38-1.234c-.005-.733-.24-1.29-.706-1.667l.766-.71c.658.625.99 1.443 1 2.456.005.82-.262 1.522-.804 2.103-.542.58-1.273.873-2.193.88-.92.008-1.655-.28-2.203-.862-.547-.582-.824-1.27-.83-2.066-.007-.796.228-1.475.704-2.035.477-.562 1.137-.846 1.98-.853l.847-.01zm-.93 4.597l-.028-3.355c-.492.004-.87.16-1.13.47-.26.312-.39.692-.387 1.144.004.45.145.854.422 1.21.277.357.65.535 1.12.53zM9.252 112.058c.005.608.207 1.065.605 1.37s.932.455 1.6.45l2.507-.02.01 1.23-5.852.047-.01-1.23 1.177-.01c-.37-.196-.672-.464-.91-.803-.237-.34-.36-.7-.37-1.08l1.242-.022v.068zM14.69 105.48l-.804.006c-.094 1.006-.487 1.91-1.177 2.715l-.964-.793c.53-.62.845-1.257.942-1.91l-2.134.016c-.19.83-.447 1.44-.766 1.827-.32.387-.797.583-1.43.588s-1.156-.213-1.563-.653c-.407-.44-.63-1.017-.674-1.728l-.55.004-.004-.703.56-.004c.053-.807.322-1.572.808-2.295l1.018.707c-.34.486-.55 1.013-.625 1.578l2.068-.016v-.033c.19-.845.455-1.467.788-1.865.334-.4.823-.602 1.464-.607s1.166.218 1.573.67c.407.45.632 1.05.674 1.8l.792-.007.003.704zm-7.095.833c.167.186.372.277.618.275.246-.002.44-.077.582-.224.142-.148.277-.428.406-.84l-1.902.015c.032.33.13.587.297.773zm4.805-2.355c-.17-.204-.384-.305-.64-.303s-.46.084-.61.247c-.148.163-.287.464-.416.906l1.98-.016c-.04-.352-.143-.63-.314-.834zM6.176 101.533l-.022-2.794 7.69-.062.01 1.232-6.535.052.01 1.562-1.154.01zM12.83 96.178c-.72.527-1.684.794-2.894.804-1.21.01-2.178-.243-2.904-.758-.727-.515-1.095-1.297-1.103-2.346-.01-1.048.346-1.835 1.064-2.362s1.683-.795 2.893-.804c1.21-.01 2.178.244 2.904.758.728.515 1.095 1.296 1.103 2.345.008 1.05-.346 1.836-1.064 2.363zm-4.987-.89c.53.3 1.225.447 2.083.44s1.55-.165 2.075-.473c.527-.308.787-.786.782-1.43-.005-.646-.27-1.115-.797-1.408-.527-.292-1.223-.435-2.088-.428s-1.56.16-2.08.46c-.523.3-.782.774-.777 1.42.005.645.273 1.118.803 1.418zM12.77 88.61c-.72.527-1.683.794-2.893.804-1.21.01-2.178-.243-2.905-.758S5.878 87.36 5.87 86.31c-.01-1.048.346-1.836 1.064-2.362.718-.526 1.682-.795 2.892-.804 1.21-.01 2.178.244 2.905.758.728.515 1.095 1.297 1.103 2.345.01 1.05-.346 1.836-1.064 2.363zm-4.986-.89c.53.3 1.225.447 2.083.44s1.55-.165 2.076-.473c.525-.308.786-.786.78-1.43-.004-.646-.27-1.115-.797-1.408-.527-.293-1.223-.437-2.088-.43s-1.56.16-2.08.462c-.523.3-.78.774-.776 1.42.003.645.27 1.118.802 1.418zM12.71 81.042c-.72.527-1.684.794-2.894.804-1.21.01-2.178-.243-2.904-.758-.727-.515-1.094-1.297-1.103-2.346-.01-1.048.346-1.836 1.064-2.362.718-.526 1.683-.795 2.893-.804 1.21-.01 2.178.244 2.904.758.728.515 1.095 1.296 1.104 2.345.008 1.048-.347 1.836-1.065 2.362zm-4.986-.89c.53.3 1.225.447 2.083.44s1.55-.165 2.076-.473c.525-.31.786-.787.78-1.432-.004-.645-.27-1.114-.797-1.407-.527-.29-1.223-.435-2.088-.428s-1.56.16-2.08.462c-.523.3-.782.774-.776 1.42.004.645.272 1.118.802 1.418zM12.8 66.103c.587.582.885 1.313.892 2.193.007.88-.28 1.616-.857 2.207-.578.59-1.29.89-2.133.897-.843.007-1.558-.28-2.146-.863-.587-.582-.885-1.313-.892-2.193-.007-.88.28-1.616.857-2.207.58-.592 1.29-.89 2.133-.897.844-.007 1.56.28 2.147.863zm-.73 3.53c.352-.35.526-.793.522-1.33-.004-.535-.186-.975-.544-1.32-.36-.345-.82-.516-1.385-.512-.564.005-1.023.184-1.376.535-.353.35-.527.794-.523 1.33.004.535.186.976.544 1.32.36.347.82.517 1.384.512.565-.004 1.024-.18 1.377-.533zM7.22 62.44l.485-.004-.012-1.54.99-.008.012 1.54 4.862-.04.01 1.233-4.862.04.006.737-.99.008-.005-.737-.45.003c-.617.006-1.108-.175-1.474-.542-.365-.368-.55-.814-.554-1.338-.004-.524.187-1.003.572-1.44l.873.5c-.253.244-.38.498-.378.762.002.264.086.47.252.614.166.144.388.215.667.213zM9.728 51.177l-.01-1.298 2.63-.022c.804.72 1.212 1.754 1.222 3.104.01 1.137-.357 2.09-1.1 2.864-.74.772-1.684 1.163-2.828 1.172-1.144.01-2.1-.375-2.87-1.15-.768-.774-1.158-1.715-1.167-2.823-.008-1.107.308-2.03.947-2.77l.996.687c-.254.303-.43.606-.526.91-.097.307-.144.66-.14 1.064.006.777.262 1.428.77 1.952.505.524 1.167.783 1.985.776.818-.006 1.472-.268 1.963-.785.49-.518.733-1.142.728-1.87s-.168-1.34-.487-1.83l-2.112.017zM6.716 42.38c.665-.747 1.595-1.125 2.79-1.134 1.197-.01 2.146.342 2.848 1.055.702.714 1.06 1.812 1.07 3.293l.022 2.552-7.69.06-.02-2.64c-.012-1.378.315-2.44.98-3.186zm2.834.175c-1.76.014-2.632 1.03-2.616 3.045l.01 1.298 5.27-.042-.013-1.44c-.006-.932-.233-1.644-.68-2.135-.448-.49-1.104-.732-1.97-.725zM6.317 34.406c.443-.54 1.13-.812 2.062-.82.93-.006 1.615.26 2.052.804s.66 1.38.67 2.508l.01 1.364 2.255-.018.01 1.298-7.69.06-.02-2.64c-.01-1.164.208-2.016.65-2.556zm3.18.894c-.276-.258-.68-.385-1.212-.38-.532.004-.906.17-1.124.503-.217.332-.322.85-.317 1.554l.01 1.32 3.08-.024-.012-1.507c-.003-.72-.145-1.207-.422-1.466z"/></g></g></svg>