<svg id="Layer_1" xmlns="http://www.w3.org/2000/svg" xmlns:xlink="http://www.w3.org/1999/xlink" viewBox="0 0 217 217"><style>.st0{opacity:.4;clip-path:url(#SVGID_2_);enable-background:new}.st0,.st1{fill:#81c5c9}.st2{fill:none}.st3{fill:#505050}.st4{fill:#fff}</style><defs><path id="SVGID_1_" d="M49.2 20.9h148.7v156.5H49.2z"/></defs><clipPath id="SVGID_2_"><use xlink:href="#SVGID_1_" overflow="visible"/></clipPath><path class="st0" d="M49.2 92.7l10.4-4.1 11.1 4.1 10.2 8.9L92 94.3l10.3.8 11-34.9L123.7 78H134l11-2.4 10.3 2.4 11-18.6 10.3-1.6L187 44l11 20.2v113.2H49.2z"/><path class="st1" d="M49.2 134.8h10.4l11.1-1.6 10.2-9.7L92 112.9l10.3-7.3 11-2.4 10.4.8 10.3 2.4 11 2.4 10.3-4.8 11-13.7 10.3-4.1 10.4-4.1 11 6.5v88.8H49.2z"/><path class="st2" d="M116.4 129.4h31.9v25.3h-31.9zm0-45.7h31.9V109h-31.9z"/><path class="st3" d="M20.1 23.5l.9-1.1c.7.6 1.4 1 2.2 1 1 0 1.7-.6 1.7-1.5s-.7-1.4-1.7-1.4c-.6 0-1.1.2-1.5.4l-.9-.6.2-4.1h5v1.3h-3.7l-.1 2c.4-.1.8-.2 1.3-.2 1.6 0 2.9.9 2.9 2.6 0 1.7-1.2 2.8-3.1 2.8-1.4.1-2.5-.4-3.2-1.2zm7.7-.5h1.6v1.6h-1.6V23zm2.9.5l.9-1.1c.7.6 1.4 1 2.2 1 1 0 1.7-.6 1.7-1.5s-.7-1.4-1.7-1.4c-.6 0-1.1.2-1.5.4l-.9-.6.2-4.1h5v1.3h-3.7l-.1 2c.4-.1.8-.2 1.3-.2 1.6 0 2.9.9 2.9 2.6 0 1.7-1.2 2.8-3.1 2.8-1.4.1-2.4-.4-3.2-1.2zm7.6-3c0-2.4 1.5-4.4 3.7-4.4s3.6 1.9 3.6 4.3-1.5 4.3-3.7 4.3c-2.1.1-3.6-1.8-3.6-4.2zm5.8 0c0-1.7-.9-3-2.1-3s-2.1 1.3-2.1 3 .8 3 2.1 3 2.1-1.4 2.1-3zM19.6 45.8l.9-1.1c.7.6 1.4 1 2.2 1 1 0 1.7-.6 1.7-1.5s-.7-1.4-1.7-1.4c-.6 0-1.1.2-1.5.4l-.9-.6.2-4.1h5v1.3h-3.7l-.1 2c.4-.1.8-.2 1.3-.2 1.6 0 2.9.9 2.9 2.6 0 1.7-1.2 2.8-3.1 2.8-1.4 0-2.4-.5-3.2-1.2zm7.7-.5h1.6v1.6h-1.6v-1.6zm2.8-2.6c0-2.4 1.5-4.4 3.7-4.4s3.6 1.9 3.6 4.3-1.5 4.3-3.7 4.3c-2.1.1-3.6-1.8-3.6-4.2zm5.8 0c0-1.7-.9-3-2.1-3s-2.1 1.3-2.1 3 .8 3 2.1 3 2.1-1.3 2.1-3zm2.9 0c0-2.4 1.5-4.4 3.7-4.4s3.6 1.9 3.6 4.3-1.5 4.3-3.7 4.3c-2.1.1-3.6-1.8-3.6-4.2zm5.8 0c0-1.7-.9-3-2.1-3s-2.1 1.3-2.1 3 .8 3 2.1 3 2.1-1.3 2.1-3zM24.1 67.9h-4.2l-.3-1.1 4.7-5.5h1.3v5.4h1.2v1.2h-1.2v1.9h-1.4v-1.9zm0-1.2v-3.3l-2.8 3.3h2.8zm4 1.4h1.6v1.6h-1.6v-1.6zm3 .5l.9-1.1c.7.6 1.4 1 2.2 1 1 0 1.7-.6 1.7-1.5s-.7-1.4-1.7-1.4c-.6 0-1.1.2-1.5.4l-.9-.6.2-4.1h5v1.3h-3.7l-.1 2c.4-.1.8-.2 1.3-.2 1.6 0 2.9.9 2.9 2.6 0 1.7-1.2 2.8-3.1 2.8-1.4.1-2.4-.4-3.2-1.2zm7.6-3c0-2.4 1.5-4.4 3.7-4.4s3.6 1.9 3.6 4.3-1.5 4.3-3.7 4.3c-2.2.1-3.6-1.8-3.6-4.2zm5.8 0c0-1.7-.9-3-2.1-3-1.3 0-2.1 1.3-2.1 3s.8 3 2.1 3 2.1-1.3 2.1-3zM23.6 90.1h-4.2l-.3-1.1 4.7-5.5H25v5.4h1.2v1.2H25V92h-1.4v-1.9zm0-1.2v-3.3l-2.8 3.3h2.8zm4 1.4h1.6V92h-1.6v-1.7zm2.9-2.5c0-2.4 1.5-4.4 3.7-4.4s3.6 1.9 3.6 4.3-1.5 4.3-3.7 4.3c-2.2.1-3.6-1.8-3.6-4.2zm5.8 0c0-1.7-.9-3-2.1-3s-2.1 1.3-2.1 3 .8 3 2.1 3 2.1-1.3 2.1-3zm2.9 0c0-2.4 1.5-4.4 3.7-4.4s3.6 1.9 3.6 4.3S45 92 42.8 92c-2.2.1-3.6-1.8-3.6-4.2zm5.8 0c0-1.7-.9-3-2.1-3s-2.1 1.3-2.1 3 .8 3 2.1 3 2.1-1.3 2.1-3zm-25 24.6l1-1c.6.7 1.3 1.1 2.2 1.1.8 0 1.5-.5 1.5-1.3s-.8-1.3-1.9-1.3h-.7l-.2-.9 2.3-2.4h-3.6v-1.3h5.6v1.1l-2.3 2.4c1.3.2 2.5.8 2.5 2.4 0 1.5-1.2 2.7-2.9 2.7s-2.8-.6-3.5-1.5zm7.7-.3h1.6v1.6h-1.6v-1.6zm3 .5l.9-1.1c.7.6 1.4 1 2.2 1 1 0 1.7-.6 1.7-1.5s-.7-1.4-1.7-1.4c-.6 0-1.1.2-1.5.4l-.9-.6.2-4.1h5v1.3h-3.7l-.1 2c.4-.1.8-.2 1.3-.2 1.6 0 2.9.9 2.9 2.6 0 1.7-1.2 2.8-3.1 2.8-1.4.1-2.4-.4-3.2-1.2zm7.6-3c0-2.4 1.5-4.4 3.7-4.4s3.6 1.9 3.6 4.3-1.5 4.3-3.7 4.3c-2.2.1-3.6-1.8-3.6-4.2zm5.8 0c0-1.7-.9-3-2.1-3-1.3 0-2.1 1.3-2.1 3s.8 3 2.1 3 2.1-1.4 2.1-3zM19.5 135l1-1c.6.7 1.3 1.1 2.2 1.1.8 0 1.5-.5 1.5-1.3s-.8-1.3-1.9-1.3h-.7l-.2-.9 2.3-2.4H20V128h5.6v1.1l-2.3 2.4c1.3.2 2.5.8 2.5 2.4 0 1.5-1.2 2.7-2.9 2.7-1.6-.1-2.7-.7-3.4-1.6zm7.8-.3h1.6v1.6h-1.6v-1.6zm2.8-2.5c0-2.4 1.5-4.4 3.7-4.4s3.6 1.9 3.6 4.3-1.5 4.3-3.7 4.3c-2.2.1-3.6-1.8-3.6-4.2zm5.8 0c0-1.7-.9-3-2.1-3-1.3 0-2.1 1.3-2.1 3s.8 3 2.1 3 2.1-1.4 2.1-3zm2.9 0c0-2.4 1.5-4.4 3.7-4.4s3.6 1.9 3.6 4.3-1.5 4.3-3.7 4.3c-2.2.1-3.6-1.8-3.6-4.2zm5.8 0c0-1.7-.9-3-2.1-3-1.3 0-2.1 1.3-2.1 3s.8 3 2.1 3 2.1-1.4 2.1-3zm-24.5 25.4l2.9-2.5c1.2-1 1.6-1.5 1.6-2.3 0-.8-.6-1.3-1.4-1.3s-1.3.4-1.9 1.3l-1-.8c.8-1.1 1.6-1.8 3.1-1.8 1.6 0 2.8 1 2.8 2.5 0 1.3-.7 2-2.2 3.3l-1.7 1.4h4v1.3h-6.1v-1.1zm7.6-.4h1.6v1.6h-1.6v-1.6zm3 .5l.9-1.1c.7.6 1.4 1 2.2 1 1 0 1.7-.6 1.7-1.5s-.7-1.4-1.7-1.4c-.6 0-1.1.2-1.5.4l-.9-.6.2-4.1h5v1.3h-3.7l-.1 2c.4-.1.8-.2 1.3-.2 1.6 0 2.9.9 2.9 2.6 0 1.7-1.2 2.8-3.1 2.8-1.4 0-2.4-.5-3.2-1.2zm7.6-3.1c0-2.4 1.5-4.4 3.7-4.4s3.6 1.9 3.6 4.3-1.5 4.3-3.7 4.3c-2.2.1-3.6-1.8-3.6-4.2zm5.8 0c0-1.7-.9-3-2.1-3-1.3 0-2.1 1.3-2.1 3s.8 3 2.1 3 2.1-1.3 2.1-3zM19.6 180l2.9-2.5c1.2-1 1.6-1.5 1.6-2.3 0-.8-.6-1.3-1.4-1.3s-1.3.4-1.9 1.3l-1-.8c.8-1.1 1.6-1.8 3.1-1.8 1.6 0 2.8 1 2.8 2.5 0 1.3-.7 2-2.2 3.2l-1.7 1.4h4v1.3h-6.1v-1zm7.6-.5h1.6v1.6h-1.6v-1.6zm2.9-2.5c0-2.4 1.5-4.4 3.7-4.4s3.6 1.9 3.6 4.3-1.5 4.3-3.7 4.3c-2.2.1-3.6-1.8-3.6-4.2zm5.8 0c0-1.7-.9-3-2.1-3-1.3 0-2.1 1.3-2.1 3s.8 3 2.1 3 2.1-1.4 2.1-3zm2.9 0c0-2.4 1.5-4.4 3.7-4.4s3.6 1.9 3.6 4.3-1.5 4.3-3.7 4.3c-2.2.1-3.6-1.8-3.6-4.2zm5.8 0c0-1.7-.9-3-2.1-3-1.3 0-2.1 1.3-2.1 3s.8 3 2.1 3 2.1-1.4 2.1-3zm-31.2 4.2l-1.1-.9c.7-.8 1.1-1.6 1.1-2.7 0-.9-.4-1.5-1.1-1.5-.6 0-.9.3-1.3 1.9-.4 1.8-1 2.8-2.5 2.8-1.4 0-2.4-1.2-2.4-2.9 0-1.2.4-2.2 1.1-3l1.1.8c-.6.8-.9 1.5-.9 2.3 0 .9.4 1.4 1 1.4s.9-.4 1.3-2c.4-1.8 1.1-2.7 2.5-2.7 1.6 0 2.5 1.2 2.5 3 0 1.3-.4 2.5-1.3 3.5zm.2-12.9c.7.7 1.1 1.6 1.1 2.6 0 1.6-.9 2.7-2.4 2.7-1.1 0-1.9-.6-2.4-1.8-.6.5-1.1.7-1.8.7-1.1 0-2.1-.9-2.1-2.4 0-1.3.9-2.2 2-2.2s1.8.7 2.2 1.8l1.5-1.4c-.5-.3-1-.6-1.6-.9l.6-1.1c.7.3 1.3.7 1.9 1.1l1.3-1.3.8 1.1-1.1 1.1zm-5.4.9c-.6 0-1 .4-1 1s.4 1 1 1c.4 0 .7-.2 1.2-.6-.2-1-.6-1.4-1.2-1.4zm4.6-.1l-1.9 1.9c.3.8.9 1.1 1.4 1.1.7 0 1.2-.6 1.2-1.4 0-.6-.3-1.1-.7-1.6zm-6.6-4.5v-6.2h1.3v4.8h2.2V159H11v4.2h2.3v-4.8h1.3v6.3H6.2zm0-11.6v-3.7c0-1.1.3-1.9.8-2.4.5-.4 1.1-.7 1.8-.7 1.4 0 2.2.8 2.5 2l3.2-2.3v1.7l-2.9 2.1v1.8h2.9v1.5H6.2zm4.2-3.6c0-1.1-.6-1.7-1.4-1.7-.9 0-1.4.6-1.4 1.7v2.1h2.8v-2.1zm3.2-9.8c.7.7 1.1 1.6 1.1 2.6 0 1.6-.9 2.7-2.4 2.7-1.1 0-1.9-.6-2.4-1.8-.6.5-1.1.7-1.8.7-1.1 0-2.1-.9-2.1-2.4 0-1.3.9-2.2 2-2.2s1.8.7 2.2 1.8l1.5-1.4c-.5-.3-1-.6-1.6-.9l.6-1.1c.7.3 1.3.7 1.9 1.1l1.3-1.3.8 1.1-1.1 1.1zm-5.4.9c-.6 0-1 .4-1 1s.4 1 1 1c.4 0 .7-.2 1.2-.6-.2-.9-.6-1.4-1.2-1.4zm4.6 0l-1.9 1.9c.3.8.9 1.1 1.4 1.1.7 0 1.2-.6 1.2-1.4 0-.6-.3-1.2-.7-1.6zM6.2 136v-3.1c0-2.6 1.8-4.5 4.2-4.5 2.4 0 4.2 1.8 4.2 4.5v3.1H6.2zm7.1-3.2c0-1.8-1.2-2.9-2.8-2.9-1.6 0-2.9 1.2-2.9 2.9v1.7h5.7v-1.7zm-5-9.6v-1.5h1.1c-.7-.5-1.2-1.1-1.2-2.1 0-1.5 1.2-3 3.3-3 2.1 0 3.3 1.4 3.3 3 0 1-.5 1.7-1.1 2.1h2.9v1.5H8.3zm3.1-5.1c-1.2 0-2.1.8-2.1 1.8s.8 1.8 2 1.8 2-.9 2-1.8c.2-1-.6-1.8-1.9-1.8zm.1-2.6c-1.8 0-3.3-1.3-3.3-3.1 0-2 1.6-3 3.4-3h.4v4.7c1-.2 1.6-.9 1.6-1.8 0-.7-.3-1.2-.8-1.7l.8-.9c.7.6 1.2 1.4 1.2 2.6-.1 1.8-1.4 3.2-3.3 3.2zm-.5-4.7c-.9.1-1.7.6-1.7 1.6 0 .9.7 1.5 1.7 1.6v-3.2zm-2.7-2.9v-1.5h1.4c-.9-.4-1.6-1.1-1.5-2.2h1.5v.1c0 1.3.8 2.2 2.5 2.2h2.4v1.5H8.3zm6.3-11.1c-.1 1-.5 2-1.2 2.8l-1.1-.8c.6-.7.9-1.3 1-2.1H11c-.5 1.8-1.1 2.6-2.5 2.6-1.3 0-2.2-1-2.3-2.5h-.7v-1h.7c.1-.9.4-1.6.9-2.3l1.1.7c-.4.5-.6 1.1-.8 1.6h2.3c.5-1.8 1.2-2.6 2.5-2.6s2.2 1 2.3 2.6h1.2v1h-1.1zm-7.2 0c.1.8.5 1.2 1 1.2s.8-.2 1.1-1.2H7.4zm5-2.2c-.6 0-.9.3-1.2 1.2h2.2c-.1-.7-.5-1.2-1-1.2zm-4.8-4.2l.4 1.5-1.2.3-.7-2.2v-1h8.5v1.5h-7zm2.8-3.3C8 87.1 6 85.6 6 83.4s1.9-3.6 4.3-3.6 4.3 1.5 4.3 3.7c.1 2.1-1.8 3.6-4.2 3.6zm0-5.8c-1.7 0-3 .9-3 2.1 0 1.3 1.3 2.1 3 2.1s3-.8 3-2.1-1.3-2.1-3-2.1zm0-2.9C8 78.4 6 76.9 6 74.7s1.9-3.6 4.3-3.6 4.3 1.5 4.3 3.7c.1 2.2-1.8 3.6-4.2 3.6zm0-5.8c-1.7 0-3 .9-3 2.1 0 1.3 1.3 2.1 3 2.1s3-.8 3-2.1-1.3-2.1-3-2.1zm0-2.9C8 69.7 6 68.2 6 66s1.9-3.6 4.3-3.6 4.3 1.5 4.3 3.7c.1 2.2-1.8 3.6-4.2 3.6zm0-5.8c-1.7 0-3 .9-3 2.1 0 1.3 1.3 2.1 3 2.1s3-.8 3-2.1-1.3-2.1-3-2.1zm1.1-6.4c-1.8 0-3.3-1.4-3.3-3.4 0-1.9 1.5-3.4 3.3-3.4 1.8 0 3.3 1.4 3.3 3.4-.1 2-1.5 3.4-3.3 3.4zm0-5.3c-1.1 0-2.1.8-2.1 1.9 0 1.2.9 1.9 2 1.9s2-.8 2-1.9c.1-1.1-.8-1.9-1.9-1.9zm-2-3.2v.8H8.3V49h-.5c-.7 0-1.2-.2-1.6-.5-.3-.3-.5-.8-.5-1.4 0-.5.1-.9.2-1.2h1.2c0 .3-.1.5-.1.8 0 .6.3.8 1 .8h.3v-1.7h1.2v1.7h5.1V49H9.5zm.9-7.6C8 41.4 6 39.6 6 37.1c0-1.5.4-2.4 1.1-3.2l1.1.9c-.6.6-.9 1.3-.9 2.4 0 1.5 1.4 2.7 3 2.7 1.7 0 3-1.1 3-2.9 0-.8-.3-1.5-.6-2h-1.6v2.1H9.9v-3.6h3.5c.7.8 1.3 2 1.3 3.5 0 2.7-1.8 4.4-4.3 4.4zm-4.2-9.8v-3.1c0-2.6 1.8-4.5 4.2-4.5 2.4 0 4.2 1.8 4.2 4.5v3.1H6.2zm7.1-3.1c0-1.8-1.2-2.9-2.8-2.9-1.6 0-2.9 1.2-2.9 2.9v1.7h5.7v-1.7zm-7.1-6.3v-3.3c0-2 1.1-3.2 2.8-3.2 1.9 0 2.9 1.5 2.9 3.4v1.7h2.7v1.5H6.2zm4.4-3.2c0-1.1-.6-1.8-1.5-1.8-1 0-1.5.7-1.5 1.8v1.7h3V19zm24.6 183.2l-.8 1.4-1.1-.6 1.1-2.1.7-.7 6 6-1 1-4.9-5zM42 204l-.2-1.4c.8-.1 1.4-.3 1.9-.8.9-.9.6-2.2-.4-3.3.1.7-.1 1.4-.8 2-1.3 1.3-2.8 1.4-4 .2-1.2-1.2-1.2-3 .2-4.3.7-.7 1.4-1 2.3-1 .9 0 1.8.4 3 1.5 1.9 1.9 2.3 4.2.7 5.8-.9 1-1.8 1.2-2.7 1.3zm-.1-6.7c-.6-.6-1.6-.6-2.3.1-.7.7-.7 1.7-.1 2.3.6.6 1.5.6 2.3-.2.7-.7.7-1.6.1-2.2zm5.7 1.2l-.2-1.4c.8-.1 1.4-.3 1.9-.8.9-.9.6-2.2-.4-3.3.1.7-.1 1.4-.8 2-1.3 1.3-2.8 1.4-4 .2-1.2-1.2-1.2-3 .2-4.3.7-.7 1.4-1 2.3-1 .9 0 1.8.4 3 1.5 1.9 1.9 2.3 4.2.7 5.8-1 .9-1.8 1.2-2.7 1.3zm-.1-6.8c-.6-.6-1.6-.6-2.3.1-.7.7-.7 1.7-.1 2.3.6.6 1.5.6 2.3-.2.7-.7.6-1.6.1-2.2zm4.4.4c-.7-.7-.8-1.6-.4-2.5-.8.2-1.5.2-2.2-.5-.9-.9-.7-2.5.5-3.7s2.7-1.4 3.7-.5c.7.7.7 1.4.5 2.2.9-.3 1.8-.3 2.5.4 1.1 1.1.8 2.7-.5 4-1.4 1.4-3.1 1.6-4.1.6zm.6-6c-.5-.5-1.3-.4-1.9.2-.6.6-.7 1.4-.2 1.9.5.5 1.3.4 1.9-.2.7-.6.7-1.4.2-1.9zm2.8 2.4c-.6-.6-1.5-.4-2.2.3-.7.7-.9 1.6-.3 2.1.5.5 1.4.4 2.1-.4.9-.6.9-1.5.4-2zm1.4 20.8l.3-3.8c.1-1.5 0-2.2-.5-2.7-.6-.6-1.3-.5-1.9 0s-.6 1.2-.5 2.3l-1.3.2c-.2-1.4-.1-2.4.9-3.4 1.2-1.2 2.7-1.2 3.7-.2.9.9.9 1.9.8 3.8l-.2 2.2 2.8-2.8.9.9-4.3 4.3-.7-.8zm3.2-7.4c-1.7-1.7-2.1-4.1-.5-5.7 1.6-1.6 3.9-1.2 5.6.5 1.7 1.7 2 4.1.5 5.7-1.6 1.5-4 1.2-5.6-.5zm4-4.1c-1.2-1.2-2.7-1.5-3.7-.6s-.6 2.4.6 3.6c1.2 1.2 2.7 1.5 3.6.6 1.1-.9.7-2.4-.5-3.6zm2.1-2c-1.7-1.7-2.1-4.1-.5-5.7 1.6-1.6 3.9-1.2 5.6.5 1.7 1.7 2 4.1.5 5.7-1.5 1.5-3.9 1.1-5.6-.5zm4.1-4.1c-1.2-1.2-2.7-1.5-3.7-.6s-.6 2.4.6 3.6c1.2 1.2 2.7 1.5 3.6.6 1-1 .7-2.5-.5-3.6zm2-2.1c-1.7-1.7-2.1-4.1-.5-5.7 1.6-1.6 3.9-1.2 5.6.5 1.7 1.7 2 4.1.5 5.7s-3.9 1.2-5.6-.5zm4.1-4.1c-1.2-1.2-2.7-1.5-3.7-.6-.9.9-.6 2.4.6 3.6 1.2 1.2 2.7 1.5 3.6.6 1.1-.9.7-2.4-.5-3.6zm1.1 23.3l.3-3.8c.1-1.5 0-2.2-.5-2.7-.6-.6-1.3-.5-1.9 0-.5.5-.6 1.2-.5 2.3l-1.3.2c-.2-1.4-.1-2.4.9-3.4 1.2-1.2 2.7-1.2 3.7-.2.9.9.9 1.9.8 3.8l-.2 2.2 2.8-2.8.9.9-4.3 4.3-.7-.8zm3.2-7.4c-1.7-1.7-2.1-4.1-.5-5.7 1.6-1.6 3.9-1.2 5.6.5 1.7 1.7 2 4.1.5 5.7s-3.9 1.2-5.6-.5zm4.1-4.1c-1.2-1.2-2.7-1.5-3.7-.6s-.6 2.4.6 3.6c1.2 1.2 2.7 1.5 3.6.6 1-.9.7-2.4-.5-3.6zm2-2.1c-1.7-1.7-2.1-4.1-.5-5.7 1.6-1.6 3.9-1.2 5.6.5 1.7 1.7 2 4.1.5 5.7s-3.9 1.2-5.6-.5zm4.1-4.1c-1.2-1.2-2.7-1.5-3.7-.6-.9.9-.6 2.4.6 3.6 1.2 1.2 2.7 1.5 3.6.6 1.1-.9.7-2.4-.5-3.6zm4 .3l.3-3.8c.1-1.5 0-2.2-.5-2.7-.6-.6-1.3-.5-1.9 0-.5.5-.6 1.2-.5 2.3l-1.3.2c-.2-1.4-.1-2.4.9-3.4 1.2-1.2 2.7-1.2 3.7-.2.9.9.9 1.9.8 3.8l-.2 2.2 2.8-2.8.9.9-4.3 4.3-.7-.8zm4.4 17.7l.3-3.8c.1-1.5 0-2.2-.5-2.7-.6-.6-1.3-.5-1.9 0-.5.5-.6 1.2-.5 2.3l-1.3.2c-.2-1.4-.1-2.4.9-3.4 1.2-1.2 2.7-1.2 3.7-.2.9.9.9 1.9.8 3.8l-.2 2.2 2.8-2.8.9.9-4.3 4.3-.7-.8zm3.1-7.4c-1.7-1.7-2.1-4.1-.5-5.7 1.6-1.6 3.9-1.2 5.6.5 1.7 1.7 2 4.1.5 5.7-1.5 1.5-3.9 1.2-5.6-.5zm4.1-4.1c-1.2-1.2-2.7-1.5-3.7-.6s-.6 2.4.6 3.6c1.2 1.2 2.7 1.5 3.6.6 1.1-.9.7-2.4-.5-3.6zm2.1-2c-1.7-1.7-2.1-4.1-.5-5.7 1.6-1.6 3.9-1.2 5.6.5 1.7 1.7 2 4.1.5 5.7s-3.9 1.2-5.6-.5zm4.1-4.1c-1.2-1.2-2.7-1.5-3.7-.6-.9.9-.6 2.4.6 3.6 1.2 1.2 2.7 1.5 3.6.6s.7-2.5-.5-3.6zm6.7-3.5l-3 3-.9-.6-.6-7.2.9-.9 3.8 3.8.8-.8.9.9-.8.8 1.3 1.3-1 1-1.4-1.3zm-.9-.8l-2.3-2.3.4 4.3 1.9-2zm1.6 21.8l.3-3.8c.1-1.5 0-2.2-.5-2.7-.6-.6-1.3-.5-1.9 0-.5.5-.6 1.2-.5 2.3l-1.3.2c-.2-1.4-.1-2.4.9-3.4 1.2-1.2 2.7-1.2 3.7-.2.9.9 1 1.9.8 3.8l-.2 2.2 2.8-2.8.9.9-4.3 4.3-.7-.8zm3.1-7.4c-1.7-1.7-2.1-4.1-.5-5.7 1.6-1.6 3.9-1.2 5.6.5 1.7 1.7 2 4.1.5 5.7-1.5 1.5-3.9 1.2-5.6-.5zm4.1-4.1c-1.2-1.2-2.7-1.5-3.7-.6s-.6 2.4.6 3.6c1.2 1.2 2.7 1.5 3.6.6 1-.9.7-2.4-.5-3.6zm2-2c-1.7-1.7-2.1-4.1-.5-5.7 1.6-1.6 3.9-1.2 5.6.5 1.7 1.7 2 4.1.5 5.7-1.5 1.5-3.9 1.2-5.6-.5zm4.1-4.1c-1.2-1.2-2.7-1.5-3.7-.6s-.6 2.4.6 3.6c1.2 1.2 2.7 1.5 3.6.6 1.1-.9.7-2.5-.5-3.6zm5.2-.4c-.9 0-1.8-.4-3-1.6-1.8-1.8-2.4-4.1-.7-5.8.8-.8 1.5-1.1 2.5-1.2l.2 1.4c-.7.1-1.3.3-1.8.8-.9.9-.6 2.2.5 3.3 0-.6.1-1.3.8-2 1.2-1.2 2.8-1.4 3.9-.2 1.2 1.2 1.1 3-.2 4.2-.6.8-1.4 1.1-2.2 1.1zm1.5-4.1c-.6-.6-1.5-.6-2.3.2-.7.7-.7 1.7-.2 2.2.6.6 1.6.6 2.3-.2.8-.7.8-1.6.2-2.2zm.5 22l.3-3.8c.1-1.5 0-2.2-.5-2.7-.6-.6-1.3-.5-1.9 0-.5.5-.6 1.2-.5 2.3l-1.3.2c-.2-1.4-.1-2.4.9-3.4 1.2-1.2 2.7-1.2 3.7-.2.9.9.9 1.9.8 3.8l-.2 2.2 2.8-2.8.9.9-4.3 4.3-.7-.8zm3.2-7.4c-1.7-1.7-2.1-4.1-.5-5.7 1.6-1.6 3.9-1.2 5.6.5 1.7 1.7 2 4.1.5 5.7-1.6 1.5-3.9 1.2-5.6-.5zm4.1-4.1c-1.2-1.2-2.7-1.5-3.7-.6s-.6 2.4.6 3.6c1.2 1.2 2.7 1.5 3.6.6 1-.9.6-2.4-.5-3.6zm2-2c-1.7-1.7-2.1-4.1-.5-5.7 1.6-1.6 3.9-1.2 5.6.5 1.7 1.7 2 4.1.5 5.7s-3.9 1.1-5.6-.5zm4.1-4.1c-1.2-1.2-2.7-1.5-3.7-.6-.9.9-.6 2.4.6 3.6 1.2 1.2 2.7 1.5 3.6.6 1-1 .7-2.5-.5-3.6zm3.3-.7c-.7-.7-.8-1.6-.4-2.5-.8.2-1.5.2-2.2-.5-.9-.9-.7-2.5.5-3.7 1.2-1.2 2.7-1.4 3.7-.5.7.7.7 1.4.5 2.2.9-.3 1.8-.3 2.5.4 1.1 1.1.8 2.7-.5 4-1.4 1.4-3.1 1.6-4.1.6zm.6-6c-.5-.5-1.3-.4-1.9.2s-.7 1.4-.2 1.9c.5.5 1.3.4 1.9-.2.7-.6.8-1.4.2-1.9zm2.9 2.4c-.6-.6-1.5-.4-2.2.3-.7.7-.9 1.6-.3 2.1.5.5 1.4.4 2.1-.4s.8-1.5.4-2zm3.5 19.9l.3-3.8c.1-1.5 0-2.2-.5-2.7-.6-.6-1.3-.5-1.9 0s-.6 1.2-.5 2.3l-1.3.2c-.2-1.4-.1-2.4.9-3.4 1.2-1.2 2.7-1.2 3.7-.2.9.9.9 1.9.8 3.8l-.2 2.2 2.8-2.8.9.9-4.3 4.3-.7-.8zm3.2-7.4c-1.7-1.7-2.1-4.1-.5-5.7 1.6-1.6 3.9-1.2 5.6.5 1.7 1.7 2 4.1.5 5.7-1.5 1.5-3.9 1.2-5.6-.5zm4.1-4.1c-1.2-1.2-2.7-1.5-3.7-.6s-.6 2.4.6 3.6c1.2 1.2 2.7 1.5 3.6.6 1-.9.6-2.4-.5-3.6zm1-5l-.8 1.4-1.1-.6 1.1-2.1.7-.7 6 6-1 1-4.9-5zm4.3-.4c-1.7-1.7-2.1-4.1-.5-5.7 1.6-1.6 3.9-1.2 5.6.5 1.7 1.7 2 4.1.5 5.7-1.5 1.6-3.9 1.2-5.6-.5zm4.1-4.1c-1.2-1.2-2.7-1.5-3.7-.6-.9.9-.6 2.4.6 3.6 1.2 1.2 2.7 1.5 3.6.6 1.1-.9.7-2.4-.5-3.6zm5.1 20.5l.3-3.8c.1-1.5 0-2.2-.5-2.7-.6-.6-1.3-.5-1.9 0-.5.5-.6 1.2-.5 2.3l-1.3.2c-.2-1.4-.1-2.4.9-3.4 1.2-1.2 2.7-1.2 3.7-.2.9.9 1 1.9.8 3.8l-.2 2.2 2.8-2.8.9.9-4.3 4.3-.7-.8zm3.2-7.4c-1.7-1.7-2.1-4.1-.5-5.7 1.6-1.6 3.9-1.2 5.6.5 1.7 1.7 2 4.1.5 5.7-1.5 1.5-3.9 1.2-5.6-.5zm4.1-4.1c-1.2-1.2-2.7-1.5-3.7-.6-.9.9-.6 2.4.6 3.6 1.2 1.2 2.7 1.5 3.6.6 1-.9.7-2.4-.5-3.6zm1-5l-.8 1.4-1.1-.6 1.1-2.1.7-.7 6 6-1 1-4.9-5zm6.4 1.8l.3-3.8c.1-1.5 0-2.2-.5-2.7-.6-.6-1.3-.5-1.9 0-.5.5-.6 1.2-.5 2.3l-1.3.2c-.2-1.4-.1-2.4.9-3.4 1.2-1.2 2.7-1.2 3.7-.2.9.9.9 1.9.8 3.8l-.2 2.2 2.8-2.8.9.9-4.3 4.3-.7-.8z"/><path class="st4" d="M112 84.8h1.5v3.5h4v-3.5h1.5v8.4h-1.5v-3.5h-4v3.5H112v-8.4zm9.2 0h1.5v8.4h-1.5v-8.4zm-9.3 49.1V129h1.5v4.8c0 1.6.8 2.4 2.1 2.4s2.1-.8 2.1-2.3V129h1.5v4.8c0 2.5-1.4 3.8-3.6 3.8-2.2-.1-3.6-1.3-3.6-3.7zm8.7 2.3l.9-1.1c.8.7 1.6 1.1 2.7 1.1.9 0 1.5-.4 1.5-1.1 0-.6-.3-.9-1.9-1.3-1.8-.4-2.8-1-2.8-2.5 0-1.4 1.2-2.4 2.9-2.4 1.2 0 2.2.4 3 1.1l-.8 1.1c-.8-.6-1.5-.9-2.3-.9-.9 0-1.4.4-1.4 1s.4.9 2 1.3c1.8.4 2.7 1.1 2.7 2.5 0 1.6-1.2 2.5-3 2.5-1.3 0-2.5-.4-3.5-1.3z"/></svg>