<svg id="Layer_1" xmlns="http://www.w3.org/2000/svg" xmlns:xlink="http://www.w3.org/1999/xlink" viewBox="0 0 250 250"><style>.st0{opacity:0.4;clip-path:url(#SVGID_2_);fill:#80C4C9;} .st1{fill:#80C4C9;} .st2{fill:#676767;} .st3{font-family:&amp;apos;Montserrat-Regular&amp;apos;;} .st4{font-size:14px;} .st5{fill:none;} .st6{fill:#FFFFFF;} .st7{font-family:&amp;apos;Gotham-Bold&amp;apos;;} .st8{font-size:12.0903px;}</style><defs><path id="SVGID_1_" d="M60.9 32.8h173.7v182.8H60.9z"/></defs><clipPath id="SVGID_2_"><use xlink:href="#SVGID_1_" overflow="visible"/></clipPath><path class="st0" d="M60.9 116.6l12.1-4.7 12.9 4.7 12 10.4 12.9-8.5 12.1.9 12.8-40.7 12.1 20.8h12.1l12.8-2.8 12.1 2.8 12.8-21.7 12.1-1.9 12.1-16.1 12.8 23.6v132.2H60.9z"/><path class="st1" d="M60.9 165.8H73l12.9-1.9 12-11.3 12.9-12.3 12.1-8.6 12.8-2.8 12.1 1 12.1 2.8 12.8 2.8 12.1-5.6 12.8-16.1 12.1-4.8 12.1-4.7 12.8 7.6v103.7H60.9z"/><text transform="matrix(.903 0 0 1 30.35 219.44)" class="st2 st3 st4">2.00</text><text transform="matrix(.903 0 0 1 30.35 193.327)" class="st2 st3 st4">2.50</text><text transform="matrix(.903 0 0 1 30.35 167.218)" class="st2 st3 st4">3.00</text><text transform="matrix(.903 0 0 1 30.35 141.107)" class="st2 st3 st4">3.50</text><text transform="matrix(.903 0 0 1 30.35 114.996)" class="st2 st3 st4">4.00</text><text transform="matrix(.903 0 0 1 30.35 88.886)" class="st2 st3 st4">4.50</text><text transform="matrix(.903 0 0 1 30.35 62.775)" class="st2 st3 st4">5.00</text><text transform="matrix(.903 0 0 1 30.35 36.662)" class="st2 st3 st4">5.50</text><text transform="matrix(.6756 -.599 .6634 .7483 52.204 244.748)" class="st2 st3 st4">1998</text><text transform="matrix(.6518 -.6247 .692 .722 75.67 248.004)" class="st2 st3 st4">2000</text><text transform="matrix(.6057 -.6696 .7416 .6708 101.908 248.21)" class="st2 st3 st4">2002</text><text transform="matrix(.595 -.6792 .7523 .6588 127.022 249.113)" class="st2 st3 st4">2004</text><text transform="matrix(.5858 -.687 .761 .6488 151.856 248.695)" class="st2 st3 st4">2006</text><text transform="matrix(.5918 -.682 .7553 .6554 176.567 248.62)" class="st2 st3 st4">2008</text><g><text transform="matrix(.5572 -.7105 .787 .617 203.098 247.922)" class="st2 st3 st4">2010</text></g><g><text transform="matrix(.566 -.7034 .779 .627 227.98 247.305)" class="st2 st3 st4">2012</text></g><g><path class="st5" d="M139.3 159.5h37.2V189h-37.2z"/><text transform="translate(139.32 168.368)" class="st6 st7 st8">US</text></g><g><path class="st5" d="M139.3 106.1h37.2v29.5h-37.2z"/><text transform="translate(139.32 114.894)" class="st6 st7 st8">HI</text></g><g><path class="st5" d="M8.818 20.455l18.5-.107 1.165 200.8-18.5.107z"/><text transform="matrix(-.008 -1 1 -.008 20.325 221.18)" class="st2 st3 st4">S&amp;E R&amp;D per $1000 of GDP</text></g></svg>