<svg xmlns="http://www.w3.org/2000/svg" xmlns:xlink="http://www.w3.org/1999/xlink" width="217" height="217" viewBox="0 0 217 217"><defs><path id="a" d="M28.754 30.842h184.344v127.16H28.754z"/></defs><clipPath id="b"><use xlink:href="#a" overflow="visible"/></clipPath><path clip-path="url(#b)" fill="#73B0B1" stroke="#73B0B1" stroke-width="1.5" stroke-miterlimit="10" d="M199.378 66.638l13.72-31.28m-28.206 52.587l14.486-21.307M170.4 58.2l14.49 29.746m-28.21 42.61l13.722-72.355m-28.21 45l14.488 27.444m-28.124-6.903l13.72-20.54m-28.21 3.75l14.49 16.79M99.577 153.4l14.488-46.45m-28.21 15.256l13.72 31.193M71.37 115.39l14.49 6.816M57.73 100.9l13.722 14.49M43.244 71.154L57.732 100.9M28.754 111.55l14.49-40.397"/><g fill="#676868" font-family="'ArialMT'"><text transform="rotate(-46.433 228.003 82.7)" font-size="12.181">2000</text><text transform="rotate(-46.32 243.61 47.626)" font-size="12.18">2002</text><text transform="rotate(-47.747 250.582 16.58)" font-size="12.18">2004</text><text transform="rotate(-48.325 261.297 -12.68)" font-size="12.18">2006</text><text transform="rotate(-52.01 259.433 -35.232)" font-size="12.18">2008</text><text transform="rotate(-48.685 286.5 -78.027)" font-size="12.18">2010</text><text transform="rotate(-50.222 293.65 -102.224)" font-size="12.18">2012</text><text transform="translate(8.193 158.072)" font-size="12.18">30</text><text transform="translate(8.193 137.357)" font-size="12.18">40</text><text transform="translate(9.065 116.047)" font-size="12.18">50</text><text transform="translate(9.063 94.805)" font-size="12.18">60</text><text transform="translate(8.127 74.42)" font-size="12.18">70</text><text transform="translate(7.19 53.716)" font-size="12.18">80</text><text transform="translate(7.256 33.477)" font-size="12.18">90</text></g></svg>