<svg xmlns="http://www.w3.org/2000/svg" xmlns:xlink="http://www.w3.org/1999/xlink" viewBox="0 0 250 250"><style>.st0{clip-path:url(#SVGID_2_);fill:#73B1B2;stroke:#73B1B2;stroke-width:1.5;stroke-miterlimit:10;} .st1{fill:#676767;} .st2{font-family:&amp;apos;Montserrat-Regular&amp;apos;;} .st3{font-size:14.2914px;} .st4{display:none;fill:#676767;}</style><g id="Layer_1"><defs><path id="SVGID_1_" d="M29.7 28.2H246v149.2H29.7z"/></defs><clipPath id="SVGID_2_"><use xlink:href="#SVGID_1_" overflow="visible"/></clipPath><path class="st0" d="M229.9 70.2L246 33.5m-33.1 61.7l17-25m-34-9.9l17 34.9m-33.1 50l16.1-84.9m-33.1 52.8l17 32.2m-33-8.1l16.1-24.1m-33.1 4.4l17 19.7m-34 34.8l17-54.5m-33.1 17.9l16.1 36.6m-33.1-44.6l17 8m-33-25l16.1 17M46.7 75.5l17 34.9m-34 12.5l17-47.4"/></g><g id="Layer_2"><text transform="rotate(-46.433 256.192 97.75)" class="st1 st2 st3">2000</text><text transform="rotate(-47.802 257.517 76.906)" class="st4 st2 st3">2001</text><text transform="rotate(-46.32 274.48 56.603)" class="st1 st2 st3">2002</text><text transform="rotate(-46.32 282.76 37.245)" class="st4 st2 st3">2003</text><text transform="rotate(-47.747 282.973 20.02)" class="st1 st2 st3">2004</text><text transform="rotate(-49.29 282.748 4.872)" class="st4 st2 st3">2005</text><text transform="rotate(-48.325 295.665 -14.37)" class="st1 st2 st3">2006</text><text transform="rotate(-49.11 300.658 -32.654)" class="st4 st2 st3">2007</text><text transform="rotate(-52.01 294.195 -41.196)" class="st1 st2 st3">2008</text><text transform="rotate(-50.45 309.877 -63.127)" class="st4 st2 st3">2009</text><text transform="rotate(-48.68 325.36 -91.103)" class="st1 st2 st3">2010</text><text transform="rotate(-52.663 313.137 -94.46)" class="st4 st2 st3">2011</text><text transform="rotate(-50.222 334.008 -119.627)" class="st1 st2 st3">2012</text><text transform="rotate(-51.684 336.87 -129.738)" class="st4 st2 st3">2013</text><text transform="translate(5.574 177.482)" class="st1 st2 st3">30</text><text transform="translate(5.574 153.176)" class="st1 st2 st3">40</text><text transform="translate(6.598 128.174)" class="st1 st2 st3">50</text><text transform="translate(6.598 103.247)" class="st1 st2 st3">60</text><text transform="translate(5.498 79.33)" class="st1 st2 st3">70</text><text transform="translate(4.4 55.037)" class="st1 st2 st3">80</text><text transform="translate(4.475 31.29)" class="st1 st2 st3">90</text></g></svg>