<svg xmlns="http://www.w3.org/2000/svg" xmlns:xlink="http://www.w3.org/1999/xlink" width="217" height="217" viewBox="0 0 217 217"><defs><path id="a" d="M49.246 20.907H197.97v156.516H49.246z"/></defs><clipPath id="b"><use xlink:href="#a" overflow="visible"/></clipPath><path opacity=".4" clip-path="url(#b)" fill="#81C5C9" d="M49.246 92.658l10.36-4.025 11.045 4.025 10.275 8.905 11.046-7.278 10.36.77 10.96-34.848 10.36 17.81h10.362l10.96-2.398 10.358 2.396 10.96-18.58 10.36-1.627 10.36-13.786 10.96 20.207v113.193H49.246"/><path fill="#81C5C9" d="M49.246 134.783h10.36l11.045-1.627 10.275-9.675 11.046-10.53 10.36-7.364 10.96-2.397 10.36.855 10.362 2.397 10.96 2.398 10.358-4.795 10.96-13.785 10.36-4.11 10.36-4.024 10.96 6.507v88.79H49.246"/><text transform="matrix(.903 0 0 1 23.087 180.71)" fill="#676868" font-family="'ArialMT'" font-size="11.987">2.00</text><text transform="matrix(.903 0 0 1 23.087 158.352)" fill="#676868" font-family="'ArialMT'" font-size="11.987">2.50</text><text transform="matrix(.903 0 0 1 23.087 135.997)" fill="#676868" font-family="'ArialMT'" font-size="11.987">3.00</text><text transform="matrix(.903 0 0 1 23.087 113.64)" fill="#676868" font-family="'ArialMT'" font-size="11.987">3.50</text><text transform="matrix(.903 0 0 1 23.087 91.283)" fill="#676868" font-family="'ArialMT'" font-size="11.987">4.00</text><text transform="matrix(.903 0 0 1 23.087 68.928)" fill="#676868" font-family="'ArialMT'" font-size="11.987">4.50</text><text transform="matrix(.903 0 0 1 23.087 46.57)" fill="#676868" font-family="'ArialMT'" font-size="11.987">5.00</text><text transform="matrix(.903 0 0 1 23.087 24.213)" fill="#676868" font-family="'ArialMT'" font-size="11.987">5.50</text><text transform="matrix(.6756 -.599 .6634 .7483 41.8 202.38)" fill="#676868" font-family="'ArialMT'" font-size="11.987">1998</text><text transform="matrix(.6518 -.6247 .692 .722 61.89 205.167)" fill="#676868" font-family="'ArialMT'" font-size="11.987">2000</text><text transform="matrix(.6057 -.6696 .7416 .6708 84.358 205.345)" fill="#676868" font-family="'ArialMT'" font-size="11.987">2002</text><text transform="matrix(.595 -.6792 .7523 .6588 105.86 206.117)" fill="#676868" font-family="'ArialMT'" font-size="11.987">2004</text><text transform="matrix(.5858 -.687 .761 .6488 127.124 205.76)" fill="#676868" font-family="'ArialMT'" font-size="11.987">2006</text><text transform="matrix(.5918 -.682 .7553 .6554 148.283 205.697)" fill="#676868" font-family="'ArialMT'" font-size="11.987">2008</text><g><text transform="matrix(.5572 -.7105 .787 .617 170.997 205.097)" fill="#676868" font-family="'ArialMT'" font-size="11.987">2010</text></g><g><text transform="matrix(.566 -.7034 .779 .627 192.302 204.57)" fill="#676868" font-family="'ArialMT'" font-size="11.987">2012</text></g><g><path fill="none" d="M116.373 129.39h31.85v25.258h-31.85z"/><text transform="translate(116.39 136.982)" fill="#FFF" font-family="'GothamBook'" font-size="10.352">US</text></g><g><path fill="none" d="M116.373 83.667h31.85v25.26h-31.85z"/><text transform="translate(116.39 91.196)" fill="#FFF" font-family="'GothamBook'" font-size="10.352">HI</text></g><g><path fill="none" d="M21.49 182.172l-15.84.092-.996-171.93 15.84-.093z"/><text transform="matrix(-.008 -1 1 -.008 14.505 182.2)" fill="#676868" font-family="'ArialMT'" font-size="11.987">S&amp;E R&amp;D per $1000 of GDP</text></g></svg>