<svg xmlns="http://www.w3.org/2000/svg" xmlns:xlink="http://www.w3.org/1999/xlink" width="217" height="217" viewBox="0 0 217 217"><defs><path id="a" d="M42.958 29.305h171.937v118.603H42.958z"/></defs><clipPath id="b"><use xlink:href="#a" overflow="visible"/></clipPath><path clip-path="url(#b)" fill="#73B0B1" stroke="#73B0B1" stroke-width="1.5" stroke-miterlimit="10" d="M202.1 62.69l12.797-29.173M188.59 82.564L202.1 62.69m-27.03-7.867l13.517 27.742m-26.312 39.744l12.798-67.486m-26.31 41.97l13.513 25.597m-26.232-6.438l12.796-19.158m-26.313 3.498l13.515 15.66m-27.026 27.66l13.514-43.32M96.218 114.52l12.796 29.095m-26.31-35.454l13.515 6.36M69.984 94.646l12.798 13.514m-26.31-41.256l13.513 27.742m-27.028 9.937l13.514-37.678"/><g fill="#676868"><path d="M28.833 172.926c-.06-.338-.194-.604-.398-.797-.205-.196-.454-.284-.746-.266-.294.02-.554.15-.78.388-.4.42-.517.973-.352 1.658l-1.063.313c-.123-.545-.14-1.033-.055-1.467.087-.433.333-.86.74-1.29.405-.425.896-.67 1.473-.735.577-.063 1.1.126 1.567.572.264.25.45.558.56.92.108.364.177.91.204 1.632l.08 2.36 2.207-2.317.827.785-3.326 3.498-.73-.696-.083-3.033c-.022-.68-.063-1.188-.124-1.524zM33.708 172.713c-.81-.11-1.617-.55-2.422-1.313s-1.282-1.55-1.434-2.353c-.15-.804.105-1.553.77-2.25.663-.698 1.4-.992 2.21-.88.81.11 1.616.548 2.42 1.312s1.284 1.55 1.435 2.352c.15.804-.105 1.555-.768 2.252-.665.697-1.4.99-2.212.88zm-2.723-3.766c.16.535.524 1.076 1.095 1.618.57.543 1.128.88 1.67 1.01.544.134 1.022-.015 1.43-.444s.53-.907.37-1.437c-.16-.53-.527-1.067-1.104-1.615-.576-.547-1.133-.89-1.668-1.02-.537-.136-1.01.012-1.418.44-.408.43-.533.912-.375 1.45zM38.495 167.68c-.81-.11-1.617-.548-2.422-1.312-.805-.766-1.282-1.55-1.434-2.354-.15-.804.104-1.553.77-2.25.662-.698 1.397-.992 2.208-.88.81.11 1.617.548 2.422 1.312s1.283 1.55 1.434 2.353c.15.804-.105 1.554-.77 2.25s-1.4.99-2.21.88zm-2.723-3.766c.16.535.523 1.076 1.094 1.62.57.542 1.13.878 1.672 1.01s1.02-.017 1.428-.446c.408-.43.532-.908.37-1.438-.16-.53-.527-1.066-1.103-1.615-.575-.547-1.132-.888-1.667-1.02-.537-.136-1.01.013-1.418.44-.41.43-.534.912-.376 1.45zM43.282 162.647c-.81-.11-1.616-.55-2.42-1.314s-1.283-1.55-1.436-2.353c-.15-.804.105-1.553.77-2.25.663-.698 1.4-.992 2.21-.88.81.11 1.616.548 2.42 1.312s1.284 1.55 1.435 2.353c.15.804-.104 1.555-.767 2.252-.664.698-1.4.99-2.21.88zm-2.722-3.766c.16.536.524 1.077 1.095 1.62.57.543 1.128.88 1.67 1.01.545.133 1.022-.016 1.43-.445s.532-.908.37-1.438c-.16-.53-.527-1.066-1.104-1.615-.575-.547-1.13-.888-1.667-1.02-.537-.136-1.01.012-1.418.44-.41.43-.534.912-.375 1.45zM53.785 172.926c-.06-.338-.193-.604-.396-.8-.206-.194-.454-.282-.747-.265-.293.02-.552.15-.78.388-.4.42-.517.97-.354 1.657l-1.064.312c-.122-.546-.14-1.034-.052-1.467.088-.434.335-.862.742-1.288.406-.426.898-.67 1.475-.735.578-.063 1.1.13 1.567.576.264.25.45.56.558.922.107.363.175.908.2 1.63l.077 2.362 2.21-2.314.825.788-3.333 3.49-.73-.696-.076-3.033c-.023-.68-.063-1.19-.123-1.524zM58.66 172.723c-.81-.11-1.615-.552-2.418-1.318-.803-.768-1.28-1.552-1.43-2.355-.148-.804.11-1.553.773-2.25.665-.695 1.402-.988 2.21-.875.812.112 1.618.552 2.42 1.318.804.768 1.28 1.553 1.43 2.355.15.804-.108 1.554-.772 2.25-.666.696-1.402.988-2.213.875zm-2.714-3.772c.157.538.52 1.078 1.09 1.622.57.544 1.127.882 1.67 1.014.544.133 1.02-.014 1.43-.443.41-.428.533-.907.373-1.437-.16-.528-.527-1.067-1.103-1.616-.573-.55-1.13-.89-1.665-1.025-.537-.137-1.01.01-1.418.44-.41.427-.535.91-.378 1.446zM63.457 167.7c-.81-.112-1.615-.552-2.418-1.32-.804-.766-1.28-1.55-1.43-2.354-.15-.804.108-1.553.772-2.25.665-.695 1.402-.987 2.21-.875.812.113 1.618.553 2.42 1.32.804.767 1.28 1.552 1.43 2.354.15.805-.108 1.554-.772 2.25-.666.697-1.402.99-2.213.875zm-2.715-3.772c.158.537.522 1.077 1.092 1.62.57.545 1.125.883 1.67 1.016.542.132 1.02-.015 1.428-.443.41-.428.533-.906.374-1.437-.16-.528-.526-1.067-1.102-1.616-.573-.55-1.13-.89-1.665-1.025-.538-.136-1.01.012-1.42.44-.41.426-.534.91-.378 1.446zM67.486 158.578c-.06-.338-.193-.604-.397-.798-.205-.196-.453-.284-.746-.266s-.553.147-.78.386c-.4.42-.518.97-.354 1.658l-1.064.31c-.12-.545-.14-1.033-.05-1.466.087-.434.333-.862.74-1.288s.898-.67 1.476-.734 1.1.128 1.566.575c.263.25.448.56.557.922.107.363.176.908.2 1.63l.077 2.362 2.21-2.315.825.79-3.332 3.49-.73-.698-.076-3.034c-.024-.68-.065-1.19-.124-1.525zM80.594 172.938c-.068-.335-.207-.598-.416-.787-.21-.19-.46-.27-.752-.245-.292.025-.55.16-.77.404-.39.43-.494.983-.314 1.665l-1.055.337c-.137-.542-.166-1.03-.09-1.466.078-.434.314-.87.71-1.305s.882-.692 1.456-.77c.576-.076 1.104.102 1.582.536.268.244.46.547.58.91.115.36.197.9.24 1.624l.135 2.36 2.152-2.37.845.767-3.245 3.572-.747-.68-.152-3.03c-.038-.68-.09-1.188-.16-1.522zM85.463 172.614c-.81-.09-1.63-.512-2.45-1.26-.822-.745-1.317-1.52-1.487-2.317-.17-.8.07-1.555.717-2.268.646-.714 1.377-1.024 2.19-.933.81.093 1.628.512 2.45 1.258.82.747 1.317 1.52 1.486 2.32.17.8-.07 1.556-.718 2.268-.646.713-1.377 1.024-2.19.93zm-2.808-3.703c.17.533.548 1.064 1.13 1.594.584.53 1.148.854 1.695.974.547.118 1.02-.04 1.418-.48.398-.437.51-.92.337-1.444-.172-.525-.553-1.055-1.142-1.59-.587-.533-1.15-.86-1.69-.982-.54-.123-1.01.036-1.406.475-.398.436-.513.922-.342 1.454zM90.134 167.473c-.812-.09-1.63-.512-2.45-1.258s-1.318-1.52-1.488-2.32c-.17-.8.07-1.554.717-2.267.647-.712 1.377-1.022 2.19-.93s1.628.51 2.45 1.257c.82.746 1.318 1.52 1.486 2.32.17.8-.07 1.555-.717 2.268s-1.377 1.022-2.19.93zm-2.808-3.703c.17.533.548 1.064 1.13 1.594s1.148.854 1.694.973c.547.12 1.02-.04 1.418-.48s.51-.92.338-1.445c-.173-.524-.553-1.054-1.142-1.59-.587-.532-1.15-.86-1.69-.983-.54-.122-1.01.036-1.406.475-.398.437-.513.922-.342 1.455zM94.77 159.478l-.956-.868.76-.838.957.87.57-.63.8.728-.57.628 1.316 1.195-.76.836-1.316-1.195-2.036 2.242-.776-.706-1.387-4.765.876-.964 1.392 4.716 1.133-1.248zM105.92 172.95c-.073-.337-.215-.597-.426-.784-.212-.19-.463-.268-.755-.24-.292.03-.548.168-.767.414-.385.433-.483.988-.297 1.668l-1.05.348c-.144-.54-.177-1.027-.105-1.464.074-.435.307-.872.697-1.313.392-.44.875-.703 1.45-.787.573-.082 1.103.09 1.585.52.27.242.467.543.59.903.12.36.206.9.257 1.622l.158 2.358 2.128-2.39.852.758-3.21 3.604-.753-.67-.183-3.03c-.044-.678-.102-1.185-.173-1.52zM110.784 172.576c-.813-.083-1.635-.495-2.463-1.233-.83-.738-1.333-1.506-1.51-2.304s.054-1.557.694-2.276c.64-.72 1.366-1.036 2.18-.952.812.084 1.634.495 2.463 1.233s1.333 1.507 1.51 2.305c.178.797-.053 1.557-.693 2.275s-1.367 1.035-2.18.95zm-2.845-3.674c.175.53.558 1.058 1.145 1.58.59.525 1.156.844 1.704.957.546.112 1.02-.052 1.41-.494.396-.442.503-.926.324-1.45-.178-.52-.563-1.048-1.157-1.576-.593-.528-1.16-.85-1.7-.967-.54-.117-1.008.047-1.4.488-.395.445-.504.93-.328 1.462zM115.402 167.39c-.813-.085-1.634-.496-2.464-1.234-.828-.738-1.332-1.507-1.51-2.304-.178-.8.054-1.557.693-2.275.642-.72 1.368-1.037 2.18-.953.814.085 1.636.496 2.465 1.234s1.333 1.507 1.51 2.304c.178.798-.054 1.557-.693 2.275-.64.72-1.366 1.036-2.18.952zm-2.844-3.676c.176.53.56 1.058 1.146 1.58.59.525 1.156.845 1.704.958s1.02-.05 1.413-.494c.395-.44.502-.926.323-1.45-.178-.52-.563-1.048-1.156-1.576s-1.16-.85-1.7-.966c-.542-.117-1.01.046-1.403.488s-.502.93-.326 1.46zM117.638 157.05c-.416.47-.564.954-.445 1.457.12.503.447.997.98 1.48-.028-.25 0-.55.088-.895.088-.346.26-.662.515-.948.42-.472.93-.73 1.527-.77.6-.038 1.158.174 1.68.637s.785 1.01.795 1.635c.01.627-.217 1.2-.684 1.725-.752.845-1.647 1.092-2.688.742-.594-.204-1.162-.547-1.705-1.03-.543-.483-.943-.944-1.203-1.382-.26-.438-.404-.852-.437-1.24-.063-.76.16-1.424.667-1.994.508-.57 1.146-.93 1.915-1.074l.26 1.028c-.203.027-.43.1-.685.223-.25.12-.445.257-.58.408zm1.816 1.91c-.27.303-.412.63-.426.985-.013.354.115.65.385.89s.588.347.955.323c.368-.023.685-.185.948-.48.265-.297.397-.62.397-.97.002-.353-.133-.647-.4-.886-.27-.24-.58-.354-.928-.34-.35.014-.66.172-.93.477z"/><g><path d="M133.984 173.004c-.094-.33-.252-.58-.475-.754s-.48-.238-.77-.19-.534.202-.736.462c-.356.457-.42 1.018-.19 1.684l-1.026.415c-.176-.53-.24-1.014-.197-1.453s.25-.89.61-1.355c.364-.463.83-.756 1.396-.877.568-.12 1.107.02 1.617.417.285.224.5.51.646.863.143.35.264.886.36 1.603l.31 2.343 1.97-2.52.9.7-2.97 3.805-.797-.622-.377-3.01c-.088-.677-.18-1.18-.272-1.51zM138.816 172.32c-.816-.03-1.663-.39-2.538-1.073-.875-.683-1.427-1.417-1.655-2.202s-.047-1.556.547-2.314c.592-.757 1.296-1.122 2.113-1.09.816.032 1.662.39 2.537 1.072.875.684 1.428 1.42 1.656 2.202.228.785.046 1.557-.547 2.315-.592.758-1.297 1.122-2.114 1.09zm-3.076-3.484c.21.518.627 1.02 1.246 1.504.62.486 1.21.767 1.762.846.555.077 1.014-.117 1.38-.584.363-.467.44-.955.228-1.467-.21-.51-.63-1.01-1.256-1.5-.626-.488-1.212-.773-1.76-.855-.547-.08-1.002.11-1.367.578-.365.466-.442.96-.233 1.478zM143.092 166.846c-.816-.03-1.664-.39-2.54-1.072s-1.425-1.418-1.653-2.202c-.23-.785-.048-1.556.545-2.315.593-.758 1.296-1.12 2.114-1.09.815.03 1.66.39 2.536 1.072s1.428 1.417 1.655 2.2.048 1.558-.545 2.316c-.592.76-1.297 1.12-2.113 1.09zm-3.076-3.485c.21.52.626 1.022 1.246 1.506.62.485 1.208.767 1.762.845s1.014-.115 1.378-.582.44-.956.23-1.468c-.212-.51-.63-1.01-1.257-1.5s-1.213-.772-1.76-.854c-.547-.08-1.002.11-1.367.578-.364.467-.44.96-.232 1.477zM142.96 157.674c-.004-.575.204-1.13.622-1.666s.906-.872 1.467-1.008c.557-.135 1.05-.037 1.477.297s.65.828.668 1.482c.758-.272 1.444-.167 2.06.313.477.373.73.877.754 1.512s-.205 1.262-.69 1.883c-.484.62-1.037.995-1.66 1.125-.62.13-1.17.006-1.648-.366-.615-.48-.883-1.12-.805-1.922-.64.142-1.172.045-1.6-.29-.428-.332-.644-.787-.646-1.36zm2.232.724c.317-.072.58-.244.792-.514.212-.27.314-.568.31-.895-.01-.326-.13-.58-.366-.766-.234-.184-.51-.24-.824-.164-.315.075-.578.247-.79.52-.21.27-.315.565-.31.89.003.322.123.576.358.76.237.186.513.242.83.168zm2.47 2.053c.35-.12.63-.32.845-.597.216-.275.34-.596.374-.963.036-.365-.093-.662-.385-.89-.292-.23-.608-.288-.95-.18-.34.11-.627.313-.86.61-.23.297-.358.623-.382.98s.11.652.402.88c.293.23.61.282.958.16z"/></g><g><path d="M160.846 170.864c-.074-.335-.218-.595-.43-.78-.213-.188-.464-.266-.756-.234-.29.03-.546.17-.764.418-.382.435-.477.99-.285 1.67l-1.05.354c-.145-.54-.182-1.026-.112-1.463.07-.437.3-.876.688-1.317.39-.443.87-.708 1.443-.795.573-.087 1.103.083 1.59.51.27.24.47.54.593.898s.213.9.268 1.62l.176 2.358 2.112-2.404.857.753-3.187 3.625-.76-.667-.2-3.026c-.048-.68-.11-1.187-.182-1.52zM165.71 170.46c-.814-.077-1.64-.483-2.473-1.217s-1.343-1.498-1.524-2.295c-.183-.796.044-1.556.68-2.28.635-.722 1.36-1.044 2.173-.965.813.078 1.638.484 2.472 1.217.834.733 1.343 1.5 1.524 2.295.183.797-.044 1.557-.68 2.28-.635.724-1.36 1.044-2.173.966zm-2.87-3.655c.18.53.566 1.055 1.157 1.574.593.52 1.16.833 1.71.944.55.11 1.02-.058 1.41-.502.39-.445.496-.93.313-1.45-.18-.523-.57-1.047-1.167-1.57-.596-.525-1.166-.845-1.707-.958s-1.008.054-1.398.498c-.39.445-.497.932-.317 1.463zM165.007 161.953l1.693-1.926 5.3 4.66-.746.85-4.504-3.96-.947 1.077-.796-.7zM172.834 162.354c-.813-.077-1.637-.485-2.47-1.218s-1.345-1.498-1.526-2.295c-.183-.796.044-1.555.68-2.278.635-.723 1.36-1.045 2.174-.967.813.08 1.637.486 2.47 1.22s1.344 1.498 1.526 2.294c.182.795-.045 1.556-.68 2.278-.636.723-1.36 1.046-2.174.966zm-2.868-3.657c.18.53.565 1.056 1.157 1.575.592.52 1.16.835 1.71.944.548.11 1.02-.057 1.41-.5s.495-.93.312-1.453c-.18-.52-.57-1.045-1.167-1.57-.596-.523-1.165-.842-1.707-.955-.54-.113-1.007.053-1.397.498s-.496.932-.317 1.46z"/></g><g><path d="M187.147 171.05c-.084-.332-.233-.588-.45-.77-.217-.18-.472-.25-.762-.213s-.54.185-.752.438c-.37.444-.45 1.004-.24 1.677l-1.04.382c-.16-.535-.21-1.02-.152-1.46s.276-.882.653-1.335c.377-.453.85-.73 1.422-.833.57-.102 1.105.053 1.602.467.28.232.485.526.62.883.13.355.235.893.31 1.613l.238 2.352 2.047-2.46.876.73-3.087 3.708-.774-.646-.284-3.02c-.067-.677-.142-1.182-.225-1.514zM191.998 170.517c-.814-.056-1.65-.44-2.503-1.15-.854-.71-1.382-1.462-1.586-2.253-.205-.792.002-1.558.617-2.297.616-.74 1.33-1.082 2.146-1.024.815.057 1.65.44 2.504 1.15.853.71 1.382 1.463 1.585 2.253.204.792-.002 1.558-.618 2.297-.615.74-1.33 1.08-2.146 1.024zm-2.965-3.58c.194.526.593 1.04 1.198 1.544s1.185.806 1.735.9c.55.096 1.017-.084 1.396-.54.38-.455.472-.94.275-1.46-.194-.516-.598-1.028-1.208-1.536-.61-.51-1.188-.813-1.732-.91-.543-.1-1.006.08-1.385.535s-.47.944-.277 1.468zM191.07 162.032l1.64-1.97 5.423 4.514-.724.87-4.61-3.838-.916 1.102-.815-.678zM197.857 158.186c-.084-.332-.234-.588-.45-.77s-.472-.25-.762-.213c-.29.04-.54.186-.752.438-.37.445-.45 1.005-.24 1.678l-1.04.383c-.16-.534-.21-1.02-.152-1.458s.276-.884.653-1.336c.377-.453.85-.73 1.422-.832.57-.104 1.105.053 1.602.466.28.232.485.526.62.883.13.355.235.894.31 1.612l.237 2.352 2.048-2.46.876.73-3.088 3.708-.775-.646-.283-3.022c-.067-.676-.142-1.18-.225-1.512z"/></g><g><path d="M24.558 141.975v-1.06h4.13v.93l-1.707 1.907c.647.02 1.152.224 1.515.61.364.387.545.85.545 1.39 0 .72-.244 1.284-.732 1.694-.488.41-1.116.616-1.883.616-.767 0-1.518-.245-2.25-.737l.504-.96c.578.405 1.184.606 1.816.606.41 0 .75-.095 1.015-.286.267-.192.4-.468.4-.828s-.148-.647-.444-.863c-.296-.215-.707-.323-1.23-.323-.264 0-.516.037-.758.11v-.907l1.635-1.898h-2.555zM30.928 147.058c-.478-.662-.717-1.55-.717-2.66s.24-1.997.718-2.66 1.198-.994 2.16-.994c.963 0 1.684.33 2.162.994.478.663.717 1.55.717 2.66s-.24 1.998-.717 2.66c-.478.663-1.198.995-2.16.995-.964 0-1.684-.332-2.162-.995zm.853-4.57c-.278.485-.418 1.122-.418 1.91 0 .787.14 1.423.42 1.907s.714.728 1.307.728 1.024-.24 1.296-.723c.272-.48.41-1.118.41-1.913 0-.794-.137-1.432-.41-1.913s-.705-.722-1.297-.722-1.03.243-1.31.727z"/></g><g><path d="M27.183 125.794v-1.292h1.13v1.292h.85v1.08h-.85v1.777h-1.13v-1.776h-3.03v-1.05l2.596-4.23h1.3l-2.553 4.2h1.686zM30.868 127.737c-.478-.662-.717-1.55-.717-2.66s.24-1.997.718-2.66 1.198-.994 2.16-.994c.963 0 1.684.33 2.162.994.478.663.717 1.55.717 2.66s-.24 1.998-.717 2.66c-.478.663-1.198.995-2.16.995-.965 0-1.684-.332-2.162-.995zm.853-4.568c-.278.483-.418 1.12-.418 1.907 0 .788.14 1.424.42 1.908s.714.728 1.307.728 1.024-.24 1.296-.723c.272-.48.41-1.118.41-1.913 0-.794-.137-1.432-.41-1.913s-.705-.722-1.297-.722-1.03.243-1.31.727z"/></g><g><path d="M29.5 101.708v1.08h-2.98v1.736c.297-.16.634-.242 1.01-.242.66 0 1.23.2 1.707.596.478.397.717.936.717 1.615 0 .68-.25 1.244-.747 1.69-.498.45-1.11.673-1.837.673-.95 0-1.706-.316-2.27-.95l.635-.867c.054.053.126.116.217.19s.278.174.56.298c.284.125.593.187.93.187.336 0 .643-.1.92-.303.275-.2.413-.496.413-.883 0-.39-.146-.688-.44-.9-.292-.212-.662-.317-1.11-.317s-.873.11-1.277.333l-.505-.545v-3.392H29.5zM31.752 107.86c-.478-.66-.717-1.55-.717-2.66s.24-1.996.717-2.66 1.198-.993 2.16-.993c.963 0 1.684.33 2.162.994.478.664.717 1.55.717 2.66s-.238 2-.716 2.66c-.478.664-1.198.996-2.16.996-.964 0-1.684-.332-2.162-.995zm.853-4.567c-.28.484-.42 1.12-.42 1.908 0 .79.14 1.425.42 1.91s.715.727 1.308.727 1.025-.24 1.297-.723c.272-.48.41-1.118.41-1.913 0-.793-.137-1.43-.41-1.912s-.705-.722-1.297-.722-1.03.243-1.308.727z"/></g><g><path d="M28.167 82.845c-.626 0-1.087.212-1.383.636-.296.425-.448.997-.455 1.718.167-.188.41-.365.726-.53s.667-.247 1.05-.247c.632 0 1.163.21 1.59.632s.64.98.64 1.676-.23 1.257-.69 1.68c-.46.426-1.042.638-1.742.638-1.13 0-1.912-.505-2.342-1.515-.242-.578-.363-1.23-.363-1.958 0-.727.076-1.332.23-1.817.156-.484.368-.868.637-1.15.525-.552 1.17-.828 1.933-.828.764 0 1.456.24 2.075.717l-.596.878c-.156-.134-.363-.255-.622-.363-.26-.112-.49-.165-.69-.165zm-.217 2.625c-.407 0-.747.112-1.02.338-.273.226-.41.52-.41.88 0 .358.132.67.395.928.262.26.592.39.99.39s.726-.117.988-.35c.263-.232.394-.528.394-.89 0-.358-.12-.665-.364-.917-.24-.254-.566-.38-.973-.38zM32.165 88.05c-.478-.663-.717-1.55-.717-2.66s.24-1.998.717-2.66 1.198-.995 2.16-.995c.963 0 1.684.33 2.162.994.478.662.717 1.55.717 2.66s-.24 1.997-.717 2.66c-.478.662-1.198.994-2.16.994-.964 0-1.684-.332-2.162-.995zm.853-4.57c-.28.484-.42 1.12-.42 1.908 0 .788.14 1.424.42 1.908s.715.728 1.308.728 1.025-.24 1.297-.723c.272-.48.41-1.117.41-1.912 0-.794-.137-1.432-.41-1.913s-.705-.722-1.297-.722-1.03.243-1.308.727z"/></g><g><path d="M24.183 64.92v-2.028h4.967v1.06l-2.988 5.998H24.85l2.917-5.977h-2.503v.948h-1.08zM30.746 69.035c-.478-.662-.717-1.55-.717-2.66s.238-1.997.716-2.66 1.198-.994 2.16-.994c.963 0 1.684.332 2.162.995s.717 1.55.717 2.66-.24 1.998-.717 2.66c-.478.663-1.198.995-2.16.995-.965 0-1.684-.332-2.162-.995zm.853-4.568c-.28.484-.42 1.12-.42 1.908 0 .788.14 1.424.42 1.908s.714.728 1.307.728 1.025-.24 1.297-.722c.272-.48.41-1.118.41-1.913 0-.794-.137-1.432-.41-1.913s-.705-.722-1.297-.722-1.03.242-1.308.727z"/></g><g><path d="M24.36 43.976c.45-.357 1.015-.535 1.695-.535s1.245.18 1.696.536c.452.356.677.806.677 1.348s-.252 1.02-.757 1.438c.68.43 1.02 1.036 1.02 1.817 0 .604-.242 1.113-.727 1.523-.484.41-1.12.616-1.908.616s-1.423-.206-1.908-.617c-.484-.41-.727-.92-.727-1.524 0-.782.34-1.388 1.02-1.818-.505-.417-.757-.896-.757-1.438s.225-.992.676-1.348zm.706 5.416c.31.2.64.298.99.298s.68-.1.99-.298c.31-.198.463-.482.463-.853s-.15-.657-.445-.86c-.296-.2-.633-.302-1.01-.302s-.713.1-1.01.303c-.295.203-.443.49-.443.86s.154.653.464.852zm.096-3.21c.252.205.55.308.894.308s.64-.103.894-.308c.252-.206.38-.458.38-.758s-.127-.55-.38-.752-.55-.303-.894-.303-.64.1-.894.302-.378.453-.378.752c0 .3.125.552.378.758zM30.578 49.725c-.478-.662-.717-1.55-.717-2.66s.24-1.997.718-2.66 1.198-.994 2.16-.994c.963 0 1.684.332 2.162.995s.717 1.55.717 2.66-.24 1.998-.717 2.66c-.478.663-1.198.995-2.16.995-.964 0-1.684-.332-2.162-.995zm.853-4.57c-.278.485-.418 1.122-.418 1.91 0 .787.14 1.423.42 1.907s.714.728 1.307.728 1.024-.24 1.296-.723c.272-.48.41-1.118.41-1.913 0-.794-.137-1.432-.41-1.913s-.705-.72-1.297-.72-1.03.242-1.31.726z"/></g><g><path d="M25.592 30.772c.626 0 1.087-.212 1.383-.636.296-.425.447-.996.454-1.717-.17.187-.412.364-.728.53-.317.164-.667.246-1.05.246-.633 0-1.163-.21-1.59-.63-.428-.422-.64-.98-.64-1.677 0-.698.23-1.258.69-1.683.46-.424 1.042-.636 1.742-.636 1.13 0 1.91.506 2.342 1.516.242.58.363 1.23.363 1.958s-.08 1.333-.233 1.817c-.155.486-.367.87-.636 1.152-.524.552-1.168.828-1.933.828-.764 0-1.456-.24-2.075-.717l.596-.88c.155.136.362.257.62.364.26.112.492.165.694.165zm.217-2.625c.406 0 .746-.113 1.02-.34.27-.224.408-.517.408-.877s-.13-.67-.394-.93-.59-.388-.984-.388-.72.116-.974.35c-.256.23-.384.528-.384.892s.116.67.348.92c.232.248.55.373.96.373zM30.468 30.848c-.478-.662-.717-1.55-.717-2.66s.24-1.997.718-2.66 1.198-.994 2.16-.994c.963 0 1.684.33 2.162.994.478.663.717 1.55.717 2.66s-.24 1.998-.717 2.66c-.478.663-1.198.995-2.16.995-.964 0-1.684-.332-2.162-.995zm.853-4.57c-.278.485-.418 1.122-.418 1.91 0 .787.14 1.423.42 1.907s.714.728 1.307.728 1.024-.24 1.296-.723c.272-.48.41-1.118.41-1.913 0-.794-.137-1.432-.41-1.913s-.705-.722-1.297-.722-1.03.243-1.31.727z"/></g></g><g fill="#676868"><path d="M4.315 147.438v-1.31h7.763v1.42l-5.664 4.398h5.664v1.31H4.315v-1.31l5.797-4.51H4.315zM9.368 140.02H6.17v-1.244h5.908v1.244H11c.363.2.648.477.856.828.207.352.31.73.31 1.138 0 .667-.202 1.205-.61 1.616-.406.41-.995.616-1.766.616H6.17v-1.243h3.243c1.088 0 1.632-.452 1.632-1.355 0-.43-.143-.803-.427-1.12-.285-.32-.702-.48-1.25-.48zM8.88 135.732h3.198v1.244H6.17v-1.244h1.077c-.362-.178-.647-.445-.855-.805-.207-.36-.31-.746-.31-1.16 0-.934.384-1.566 1.154-1.9-.77-.584-1.155-1.312-1.155-2.187 0-.666.204-1.205.61-1.615.408-.41.997-.616 1.768-.616h3.62v1.242H8.835c-1.088 0-1.633.452-1.633 1.355 0 .422.136.79.406 1.105.27.314.664.48 1.183.494h3.288v1.244H8.835c-.563 0-.976.1-1.238.3-.263.2-.395.515-.395.943 0 .43.144.804.428 1.122.285.32.702.477 1.25.477zM6.08 122.55c0-.792.274-1.47.822-2.032.55-.563 1.277-.844 2.188-.844.91 0 1.65.28 2.22.84.57.56.856 1.21.856 1.953s-.326 1.412-.978 2.005h.89v1.244h-8.24v-1.244H7.2c-.745-.49-1.12-1.13-1.12-1.92zm3.055 1.944c.563 0 1.024-.17 1.383-.512.36-.34.54-.754.54-1.243s-.18-.916-.534-1.278-.816-.544-1.383-.544-1.035.178-1.41.533-.56.782-.56 1.278.187.914.56 1.254c.374.342.842.512 1.405.512zM9.668 112.756v4.63c.43-.028.775-.226 1.04-.588.262-.362.393-.777.393-1.243 0-.74-.232-1.304-.698-1.69l.777-.71c.658.638.987 1.467.987 2.488 0 .83-.275 1.535-.827 2.116s-1.292.87-2.222.87c-.93 0-1.667-.296-2.216-.888-.548-.593-.82-1.29-.82-2.094s.24-1.486.727-2.05c.483-.562 1.152-.843 2.004-.843h.854zm-.978 4.63V114c-.495 0-.877.154-1.144.466s-.4.694-.4 1.15.14.863.417 1.226c.278.363.654.545 1.127.545zM7.336 108.29c0 .616.2 1.078.6 1.39s.937.465 1.61.465h2.532v1.244H6.17v-1.245h1.188c-.37-.2-.674-.47-.91-.816-.237-.345-.36-.71-.367-1.094l1.256-.01v.065zM11.284 98.995c.59.592.883 1.333.883 2.22 0 .89-.294 1.63-.883 2.222s-1.31.89-2.16.89-1.57-.297-2.16-.89-.883-1.333-.883-2.22c0-.89.295-1.63.884-2.222s1.31-.888 2.16-.888 1.57.296 2.16.888zm-.766 3.56c.36-.352.54-.798.54-1.338s-.18-.986-.54-1.338c-.358-.353-.823-.528-1.394-.528s-1.034.174-1.394.526c-.36.352-.54.798-.54 1.338s.18.987.54 1.338.823.527 1.394.527 1.035-.174 1.394-.525zM5.68 95.253h.49v-1.555h1v1.555h4.908v1.244h-4.91v.744H6.17v-.743h-.455c-.622 0-1.116-.187-1.483-.56-.366-.375-.55-.827-.55-1.356s.196-1.012.59-1.448l.877.51c-.26.245-.39.5-.39.767s.083.473.25.62c.166.15.39.223.67.223zM4.992 84.036c.452-.54 1.148-.81 2.088-.81.94 0 1.63.275 2.066.826.437.552.655 1.398.655 2.538v1.377h2.277v1.31H4.315v-2.665c0-1.176.226-2.035.677-2.576zm3.204.927c-.277-.263-.685-.394-1.222-.394-.536 0-.916.166-1.138.5-.223.332-.333.854-.333 1.565v1.333h3.11v-1.52c0-.727-.138-1.22-.417-1.485zM12.078 77.184v1.133h-.788c.585.488.877 1.144.877 1.965 0 .615-.174 1.124-.522 1.527-.348.402-.812.604-1.394.604-.58 0-1.015-.214-1.304-.644-.29-.43-.434-1.01-.434-1.744v-1.61h-.22c-.786 0-1.178.437-1.178 1.31 0 .55.2 1.12.6 1.71l-.777.556c-.57-.718-.855-1.533-.855-2.443 0-.697.176-1.265.527-1.706s.904-.66 1.66-.66h3.808zm-2.2 1.244h-.5v1.4c0 .895.283 1.343.846 1.343.288 0 .51-.11.66-.332.152-.222.23-.53.23-.928 0-.396-.112-.742-.335-1.038-.223-.296-.523-.444-.9-.444zM7.17 73.985h2.998c.28 0 .505-.074.672-.222s.25-.355.25-.622-.13-.52-.39-.765l.878-.51c.393.436.59.92.59 1.448s-.185.98-.55 1.355-.86.56-1.483.56H7.17v.745h-1v-.744H4.315v-1.245H6.17V72.43h1v1.555zM9.668 65.378v4.63c.43-.03.775-.225 1.04-.588.262-.363.393-.777.393-1.244 0-.74-.232-1.303-.698-1.688l.777-.71c.658.637.987 1.466.987 2.488 0 .83-.275 1.534-.827 2.116-.552.58-1.292.872-2.222.872-.93 0-1.667-.296-2.216-.89-.548-.59-.82-1.29-.82-2.092s.24-1.486.727-2.05c.483-.562 1.152-.843 2.004-.843h.854zM8.69 70.01v-3.388c-.495 0-.877.156-1.144.467s-.4.693-.4 1.148c0 .455.14.864.417 1.227s.654.545 1.127.545zM8.88 62.77h3.198v1.243H6.17V62.77h1.077c-.362-.2-.647-.477-.855-.828-.207-.352-.31-.73-.31-1.14 0-.665.202-1.204.61-1.615s.995-.616 1.766-.616h3.62v1.245H8.835c-1.088 0-1.633.452-1.633 1.355 0 .43.144.803.428 1.122.285.317.702.477 1.25.477zM7.17 55.383h2.998c.28 0 .505-.074.672-.222s.25-.354.25-.62-.13-.523-.39-.767l.878-.51c.393.436.59.92.59 1.448s-.185.982-.55 1.356-.86.56-1.483.56H7.17v.745h-1v-.743H4.315v-1.244H6.17v-1.555h1v1.555zM10.313 48.064c.563 0 1.013.204 1.35.61.337.408.505.93.505 1.567 0 .43-.078.877-.233 1.34-.155.462-.374.87-.655 1.226l-.966-.6c.52-.688.777-1.355.777-2 0-.28-.063-.502-.193-.666-.13-.163-.295-.244-.494-.244-.296 0-.563.393-.8 1.177-.022.06-.037.104-.045.133-.333 1.23-.888 1.844-1.665 1.844-.548 0-.987-.213-1.316-.64s-.494-.978-.494-1.66c0-.68.2-1.325.6-1.932l.922.466c-.318.48-.478 1.003-.478 1.566 0 .296.054.537.16.722s.27.277.483.277c.193 0 .334-.097.423-.29.066-.133.13-.32.188-.56.06-.24.12-.454.18-.64.06-.185.125-.364.2-.54.073-.173.177-.36.31-.56.265-.396.68-.596 1.243-.596z"/></g></svg>