<svg xmlns="http://www.w3.org/2000/svg" xmlns:xlink="http://www.w3.org/1999/xlink" width="217" height="217" viewBox="0 0 217 217"><defs><path id="a" d="M42.958 29.305h171.937v118.603H42.958z"/></defs><clipPath id="b"><use xlink:href="#a" overflow="visible"/></clipPath><path clip-path="url(#b)" fill="#73B0B1" stroke="#73B0B1" stroke-width="1.5" stroke-miterlimit="10" d="M202.1 62.69l12.797-29.173M188.59 82.564L202.1 62.69m-27.03-7.867l13.517 27.742m-26.31 39.743l12.796-67.485m-26.312 41.97l13.515 25.597m-26.23-6.438l12.795-19.158m-26.313 3.498l13.515 15.66m-27.026 27.66l13.514-43.32M96.218 114.52l12.796 29.094m-26.31-35.453l13.515 6.36M69.984 94.646l12.798 13.514m-26.31-41.256l13.513 27.742m-27.028 9.937l13.514-37.678"/><g fill="#676868" font-family="'Montserrat-Regular'" font-size="10.096"><text transform="rotate(-46 222.867 55.063)">2000</text><text transform="rotate(-46 235.915 25.826)">2002</text><text transform="rotate(-48 242.396 -2.5)">2004</text><text transform="rotate(-48 252.384 -29.543)">2006</text><text transform="rotate(-52 250.595 -49.133)">2008</text><text transform="rotate(-49 275.883 -90.344)">2010</text><text transform="rotate(-50 282.53 -112.293)">2012</text><text transform="translate(23.78 147.972)">30</text><text transform="translate(23.78 128.65)">40</text><text transform="translate(24.593 108.775)">50</text><text transform="translate(24.593 88.963)">60</text><text transform="translate(23.72 69.95)">70</text><text transform="translate(22.845 50.638)">80</text><text transform="translate(22.907 31.762)">90</text></g><text transform="rotate(-90 83.207 71.128)" fill="#676868" font-family="'Montserrat-Regular'" font-size="11.106">Number of Patents</text></svg>