<svg xmlns="http://www.w3.org/2000/svg" xmlns:xlink="http://www.w3.org/1999/xlink" viewBox="0 0 250 250" enable-background="new 0 0 250 250"><style type="text/css">.st0{clip-path:url(#SVGID_2_);fill:#73B1B2;stroke:#73B1B2;stroke-width:1.5;stroke-miterlimit:10;} .st1{fill:#676767;} .st2{font-family:&apos;Montserrat-Regular&apos;;} .st3{font-size:14.2914px;} .st4{display:none;fill:#676767;}</style><g id="Layer_1"><defs><path id="SVGID_1_" d="M29.7 28.2H246v149.2H29.7z"/></defs><clipPath id="SVGID_2_"><use xlink:href="#SVGID_1_" overflow="visible"/></clipPath><path class="st0" d="M229.9 70.2L246 33.5m-33.1 61.7l17-25m-34-9.9l17 34.9m-33.1 50l16.1-84.9m-33.1 52.8l17 32.2m-33-8.1l16.1-24.1m-33.1 4.4l17 19.7m-34 34.8l17-54.5m-33.1 17.9l16.1 36.6m-33.1-44.6l17 8m-33-25l16.1 17M46.7 75.5l17 34.9m-34 12.5l17-47.4"/></g><g id="Layer_2"><text transform="matrix(.689 -.725 .725 .689 8.796 216.017)" class="st1 st2 st3">2000</text><text transform="matrix(.672 -.741 .741 .672 27.571 216.017)" class="st4 st2 st3">2001</text><text transform="matrix(.691 -.723 .723 .691 43.982 216.015)" class="st1 st2 st3">2002</text><text transform="matrix(.691 -.723 .723 .691 60.542 216.014)" class="st4 st2 st3">2003</text><text transform="matrix(.672 -.74 .74 .672 77.883 216.015)" class="st1 st2 st3">2004</text><text transform="matrix(.652 -.758 .758 .652 94.637 216.018)" class="st4 st2 st3">2005</text><text transform="matrix(.665 -.747 .747 .665 109.81 216.017)" class="st1 st2 st3">2006</text><text transform="matrix(.655 -.756 .756 .655 128.534 216.018)" class="st4 st2 st3">2007</text><text transform="matrix(.616 -.788 .788 .616 145.576 216.016)" class="st1 st2 st3">2008</text><text transform="matrix(.637 -.771 .771 .637 161.242 216.015)" class="st4 st2 st3">2009</text><text transform="matrix(.66 -.751 .751 .66 178.954 213.395)" class="st1 st2 st3">2010</text><text transform="matrix(.607 -.795 .795 .607 198.325 211.805)" class="st4 st2 st3">2011</text><text transform="matrix(.64 -.768 .768 .64 212.232 213.6)" class="st1 st2 st3">2012</text><text transform="matrix(.62 -.785 .785 .62 229.804 215.009)" class="st4 st2 st3">2013</text><text transform="translate(5.574 177.482)" class="st1 st2 st3">30</text><text transform="translate(5.574 153.176)" class="st1 st2 st3">40</text><text transform="translate(6.598 128.174)" class="st1 st2 st3">50</text><text transform="translate(6.598 103.247)" class="st1 st2 st3">60</text><text transform="translate(5.498 79.331)" class="st1 st2 st3">70</text><text transform="translate(4.399 55.037)" class="st1 st2 st3">80</text><text transform="translate(4.475 31.29)" class="st1 st2 st3">90</text></g></svg>