<?xml version="1.0" encoding="utf-8"?>
<!-- Generator: Adobe Illustrator 16.0.0, SVG Export Plug-In . SVG Version: 6.00 Build 0)  -->
<!DOCTYPE svg PUBLIC "-//W3C//DTD SVG 1.1//EN" "http://www.w3.org/Graphics/SVG/1.1/DTD/svg11.dtd">
<svg version="1.1" id="Layer_1" xmlns="http://www.w3.org/2000/svg" xmlns:xlink="http://www.w3.org/1999/xlink" x="0px" y="0px"
	 width="217px" height="217px" viewBox="0 0 217 217" enable-background="new 0 0 217 217" xml:space="preserve">
<g>
	<g>
		<path fill="#F89928" d="M50.591,51.875h55.686V200.72H50.591V51.875L50.591,51.875z M228,200.72"/>
	</g>
	<g>
		<text transform="matrix(1 0 0 1 19.2373 203.4502)" fill="#5A5A5A" font-family="'Montserrat-Regular'" font-size="10">$0K</text>
	</g>
	<g>
		<text transform="matrix(1 0 0 1 14.2559 175.1221)" fill="#5A5A5A" font-family="'Montserrat-Regular'" font-size="10">$10K</text>
	</g>
	<g>
		<text transform="matrix(1 0 0 1 10.5615 146.7842)" fill="#5A5A5A" font-family="'Montserrat-Regular'" font-size="10">$20K</text>
	</g>
	<g>
		<text transform="matrix(1 0 0 1 10.5615 118.4463)" fill="#5A5A5A" font-family="'Montserrat-Regular'" font-size="10">$30K</text>
	</g>
	<g>
		<text transform="matrix(1 0 0 1 10.5615 90.1016)" fill="#5A5A5A" font-family="'Montserrat-Regular'" font-size="10">$40K</text>
	</g>
	<g>
		<text transform="matrix(1 0 0 1 10.5615 61.7715)" fill="#5A5A5A" font-family="'Montserrat-Regular'" font-size="10">$50K</text>
	</g>
	<g>
		<text transform="matrix(1 0 0 1 10.5615 33.4326)" fill="#5A5A5A" font-family="'Montserrat-Regular'" font-size="10">$60K</text>
	</g>
</g>
<g id="Layer_2">
	<rect x="135.642" y="38.975" fill="#FCBA81" width="55.695" height="162.631"/>
</g>
<text transform="matrix(1 0 0 1 67.3691 75.7363)" fill="#FFFFFF" font-family="'Montserrat-Bold'" font-size="18.4698">HI</text>
<text transform="matrix(1 0 0 1 150.4561 63.4492)" fill="#FFFFFF" font-family="'Montserrat-Bold'" font-size="18.4698">US</text>
</svg>
