<?xml version="1.0" encoding="utf-8"?>
<!-- Generator: Adobe Illustrator 19.2.0, SVG Export Plug-In . SVG Version: 6.00 Build 0)  -->
<svg version="1.1" id="Layer_1" xmlns="http://www.w3.org/2000/svg" xmlns:xlink="http://www.w3.org/1999/xlink" x="0px" y="0px"
	 viewBox="0 0 217 217" style="enable-background:new 0 0 217 217;" xml:space="preserve">
<style type="text/css">
	.st0{fill:#505150;}
</style>
<g>
	<defs>
		<rect id="SVGID_1_" x="46.9" y="43.5" width="28" height="137"/>
	</defs>
	<use xlink:href="#SVGID_1_"  style="overflow:visible;fill-rule:evenodd;clip-rule:evenodd;fill:#F89929;"/>
	<clipPath id="SVGID_2_">
		<use xlink:href="#SVGID_1_"  style="overflow:visible;"/>
	</clipPath>
</g>
<g>
	<defs>
		<rect id="SVGID_3_" x="92.7" y="21.3" width="28" height="159.1"/>
	</defs>
	<use xlink:href="#SVGID_3_"  style="overflow:visible;fill-rule:evenodd;clip-rule:evenodd;fill:#F89929;"/>
	<clipPath id="SVGID_4_">
		<use xlink:href="#SVGID_3_"  style="overflow:visible;"/>
	</clipPath>
</g>
<g>
	<defs>
		<rect id="SVGID_5_" x="136.5" y="26.7" width="28" height="153.8"/>
	</defs>
	<use xlink:href="#SVGID_5_"  style="overflow:visible;fill-rule:evenodd;clip-rule:evenodd;fill:#F89929;"/>
	<clipPath id="SVGID_6_">
		<use xlink:href="#SVGID_5_"  style="overflow:visible;"/>
	</clipPath>
</g>
<g>
	<defs>
		<rect id="SVGID_7_" x="178.6" y="46" width="28" height="134.5"/>
	</defs>
	<use xlink:href="#SVGID_7_"  style="overflow:visible;fill-rule:evenodd;clip-rule:evenodd;fill:#F89929;"/>
	<clipPath id="SVGID_8_">
		<use xlink:href="#SVGID_7_"  style="overflow:visible;"/>
	</clipPath>
</g>
<g>
	<g>
		<path class="st0" d="M19.8,179.3L19.8,179.3c0-2.6,1.6-4.6,3.9-4.6c2.3,0,3.9,2,3.9,4.6v0c0,2.6-1.6,4.6-3.9,4.6
			C21.4,183.9,19.8,181.9,19.8,179.3z M26,179.3L26,179.3c0-1.8-0.9-3.2-2.3-3.2s-2.3,1.4-2.3,3.2v0c0,1.8,0.9,3.2,2.3,3.2
			S26,181.1,26,179.3z"/>
	</g>
</g>
<g>
	<g>
		<path class="st0" d="M11.8,155.1l3.1-2.6c1.2-1,1.7-1.6,1.7-2.4c0-0.9-0.6-1.4-1.4-1.4c-0.8,0-1.4,0.4-2.1,1.3l-1.1-0.9
			c0.9-1.2,1.7-1.9,3.3-1.9c1.7,0,2.9,1.1,2.9,2.7v0c0,1.4-0.7,2.2-2.3,3.5L14,155h4.2v1.4h-6.5V155.1z"/>
		<path class="st0" d="M19.7,151.9L19.7,151.9c0-2.6,1.6-4.6,3.9-4.6c2.3,0,3.9,2,3.9,4.6v0c0,2.6-1.6,4.6-3.9,4.6
			C21.2,156.5,19.7,154.5,19.7,151.9z M25.9,151.9L25.9,151.9c0-1.8-0.9-3.2-2.3-3.2c-1.4,0-2.3,1.4-2.3,3.2v0
			c0,1.8,0.9,3.2,2.3,3.2C25,155.1,25.9,153.7,25.9,151.9z"/>
	</g>
</g>
<g>
	<g>
		<path class="st0" d="M15.6,127h-4.5l-0.3-1.1l5-5.9h1.3v5.7h1.3v1.3h-1.3v2h-1.5V127z M15.6,125.7v-3.5l-2.9,3.5H15.6z"/>
		<path class="st0" d="M19.7,124.5L19.7,124.5c0-2.6,1.6-4.6,3.9-4.6c2.3,0,3.9,2,3.9,4.6v0c0,2.6-1.6,4.6-3.9,4.6
			C21.3,129.1,19.7,127.1,19.7,124.5z M25.9,124.5L25.9,124.5c0-1.8-0.9-3.2-2.3-3.2c-1.4,0-2.3,1.4-2.3,3.2v0
			c0,1.8,0.9,3.2,2.3,3.2S25.9,126.3,25.9,124.5z"/>
	</g>
</g>
<g>
	<g>
		<path class="st0" d="M12.5,100.8c-0.7-0.7-1.1-1.6-1.1-3.4v0c0-2.7,1.3-4.9,3.8-4.9c1.2,0,2,0.4,2.7,1l-0.8,1.2
			c-0.6-0.5-1.2-0.8-1.9-0.8c-1.3,0-2.1,1.2-2.1,2.8c0.5-0.5,1.1-0.9,2.1-0.9c1.7,0,3.1,1,3.1,2.8v0c0,1.8-1.4,3-3.3,3
			C13.9,101.7,13.1,101.4,12.5,100.8z M16.7,98.7L16.7,98.7c0-0.9-0.7-1.6-1.8-1.6s-1.8,0.7-1.8,1.6v0c0,0.9,0.7,1.6,1.8,1.6
			C16,100.4,16.7,99.7,16.7,98.7z"/>
		<path class="st0" d="M19.8,97.1L19.8,97.1c0-2.6,1.6-4.6,3.9-4.6c2.3,0,3.9,2,3.9,4.6v0c0,2.6-1.6,4.6-3.9,4.6
			C21.3,101.7,19.8,99.7,19.8,97.1z M25.9,97.1L25.9,97.1c0-1.8-0.9-3.2-2.3-3.2c-1.4,0-2.3,1.4-2.3,3.2v0c0,1.8,0.9,3.2,2.3,3.2
			S25.9,98.9,25.9,97.1z"/>
	</g>
</g>
<g>
	<g>
		<path class="st0" d="M11.7,71.8L11.7,71.8c0-1.1,0.6-1.8,1.6-2.2c-0.8-0.4-1.3-1-1.3-2v0c0-1.4,1.3-2.4,3.1-2.4s3.1,1,3.1,2.4v0
			c0,1-0.5,1.6-1.3,2c1,0.4,1.6,1.1,1.6,2.1v0c0,1.6-1.5,2.6-3.4,2.6S11.7,73.3,11.7,71.8z M17,71.7L17,71.7c0-0.8-0.8-1.4-1.9-1.4
			c-1.1,0-1.9,0.5-1.9,1.4v0c0,0.7,0.7,1.3,1.9,1.3S17,72.4,17,71.7z M16.7,67.7L16.7,67.7c0-0.7-0.6-1.3-1.6-1.3s-1.6,0.6-1.6,1.2
			v0c0,0.8,0.7,1.3,1.6,1.3C16,69,16.7,68.5,16.7,67.7z"/>
		<path class="st0" d="M19.8,69.7L19.8,69.7c0-2.6,1.6-4.6,3.9-4.6c2.3,0,3.9,2,3.9,4.6v0c0,2.6-1.6,4.6-3.9,4.6
			C21.4,74.3,19.8,72.3,19.8,69.7z M26,69.7L26,69.7c0-1.8-0.9-3.2-2.3-3.2s-2.3,1.4-2.3,3.2v0c0,1.8,0.9,3.2,2.3,3.2
			C25.1,72.9,26,71.5,26,69.7z"/>
	</g>
</g>
<g>
	<g>
		<path class="st0" d="M6.7,39.4l-1.6,0.4l-0.3-1.3l2.4-0.8h1.1v9H6.7V39.4z"/>
		<path class="st0" d="M10.2,42.4L10.2,42.4c0-2.6,1.6-4.6,3.9-4.6c2.3,0,3.9,2,3.9,4.6v0c0,2.6-1.6,4.6-3.9,4.6
			C11.7,46.9,10.2,44.9,10.2,42.4z M16.3,42.4L16.3,42.4c0-1.8-0.9-3.2-2.3-3.2s-2.3,1.4-2.3,3.2v0c0,1.8,0.9,3.2,2.3,3.2
			S16.3,44.1,16.3,42.4z"/>
		<path class="st0" d="M19.4,42.4L19.4,42.4c0-2.6,1.6-4.6,3.9-4.6c2.3,0,3.9,2,3.9,4.6v0c0,2.6-1.6,4.6-3.9,4.6
			C21,46.9,19.4,44.9,19.4,42.4z M25.6,42.4L25.6,42.4c0-1.8-0.9-3.2-2.3-3.2c-1.4,0-2.3,1.4-2.3,3.2v0c0,1.8,0.9,3.2,2.3,3.2
			C24.7,45.5,25.6,44.1,25.6,42.4z"/>
	</g>
</g>
<g>
	<g>
		<path class="st0" d="M8,12l-1.6,0.4l-0.3-1.3l2.4-0.8h1.1v9H8V12z"/>
		<path class="st0" d="M11.4,18.2l3.1-2.6c1.2-1,1.7-1.6,1.7-2.4c0-0.9-0.6-1.4-1.4-1.4s-1.4,0.4-2.1,1.3l-1.1-0.9
			c0.9-1.2,1.7-1.9,3.3-1.9c1.7,0,2.9,1.1,2.9,2.7v0c0,1.4-0.7,2.2-2.3,3.5L13.7,18h4.2v1.4h-6.5V18.2z"/>
		<path class="st0" d="M19.4,15L19.4,15c0-2.6,1.6-4.6,3.9-4.6c2.3,0,3.9,2,3.9,4.6v0c0,2.6-1.6,4.6-3.9,4.6
			C20.9,19.6,19.4,17.5,19.4,15z M25.5,15L25.5,15c0-1.8-0.9-3.2-2.3-3.2c-1.4,0-2.3,1.4-2.3,3.2v0c0,1.8,0.9,3.2,2.3,3.2
			C24.7,18.1,25.5,16.7,25.5,15z"/>
	</g>
</g>
<g>
	<g>
		<path class="st0" d="M53.9,194.3v-5.1h1.6v5.1c0,1.7,0.9,2.6,2.3,2.6c1.4,0,2.2-0.8,2.2-2.5v-5.1h1.6v5.1c0,2.7-1.5,4-3.8,4
			C55.3,198.3,53.9,196.9,53.9,194.3z"/>
		<path class="st0" d="M63.1,196.8l0.9-1.1c0.9,0.7,1.7,1.2,2.8,1.2c1,0,1.6-0.4,1.6-1.1v0c0-0.6-0.4-1-2-1.4c-1.9-0.5-3-1-3-2.7v0
			c0-1.5,1.3-2.6,3-2.6c1.3,0,2.3,0.4,3.2,1.1l-0.8,1.2c-0.8-0.6-1.6-0.9-2.4-0.9c-0.9,0-1.5,0.5-1.5,1.1v0c0,0.7,0.4,1,2.1,1.4
			c1.9,0.5,2.9,1.1,2.9,2.6v0c0,1.7-1.3,2.7-3.2,2.7C65.4,198.3,64.1,197.8,63.1,196.8z"/>
	</g>
</g>
<g>
	<g>
		<path class="st0" d="M99.9,189.2h1.6v3.7h4.3v-3.7h1.6v8.9h-1.6v-3.8h-4.3v3.8h-1.6V189.2z"/>
		<path class="st0" d="M109.7,189.2h1.6v8.9h-1.6V189.2z"/>
	</g>
</g>
<g>
	<g>
		<path class="st0" d="M142.1,193.7L142.1,193.7c0-2.6,1.9-4.6,4.6-4.6c1.6,0,2.6,0.6,3.5,1.4l-1,1.2c-0.7-0.7-1.5-1.1-2.5-1.1
			c-1.7,0-2.9,1.4-2.9,3.1v0c0,1.7,1.2,3.2,2.9,3.2c1.1,0,1.8-0.4,2.6-1.2l1,1c-0.9,1-2,1.6-3.6,1.6
			C144.1,198.3,142.1,196.3,142.1,193.7z"/>
		<path class="st0" d="M155.1,189.1h1.5l3.9,9h-1.7l-0.9-2.2h-4.2l-0.9,2.2h-1.6L155.1,189.1z M157.4,194.6l-1.5-3.6l-1.5,3.6H157.4
			z"/>
	</g>
</g>
<g>
	<g>
		<path class="st0" d="M184.9,189.2h1.5l4.8,6.2v-6.2h1.5v8.9h-1.3l-4.9-6.4v6.4h-1.5V189.2z"/>
		<path class="st0" d="M194.2,189.2h1.7l2.7,6.9l2.7-6.9h1.7l-3.7,9h-1.4L194.2,189.2z"/>
	</g>
</g>
</svg>
