<?xml version="1.0" encoding="utf-8"?>
<!-- Generator: Adobe Illustrator 16.0.0, SVG Export Plug-In . SVG Version: 6.00 Build 0)  -->
<!DOCTYPE svg PUBLIC "-//W3C//DTD SVG 1.1//EN" "http://www.w3.org/Graphics/SVG/1.1/DTD/svg11.dtd">
<svg version="1.1" id="Layer_1" xmlns="http://www.w3.org/2000/svg" xmlns:xlink="http://www.w3.org/1999/xlink" x="0px" y="0px"
	 width="217px" height="217px" viewBox="0 0 217 217" enable-background="new 0 0 217 217" xml:space="preserve">
<g>
	<g>
		<g>
			<path fill="#F89927" d="M72.729,66.214h35.121v128.229H72.729V66.214z"/>
		</g>
		<g>
			<g>
				<text transform="matrix(0.9029 0 0 1 20.248 168.5615)" fill="#676868" font-family="'ArialMT'" font-size="11"> $10K</text>
			</g>
			<g>
				<text transform="matrix(0.9029 0 0 1 18.7207 139.3271)" fill="#676868" font-family="'ArialMT'" font-size="11"> $20K  </text>
			</g>
			<g>
				<text transform="matrix(0.9029 0 0 1 18.7207 110.0928)" fill="#676868" font-family="'ArialMT'" font-size="11"> $30K  </text>
			</g>
			<g>
				<text transform="matrix(0.9029 0 0 1 18.7207 80.8589)" fill="#676868" font-family="'ArialMT'" font-size="11"> $40K  </text>
			</g>
			<g>
				<text transform="matrix(0.9029 0 0 1 18.7207 51.624)" fill="#676868" font-family="'ArialMT'" font-size="11"> $50K  </text>
			</g>
			<g>
				<text transform="matrix(0.9029 0 0 1 18.7207 22.3901)" fill="#676868" font-family="'ArialMT'" font-size="11"> $60K  </text>
			</g>
			<g>
				<rect x="37.293" y="189.649" fill="none" width="23.964" height="17.442"/>
				<text transform="matrix(0.9029 0 0 1 37.2969 197.6592)" fill="#676868" font-family="'ArialMT'" font-size="11">0</text>
			</g>
		</g>
		<rect x="127.964" y="33.214" fill="#FCBA82" width="35.907" height="161.229"/>
	</g>
	<g>
		<rect x="137.706" y="39.264" fill="none" width="33.786" height="26.793"/>
		<text transform="matrix(1 0 0 1 137.7168 47.061)" fill="#FFFFFF" font-family="'GothamBook'" font-size="10.7136">US</text>
	</g>
	<rect x="83.65" y="71.635" fill="none" width="33.786" height="26.792"/>
	<text transform="matrix(1 0 0 1 83.6421 79.4727)" fill="#FFFFFF" font-family="'GothamBook'" font-size="10.7136">HI</text>
</g>
</svg>
