<?xml version="1.0" encoding="utf-8"?>
<!-- Generator: Adobe Illustrator 19.2.0, SVG Export Plug-In . SVG Version: 6.00 Build 0)  -->
<svg version="1.1" id="Layer_1" xmlns="http://www.w3.org/2000/svg" xmlns:xlink="http://www.w3.org/1999/xlink" x="0px" y="0px"
	 viewBox="0 0 217 217" style="enable-background:new 0 0 217 217;" xml:space="preserve">
<style type="text/css">
	.st0{fill:#F89928;}
	.st1{fill:#FCBA81;}
	.st2{enable-background:new    ;}
	.st3{fill:#FFFFFF;}
	.st4{fill:#505050;}
</style>
<g>
	<g>
		<path class="st0" d="M50.6,51.9h55.7v148.8H50.6V51.9L50.6,51.9z"/>
	</g>
</g>
<g id="Layer_2">
	<rect x="135.6" y="39" class="st1" width="55.7" height="162.6"/>
</g>
<g class="st2">
	<path class="st3" d="M77,62.8h2.9v12.9H77v-5.1h-5.1v5.1H69V62.8h2.9v5.4H77V62.8z"/>
	<path class="st3" d="M83,62.8h2.9v12.9H83V62.8z"/>
</g>
<g class="st2">
	<path class="st3" d="M155.5,60.1c0.5,0.6,1.1,0.9,1.9,0.9s1.5-0.3,1.9-0.9c0.5-0.6,0.7-1.4,0.7-2.4v-7.1h2.9v7.2
		c0,1.9-0.5,3.3-1.6,4.3c-1,1-2.4,1.5-4,1.5s-2.9-0.5-4-1.5c-1-1-1.6-2.4-1.6-4.3v-7.2h2.9v7.1C154.7,58.7,155,59.5,155.5,60.1z"/>
	<path class="st3" d="M168.9,53.1c-0.3,0.2-0.4,0.5-0.4,0.9s0.2,0.7,0.5,0.9c0.3,0.2,1.1,0.5,2.3,0.8c1.2,0.3,2.2,0.8,2.9,1.4
		c0.7,0.6,1,1.5,1,2.6s-0.4,2.1-1.3,2.8s-2,1.1-3.4,1.1c-2,0-3.9-0.8-5.5-2.3l1.7-2.1c1.4,1.2,2.7,1.8,3.9,1.8
		c0.5,0,0.9-0.1,1.2-0.3c0.3-0.2,0.5-0.5,0.5-0.9s-0.2-0.7-0.5-0.9c-0.3-0.2-1-0.5-1.9-0.7c-1.5-0.4-2.6-0.8-3.3-1.4
		c-0.7-0.6-1-1.5-1-2.7c0-1.2,0.4-2.2,1.3-2.8c0.9-0.7,2-1,3.3-1c0.9,0,1.7,0.1,2.6,0.4s1.6,0.7,2.3,1.3l-1.5,2.1
		c-1.1-0.8-2.3-1.3-3.5-1.3C169.6,52.8,169.2,52.9,168.9,53.1z"/>
</g>
<g>
	<path class="st4" d="M14.4,34c-1-0.1-2-0.5-2.8-1.2l0.8-1.1c0.7,0.6,1.3,0.9,2.1,1v-2.4c-1.8-0.5-2.6-1.1-2.6-2.5v0
		c0-1.3,1-2.2,2.5-2.3v-0.7h1v0.7c0.9,0.1,1.6,0.4,2.3,0.9L17,27.7c-0.5-0.4-1.1-0.6-1.6-0.8v2.3c1.8,0.5,2.6,1.2,2.6,2.5v0
		c0,1.3-1,2.2-2.6,2.3v1.2h-1V34z M14.4,26.8c-0.8,0.1-1.2,0.5-1.2,1v0c0,0.5,0.2,0.8,1.2,1.1V26.8z M16.5,31.8L16.5,31.8
		c0-0.6-0.3-0.9-1.2-1.2v2.2C16.1,32.7,16.5,32.3,16.5,31.8z"/>
	<path class="st4" d="M20.3,33.3c-0.6-0.6-1-1.5-1-3.2v0c0-2.6,1.2-4.6,3.6-4.6c1.1,0,1.8,0.3,2.6,0.9l-0.8,1.1
		c-0.6-0.5-1.1-0.7-1.8-0.7c-1.2,0-1.9,1.1-2,2.7c0.4-0.4,1-0.8,2-0.8c1.6,0,2.9,1,2.9,2.6v0c0,1.7-1.4,2.9-3.1,2.9
		C21.6,34.1,20.9,33.8,20.3,33.3z M24.3,31.3L24.3,31.3c0-0.9-0.7-1.5-1.7-1.5s-1.7,0.7-1.7,1.5v0c0,0.9,0.7,1.5,1.7,1.5
		C23.7,32.9,24.3,32.2,24.3,31.3z"/>
	<path class="st4" d="M27.2,29.8L27.2,29.8c0-2.4,1.5-4.4,3.7-4.4c2.2,0,3.6,1.9,3.6,4.3v0c0,2.4-1.5,4.3-3.7,4.3
		C28.6,34.1,27.2,32.2,27.2,29.8z M33,29.8L33,29.8c0-1.7-0.9-3-2.1-3s-2.1,1.3-2.1,3v0c0,1.7,0.8,3,2.1,3S33,31.5,33,29.8z"/>
	<path class="st4" d="M36.3,25.6h1.5v4.2l4-4.2h1.8l-3.5,3.6l3.6,4.8h-1.8l-2.9-3.8l-1.3,1.3V34h-1.5V25.6z"/>
</g>
<g>
	<path class="st4" d="M14.6,61.8c-1-0.1-2-0.5-2.8-1.2l0.8-1.1c0.7,0.6,1.3,0.9,2.1,1v-2.4c-1.8-0.5-2.6-1.1-2.6-2.5v0
		c0-1.3,1-2.2,2.5-2.3v-0.7h1v0.7c0.9,0.1,1.6,0.4,2.3,0.9l-0.7,1.1c-0.5-0.4-1.1-0.6-1.6-0.8V57c1.8,0.5,2.6,1.2,2.6,2.5v0
		c0,1.3-1,2.2-2.6,2.3V63h-1V61.8z M14.6,54.7c-0.8,0.1-1.2,0.5-1.2,1v0c0,0.5,0.2,0.8,1.2,1.1V54.7z M16.7,59.6L16.7,59.6
		c0-0.6-0.3-0.9-1.2-1.2v2.2C16.3,60.6,16.7,60.2,16.7,59.6z"/>
	<path class="st4" d="M19.4,60.7l0.9-1.1c0.7,0.6,1.4,1,2.2,1c1,0,1.7-0.6,1.7-1.5v0c0-0.9-0.7-1.4-1.7-1.4c-0.6,0-1.1,0.2-1.5,0.4
		L20,57.6l0.2-4.1h5v1.3h-3.7l-0.1,2c0.4-0.1,0.8-0.2,1.3-0.2c1.6,0,2.9,0.9,2.9,2.6v0c0,1.7-1.2,2.8-3.1,2.8
		C21.2,62,20.2,61.5,19.4,60.7z"/>
	<path class="st4" d="M27,57.7L27,57.7c0-2.4,1.5-4.4,3.7-4.4c2.2,0,3.6,1.9,3.6,4.3v0c0,2.4-1.5,4.3-3.7,4.3
		C28.4,62,27,60.1,27,57.7z M32.8,57.7L32.8,57.7c0-1.7-0.9-3-2.1-3s-2.1,1.3-2.1,3v0c0,1.7,0.8,3,2.1,3
		C32,60.6,32.8,59.3,32.8,57.7z"/>
	<path class="st4" d="M36.1,53.4h1.5v4.2l4-4.2h1.8l-3.5,3.6l3.6,4.8h-1.8l-2.9-3.8l-1.3,1.3v2.4h-1.5V53.4z"/>
</g>
<g>
	<path class="st4" d="M14.2,90.8c-1-0.1-2-0.5-2.8-1.2l0.8-1.1c0.7,0.6,1.3,0.9,2.1,1v-2.4c-1.8-0.5-2.6-1.1-2.6-2.5v0
		c0-1.3,1-2.2,2.5-2.3v-0.7h1v0.7c0.9,0.1,1.6,0.4,2.3,0.9l-0.7,1.1c-0.5-0.4-1.1-0.6-1.6-0.8V86c1.8,0.5,2.6,1.2,2.6,2.5v0
		c0,1.3-1,2.2-2.6,2.3V92h-1V90.8z M14.2,83.6c-0.8,0.1-1.2,0.5-1.2,1v0c0,0.5,0.2,0.8,1.2,1.1V83.6z M16.4,88.6L16.4,88.6
		c0-0.6-0.3-0.9-1.2-1.2v2.2C16,89.5,16.4,89.2,16.4,88.6z"/>
	<path class="st4" d="M23.4,88.9h-4.2l-0.3-1.1l4.7-5.5h1.3v5.4H26v1.2h-1.2v1.9h-1.4V88.9z M23.4,87.7v-3.3l-2.8,3.3H23.4z"/>
	<path class="st4" d="M27.3,86.6L27.3,86.6c0-2.4,1.5-4.4,3.7-4.4c2.2,0,3.6,1.9,3.6,4.3v0c0,2.4-1.5,4.3-3.7,4.3
		C28.8,91,27.3,89,27.3,86.6z M33.1,86.6L33.1,86.6c0-1.7-0.9-3-2.1-3c-1.3,0-2.1,1.3-2.1,3v0c0,1.7,0.8,3,2.1,3
		S33.1,88.3,33.1,86.6z"/>
	<path class="st4" d="M36.4,82.4h1.5v4.2l4-4.2h1.8L40.2,86l3.6,4.8h-1.8L39.2,87l-1.3,1.3v2.4h-1.5V82.4z"/>
</g>
<g>
	<path class="st4" d="M14.6,118.9c-1-0.1-2-0.5-2.8-1.2l0.8-1.1c0.7,0.6,1.3,0.9,2.1,1v-2.4c-1.8-0.5-2.6-1.1-2.6-2.5v0
		c0-1.3,1-2.2,2.5-2.3v-0.7h1v0.7c0.9,0.1,1.6,0.4,2.3,0.9l-0.7,1.1c-0.5-0.4-1.1-0.6-1.6-0.8v2.3c1.8,0.5,2.6,1.2,2.6,2.5v0
		c0,1.3-1,2.2-2.6,2.3v1.2h-1V118.9z M14.6,111.7c-0.8,0.1-1.2,0.5-1.2,1v0c0,0.5,0.2,0.8,1.2,1.1V111.7z M16.8,116.7L16.8,116.7
		c0-0.6-0.3-0.9-1.2-1.2v2.2C16.3,117.6,16.8,117.2,16.8,116.7z"/>
	<path class="st4" d="M19.4,117.6l1-1c0.6,0.7,1.3,1.1,2.2,1.1c0.8,0,1.5-0.5,1.5-1.3v0c0-0.8-0.8-1.3-1.9-1.3h-0.7l-0.2-0.9
		l2.3-2.4h-3.6v-1.3h5.6v1.1l-2.3,2.4c1.3,0.2,2.5,0.8,2.5,2.4c0,0,0,0,0,0c0,1.5-1.2,2.7-2.9,2.7C21.1,119.1,20.1,118.4,19.4,117.6
		z"/>
	<path class="st4" d="M27,114.7L27,114.7c0-2.4,1.5-4.4,3.7-4.4c2.2,0,3.6,1.9,3.6,4.3v0c0,2.4-1.5,4.3-3.7,4.3
		C28.4,119.1,27,117.1,27,114.7z M32.8,114.7L32.8,114.7c0-1.7-0.9-3-2.1-3s-2.1,1.3-2.1,3v0c0,1.7,0.8,3,2.1,3
		C31.9,117.7,32.8,116.4,32.8,114.7z"/>
	<path class="st4" d="M36,110.5h1.5v4.2l4-4.2h1.8l-3.5,3.6l3.6,4.8h-1.8l-2.9-3.8l-1.3,1.3v2.4H36V110.5z"/>
</g>
<g>
	<path class="st4" d="M14.6,147.7c-1-0.1-2-0.5-2.8-1.2l0.8-1.1c0.7,0.6,1.3,0.9,2.1,1v-2.4c-1.8-0.5-2.6-1.1-2.6-2.5v0
		c0-1.3,1-2.2,2.5-2.3v-0.7h1v0.7c0.9,0.1,1.6,0.4,2.3,0.9l-0.7,1.1c-0.5-0.4-1.1-0.6-1.6-0.8v2.3c1.8,0.5,2.6,1.2,2.6,2.5v0
		c0,1.3-1,2.2-2.6,2.3v1.2h-1V147.7z M14.7,140.6c-0.8,0.1-1.2,0.5-1.2,1v0c0,0.5,0.2,0.8,1.2,1.1V140.6z M16.8,145.5L16.8,145.5
		c0-0.6-0.3-0.9-1.2-1.2v2.2C16.4,146.5,16.8,146.1,16.8,145.5z"/>
	<path class="st4" d="M19.5,146.6l2.9-2.5c1.2-1,1.6-1.5,1.6-2.3c0-0.8-0.6-1.3-1.4-1.3s-1.3,0.4-1.9,1.3l-1-0.8
		c0.8-1.1,1.6-1.8,3.1-1.8c1.6,0,2.8,1,2.8,2.5v0c0,1.3-0.7,2-2.2,3.3l-1.7,1.4h4v1.3h-6.1V146.6z"/>
	<path class="st4" d="M26.9,143.6L26.9,143.6c0-2.4,1.5-4.4,3.7-4.4c2.2,0,3.6,1.9,3.6,4.3v0c0,2.4-1.5,4.3-3.7,4.3
		C28.4,147.9,26.9,146,26.9,143.6z M32.7,143.6L32.7,143.6c0-1.7-0.9-3-2.1-3c-1.3,0-2.1,1.3-2.1,3v0c0,1.7,0.8,3,2.1,3
		S32.7,145.2,32.7,143.6z"/>
	<path class="st4" d="M36,139.3h1.5v4.2l4-4.2h1.8l-3.5,3.6l3.6,4.8h-1.8l-2.9-3.8l-1.3,1.3v2.4H36V139.3z"/>
</g>
<g>
	<path class="st4" d="M16.9,175.6c-1-0.1-2-0.5-2.8-1.2l0.8-1.1c0.7,0.6,1.3,0.9,2.1,1V172c-1.8-0.5-2.6-1.1-2.6-2.5v0
		c0-1.3,1-2.2,2.5-2.3v-0.7h1v0.7c0.9,0.1,1.6,0.4,2.3,0.9l-0.7,1.1c-0.5-0.4-1.1-0.6-1.6-0.8v2.3c1.8,0.5,2.6,1.2,2.6,2.5v0
		c0,1.3-1,2.2-2.6,2.3v1.2h-1V175.6z M17,168.4c-0.8,0.1-1.2,0.5-1.2,1v0c0,0.5,0.2,0.8,1.2,1.1V168.4z M19.1,173.3L19.1,173.3
		c0-0.6-0.3-0.9-1.2-1.2v2.2C18.7,174.3,19.1,173.9,19.1,173.3z"/>
	<path class="st4" d="M23.3,168.6l-1.5,0.4l-0.3-1.2l2.3-0.7h1v8.5h-1.5V168.6z"/>
	<path class="st4" d="M26.6,171.4L26.6,171.4c0-2.4,1.5-4.4,3.7-4.4c2.2,0,3.6,1.9,3.6,4.3v0c0,2.4-1.5,4.3-3.7,4.3
		C28.1,175.7,26.6,173.8,26.6,171.4z M32.4,171.4L32.4,171.4c0-1.7-0.9-3-2.1-3c-1.3,0-2.1,1.3-2.1,3v0c0,1.7,0.8,3,2.1,3
		S32.4,173.1,32.4,171.4z"/>
	<path class="st4" d="M35.7,167.2h1.5v4.2l4-4.2H43l-3.5,3.6l3.6,4.8h-1.8l-2.9-3.8l-1.3,1.3v2.4h-1.5V167.2z"/>
</g>
<g>
	<path class="st4" d="M22.3,203c-1-0.1-2-0.5-2.8-1.2l0.8-1.1c0.7,0.6,1.3,0.9,2.1,1v-2.4c-1.8-0.5-2.6-1.1-2.6-2.5v0
		c0-1.3,1-2.2,2.5-2.3v-0.7h1v0.7c0.9,0.1,1.6,0.4,2.3,0.9l-0.7,1.1c-0.5-0.4-1.1-0.6-1.6-0.8v2.3c1.8,0.5,2.6,1.2,2.6,2.5v0
		c0,1.3-1,2.2-2.6,2.3v1.2h-1V203z M22.3,195.8c-0.8,0.1-1.2,0.5-1.2,1v0c0,0.5,0.2,0.8,1.2,1.1V195.8z M24.5,200.8L24.5,200.8
		c0-0.6-0.3-0.9-1.2-1.2v2.2C24,201.7,24.5,201.3,24.5,200.8z"/>
	<path class="st4" d="M27.3,198.8L27.3,198.8c0-2.4,1.5-4.4,3.7-4.4c2.2,0,3.6,1.9,3.6,4.3v0c0,2.4-1.5,4.3-3.7,4.3
		C28.7,203.2,27.3,201.2,27.3,198.8z M33,198.8L33,198.8c0-1.7-0.9-3-2.1-3c-1.3,0-2.1,1.3-2.1,3v0c0,1.7,0.8,3,2.1,3
		S33,200.5,33,198.8z"/>
	<path class="st4" d="M36.3,194.6h1.5v4.2l4-4.2h1.8l-3.5,3.6l3.6,4.8H42l-2.9-3.8l-1.3,1.3v2.4h-1.5V194.6z"/>
</g>
</svg>
