<?xml version="1.0" encoding="utf-8"?>
<!-- Generator: Adobe Illustrator 19.2.0, SVG Export Plug-In . SVG Version: 6.00 Build 0)  -->
<svg version="1.1" id="Layer_1" xmlns="http://www.w3.org/2000/svg" xmlns:xlink="http://www.w3.org/1999/xlink" x="0px" y="0px"
	 viewBox="0 0 217 217" style="enable-background:new 0 0 217 217;" xml:space="preserve">
<style type="text/css">
	.st0{fill:#505150;}
</style>
<g>
	<defs>
		<rect id="SVGID_1_" x="54.4" y="67.7" width="26.3" height="128.8"/>
	</defs>
	<use xlink:href="#SVGID_1_"  style="overflow:visible;fill-rule:evenodd;clip-rule:evenodd;fill:#F89929;"/>
	<clipPath id="SVGID_2_">
		<use xlink:href="#SVGID_1_"  style="overflow:visible;"/>
	</clipPath>
</g>
<g>
	<defs>
		<rect id="SVGID_3_" x="97.4" y="46.9" width="26.3" height="149.7"/>
	</defs>
	<use xlink:href="#SVGID_3_"  style="overflow:visible;fill-rule:evenodd;clip-rule:evenodd;fill:#F89929;"/>
	<clipPath id="SVGID_4_">
		<use xlink:href="#SVGID_3_"  style="overflow:visible;"/>
	</clipPath>
</g>
<g>
	<defs>
		<rect id="SVGID_5_" x="138.7" y="51.9" width="26.3" height="144.6"/>
	</defs>
	<use xlink:href="#SVGID_5_"  style="overflow:visible;fill-rule:evenodd;clip-rule:evenodd;fill:#F89929;"/>
	<clipPath id="SVGID_6_">
		<use xlink:href="#SVGID_5_"  style="overflow:visible;"/>
	</clipPath>
</g>
<g>
	<defs>
		<rect id="SVGID_7_" x="178.2" y="70.1" width="26.3" height="126.5"/>
	</defs>
	<use xlink:href="#SVGID_7_"  style="overflow:visible;fill-rule:evenodd;clip-rule:evenodd;fill:#F89929;"/>
	<clipPath id="SVGID_8_">
		<use xlink:href="#SVGID_7_"  style="overflow:visible;"/>
	</clipPath>
</g>
<g>
	<g>
		<path class="st0" d="M28.9,195.4L28.9,195.4c0-2.4,1.5-4.4,3.7-4.4c2.2,0,3.6,1.9,3.6,4.3v0c0,2.4-1.5,4.3-3.7,4.3
			C30.4,199.7,28.9,197.8,28.9,195.4z M34.7,195.4L34.7,195.4c0-1.7-0.9-3-2.1-3s-2.1,1.3-2.1,3v0c0,1.7,0.8,3,2.1,3
			S34.7,197.1,34.7,195.4z"/>
	</g>
</g>
<g>
	<g>
		<path class="st0" d="M21.4,172.7l2.9-2.5c1.2-1,1.6-1.5,1.6-2.3c0-0.8-0.6-1.3-1.4-1.3s-1.3,0.4-1.9,1.3l-1-0.8
			c0.8-1.1,1.6-1.8,3.1-1.8c1.6,0,2.8,1,2.8,2.5v0c0,1.3-0.7,2-2.2,3.2l-1.7,1.4h4v1.3h-6.1V172.7z"/>
		<path class="st0" d="M28.8,169.7L28.8,169.7c0-2.4,1.5-4.4,3.7-4.4c2.2,0,3.6,1.9,3.6,4.3v0c0,2.4-1.5,4.3-3.7,4.3
			C30.3,174,28.8,172.1,28.8,169.7z M34.6,169.7L34.6,169.7c0-1.7-0.9-3-2.1-3s-2.1,1.3-2.1,3v0c0,1.7,0.8,3,2.1,3
			C33.8,172.7,34.6,171.3,34.6,169.7z"/>
	</g>
</g>
<g>
	<g>
		<path class="st0" d="M24.9,146.2h-4.2l-0.3-1.1l4.7-5.5h1.3v5.4h1.2v1.2h-1.2v1.9h-1.4V146.2z M24.9,145v-3.3l-2.8,3.3H24.9z"/>
		<path class="st0" d="M28.8,143.9L28.8,143.9c0-2.4,1.5-4.4,3.7-4.4c2.2,0,3.6,1.9,3.6,4.3v0c0,2.4-1.5,4.3-3.7,4.3
			C30.3,148.2,28.8,146.3,28.8,143.9z M34.6,143.9L34.6,143.9c0-1.7-0.9-3-2.1-3s-2.1,1.3-2.1,3v0c0,1.7,0.8,3,2.1,3
			S34.6,145.6,34.6,143.9z"/>
	</g>
</g>
<g>
	<g>
		<path class="st0" d="M22,121.6c-0.6-0.6-1-1.5-1-3.2v0c0-2.6,1.2-4.6,3.6-4.6c1.1,0,1.8,0.3,2.6,0.9l-0.8,1.1
			c-0.6-0.5-1.1-0.7-1.8-0.7c-1.2,0-1.9,1.1-2,2.7c0.4-0.4,1-0.8,2-0.8c1.6,0,2.9,1,2.9,2.6v0c0,1.7-1.4,2.9-3.1,2.9
			C23.3,122.5,22.6,122.1,22,121.6z M26,119.7L26,119.7c0-0.9-0.7-1.5-1.7-1.5s-1.7,0.7-1.7,1.5v0c0,0.9,0.7,1.5,1.7,1.5
			C25.4,121.2,26,120.5,26,119.7z"/>
		<path class="st0" d="M28.9,118.1L28.9,118.1c0-2.4,1.5-4.4,3.7-4.4c2.2,0,3.6,1.9,3.6,4.3v0c0,2.4-1.5,4.3-3.7,4.3
			C30.3,122.5,28.9,120.5,28.9,118.1z M34.7,118.1L34.7,118.1c0-1.7-0.9-3-2.1-3s-2.1,1.3-2.1,3v0c0,1.7,0.8,3,2.1,3
			S34.7,119.8,34.7,118.1z"/>
	</g>
</g>
<g>
	<g>
		<path class="st0" d="M21.3,94.3L21.3,94.3c0-1,0.6-1.7,1.5-2.1c-0.7-0.4-1.2-0.9-1.2-1.9v0c0-1.3,1.2-2.3,2.9-2.3s2.9,1,2.9,2.3v0
			c0,0.9-0.5,1.5-1.2,1.9c0.9,0.4,1.5,1,1.5,2v0c0,1.5-1.4,2.4-3.2,2.4S21.3,95.7,21.3,94.3z M26.2,94.2L26.2,94.2
			c0-0.8-0.8-1.3-1.8-1.3c-1,0-1.8,0.5-1.8,1.3v0c0,0.7,0.7,1.3,1.8,1.3S26.2,94.9,26.2,94.2z M26,90.5L26,90.5
			c0-0.7-0.6-1.2-1.5-1.2S23,89.8,23,90.4v0c0,0.7,0.6,1.2,1.5,1.2C25.3,91.7,26,91.2,26,90.5z"/>
		<path class="st0" d="M28.9,92.4L28.9,92.4c0-2.4,1.5-4.4,3.7-4.4c2.2,0,3.6,1.9,3.6,4.3v0c0,2.4-1.5,4.3-3.7,4.3
			C30.4,96.7,28.9,94.8,28.9,92.4z M34.7,92.4L34.7,92.4c0-1.7-0.9-3-2.1-3s-2.1,1.3-2.1,3v0c0,1.7,0.8,3,2.1,3
			C33.9,95.4,34.7,94,34.7,92.4z"/>
	</g>
</g>
<g>
	<g>
		<path class="st0" d="M16.6,63.8L15,64.3l-0.3-1.2l2.3-0.7h1v8.5h-1.5V63.8z"/>
		<path class="st0" d="M19.9,66.6L19.9,66.6c0-2.4,1.5-4.4,3.7-4.4c2.2,0,3.6,1.9,3.6,4.3v0c0,2.4-1.5,4.3-3.7,4.3
			C21.3,70.9,19.9,69,19.9,66.6z M25.7,66.6L25.7,66.6c0-1.7-0.9-3-2.1-3s-2.1,1.3-2.1,3v0c0,1.7,0.8,3,2.1,3S25.7,68.3,25.7,66.6z"
			/>
		<path class="st0" d="M28.5,66.6L28.5,66.6c0-2.4,1.5-4.4,3.7-4.4c2.2,0,3.6,1.9,3.6,4.3v0c0,2.4-1.5,4.3-3.7,4.3
			C30,70.9,28.5,69,28.5,66.6z M34.3,66.6L34.3,66.6c0-1.7-0.9-3-2.1-3s-2.1,1.3-2.1,3v0c0,1.7,0.8,3,2.1,3
			C33.5,69.6,34.3,68.3,34.3,66.6z"/>
	</g>
</g>
<g>
	<g>
		<path class="st0" d="M17.8,38.1l-1.5,0.4L16,37.3l2.3-0.7h1V45h-1.5V38.1z"/>
		<path class="st0" d="M21.1,43.9l2.9-2.5c1.2-1,1.6-1.5,1.6-2.3c0-0.8-0.6-1.3-1.4-1.3s-1.3,0.4-1.9,1.3l-1-0.8
			c0.8-1.1,1.6-1.8,3.1-1.8c1.6,0,2.8,1,2.8,2.5v0c0,1.3-0.7,2-2.2,3.3l-1.7,1.4h4V45h-6.1V43.9z"/>
		<path class="st0" d="M28.5,40.9L28.5,40.9c0-2.4,1.5-4.4,3.7-4.4c2.2,0,3.6,1.9,3.6,4.3v0c0,2.4-1.5,4.3-3.7,4.3
			C29.9,45.2,28.5,43.3,28.5,40.9z M34.3,40.9L34.3,40.9c0-1.7-0.9-3-2.1-3s-2.1,1.3-2.1,3v0c0,1.7,0.8,3,2.1,3
			C33.5,43.8,34.3,42.5,34.3,40.9z"/>
	</g>
</g>
<g>
	<g>
		<path class="st0" d="M17.1,12.3l-1.5,0.4l-0.3-1.2l2.3-0.7h1v8.5h-1.5V12.3z"/>
		<path class="st0" d="M24.6,17.4h-4.2l-0.3-1.1l4.7-5.5H26v5.4h1.2v1.2H26v1.9h-1.4V17.4z M24.6,16.2v-3.3l-2.8,3.3H24.6z"/>
		<path class="st0" d="M28.5,15.1L28.5,15.1c0-2.4,1.5-4.4,3.7-4.4c2.2,0,3.6,1.9,3.6,4.3v0c0,2.4-1.5,4.3-3.7,4.3
			C30,19.4,28.5,17.5,28.5,15.1z M34.3,15.1L34.3,15.1c0-1.7-0.9-3-2.1-3s-2.1,1.3-2.1,3v0c0,1.7,0.8,3,2.1,3S34.3,16.8,34.3,15.1z"
			/>
	</g>
</g>
<g>
	<g>
		<path class="st0" d="M60.9,209.6v-4.8h1.5v4.8c0,1.6,0.8,2.4,2.1,2.4c1.3,0,2.1-0.8,2.1-2.3v-4.8h1.5v4.8c0,2.5-1.4,3.8-3.6,3.8
			C62.3,213.3,60.9,212,60.9,209.6z"/>
		<path class="st0" d="M69.6,211.9l0.9-1.1c0.8,0.7,1.6,1.1,2.7,1.1c0.9,0,1.5-0.4,1.5-1.1v0c0-0.6-0.3-0.9-1.9-1.3
			c-1.8-0.4-2.8-1-2.8-2.5v0c0-1.4,1.2-2.4,2.9-2.4c1.2,0,2.2,0.4,3,1.1l-0.8,1.1c-0.8-0.6-1.5-0.9-2.3-0.9c-0.9,0-1.4,0.4-1.4,1v0
			c0,0.6,0.4,0.9,2,1.3c1.8,0.4,2.7,1.1,2.7,2.5v0c0,1.6-1.2,2.5-3,2.5C71.8,213.3,70.6,212.8,69.6,211.9z"/>
	</g>
</g>
<g>
	<g>
		<path class="st0" d="M104.2,204.7h1.5v3.5h4v-3.5h1.5v8.4h-1.5v-3.5h-4v3.5h-1.5V204.7z"/>
		<path class="st0" d="M113.4,204.7h1.5v8.4h-1.5V204.7z"/>
	</g>
</g>
<g>
	<g>
		<path class="st0" d="M144,209L144,209c0-2.4,1.8-4.4,4.3-4.4c1.5,0,2.5,0.5,3.3,1.3l-0.9,1.1c-0.7-0.6-1.4-1-2.4-1
			c-1.6,0-2.8,1.3-2.8,3v0c0,1.6,1.2,3,2.8,3c1,0,1.7-0.4,2.4-1.1l0.9,1c-0.9,0.9-1.8,1.5-3.4,1.5C145.8,213.3,144,211.4,144,209z"
			/>
		<path class="st0" d="M156.2,204.7h1.4l3.7,8.5h-1.6l-0.9-2h-4l-0.9,2h-1.5L156.2,204.7z M158.3,209.8l-1.5-3.4l-1.4,3.4H158.3z"/>
	</g>
</g>
<g>
	<g>
		<path class="st0" d="M184.2,204.7h1.4l4.5,5.8v-5.8h1.5v8.4h-1.2l-4.6-6v6h-1.5V204.7z"/>
		<path class="st0" d="M192.9,204.7h1.6l2.5,6.5l2.5-6.5h1.6l-3.5,8.5h-1.3L192.9,204.7z"/>
	</g>
</g>
</svg>
