<?xml version="1.0" encoding="utf-8"?>
<!-- Generator: Adobe Illustrator 16.0.0, SVG Export Plug-In . SVG Version: 6.00 Build 0)  -->
<!DOCTYPE svg PUBLIC "-//W3C//DTD SVG 1.1//EN" "http://www.w3.org/Graphics/SVG/1.1/DTD/svg11.dtd">
<svg version="1.1" id="Layer_1" xmlns="http://www.w3.org/2000/svg" xmlns:xlink="http://www.w3.org/1999/xlink" x="0px" y="0px"
	 width="217px" height="217px" viewBox="0 0 217 217" enable-background="new 0 0 217 217" xml:space="preserve">
<g>
	<g>
		<path fill="#F89928" d="M50.591,51.875h55.686v148.846H50.591V51.875L50.591,51.875z"/>
	</g>
	<g>
		<g enable-background="new    ">
			<path fill="#5A5A5A" d="M22.067,204.17v-0.729c-0.914-0.094-1.733-0.457-2.46-1.09l0.73-0.87c0.56,0.486,1.136,0.776,1.73,0.87
				v-1.94c-0.753-0.18-1.305-0.417-1.655-0.71c-0.35-0.293-0.525-0.729-0.525-1.305c0-0.577,0.202-1.049,0.605-1.415
				c0.403-0.367,0.928-0.566,1.575-0.601v-0.5h0.64v0.511c0.733,0.053,1.426,0.303,2.08,0.75l-0.65,0.92
				c-0.44-0.313-0.917-0.507-1.43-0.58v1.88h0.03c0.767,0.18,1.33,0.423,1.69,0.729s0.54,0.752,0.54,1.335
				c0,0.584-0.207,1.059-0.62,1.426c-0.413,0.366-0.96,0.566-1.64,0.6v0.72H22.067z M21.362,197.715
				c-0.17,0.15-0.255,0.337-0.255,0.561s0.066,0.399,0.2,0.53c0.133,0.13,0.387,0.255,0.76,0.375v-1.73
				C21.767,197.477,21.532,197.565,21.362,197.715z M23.467,202.101c0.187-0.153,0.28-0.347,0.28-0.58s-0.073-0.419-0.22-0.556
				c-0.147-0.136-0.42-0.265-0.82-0.385v1.8C23.027,202.347,23.281,202.254,23.467,202.101z"/>
			<path fill="#5A5A5A" d="M26.727,202.545c-0.473-0.656-0.71-1.535-0.71-2.635s0.237-1.979,0.71-2.635
				c0.474-0.657,1.187-0.985,2.14-0.985c0.953,0,1.667,0.328,2.14,0.985c0.473,0.656,0.71,1.535,0.71,2.635s-0.237,1.979-0.71,2.635
				c-0.474,0.657-1.187,0.985-2.14,0.985C27.914,203.53,27.201,203.202,26.727,202.545z M27.572,198.021
				c-0.277,0.479-0.415,1.109-0.415,1.89s0.138,1.41,0.415,1.89c0.276,0.48,0.708,0.721,1.295,0.721s1.015-0.238,1.285-0.715
				s0.405-1.108,0.405-1.896c0-0.786-0.135-1.418-0.405-1.895s-0.699-0.716-1.285-0.716S27.849,197.54,27.572,198.021z"/>
			<path fill="#5A5A5A" d="M33.277,196.46h1.18v3.41l3.2-3.41h1.5l-2.81,3.061l2.85,3.93h-1.4l-2.32-3.06l-1.02,1.1v1.96h-1.18
				V196.46z"/>
		</g>
	</g>
	<g>
		<g enable-background="new    ">
			<path fill="#5A5A5A" d="M17.086,175.842v-0.729c-0.914-0.094-1.733-0.457-2.46-1.09l0.73-0.87c0.56,0.486,1.136,0.776,1.73,0.87
				v-1.94c-0.753-0.18-1.305-0.417-1.655-0.71c-0.35-0.293-0.525-0.729-0.525-1.305c0-0.577,0.202-1.049,0.605-1.415
				c0.403-0.367,0.928-0.566,1.575-0.601v-0.5h0.64v0.511c0.733,0.053,1.426,0.303,2.08,0.75l-0.65,0.92
				c-0.44-0.313-0.917-0.507-1.43-0.58v1.88h0.03c0.767,0.18,1.33,0.423,1.69,0.729s0.54,0.752,0.54,1.335
				c0,0.584-0.207,1.059-0.62,1.426c-0.413,0.366-0.96,0.566-1.64,0.6v0.72H17.086z M16.381,169.387
				c-0.17,0.15-0.255,0.337-0.255,0.561s0.066,0.399,0.2,0.53c0.133,0.13,0.387,0.255,0.76,0.375v-1.73
				C16.786,169.148,16.551,169.237,16.381,169.387z M18.486,173.772c0.187-0.153,0.28-0.347,0.28-0.58s-0.073-0.419-0.22-0.556
				c-0.147-0.136-0.42-0.265-0.82-0.385v1.8C18.046,174.019,18.299,173.926,18.486,173.772z"/>
			<path fill="#5A5A5A" d="M20.736,168.132h2.54v6.99h-1.12v-5.94h-1.42V168.132z"/>
			<path fill="#5A5A5A" d="M25.556,174.217c-0.473-0.656-0.71-1.535-0.71-2.635s0.237-1.979,0.71-2.635
				c0.474-0.657,1.187-0.985,2.14-0.985c0.953,0,1.667,0.328,2.14,0.985c0.473,0.656,0.71,1.535,0.71,2.635s-0.237,1.979-0.71,2.635
				c-0.474,0.657-1.187,0.985-2.14,0.985C26.742,175.202,26.029,174.874,25.556,174.217z M26.401,169.692
				c-0.277,0.479-0.415,1.109-0.415,1.89s0.138,1.41,0.415,1.89c0.276,0.48,0.708,0.721,1.295,0.721s1.015-0.238,1.285-0.715
				s0.405-1.108,0.405-1.896c0-0.786-0.135-1.418-0.405-1.895s-0.699-0.716-1.285-0.716S26.677,169.212,26.401,169.692z"/>
			<path fill="#5A5A5A" d="M32.106,168.132h1.18v3.41l3.2-3.41h1.5l-2.81,3.061l2.85,3.93h-1.4l-2.32-3.06l-1.02,1.1v1.96h-1.18
				V168.132z"/>
		</g>
	</g>
	<g>
		<g enable-background="new    ">
			<path fill="#5A5A5A" d="M13.392,147.504v-0.729c-0.914-0.094-1.733-0.457-2.46-1.09l0.73-0.87c0.56,0.486,1.136,0.776,1.73,0.87
				v-1.94c-0.753-0.18-1.305-0.417-1.655-0.71c-0.35-0.293-0.525-0.729-0.525-1.305c0-0.577,0.202-1.049,0.605-1.415
				c0.403-0.367,0.928-0.566,1.575-0.601v-0.5h0.64v0.511c0.733,0.053,1.426,0.303,2.08,0.75l-0.65,0.92
				c-0.44-0.313-0.917-0.507-1.43-0.58v1.88h0.03c0.767,0.18,1.33,0.423,1.69,0.729s0.54,0.752,0.54,1.335
				c0,0.584-0.207,1.059-0.62,1.426c-0.413,0.366-0.96,0.566-1.64,0.6v0.72H13.392z M12.687,141.049
				c-0.17,0.15-0.255,0.337-0.255,0.561s0.066,0.399,0.2,0.53c0.133,0.13,0.387,0.255,0.76,0.375v-1.73
				C13.091,140.811,12.856,140.899,12.687,141.049z M14.792,145.435c0.187-0.153,0.28-0.347,0.28-0.58s-0.073-0.419-0.22-0.556
				c-0.147-0.136-0.42-0.265-0.82-0.385v1.8C14.352,145.681,14.605,145.588,14.792,145.435z"/>
			<path fill="#5A5A5A" d="M20.461,142.524c0.2-0.273,0.3-0.55,0.3-0.83s-0.106-0.519-0.32-0.715
				c-0.213-0.197-0.483-0.295-0.81-0.295c-0.573,0-1.05,0.293-1.43,0.88l-0.95-0.55c0.307-0.461,0.645-0.807,1.015-1.04
				c0.37-0.233,0.846-0.351,1.43-0.351s1.095,0.186,1.535,0.555c0.44,0.37,0.66,0.875,0.66,1.516c0,0.359-0.094,0.703-0.28,1.03
				c-0.187,0.326-0.53,0.746-1.03,1.26l-1.64,1.67h3.17v1.13h-4.78v-1l2.12-2.13C19.925,143.174,20.261,142.798,20.461,142.524z"/>
			<path fill="#5A5A5A" d="M23.941,145.879c-0.473-0.656-0.71-1.535-0.71-2.635s0.237-1.979,0.71-2.635
				c0.474-0.657,1.187-0.985,2.14-0.985c0.953,0,1.667,0.328,2.14,0.985c0.473,0.656,0.71,1.535,0.71,2.635s-0.237,1.979-0.71,2.635
				c-0.474,0.657-1.187,0.985-2.14,0.985C25.127,146.864,24.415,146.536,23.941,145.879z M24.786,141.354
				c-0.277,0.479-0.415,1.109-0.415,1.89s0.138,1.41,0.415,1.89c0.276,0.48,0.708,0.721,1.295,0.721s1.015-0.238,1.285-0.715
				s0.405-1.108,0.405-1.896c0-0.786-0.135-1.418-0.405-1.895s-0.699-0.716-1.285-0.716S25.063,140.874,24.786,141.354z"/>
			<path fill="#5A5A5A" d="M30.491,139.794h1.18v3.41l3.2-3.41h1.5l-2.81,3.061l2.85,3.93h-1.4l-2.32-3.06l-1.02,1.1v1.96h-1.18
				V139.794z"/>
		</g>
	</g>
	<g>
		<g enable-background="new    ">
			<path fill="#5A5A5A" d="M13.392,119.166v-0.729c-0.914-0.094-1.733-0.457-2.46-1.09l0.73-0.87c0.56,0.486,1.136,0.776,1.73,0.87
				v-1.94c-0.753-0.18-1.305-0.417-1.655-0.71c-0.35-0.293-0.525-0.729-0.525-1.305c0-0.577,0.202-1.049,0.605-1.415
				c0.403-0.367,0.928-0.566,1.575-0.601v-0.5h0.64v0.511c0.733,0.053,1.426,0.303,2.08,0.75l-0.65,0.92
				c-0.44-0.313-0.917-0.507-1.43-0.58v1.88h0.03c0.767,0.18,1.33,0.423,1.69,0.729s0.54,0.752,0.54,1.335
				c0,0.584-0.207,1.059-0.62,1.426c-0.413,0.366-0.96,0.566-1.64,0.6v0.72H13.392z M12.687,112.711
				c-0.17,0.15-0.255,0.337-0.255,0.561s0.066,0.399,0.2,0.53c0.133,0.13,0.387,0.255,0.76,0.375v-1.73
				C13.091,112.473,12.856,112.562,12.687,112.711z M14.792,117.097c0.187-0.153,0.28-0.347,0.28-0.58s-0.073-0.419-0.22-0.556
				c-0.147-0.136-0.42-0.265-0.82-0.385v1.8C14.352,117.343,14.605,117.25,14.792,117.097z"/>
			<path fill="#5A5A5A" d="M17.521,112.506v-1.05h4.09v0.92l-1.69,1.891c0.64,0.02,1.14,0.222,1.5,0.604
				c0.36,0.384,0.54,0.842,0.54,1.375c0,0.714-0.242,1.273-0.725,1.681c-0.483,0.406-1.105,0.609-1.865,0.609
				c-0.76,0-1.503-0.243-2.23-0.729l0.5-0.95c0.573,0.399,1.173,0.6,1.8,0.6c0.407,0,0.742-0.095,1.005-0.285
				c0.264-0.189,0.395-0.463,0.395-0.819s-0.146-0.642-0.44-0.855c-0.293-0.213-0.7-0.319-1.22-0.319c-0.26,0-0.51,0.036-0.75,0.109
				v-0.899l1.62-1.881H17.521z"/>
			<path fill="#5A5A5A" d="M23.831,117.541c-0.473-0.656-0.71-1.535-0.71-2.635s0.237-1.979,0.71-2.635
				c0.474-0.657,1.187-0.985,2.14-0.985c0.953,0,1.667,0.328,2.14,0.985c0.473,0.656,0.71,1.535,0.71,2.635s-0.237,1.979-0.71,2.635
				c-0.474,0.657-1.187,0.985-2.14,0.985C25.018,118.526,24.305,118.198,23.831,117.541z M24.676,113.017
				c-0.277,0.479-0.415,1.109-0.415,1.89s0.138,1.41,0.415,1.89c0.276,0.48,0.708,0.721,1.295,0.721s1.015-0.238,1.285-0.715
				s0.405-1.108,0.405-1.896c0-0.786-0.135-1.418-0.405-1.895s-0.699-0.716-1.285-0.716S24.953,112.536,24.676,113.017z"/>
			<path fill="#5A5A5A" d="M30.381,111.456h1.18v3.41l3.2-3.41h1.5l-2.81,3.061l2.85,3.93h-1.4l-2.32-3.06l-1.02,1.1v1.96h-1.18
				V111.456z"/>
		</g>
	</g>
	<g>
		<g enable-background="new    ">
			<path fill="#5A5A5A" d="M13.392,90.821v-0.729c-0.914-0.094-1.733-0.457-2.46-1.09l0.73-0.87c0.56,0.486,1.136,0.776,1.73,0.87
				v-1.94c-0.753-0.18-1.305-0.417-1.655-0.71c-0.35-0.293-0.525-0.729-0.525-1.305c0-0.577,0.202-1.049,0.605-1.415
				c0.403-0.367,0.928-0.566,1.575-0.601v-0.5h0.64v0.511c0.733,0.053,1.426,0.303,2.08,0.75l-0.65,0.92
				c-0.44-0.313-0.917-0.507-1.43-0.58v1.88h0.03c0.767,0.18,1.33,0.423,1.69,0.729s0.54,0.752,0.54,1.335
				c0,0.584-0.207,1.059-0.62,1.426c-0.413,0.366-0.96,0.566-1.64,0.6v0.72H13.392z M12.687,84.366
				c-0.17,0.15-0.255,0.337-0.255,0.561s0.066,0.399,0.2,0.53c0.133,0.13,0.387,0.255,0.76,0.375v-1.73
				C13.091,84.128,12.856,84.217,12.687,84.366z M14.792,88.752c0.187-0.153,0.28-0.347,0.28-0.58s-0.073-0.419-0.22-0.556
				c-0.147-0.136-0.42-0.265-0.82-0.385v1.8C14.352,88.998,14.605,88.905,14.792,88.752z"/>
			<path fill="#5A5A5A" d="M20.122,87.271v-1.28h1.12v1.28h0.84v1.07h-0.84v1.76h-1.12v-1.76h-3v-1.04l2.57-4.19h1.29l-2.53,4.16
				H20.122z"/>
			<path fill="#5A5A5A" d="M23.771,89.196c-0.473-0.656-0.71-1.535-0.71-2.635s0.237-1.979,0.71-2.635
				c0.474-0.657,1.187-0.985,2.14-0.985c0.953,0,1.667,0.328,2.14,0.985c0.473,0.656,0.71,1.535,0.71,2.635s-0.237,1.979-0.71,2.635
				c-0.474,0.657-1.187,0.985-2.14,0.985C24.958,90.182,24.245,89.854,23.771,89.196z M24.616,84.672
				c-0.277,0.479-0.415,1.109-0.415,1.89s0.138,1.41,0.415,1.89c0.276,0.48,0.708,0.721,1.295,0.721s1.015-0.238,1.285-0.715
				s0.405-1.108,0.405-1.896c0-0.786-0.135-1.418-0.405-1.895s-0.699-0.716-1.285-0.716S24.893,84.191,24.616,84.672z"/>
			<path fill="#5A5A5A" d="M30.321,83.111h1.18v3.41l3.2-3.41h1.5l-2.81,3.061l2.85,3.93h-1.4l-2.32-3.06l-1.02,1.1v1.96h-1.18
				V83.111z"/>
		</g>
	</g>
	<g>
		<g enable-background="new    ">
			<path fill="#5A5A5A" d="M13.392,62.491v-0.729c-0.914-0.094-1.733-0.457-2.46-1.09l0.73-0.87c0.56,0.486,1.136,0.776,1.73,0.87
				v-1.94c-0.753-0.18-1.305-0.417-1.655-0.71c-0.35-0.293-0.525-0.729-0.525-1.305c0-0.577,0.202-1.049,0.605-1.415
				c0.403-0.367,0.928-0.566,1.575-0.601v-0.5h0.64v0.511c0.733,0.053,1.426,0.303,2.08,0.75l-0.65,0.92
				c-0.44-0.313-0.917-0.507-1.43-0.58v1.88h0.03c0.767,0.18,1.33,0.423,1.69,0.729s0.54,0.752,0.54,1.335
				c0,0.584-0.207,1.059-0.62,1.426c-0.413,0.366-0.96,0.566-1.64,0.6v0.72H13.392z M12.687,56.036
				c-0.17,0.15-0.255,0.337-0.255,0.561s0.066,0.399,0.2,0.53c0.133,0.13,0.387,0.255,0.76,0.375v-1.73
				C13.091,55.798,12.856,55.887,12.687,56.036z M14.792,60.422c0.187-0.153,0.28-0.347,0.28-0.58s-0.073-0.419-0.22-0.556
				c-0.147-0.136-0.42-0.265-0.82-0.385v1.8C14.352,60.668,14.605,60.575,14.792,60.422z"/>
			<path fill="#5A5A5A" d="M21.611,54.771v1.07h-2.95v1.72c0.293-0.16,0.626-0.24,1-0.24c0.653,0,1.216,0.197,1.69,0.59
				c0.473,0.394,0.71,0.927,0.71,1.601c0,0.673-0.247,1.231-0.74,1.675c-0.493,0.443-1.1,0.665-1.82,0.665
				c-0.94,0-1.69-0.313-2.25-0.94l0.63-0.859c0.053,0.053,0.125,0.116,0.215,0.189c0.09,0.073,0.275,0.172,0.555,0.295
				c0.28,0.124,0.586,0.186,0.92,0.186s0.637-0.101,0.91-0.3c0.273-0.2,0.41-0.492,0.41-0.875c0-0.384-0.145-0.681-0.435-0.891
				s-0.657-0.314-1.1-0.314s-0.865,0.109-1.265,0.33l-0.5-0.54v-3.36H21.611z"/>
			<path fill="#5A5A5A" d="M23.841,60.866c-0.473-0.656-0.71-1.535-0.71-2.635s0.237-1.979,0.71-2.635
				c0.474-0.657,1.187-0.985,2.14-0.985c0.953,0,1.667,0.328,2.14,0.985c0.473,0.656,0.71,1.535,0.71,2.635s-0.237,1.979-0.71,2.635
				c-0.474,0.657-1.187,0.985-2.14,0.985C25.028,61.852,24.315,61.523,23.841,60.866z M24.687,56.342
				c-0.277,0.479-0.415,1.109-0.415,1.89s0.138,1.41,0.415,1.89c0.276,0.48,0.708,0.721,1.295,0.721s1.015-0.238,1.285-0.715
				s0.405-1.108,0.405-1.896c0-0.786-0.135-1.418-0.405-1.895s-0.699-0.716-1.285-0.716S24.963,55.861,24.687,56.342z"/>
			<path fill="#5A5A5A" d="M30.392,54.781h1.18v3.41l3.2-3.41h1.5l-2.81,3.061l2.85,3.93h-1.4l-2.32-3.06l-1.02,1.1v1.96h-1.18
				V54.781z"/>
		</g>
	</g>
	<g>
		<g enable-background="new    ">
			<path fill="#5A5A5A" d="M13.392,34.152v-0.729c-0.914-0.094-1.733-0.457-2.46-1.09l0.73-0.87c0.56,0.486,1.136,0.776,1.73,0.87
				v-1.94c-0.753-0.18-1.305-0.417-1.655-0.71c-0.35-0.293-0.525-0.729-0.525-1.305c0-0.577,0.202-1.049,0.605-1.415
				c0.403-0.367,0.928-0.566,1.575-0.601v-0.5h0.64v0.511c0.733,0.053,1.426,0.303,2.08,0.75l-0.65,0.92
				c-0.44-0.313-0.917-0.507-1.43-0.58v1.88h0.03c0.767,0.18,1.33,0.423,1.69,0.729s0.54,0.752,0.54,1.335
				c0,0.584-0.207,1.059-0.62,1.426c-0.413,0.366-0.96,0.566-1.64,0.6v0.72H13.392z M12.687,27.697
				c-0.17,0.15-0.255,0.337-0.255,0.561s0.066,0.399,0.2,0.53c0.133,0.13,0.387,0.255,0.76,0.375v-1.73
				C13.091,27.459,12.856,27.548,12.687,27.697z M14.792,32.083c0.187-0.153,0.28-0.347,0.28-0.58s-0.073-0.419-0.22-0.556
				c-0.147-0.136-0.42-0.265-0.82-0.385v1.8C14.352,32.329,14.605,32.236,14.792,32.083z"/>
			<path fill="#5A5A5A" d="M20.292,27.373c-0.62,0-1.077,0.21-1.37,0.63s-0.443,0.986-0.45,1.699
				c0.167-0.187,0.406-0.361,0.72-0.524s0.66-0.245,1.04-0.245c0.626,0,1.151,0.208,1.575,0.625c0.423,0.417,0.635,0.97,0.635,1.66
				c0,0.689-0.229,1.245-0.685,1.665s-1.032,0.63-1.725,0.63c-1.12,0-1.893-0.5-2.32-1.5c-0.24-0.573-0.36-1.22-0.36-1.94
				c0-0.72,0.077-1.319,0.23-1.8c0.153-0.479,0.363-0.859,0.63-1.14c0.52-0.547,1.158-0.82,1.915-0.82
				c0.756,0,1.441,0.237,2.055,0.71l-0.59,0.87c-0.153-0.133-0.358-0.253-0.615-0.36C20.72,27.426,20.492,27.373,20.292,27.373z
				 M20.077,29.973c-0.404,0-0.74,0.111-1.01,0.335s-0.405,0.514-0.405,0.87s0.13,0.663,0.39,0.92
				c0.26,0.257,0.587,0.385,0.98,0.385c0.394,0,0.72-0.115,0.98-0.345c0.26-0.23,0.39-0.523,0.39-0.88s-0.12-0.66-0.36-0.91
				C20.801,30.098,20.48,29.973,20.077,29.973z"/>
			<path fill="#5A5A5A" d="M24.251,32.527c-0.473-0.656-0.71-1.535-0.71-2.635s0.237-1.979,0.71-2.635
				c0.474-0.657,1.187-0.985,2.14-0.985c0.953,0,1.667,0.328,2.14,0.985c0.473,0.656,0.71,1.535,0.71,2.635s-0.237,1.979-0.71,2.635
				c-0.474,0.657-1.187,0.985-2.14,0.985C25.438,33.513,24.725,33.185,24.251,32.527z M25.096,28.003
				c-0.277,0.479-0.415,1.109-0.415,1.89s0.138,1.41,0.415,1.89c0.276,0.48,0.708,0.721,1.295,0.721s1.015-0.238,1.285-0.715
				s0.405-1.108,0.405-1.896c0-0.786-0.135-1.418-0.405-1.895s-0.699-0.716-1.285-0.716S25.373,27.522,25.096,28.003z"/>
			<path fill="#5A5A5A" d="M30.801,26.442h1.18v3.41l3.2-3.41h1.5l-2.81,3.061l2.85,3.93h-1.4l-2.32-3.06l-1.02,1.1v1.96h-1.18
				V26.442z"/>
		</g>
	</g>
</g>
<g id="Layer_2">
	<rect x="135.643" y="38.975" fill="#FCBA81" width="55.694" height="162.63"/>
</g>
<g enable-background="new    ">
	<path fill="#FFFFFF" d="M76.974,62.826h2.881v12.91h-2.881v-5.079h-5.135v5.079h-2.881v-12.91h2.881v5.393h5.135V62.826z"/>
	<path fill="#FFFFFF" d="M83.031,62.826h2.881v12.91h-2.881V62.826z"/>
</g>
<g enable-background="new    ">
	<path fill="#FFFFFF" d="M155.461,60.115c0.48,0.598,1.127,0.896,1.939,0.896s1.456-0.298,1.93-0.896
		c0.475-0.597,0.712-1.413,0.712-2.447v-7.129h2.882v7.222c0,1.871-0.518,3.309-1.553,4.313c-1.033,1.004-2.357,1.505-3.971,1.505
		s-2.939-0.504-3.98-1.514c-1.04-1.01-1.561-2.444-1.561-4.304v-7.222h2.882v7.129C154.741,58.702,154.98,59.519,155.461,60.115z"/>
	<path fill="#FFFFFF" d="M168.936,53.115c-0.277,0.229-0.416,0.529-0.416,0.905s0.169,0.674,0.508,0.896
		c0.338,0.222,1.12,0.483,2.346,0.785c1.225,0.302,2.176,0.754,2.854,1.357c0.677,0.604,1.016,1.484,1.016,2.642
		s-0.434,2.096-1.302,2.816c-0.868,0.72-2.011,1.08-3.427,1.08c-2.044,0-3.885-0.757-5.521-2.271l1.717-2.105
		c1.392,1.219,2.678,1.828,3.86,1.828c0.529,0,0.944-0.113,1.247-0.342c0.301-0.228,0.452-0.535,0.452-0.923
		s-0.16-0.695-0.479-0.924c-0.32-0.228-0.955-0.458-1.902-0.692c-1.503-0.357-2.602-0.822-3.297-1.395
		c-0.696-0.572-1.044-1.472-1.044-2.696c0-1.226,0.44-2.171,1.32-2.836c0.88-0.664,1.979-0.997,3.297-0.997
		c0.862,0,1.724,0.147,2.586,0.443s1.612,0.714,2.253,1.256l-1.459,2.105c-1.121-0.85-2.277-1.274-3.473-1.274
		C169.59,52.773,169.212,52.888,168.936,53.115z"/>
</g>
</svg>
