<?xml version="1.0" encoding="utf-8"?>
<!-- Generator: Adobe Illustrator 16.0.0, SVG Export Plug-In . SVG Version: 6.00 Build 0)  -->
<!DOCTYPE svg PUBLIC "-//W3C//DTD SVG 1.1//EN" "http://www.w3.org/Graphics/SVG/1.1/DTD/svg11.dtd">
<svg version="1.1" xmlns="http://www.w3.org/2000/svg" xmlns:xlink="http://www.w3.org/1999/xlink" x="0px" y="0px" width="217px"
	 height="217px" viewBox="0 0 217 217" enable-background="new 0 0 217 217" xml:space="preserve">
<g id="Layer_1">
	<g>
		<g>
			<path fill="#1A809B" d="M61.494,163.13h45.511v27.908H61.494V163.13L61.494,163.13z M134.245,74.896h45.514v116.142h-45.514
				V74.896L134.245,74.896z"/>
		</g>
		<g>
			<text transform="matrix(1 0 0 1 33.1943 191.752)" fill="#676868" font-family="'Montserrat-Regular'" font-size="10.9683">14</text>
		</g>
		<g>
			<text transform="matrix(1 0 0 1 33.1943 145.3271)" fill="#676868" font-family="'Montserrat-Regular'" font-size="10.9683">15</text>
		</g>
		<g>
			<text transform="matrix(1 0 0 1 33.1943 98.8896)" fill="#676868" font-family="'Montserrat-Regular'" font-size="10.9683">16</text>
		</g>
		<g>
			<text transform="matrix(1 0 0 1 33.1943 52.4668)" fill="#676868" font-family="'Montserrat-Regular'" font-size="10.9683">17</text>
		</g>
		<g>
			<text transform="matrix(1 0 0 1 70.6504 214.4287)" fill="#676868" font-family="'Montserrat-Regular'" font-size="10.9683">2000</text>
		</g>
		<g>
			<text transform="matrix(1 0 0 1 145.6201 214.4287)" fill="#676868" font-family="'Montserrat-Regular'" font-size="10.9683">2013</text>
		</g>
	</g>
</g>
<g id="label">
	
		<text transform="matrix(-4.371139e-008 -1 1 -4.371139e-008 20.1177 198.6699)" fill="#676868" font-family="'Montserrat-Regular'" font-size="12.0651">per 1000 college aged residents</text>
</g>
</svg>
