<?xml version="1.0" encoding="utf-8"?>
<!-- Generator: Adobe Illustrator 19.2.0, SVG Export Plug-In . SVG Version: 6.00 Build 0)  -->
<svg version="1.1" id="Layer_1" xmlns="http://www.w3.org/2000/svg" xmlns:xlink="http://www.w3.org/1999/xlink" x="0px" y="0px"
	 viewBox="0 0 217 217" style="enable-background:new 0 0 217 217;" xml:space="preserve">
<style type="text/css">
	.st0{fill:#505150;}
</style>
<g>
	<defs>
		<rect id="SVGID_1_" x="73.4" y="59.2" width="56.4" height="138.3"/>
	</defs>
	<use xlink:href="#SVGID_1_"  style="overflow:visible;fill-rule:evenodd;clip-rule:evenodd;fill:#1D809B;"/>
	<clipPath id="SVGID_2_">
		<use xlink:href="#SVGID_1_"  style="overflow:visible;"/>
	</clipPath>
</g>
<g>
	<defs>
		<rect id="SVGID_3_" x="145.6" y="41.1" width="56.4" height="156.3"/>
	</defs>
	<use xlink:href="#SVGID_3_"  style="overflow:visible;fill-rule:evenodd;clip-rule:evenodd;fill:#1D809B;"/>
	<clipPath id="SVGID_4_">
		<use xlink:href="#SVGID_3_"  style="overflow:visible;"/>
	</clipPath>
</g>
<g>
	<g>
		<path class="st0" d="M54,197.6L54,197.6c0-2.4,1.5-4.4,3.7-4.4c2.2,0,3.6,1.9,3.6,4.3v0c0,2.4-1.5,4.3-3.7,4.3
			C55.5,201.9,54,200,54,197.6z M59.8,197.6L59.8,197.6c0-1.7-0.9-3-2.1-3s-2.1,1.3-2.1,3v0c0,1.7,0.8,3,2.1,3
			C59,200.6,59.8,199.2,59.8,197.6z"/>
	</g>
</g>
<g>
	<g>
		<path class="st0" d="M53.9,153.2l0.9-1.1c0.7,0.6,1.4,1,2.2,1c1,0,1.7-0.6,1.7-1.5v0c0-0.9-0.7-1.4-1.7-1.4
			c-0.6,0-1.1,0.2-1.5,0.4l-0.9-0.6l0.2-4.1h5v1.3H56l-0.1,2c0.4-0.1,0.8-0.2,1.3-0.2c1.6,0,2.9,0.9,2.9,2.6v0
			c0,1.7-1.2,2.8-3.1,2.8C55.7,154.5,54.7,154,53.9,153.2z"/>
	</g>
</g>
<g>
	<g>
		<path class="st0" d="M50.1,100l-1.5,0.4l-0.3-1.2l2.3-0.7h1v8.5h-1.5V100z"/>
		<path class="st0" d="M53.4,102.8L53.4,102.8c0-2.4,1.5-4.4,3.7-4.4c2.2,0,3.6,1.9,3.6,4.3v0c0,2.4-1.5,4.3-3.7,4.3
			C54.8,107.1,53.4,105.2,53.4,102.8z M59.2,102.8L59.2,102.8c0-1.7-0.9-3-2.1-3s-2.1,1.3-2.1,3v0c0,1.7,0.8,3,2.1,3
			C58.4,105.8,59.2,104.5,59.2,102.8z"/>
	</g>
</g>
<g>
	<g>
		<path class="st0" d="M50.1,52.7l-1.5,0.4l-0.3-1.2l2.3-0.7h1v8.5h-1.5V52.7z"/>
		<path class="st0" d="M53.3,58.5l0.9-1.1c0.7,0.6,1.4,1,2.2,1c1,0,1.7-0.6,1.7-1.5v0c0-0.9-0.7-1.4-1.7-1.4c-0.6,0-1.1,0.2-1.5,0.4
			l-0.9-0.6l0.2-4.1h5v1.3h-3.7l-0.1,2c0.4-0.1,0.8-0.2,1.3-0.2c1.6,0,2.9,0.9,2.9,2.6v0c0,1.7-1.2,2.8-3.1,2.8
			C55.1,59.8,54,59.3,53.3,58.5z"/>
	</g>
</g>
<g>
	<g>
		<path class="st0" d="M48.5,11.1l2.9-2.5c1.2-1,1.6-1.5,1.6-2.3c0-0.8-0.6-1.3-1.4-1.3s-1.3,0.4-1.9,1.3l-1-0.8
			c0.8-1.1,1.6-1.8,3.1-1.8c1.6,0,2.8,1,2.8,2.5v0c0,1.3-0.7,2-2.2,3.3L50.6,11h4v1.3h-6.1V11.1z"/>
		<path class="st0" d="M56,8.1L56,8.1c0-2.4,1.5-4.4,3.7-4.4c2.2,0,3.6,1.9,3.6,4.3v0c0,2.4-1.5,4.3-3.7,4.3
			C57.4,12.4,56,10.5,56,8.1z M61.8,8.1L61.8,8.1c0-1.7-0.9-3-2.1-3s-2.1,1.3-2.1,3v0c0,1.7,0.8,3,2.1,3S61.8,9.7,61.8,8.1z"/>
	</g>
</g>
<g>
	<g>
		<path class="st0" d="M91.3,213.8l2.9-2.5c1.2-1,1.6-1.5,1.6-2.3c0-0.8-0.6-1.3-1.4-1.3c-0.8,0-1.3,0.4-1.9,1.3l-1-0.8
			c0.8-1.1,1.6-1.8,3.1-1.8c1.6,0,2.8,1,2.8,2.5v0c0,1.3-0.7,2-2.2,3.2l-1.7,1.4h4v1.3h-6.1V213.8z"/>
		<path class="st0" d="M98.8,210.8L98.8,210.8c0-2.4,1.5-4.4,3.7-4.4c2.2,0,3.6,1.9,3.6,4.3v0c0,2.4-1.5,4.3-3.7,4.3
			C100.2,215.1,98.8,213.2,98.8,210.8z M104.6,210.8L104.6,210.8c0-1.7-0.9-3-2.1-3c-1.3,0-2.1,1.3-2.1,3v0c0,1.7,0.8,3,2.1,3
			S104.6,212.4,104.6,210.8z"/>
		<path class="st0" d="M107.5,210.8L107.5,210.8c0-2.4,1.5-4.4,3.7-4.4c2.2,0,3.6,1.9,3.6,4.3v0c0,2.4-1.5,4.3-3.7,4.3
			C108.9,215.1,107.5,213.2,107.5,210.8z M113.3,210.8L113.3,210.8c0-1.7-0.9-3-2.1-3c-1.3,0-2.1,1.3-2.1,3v0c0,1.7,0.8,3,2.1,3
			S113.3,212.4,113.3,210.8z"/>
		<path class="st0" d="M116.2,210.8L116.2,210.8c0-2.4,1.5-4.4,3.7-4.4c2.2,0,3.6,1.9,3.6,4.3v0c0,2.4-1.5,4.3-3.7,4.3
			C117.6,215.1,116.2,213.2,116.2,210.8z M122,210.8L122,210.8c0-1.7-0.9-3-2.1-3c-1.3,0-2.1,1.3-2.1,3v0c0,1.7,0.8,3,2.1,3
			S122,212.4,122,210.8z"/>
	</g>
</g>
<g>
	<g>
		<path class="st0" d="M163.6,213.8l2.9-2.5c1.2-1,1.6-1.5,1.6-2.3c0-0.8-0.6-1.3-1.4-1.3s-1.3,0.4-1.9,1.3l-1-0.8
			c0.8-1.1,1.6-1.8,3.1-1.8c1.6,0,2.8,1,2.8,2.5v0c0,1.3-0.7,2-2.2,3.2l-1.7,1.4h4v1.3h-6.1V213.8z"/>
		<path class="st0" d="M171,210.8L171,210.8c0-2.4,1.5-4.4,3.7-4.4c2.2,0,3.6,1.9,3.6,4.3v0c0,2.4-1.5,4.3-3.7,4.3
			C172.5,215.1,171,213.2,171,210.8z M176.8,210.8L176.8,210.8c0-1.7-0.9-3-2.1-3c-1.3,0-2.1,1.3-2.1,3v0c0,1.7,0.8,3,2.1,3
			S176.8,212.4,176.8,210.8z"/>
		<path class="st0" d="M181.2,208l-1.5,0.4l-0.3-1.2l2.3-0.7h1v8.5h-1.5V208z"/>
		<path class="st0" d="M184.3,213.6l1-1c0.6,0.7,1.3,1.1,2.2,1.1c0.8,0,1.5-0.5,1.5-1.3v0c0-0.8-0.8-1.3-1.9-1.3h-0.7l-0.2-0.9
			l2.3-2.4h-3.6v-1.3h5.6v1.1L188,210c1.3,0.2,2.5,0.8,2.5,2.4c0,0,0,0,0,0c0,1.5-1.2,2.7-2.9,2.7
			C186.1,215.1,185,214.5,184.3,213.6z"/>
	</g>
</g>
<g>
	<path class="st0" d="M22.2,202.2v-1.5h1.1c-0.7-0.5-1.2-1.1-1.2-2.1c0-1.5,1.2-3,3.3-3h0c2.1,0,3.3,1.4,3.3,3c0,1-0.5,1.7-1.1,2.1
		h2.9v1.5H22.2z M25.4,197.2L25.4,197.2c-1.2,0-2.1,0.8-2.1,1.8s0.8,1.8,2,1.8h0c1.2,0,2-0.9,2-1.8C27.4,198,26.6,197.2,25.4,197.2z
		"/>
	<path class="st0" d="M25.4,194.6L25.4,194.6c-1.8,0-3.3-1.3-3.3-3.1c0-2,1.6-3,3.4-3c0.1,0,0.3,0,0.4,0v4.7c1-0.2,1.6-0.9,1.6-1.8
		c0-0.7-0.3-1.2-0.8-1.7l0.8-0.9c0.7,0.6,1.2,1.4,1.2,2.6C28.7,193.1,27.3,194.6,25.4,194.6z M24.9,189.9c-0.9,0.1-1.7,0.6-1.7,1.6
		c0,0.9,0.7,1.5,1.7,1.6V189.9z"/>
	<path class="st0" d="M22.2,187v-1.5h1.4c-0.9-0.4-1.6-1.1-1.5-2.2h1.5v0.1c0,1.3,0.8,2.2,2.5,2.2h2.4v1.5H22.2z"/>
	<path class="st0" d="M21.6,177.2l0.4,1.5l-1.2,0.3l-0.7-2.3v-1h8.5v1.5H21.6z"/>
	<path class="st0" d="M24.3,173.9L24.3,173.9c-2.4,0-4.4-1.5-4.4-3.7c0-2.2,1.9-3.6,4.3-3.6h0c2.4,0,4.3,1.5,4.3,3.7
		C28.7,172.4,26.7,173.9,24.3,173.9z M24.3,168.1L24.3,168.1c-1.7,0-3,0.9-3,2.1c0,1.3,1.3,2.1,3,2.1h0c1.7,0,3-0.8,3-2.1
		S26,168.1,24.3,168.1z"/>
	<path class="st0" d="M24.3,165.2L24.3,165.2c-2.4,0-4.4-1.5-4.4-3.7c0-2.2,1.9-3.6,4.3-3.6h0c2.4,0,4.3,1.5,4.3,3.7
		C28.7,163.8,26.7,165.2,24.3,165.2z M24.3,159.4L24.3,159.4c-1.7,0-3,0.9-3,2.1c0,1.3,1.3,2.1,3,2.1h0c1.7,0,3-0.8,3-2.1
		S26,159.4,24.3,159.4z"/>
	<path class="st0" d="M24.3,156.5L24.3,156.5c-2.4,0-4.4-1.5-4.4-3.7c0-2.2,1.9-3.6,4.3-3.6h0c2.4,0,4.3,1.5,4.3,3.7
		C28.7,155.1,26.7,156.5,24.3,156.5z M24.3,150.7L24.3,150.7c-1.7,0-3,0.9-3,2.1c0,1.3,1.3,2.1,3,2.1h0c1.7,0,3-0.8,3-2.1
		S26,150.7,24.3,150.7z"/>
	<path class="st0" d="M25.4,144.3L25.4,144.3c-1.8,0-3.3-1.4-3.3-3.3c0-1.2,0.4-1.9,1.1-2.5l1,0.9c-0.5,0.4-0.8,0.9-0.8,1.6
		c0,1.1,0.9,1.8,2,1.8h0c1.1,0,2-0.8,2-1.9c0-0.7-0.3-1.2-0.8-1.6l0.9-0.9c0.7,0.6,1.2,1.4,1.2,2.6
		C28.7,142.9,27.2,144.3,25.4,144.3z"/>
	<path class="st0" d="M25.4,137.7L25.4,137.7c-1.8,0-3.3-1.4-3.3-3.4c0-1.9,1.5-3.4,3.3-3.4h0c1.8,0,3.3,1.4,3.3,3.4
		C28.7,136.2,27.2,137.7,25.4,137.7z M25.4,132.4L25.4,132.4c-1.1,0-2.1,0.8-2.1,1.9c0,1.2,0.9,1.9,2,1.9h0c1.1,0,2-0.8,2-1.9
		C27.4,133.1,26.5,132.4,25.4,132.4z"/>
	<path class="st0" d="M19.8,129.3v-1.5h8.8v1.5H19.8z"/>
	<path class="st0" d="M19.8,125.9v-1.5h8.8v1.5H19.8z"/>
	<path class="st0" d="M25.4,122.9L25.4,122.9c-1.8,0-3.3-1.3-3.3-3.1c0-2,1.6-3,3.4-3c0.1,0,0.3,0,0.4,0v4.7c1-0.2,1.6-0.9,1.6-1.8
		c0-0.7-0.3-1.2-0.8-1.7l0.8-0.9c0.7,0.6,1.2,1.4,1.2,2.6C28.7,121.5,27.3,122.9,25.4,122.9z M24.9,118.2c-0.9,0.1-1.7,0.6-1.7,1.6
		c0,0.9,0.7,1.5,1.7,1.6V118.2z"/>
	<path class="st0" d="M29.7,115.3l-1.1-0.5c0.4-0.7,0.7-1.4,0.7-2.3c0-1.3-0.7-2-1.9-2h-0.5c0.7,0.5,1.2,1.2,1.2,2.2
		c0,1.5-1.1,2.9-3,2.9h0c-1.9,0-3-1.4-3-2.9c0-1.1,0.5-1.7,1.1-2.2h-0.9v-1.5h5c1.1,0,1.9,0.3,2.4,0.8c0.6,0.6,0.9,1.5,0.9,2.6
		C30.5,113.5,30.2,114.5,29.7,115.3z M25,110.5L25,110.5c-1.1,0-1.8,0.9-1.8,1.9s0.7,1.8,1.7,1.8h0c1,0,1.8-0.8,1.8-1.8
		C26.8,111.4,26.1,110.5,25,110.5z"/>
	<path class="st0" d="M25.4,107.6L25.4,107.6c-1.8,0-3.3-1.3-3.3-3.1c0-2,1.6-3,3.4-3c0.1,0,0.3,0,0.4,0v4.7c1-0.2,1.6-0.9,1.6-1.8
		c0-0.7-0.3-1.2-0.8-1.7l0.8-0.9c0.7,0.6,1.2,1.4,1.2,2.6C28.7,106.2,27.3,107.6,25.4,107.6z M24.9,102.9c-0.9,0.1-1.7,0.6-1.7,1.6
		c0,0.9,0.7,1.5,1.7,1.6V102.9z"/>
	<path class="st0" d="M28.5,92.6h-0.8c0.5,0.4,0.9,1.1,0.9,2.1c0,1.2-0.7,2.3-2,2.3h0c-1.4,0-2.1-1.1-2.1-2.6c0-0.8,0.1-1.3,0.3-1.8
		h-0.1c-0.9,0-1.4,0.6-1.4,1.6c0,0.7,0.2,1.2,0.4,1.8l-1.2,0.4c-0.3-0.7-0.5-1.4-0.5-2.4c0-1.9,1-2.8,2.7-2.8h3.8V92.6z M25.9,92.5
		c-0.1,0.4-0.3,0.9-0.3,1.5c0,0.9,0.4,1.5,1,1.5h0c0.6,0,0.9-0.5,0.9-1.2c0-1-0.5-1.7-1.3-1.7H25.9z"/>
	<path class="st0" d="M29.7,89.4l-1.1-0.5c0.4-0.7,0.7-1.4,0.7-2.3c0-1.3-0.7-2-1.9-2h-0.5c0.7,0.5,1.2,1.2,1.2,2.2
		c0,1.5-1.1,2.9-3,2.9h0c-1.9,0-3-1.4-3-2.9c0-1.1,0.5-1.7,1.1-2.2h-0.9v-1.5h5c1.1,0,1.9,0.3,2.4,0.8c0.6,0.6,0.9,1.5,0.9,2.6
		C30.5,87.6,30.2,88.6,29.7,89.4z M25,84.6L25,84.6c-1.1,0-1.8,0.9-1.8,1.9c0,1,0.7,1.8,1.7,1.8h0c1,0,1.8-0.8,1.8-1.8
		C26.8,85.4,26.1,84.6,25,84.6z"/>
	<path class="st0" d="M25.4,81.7L25.4,81.7c-1.8,0-3.3-1.3-3.3-3.1c0-2,1.6-3,3.4-3c0.1,0,0.3,0,0.4,0v4.7c1-0.2,1.6-0.9,1.6-1.8
		c0-0.7-0.3-1.2-0.8-1.7l0.8-0.9c0.7,0.6,1.2,1.4,1.2,2.6C28.7,80.3,27.3,81.7,25.4,81.7z M24.9,77c-0.9,0.1-1.7,0.6-1.7,1.6
		c0,0.9,0.7,1.5,1.7,1.6V77z"/>
	<path class="st0" d="M25.4,74.4L25.4,74.4c-2.1,0-3.3-1.4-3.3-2.9c0-1,0.5-1.7,1.1-2.2h-3.4v-1.5h8.8v1.5h-1.1
		c0.7,0.5,1.2,1.1,1.2,2.2C28.6,73,27.5,74.4,25.4,74.4z M25.4,69.3L25.4,69.3c-1.2,0-2.1,0.9-2.1,1.8c0,1,0.8,1.8,2,1.8h0
		c1.2,0,2-0.8,2-1.8C27.4,70.2,26.6,69.3,25.4,69.3z"/>
	<path class="st0" d="M22.2,62.5V61h1.4c-0.9-0.4-1.6-1.1-1.5-2.2h1.5v0.1c0,1.3,0.8,2.2,2.5,2.2h2.4v1.5H22.2z"/>
	<path class="st0" d="M25.4,58.1L25.4,58.1c-1.8,0-3.3-1.3-3.3-3.1c0-2,1.6-3,3.4-3c0.1,0,0.3,0,0.4,0v4.7c1-0.2,1.6-0.9,1.6-1.8
		c0-0.7-0.3-1.2-0.8-1.7l0.8-0.9c0.7,0.6,1.2,1.4,1.2,2.6C28.7,56.7,27.3,58.1,25.4,58.1z M24.9,53.4C24,53.5,23.2,54,23.2,55
		c0,0.9,0.7,1.5,1.7,1.6V53.4z"/>
	<path class="st0" d="M27.7,51l-1-0.6c0.5-0.7,0.8-1.4,0.8-2.1c0-0.6-0.3-1-0.7-1h0c-0.5,0-0.7,0.7-0.9,1.4c-0.3,0.9-0.6,2-1.9,2h0
		c-1.2,0-1.9-1-1.9-2.3c0-0.8,0.3-1.7,0.7-2.3l1,0.6c-0.4,0.6-0.6,1.3-0.6,1.8c0,0.6,0.3,0.9,0.6,0.9h0c0.5,0,0.6-0.7,0.9-1.4
		c0.3-0.9,0.7-2,1.8-2h0c1.3,0,2,1,2,2.4C28.6,49.2,28.3,50.2,27.7,51z"/>
	<path class="st0" d="M19.8,44.4v-1.6h1.4v1.6H19.8z M22.2,44.4v-1.5h6.3v1.5H22.2z"/>
	<path class="st0" d="M25.4,41.4L25.4,41.4c-2.1,0-3.3-1.4-3.3-2.9c0-1,0.5-1.7,1.1-2.2h-3.4v-1.5h8.8v1.5h-1.1
		c0.7,0.5,1.2,1.1,1.2,2.2C28.6,39.9,27.5,41.4,25.4,41.4z M25.4,36.2L25.4,36.2c-1.2,0-2.1,0.9-2.1,1.8c0,1,0.8,1.8,2,1.8h0
		c1.2,0,2-0.8,2-1.8C27.4,37.1,26.6,36.2,25.4,36.2z"/>
	<path class="st0" d="M25.4,33.3L25.4,33.3c-1.8,0-3.3-1.3-3.3-3.1c0-2,1.6-3,3.4-3c0.1,0,0.3,0,0.4,0v4.7c1-0.2,1.6-0.9,1.6-1.8
		c0-0.7-0.3-1.2-0.8-1.7l0.8-0.9c0.7,0.6,1.2,1.4,1.2,2.6C28.7,31.9,27.3,33.3,25.4,33.3z M24.9,28.7c-0.9,0.1-1.7,0.6-1.7,1.6
		c0,0.9,0.7,1.5,1.7,1.6V28.7z"/>
	<path class="st0" d="M22.2,25.8v-1.5h1c-0.6-0.4-1.1-1-1.1-2c0-1.4,1-2.3,2.4-2.3h4v1.5h-3.6c-1,0-1.5,0.5-1.5,1.4
		c0,0.8,0.6,1.4,1.6,1.4h3.6v1.5H22.2z"/>
	<path class="st0" d="M26.8,18h-3.3v0.8h-1.2V18h-1.7v-1.5h1.7v-1.7h1.2v1.7h3.1c0.6,0,0.8-0.3,0.8-0.8c0-0.3-0.1-0.6-0.2-0.9h1.2
		c0.2,0.4,0.3,0.8,0.3,1.3C28.6,17.3,28.1,18,26.8,18z"/>
	<path class="st0" d="M27.7,13.9l-1-0.6c0.5-0.7,0.8-1.4,0.8-2.1c0-0.6-0.3-1-0.7-1h0c-0.5,0-0.7,0.7-0.9,1.4c-0.3,0.9-0.6,2-1.9,2
		h0c-1.2,0-1.9-1-1.9-2.3c0-0.8,0.3-1.7,0.7-2.3l1,0.6c-0.4,0.6-0.6,1.3-0.6,1.8c0,0.6,0.3,0.9,0.6,0.9h0c0.5,0,0.6-0.7,0.9-1.4
		c0.3-0.9,0.7-2,1.8-2h0c1.3,0,2,1,2,2.4C28.6,12.1,28.3,13.1,27.7,13.9z"/>
</g>
</svg>
