<?xml version="1.0" encoding="utf-8"?>
<!-- Generator: Adobe Illustrator 16.0.0, SVG Export Plug-In . SVG Version: 6.00 Build 0)  -->
<!DOCTYPE svg PUBLIC "-//W3C//DTD SVG 1.1//EN" "http://www.w3.org/Graphics/SVG/1.1/DTD/svg11.dtd">
<svg version="1.1" id="Layer_1" xmlns="http://www.w3.org/2000/svg" xmlns:xlink="http://www.w3.org/1999/xlink" x="0px" y="0px"
	 width="217px" height="217px" viewBox="0 0 217 217" enable-background="new 0 0 217 217" xml:space="preserve">
<g id="Layer_1_1_">
	<g>
		<g>
			<path fill="#1A809B" d="M61.494,163.13h45.511v27.908H61.494V163.13L61.494,163.13z M134.245,74.896h45.514v116.142h-45.514
				V74.896L134.245,74.896z"/>
		</g>
		<g>
			<g enable-background="new    ">
				<path fill="#676868" d="M33.512,184.085h2.786v7.667H35.07v-6.516h-1.558V184.085z"/>
				<path fill="#676868" d="M41.069,188.647v-1.403h1.229v1.403h0.921v1.174h-0.921v1.931h-1.229v-1.931h-3.291v-1.141l2.819-4.596
					h1.415l-2.775,4.563H41.069z"/>
			</g>
		</g>
		<g>
			<g enable-background="new    ">
				<path fill="#676868" d="M33.512,137.66h2.786v7.667H35.07v-6.516h-1.558V137.66z"/>
				<path fill="#676868" d="M42.704,137.649v1.174h-3.236v1.887c0.322-0.176,0.688-0.264,1.097-0.264
					c0.716,0,1.334,0.216,1.854,0.647s0.779,1.016,0.779,1.755c0,0.738-0.271,1.351-0.812,1.837
					c-0.542,0.486-1.207,0.729-1.997,0.729c-1.031,0-1.854-0.344-2.468-1.031l0.691-0.943c0.059,0.059,0.137,0.128,0.236,0.209
					c0.099,0.08,0.302,0.188,0.609,0.323s0.644,0.203,1.009,0.203c0.365,0,0.698-0.11,0.998-0.329c0.3-0.22,0.45-0.539,0.45-0.96
					s-0.159-0.746-0.477-0.977c-0.318-0.229-0.721-0.345-1.207-0.345c-0.486,0-0.949,0.12-1.388,0.361l-0.548-0.592v-3.686H42.704z"
					/>
			</g>
		</g>
		<g>
			<g enable-background="new    ">
				<path fill="#676868" d="M33.512,91.223h2.786v7.667H35.07v-6.516h-1.558V91.223z"/>
				<path fill="#676868" d="M41.256,92.243c-0.68,0-1.181,0.23-1.503,0.69c-0.322,0.461-0.486,1.083-0.493,1.865
					c0.183-0.205,0.446-0.396,0.79-0.576c0.344-0.179,0.724-0.269,1.141-0.269c0.688,0,1.263,0.229,1.728,0.686
					s0.696,1.063,0.696,1.82s-0.25,1.366-0.751,1.826c-0.501,0.461-1.132,0.691-1.892,0.691c-1.229,0-2.077-0.549-2.545-1.646
					c-0.263-0.629-0.395-1.338-0.395-2.128c0-0.789,0.084-1.447,0.252-1.974c0.168-0.527,0.398-0.943,0.691-1.251
					c0.57-0.6,1.27-0.899,2.1-0.899s1.581,0.26,2.254,0.779l-0.647,0.954c-0.168-0.146-0.393-0.278-0.674-0.396
					C41.726,92.302,41.475,92.243,41.256,92.243z M41.02,95.095c-0.442,0-0.812,0.122-1.108,0.367
					c-0.296,0.245-0.444,0.563-0.444,0.954c0,0.392,0.143,0.728,0.428,1.01c0.285,0.281,0.643,0.422,1.075,0.422
					c0.431,0,0.79-0.126,1.075-0.378c0.285-0.253,0.428-0.574,0.428-0.966c0-0.391-0.131-0.724-0.395-0.998
					S41.462,95.095,41.02,95.095z"/>
			</g>
		</g>
		<g>
			<g enable-background="new    ">
				<path fill="#676868" d="M33.512,44.8h2.786v7.667H35.07v-6.516h-1.558V44.8z"/>
				<path fill="#676868" d="M37.877,47.005V44.8h5.396v1.151l-3.247,6.516h-1.426l3.17-6.493h-2.72v1.031H37.877z"/>
			</g>
		</g>
		<g>
			<g enable-background="new    ">
				<path fill="#676868" d="M74.72,209.756c0.219-0.3,0.329-0.603,0.329-0.91c0-0.307-0.117-0.568-0.351-0.784
					c-0.234-0.216-0.53-0.323-0.889-0.323c-0.629,0-1.151,0.321-1.568,0.965l-1.042-0.604c0.336-0.504,0.708-0.884,1.113-1.141
					c0.406-0.256,0.929-0.384,1.568-0.384c0.64,0,1.201,0.203,1.684,0.609c0.483,0.405,0.724,0.959,0.724,1.661
					c0,0.395-0.103,0.771-0.307,1.13s-0.581,0.819-1.13,1.382l-1.799,1.832h3.477v1.239h-5.243v-1.097l2.325-2.336
					C74.131,210.469,74.5,210.056,74.72,209.756z"/>
				<path fill="#676868" d="M78.536,213.437c-0.519-0.721-0.779-1.684-0.779-2.891c0-1.206,0.26-2.17,0.779-2.89
					c0.519-0.721,1.302-1.081,2.347-1.081c1.046,0,1.828,0.36,2.347,1.081c0.52,0.72,0.779,1.684,0.779,2.89
					c0,1.207-0.259,2.17-0.779,2.891c-0.519,0.72-1.301,1.08-2.347,1.08C79.838,214.517,79.055,214.156,78.536,213.437z
					 M79.463,208.473c-0.303,0.526-0.455,1.218-0.455,2.073s0.152,1.547,0.455,2.073c0.304,0.526,0.777,0.789,1.42,0.789
					s1.113-0.261,1.41-0.784c0.296-0.522,0.444-1.215,0.444-2.078c0-0.862-0.148-1.556-0.444-2.078
					c-0.296-0.523-0.766-0.784-1.41-0.784S79.767,207.946,79.463,208.473z"/>
				<path fill="#676868" d="M86.083,213.437c-0.519-0.721-0.779-1.684-0.779-2.891c0-1.206,0.26-2.17,0.779-2.89
					c0.519-0.721,1.302-1.081,2.347-1.081c1.046,0,1.828,0.36,2.347,1.081c0.52,0.72,0.779,1.684,0.779,2.89
					c0,1.207-0.259,2.17-0.779,2.891c-0.519,0.72-1.301,1.08-2.347,1.08C87.384,214.517,86.602,214.156,86.083,213.437z
					 M87.009,208.473c-0.303,0.526-0.455,1.218-0.455,2.073s0.152,1.547,0.455,2.073c0.304,0.526,0.777,0.789,1.42,0.789
					s1.113-0.261,1.41-0.784c0.296-0.522,0.444-1.215,0.444-2.078c0-0.862-0.148-1.556-0.444-2.078
					c-0.296-0.523-0.766-0.784-1.41-0.784S87.313,207.946,87.009,208.473z"/>
				<path fill="#676868" d="M93.628,213.437c-0.519-0.721-0.779-1.684-0.779-2.891c0-1.206,0.26-2.17,0.779-2.89
					c0.519-0.721,1.302-1.081,2.347-1.081c1.046,0,1.828,0.36,2.347,1.081c0.52,0.72,0.779,1.684,0.779,2.89
					c0,1.207-0.259,2.17-0.779,2.891c-0.519,0.72-1.301,1.08-2.347,1.08C94.93,214.517,94.147,214.156,93.628,213.437z
					 M94.555,208.473c-0.303,0.526-0.455,1.218-0.455,2.073s0.152,1.547,0.455,2.073c0.304,0.526,0.777,0.789,1.42,0.789
					s1.113-0.261,1.41-0.784c0.296-0.522,0.444-1.215,0.444-2.078c0-0.862-0.148-1.556-0.444-2.078
					c-0.296-0.523-0.766-0.784-1.41-0.784S94.859,207.946,94.555,208.473z"/>
			</g>
		</g>
		<g>
			<g enable-background="new    ">
				<path fill="#676868" d="M149.689,209.756c0.219-0.3,0.329-0.603,0.329-0.91c0-0.307-0.117-0.568-0.351-0.784
					c-0.234-0.216-0.531-0.323-0.889-0.323c-0.629,0-1.152,0.321-1.568,0.965l-1.043-0.604c0.337-0.504,0.708-0.884,1.113-1.141
					c0.406-0.256,0.93-0.384,1.568-0.384c0.641,0,1.201,0.203,1.684,0.609c0.483,0.405,0.725,0.959,0.725,1.661
					c0,0.395-0.103,0.771-0.307,1.13c-0.205,0.358-0.582,0.819-1.131,1.382l-1.799,1.832h3.478v1.239h-5.243v-1.097l2.326-2.336
					C149.101,210.469,149.471,210.056,149.689,209.756z"/>
				<path fill="#676868" d="M153.506,213.437c-0.52-0.721-0.779-1.684-0.779-2.891c0-1.206,0.26-2.17,0.779-2.89
					c0.52-0.721,1.302-1.081,2.348-1.081c1.045,0,1.828,0.36,2.347,1.081c0.52,0.72,0.778,1.684,0.778,2.89
					c0,1.207-0.259,2.17-0.778,2.891c-0.519,0.72-1.302,1.08-2.347,1.08C154.808,214.517,154.025,214.156,153.506,213.437z
					 M154.433,208.473c-0.304,0.526-0.455,1.218-0.455,2.073s0.151,1.547,0.455,2.073s0.776,0.789,1.421,0.789
					c0.643,0,1.113-0.261,1.409-0.784c0.296-0.522,0.444-1.215,0.444-2.078c0-0.862-0.148-1.556-0.444-2.078
					c-0.296-0.523-0.767-0.784-1.409-0.784C155.209,207.684,154.736,207.946,154.433,208.473z"/>
				<path fill="#676868" d="M159.944,206.762h2.786v7.667h-1.229v-6.516h-1.558V206.762z"/>
				<path fill="#676868" d="M164.65,207.913v-1.151h4.485v1.009l-1.854,2.073c0.702,0.022,1.251,0.243,1.646,0.664
					c0.395,0.42,0.592,0.923,0.592,1.508c0,0.782-0.266,1.396-0.795,1.843c-0.53,0.446-1.212,0.669-2.046,0.669
					c-0.833,0-1.649-0.267-2.446-0.801l0.549-1.042c0.629,0.438,1.287,0.658,1.975,0.658c0.445,0,0.813-0.104,1.102-0.313
					s0.434-0.508,0.434-0.899c0-0.391-0.16-0.704-0.482-0.938c-0.322-0.234-0.768-0.352-1.338-0.352
					c-0.285,0-0.56,0.041-0.822,0.121v-0.987l1.776-2.063H164.65z"/>
			</g>
		</g>
	</g>
</g>
<g id="label">
	<g enable-background="new    ">
		<path fill="#676868" d="M13.603,194.254c0-0.861,0.298-1.597,0.894-2.208c0.595-0.611,1.388-0.917,2.377-0.917
			s1.793,0.304,2.413,0.91c0.619,0.607,0.929,1.316,0.929,2.124c0,0.809-0.354,1.534-1.062,2.178h3.306v1.352h-8.76v-1.352h1.122
			C14.009,195.811,13.603,195.114,13.603,194.254z M16.921,196.365c0.611,0,1.112-0.186,1.502-0.555
			c0.391-0.371,0.585-0.82,0.585-1.352s-0.192-0.994-0.579-1.388c-0.386-0.394-0.887-0.591-1.502-0.591s-1.126,0.192-1.532,0.578
			c-0.406,0.387-0.609,0.85-0.609,1.389s0.203,0.992,0.609,1.363C15.801,196.18,16.31,196.365,16.921,196.365z"/>
		<path fill="#676868" d="M17.5,183.611v5.031c0.467-0.031,0.843-0.244,1.128-0.639c0.286-0.395,0.429-0.845,0.429-1.352
			c0-0.805-0.254-1.416-0.761-1.834l0.845-0.771c0.716,0.691,1.074,1.592,1.074,2.702c0,0.901-0.3,1.667-0.899,2.298
			c-0.599,0.632-1.403,0.947-2.413,0.947c-1.009,0-1.812-0.321-2.406-0.965c-0.596-0.644-0.894-1.401-0.894-2.274
			c0-0.872,0.264-1.614,0.791-2.226c0.526-0.611,1.253-0.918,2.178-0.918H17.5z M16.438,188.643v-3.68
			c-0.539,0-0.953,0.17-1.243,0.508c-0.289,0.338-0.434,0.754-0.434,1.248s0.15,0.939,0.452,1.333
			C15.516,188.446,15.924,188.643,16.438,188.643z"/>
		<path fill="#676868" d="M14.967,178.762c0,0.668,0.217,1.17,0.651,1.508c0.434,0.338,1.018,0.508,1.749,0.508h2.751v1.352h-6.419
			v-1.352h1.291c-0.401-0.218-0.731-0.514-0.989-0.887c-0.257-0.375-0.39-0.771-0.398-1.189l1.364-0.012
			C14.967,178.714,14.967,178.738,14.967,178.762z"/>
		<path fill="#676868" d="M11.685,174.66v-3.064h8.434v1.352h-7.167v1.713H11.685z"/>
		<path fill="#676868" d="M19.026,168.846c-0.792,0.57-1.853,0.855-3.18,0.855s-2.387-0.285-3.179-0.855
			c-0.792-0.572-1.188-1.432-1.188-2.582s0.396-2.012,1.188-2.582c0.792-0.571,1.852-0.857,3.179-0.857s2.388,0.286,3.18,0.857
			c0.792,0.57,1.188,1.432,1.188,2.582S19.818,168.273,19.026,168.846z M13.566,167.826c0.579,0.334,1.34,0.5,2.28,0.5
			c0.941,0,1.701-0.166,2.28-0.5c0.58-0.334,0.869-0.855,0.869-1.563c0-0.708-0.287-1.225-0.862-1.551s-1.338-0.488-2.287-0.488
			c-0.948,0-1.711,0.162-2.286,0.488s-0.862,0.843-0.862,1.551C12.698,166.971,12.987,167.492,13.566,167.826z"/>
		<path fill="#676868" d="M19.026,160.545c-0.792,0.57-1.853,0.855-3.18,0.855s-2.387-0.285-3.179-0.855
			c-0.792-0.572-1.188-1.432-1.188-2.582s0.396-2.012,1.188-2.582c0.792-0.571,1.852-0.857,3.179-0.857s2.388,0.286,3.18,0.857
			c0.792,0.57,1.188,1.432,1.188,2.582S19.818,159.973,19.026,160.545z M13.566,159.525c0.579,0.334,1.34,0.5,2.28,0.5
			c0.941,0,1.701-0.166,2.28-0.5c0.58-0.334,0.869-0.855,0.869-1.563c0-0.708-0.287-1.225-0.862-1.551s-1.338-0.488-2.287-0.488
			c-0.948,0-1.711,0.162-2.286,0.488s-0.862,0.843-0.862,1.551C12.698,158.67,12.987,159.191,13.566,159.525z"/>
		<path fill="#676868" d="M19.026,152.244c-0.792,0.57-1.853,0.855-3.18,0.855s-2.387-0.285-3.179-0.855
			c-0.792-0.572-1.188-1.432-1.188-2.582s0.396-2.012,1.188-2.582c0.792-0.571,1.852-0.857,3.179-0.857s2.388,0.286,3.18,0.857
			c0.792,0.57,1.188,1.432,1.188,2.582S19.818,151.672,19.026,152.244z M13.566,151.225c0.579,0.334,1.34,0.5,2.28,0.5
			c0.941,0,1.701-0.166,2.28-0.5c0.58-0.334,0.869-0.855,0.869-1.563c0-0.708-0.287-1.225-0.862-1.551s-1.338-0.488-2.287-0.488
			c-0.948,0-1.711,0.162-2.286,0.488s-0.862,0.843-0.862,1.551C12.698,150.369,12.987,150.891,13.566,151.225z"/>
		<path fill="#676868" d="M20.215,138.381c0,0.894-0.304,1.662-0.911,2.305c-0.607,0.645-1.401,0.965-2.383,0.965
			s-1.779-0.335-2.395-1.007c-0.615-0.671-0.924-1.489-0.924-2.455s0.334-1.782,1.002-2.449l0.978,0.796
			c-0.483,0.555-0.725,1.114-0.725,1.678c0,0.563,0.188,1.051,0.562,1.465c0.374,0.415,0.856,0.622,1.447,0.622
			c0.592,0,1.093-0.205,1.503-0.615s0.615-0.915,0.615-1.515c0-0.599-0.273-1.164-0.82-1.695l0.868-0.796
			C19.82,136.459,20.215,137.359,20.215,138.381z"/>
		<path fill="#676868" d="M19.256,129.043c0.639,0.644,0.959,1.447,0.959,2.413s-0.32,1.77-0.959,2.413
			c-0.64,0.644-1.422,0.965-2.347,0.965s-1.708-0.321-2.347-0.965c-0.64-0.644-0.96-1.447-0.96-2.413s0.32-1.77,0.96-2.413
			c0.639-0.644,1.422-0.965,2.347-0.965S18.616,128.399,19.256,129.043z M18.423,132.91c0.391-0.383,0.585-0.867,0.585-1.454
			s-0.194-1.071-0.585-1.454c-0.39-0.382-0.895-0.572-1.514-0.572s-1.124,0.19-1.515,0.572c-0.39,0.383-0.585,0.867-0.585,1.454
			s0.195,1.071,0.585,1.454c0.391,0.382,0.896,0.572,1.515,0.572S18.033,133.292,18.423,132.91z"/>
		<path fill="#676868" d="M20.118,125.194v1.352h-8.952v-1.352H20.118z"/>
		<path fill="#676868" d="M20.118,121.889v1.352h-8.952v-1.352H20.118z"/>
		<path fill="#676868" d="M17.5,113.962v5.031c0.467-0.032,0.843-0.245,1.128-0.64c0.286-0.394,0.429-0.844,0.429-1.352
			c0-0.804-0.254-1.415-0.761-1.834l0.845-0.771c0.716,0.691,1.074,1.593,1.074,2.703c0,0.9-0.3,1.666-0.899,2.298
			c-0.599,0.632-1.403,0.947-2.413,0.947c-1.009,0-1.812-0.321-2.406-0.966c-0.596-0.643-0.894-1.4-0.894-2.273
			s0.264-1.615,0.791-2.227c0.526-0.611,1.253-0.917,2.178-0.917H17.5z M16.438,118.993v-3.68c-0.539,0-0.953,0.169-1.243,0.507
			c-0.289,0.338-0.434,0.754-0.434,1.248c0,0.495,0.15,0.939,0.452,1.334S15.924,118.993,16.438,118.993z"/>
		<path fill="#676868" d="M13.699,106.542h5.599c1.134,0,1.984,0.308,2.552,0.923s0.851,1.405,0.851,2.371
			c0,0.965-0.302,1.838-0.905,2.617l-1.025-0.639c0.475-0.627,0.712-1.262,0.712-1.9c0-0.64-0.165-1.146-0.494-1.521
			c-0.33-0.374-0.857-0.561-1.581-0.561h-0.82c0.378,0.201,0.68,0.489,0.905,0.863c0.225,0.374,0.337,0.795,0.337,1.261
			c0,0.853-0.297,1.553-0.893,2.1c-0.595,0.547-1.335,0.82-2.22,0.82s-1.625-0.273-2.22-0.82c-0.596-0.547-0.894-1.245-0.894-2.093
			c0-0.85,0.351-1.539,1.05-2.07h-0.953V106.542z M16.661,111.549c0.527,0,0.981-0.163,1.363-0.488
			c0.383-0.326,0.573-0.765,0.573-1.315s-0.185-0.997-0.555-1.339c-0.37-0.342-0.83-0.513-1.382-0.513
			c-0.551,0-1.017,0.173-1.399,0.519c-0.382,0.346-0.573,0.792-0.573,1.339c0,0.548,0.197,0.983,0.592,1.31
			C15.674,111.386,16.135,111.549,16.661,111.549z"/>
		<path fill="#676868" d="M17.5,98.615v5.031c0.467-0.032,0.843-0.245,1.128-0.639c0.286-0.394,0.429-0.845,0.429-1.352
			c0-0.804-0.254-1.416-0.761-1.834l0.845-0.772c0.716,0.692,1.074,1.593,1.074,2.703c0,0.901-0.3,1.667-0.899,2.298
			c-0.599,0.631-1.403,0.947-2.413,0.947c-1.009,0-1.812-0.322-2.406-0.965c-0.596-0.644-0.894-1.401-0.894-2.274
			c0-0.873,0.264-1.615,0.791-2.226c0.526-0.611,1.253-0.917,2.178-0.917H17.5z M16.438,103.646v-3.68
			c-0.539,0-0.953,0.169-1.243,0.507c-0.289,0.338-0.434,0.754-0.434,1.249s0.15,0.939,0.452,1.333
			C15.516,103.45,15.924,103.646,16.438,103.646z"/>
		<path fill="#676868" d="M20.118,88.625v1.231h-0.856c0.636,0.531,0.953,1.243,0.953,2.136c0,0.667-0.189,1.221-0.567,1.659
			c-0.378,0.438-0.883,0.658-1.514,0.658c-0.632,0-1.104-0.233-1.418-0.7s-0.471-1.098-0.471-1.895v-1.749h-0.241
			c-0.853,0-1.279,0.475-1.279,1.423c0,0.596,0.218,1.215,0.652,1.858l-0.845,0.604c-0.619-0.78-0.93-1.665-0.93-2.654
			c0-0.756,0.191-1.374,0.573-1.852c0.383-0.479,0.983-0.719,1.804-0.719H20.118z M17.729,89.977h-0.543v1.521
			c0,0.973,0.306,1.459,0.917,1.459c0.313,0,0.553-0.121,0.718-0.362s0.247-0.577,0.247-1.007s-0.12-0.806-0.361-1.128
			C18.465,90.138,18.14,89.977,17.729,89.977z"/>
		<path fill="#676868" d="M13.699,80.809h5.599c1.134,0,1.984,0.308,2.552,0.923s0.851,1.405,0.851,2.371
			c0,0.965-0.302,1.838-0.905,2.618l-1.025-0.64c0.475-0.628,0.712-1.261,0.712-1.9s-0.165-1.146-0.494-1.521
			c-0.33-0.374-0.857-0.561-1.581-0.561h-0.82c0.378,0.201,0.68,0.488,0.905,0.862c0.225,0.374,0.337,0.795,0.337,1.261
			c0,0.853-0.297,1.553-0.893,2.1c-0.595,0.547-1.335,0.82-2.22,0.82s-1.625-0.273-2.22-0.82c-0.596-0.547-0.894-1.245-0.894-2.094
			s0.351-1.538,1.05-2.068h-0.953V80.809z M16.661,85.815c0.527,0,0.981-0.163,1.363-0.488c0.383-0.326,0.573-0.765,0.573-1.315
			s-0.185-0.997-0.555-1.339s-0.83-0.513-1.382-0.513c-0.551,0-1.017,0.173-1.399,0.519c-0.382,0.346-0.573,0.792-0.573,1.339
			s0.197,0.983,0.592,1.31C15.674,85.652,16.135,85.815,16.661,85.815z"/>
		<path fill="#676868" d="M17.5,72.882v5.031c0.467-0.032,0.843-0.246,1.128-0.64c0.286-0.395,0.429-0.845,0.429-1.352
			c0-0.804-0.254-1.415-0.761-1.834l0.845-0.772c0.716,0.692,1.074,1.593,1.074,2.703c0,0.9-0.3,1.667-0.899,2.298
			c-0.599,0.632-1.403,0.947-2.413,0.947c-1.009,0-1.812-0.321-2.406-0.965c-0.596-0.644-0.894-1.401-0.894-2.274
			c0-0.872,0.264-1.614,0.791-2.226c0.526-0.611,1.253-0.917,2.178-0.917H17.5z M16.438,77.913v-3.681
			c-0.539,0-0.953,0.169-1.243,0.507c-0.289,0.338-0.434,0.754-0.434,1.249s0.15,0.939,0.452,1.333
			C15.516,77.716,15.924,77.913,16.438,77.913z"/>
		<path fill="#676868" d="M19.298,70.903c-0.611,0.603-1.416,0.904-2.413,0.904s-1.794-0.31-2.389-0.929
			c-0.596-0.619-0.894-1.357-0.894-2.214s0.362-1.546,1.086-2.069h-3.522v-1.352h8.952v1.352h-0.965
			c0.707,0.499,1.062,1.227,1.062,2.184C20.215,69.592,19.909,70.3,19.298,70.903z M16.939,70.457c0.615,0,1.115-0.197,1.502-0.592
			c0.386-0.394,0.579-0.856,0.579-1.388c0-0.53-0.195-0.98-0.585-1.351c-0.391-0.37-0.892-0.556-1.503-0.556
			c-0.61,0-1.122,0.186-1.532,0.556s-0.615,0.824-0.615,1.363s0.205,1.001,0.615,1.388C15.811,70.264,16.323,70.457,16.939,70.457z"
			/>
		<path fill="#676868" d="M14.967,56.617c0,0.668,0.217,1.171,0.651,1.509c0.434,0.338,1.018,0.507,1.749,0.507h2.751v1.351h-6.419
			v-1.351h1.291c-0.401-0.218-0.731-0.514-0.989-0.888c-0.257-0.374-0.39-0.77-0.398-1.188l1.364-0.013
			C14.967,56.569,14.967,56.594,14.967,56.617z"/>
		<path fill="#676868" d="M17.5,49.223v5.031c0.467-0.032,0.843-0.246,1.128-0.64c0.286-0.395,0.429-0.845,0.429-1.352
			c0-0.804-0.254-1.415-0.761-1.834l0.845-0.772c0.716,0.692,1.074,1.593,1.074,2.703c0,0.9-0.3,1.667-0.899,2.298
			c-0.599,0.632-1.403,0.947-2.413,0.947c-1.009,0-1.812-0.321-2.406-0.965c-0.596-0.644-0.894-1.401-0.894-2.274
			c0-0.872,0.264-1.614,0.791-2.226c0.526-0.611,1.253-0.917,2.178-0.917H17.5z M16.438,54.254v-3.681
			c-0.539,0-0.953,0.169-1.243,0.507c-0.289,0.338-0.434,0.754-0.434,1.249s0.15,0.939,0.452,1.333
			C15.516,54.057,15.924,54.254,16.438,54.254z"/>
		<path fill="#676868" d="M18.2,43.166c0.611,0,1.1,0.221,1.466,0.663s0.549,1.01,0.549,1.701c0,0.467-0.085,0.951-0.254,1.454
			s-0.405,0.947-0.712,1.333L18.2,47.666c0.563-0.748,0.844-1.472,0.844-2.172c0-0.306-0.07-0.547-0.211-0.724
			s-0.319-0.266-0.537-0.266c-0.321,0-0.61,0.427-0.868,1.279c-0.024,0.064-0.04,0.112-0.049,0.145
			c-0.361,1.335-0.965,2.003-1.81,2.003c-0.595,0-1.071-0.231-1.43-0.693c-0.357-0.463-0.537-1.064-0.537-1.804
			c0-0.74,0.218-1.44,0.652-2.1l1.001,0.507c-0.346,0.522-0.519,1.09-0.519,1.701c0,0.321,0.059,0.583,0.175,0.784
			s0.292,0.302,0.524,0.302c0.21,0,0.362-0.104,0.459-0.314c0.072-0.145,0.141-0.348,0.205-0.608
			c0.064-0.262,0.129-0.493,0.193-0.694s0.137-0.396,0.217-0.585s0.193-0.393,0.338-0.609C17.138,43.383,17.589,43.166,18.2,43.166z
			"/>
		<path fill="#676868" d="M12.421,41.549c-0.169,0.169-0.37,0.253-0.604,0.253s-0.435-0.084-0.604-0.253s-0.253-0.37-0.253-0.604
			s0.084-0.435,0.253-0.604s0.37-0.253,0.604-0.253s0.435,0.084,0.604,0.253s0.253,0.37,0.253,0.604S12.59,41.38,12.421,41.549z
			 M20.118,40.282v1.351h-6.419v-1.351H20.118z"/>
		<path fill="#676868" d="M19.298,37.833c-0.611,0.603-1.416,0.904-2.413,0.904s-1.794-0.31-2.389-0.929
			c-0.596-0.619-0.894-1.357-0.894-2.214s0.362-1.546,1.086-2.069h-3.522v-1.352h8.952v1.352h-0.965
			c0.707,0.499,1.062,1.227,1.062,2.184C20.215,36.521,19.909,37.229,19.298,37.833z M16.939,37.387
			c0.615,0,1.115-0.197,1.502-0.592c0.386-0.394,0.579-0.856,0.579-1.388c0-0.53-0.195-0.98-0.585-1.351
			c-0.391-0.37-0.892-0.556-1.503-0.556c-0.61,0-1.122,0.186-1.532,0.556s-0.615,0.824-0.615,1.363s0.205,1.001,0.615,1.388
			C15.811,37.193,16.323,37.387,16.939,37.387z"/>
		<path fill="#676868" d="M17.5,24.248v5.031c0.467-0.032,0.843-0.246,1.128-0.64c0.286-0.395,0.429-0.845,0.429-1.352
			c0-0.804-0.254-1.415-0.761-1.834l0.845-0.772c0.716,0.692,1.074,1.593,1.074,2.703c0,0.9-0.3,1.667-0.899,2.298
			c-0.599,0.632-1.403,0.947-2.413,0.947c-1.009,0-1.812-0.321-2.406-0.965c-0.596-0.644-0.894-1.401-0.894-2.274
			c0-0.872,0.264-1.614,0.791-2.226c0.526-0.611,1.253-0.917,2.178-0.917H17.5z M16.438,29.279v-3.681
			c-0.539,0-0.953,0.169-1.243,0.507c-0.289,0.338-0.434,0.754-0.434,1.249s0.15,0.939,0.452,1.333
			C15.516,29.082,15.924,29.279,16.438,29.279z"/>
		<path fill="#676868" d="M16.644,21.413h3.475v1.351h-6.419v-1.351h1.171c-0.395-0.218-0.704-0.518-0.93-0.899
			c-0.225-0.382-0.338-0.794-0.338-1.236c0-0.725,0.222-1.31,0.664-1.756s1.082-0.67,1.918-0.67h3.934v1.352h-3.523
			c-1.182,0-1.773,0.491-1.773,1.472c0,0.467,0.155,0.873,0.465,1.219C15.596,21.24,16.048,21.413,16.644,21.413z"/>
		<path fill="#676868" d="M14.785,13.389h3.258c0.306,0,0.549-0.08,0.729-0.241c0.182-0.16,0.271-0.386,0.271-0.676
			c0-0.289-0.141-0.566-0.422-0.832l0.953-0.555c0.427,0.475,0.64,0.999,0.64,1.574s-0.199,1.065-0.598,1.472
			c-0.397,0.406-0.935,0.609-1.61,0.609h-3.222v0.809h-1.086V14.74h-2.015v-1.352h2.015V11.7h1.086V13.389z"/>
		<path fill="#676868" d="M18.2,5.438c0.611,0,1.1,0.221,1.466,0.663s0.549,1.01,0.549,1.701c0,0.467-0.085,0.951-0.254,1.454
			s-0.405,0.947-0.712,1.333L18.2,9.938c0.563-0.748,0.844-1.472,0.844-2.172c0-0.306-0.07-0.547-0.211-0.724
			s-0.319-0.266-0.537-0.266c-0.321,0-0.61,0.427-0.868,1.279c-0.024,0.064-0.04,0.112-0.049,0.145
			c-0.361,1.335-0.965,2.003-1.81,2.003c-0.595,0-1.071-0.231-1.43-0.693c-0.357-0.463-0.537-1.064-0.537-1.804
			c0-0.74,0.218-1.44,0.652-2.1l1.001,0.507c-0.346,0.522-0.519,1.09-0.519,1.701c0,0.321,0.059,0.583,0.175,0.784
			s0.292,0.302,0.524,0.302c0.21,0,0.362-0.104,0.459-0.314c0.072-0.145,0.141-0.348,0.205-0.608
			c0.064-0.262,0.129-0.493,0.193-0.694s0.137-0.396,0.217-0.585s0.193-0.393,0.338-0.609C17.138,5.655,17.589,5.438,18.2,5.438z"/>
	</g>
</g>
</svg>
