<?xml version="1.0" encoding="utf-8"?>
<!-- Generator: Adobe Illustrator 19.2.0, SVG Export Plug-In . SVG Version: 6.00 Build 0)  -->
<svg version="1.1" id="Layer_1" xmlns="http://www.w3.org/2000/svg" xmlns:xlink="http://www.w3.org/1999/xlink" x="0px" y="0px"
	 viewBox="0 0 250 250" style="enable-background:new 0 0 250 250;" xml:space="preserve">
<style type="text/css">
	.st0{fill:#0C7F9B;}
	.st1{clip-path:url(#SVGID_4_);fill:none;stroke:#989798;stroke-width:2;stroke-linejoin:round;stroke-miterlimit:10;}
	.st2{fill:none;stroke:#989798;stroke-width:2;stroke-linejoin:round;stroke-miterlimit:10;}
	.st3{fill:none;}
	.st4{font-family:'Montserrat-SemiBold';}
	.st5{font-size:14px;}
</style>
<g>
	<g>
		<rect id="SVGID_1_" x="63.8" y="148.5" class="st0" width="57.7" height="41.1"/>
	</g>
</g>
<g>
	<g>
		<rect id="SVGID_3_" x="63.4" y="45.8" class="st0" width="174.5" height="41.1"/>
	</g>
</g>
<g>
	<g>
		<defs>
			<rect id="SVGID_2_" x="-35.1" width="416" height="249.6"/>
		</defs>
		<clipPath id="SVGID_4_">
			<use xlink:href="#SVGID_2_"  style="overflow:visible;"/>
		</clipPath>
		<line class="st1" x1="63.4" y1="220.3" x2="237.9" y2="221.5"/>
	</g>
</g>
<g>
	<line class="st2" x1="63.4" y1="221.5" x2="63.4" y2="16.2"/>
</g>
<rect x="7.6" y="160.7" class="st3" width="37.1" height="30.4"/>
<text transform="matrix(1 0 0 1 18.6248 171.1014)" class="st0 st4 st5">1990</text>
<text transform="matrix(1 0 0 1 63.3668 238.8906)" class="st0 st4 st5">5</text>
<text transform="matrix(1 0 0 1 116.7311 238.8906)" class="st0 st4 st5">10</text>
<text transform="matrix(1 0 0 1 172.8795 238.8916)" class="st0 st4 st5">15</text>
<text transform="matrix(1 0 0 1 222.7145 238.8906)" class="st0 st4 st5">20</text>
<rect x="7.6" y="58.9" class="st3" width="50.1" height="14.4"/>
<text transform="matrix(1 0 0 1 18.6248 69.2733)" class="st0 st4 st5">2011</text>
</svg>
