<?xml version="1.0" encoding="utf-8"?>
<!-- Generator: Adobe Illustrator 19.2.0, SVG Export Plug-In . SVG Version: 6.00 Build 0)  -->
<svg version="1.1" xmlns="http://www.w3.org/2000/svg" xmlns:xlink="http://www.w3.org/1999/xlink" x="0px" y="0px"
	 viewBox="0 0 250 250" style="enable-background:new 0 0 250 250;" xml:space="preserve">
<style type="text/css">
	.st0{fill:#676767;}
	.st1{font-family:'Montserrat-Regular';}
	.st2{font-size:14px;}
</style>
<g id="Layer_1">
	<g>
		<defs>
			<rect id="SVGID_1_" x="63.9" y="136.5" width="59.9" height="80.5"/>
		</defs>
		<use xlink:href="#SVGID_1_"  style="overflow:visible;fill-rule:evenodd;clip-rule:evenodd;fill:#0F7F9B;"/>
		<clipPath id="SVGID_2_">
			<use xlink:href="#SVGID_1_"  style="overflow:visible;"/>
		</clipPath>
	</g>
	<g>
		<defs>
			<rect id="SVGID_3_" x="154.8" y="56" width="59.9" height="161"/>
		</defs>
		<use xlink:href="#SVGID_3_"  style="overflow:visible;fill-rule:evenodd;clip-rule:evenodd;fill:#0F7F9B;"/>
		<clipPath id="SVGID_4_">
			<use xlink:href="#SVGID_3_"  style="overflow:visible;"/>
		</clipPath>
	</g>
</g>
<g id="labels">
	<text transform="matrix(1 0 0 1 77.8757 237.0541)" class="st0 st1 st2">1990</text>
	<text transform="matrix(1 0 0 1 169.7116 237.0541)" class="st0 st1 st2">2011</text>
	<text transform="matrix(1 0 0 1 36.4589 223.8234)" class="st0 st1 st2">0</text>
	<text transform="matrix(1 0 0 1 34.7802 183.1105)" class="st0 st1 st2">5</text>
	<text transform="matrix(1 0 0 1 29.853 141.3185)" class="st0 st1 st2">10</text>
	<text transform="matrix(1 0 0 1 30.8535 99.1642)" class="st0 st1 st2">15</text>
	<text transform="matrix(1 0 0 1 28.6894 61.7023)" class="st0 st1 st2">20</text>
	<text transform="matrix(1 0 0 1 29.2949 19.0592)" class="st0 st1 st2">25</text>
	<text transform="matrix(4.489659e-11 -1 1 4.489659e-11 19.5733 226.6646)" class="st0 st1 st2">per 1000 college aged residents</text>
</g>
</svg>
