<?xml version="1.0" encoding="utf-8"?>
<!-- Generator: Adobe Illustrator 16.0.0, SVG Export Plug-In . SVG Version: 6.00 Build 0)  -->
<!DOCTYPE svg PUBLIC "-//W3C//DTD SVG 1.1//EN" "http://www.w3.org/Graphics/SVG/1.1/DTD/svg11.dtd">
<svg version="1.1" id="Layer_1" xmlns="http://www.w3.org/2000/svg" xmlns:xlink="http://www.w3.org/1999/xlink" x="0px" y="0px"
	 width="217px" height="217px" viewBox="0 0 217 217" enable-background="new 0 0 217 217" xml:space="preserve">
<g id="Layer_1_1_">
	<g>
		<g>
			<g enable-background="new    ">
				<path fill="#5A5A5A" d="M5.309,147.144c-0.477-0.661-0.715-1.546-0.715-2.654c0-1.107,0.238-1.992,0.715-2.653
					c0.477-0.661,1.195-0.992,2.155-0.992c0.96,0,1.679,0.331,2.155,0.992s0.715,1.546,0.715,2.653c0,1.108-0.239,1.993-0.715,2.654
					s-1.195,0.992-2.155,0.992C6.504,148.136,5.786,147.805,5.309,147.144z M6.16,142.586c-0.279,0.483-0.418,1.118-0.418,1.903
					c0,0.786,0.139,1.42,0.418,1.903s0.713,0.726,1.304,0.726s1.022-0.24,1.294-0.72c0.272-0.48,0.408-1.116,0.408-1.909
					c0-0.792-0.136-1.428-0.408-1.908s-0.704-0.72-1.294-0.72S6.439,142.103,6.16,142.586z"/>
				<path fill="#5A5A5A" d="M13.98,141.313c0.289,0.312,0.433,0.689,0.433,1.133c0,0.442-0.146,0.822-0.438,1.138
					s-0.654,0.474-1.087,0.474s-0.794-0.156-1.083-0.469c-0.289-0.312-0.433-0.689-0.433-1.133s0.146-0.822,0.438-1.138
					s0.654-0.474,1.087-0.474S13.691,141,13.98,141.313z M18.079,141.015l-5.156,7.04h-1.299l5.157-7.04H18.079z M13.306,142.974
					c0.107-0.138,0.161-0.307,0.161-0.509c0-0.201-0.057-0.37-0.171-0.508s-0.253-0.207-0.418-0.207s-0.3,0.069-0.408,0.207
					s-0.161,0.307-0.161,0.508c0,0.202,0.057,0.371,0.171,0.509s0.253,0.207,0.418,0.207S13.198,143.111,13.306,142.974z
					 M17.979,145.391c0.289,0.313,0.433,0.69,0.433,1.133c0,0.443-0.146,0.823-0.438,1.139s-0.655,0.474-1.088,0.474
					s-0.794-0.156-1.083-0.469s-0.433-0.689-0.433-1.133s0.146-0.822,0.438-1.139c0.292-0.315,0.655-0.473,1.088-0.473
					S17.69,145.079,17.979,145.391z M17.324,147.072c0.107-0.137,0.161-0.307,0.161-0.508c0-0.202-0.057-0.371-0.171-0.509
					c-0.114-0.138-0.253-0.207-0.418-0.207s-0.301,0.069-0.408,0.207s-0.161,0.307-0.161,0.509c0,0.201,0.057,0.371,0.171,0.508
					c0.114,0.138,0.253,0.207,0.418,0.207S17.216,147.21,17.324,147.072z"/>
			</g>
		</g>
		<g>
			<g enable-background="new    ">
				<path fill="#5A5A5A" d="M5.277,125.05h2.558v7.04H6.708v-5.982h-1.43V125.05z"/>
				<path fill="#5A5A5A" d="M11.874,125.348c0.289,0.312,0.433,0.689,0.433,1.133c0,0.442-0.146,0.822-0.438,1.138
					s-0.654,0.474-1.087,0.474s-0.794-0.156-1.083-0.469c-0.289-0.312-0.433-0.689-0.433-1.133s0.146-0.822,0.438-1.138
					s0.654-0.474,1.087-0.474S11.585,125.035,11.874,125.348z M15.973,125.05l-5.156,7.04H9.517l5.157-7.04H15.973z M11.199,127.009
					c0.107-0.138,0.161-0.307,0.161-0.509c0-0.201-0.057-0.37-0.171-0.508s-0.253-0.207-0.418-0.207s-0.3,0.069-0.408,0.207
					s-0.161,0.307-0.161,0.508c0,0.202,0.057,0.371,0.171,0.509s0.253,0.207,0.418,0.207S11.092,127.146,11.199,127.009z
					 M15.872,129.426c0.289,0.313,0.433,0.69,0.433,1.133c0,0.443-0.146,0.823-0.438,1.139s-0.655,0.474-1.088,0.474
					s-0.794-0.156-1.083-0.469s-0.433-0.689-0.433-1.133s0.146-0.822,0.438-1.139c0.292-0.315,0.655-0.473,1.088-0.473
					S15.583,129.114,15.872,129.426z M15.217,131.107c0.107-0.137,0.161-0.307,0.161-0.508c0-0.202-0.057-0.371-0.171-0.509
					c-0.114-0.138-0.253-0.207-0.418-0.207s-0.301,0.069-0.408,0.207s-0.161,0.307-0.161,0.509c0,0.201,0.057,0.371,0.171,0.508
					c0.114,0.138,0.253,0.207,0.418,0.207S15.11,131.245,15.217,131.107z"/>
			</g>
		</g>
		<g>
			<g enable-background="new    ">
				<path fill="#5A5A5A" d="M7.722,111.829c0.202-0.275,0.302-0.555,0.302-0.836c0-0.282-0.107-0.522-0.322-0.721
					c-0.215-0.197-0.487-0.297-0.816-0.297c-0.578,0-1.057,0.296-1.44,0.887l-0.957-0.555c0.309-0.463,0.65-0.812,1.022-1.047
					s0.853-0.353,1.44-0.353s1.103,0.187,1.546,0.559c0.443,0.373,0.665,0.882,0.665,1.526c0,0.362-0.094,0.708-0.282,1.037
					s-0.534,0.752-1.037,1.269l-1.652,1.683h3.192v1.138H4.569v-1.007l2.135-2.146C7.181,112.483,7.521,112.104,7.722,111.829z"/>
				<path fill="#5A5A5A" d="M12.969,109.377c0.289,0.312,0.433,0.689,0.433,1.133c0,0.442-0.146,0.822-0.438,1.138
					s-0.654,0.474-1.087,0.474s-0.794-0.156-1.083-0.469c-0.289-0.312-0.433-0.689-0.433-1.133s0.146-0.822,0.438-1.138
					s0.654-0.474,1.087-0.474S12.68,109.064,12.969,109.377z M17.067,109.079l-5.156,7.04h-1.299l5.157-7.04H17.067z
					 M12.294,111.038c0.107-0.138,0.161-0.307,0.161-0.509c0-0.201-0.057-0.37-0.171-0.508s-0.253-0.207-0.418-0.207
					s-0.3,0.069-0.408,0.207s-0.161,0.307-0.161,0.508c0,0.202,0.057,0.371,0.171,0.509s0.253,0.207,0.418,0.207
					S12.187,111.176,12.294,111.038z M16.967,113.455c0.289,0.313,0.433,0.69,0.433,1.133c0,0.443-0.146,0.823-0.438,1.139
					s-0.655,0.474-1.088,0.474s-0.794-0.156-1.083-0.469s-0.433-0.689-0.433-1.133s0.146-0.822,0.438-1.139
					c0.292-0.315,0.655-0.473,1.088-0.473S16.678,113.144,16.967,113.455z M16.312,115.137c0.107-0.137,0.161-0.307,0.161-0.508
					c0-0.202-0.057-0.371-0.171-0.509c-0.114-0.138-0.253-0.207-0.418-0.207s-0.301,0.069-0.408,0.207s-0.161,0.307-0.161,0.509
					c0,0.201,0.057,0.371,0.171,0.508c0.114,0.138,0.253,0.207,0.418,0.207S16.205,115.274,16.312,115.137z"/>
			</g>
		</g>
		<g>
			<g enable-background="new    ">
				<path fill="#5A5A5A" d="M4.761,94.165v-1.058H8.88v0.927l-1.702,1.903c0.645,0.021,1.148,0.224,1.511,0.609
					c0.363,0.387,0.544,0.848,0.544,1.385c0,0.719-0.244,1.282-0.73,1.692c-0.487,0.409-1.113,0.614-1.878,0.614
					s-1.514-0.245-2.246-0.735l0.504-0.957c0.577,0.403,1.182,0.604,1.813,0.604c0.41,0,0.747-0.096,1.012-0.287
					s0.398-0.467,0.398-0.826c0-0.358-0.148-0.646-0.443-0.86s-0.705-0.322-1.229-0.322c-0.262,0-0.514,0.037-0.755,0.11v-0.906
					l1.632-1.894H4.761z"/>
				<path fill="#5A5A5A" d="M12.858,93.405c0.289,0.312,0.433,0.689,0.433,1.133c0,0.442-0.146,0.822-0.438,1.138
					s-0.654,0.474-1.087,0.474s-0.794-0.156-1.083-0.469c-0.289-0.312-0.433-0.689-0.433-1.133s0.146-0.822,0.438-1.138
					s0.654-0.474,1.087-0.474S12.569,93.093,12.858,93.405z M16.957,93.107l-5.156,7.04h-1.299l5.157-7.04H16.957z M12.183,95.066
					c0.107-0.138,0.161-0.307,0.161-0.509c0-0.201-0.057-0.37-0.171-0.508s-0.253-0.207-0.418-0.207s-0.3,0.069-0.408,0.207
					s-0.161,0.307-0.161,0.508c0,0.202,0.057,0.371,0.171,0.509s0.253,0.207,0.418,0.207S12.076,95.204,12.183,95.066z
					 M16.856,97.483c0.289,0.313,0.433,0.69,0.433,1.133c0,0.443-0.146,0.823-0.438,1.139s-0.655,0.474-1.088,0.474
					s-0.794-0.156-1.083-0.469s-0.433-0.689-0.433-1.133s0.146-0.822,0.438-1.139c0.292-0.315,0.655-0.473,1.088-0.473
					S16.567,97.172,16.856,97.483z M16.201,99.165c0.107-0.137,0.161-0.307,0.161-0.508c0-0.202-0.057-0.371-0.171-0.509
					c-0.114-0.138-0.253-0.207-0.418-0.207s-0.301,0.069-0.408,0.207s-0.161,0.307-0.161,0.509c0,0.201,0.057,0.371,0.171,0.508
					c0.114,0.138,0.253,0.207,0.418,0.207S16.094,99.303,16.201,99.165z"/>
			</g>
		</g>
		<g>
			<g enable-background="new    ">
				<path fill="#5A5A5A" d="M7.379,81.331v-1.289h1.128v1.289h0.846v1.078H8.507v1.772H7.379v-1.772H4.358v-1.048l2.588-4.22h1.299
					l-2.548,4.189H7.379z"/>
				<path fill="#5A5A5A" d="M12.798,77.439c0.289,0.312,0.433,0.689,0.433,1.133c0,0.442-0.146,0.822-0.438,1.138
					s-0.654,0.474-1.087,0.474s-0.794-0.156-1.083-0.469c-0.289-0.312-0.433-0.689-0.433-1.133s0.146-0.822,0.438-1.138
					s0.654-0.474,1.087-0.474S12.509,77.127,12.798,77.439z M16.896,77.142l-5.156,7.04h-1.299l5.157-7.04H16.896z M12.123,79.101
					c0.107-0.138,0.161-0.307,0.161-0.509c0-0.201-0.057-0.37-0.171-0.508s-0.253-0.207-0.418-0.207s-0.3,0.069-0.408,0.207
					s-0.161,0.307-0.161,0.508c0,0.202,0.057,0.371,0.171,0.509s0.253,0.207,0.418,0.207S12.016,79.238,12.123,79.101z
					 M16.796,81.518c0.289,0.313,0.433,0.69,0.433,1.133c0,0.443-0.146,0.823-0.438,1.139s-0.655,0.474-1.088,0.474
					s-0.794-0.156-1.083-0.469s-0.433-0.689-0.433-1.133s0.146-0.822,0.438-1.139c0.292-0.315,0.655-0.473,1.088-0.473
					S16.507,81.206,16.796,81.518z M16.141,83.199c0.107-0.137,0.161-0.307,0.161-0.508c0-0.202-0.057-0.371-0.171-0.509
					c-0.114-0.138-0.253-0.207-0.418-0.207s-0.301,0.069-0.408,0.207s-0.161,0.307-0.161,0.509c0,0.201,0.057,0.371,0.171,0.508
					c0.114,0.138,0.253,0.207,0.418,0.207S16.034,83.337,16.141,83.199z"/>
			</g>
		</g>
		<g>
			<g enable-background="new    ">
				<path fill="#5A5A5A" d="M8.88,61.161v1.077H5.909v1.732c0.295-0.161,0.631-0.241,1.007-0.241c0.658,0,1.225,0.198,1.702,0.594
					c0.477,0.396,0.715,0.934,0.715,1.611c0,0.679-0.249,1.241-0.745,1.688c-0.497,0.446-1.108,0.67-1.833,0.67
					c-0.947,0-1.702-0.316-2.266-0.947l0.635-0.866c0.054,0.054,0.126,0.118,0.216,0.191c0.091,0.074,0.277,0.173,0.559,0.297
					c0.282,0.125,0.591,0.187,0.926,0.187c0.336,0,0.641-0.101,0.917-0.302c0.275-0.202,0.413-0.495,0.413-0.882
					c0-0.386-0.146-0.685-0.438-0.896c-0.292-0.212-0.662-0.317-1.108-0.317c-0.447,0-0.871,0.11-1.274,0.332l-0.503-0.544v-3.384
					H8.88z"/>
				<path fill="#5A5A5A" d="M12.868,61.469c0.289,0.312,0.433,0.689,0.433,1.133c0,0.442-0.146,0.822-0.438,1.138
					s-0.654,0.474-1.087,0.474s-0.794-0.156-1.083-0.469c-0.289-0.312-0.433-0.689-0.433-1.133s0.146-0.822,0.438-1.138
					S11.352,61,11.785,61S12.579,61.156,12.868,61.469z M16.967,61.171l-5.156,7.04h-1.299l5.157-7.04H16.967z M12.193,63.13
					c0.107-0.138,0.161-0.307,0.161-0.509c0-0.201-0.057-0.37-0.171-0.508s-0.253-0.207-0.418-0.207s-0.3,0.069-0.408,0.207
					s-0.161,0.307-0.161,0.508c0,0.202,0.057,0.371,0.171,0.509s0.253,0.207,0.418,0.207S12.086,63.268,12.193,63.13z
					 M16.866,65.547c0.289,0.313,0.433,0.69,0.433,1.133c0,0.443-0.146,0.823-0.438,1.139s-0.655,0.474-1.088,0.474
					s-0.794-0.156-1.083-0.469s-0.433-0.689-0.433-1.133s0.146-0.822,0.438-1.139c0.292-0.315,0.655-0.473,1.088-0.473
					S16.578,65.235,16.866,65.547z M16.211,67.229c0.107-0.137,0.161-0.307,0.161-0.508c0-0.202-0.057-0.371-0.171-0.509
					c-0.114-0.138-0.253-0.207-0.418-0.207s-0.301,0.069-0.408,0.207s-0.161,0.307-0.161,0.509c0,0.201,0.057,0.371,0.171,0.508
					c0.114,0.138,0.253,0.207,0.418,0.207S16.104,67.366,16.211,67.229z"/>
			</g>
		</g>
		<g>
			<g enable-background="new    ">
				<path fill="#5A5A5A" d="M10.406,165.98c-0.053-0.338-0.179-0.606-0.377-0.805c-0.2-0.2-0.445-0.295-0.738-0.282
					c-0.291,0.013-0.555,0.134-0.787,0.366c-0.408,0.409-0.537,0.957-0.391,1.646l-1.068,0.283
					c-0.109-0.545-0.115-1.033-0.018-1.463c0.097-0.43,0.354-0.852,0.77-1.268c0.414-0.414,0.911-0.647,1.487-0.697
					c0.577-0.05,1.094,0.153,1.55,0.609c0.256,0.256,0.434,0.566,0.533,0.932c0.1,0.367,0.154,0.91,0.164,1.631l0.021,2.357
					l2.258-2.257l0.805,0.804l-3.404,3.404l-0.713-0.711l-0.007-3.027C10.486,166.824,10.459,166.316,10.406,165.98z"/>
				<path fill="#5A5A5A" d="M15.273,165.892c-0.805-0.131-1.599-0.588-2.383-1.372c-0.783-0.783-1.24-1.576-1.37-2.381
					s0.144-1.547,0.822-2.226s1.421-0.953,2.226-0.823c0.805,0.131,1.599,0.588,2.382,1.371c0.784,0.783,1.241,1.578,1.372,2.383
					c0.129,0.805-0.145,1.547-0.823,2.226S16.078,166.021,15.273,165.892z M12.652,162.066c0.145,0.539,0.495,1.087,1.051,1.643
					c0.555,0.555,1.102,0.904,1.641,1.049c0.539,0.146,1.018,0.01,1.436-0.408s0.553-0.893,0.406-1.424
					c-0.146-0.533-0.501-1.078-1.062-1.639c-0.56-0.561-1.105-0.914-1.638-1.061c-0.531-0.148-1.006-0.012-1.424,0.406
					C12.645,161.05,12.508,161.528,12.652,162.066z"/>
				<path fill="#5A5A5A" d="M20.174,160.992c-0.805-0.131-1.6-0.588-2.383-1.372c-0.783-0.783-1.24-1.577-1.371-2.382
					c-0.13-0.805,0.145-1.547,0.822-2.225c0.68-0.68,1.422-0.953,2.227-0.822c0.804,0.13,1.598,0.586,2.381,1.369
					c0.784,0.784,1.24,1.578,1.371,2.383s-0.143,1.547-0.822,2.227C21.721,160.848,20.979,161.121,20.174,160.992z M17.553,157.168
					c0.145,0.539,0.494,1.086,1.05,1.641c0.556,0.556,1.103,0.906,1.642,1.051s1.018,0.008,1.436-0.41
					c0.417-0.417,0.553-0.893,0.406-1.424c-0.148-0.531-0.502-1.078-1.063-1.639c-0.56-0.56-1.105-0.913-1.637-1.061
					c-0.532-0.147-1.008-0.012-1.425,0.406C17.544,156.15,17.408,156.629,17.553,157.168z"/>
				<path fill="#5A5A5A" d="M21.109,152.884l-0.748-0.748l2.912-2.913l0.656,0.656l0.143,2.549c0.469-0.441,0.969-0.654,1.498-0.637
					c0.53,0.017,0.984,0.215,1.363,0.594c0.509,0.509,0.734,1.08,0.682,1.713c-0.055,0.635-0.353,1.222-0.895,1.764
					c-0.541,0.541-1.244,0.896-2.107,1.068l-0.32-1.033c0.693-0.123,1.262-0.408,1.709-0.855c0.289-0.289,0.461-0.596,0.513-0.918
					s-0.049-0.611-0.304-0.865c-0.253-0.254-0.561-0.353-0.922-0.295c-0.36,0.057-0.726,0.271-1.096,0.641
					c-0.186,0.186-0.338,0.389-0.457,0.611l-0.641-0.641l-0.185-2.492L21.109,152.884z"/>
			</g>
		</g>
		<g>
			<g enable-background="new    ">
				<path fill="#5A5A5A" d="M45.353,165.979c-0.053-0.337-0.179-0.606-0.377-0.806c-0.2-0.199-0.445-0.293-0.738-0.281
					c-0.291,0.013-0.555,0.135-0.787,0.367c-0.408,0.408-0.537,0.957-0.391,1.645l-1.068,0.285
					c-0.109-0.546-0.115-1.033-0.018-1.463c0.097-0.431,0.354-0.853,0.77-1.268c0.414-0.416,0.911-0.648,1.487-0.698
					c0.577-0.05,1.094,0.153,1.55,0.608c0.256,0.257,0.434,0.567,0.533,0.934c0.1,0.365,0.154,0.908,0.164,1.63l0.021,2.358
					l2.258-2.258l0.805,0.805l-3.404,3.404l-0.713-0.713l-0.007-3.026C45.433,166.824,45.405,166.316,45.353,165.979z"/>
				<path fill="#5A5A5A" d="M50.22,165.891c-0.805-0.131-1.599-0.588-2.383-1.371c-0.783-0.783-1.24-1.578-1.37-2.382
					c-0.13-0.806,0.144-1.547,0.822-2.226c0.679-0.68,1.421-0.953,2.226-0.822c0.805,0.13,1.599,0.587,2.382,1.37
					c0.784,0.784,1.241,1.577,1.372,2.382c0.129,0.805-0.145,1.547-0.823,2.227C51.767,165.747,51.024,166.021,50.22,165.891z
					 M47.599,162.066c0.145,0.539,0.495,1.086,1.051,1.641c0.555,0.557,1.102,0.906,1.641,1.051s1.018,0.008,1.436-0.409
					c0.418-0.418,0.553-0.894,0.406-1.425s-0.501-1.077-1.062-1.638c-0.56-0.56-1.105-0.914-1.638-1.062
					c-0.531-0.146-1.006-0.012-1.424,0.406S47.454,161.527,47.599,162.066z"/>
				<path fill="#5A5A5A" d="M55.12,160.99c-0.805-0.131-1.6-0.588-2.383-1.371s-1.24-1.577-1.371-2.381
					c-0.13-0.806,0.145-1.547,0.822-2.227c0.68-0.679,1.422-0.953,2.227-0.822c0.804,0.131,1.598,0.588,2.381,1.371
					c0.784,0.783,1.24,1.578,1.371,2.383c0.131,0.804-0.143,1.546-0.822,2.225C56.667,160.848,55.925,161.121,55.12,160.99z
					 M52.499,157.166c0.145,0.539,0.494,1.086,1.05,1.642s1.103,0.905,1.642,1.05s1.018,0.01,1.436-0.408
					c0.417-0.418,0.553-0.894,0.406-1.424c-0.148-0.533-0.502-1.078-1.063-1.639c-0.56-0.561-1.105-0.914-1.637-1.061
					c-0.532-0.148-1.008-0.012-1.425,0.405C52.49,156.149,52.354,156.627,52.499,157.166z"/>
				<path fill="#5A5A5A" d="M58.214,149.215l0.762,0.762l-2.102,2.102l1.226,1.225c0.095-0.322,0.274-0.617,0.541-0.883
					c0.466-0.465,1.007-0.726,1.624-0.783c0.617-0.057,1.165,0.154,1.645,0.634c0.48,0.479,0.701,1.054,0.666,1.72
					c-0.035,0.668-0.31,1.258-0.822,1.771c-0.67,0.669-1.428,0.979-2.271,0.933l-0.164-1.063c0.076,0,0.172-0.004,0.288-0.017
					s0.317-0.073,0.605-0.186c0.288-0.11,0.55-0.286,0.786-0.522c0.238-0.238,0.383-0.525,0.436-0.861
					c0.051-0.338-0.059-0.643-0.332-0.916c-0.272-0.273-0.588-0.381-0.943-0.324s-0.691,0.244-1.008,0.559
					c-0.315,0.316-0.537,0.695-0.666,1.137l-0.74-0.029l-2.393-2.393L58.214,149.215z"/>
			</g>
		</g>
		<g>
			<g enable-background="new    ">
				<path fill="#5A5A5A" d="M80.3,165.979c-0.053-0.337-0.179-0.606-0.377-0.806c-0.2-0.199-0.445-0.293-0.738-0.281
					c-0.291,0.013-0.555,0.135-0.787,0.367c-0.408,0.408-0.537,0.957-0.391,1.645l-1.068,0.285
					c-0.109-0.546-0.115-1.033-0.018-1.463c0.097-0.431,0.354-0.853,0.77-1.268c0.414-0.416,0.911-0.648,1.487-0.698
					c0.577-0.05,1.094,0.153,1.55,0.608c0.256,0.257,0.434,0.567,0.533,0.934c0.1,0.365,0.154,0.908,0.164,1.63l0.021,2.358
					l2.258-2.258l0.805,0.805l-3.404,3.404l-0.713-0.713l-0.007-3.026C80.38,166.824,80.353,166.316,80.3,165.979z"/>
				<path fill="#5A5A5A" d="M85.167,165.891c-0.805-0.131-1.599-0.588-2.383-1.371c-0.783-0.783-1.24-1.578-1.37-2.382
					c-0.13-0.806,0.144-1.547,0.822-2.226c0.679-0.68,1.421-0.953,2.226-0.822c0.805,0.13,1.599,0.587,2.382,1.37
					c0.784,0.784,1.241,1.577,1.372,2.382c0.129,0.805-0.145,1.547-0.823,2.227C86.714,165.747,85.972,166.021,85.167,165.891z
					 M82.546,162.066c0.145,0.539,0.495,1.086,1.051,1.641c0.555,0.557,1.102,0.906,1.641,1.051s1.018,0.008,1.436-0.409
					c0.418-0.418,0.553-0.894,0.406-1.425s-0.501-1.077-1.062-1.638c-0.56-0.56-1.105-0.914-1.638-1.062
					c-0.531-0.146-1.006-0.012-1.424,0.406S82.401,161.527,82.546,162.066z"/>
				<path fill="#5A5A5A" d="M90.067,160.99c-0.805-0.131-1.6-0.588-2.383-1.371s-1.24-1.577-1.371-2.381
					c-0.13-0.806,0.145-1.547,0.822-2.227c0.68-0.679,1.422-0.953,2.227-0.822c0.804,0.131,1.598,0.588,2.381,1.371
					c0.784,0.783,1.24,1.578,1.371,2.383c0.131,0.804-0.143,1.546-0.822,2.225C91.614,160.848,90.872,161.121,90.067,160.99z
					 M87.446,157.166c0.145,0.539,0.494,1.086,1.05,1.642s1.103,0.905,1.642,1.05s1.018,0.01,1.436-0.408
					c0.417-0.418,0.553-0.894,0.406-1.424c-0.148-0.533-0.502-1.078-1.063-1.639c-0.56-0.561-1.105-0.914-1.637-1.061
					c-0.532-0.148-1.008-0.012-1.425,0.405C87.438,156.149,87.302,156.627,87.446,157.166z"/>
				<path fill="#5A5A5A" d="M91.466,153.787l-1.432-1.432l3.504-3.504l0.748,0.748l2.121,6.338l-0.926,0.926l-2.156-6.273
					l-1.767,1.767l0.669,0.669L91.466,153.787z"/>
			</g>
		</g>
		<g>
			<g enable-background="new    ">
				<path fill="#5A5A5A" d="M115.241,165.979c-0.053-0.337-0.179-0.606-0.377-0.806c-0.2-0.199-0.445-0.293-0.738-0.281
					c-0.291,0.013-0.555,0.135-0.787,0.367c-0.408,0.408-0.537,0.957-0.391,1.645l-1.068,0.285
					c-0.109-0.546-0.115-1.033-0.018-1.463c0.097-0.431,0.354-0.853,0.77-1.268c0.414-0.416,0.911-0.648,1.487-0.698
					c0.577-0.05,1.094,0.153,1.55,0.608c0.256,0.257,0.434,0.567,0.533,0.934c0.1,0.365,0.154,0.908,0.164,1.63l0.021,2.358
					l2.258-2.258l0.805,0.805l-3.404,3.404l-0.713-0.713l-0.007-3.026C115.321,166.824,115.294,166.316,115.241,165.979z"/>
				<path fill="#5A5A5A" d="M120.108,165.891c-0.805-0.131-1.599-0.588-2.383-1.371c-0.783-0.783-1.24-1.578-1.37-2.382
					c-0.13-0.806,0.144-1.547,0.822-2.226c0.679-0.68,1.421-0.953,2.226-0.822c0.805,0.13,1.599,0.587,2.382,1.37
					c0.784,0.784,1.241,1.577,1.372,2.382c0.129,0.805-0.145,1.547-0.823,2.227C121.655,165.747,120.913,166.021,120.108,165.891z
					 M117.487,162.066c0.145,0.539,0.495,1.086,1.051,1.641c0.555,0.557,1.102,0.906,1.641,1.051s1.018,0.008,1.436-0.409
					c0.418-0.418,0.553-0.894,0.406-1.425s-0.501-1.077-1.062-1.638c-0.56-0.56-1.105-0.914-1.638-1.062
					c-0.531-0.146-1.006-0.012-1.424,0.406S117.343,161.527,117.487,162.066z"/>
				<path fill="#5A5A5A" d="M125.009,160.99c-0.805-0.131-1.6-0.588-2.383-1.371s-1.24-1.577-1.371-2.381
					c-0.13-0.806,0.145-1.547,0.822-2.227c0.68-0.679,1.422-0.953,2.227-0.822c0.804,0.131,1.598,0.588,2.381,1.371
					c0.784,0.783,1.24,1.578,1.371,2.383c0.131,0.804-0.143,1.546-0.822,2.225C126.556,160.848,125.813,161.121,125.009,160.99z
					 M122.388,157.166c0.145,0.539,0.494,1.086,1.05,1.642s1.103,0.905,1.642,1.05s1.018,0.01,1.436-0.408
					c0.417-0.418,0.553-0.894,0.406-1.424c-0.148-0.533-0.502-1.078-1.063-1.639c-0.56-0.561-1.105-0.914-1.637-1.061
					c-0.532-0.148-1.008-0.012-1.425,0.405C122.379,156.149,122.243,156.627,122.388,157.166z"/>
				<path fill="#5A5A5A" d="M130.821,155.068c0.441-0.441,0.618-0.915,0.528-1.423c-0.091-0.509-0.388-1.019-0.892-1.532
					c0.016,0.252-0.031,0.548-0.138,0.888c-0.107,0.339-0.296,0.644-0.565,0.915c-0.447,0.445-0.969,0.672-1.567,0.676
					c-0.599,0.005-1.143-0.238-1.634-0.73c-0.492-0.491-0.725-1.049-0.698-1.673s0.286-1.183,0.78-1.677
					c0.797-0.798,1.703-0.992,2.719-0.584c0.58,0.238,1.126,0.612,1.639,1.125s0.885,0.994,1.118,1.445
					c0.232,0.451,0.353,0.871,0.363,1.261c0.019,0.761-0.241,1.409-0.779,1.948c-0.539,0.539-1.195,0.858-1.97,0.957l-0.199-1.039
					c0.205-0.014,0.436-0.075,0.693-0.182C130.479,155.336,130.68,155.211,130.821,155.068z M129.124,153.064
					c0.287-0.287,0.447-0.606,0.48-0.958s-0.077-0.653-0.332-0.907c-0.253-0.254-0.564-0.381-0.932-0.379
					c-0.367,0.004-0.691,0.144-0.969,0.421c-0.277,0.278-0.425,0.589-0.441,0.933c-0.018,0.344,0.104,0.646,0.359,0.901
					c0.256,0.257,0.555,0.391,0.894,0.402C128.523,153.489,128.837,153.352,129.124,153.064z"/>
			</g>
		</g>
		<g>
			<g enable-background="new    ">
				<path fill="#5A5A5A" d="M150.187,165.981c-0.053-0.337-0.179-0.606-0.377-0.806c-0.2-0.199-0.445-0.293-0.738-0.281
					c-0.291,0.013-0.555,0.135-0.787,0.367c-0.408,0.408-0.537,0.957-0.391,1.645l-1.068,0.285
					c-0.109-0.546-0.115-1.033-0.018-1.463c0.097-0.431,0.354-0.853,0.77-1.268c0.414-0.416,0.911-0.648,1.487-0.698
					c0.577-0.05,1.094,0.153,1.55,0.608c0.256,0.257,0.434,0.567,0.533,0.934c0.1,0.365,0.154,0.908,0.164,1.63l0.021,2.358
					l2.258-2.258l0.805,0.805l-3.404,3.404l-0.713-0.713l-0.007-3.026C150.267,166.826,150.239,166.318,150.187,165.981z"/>
				<path fill="#5A5A5A" d="M155.054,165.893c-0.805-0.131-1.599-0.588-2.383-1.371c-0.783-0.783-1.24-1.578-1.37-2.382
					c-0.13-0.806,0.144-1.547,0.822-2.226c0.679-0.68,1.421-0.953,2.226-0.822c0.805,0.13,1.599,0.587,2.382,1.37
					c0.784,0.784,1.241,1.577,1.372,2.382c0.129,0.805-0.145,1.547-0.823,2.227C156.601,165.749,155.858,166.022,155.054,165.893z
					 M152.433,162.068c0.145,0.539,0.495,1.086,1.051,1.641c0.555,0.557,1.102,0.906,1.641,1.051s1.018,0.008,1.436-0.409
					c0.418-0.418,0.553-0.894,0.406-1.425s-0.501-1.077-1.062-1.638c-0.56-0.56-1.105-0.914-1.638-1.062
					c-0.531-0.146-1.006-0.012-1.424,0.406S152.288,161.529,152.433,162.068z"/>
				<path fill="#5A5A5A" d="M154.9,157.378l1.809-1.809l4.978,4.978l-0.797,0.798l-4.23-4.229l-1.011,1.011L154.9,157.378z"/>
				<path fill="#5A5A5A" d="M157.613,154.665l1.81-1.81l4.978,4.979l-0.798,0.798l-4.23-4.229l-1.011,1.011L157.613,154.665z"/>
			</g>
		</g>
		<g>
			<g enable-background="new    ">
				<path fill="#5A5A5A" d="M185.133,165.98c-0.053-0.338-0.179-0.606-0.377-0.805c-0.2-0.2-0.445-0.295-0.738-0.282
					c-0.291,0.013-0.555,0.134-0.787,0.366c-0.408,0.409-0.537,0.957-0.391,1.646l-1.068,0.283
					c-0.109-0.545-0.115-1.033-0.018-1.463c0.097-0.43,0.354-0.852,0.77-1.268c0.414-0.414,0.911-0.647,1.487-0.697
					c0.577-0.05,1.094,0.153,1.55,0.609c0.256,0.256,0.434,0.566,0.533,0.932c0.1,0.367,0.154,0.91,0.164,1.631l0.021,2.357
					l2.258-2.257l0.805,0.804l-3.404,3.404l-0.713-0.711l-0.007-3.027C185.213,166.824,185.186,166.316,185.133,165.98z"/>
				<path fill="#5A5A5A" d="M190,165.892c-0.805-0.131-1.599-0.588-2.383-1.372c-0.783-0.783-1.24-1.576-1.37-2.381
					s0.144-1.547,0.822-2.226s1.421-0.953,2.226-0.823c0.805,0.131,1.599,0.588,2.382,1.371c0.784,0.783,1.241,1.578,1.372,2.383
					c0.129,0.805-0.145,1.547-0.823,2.226S190.805,166.021,190,165.892z M187.379,162.066c0.145,0.539,0.495,1.087,1.051,1.643
					c0.555,0.555,1.102,0.904,1.641,1.049c0.539,0.146,1.018,0.01,1.436-0.408s0.553-0.893,0.406-1.424
					c-0.146-0.533-0.501-1.078-1.062-1.639c-0.56-0.561-1.105-0.914-1.638-1.061c-0.531-0.148-1.006-0.012-1.424,0.406
					C187.371,161.05,187.234,161.528,187.379,162.066z"/>
				<path fill="#5A5A5A" d="M189.847,157.377l1.809-1.809l4.978,4.979l-0.797,0.797l-4.23-4.23l-1.011,1.012L189.847,157.377z"/>
				<path fill="#5A5A5A" d="M193.649,155.07l-0.748-0.748l2.913-2.912l0.654,0.654l0.143,2.551c0.471-0.442,0.971-0.654,1.5-0.639
					c0.529,0.018,0.984,0.215,1.363,0.595c0.508,0.509,0.734,1.079,0.681,1.713c-0.055,0.634-0.353,1.222-0.894,1.763
					s-1.244,0.897-2.108,1.068l-0.32-1.033c0.692-0.123,1.263-0.408,1.708-0.854c0.291-0.291,0.461-0.596,0.514-0.919
					c0.052-0.323-0.049-0.611-0.303-0.866c-0.254-0.253-0.562-0.352-0.922-0.295c-0.361,0.057-0.727,0.271-1.097,0.642
					c-0.185,0.185-0.337,0.39-0.456,0.612l-0.641-0.641l-0.186-2.494L193.649,155.07z"/>
			</g>
		</g>
	</g>
</g>
<g id="Layer_3">
	<polygon fill="#ABD483" points="23.53,83.27 23.53,146.04 217,146.04 217,70.225 199.352,71.85 180.246,71.51 146.307,75.382 
		128.43,74.532 59.982,82.391 41.098,81.922 	"/>
</g>
<g id="Layer_2">
	<polygon fill="#80BC56" points="93.084,84.904 93.084,145.518 216.598,145.518 216.598,78.632 180.615,78.901 163.557,74.684 
		131.182,84.181 111.592,88.068 	"/>
	<polygon fill="#80BC56" points="23.36,83.27 23.36,145.518 59.174,145.518 59.174,81.647 42.274,83.662 	"/>
</g>
<g id="Layer_4">
	<g enable-background="new    ">
		<path fill="#FFFFFF" d="M150.95,103.51h1.56v6.99h-1.56v-2.75h-2.78v2.75h-1.561v-6.99h1.561v2.92h2.78V103.51z"/>
		<path fill="#FFFFFF" d="M154.23,103.51h1.56v6.99h-1.56V103.51z"/>
	</g>
	<g enable-background="new    ">
		<path fill="#FFFFFF" d="M111.96,83.445c0.261,0.323,0.61,0.484,1.05,0.484c0.44,0,0.789-0.161,1.045-0.484
			c0.257-0.323,0.385-0.766,0.385-1.325v-3.86H116v3.91c0,1.014-0.279,1.792-0.84,2.335c-0.561,0.544-1.277,0.815-2.15,0.815
			s-1.592-0.273-2.154-0.82c-0.564-0.547-0.846-1.323-0.846-2.33v-3.91h1.561v3.86C111.57,82.68,111.7,83.122,111.96,83.445z"/>
		<path fill="#FFFFFF" d="M119.255,79.655c-0.149,0.123-0.226,0.286-0.226,0.489c0,0.204,0.092,0.365,0.275,0.485
			s0.606,0.262,1.27,0.425c0.664,0.164,1.179,0.409,1.545,0.735c0.367,0.327,0.551,0.804,0.551,1.43
			c0,0.627-0.235,1.136-0.705,1.525c-0.471,0.39-1.088,0.585-1.855,0.585c-1.106,0-2.104-0.41-2.99-1.23l0.931-1.14
			c0.753,0.66,1.45,0.99,2.09,0.99c0.286,0,0.512-0.062,0.675-0.186c0.164-0.123,0.245-0.29,0.245-0.5s-0.087-0.376-0.26-0.5
			c-0.173-0.123-0.517-0.248-1.03-0.375c-0.813-0.193-1.408-0.444-1.785-0.755c-0.377-0.31-0.564-0.796-0.564-1.46
			c0-0.663,0.238-1.175,0.715-1.535c0.477-0.359,1.072-0.54,1.785-0.54c0.467,0,0.934,0.08,1.4,0.24
			c0.466,0.16,0.873,0.387,1.219,0.68l-0.789,1.141c-0.607-0.46-1.234-0.69-1.881-0.69C119.609,79.47,119.404,79.531,119.255,79.655
			z"/>
	</g>
</g>
</svg>
