<?xml version="1.0" encoding="utf-8"?>
<!-- Generator: Adobe Illustrator 19.2.0, SVG Export Plug-In . SVG Version: 6.00 Build 0)  -->
<svg version="1.1" id="Layer_1" xmlns="http://www.w3.org/2000/svg" xmlns:xlink="http://www.w3.org/1999/xlink" x="0px" y="0px"
	 viewBox="0 0 217 217" style="enable-background:new 0 0 217 217;" xml:space="preserve">
<style type="text/css">
	.st0{fill:#AAD483;}
	.st1{fill:#80BC56;}
	.st2{fill:#505050;}
	.st3{fill:#FFFFFF;}
</style>
<g id="Layer_3">
	<polygon class="st0" points="46.6,110.5 46.6,159.7 211.6,159.7 211.6,55.6 200,58 188.6,64.5 179,72.8 173.3,74.5 168.6,74.5 
		157.7,77.9 151.8,77.9 141.3,81.5 136.2,80.5 132.2,79.4 125.5,79.4 121,80.6 115.1,81.5 104.4,84.3 100,91.8 94,95.8 91.3,99.6 
		83.5,104.6 78.7,107.1 71.9,107.6 63.9,102.6 57.3,98.6 52,97.7 	"/>
</g>
<g id="Layer_2">
	<polygon class="st1" points="46.6,143.9 46.6,159.7 211.8,159.7 211.8,51.4 199.4,57 194,63.2 188.6,60.1 180.8,70.2 173,77.6 
		167.4,76.5 162.4,73.7 157.2,77.6 152,73.7 146.3,83.3 141.3,78.1 136,84.2 125.5,84.3 120.3,89.6 115.1,89.6 109.7,90.5 
		105.3,95.5 99,107 93.8,113.9 88.8,118.2 82.7,113.2 78.2,111.5 72.8,112.4 67.6,108.9 57.6,120 51.5,123 	"/>
</g>
<g>
	<path class="st2" d="M19,49.3l0.8-1.1c0.6,0.5,1.2,0.8,1.9,0.8c1.2,0,2-1.1,2-2.6c-0.4,0.5-1.1,0.9-2,0.9c-1.8,0-3-1-3-2.7v0
		c0-1.6,1.3-2.9,3.1-2.9c1.1,0,1.7,0.3,2.3,0.9c0.6,0.6,1,1.5,1,3.2v0c0,2.7-1.3,4.6-3.6,4.6C20.5,50.3,19.7,49.9,19,49.3z
		 M23.7,44.5L23.7,44.5c0-0.9-0.7-1.6-1.8-1.6c-1,0-1.7,0.7-1.7,1.6v0c0,0.9,0.7,1.5,1.7,1.5C23,46,23.7,45.3,23.7,44.5z"/>
	<path class="st2" d="M26.6,46L26.6,46c0-2.4,1.5-4.4,3.7-4.4c2.2,0,3.6,1.9,3.6,4.3v0c0,2.4-1.5,4.3-3.7,4.3
		C28.1,50.3,26.6,48.4,26.6,46z M32.4,46L32.4,46c0-1.7-0.9-3-2.1-3s-2.1,1.3-2.1,3v0c0,1.7,0.8,3,2.1,3S32.4,47.7,32.4,46z"/>
	<path class="st2" d="M35.2,43.9L35.2,43.9c0-1.2,0.8-2.2,2-2.2c1.2,0,2,1,2,2.1v0c0,1.2-0.8,2.1-2,2.1C36,46,35.2,45,35.2,43.9z
		 M42.2,41.8h1.2l-6.1,8.4h-1.2L42.2,41.8z M38.1,43.9L38.1,43.9c0-0.7-0.4-1.2-0.9-1.2c-0.6,0-0.9,0.6-0.9,1.2v0
		c0,0.7,0.4,1.2,0.9,1.2C37.8,45.1,38.1,44.5,38.1,43.9z M40.3,48.2L40.3,48.2c0-1.2,0.8-2.2,2-2.2c1.2,0,2,1,2,2.1v0
		c0,1.2-0.8,2.1-2,2.1C41.1,50.3,40.3,49.3,40.3,48.2z M43.2,48.2L43.2,48.2c0-0.7-0.4-1.2-0.9-1.2c-0.6,0-0.9,0.6-0.9,1.2v0
		c0,0.7,0.4,1.2,0.9,1.2C42.8,49.4,43.2,48.8,43.2,48.2z"/>
</g>
<g>
	<path class="st2" d="M18.6,76.5L18.6,76.5c0-1,0.6-1.7,1.5-2.1c-0.7-0.4-1.2-0.9-1.2-1.9v0c0-1.3,1.2-2.3,2.9-2.3s2.9,1,2.9,2.3v0
		c0,0.9-0.5,1.5-1.2,1.9c0.9,0.4,1.5,1,1.5,2v0c0,1.5-1.4,2.4-3.2,2.4S18.6,78,18.6,76.5z M23.6,76.4L23.6,76.4
		c0-0.8-0.8-1.3-1.8-1.3s-1.8,0.5-1.8,1.3v0c0,0.7,0.7,1.3,1.8,1.3S23.6,77.1,23.6,76.4z M23.3,72.7L23.3,72.7
		c0-0.7-0.6-1.2-1.5-1.2s-1.5,0.5-1.5,1.2v0c0,0.7,0.6,1.2,1.5,1.2C22.7,74,23.3,73.4,23.3,72.7z"/>
	<path class="st2" d="M26.2,77.7l0.9-1.1c0.7,0.6,1.4,1,2.2,1c1,0,1.7-0.6,1.7-1.5v0c0-0.9-0.7-1.4-1.7-1.4c-0.6,0-1.1,0.2-1.5,0.4
		l-0.9-0.6l0.2-4.1h5v1.3h-3.7l-0.1,2c0.4-0.1,0.8-0.2,1.3-0.2c1.6,0,2.9,0.9,2.9,2.6v0c0,1.7-1.2,2.8-3.1,2.8
		C28,78.9,27,78.4,26.2,77.7z"/>
	<path class="st2" d="M33.7,72.5L33.7,72.5c0-1.2,0.8-2.2,2-2.2c1.2,0,2,1,2,2.1v0c0,1.2-0.8,2.1-2,2.1
		C34.5,74.6,33.7,73.6,33.7,72.5z M40.7,70.4h1.2l-6.1,8.4h-1.2L40.7,70.4z M36.6,72.5L36.6,72.5c0-0.7-0.4-1.2-0.9-1.2
		c-0.6,0-0.9,0.6-0.9,1.2v0c0,0.7,0.4,1.2,0.9,1.2C36.2,73.7,36.6,73.1,36.6,72.5z M38.7,76.8L38.7,76.8c0-1.2,0.8-2.2,2-2.2
		c1.2,0,2,1,2,2.1v0c0,1.2-0.8,2.1-2,2.1C39.5,78.9,38.7,77.9,38.7,76.8z M41.6,76.8L41.6,76.8c0-0.7-0.4-1.2-0.9-1.2
		c-0.6,0-0.9,0.6-0.9,1.2v0c0,0.7,0.4,1.2,0.9,1.2C41.3,78,41.6,77.4,41.6,76.8z"/>
</g>
<g>
	<path class="st2" d="M18.6,104L18.6,104c0-1,0.6-1.7,1.5-2.1c-0.7-0.4-1.2-0.9-1.2-1.9v0c0-1.3,1.2-2.3,2.9-2.3s2.9,1,2.9,2.3v0
		c0,0.9-0.5,1.5-1.2,1.9c0.9,0.4,1.5,1,1.5,2v0c0,1.5-1.4,2.4-3.2,2.4S18.6,105.5,18.6,104z M23.6,103.9L23.6,103.9
		c0-0.8-0.8-1.3-1.8-1.3c-1,0-1.8,0.5-1.8,1.3v0c0,0.7,0.7,1.3,1.8,1.3S23.6,104.6,23.6,103.9z M23.3,100.2L23.3,100.2
		c0-0.7-0.6-1.2-1.5-1.2s-1.5,0.5-1.5,1.2v0c0,0.7,0.6,1.2,1.5,1.2C22.7,101.5,23.3,100.9,23.3,100.2z"/>
	<path class="st2" d="M26.3,102.1L26.3,102.1c0-2.4,1.5-4.4,3.7-4.4c2.2,0,3.6,1.9,3.6,4.3v0c0,2.4-1.5,4.3-3.7,4.3
		C27.7,106.4,26.3,104.5,26.3,102.1z M32.1,102.1L32.1,102.1c0-1.7-0.9-3-2.1-3s-2.1,1.3-2.1,3v0c0,1.7,0.8,3,2.1,3
		C31.3,105.1,32.1,103.8,32.1,102.1z"/>
	<path class="st2" d="M34.9,100L34.9,100c0-1.2,0.8-2.2,2-2.2c1.2,0,2,1,2,2.1v0c0,1.2-0.8,2.1-2,2.1
		C35.7,102.1,34.9,101.1,34.9,100z M41.9,97.9h1.2l-6.1,8.4h-1.2L41.9,97.9z M37.8,100L37.8,100c0-0.7-0.4-1.2-0.9-1.2
		c-0.6,0-0.9,0.6-0.9,1.2v0c0,0.7,0.4,1.2,0.9,1.2C37.4,101.2,37.8,100.6,37.8,100z M40,104.3L40,104.3c0-1.2,0.8-2.2,2-2.2
		c1.2,0,2,1,2,2.1v0c0,1.2-0.8,2.1-2,2.1C40.8,106.4,40,105.4,40,104.3z M42.9,104.3L42.9,104.3c0-0.7-0.4-1.2-0.9-1.2
		c-0.6,0-0.9,0.6-0.9,1.2v0c0,0.7,0.4,1.2,0.9,1.2C42.5,105.5,42.9,104.9,42.9,104.3z"/>
</g>
<g>
	<path class="st2" d="M23.1,128.3h-4.2V127h5.9v1.1l-3.8,7.3h-1.7L23.1,128.3z"/>
	<path class="st2" d="M25.6,134.3l0.9-1.1c0.7,0.6,1.4,1,2.2,1c1,0,1.7-0.6,1.7-1.5v0c0-0.9-0.7-1.4-1.7-1.4c-0.6,0-1.1,0.2-1.5,0.4
		l-0.9-0.6l0.2-4.1h5v1.3h-3.7l-0.1,2c0.4-0.1,0.8-0.2,1.3-0.2c1.6,0,2.9,0.9,2.9,2.6v0c0,1.7-1.2,2.8-3.1,2.8
		C27.4,135.5,26.4,135,25.6,134.3z"/>
	<path class="st2" d="M33.1,129.1L33.1,129.1c0-1.2,0.8-2.2,2-2.2c1.2,0,2,1,2,2.1v0c0,1.2-0.8,2.1-2,2.1
		C33.9,131.2,33.1,130.2,33.1,129.1z M40.1,127h1.2l-6.1,8.4H34L40.1,127z M36,129.1L36,129.1c0-0.7-0.4-1.2-0.9-1.2
		c-0.6,0-0.9,0.6-0.9,1.2v0c0,0.7,0.4,1.2,0.9,1.2C35.7,130.3,36,129.7,36,129.1z M38.2,133.4L38.2,133.4c0-1.2,0.8-2.2,2-2.2
		c1.2,0,2,1,2,2.1v0c0,1.2-0.8,2.1-2,2.1C39,135.5,38.2,134.5,38.2,133.4z M41.1,133.4L41.1,133.4c0-0.7-0.4-1.2-0.9-1.2
		c-0.6,0-0.9,0.6-0.9,1.2v0c0,0.7,0.4,1.2,0.9,1.2C40.7,134.6,41.1,134,41.1,133.4z"/>
</g>
<g>
	<path class="st2" d="M23.1,156.2h-4.2v-1.3h5.9v1.1l-3.8,7.3h-1.7L23.1,156.2z"/>
	<path class="st2" d="M25.8,159.1L25.8,159.1c0-2.4,1.5-4.4,3.7-4.4c2.2,0,3.6,1.9,3.6,4.3v0c0,2.4-1.5,4.3-3.7,4.3
		C27.3,163.4,25.8,161.5,25.8,159.1z M31.6,159.1L31.6,159.1c0-1.7-0.9-3-2.1-3s-2.1,1.3-2.1,3v0c0,1.7,0.8,3,2.1,3
		C30.8,162.1,31.6,160.8,31.6,159.1z"/>
	<path class="st2" d="M34.4,157L34.4,157c0-1.2,0.8-2.2,2-2.2c1.2,0,2,1,2,2.1v0c0,1.2-0.8,2.1-2,2.1
		C35.2,159.1,34.4,158.1,34.4,157z M41.4,154.9h1.2l-6.1,8.4h-1.2L41.4,154.9z M37.3,157L37.3,157c0-0.7-0.4-1.2-0.9-1.2
		c-0.6,0-0.9,0.6-0.9,1.2v0c0,0.7,0.4,1.2,0.9,1.2C36.9,158.2,37.3,157.6,37.3,157z M39.5,161.3L39.5,161.3c0-1.2,0.8-2.2,2-2.2
		c1.2,0,2,1,2,2.1v0c0,1.2-0.8,2.1-2,2.1C40.3,163.4,39.5,162.4,39.5,161.3z M42.4,161.3L42.4,161.3c0-0.7-0.4-1.2-0.9-1.2
		c-0.6,0-0.9,0.6-0.9,1.2v0c0,0.7,0.4,1.2,0.9,1.2C42,162.5,42.4,161.9,42.4,161.3z"/>
</g>
<g>
	<path class="st2" d="M5.5,179.7L5.5,179.7c-1.2,0-2.2-0.8-2.2-2c0-1.2,1-2,2.1-2h0c1.2,0,2.1,0.8,2.1,2
		C7.6,178.9,6.6,179.7,5.5,179.7z M3.4,172.7v-1.2l8.4,6.1v1.2L3.4,172.7z M5.5,176.8L5.5,176.8c-0.7,0-1.2,0.4-1.2,0.9
		c0,0.6,0.6,0.9,1.2,0.9h0c0.7,0,1.2-0.4,1.2-0.9C6.7,177.2,6.1,176.8,5.5,176.8z M9.8,174.7L9.8,174.7c-1.2,0-2.2-0.8-2.2-2
		c0-1.2,1-2,2.1-2h0c1.2,0,2.1,0.8,2.1,2C11.9,173.9,10.9,174.7,9.8,174.7z M9.8,171.8L9.8,171.8c-0.7,0-1.2,0.4-1.2,0.9
		c0,0.6,0.6,0.9,1.2,0.9h0c0.7,0,1.2-0.4,1.2-0.9C11,172.1,10.4,171.8,9.8,171.8z"/>
	<path class="st2" d="M8.7,165.9L8.7,165.9c-1.8,0-3.3-1.4-3.3-3.4c0-1.9,1.5-3.4,3.3-3.4h0c1.8,0,3.3,1.4,3.3,3.4
		C11.9,164.5,10.5,165.9,8.7,165.9z M8.7,160.6L8.7,160.6c-1.1,0-2.1,0.8-2.1,1.9c0,1.2,0.9,1.9,2,1.9h0c1.1,0,2-0.8,2-1.9
		C10.7,161.4,9.8,160.6,8.7,160.6z"/>
	<path class="st2" d="M6.7,157.4v0.8H5.5v-0.8H5c-0.7,0-1.2-0.2-1.6-0.5S3,156.1,3,155.4c0-0.5,0.1-0.9,0.2-1.2h1.2
		c-0.1,0.3-0.2,0.5-0.2,0.9c0,0.6,0.3,0.8,1,0.8h0.3v-1.7h1.2v1.7h5.1v1.5H6.7z"/>
	<path class="st2" d="M3.4,149.4v-3.3c0-2,1.1-3.2,2.8-3.2h0c1.9,0,2.9,1.5,2.9,3.4v1.7h2.7v1.5H3.4z M7.8,146.2
		c0-1.1-0.6-1.8-1.5-1.8h0c-1,0-1.5,0.7-1.5,1.8v1.7h3V146.2z"/>
	<path class="st2" d="M5.5,141.6v-1.5h1.4c-0.9-0.4-1.6-1.1-1.5-2.2h1.5v0.1c0,1.3,0.8,2.2,2.5,2.2h2.4v1.5H5.5z"/>
	<path class="st2" d="M3.1,136.6V135h1.4v1.6H3.1z M5.5,136.5v-1.5h6.3v1.5H5.5z"/>
	<path class="st2" d="M5.5,133.8v-1.6l4.7-1.7l-4.7-1.7v-1.5l6.4,2.6v1.3L5.5,133.8z"/>
	<path class="st2" d="M11.8,122.5H11c0.5,0.4,0.9,1.1,0.9,2.1c0,1.2-0.7,2.3-2,2.3h0c-1.4,0-2.1-1.1-2.1-2.6c0-0.8,0.1-1.3,0.3-1.8
		H8c-0.9,0-1.4,0.6-1.4,1.6c0,0.7,0.2,1.2,0.4,1.8l-1.2,0.4c-0.3-0.7-0.5-1.4-0.5-2.4c0-1.9,1-2.8,2.7-2.8h3.8V122.5z M9.1,122.5
		c-0.1,0.4-0.3,0.9-0.3,1.5c0,0.9,0.4,1.5,1,1.5h0c0.6,0,0.9-0.5,0.9-1.2c0-1-0.5-1.7-1.3-1.7H9.1z"/>
	<path class="st2" d="M10,119.1H6.7v0.8H5.5v-0.8H3.7v-1.5h1.7v-1.7h1.2v1.7h3.1c0.6,0,0.8-0.3,0.8-0.8c0-0.3-0.1-0.6-0.2-0.9h1.2
		c0.2,0.4,0.3,0.8,0.3,1.3C11.9,118.3,11.4,119.1,10,119.1z"/>
	<path class="st2" d="M8.7,115L8.7,115c-1.8,0-3.3-1.3-3.3-3.1c0-2,1.6-3,3.4-3c0.1,0,0.3,0,0.4,0v4.7c1-0.2,1.6-0.9,1.6-1.8
		c0-0.7-0.3-1.2-0.8-1.7l0.8-0.9c0.7,0.6,1.2,1.4,1.2,2.6C11.9,113.6,10.6,115,8.7,115z M8.2,110.3c-0.9,0.1-1.7,0.6-1.7,1.6
		c0,0.9,0.7,1.5,1.7,1.6V110.3z"/>
	<path class="st2" d="M10.6,104.2l-1.1-0.9c0.7-0.8,1.1-1.6,1.1-2.7c0-0.9-0.4-1.5-1.1-1.5h0c-0.6,0-0.9,0.3-1.3,1.9
		c-0.4,1.8-1,2.8-2.5,2.8h0c-1.4,0-2.4-1.2-2.4-2.9c0-1.2,0.4-2.2,1.1-3l1.1,0.8c-0.6,0.8-0.9,1.5-0.9,2.3c0,0.9,0.4,1.4,1,1.4h0
		c0.6,0,0.9-0.4,1.3-2c0.4-1.8,1.1-2.7,2.5-2.7h0c1.6,0,2.5,1.2,2.5,3C11.9,102,11.5,103.2,10.6,104.2z"/>
	<path class="st2" d="M8.7,96.5L8.7,96.5c-1.8,0-3.3-1.3-3.3-3.1c0-2,1.6-3,3.4-3c0.1,0,0.3,0,0.4,0V95c1-0.2,1.6-0.9,1.6-1.8
		c0-0.7-0.3-1.2-0.8-1.7l0.8-0.9c0.7,0.6,1.2,1.4,1.2,2.6C11.9,95,10.6,96.5,8.7,96.5z M8.2,91.8c-0.9,0.1-1.7,0.6-1.7,1.6
		c0,0.9,0.7,1.5,1.7,1.6V91.8z"/>
	<path class="st2" d="M8.7,89.2L8.7,89.2c-1.8,0-3.3-1.4-3.3-3.3c0-1.2,0.4-1.9,1.1-2.5l1,0.9c-0.5,0.4-0.8,0.9-0.8,1.6
		c0,1.1,0.9,1.8,2,1.8h0c1.1,0,2-0.8,2-1.9c0-0.7-0.3-1.2-0.8-1.6l0.9-0.9c0.7,0.6,1.2,1.4,1.2,2.6C11.9,87.8,10.5,89.2,8.7,89.2z"
		/>
	<path class="st2" d="M10,81.7H6.7v0.8H5.5v-0.8H3.7v-1.5h1.7v-1.7h1.2v1.7h3.1c0.6,0,0.8-0.3,0.8-0.8c0-0.3-0.1-0.6-0.2-0.9h1.2
		c0.2,0.4,0.3,0.8,0.3,1.3C11.9,81,11.4,81.7,10,81.7z"/>
	<path class="st2" d="M8.7,77.6L8.7,77.6c-1.8,0-3.3-1.4-3.3-3.4c0-1.9,1.5-3.4,3.3-3.4h0c1.8,0,3.3,1.4,3.3,3.4
		C11.9,76.2,10.5,77.6,8.7,77.6z M8.7,72.3L8.7,72.3c-1.1,0-2.1,0.8-2.1,1.9c0,1.2,0.9,1.9,2,1.9h0c1.1,0,2-0.8,2-1.9
		C10.7,73.1,9.8,72.3,8.7,72.3z"/>
	<path class="st2" d="M5.5,69.4v-1.5h1.4c-0.9-0.4-1.6-1.1-1.5-2.2h1.5v0.1c0,1.3,0.8,2.2,2.5,2.2h2.4v1.5H5.5z"/>
	<path class="st2" d="M10.6,61.5l-1-1c0.6-0.5,1-1,1-1.7c0-0.8-0.5-1.3-1.6-1.3H3.4V56h5.5c1,0,1.7,0.3,2.2,0.8
		c0.5,0.5,0.7,1.2,0.7,2C11.9,60.1,11.3,60.9,10.6,61.5z"/>
	<path class="st2" d="M8.7,54.5L8.7,54.5c-1.8,0-3.3-1.4-3.3-3.4c0-1.9,1.5-3.4,3.3-3.4h0c1.8,0,3.3,1.4,3.3,3.4
		C11.9,53,10.5,54.5,8.7,54.5z M8.7,49.2L8.7,49.2c-1.1,0-2.1,0.8-2.1,1.9c0,1.2,0.9,1.9,2,1.9h0c1.1,0,2-0.8,2-1.9
		C10.7,49.9,9.8,49.2,8.7,49.2z"/>
	<path class="st2" d="M10.8,44.8h1v1.5H3v-1.5h3.5c-0.7-0.5-1.2-1.1-1.2-2.1c0-1.5,1.2-3,3.3-3h0c2.1,0,3.3,1.4,3.3,3
		C11.9,43.7,11.4,44.3,10.8,44.8z M8.6,41.2L8.6,41.2c-1.2,0-2.1,0.8-2.1,1.8s0.8,1.8,2,1.8h0c1.2,0,2-0.9,2-1.8
		C10.7,42,9.9,41.2,8.6,41.2z"/>
	<path class="st2" d="M11,38.7l-1-0.6c0.5-0.7,0.8-1.4,0.8-2.1c0-0.6-0.3-1-0.7-1h0c-0.5,0-0.7,0.7-0.9,1.4c-0.3,0.9-0.6,2-1.9,2h0
		c-1.2,0-1.9-1-1.9-2.3c0-0.8,0.3-1.7,0.7-2.3l1,0.6c-0.4,0.6-0.6,1.3-0.6,1.8c0,0.6,0.3,0.9,0.6,0.9h0c0.5,0,0.6-0.7,0.9-1.4
		c0.3-0.9,0.7-2,1.8-2h0c1.3,0,2,1,2,2.4C11.9,36.9,11.6,37.9,11,38.7z"/>
</g>
<g>
	<path class="st3" d="M83.1,109.4v-4h1.2v4c0,1.3,0.7,2,1.8,2c1.1,0,1.8-0.7,1.8-1.9v-4h1.2v4c0,2.1-1.2,3.1-3,3.1
		C84.3,112.4,83.1,111.4,83.1,109.4z"/>
	<path class="st3" d="M90.3,111.3l0.7-0.9c0.7,0.6,1.3,0.9,2.2,0.9c0.8,0,1.2-0.3,1.2-0.9v0c0-0.5-0.3-0.8-1.6-1.1
		c-1.5-0.4-2.3-0.8-2.3-2.1v0c0-1.2,1-2,2.4-2c1,0,1.8,0.3,2.5,0.9l-0.7,0.9c-0.6-0.5-1.3-0.7-1.9-0.7c-0.7,0-1.1,0.4-1.1,0.8v0
		c0,0.5,0.3,0.8,1.7,1.1c1.5,0.4,2.2,0.9,2.2,2v0c0,1.3-1,2.1-2.5,2.1C92.2,112.4,91.2,112.1,90.3,111.3z"/>
</g>
<g>
	<path class="st3" d="M116.2,115.7h1.2v2.9h3.3v-2.9h1.2v7h-1.2v-2.9h-3.3v2.9h-1.2V115.7z"/>
	<path class="st3" d="M123.9,115.7h1.2v7h-1.2V115.7z"/>
</g>
<g>
	<path class="st2" d="M32,183l-0.8,1.4l-1.1-0.6l1.1-2.1l0.7-0.7l6,6l-1,1L32,183z"/>
	<path class="st2" d="M38.8,184.8l-0.2-1.4c0.8-0.1,1.4-0.3,1.9-0.8c0.9-0.9,0.6-2.2-0.4-3.3c0.1,0.7-0.1,1.4-0.8,2
		c-1.3,1.3-2.8,1.4-4,0.2l0,0c-1.2-1.2-1.2-3,0.2-4.3c0.7-0.7,1.4-1,2.3-1c0.9,0,1.8,0.4,3,1.5l0,0c1.9,1.9,2.3,4.2,0.7,5.8
		C40.6,184.5,39.7,184.8,38.8,184.8z M38.7,178.1L38.7,178.1c-0.6-0.6-1.6-0.6-2.3,0.1c-0.7,0.7-0.7,1.7-0.1,2.3l0,0
		c0.6,0.6,1.5,0.6,2.3-0.2C39.3,179.6,39.3,178.7,38.7,178.1z"/>
	<path class="st2" d="M43.1,178.5L43.1,178.5c-0.7-0.7-0.8-1.6-0.4-2.5c-0.8,0.2-1.5,0.2-2.2-0.5l0,0c-0.9-0.9-0.7-2.5,0.5-3.7
		s2.7-1.4,3.7-0.5l0,0c0.7,0.7,0.7,1.4,0.5,2.2c0.9-0.3,1.8-0.3,2.5,0.4l0,0c1.1,1.1,0.8,2.7-0.5,4
		C45.8,179.2,44.1,179.5,43.1,178.5z M43.8,172.5L43.8,172.5c-0.5-0.5-1.3-0.4-1.9,0.2c-0.6,0.6-0.7,1.4-0.2,1.9l0,0
		c0.5,0.5,1.3,0.4,1.9-0.2C44.2,173.8,44.3,173,43.8,172.5z M46.6,174.9L46.6,174.9c-0.6-0.6-1.5-0.4-2.2,0.3
		c-0.7,0.7-0.9,1.6-0.3,2.1l0,0c0.5,0.5,1.4,0.4,2.1-0.4S47.1,175.4,46.6,174.9z"/>
	<path class="st2" d="M49.3,173.9l0.3-3.8c0.1-1.5,0-2.2-0.5-2.7c-0.6-0.6-1.3-0.5-1.9,0c-0.5,0.5-0.6,1.2-0.5,2.3l-1.3,0.2
		c-0.2-1.4-0.1-2.4,0.9-3.4c1.2-1.2,2.7-1.2,3.7-0.2l0,0c0.9,0.9,1,1.9,0.8,3.8l-0.2,2.2l2.8-2.8l0.9,0.9l-4.3,4.3L49.3,173.9z"/>
</g>
<g>
	<path class="st2" d="M59.1,184l-0.8,1.4l-1.1-0.6l1.1-2.1l0.7-0.7l6,6l-1,1L59.1,184z"/>
	<path class="st2" d="M65.9,185.8l-0.2-1.4c0.8-0.1,1.4-0.3,1.9-0.8c0.9-0.9,0.6-2.2-0.4-3.3c0.1,0.7-0.1,1.4-0.8,2
		c-1.3,1.3-2.8,1.4-4,0.2l0,0c-1.2-1.2-1.2-3,0.2-4.3c0.7-0.7,1.4-1,2.3-1c0.9,0,1.8,0.4,3,1.5l0,0c1.9,1.9,2.3,4.2,0.7,5.8
		C67.7,185.5,66.8,185.8,65.9,185.8z M65.8,179.1L65.8,179.1c-0.6-0.6-1.6-0.6-2.3,0.1c-0.7,0.7-0.7,1.7-0.1,2.3l0,0
		c0.6,0.6,1.5,0.6,2.3-0.2C66.4,180.6,66.4,179.7,65.8,179.1z"/>
	<path class="st2" d="M70.2,179.5L70.2,179.5c-0.7-0.7-0.8-1.6-0.4-2.5c-0.8,0.2-1.5,0.2-2.2-0.5l0,0c-0.9-0.9-0.7-2.5,0.5-3.7
		c1.2-1.2,2.7-1.4,3.7-0.5l0,0c0.7,0.7,0.7,1.4,0.5,2.2c0.9-0.3,1.8-0.3,2.5,0.4l0,0c1.1,1.1,0.8,2.7-0.5,4
		C72.9,180.2,71.2,180.5,70.2,179.5z M70.9,173.5L70.9,173.5c-0.5-0.5-1.3-0.4-1.9,0.2c-0.6,0.6-0.7,1.4-0.2,1.9l0,0
		c0.5,0.5,1.3,0.4,1.9-0.2C71.3,174.8,71.4,174,70.9,173.5z M73.7,175.9L73.7,175.9c-0.6-0.6-1.5-0.4-2.2,0.3
		c-0.7,0.7-0.9,1.6-0.3,2.1l0,0c0.5,0.5,1.4,0.4,2.1-0.4C74.1,177.3,74.2,176.4,73.7,175.9z"/>
	<path class="st2" d="M75.2,167.7l-3,3l-0.9-0.9l4.2-4.2l0.8,0.8l2.5,7.8l-1.2,1.2L75.2,167.7z"/>
</g>
<g>
	<path class="st2" d="M85.8,183l-0.8,1.4l-1.1-0.6l1.1-2.1l0.7-0.7l6,6l-1,1L85.8,183z"/>
	<path class="st2" d="M92.6,184.8l-0.2-1.4c0.8-0.1,1.4-0.3,1.9-0.8c0.9-0.9,0.6-2.2-0.4-3.3c0.1,0.7-0.1,1.4-0.8,2
		c-1.3,1.3-2.8,1.4-4,0.2l0,0c-1.2-1.2-1.2-3,0.2-4.3c0.7-0.7,1.4-1,2.3-1c0.9,0,1.8,0.4,3,1.5l0,0c1.9,1.9,2.3,4.2,0.7,5.8
		C94.4,184.5,93.6,184.8,92.6,184.8z M92.5,178.1L92.5,178.1c-0.6-0.6-1.6-0.6-2.3,0.1c-0.7,0.7-0.7,1.7-0.1,2.3l0,0
		c0.6,0.6,1.5,0.6,2.3-0.2C93.2,179.6,93.1,178.7,92.5,178.1z"/>
	<path class="st2" d="M98.2,179.3l-0.2-1.4c0.8-0.1,1.4-0.3,1.9-0.8c0.9-0.9,0.6-2.2-0.4-3.3c0.1,0.7-0.1,1.4-0.8,2
		c-1.3,1.3-2.8,1.4-4,0.2l0,0c-1.2-1.2-1.2-3,0.2-4.3c0.7-0.7,1.4-1,2.3-1c0.9,0,1.8,0.4,3,1.5l0,0c1.9,1.9,2.3,4.2,0.7,5.8
		C100,178.9,99.1,179.2,98.2,179.3z M98.1,172.5L98.1,172.5c-0.6-0.6-1.6-0.6-2.3,0.1c-0.7,0.7-0.7,1.7-0.1,2.3l0,0
		c0.6,0.6,1.5,0.6,2.3-0.2C98.7,174,98.7,173.1,98.1,172.5z"/>
	<path class="st2" d="M103.3,173.8l0.3-3.8c0.1-1.5,0-2.2-0.5-2.7c-0.6-0.6-1.3-0.5-1.9,0c-0.5,0.5-0.6,1.2-0.5,2.3l-1.3,0.2
		c-0.2-1.4-0.1-2.4,0.9-3.4c1.2-1.2,2.7-1.2,3.7-0.2l0,0c0.9,0.9,1,1.9,0.8,3.8l-0.2,2.2l2.8-2.8l0.9,0.9l-4.3,4.3L103.3,173.8z"/>
</g>
<g>
	<path class="st2" d="M112.6,183.5l-0.8,1.4l-1.1-0.6l1.1-2.1l0.7-0.7l6,6l-1,1L112.6,183.5z"/>
	<path class="st2" d="M119.3,185.4l-0.2-1.4c0.8-0.1,1.4-0.3,1.9-0.8c0.9-0.9,0.6-2.2-0.4-3.3c0.1,0.7-0.1,1.4-0.8,2
		c-1.3,1.3-2.8,1.4-4,0.2l0,0c-1.2-1.2-1.2-3,0.2-4.3c0.7-0.7,1.4-1,2.3-1c0.9,0,1.8,0.4,3,1.5l0,0c1.9,1.9,2.3,4.2,0.7,5.8
		C121.1,185,120.3,185.3,119.3,185.4z M119.3,178.6L119.3,178.6c-0.6-0.6-1.6-0.6-2.3,0.1c-0.7,0.7-0.7,1.7-0.1,2.3l0,0
		c0.6,0.6,1.5,0.6,2.3-0.2C119.9,180.1,119.8,179.2,119.3,178.6z"/>
	<path class="st2" d="M124.9,179.8l-0.2-1.4c0.8-0.1,1.4-0.3,1.9-0.8c0.9-0.9,0.6-2.2-0.4-3.3c0.1,0.7-0.1,1.4-0.8,2
		c-1.3,1.3-2.8,1.4-4,0.2l0,0c-1.2-1.2-1.2-3,0.2-4.3c0.7-0.7,1.4-1,2.3-1c0.9,0,1.8,0.4,3,1.5l0,0c1.9,1.9,2.3,4.2,0.7,5.8
		C126.7,179.4,125.8,179.7,124.9,179.8z M124.8,173.1L124.8,173.1c-0.6-0.6-1.6-0.6-2.3,0.1c-0.7,0.7-0.7,1.7-0.1,2.3l0,0
		c0.6,0.6,1.5,0.6,2.3-0.2C125.4,174.6,125.4,173.6,124.8,173.1z"/>
	<path class="st2" d="M128.9,167l-3,3l-0.9-0.9l4.2-4.2l0.8,0.8l2.5,7.8l-1.2,1.2L128.9,167z"/>
</g>
<g>
	<path class="st2" d="M171.3,191.2l0.3-3.8c0.1-1.5,0-2.2-0.5-2.7c-0.6-0.6-1.3-0.5-1.9,0s-0.6,1.2-0.5,2.3l-1.3,0.2
		c-0.2-1.4-0.1-2.4,0.9-3.4c1.2-1.2,2.7-1.2,3.7-0.2l0,0c0.9,0.9,0.9,1.9,0.8,3.8l-0.2,2.2l2.8-2.8l0.9,0.9l-4.3,4.3L171.3,191.2z"
		/>
	<path class="st2" d="M174.4,183.8L174.4,183.8c-1.7-1.7-2.1-4.1-0.5-5.7c1.6-1.6,3.9-1.2,5.6,0.5l0,0c1.7,1.7,2,4.1,0.5,5.7
		C178.5,185.9,176.1,185.5,174.4,183.8z M178.5,179.7L178.5,179.7c-1.2-1.2-2.7-1.5-3.7-0.6c-0.9,0.9-0.6,2.4,0.6,3.6l0,0
		c1.2,1.2,2.7,1.5,3.6,0.6C180,182.4,179.7,180.9,178.5,179.7z"/>
	<path class="st2" d="M180.5,177.7L180.5,177.7c-1.7-1.7-2.1-4.1-0.5-5.7c1.6-1.6,3.9-1.2,5.6,0.5l0,0c1.7,1.7,2,4.1,0.5,5.7
		C184.6,179.7,182.2,179.4,180.5,177.7z M184.6,173.6L184.6,173.6c-1.2-1.2-2.7-1.5-3.7-0.6c-0.9,0.9-0.6,2.4,0.6,3.6l0,0
		c1.2,1.2,2.7,1.5,3.6,0.6C186.2,176.3,185.8,174.8,184.6,173.6z"/>
	<path class="st2" d="M187.5,166.6l-3,3l-0.9-0.9l4.2-4.2l0.8,0.8l2.5,7.8l-1.2,1.2L187.5,166.6z"/>
</g>
<g>
	<path class="st2" d="M196.2,188.1l0.3-3.8c0.1-1.5,0-2.2-0.5-2.7c-0.6-0.6-1.3-0.5-1.9,0c-0.5,0.5-0.6,1.2-0.5,2.3l-1.3,0.2
		c-0.2-1.4-0.1-2.4,0.9-3.4c1.2-1.2,2.7-1.2,3.7-0.2l0,0c0.9,0.9,0.9,1.9,0.8,3.8l-0.2,2.2l2.8-2.8l0.9,0.9l-4.3,4.3L196.2,188.1z"
		/>
	<path class="st2" d="M199.4,180.7L199.4,180.7c-1.7-1.7-2.1-4.1-0.5-5.7c1.6-1.6,3.9-1.2,5.6,0.5l0,0c1.7,1.7,2,4.1,0.5,5.7
		C203.5,182.8,201.1,182.4,199.4,180.7z M203.5,176.6L203.5,176.6c-1.2-1.2-2.7-1.5-3.7-0.6s-0.6,2.4,0.6,3.6l0,0
		c1.2,1.2,2.7,1.5,3.6,0.6C205,179.3,204.6,177.8,203.5,176.6z"/>
	<path class="st2" d="M204.5,171.6l-0.8,1.4l-1.1-0.6l1.1-2.1l0.7-0.7l6,6l-1,1L204.5,171.6z"/>
	<path class="st2" d="M210.9,173.5l0.3-3.8c0.1-1.5,0-2.2-0.5-2.7c-0.6-0.6-1.3-0.5-1.9,0s-0.6,1.2-0.5,2.3l-1.3,0.2
		c-0.2-1.4-0.1-2.4,0.9-3.4c1.2-1.2,2.7-1.2,3.7-0.2l0,0c0.9,0.9,0.9,1.9,0.8,3.8l-0.2,2.2l2.8-2.8l0.9,0.9l-4.3,4.3L210.9,173.5z"
		/>
</g>
<g>
	<path class="st2" d="M142.6,191.2l0.3-3.8c0.1-1.5,0-2.2-0.5-2.7c-0.6-0.6-1.3-0.5-1.9,0c-0.5,0.5-0.6,1.2-0.5,2.3l-1.3,0.2
		c-0.2-1.4-0.1-2.4,0.9-3.4c1.2-1.2,2.7-1.2,3.7-0.2l0,0c0.9,0.9,1,1.9,0.8,3.8l-0.2,2.2l2.8-2.8l0.9,0.9l-4.3,4.3L142.6,191.2z"/>
	<path class="st2" d="M145.7,183.8L145.7,183.8c-1.7-1.7-2.1-4.1-0.5-5.7c1.6-1.6,3.9-1.2,5.6,0.5l0,0c1.7,1.7,2,4.1,0.5,5.7
		S147.4,185.5,145.7,183.8z M149.8,179.7L149.8,179.7c-1.2-1.2-2.7-1.5-3.7-0.6s-0.6,2.4,0.6,3.6l0,0c1.2,1.2,2.7,1.5,3.6,0.6
		C151.4,182.4,151,180.9,149.8,179.7z"/>
	<path class="st2" d="M151.9,177.7L151.9,177.7c-1.7-1.7-2.1-4.1-0.5-5.7c1.6-1.6,3.9-1.2,5.6,0.5l0,0c1.7,1.7,2,4.1,0.5,5.7
		S153.6,179.4,151.9,177.7z M156,173.6L156,173.6c-1.2-1.2-2.7-1.5-3.7-0.6s-0.6,2.4,0.6,3.6l0,0c1.2,1.2,2.7,1.5,3.6,0.6
		C157.5,176.3,157.1,174.7,156,173.6z"/>
	<path class="st2" d="M160,173.8l0.3-3.8c0.1-1.5,0-2.2-0.5-2.7c-0.6-0.6-1.3-0.5-1.9,0c-0.5,0.5-0.6,1.2-0.5,2.3l-1.3,0.2
		c-0.2-1.4-0.1-2.4,0.9-3.4c1.2-1.2,2.7-1.2,3.7-0.2l0,0c0.9,0.9,0.9,1.9,0.8,3.8l-0.2,2.2l2.8-2.8l0.9,0.9l-4.3,4.3L160,173.8z"/>
</g>
</svg>
