<?xml version="1.0" encoding="utf-8"?>
<!-- Generator: Adobe Illustrator 16.0.0, SVG Export Plug-In . SVG Version: 6.00 Build 0)  -->
<!DOCTYPE svg PUBLIC "-//W3C//DTD SVG 1.1//EN" "http://www.w3.org/Graphics/SVG/1.1/DTD/svg11.dtd">
<svg version="1.1" xmlns="http://www.w3.org/2000/svg" xmlns:xlink="http://www.w3.org/1999/xlink" x="0px" y="0px" width="217px"
	 height="217px" viewBox="0 0 217 217" enable-background="new 0 0 217 217" xml:space="preserve">
<g id="Layer_1">
	<g>
		<g>
			<text transform="matrix(1 0 0 1 4 148.0547)" fill="#5A5A5A" font-family="'Montserrat-Regular'" font-size="10.0712">0%</text>
		</g>
		<g>
			<text transform="matrix(1 0 0 1 4.9849 132.0898)" fill="#5A5A5A" font-family="'Montserrat-Regular'" font-size="10.0712">1%</text>
		</g>
		<g>
			<text transform="matrix(1 0 0 1 3.9849 116.1191)" fill="#5A5A5A" font-family="'Montserrat-Regular'" font-size="10.0712">2%</text>
		</g>
		<g>
			<text transform="matrix(1 0 0 1 3.9849 100.1479)" fill="#5A5A5A" font-family="'Montserrat-Regular'" font-size="10.0712">3%</text>
		</g>
		<g>
			<text transform="matrix(1 0 0 1 3.9849 84.1812)" fill="#5A5A5A" font-family="'Montserrat-Regular'" font-size="10.0712">4%</text>
		</g>
		<g>
			<text transform="matrix(1 0 0 1 3.9849 68.2114)" fill="#5A5A5A" font-family="'Montserrat-Regular'" font-size="10.0712">5%</text>
		</g>
		<g>
			
				<text transform="matrix(0.7071 -0.7071 0.7071 0.7071 10.7983 171.6553)" fill="#5A5A5A" font-family="'Montserrat-Regular'" font-size="10.0712">2003</text>
		</g>
		<g>
			
				<text transform="matrix(0.7071 -0.7071 0.7071 0.7071 45.7446 171.6543)" fill="#5A5A5A" font-family="'Montserrat-Regular'" font-size="10.0712">2005</text>
		</g>
		<g>
			
				<text transform="matrix(0.7071 -0.7071 0.7071 0.7071 80.6914 171.6543)" fill="#5A5A5A" font-family="'Montserrat-Regular'" font-size="10.0712">2007</text>
		</g>
		<g>
			
				<text transform="matrix(0.7071 -0.7071 0.7071 0.7071 115.6328 171.6543)" fill="#5A5A5A" font-family="'Montserrat-Regular'" font-size="10.0712">2009</text>
		</g>
		<g>
			
				<text transform="matrix(0.7071 -0.7071 0.7071 0.7071 150.5781 171.6563)" fill="#5A5A5A" font-family="'Montserrat-Regular'" font-size="10.0712">2011</text>
		</g>
		<g>
			
				<text transform="matrix(0.7071 -0.7071 0.7071 0.7071 185.5244 171.6553)" fill="#5A5A5A" font-family="'Montserrat-Regular'" font-size="10.0712">2013</text>
		</g>
	</g>
</g>
<g id="Layer_3">
	<polygon fill-rule="evenodd" clip-rule="evenodd" fill="#ABD483" points="23.53,83.27 23.53,146.04 217,146.04 217,70.225 
		199.352,71.85 180.246,71.51 146.307,75.382 128.43,74.532 59.982,82.391 41.098,81.922 	"/>
</g>
<g id="Layer_2">
	<polygon fill-rule="evenodd" clip-rule="evenodd" fill="#80BC56" points="93.084,84.904 93.084,145.517 216.598,145.517 
		216.598,78.632 180.615,78.901 163.557,74.684 131.182,84.181 111.592,88.068 	"/>
	<polygon fill="#80BC56" points="23.36,83.27 23.36,145.517 59.174,145.517 59.174,81.647 42.274,83.662 	"/>
</g>
<g id="Layer_4">
	<text transform="matrix(1 0 0 1 145.75 110.5)" fill="#FFFFFF" font-family="'Montserrat-Bold'" font-size="10">HI</text>
	<text transform="matrix(1 0 0 1 109.25 85.25)" fill="#FFFFFF" font-family="'Montserrat-Bold'" font-size="10">US</text>
</g>
</svg>
