<?xml version="1.0" encoding="utf-8"?>
<!-- Generator: Adobe Illustrator 16.0.0, SVG Export Plug-In . SVG Version: 6.00 Build 0)  -->
<!DOCTYPE svg PUBLIC "-//W3C//DTD SVG 1.1//EN" "http://www.w3.org/Graphics/SVG/1.1/DTD/svg11.dtd">
<svg version="1.1" id="Layer_1" xmlns="http://www.w3.org/2000/svg" xmlns:xlink="http://www.w3.org/1999/xlink" x="0px" y="0px"
	 width="217px" height="217px" viewBox="0 0 217 217" enable-background="new 0 0 217 217" xml:space="preserve">
<g id="Layer_4">
	<polygon fill="#D5E7B4" points="30.412,53.808 92.902,50.122 152.157,39.692 173.645,41.759 194.867,38.163 214.288,36.544 
		214.288,158.649 30.412,158.649 	"/>
</g>
<g id="Layer_3">
	<polygon fill="#80BC57" points="30.412,80.873 30.412,158.379 214.737,158.379 214.737,62.799 193.699,65.047 173.377,66.577 
		132.733,76.377 112.415,76.377 92.095,73.32 50.732,81.591 	"/>
</g>
<g id="Layer_2">
	<text transform="matrix(1 0 0 1 18.5967 159.4648)" fill="#676868" font-family="'ArialMT'" font-size="12.5881">0</text>
	<text transform="matrix(1 0 0 1 19.6865 133.0498)" fill="#676868" font-family="'ArialMT'" font-size="12.5881">1</text>
	<text transform="matrix(1 0 0 1 19.6865 106.3975)" fill="#676868" font-family="'ArialMT'" font-size="12.5881">2</text>
	<text transform="matrix(1 0 0 1 20.5938 80.1689)" fill="#676868" font-family="'ArialMT'" font-size="12.5881">3</text>
	<text transform="matrix(1 0 0 1 19.333 52.5469)" fill="#676868" font-family="'ArialMT'" font-size="12.5881">4</text>
	<text transform="matrix(1 0 0 1 20.0508 26.625)" fill="#676868" font-family="'ArialMT'" font-size="12.5881">5</text>
	
		<text transform="matrix(0.6787 -0.7344 0.7344 0.6787 16.3516 191.3799)" fill="#676868" font-family="'ArialMT'" font-size="12.5878">2003</text>
	
		<text transform="matrix(0.6949 -0.7191 0.7191 0.6949 36.3096 191.376)" display="none" fill="#676868" enable-background="new    " font-family="'ArialMT'" font-size="12.588">2004</text>
	
		<text transform="matrix(0.7349 -0.6782 0.6782 0.7349 57.5737 191.377)" fill="#676868" font-family="'ArialMT'" font-size="12.5885">2005</text>
	
		<text transform="matrix(0.7166 -0.6975 0.6975 0.7166 80.3545 191.3779)" display="none" fill="#676868" enable-background="new    " font-family="'ArialMT'" font-size="12.5884">2006</text>
	
		<text transform="matrix(0.7153 -0.6988 0.6988 0.7153 102.9072 191.3789)" fill="#676868" font-family="'ArialMT'" font-size="12.5878">2007</text>
	
		<text transform="matrix(0.7387 -0.674 0.674 0.7387 124.0273 191.3799)" display="none" fill="#676868" enable-background="new    " font-family="'ArialMT'" font-size="12.5875">2008</text>
	
		<text transform="matrix(0.7454 -0.6666 0.6666 0.7454 143.2656 191.3779)" fill="#676868" font-family="'ArialMT'" font-size="12.5878">2009</text>
	
		<text transform="matrix(0.7185 -0.6956 0.6956 0.7185 165.1357 191.3799)" display="none" fill="#676868" enable-background="new    " font-family="'ArialMT'" font-size="12.59">2010</text>
	
		<text transform="matrix(0.6537 -0.7568 0.7568 0.6537 185.3086 191.4883)" fill="#676868" font-family="'ArialMT'" font-size="12.5889">2011</text>
	
		<text transform="matrix(0.7606 -0.6492 0.6492 0.7606 201.5654 191.3799)" display="none" fill="#676868" enable-background="new    " font-family="'ArialMT'" font-size="12.5877">2012</text>
	
		<text transform="matrix(4.489659e-011 -1 1 4.489659e-011 13.0176 156.0518)" fill="#676868" font-family="'ArialMT'" font-size="12.5881">% of all occupations</text>
	<text transform="matrix(1 0 0 1 152.2949 106.3975)" fill="#FFFFFF" font-family="'ArialMT'" font-size="12.5881">HI</text>
	<text transform="matrix(1 0 0 1 144.9629 60.6699)" fill="#FFFFFF" font-family="'ArialMT'" font-size="12.5881">US</text>
</g>
</svg>
