<?xml version="1.0" encoding="utf-8"?>
<!-- Generator: Adobe Illustrator 19.2.0, SVG Export Plug-In . SVG Version: 6.00 Build 0)  -->
<svg version="1.1" xmlns="http://www.w3.org/2000/svg" xmlns:xlink="http://www.w3.org/1999/xlink" x="0px" y="0px"
	 viewBox="0 0 217 217" style="enable-background:new 0 0 217 217;" xml:space="preserve">
<style type="text/css">
	.st0{fill:#5A5B5B;}
	.st1{fill:#AAD483;}
	.st2{fill:#80BC56;}
	.st3{fill:#FFFFFF;}
</style>
<g id="Layer_1">
	<g>
		<g>
			<path class="st0" d="M21,161.7H20l2-4.4h-2l0,0.7h-0.8v-1.5H23v0.7L21,161.7z"/>
			<path class="st0" d="M28,159.1c0,1.7-0.8,2.6-2.2,2.6c-1.4,0-2.2-0.9-2.2-2.6c0-1.7,0.8-2.6,2.2-2.6
				C27.2,156.5,28,157.4,28,159.1z M24.5,159.1c0,1.3,0.4,1.9,1.3,1.9c0.9,0,1.3-0.6,1.3-1.9c0-1.3-0.4-1.9-1.3-1.9
				C24.9,157.2,24.5,157.8,24.5,159.1z"/>
			<path class="st0" d="M31.4,158c0,1-0.5,1.6-1.4,1.6s-1.4-0.6-1.4-1.6c0-1,0.5-1.6,1.4-1.6S31.4,157.1,31.4,158z M29.2,158
				c0,0.7,0.3,1.1,0.8,1.1s0.8-0.4,0.8-1.1c0-0.7-0.3-1-0.8-1S29.2,157.4,29.2,158z M33.5,156.5h0.8l-3.8,5.2h-0.8L33.5,156.5z
				 M35.4,160.2c0,1-0.5,1.6-1.4,1.6s-1.4-0.6-1.4-1.6c0-1,0.5-1.6,1.4-1.6S35.4,159.2,35.4,160.2z M33.2,160.2
				c0,0.7,0.3,1.1,0.8,1.1s0.8-0.4,0.8-1.1c0-0.7-0.3-1.1-0.8-1.1S33.2,159.5,33.2,160.2z"/>
		</g>
	</g>
	<g>
		<g>
			<path class="st0" d="M21.5,133.6h-0.9l2-4.4h-2l0,0.7h-0.8v-1.5h3.8v0.7L21.5,133.6z"/>
			<path class="st0" d="M25.1,129.2v1.1l0.7,0c1.1,0,1.9,0.7,1.9,1.6c0,1.1-0.8,1.8-1.9,1.8c-0.6,0-1.3-0.2-1.9-0.6l0.4-0.7
				c0.4,0.4,0.9,0.6,1.4,0.6c0.7,0,1.1-0.4,1.1-0.9c0-0.5-0.4-0.9-1.1-0.9c-0.3,0-1,0-1.4,0.1v-2.8h3.2l0,0.8H25.1z"/>
			<path class="st0" d="M31.1,129.9c0,1-0.5,1.6-1.4,1.6c-0.9,0-1.4-0.6-1.4-1.6c0-1,0.5-1.6,1.4-1.6
				C30.6,128.4,31.1,128.9,31.1,129.9z M28.9,129.9c0,0.7,0.3,1.1,0.8,1.1s0.8-0.4,0.8-1.1c0-0.7-0.3-1-0.8-1S28.9,129.2,28.9,129.9
				z M33.2,128.4H34l-3.8,5.2h-0.8L33.2,128.4z M35,132.1c0,1-0.5,1.6-1.4,1.6s-1.4-0.6-1.4-1.6c0-1,0.5-1.6,1.4-1.6
				S35,131.1,35,132.1z M32.8,132.1c0,0.7,0.3,1.1,0.8,1.1s0.8-0.4,0.8-1.1c0-0.7-0.3-1.1-0.8-1.1S32.8,131.4,32.8,132.1z"/>
		</g>
	</g>
	<g>
		<g>
			<path class="st0" d="M23.1,101.6c0,0.5-0.3,0.9-0.8,1.1c0.6,0.2,1,0.7,1,1.3c0,0.9-0.8,1.5-2,1.5c-1.2,0-2-0.6-2-1.5
				c0-0.6,0.4-1.1,1.1-1.3c-0.5-0.2-0.8-0.6-0.8-1.2c0-0.8,0.7-1.3,1.7-1.3C22.4,100.2,23.1,100.7,23.1,101.6z M20.1,103.9
				c0,0.6,0.4,0.9,1.2,0.9c0.7,0,1.2-0.3,1.2-0.9c0-0.5-0.4-0.9-1.2-0.9C20.6,103.1,20.1,103.4,20.1,103.9z M20.3,101.6
				c0,0.5,0.4,0.8,1,0.8c0.6,0,1-0.3,1-0.8s-0.4-0.8-1-0.8C20.7,100.8,20.3,101.1,20.3,101.6z"/>
			<path class="st0" d="M28.4,102.9c0,1.7-0.8,2.6-2.2,2.6c-1.4,0-2.2-0.9-2.2-2.6c0-1.7,0.8-2.6,2.2-2.6
				C27.7,100.2,28.4,101.2,28.4,102.9z M24.9,102.9c0,1.3,0.4,1.9,1.3,1.9c0.9,0,1.3-0.6,1.3-1.9c0-1.3-0.4-1.9-1.3-1.9
				C25.3,100.9,24.9,101.5,24.9,102.9z"/>
			<path class="st0" d="M31.9,101.8c0,1-0.5,1.6-1.4,1.6c-0.9,0-1.4-0.6-1.4-1.6c0-1,0.5-1.6,1.4-1.6
				C31.3,100.2,31.9,100.8,31.9,101.8z M29.7,101.8c0,0.7,0.3,1.1,0.8,1.1c0.5,0,0.8-0.4,0.8-1.1c0-0.7-0.3-1-0.8-1
				C30,100.7,29.7,101.1,29.7,101.8z M33.9,100.2h0.8l-3.8,5.2h-0.8L33.9,100.2z M35.8,103.9c0,1-0.5,1.6-1.4,1.6
				c-0.9,0-1.4-0.6-1.4-1.6c0-1,0.5-1.6,1.4-1.6C35.3,102.4,35.8,103,35.8,103.9z M33.6,103.9c0,0.7,0.3,1.1,0.8,1.1
				s0.8-0.4,0.8-1.1c0-0.7-0.3-1.1-0.8-1.1S33.6,103.3,33.6,103.9z"/>
		</g>
	</g>
	<g>
		<g>
			<path class="st0" d="M22.6,73.4c0,0.5-0.3,0.9-0.8,1.1c0.6,0.2,1,0.7,1,1.3c0,0.9-0.8,1.5-2,1.5c-1.2,0-2-0.6-2-1.5
				c0-0.6,0.4-1.1,1.1-1.3c-0.5-0.2-0.8-0.6-0.8-1.2c0-0.8,0.7-1.3,1.7-1.3C22,72.1,22.6,72.6,22.6,73.4z M19.7,75.8
				c0,0.6,0.4,0.9,1.2,0.9s1.2-0.3,1.2-0.9c0-0.5-0.4-0.9-1.2-0.9C20.1,74.9,19.7,75.3,19.7,75.8z M19.9,73.5c0,0.5,0.4,0.8,1,0.8
				c0.6,0,1-0.3,1-0.8c0-0.5-0.4-0.8-1-0.8C20.3,72.7,19.9,73,19.9,73.5z"/>
			<path class="st0" d="M24.6,72.9V74l0.7,0c1.1,0,1.9,0.7,1.9,1.6c0,1.1-0.8,1.8-1.9,1.8c-0.6,0-1.3-0.2-1.9-0.6l0.4-0.7
				c0.4,0.4,0.9,0.6,1.4,0.6c0.7,0,1.1-0.4,1.1-0.9c0-0.5-0.4-0.9-1.1-0.9c-0.3,0-1,0-1.4,0.1v-2.8H27l0,0.8H24.6z"/>
			<path class="st0" d="M30.6,73.7c0,1-0.5,1.6-1.4,1.6c-0.9,0-1.4-0.6-1.4-1.6c0-1,0.5-1.6,1.4-1.6C30.1,72.1,30.6,72.7,30.6,73.7z
				 M28.4,73.7c0,0.7,0.3,1.1,0.8,1.1c0.5,0,0.8-0.4,0.8-1.1c0-0.7-0.3-1-0.8-1C28.7,72.6,28.4,73,28.4,73.7z M32.6,72.1h0.8
				l-3.8,5.2h-0.8L32.6,72.1z M34.5,75.8c0,1-0.5,1.6-1.4,1.6s-1.4-0.6-1.4-1.6c0-1,0.5-1.6,1.4-1.6S34.5,74.8,34.5,75.8z
				 M32.3,75.8c0,0.7,0.3,1.1,0.8,1.1s0.8-0.4,0.8-1.1c0-0.7-0.3-1.1-0.8-1.1S32.3,75.1,32.3,75.8z"/>
		</g>
	</g>
	<g>
		<g>
			<path class="st0" d="M19.4,48.9l0.3-0.7c0.3,0.2,0.8,0.3,1.2,0.3c1,0,1.5-0.8,1.5-1.9c-0.3,0.5-0.8,0.7-1.4,0.7
				c-1,0-1.7-0.7-1.7-1.7c0-1.1,0.7-1.8,1.8-1.8c1.3,0,2.1,0.9,2.1,2.5c0,1.7-0.9,2.8-2.3,2.8C20.5,49.3,19.9,49.1,19.4,48.9z
				 M22.2,45.7c0-0.5-0.3-1-1.1-1c-0.6,0-1.1,0.4-1.1,1c0,0.6,0.4,1,1,1C21.8,46.7,22.2,46.2,22.2,45.7z"/>
			<path class="st0" d="M28.4,46.6c0,1.7-0.8,2.6-2.2,2.6c-1.4,0-2.2-0.9-2.2-2.6c0-1.7,0.8-2.6,2.2-2.6
				C27.6,44,28.4,44.9,28.4,46.6z M24.8,46.6c0,1.3,0.4,1.9,1.3,1.9c0.9,0,1.3-0.6,1.3-1.9c0-1.3-0.4-1.9-1.3-1.9
				C25.3,44.7,24.8,45.3,24.8,46.6z"/>
			<path class="st0" d="M31.8,45.5c0,1-0.5,1.6-1.4,1.6c-0.9,0-1.4-0.6-1.4-1.6c0-1,0.5-1.6,1.4-1.6C31.2,44,31.8,44.6,31.8,45.5z
				 M29.6,45.5c0,0.7,0.3,1.1,0.8,1.1s0.8-0.4,0.8-1.1c0-0.7-0.3-1-0.8-1S29.6,44.9,29.6,45.5z M33.8,44h0.8l-3.8,5.2H30L33.8,44z
				 M35.7,47.7c0,1-0.5,1.6-1.4,1.6c-0.9,0-1.4-0.6-1.4-1.6c0-1,0.5-1.6,1.4-1.6C35.2,46.1,35.7,46.7,35.7,47.7z M33.5,47.7
				c0,0.7,0.3,1.1,0.8,1.1c0.5,0,0.8-0.4,0.8-1.1c0-0.7-0.3-1.1-0.8-1.1C33.8,46.6,33.5,47,33.5,47.7z"/>
		</g>
	</g>
	<g>
		<g>
			<path class="st0" d="M37.4,182.6l-3.9-3.9l-0.9,0.9l-0.7-0.7l1.7-1.7l4.6,4.6L37.4,182.6z"/>
			<path class="st0" d="M39.1,180.3l-0.3-0.9c0.5-0.1,1-0.4,1.3-0.7c0.9-0.9,0.6-2-0.4-3c0.2,0.7,0,1.3-0.6,1.9
				c-0.9,0.9-2.1,0.9-3,0c-1-1-0.9-2.2,0.1-3.2c1.2-1.2,2.7-1.1,4.1,0.4c1.5,1.5,1.7,3.2,0.4,4.4C40.3,179.7,39.6,180.1,39.1,180.3z
				 M38.7,175c-0.4-0.4-1.1-0.6-1.8,0.1c-0.6,0.6-0.6,1.3-0.1,1.8c0.5,0.5,1.2,0.5,1.8-0.1C39.2,176.2,39.2,175.4,38.7,175z"/>
			<path class="st0" d="M43.2,169.9c0.4,0.4,0.5,1.1,0.3,1.7c0.7-0.4,1.5-0.3,2.1,0.3c0.8,0.8,0.6,2-0.5,3.1
				c-1.1,1.1-2.3,1.3-3.1,0.5c-0.6-0.6-0.6-1.4-0.2-2.1c-0.7,0.2-1.3,0.2-1.7-0.3c-0.7-0.7-0.6-1.8,0.4-2.7
				C41.4,169.3,42.4,169.1,43.2,169.9z M40.8,172.3c0.4,0.4,1,0.3,1.6-0.2c0.6-0.6,0.6-1.1,0.2-1.6c-0.4-0.4-1-0.4-1.6,0.2
				C40.4,171.3,40.4,171.9,40.8,172.3z M42.7,174.5c0.5,0.5,1.2,0.4,1.8-0.3c0.7-0.7,0.8-1.3,0.3-1.8c-0.5-0.5-1.1-0.4-1.8,0.3
				C42.3,173.4,42.2,174.1,42.7,174.5z"/>
			<path class="st0" d="M47,165.9c0.5,0.5,0.6,1.3,0.7,2.4l0.1,2.5l2.3-2.3l0.7,0.7l-3.3,3.3l-0.6-0.6l-0.1-3.5
				c0-0.7-0.2-1.3-0.4-1.5c-0.4-0.4-0.9-0.3-1.4,0.2c-0.4,0.4-0.6,1.1-0.7,1.8l-0.9-0.3c0.1-0.9,0.4-1.7,1-2.3
				C45.3,165.4,46.3,165.2,47,165.9z"/>
		</g>
	</g>
	<g>
		<g>
			<path class="st0" d="M64.5,182.6l-3.9-3.9l-0.9,0.9l-0.7-0.7l1.7-1.7l4.6,4.6L64.5,182.6z"/>
			<path class="st0" d="M66.2,180.3l-0.3-0.9c0.5-0.1,1-0.4,1.3-0.7c0.9-0.9,0.6-2-0.4-3c0.2,0.7,0,1.3-0.6,1.9
				c-0.9,0.9-2.1,0.9-3,0c-1-1-0.9-2.2,0.1-3.2c1.2-1.2,2.7-1,4.1,0.4c1.5,1.5,1.7,3.2,0.4,4.4C67.5,179.7,66.8,180.1,66.2,180.3z
				 M65.9,175c-0.4-0.4-1.2-0.6-1.8,0.1c-0.6,0.6-0.6,1.3-0.1,1.8c0.5,0.5,1.2,0.5,1.8-0.1C66.4,176.2,66.4,175.4,65.9,175z"/>
			<path class="st0" d="M70.3,169.9c0.4,0.4,0.5,1.1,0.3,1.7c0.7-0.4,1.5-0.3,2.1,0.3c0.8,0.8,0.6,2-0.5,3.1
				c-1.1,1.1-2.3,1.3-3.1,0.5c-0.6-0.6-0.6-1.4-0.2-2.1c-0.7,0.2-1.3,0.2-1.7-0.3c-0.7-0.7-0.6-1.8,0.4-2.7
				C68.5,169.3,69.6,169.1,70.3,169.9z M67.9,172.3c0.4,0.4,1,0.3,1.6-0.2c0.6-0.6,0.6-1.1,0.2-1.6c-0.4-0.4-1-0.4-1.6,0.2
				C67.6,171.3,67.5,171.9,67.9,172.3z M69.8,174.5c0.5,0.5,1.2,0.4,1.8-0.3c0.7-0.7,0.8-1.3,0.3-1.8c-0.5-0.5-1.1-0.4-1.8,0.3
				C69.4,173.4,69.3,174.1,69.8,174.5z"/>
			<path class="st0" d="M76.1,171l-0.8,0.8l-2.1-5.7l-1.8,1.8l0.6,0.7l-0.7,0.7l-1.3-1.3l3.4-3.4l0.6,0.6L76.1,171z"/>
		</g>
	</g>
	<g>
		<g>
			<path class="st0" d="M91.6,182.6l-3.9-3.9l-0.9,0.9l-0.7-0.7l1.7-1.7l4.6,4.6L91.6,182.6z"/>
			<path class="st0" d="M93.3,180.3l-0.3-0.9c0.5-0.1,1-0.4,1.3-0.7c0.9-0.9,0.6-2-0.4-3c0.2,0.7,0,1.3-0.6,1.9
				c-0.9,0.9-2.1,0.9-3,0c-1-1-0.9-2.2,0.1-3.2c1.2-1.2,2.7-1,4.1,0.4c1.5,1.5,1.7,3.2,0.4,4.4C94.5,179.7,93.8,180.1,93.3,180.3z
				 M92.9,175c-0.4-0.4-1.1-0.6-1.8,0.1c-0.6,0.6-0.6,1.3-0.1,1.8c0.5,0.5,1.2,0.5,1.8-0.1C93.5,176.2,93.4,175.4,92.9,175z"/>
			<path class="st0" d="M97.3,176.2l-0.3-0.9c0.5-0.1,1-0.4,1.3-0.7c0.9-0.9,0.6-2-0.4-3c0.2,0.7,0,1.3-0.6,1.9
				c-0.9,0.9-2.1,0.9-3,0c-1-1-0.9-2.2,0.1-3.2c1.2-1.2,2.7-1,4.1,0.4c1.5,1.5,1.7,3.2,0.4,4.4C98.6,175.6,97.9,176,97.3,176.2z
				 M97,170.9c-0.4-0.4-1.1-0.6-1.8,0.1c-0.6,0.6-0.6,1.3-0.1,1.8c0.5,0.5,1.2,0.5,1.8-0.1C97.5,172.2,97.5,171.4,97,170.9z"/>
			<path class="st0" d="M101.2,166c0.5,0.5,0.6,1.3,0.7,2.4l0.1,2.5l2.3-2.3l0.7,0.7l-3.3,3.3L101,172l-0.1-3.5
				c0-0.7-0.2-1.3-0.4-1.5c-0.4-0.4-0.9-0.3-1.4,0.2c-0.4,0.4-0.6,1.1-0.7,1.8l-0.9-0.3c0.1-0.9,0.4-1.7,1-2.3
				C99.4,165.4,100.5,165.3,101.2,166z"/>
		</g>
	</g>
	<g>
		<g>
			<path class="st0" d="M118.7,182.6l-3.9-3.9l-0.9,0.9l-0.7-0.7l1.7-1.7l4.6,4.6L118.7,182.6z"/>
			<path class="st0" d="M120.4,180.3l-0.3-0.9c0.5-0.1,1-0.4,1.3-0.7c0.9-0.9,0.6-2-0.4-3c0.2,0.7,0,1.3-0.6,1.9
				c-0.9,0.9-2.1,0.9-3,0c-1-1-0.9-2.2,0.1-3.2c1.2-1.2,2.7-1.1,4.1,0.4c1.5,1.5,1.7,3.2,0.4,4.4C121.7,179.7,121,180.1,120.4,180.3
				z M120.1,175c-0.4-0.4-1.1-0.6-1.8,0.1c-0.6,0.6-0.6,1.3-0.1,1.8c0.5,0.5,1.2,0.5,1.8-0.1C120.6,176.2,120.6,175.4,120.1,175z"/>
			<path class="st0" d="M124.5,176.2l-0.3-0.9c0.5-0.1,1-0.4,1.3-0.7c0.9-0.9,0.6-2-0.4-3c0.2,0.7,0,1.3-0.6,1.9
				c-0.9,0.9-2.1,0.9-3,0c-1-1-0.9-2.2,0.1-3.2c1.2-1.2,2.7-1.1,4.1,0.4c1.5,1.5,1.7,3.2,0.4,4.4C125.7,175.6,125.1,176,124.5,176.2
				z M124.1,170.9c-0.4-0.4-1.1-0.6-1.8,0.1c-0.6,0.6-0.6,1.3-0.1,1.8c0.5,0.5,1.2,0.5,1.8-0.1C124.7,172.2,124.6,171.4,124.1,170.9
				z"/>
			<path class="st0" d="M130.2,171.1l-0.8,0.8l-2.1-5.7l-1.8,1.8l0.6,0.7l-0.7,0.7l-1.3-1.3l3.4-3.4l0.6,0.6L130.2,171.1z"/>
		</g>
	</g>
	<g>
		<g>
			<path class="st0" d="M144.6,176.7c0.5,0.5,0.6,1.3,0.7,2.4l0.1,2.5l2.3-2.3l0.7,0.7l-3.3,3.3l-0.6-0.6l-0.1-3.5
				c0-0.7-0.2-1.3-0.4-1.5c-0.4-0.4-0.9-0.3-1.4,0.2c-0.4,0.4-0.6,1.1-0.7,1.8l-0.9-0.3c0.1-0.9,0.4-1.8,1-2.3
				C142.9,176.1,143.9,176,144.6,176.7z"/>
			<path class="st0" d="M150.6,173.1c1.5,1.5,1.6,3,0.4,4.3c-1.3,1.3-2.8,1.1-4.3-0.4c-1.5-1.5-1.6-3-0.4-4.3
				C147.6,171.5,149.1,171.6,150.6,173.1z M147.5,176.2c1.2,1.2,2.1,1.3,2.9,0.5c0.8-0.8,0.6-1.7-0.6-2.9c-1.2-1.2-2.1-1.3-2.9-0.6
				C146.1,174.1,146.3,175.1,147.5,176.2z"/>
			<path class="st0" d="M155.1,168.5c1.5,1.5,1.6,3,0.4,4.3c-1.3,1.3-2.8,1.1-4.3-0.4c-1.5-1.5-1.6-3-0.4-4.3
				C152.1,166.9,153.6,167.1,155.1,168.5z M152,171.7c1.2,1.2,2.1,1.3,2.9,0.5c0.8-0.8,0.6-1.7-0.6-2.9c-1.2-1.2-2.1-1.3-2.9-0.6
				C150.7,169.6,150.8,170.5,152,171.7z"/>
			<path class="st0" d="M157.7,163.7c0.5,0.5,0.6,1.3,0.7,2.4l0.1,2.5l2.3-2.3l0.7,0.7l-3.3,3.3l-0.6-0.6l-0.1-3.5
				c0-0.7-0.2-1.3-0.4-1.5c-0.4-0.4-0.9-0.3-1.4,0.2c-0.4,0.4-0.6,1.1-0.7,1.8l-0.9-0.3c0.1-0.9,0.4-1.8,1-2.3
				C155.9,163.1,157,163,157.7,163.7z"/>
		</g>
	</g>
	<g>
		<g>
			<path class="st0" d="M171.8,176.7c0.5,0.5,0.6,1.3,0.7,2.4l0.1,2.5l2.3-2.3l0.7,0.7l-3.3,3.3l-0.6-0.6l-0.1-3.5
				c0-0.7-0.2-1.3-0.4-1.5c-0.4-0.4-0.9-0.3-1.4,0.2c-0.4,0.4-0.6,1.1-0.7,1.8l-0.9-0.3c0.1-0.9,0.4-1.7,1-2.3
				C170,176.1,171.1,176,171.8,176.7z"/>
			<path class="st0" d="M177.7,173.1c1.5,1.5,1.6,3,0.4,4.3c-1.3,1.3-2.8,1.1-4.3-0.4c-1.5-1.5-1.6-3-0.4-4.3
				C174.7,171.5,176.2,171.6,177.7,173.1z M174.6,176.2c1.2,1.2,2.1,1.3,2.9,0.5c0.8-0.8,0.6-1.7-0.6-2.9c-1.2-1.2-2.1-1.3-2.9-0.6
				C173.3,174.1,173.4,175.1,174.6,176.2z"/>
			<path class="st0" d="M182.3,168.5c1.5,1.5,1.6,3,0.4,4.3c-1.3,1.3-2.8,1.1-4.3-0.4c-1.5-1.5-1.6-3-0.4-4.3
				C179.3,166.9,180.8,167,182.3,168.5z M179.2,171.7c1.2,1.2,2.1,1.3,2.9,0.5c0.8-0.8,0.6-1.7-0.6-2.9c-1.2-1.2-2.1-1.3-2.9-0.6
				C177.8,169.6,178,170.5,179.2,171.7z"/>
			<path class="st0" d="M186.7,168.8l-0.8,0.8l-2.1-5.7l-1.8,1.8l0.6,0.7l-0.7,0.7l-1.3-1.3l3.4-3.4l0.6,0.6L186.7,168.8z"/>
		</g>
	</g>
	<g>
		<g>
			<path class="st0" d="M198.9,176.7c0.5,0.5,0.6,1.3,0.7,2.4l0.1,2.5l2.3-2.3l0.7,0.7l-3.3,3.3l-0.6-0.6l-0.1-3.5
				c0-0.7-0.2-1.3-0.4-1.5c-0.4-0.4-0.9-0.3-1.4,0.2c-0.4,0.4-0.6,1.1-0.7,1.8l-0.9-0.3c0.1-0.9,0.4-1.7,1-2.3
				C197.1,176.1,198.1,176,198.9,176.7z"/>
			<path class="st0" d="M204.8,173.1c1.5,1.5,1.6,3,0.4,4.3c-1.3,1.3-2.8,1.1-4.3-0.4c-1.5-1.5-1.6-3-0.4-4.3
				C201.8,171.5,203.3,171.6,204.8,173.1z M201.7,176.2c1.2,1.2,2.1,1.3,2.9,0.5c0.8-0.8,0.6-1.7-0.6-2.9c-1.2-1.2-2.1-1.3-2.9-0.6
				C200.3,174.1,200.5,175.1,201.7,176.2z"/>
			<path class="st0" d="M208.4,174.1l-3.9-3.9l-0.9,0.9l-0.7-0.7l1.7-1.7l4.6,4.6L208.4,174.1z"/>
			<path class="st0" d="M209.9,165.7c0.5,0.5,0.6,1.3,0.7,2.4l0.1,2.5l2.3-2.3l0.7,0.7l-3.3,3.3l-0.6-0.6l-0.1-3.5
				c0-0.7-0.2-1.3-0.4-1.5c-0.4-0.4-0.9-0.3-1.4,0.2c-0.4,0.4-0.6,1.1-0.7,1.8l-0.9-0.3c0.1-0.9,0.4-1.7,1-2.3
				C208.1,165.1,209.2,165,209.9,165.7z"/>
		</g>
	</g>
</g>
<g id="Layer_3">
	<polygon class="st1" points="46.6,110.5 46.6,159.7 211.6,159.7 211.6,55.6 200,58 188.6,64.5 179,72.8 173.3,74.5 168.6,74.5 
		157.7,77.9 151.8,77.9 141.3,81.5 136.2,80.5 132.2,79.4 125.5,79.4 121,80.6 115.1,81.5 104.4,84.3 100,91.8 94,95.8 91.3,99.6 
		83.5,104.6 78.7,107.1 71.9,107.6 63.9,102.6 57.3,98.6 52,97.7 	"/>
</g>
<g id="Layer_2">
	<polygon class="st2" points="46.6,143.9 46.6,159.7 211.8,159.7 211.8,51.4 199.4,57 194,63.2 188.6,60.1 180.8,70.2 173,77.6 
		167.4,76.5 162.4,73.7 157.2,77.6 152,73.7 146.3,83.3 141.3,78.1 136,84.2 125.5,84.3 120.3,89.6 115.1,89.6 109.7,90.5 
		105.3,95.5 99,107 93.8,113.9 88.8,118.2 82.7,113.2 78.2,111.5 72.8,112.4 67.6,108.9 57.6,120 51.5,123 	"/>
</g>
<g id="Layer_4">
	<g>
		<path class="st3" d="M89,108.7c0,1.5-1,2.5-2.6,2.5s-2.6-0.9-2.6-2.5v-3.4h1v3.4c0,1,0.6,1.6,1.6,1.6c1,0,1.6-0.6,1.6-1.6v-3.4h1
			V108.7z"/>
		<path class="st3" d="M94.4,105.8l-0.4,0.9c-0.6-0.4-1.3-0.5-1.7-0.5c-0.6,0-1,0.2-1,0.6c0,1.3,3.2,0.6,3.2,2.7
			c0,1.1-0.9,1.7-2.2,1.7c-0.9,0-1.8-0.4-2.4-0.9l0.4-0.9c0.6,0.6,1.4,0.9,2,0.9c0.7,0,1.1-0.3,1.1-0.7c0-1.3-3.2-0.6-3.2-2.7
			c0-1,0.9-1.6,2.1-1.6C93.1,105.2,93.9,105.4,94.4,105.8z"/>
	</g>
	<g>
		<path class="st3" d="M153.3,127.5v-2.4h-3.1v2.4h-1v-5.9h1v2.6h3.1v-2.6h1v5.9H153.3z"/>
		<path class="st3" d="M155.8,127.5v-5.9h1v5.9H155.8z"/>
	</g>
	<g>
		<path class="st0" d="M5.8,160.5c1.3,0,2.1,0.7,2.1,1.9c0,1.2-0.8,1.9-2.1,1.9c-1.3,0-2.1-0.7-2.1-1.9
			C3.7,161.2,4.5,160.5,5.8,160.5z M3.7,157.7v-1.1l7.1,5.2v1.1L3.7,157.7z M5.8,163.5c0.9,0,1.4-0.4,1.4-1.1c0-0.7-0.5-1.1-1.4-1.1
			c-0.9,0-1.4,0.4-1.4,1.1C4.4,163.1,4.9,163.5,5.8,163.5z M8.7,155.2c1.3,0,2.1,0.7,2.1,1.9c0,1.2-0.8,1.9-2.1,1.9
			c-1.3,0-2.1-0.7-2.1-1.9C6.6,155.9,7.4,155.2,8.7,155.2z M8.7,158.1c0.9,0,1.4-0.4,1.4-1.1s-0.5-1.1-1.4-1.1
			c-0.9,0-1.4,0.4-1.4,1.1S7.8,158.1,8.7,158.1z"/>
		<path class="st0" d="M8.1,146.2c1.6,0,2.7,1.1,2.7,2.8c0,1.7-1.1,2.8-2.7,2.8c-1.6,0-2.7-1.1-2.7-2.8
			C5.4,147.3,6.5,146.2,8.1,146.2z M8.1,150.7c1,0,1.8-0.7,1.8-1.7c0-1-0.7-1.6-1.8-1.6c-1,0-1.7,0.7-1.7,1.6
			C6.4,150,7.1,150.7,8.1,150.7z"/>
		<path class="st0" d="M5,143.6h0.6v-1.4h0.9v1.4h4.3v1.2H6.5v0.7H5.6v-0.7H5.1c-1.3,0-1.9-0.9-1.9-1.9c0-0.4,0.1-0.9,0.4-1.2
			l0.9,0.4c-0.2,0.2-0.3,0.5-0.3,0.7C4.2,143.3,4.5,143.6,5,143.6z"/>
		<path class="st0" d="M3.7,136c0-1.8,0.9-2.8,2.4-2.8c1.6,0,2.5,1,2.5,2.8v1.6h2.1v1.2H3.7V136z M7.6,137.7v-1.6
			c0-1.1-0.5-1.7-1.4-1.7c-0.9,0-1.4,0.6-1.4,1.7v1.6H7.6z"/>
		<path class="st0" d="M6.5,131c-0.7-0.4-1.1-1-1.1-1.9h1.1C6.4,130.2,7,130.9,8,131h2.8v1.2H5.4V131H6.5z"/>
		<path class="st0" d="M3.9,126.9c0.4,0,0.7,0.3,0.7,0.7c0,0.4-0.3,0.7-0.7,0.7c-0.4,0-0.7-0.3-0.7-0.7
			C3.1,127.2,3.4,126.9,3.9,126.9z M10.8,128.1H5.4V127h5.4V128.1z"/>
		<path class="st0" d="M10.8,124l-5.4,2.1v-1.2l4.2-1.5l-4.2-1.5v-1.2l5.4,2.1V124z"/>
		<path class="st0" d="M10.1,116.8c0.5,0.4,0.7,1,0.7,1.8c0,1.2-0.7,1.9-1.7,1.9c-1,0-1.6-0.7-1.6-2v-1.6H7.4
			c-0.7,0-1.1,0.4-1.1,1.3c0,0.5,0.2,1.1,0.5,1.6L6,120.2c-0.4-0.8-0.7-1.3-0.7-2.3c0-1.4,0.7-2.2,1.9-2.2l3.5,0v1.1H10.1z
			 M8.9,116.9H8.4v1.5c0,0.8,0.2,1.1,0.7,1.1c0.5,0,0.8-0.4,0.8-1C9.9,117.5,9.5,116.9,8.9,116.9z"/>
		<path class="st0" d="M10.4,111.1c0.3,0.4,0.4,0.9,0.4,1.3c0,0.8-0.5,1.5-1.6,1.5H6.5v0.8H5.6v-0.8H4.1v-1.2h1.5v-1.6h0.9v1.6h2.6
			c0.6,0,0.7-0.2,0.7-0.6c0-0.2-0.1-0.5-0.2-0.8L10.4,111.1z"/>
		<path class="st0" d="M8.5,105.3v4.1c0.8-0.2,1.3-0.8,1.3-1.7c0-0.6-0.2-1.1-0.6-1.5l0.7-0.6c0.6,0.5,0.9,1.3,0.9,2.2
			c0,1.7-1.1,2.8-2.7,2.8c-1.6,0-2.7-1.1-2.7-2.7C5.4,106,6.6,105.2,8.5,105.3z M7.7,106.3c-0.9,0-1.4,0.6-1.4,1.5
			c0,0.9,0.5,1.4,1.4,1.6V106.3z"/>
		<path class="st0" d="M4.4,96.6l1.1,0.5c-0.5,0.8-0.7,1.5-0.7,2.1c0,0.7,0.3,1.2,0.7,1.2c1.6,0,0.7-3.8,3.3-3.8c1.3,0,2,1.1,2,2.7
			c0,1.1-0.5,2.2-1.1,2.9l-1-0.5c0.7-0.7,1-1.6,1-2.4c0-0.8-0.3-1.3-0.9-1.3c-1.6,0-0.7,3.8-3.2,3.8c-1.2,0-2-1-2-2.6
			C3.6,98.2,3.9,97.3,4.4,96.6z"/>
		<path class="st0" d="M8.5,90.4v4.1c0.8-0.2,1.3-0.8,1.3-1.7c0-0.6-0.2-1.1-0.6-1.5l0.7-0.6c0.6,0.5,0.9,1.3,0.9,2.2
			c0,1.7-1.1,2.8-2.7,2.8c-1.6,0-2.7-1.1-2.7-2.7C5.4,91.1,6.6,90.3,8.5,90.4z M7.7,91.5c-0.9,0-1.4,0.6-1.4,1.5
			c0,0.9,0.5,1.4,1.4,1.6V91.5z"/>
		<path class="st0" d="M6.2,84.8L7,85.4c-0.4,0.4-0.6,0.9-0.6,1.5c0,0.9,0.7,1.6,1.7,1.6s1.7-0.7,1.7-1.6c0-0.7-0.2-1.2-0.6-1.6
			l0.6-0.6c0.6,0.5,1,1.3,1,2.3c0,1.6-1.1,2.7-2.7,2.7c-1.6,0-2.7-1.1-2.7-2.7C5.4,86,5.7,85.3,6.2,84.8z"/>
		<path class="st0" d="M10.4,80.5c0.3,0.4,0.4,0.9,0.4,1.3c0,0.8-0.5,1.5-1.6,1.5H6.5v0.8H5.6v-0.8H4.1v-1.2h1.5v-1.6h0.9v1.6h2.6
			c0.6,0,0.7-0.2,0.7-0.6c0-0.2-0.1-0.5-0.2-0.8L10.4,80.5z"/>
		<path class="st0" d="M8.1,74.3c1.6,0,2.7,1.1,2.7,2.8c0,1.7-1.1,2.8-2.7,2.8c-1.6,0-2.7-1.1-2.7-2.8C5.4,75.5,6.5,74.3,8.1,74.3z
			 M8.1,78.8c1,0,1.8-0.7,1.8-1.7c0-1-0.7-1.6-1.8-1.6c-1,0-1.7,0.7-1.7,1.6C6.4,78.1,7.1,78.8,8.1,78.8z"/>
		<path class="st0" d="M6.5,71.9c-0.7-0.4-1.1-1-1.1-1.9h1.1C6.4,71.2,7,71.9,8,71.9h2.8v1.2H5.4v-1.2H6.5z"/>
		<path class="st0" d="M8.6,63.1c1.4,0,2.2,0.8,2.2,2.2c0,0.9-0.4,1.6-1,2.1l-0.9-0.6c0.5-0.5,0.8-1,0.8-1.5c0-0.6-0.4-1-1.1-1H4.8
			v2.5H3.7v-3.7H8.6z"/>
		<path class="st0" d="M8.1,56.3c1.6,0,2.7,1.1,2.7,2.8c0,1.7-1.1,2.8-2.7,2.8c-1.6,0-2.7-1.1-2.7-2.8C5.4,57.5,6.5,56.3,8.1,56.3z
			 M8.1,60.8c1,0,1.8-0.7,1.8-1.7c0-1-0.7-1.6-1.8-1.6c-1,0-1.7,0.7-1.7,1.6C6.4,60.1,7.1,60.8,8.1,60.8z"/>
		<path class="st0" d="M8.1,49.4c1.6,0,2.7,1,2.7,2.6c0,0.9-0.3,1.5-1,1.9h0.9v1.2H3.3v-1.2h3.1c-0.6-0.4-1-1-1-1.9
			C5.4,50.5,6.5,49.4,8.1,49.4z M8.1,50.6c-1,0-1.7,0.7-1.7,1.6c0,1,0.7,1.6,1.7,1.6c1,0,1.8-0.7,1.8-1.6
			C9.8,51.3,9.1,50.6,8.1,50.6z"/>
		<path class="st0" d="M5.9,44.7l0.9,0.4c-0.3,0.5-0.5,1.1-0.5,1.6c0,0.5,0.2,0.8,0.5,0.8c1,0,0.5-2.9,2.4-2.9c1.1,0,1.6,1,1.6,2.1
			c0,0.8-0.3,1.6-0.8,2.2l-0.8-0.4c0.4-0.5,0.7-1.2,0.7-1.8c0-0.5-0.2-0.9-0.6-0.9c-1.1,0-0.5,2.8-2.4,2.8c-1.1,0-1.6-1-1.6-2
			C5.3,45.9,5.5,45.2,5.9,44.7z"/>
	</g>
</g>
</svg>
