<?xml version="1.0" encoding="utf-8"?>
<!-- Generator: Adobe Illustrator 16.0.0, SVG Export Plug-In . SVG Version: 6.00 Build 0)  -->
<!DOCTYPE svg PUBLIC "-//W3C//DTD SVG 1.1//EN" "http://www.w3.org/Graphics/SVG/1.1/DTD/svg11.dtd">
<svg version="1.1" id="Layer_1" xmlns="http://www.w3.org/2000/svg" xmlns:xlink="http://www.w3.org/1999/xlink" x="0px" y="0px"
	 width="217px" height="217px" viewBox="0 0 217 217" enable-background="new 0 0 217 217" xml:space="preserve">
<g>
	<g>
		<g>
			<g>
				<g>
					<g>
						<defs>
							<rect id="SVGID_1_" x="49.246" y="20.907" width="148.725" height="156.516"/>
						</defs>
						<clipPath id="SVGID_2_">
							<use xlink:href="#SVGID_1_"  overflow="visible"/>
						</clipPath>
						<polygon opacity="0.4" clip-path="url(#SVGID_2_)" fill="#81C5C9" enable-background="new    " points="49.246,92.658 
							59.605,88.633 70.651,92.658 80.925,101.563 91.971,94.285 102.331,95.055 113.29,60.207 123.65,78.016 134.012,78.016 
							144.971,75.619 155.33,78.016 166.291,59.436 176.65,57.809 187.012,44.024 197.971,64.231 197.971,177.423 49.246,177.423 
													"/>
					</g>
				</g>
			</g>
		</g>
		<polygon fill="#81C5C9" points="49.246,134.783 59.605,134.783 70.651,133.156 80.925,123.48 91.971,112.949 102.331,105.586 
			113.29,103.189 123.65,104.045 134.012,106.442 144.971,108.84 155.33,104.045 166.291,90.26 176.65,86.15 187.012,82.126 
			197.971,88.633 197.971,177.423 49.246,177.423 		"/>
		<g>
			<g enable-background="new    ">
				<path fill="#676868" d="M26.437,176.449c0.181-0.273,0.271-0.551,0.271-0.83c0-0.28-0.096-0.519-0.289-0.715
					c-0.192-0.197-0.437-0.295-0.731-0.295c-0.518,0-0.948,0.293-1.292,0.879l-0.857-0.549c0.276-0.461,0.582-0.807,0.916-1.041
					c0.334-0.232,0.765-0.35,1.292-0.35c0.526,0,0.989,0.186,1.386,0.555c0.397,0.371,0.596,0.875,0.596,1.516
					c0,0.359-0.084,0.703-0.253,1.029c-0.168,0.327-0.479,0.747-0.93,1.261l-1.48,1.67h2.862v1.13h-4.315v-1l1.914-2.13
					C25.953,177.1,26.256,176.723,26.437,176.449z"/>
				<path fill="#676868" d="M29.195,180.568c-0.129-0.146-0.194-0.322-0.194-0.529s0.065-0.382,0.194-0.525
					c0.129-0.143,0.288-0.215,0.474-0.215s0.346,0.072,0.479,0.215c0.132,0.144,0.199,0.318,0.199,0.525s-0.066,0.383-0.199,0.529
					s-0.292,0.221-0.479,0.221S29.325,180.715,29.195,180.568z"/>
				<path fill="#676868" d="M32.008,179.805c-0.428-0.657-0.641-1.535-0.641-2.636s0.213-1.978,0.641-2.635
					c0.427-0.657,1.071-0.985,1.932-0.985s1.505,0.328,1.932,0.985s0.641,1.534,0.641,2.635s-0.214,1.979-0.641,2.636
					c-0.427,0.656-1.071,0.984-1.932,0.984S32.436,180.461,32.008,179.805z M32.771,175.279c-0.25,0.479-0.375,1.109-0.375,1.89
					s0.125,1.41,0.375,1.89c0.25,0.48,0.64,0.721,1.169,0.721s0.917-0.238,1.16-0.715s0.366-1.109,0.366-1.896
					s-0.122-1.419-0.366-1.896s-0.63-0.715-1.16-0.715S33.021,174.799,32.771,175.279z"/>
				<path fill="#676868" d="M38.22,179.805c-0.428-0.657-0.641-1.535-0.641-2.636s0.213-1.978,0.641-2.635
					c0.427-0.657,1.071-0.985,1.932-0.985s1.505,0.328,1.932,0.985s0.641,1.534,0.641,2.635s-0.214,1.979-0.641,2.636
					c-0.427,0.656-1.071,0.984-1.932,0.984S38.647,180.461,38.22,179.805z M38.982,175.279c-0.25,0.479-0.375,1.109-0.375,1.89
					s0.125,1.41,0.375,1.89c0.25,0.48,0.64,0.721,1.169,0.721s0.917-0.238,1.16-0.715s0.366-1.109,0.366-1.896
					s-0.122-1.419-0.366-1.896s-0.63-0.715-1.16-0.715S39.232,174.799,38.982,175.279z"/>
			</g>
		</g>
		<g>
			<g enable-background="new    ">
				<path fill="#676868" d="M26.437,154.093c0.181-0.273,0.271-0.55,0.271-0.83s-0.096-0.519-0.289-0.716
					c-0.192-0.195-0.437-0.295-0.731-0.295c-0.518,0-0.948,0.294-1.292,0.881l-0.857-0.551c0.276-0.459,0.582-0.807,0.916-1.039
					c0.334-0.234,0.765-0.351,1.292-0.351c0.526,0,0.989,0.185,1.386,0.556c0.397,0.369,0.596,0.875,0.596,1.515
					c0,0.36-0.084,0.703-0.253,1.03c-0.168,0.326-0.479,0.746-0.93,1.26l-1.48,1.67h2.862v1.13h-4.315v-1l1.914-2.13
					C25.953,154.742,26.256,154.366,26.437,154.093z"/>
				<path fill="#676868" d="M29.195,158.213c-0.129-0.146-0.194-0.324-0.194-0.53s0.065-0.382,0.194-0.524
					c0.129-0.145,0.288-0.216,0.474-0.216s0.346,0.071,0.479,0.216c0.132,0.143,0.199,0.318,0.199,0.524s-0.066,0.384-0.199,0.53
					s-0.292,0.22-0.479,0.22S29.325,158.359,29.195,158.213z"/>
				<path fill="#676868" d="M35.322,151.353v1.069h-2.664v1.721c0.265-0.16,0.565-0.24,0.903-0.24c0.59,0,1.099,0.197,1.526,0.59
					c0.427,0.394,0.641,0.928,0.641,1.601s-0.223,1.231-0.668,1.675c-0.446,0.443-0.993,0.665-1.644,0.665
					c-0.849,0-1.526-0.313-2.031-0.94l0.569-0.859c0.048,0.053,0.113,0.116,0.194,0.189c0.082,0.074,0.249,0.172,0.501,0.295
					c0.253,0.124,0.53,0.186,0.831,0.186c0.301,0,0.575-0.1,0.821-0.301c0.247-0.199,0.37-0.491,0.37-0.875
					c0-0.383-0.131-0.68-0.393-0.89s-0.593-0.315-0.993-0.315s-0.781,0.111-1.142,0.33l-0.452-0.539v-3.36H35.322z"/>
				<path fill="#676868" d="M37.335,157.447c-0.428-0.656-0.641-1.535-0.641-2.635s0.213-1.979,0.641-2.635
					c0.427-0.656,1.071-0.985,1.932-0.985s1.505,0.329,1.932,0.985s0.641,1.535,0.641,2.635s-0.214,1.979-0.641,2.635
					c-0.427,0.657-1.071,0.985-1.932,0.985S37.762,158.104,37.335,157.447z M38.098,152.922c-0.25,0.48-0.375,1.111-0.375,1.891
					c0,0.78,0.125,1.41,0.375,1.891c0.25,0.479,0.64,0.719,1.169,0.719s0.917-0.238,1.16-0.715s0.366-1.107,0.366-1.895
					s-0.122-1.418-0.366-1.895s-0.63-0.715-1.16-0.715S38.348,152.442,38.098,152.922z"/>
			</g>
		</g>
		<g>
			<g enable-background="new    ">
				<path fill="#676868" d="M23.783,130.057v-1.05h3.693v0.921l-1.526,1.889c0.578,0.021,1.029,0.223,1.354,0.605
					c0.325,0.384,0.488,0.842,0.488,1.375c0,0.714-0.218,1.273-0.655,1.68c-0.437,0.407-0.998,0.61-1.684,0.61
					c-0.687,0-1.357-0.243-2.014-0.729l0.452-0.95c0.518,0.399,1.059,0.6,1.625,0.6c0.367,0,0.669-0.095,0.908-0.284
					c0.237-0.19,0.356-0.464,0.356-0.82c0-0.357-0.132-0.642-0.397-0.855c-0.265-0.213-0.632-0.32-1.102-0.32
					c-0.234,0-0.46,0.037-0.677,0.11v-0.899l1.462-1.881H23.783z"/>
				<path fill="#676868" d="M29.096,135.857c-0.129-0.146-0.194-0.324-0.194-0.53s0.065-0.382,0.194-0.524
					c0.129-0.145,0.288-0.216,0.474-0.216s0.346,0.071,0.479,0.216c0.132,0.143,0.199,0.318,0.199,0.524s-0.066,0.384-0.199,0.53
					s-0.292,0.22-0.479,0.22S29.226,136.004,29.096,135.857z"/>
				<path fill="#676868" d="M31.909,135.092c-0.428-0.656-0.641-1.535-0.641-2.635s0.213-1.979,0.641-2.635
					c0.427-0.656,1.071-0.985,1.932-0.985s1.505,0.329,1.932,0.985s0.641,1.535,0.641,2.635s-0.214,1.979-0.641,2.635
					c-0.427,0.657-1.071,0.985-1.932,0.985S32.336,135.749,31.909,135.092z M32.671,130.566c-0.25,0.48-0.375,1.111-0.375,1.891
					c0,0.78,0.125,1.41,0.375,1.891c0.25,0.479,0.64,0.719,1.169,0.719s0.917-0.238,1.16-0.715s0.366-1.107,0.366-1.895
					s-0.122-1.418-0.366-1.895s-0.63-0.715-1.16-0.715S32.921,130.087,32.671,130.566z"/>
				<path fill="#676868" d="M38.121,135.092c-0.428-0.656-0.641-1.535-0.641-2.635s0.213-1.979,0.641-2.635
					c0.427-0.656,1.071-0.985,1.932-0.985s1.505,0.329,1.932,0.985s0.641,1.535,0.641,2.635s-0.214,1.979-0.641,2.635
					c-0.427,0.657-1.071,0.985-1.932,0.985S38.548,135.749,38.121,135.092z M38.883,130.566c-0.25,0.48-0.375,1.111-0.375,1.891
					c0,0.78,0.125,1.41,0.375,1.891c0.25,0.479,0.64,0.719,1.169,0.719s0.917-0.238,1.16-0.715s0.366-1.107,0.366-1.895
					s-0.122-1.418-0.366-1.895s-0.63-0.715-1.16-0.715S39.133,130.087,38.883,130.566z"/>
			</g>
		</g>
		<g>
			<g enable-background="new    ">
				<path fill="#676868" d="M23.783,107.701v-1.05h3.693v0.92l-1.526,1.89c0.578,0.02,1.029,0.221,1.354,0.604
					c0.325,0.384,0.488,0.842,0.488,1.375c0,0.714-0.218,1.273-0.655,1.681c-0.437,0.406-0.998,0.609-1.684,0.609
					c-0.687,0-1.357-0.243-2.014-0.73l0.452-0.949c0.518,0.4,1.059,0.6,1.625,0.6c0.367,0,0.669-0.095,0.908-0.285
					c0.237-0.189,0.356-0.463,0.356-0.82c0-0.355-0.132-0.641-0.397-0.854c-0.265-0.213-0.632-0.319-1.102-0.319
					c-0.234,0-0.46,0.036-0.677,0.109v-0.9l1.462-1.879H23.783z"/>
				<path fill="#676868" d="M29.096,113.5c-0.129-0.146-0.194-0.322-0.194-0.529s0.065-0.382,0.194-0.525
					c0.129-0.143,0.288-0.215,0.474-0.215s0.346,0.072,0.479,0.215c0.132,0.144,0.199,0.318,0.199,0.525s-0.066,0.383-0.199,0.529
					s-0.292,0.221-0.479,0.221S29.226,113.646,29.096,113.5z"/>
				<path fill="#676868" d="M35.222,106.641v1.07h-2.664v1.72c0.265-0.16,0.565-0.24,0.903-0.24c0.59,0,1.099,0.196,1.526,0.591
					c0.427,0.393,0.641,0.926,0.641,1.6s-0.223,1.231-0.668,1.675c-0.446,0.443-0.993,0.665-1.644,0.665
					c-0.849,0-1.526-0.313-2.031-0.939l0.569-0.861c0.048,0.055,0.113,0.117,0.194,0.191c0.082,0.072,0.249,0.171,0.501,0.295
					c0.253,0.123,0.53,0.185,0.831,0.185c0.301,0,0.575-0.101,0.821-0.3c0.247-0.2,0.37-0.492,0.37-0.875
					c0-0.384-0.131-0.68-0.393-0.891c-0.262-0.21-0.593-0.314-0.993-0.314s-0.781,0.109-1.142,0.33L31.592,110v-3.359H35.222z"/>
				<path fill="#676868" d="M37.236,112.736c-0.428-0.657-0.641-1.535-0.641-2.636s0.213-1.978,0.641-2.635
					c0.427-0.657,1.071-0.985,1.932-0.985s1.505,0.329,1.932,0.985s0.641,1.534,0.641,2.635s-0.214,1.979-0.641,2.636
					c-0.427,0.656-1.071,0.984-1.932,0.984S37.663,113.393,37.236,112.736z M37.999,108.21c-0.25,0.48-0.375,1.11-0.375,1.89
					s0.125,1.41,0.375,1.89c0.25,0.48,0.64,0.721,1.169,0.721s0.917-0.238,1.16-0.715s0.366-1.109,0.366-1.896
					s-0.122-1.418-0.366-1.895s-0.63-0.715-1.16-0.715S38.249,107.73,37.999,108.21z"/>
			</g>
		</g>
		<g>
			<g enable-background="new    ">
				<path fill="#676868" d="M26.13,88.453v-1.28h1.011v1.28H27.9v1.07h-0.758v1.76H26.13v-1.76h-2.709v-1.04l2.32-4.19h1.165
					l-2.284,4.16H26.13z"/>
				<path fill="#676868" d="M29.042,91.143c-0.129-0.146-0.194-0.323-0.194-0.53s0.065-0.382,0.194-0.525
					c0.129-0.144,0.288-0.215,0.474-0.215s0.346,0.072,0.479,0.215c0.132,0.143,0.199,0.318,0.199,0.525s-0.066,0.383-0.199,0.53
					s-0.292,0.22-0.479,0.22S29.171,91.29,29.042,91.143z"/>
				<path fill="#676868" d="M31.854,90.378c-0.428-0.657-0.641-1.535-0.641-2.635s0.213-1.978,0.641-2.635
					c0.427-0.657,1.071-0.985,1.932-0.985s1.505,0.329,1.932,0.985s0.641,1.535,0.641,2.635s-0.214,1.979-0.641,2.635
					s-1.071,0.985-1.932,0.985S32.282,91.035,31.854,90.378z M32.617,85.853c-0.25,0.48-0.375,1.11-0.375,1.89
					c0,0.78,0.125,1.41,0.375,1.89c0.25,0.48,0.64,0.72,1.169,0.72s0.917-0.238,1.16-0.715s0.366-1.108,0.366-1.895
					s-0.122-1.418-0.366-1.895s-0.63-0.715-1.16-0.715S32.867,85.373,32.617,85.853z"/>
				<path fill="#676868" d="M38.066,90.378c-0.428-0.657-0.641-1.535-0.641-2.635s0.213-1.978,0.641-2.635
					c0.427-0.657,1.071-0.985,1.932-0.985s1.505,0.329,1.932,0.985s0.641,1.535,0.641,2.635s-0.214,1.979-0.641,2.635
					s-1.071,0.985-1.932,0.985S38.494,91.035,38.066,90.378z M38.829,85.853c-0.25,0.48-0.375,1.11-0.375,1.89
					c0,0.78,0.125,1.41,0.375,1.89c0.25,0.48,0.64,0.72,1.169,0.72s0.917-0.238,1.16-0.715s0.366-1.108,0.366-1.895
					s-0.122-1.418-0.366-1.895s-0.63-0.715-1.16-0.715S39.079,85.373,38.829,85.853z"/>
			</g>
		</g>
		<g>
			<g enable-background="new    ">
				<path fill="#676868" d="M26.13,66.098v-1.28h1.011v1.28H27.9v1.07h-0.758v1.76H26.13v-1.76h-2.709v-1.04l2.32-4.19h1.165
					l-2.284,4.16H26.13z"/>
				<path fill="#676868" d="M29.042,68.788c-0.129-0.146-0.194-0.323-0.194-0.53s0.065-0.382,0.194-0.525
					c0.129-0.144,0.288-0.215,0.474-0.215s0.346,0.072,0.479,0.215c0.132,0.143,0.199,0.318,0.199,0.525s-0.066,0.383-0.199,0.53
					s-0.292,0.22-0.479,0.22S29.171,68.934,29.042,68.788z"/>
				<path fill="#676868" d="M35.168,61.928v1.07h-2.664v1.72c0.265-0.16,0.565-0.24,0.903-0.24c0.59,0,1.099,0.197,1.526,0.59
					c0.427,0.393,0.641,0.927,0.641,1.6s-0.223,1.231-0.668,1.675c-0.446,0.443-0.993,0.665-1.644,0.665
					c-0.849,0-1.526-0.313-2.031-0.94l0.569-0.86c0.048,0.054,0.113,0.117,0.194,0.19c0.082,0.073,0.249,0.171,0.501,0.295
					c0.253,0.124,0.53,0.185,0.831,0.185c0.301,0,0.575-0.1,0.821-0.3c0.247-0.2,0.37-0.492,0.37-0.875s-0.131-0.68-0.393-0.89
					c-0.262-0.21-0.593-0.315-0.993-0.315s-0.781,0.11-1.142,0.33l-0.452-0.54v-3.36H35.168z"/>
				<path fill="#676868" d="M37.182,68.023c-0.428-0.657-0.641-1.535-0.641-2.635s0.213-1.978,0.641-2.635
					c0.427-0.657,1.071-0.985,1.932-0.985s1.505,0.329,1.932,0.985s0.641,1.535,0.641,2.635s-0.214,1.979-0.641,2.635
					s-1.071,0.985-1.932,0.985S37.609,68.68,37.182,68.023z M37.944,63.498c-0.25,0.48-0.375,1.11-0.375,1.89
					c0,0.78,0.125,1.41,0.375,1.89c0.25,0.48,0.64,0.72,1.169,0.72s0.917-0.238,1.16-0.715s0.366-1.108,0.366-1.895
					s-0.122-1.418-0.366-1.895s-0.63-0.715-1.16-0.715S38.194,63.018,37.944,63.498z"/>
			</g>
		</g>
		<g>
			<g enable-background="new    ">
				<path fill="#676868" d="M27.476,39.571v1.07h-2.664v1.72c0.265-0.16,0.565-0.24,0.903-0.24c0.59,0,1.099,0.197,1.526,0.59
					c0.427,0.393,0.641,0.927,0.641,1.6s-0.223,1.231-0.668,1.675c-0.446,0.443-0.993,0.665-1.644,0.665
					c-0.849,0-1.526-0.313-2.031-0.94l0.569-0.86c0.048,0.054,0.113,0.117,0.194,0.19c0.082,0.073,0.249,0.171,0.501,0.295
					c0.253,0.124,0.53,0.185,0.831,0.185c0.301,0,0.575-0.1,0.821-0.3c0.247-0.2,0.37-0.492,0.37-0.875s-0.131-0.68-0.393-0.89
					c-0.262-0.21-0.593-0.315-0.993-0.315s-0.781,0.11-1.142,0.33l-0.452-0.54v-3.36H27.476z"/>
				<path fill="#676868" d="M29.105,46.431c-0.129-0.146-0.194-0.323-0.194-0.53s0.065-0.382,0.194-0.525
					c0.129-0.144,0.288-0.215,0.474-0.215s0.346,0.072,0.479,0.215c0.132,0.143,0.199,0.318,0.199,0.525s-0.066,0.383-0.199,0.53
					s-0.292,0.22-0.479,0.22S29.234,46.578,29.105,46.431z"/>
				<path fill="#676868" d="M31.918,45.667c-0.428-0.657-0.641-1.535-0.641-2.635s0.213-1.978,0.641-2.635
					c0.427-0.657,1.071-0.985,1.932-0.985s1.505,0.329,1.932,0.985s0.641,1.535,0.641,2.635s-0.214,1.979-0.641,2.635
					s-1.071,0.985-1.932,0.985S32.345,46.323,31.918,45.667z M32.681,41.141c-0.25,0.48-0.375,1.11-0.375,1.89
					c0,0.78,0.125,1.41,0.375,1.89c0.25,0.48,0.64,0.72,1.169,0.72s0.917-0.238,1.16-0.715s0.366-1.108,0.366-1.895
					s-0.122-1.418-0.366-1.895s-0.63-0.715-1.16-0.715S32.931,40.661,32.681,41.141z"/>
				<path fill="#676868" d="M38.13,45.667c-0.428-0.657-0.641-1.535-0.641-2.635s0.213-1.978,0.641-2.635
					c0.427-0.657,1.071-0.985,1.932-0.985s1.505,0.329,1.932,0.985s0.641,1.535,0.641,2.635s-0.214,1.979-0.641,2.635
					s-1.071,0.985-1.932,0.985S38.557,46.323,38.13,45.667z M38.893,41.141c-0.25,0.48-0.375,1.11-0.375,1.89
					c0,0.78,0.125,1.41,0.375,1.89c0.25,0.48,0.64,0.72,1.169,0.72s0.917-0.238,1.16-0.715s0.366-1.108,0.366-1.895
					s-0.122-1.418-0.366-1.895s-0.63-0.715-1.16-0.715S39.143,40.661,38.893,41.141z"/>
			</g>
		</g>
		<g>
			<g enable-background="new    ">
				<path fill="#676868" d="M27.476,17.213v1.07h-2.664v1.72c0.265-0.16,0.565-0.24,0.903-0.24c0.59,0,1.099,0.197,1.526,0.59
					c0.427,0.393,0.641,0.927,0.641,1.6s-0.223,1.231-0.668,1.675c-0.446,0.443-0.993,0.665-1.644,0.665
					c-0.849,0-1.526-0.313-2.031-0.94l0.569-0.86c0.048,0.054,0.113,0.117,0.194,0.19c0.082,0.073,0.249,0.171,0.501,0.295
					c0.253,0.124,0.53,0.185,0.831,0.185c0.301,0,0.575-0.1,0.821-0.3c0.247-0.2,0.37-0.492,0.37-0.875s-0.131-0.68-0.393-0.89
					c-0.262-0.21-0.593-0.315-0.993-0.315s-0.781,0.11-1.142,0.33l-0.452-0.54v-3.36H27.476z"/>
				<path fill="#676868" d="M29.105,24.073c-0.129-0.146-0.194-0.323-0.194-0.53s0.065-0.382,0.194-0.525
					c0.129-0.144,0.288-0.215,0.474-0.215s0.346,0.072,0.479,0.215c0.132,0.143,0.199,0.318,0.199,0.525s-0.066,0.383-0.199,0.53
					s-0.292,0.22-0.479,0.22S29.234,24.219,29.105,24.073z"/>
				<path fill="#676868" d="M35.231,17.213v1.07h-2.664v1.72c0.265-0.16,0.565-0.24,0.903-0.24c0.59,0,1.099,0.197,1.526,0.59
					c0.427,0.393,0.641,0.927,0.641,1.6s-0.223,1.231-0.668,1.675c-0.446,0.443-0.993,0.665-1.644,0.665
					c-0.849,0-1.526-0.313-2.031-0.94l0.569-0.86c0.048,0.054,0.113,0.117,0.194,0.19c0.082,0.073,0.249,0.171,0.501,0.295
					c0.253,0.124,0.53,0.185,0.831,0.185c0.301,0,0.575-0.1,0.821-0.3c0.247-0.2,0.37-0.492,0.37-0.875s-0.131-0.68-0.393-0.89
					c-0.262-0.21-0.593-0.315-0.993-0.315s-0.781,0.11-1.142,0.33l-0.452-0.54v-3.36H35.231z"/>
				<path fill="#676868" d="M37.245,23.308c-0.428-0.657-0.641-1.535-0.641-2.635s0.213-1.978,0.641-2.635
					c0.427-0.657,1.071-0.985,1.932-0.985s1.505,0.329,1.932,0.985s0.641,1.535,0.641,2.635s-0.214,1.979-0.641,2.635
					s-1.071,0.985-1.932,0.985S37.672,23.965,37.245,23.308z M38.007,18.783c-0.25,0.48-0.375,1.11-0.375,1.89
					c0,0.78,0.125,1.41,0.375,1.89c0.25,0.48,0.64,0.72,1.169,0.72s0.917-0.238,1.16-0.715s0.366-1.108,0.366-1.895
					s-0.122-1.418-0.366-1.895s-0.63-0.715-1.16-0.715S38.257,18.303,38.007,18.783z"/>
			</g>
		</g>
		<g>
			<g>
				<g enable-background="new    ">
					<path fill="#676868" d="M37.362,196.976l1.716-1.521l4.638,5.23l-0.756,0.671l-3.941-4.444l-0.959,0.851L37.362,196.976z"/>
					<path fill="#676868" d="M45.524,197.771c0.419-0.371,0.588-0.803,0.508-1.292c-0.081-0.489-0.354-1.003-0.823-1.542
						c0.011,0.24-0.035,0.514-0.139,0.824c-0.103,0.311-0.283,0.578-0.54,0.807c-0.423,0.375-0.917,0.534-1.479,0.476
						c-0.562-0.058-1.072-0.345-1.53-0.862c-0.458-0.516-0.672-1.068-0.642-1.656c0.029-0.587,0.279-1.088,0.747-1.504
						c0.757-0.671,1.611-0.76,2.563-0.268c0.543,0.285,1.053,0.697,1.531,1.236c0.478,0.538,0.823,1.033,1.038,1.484
						s0.325,0.861,0.331,1.23c0.011,0.721-0.239,1.309-0.75,1.762s-1.131,0.686-1.859,0.699l-0.179-1.005
						c0.192,0.009,0.411-0.024,0.654-0.099C45.2,197.988,45.389,197.891,45.524,197.771z M43.944,195.697
						c0.272-0.242,0.426-0.526,0.46-0.855c0.034-0.33-0.067-0.627-0.304-0.895c-0.236-0.266-0.528-0.418-0.874-0.454
						c-0.346-0.036-0.65,0.063-0.914,0.296c-0.263,0.233-0.405,0.512-0.423,0.836s0.092,0.621,0.33,0.89
						c0.239,0.27,0.518,0.429,0.837,0.476C43.376,196.037,43.672,195.938,43.944,195.697z"/>
					<path fill="#676868" d="M49.706,194.063c0.419-0.372,0.588-0.802,0.508-1.292c-0.081-0.49-0.355-1.004-0.824-1.541
						c0.011,0.239-0.035,0.514-0.139,0.823c-0.103,0.312-0.283,0.579-0.54,0.807c-0.423,0.376-0.916,0.534-1.479,0.476
						c-0.563-0.058-1.072-0.346-1.53-0.861c-0.458-0.516-0.672-1.068-0.642-1.656c0.03-0.588,0.279-1.09,0.748-1.504
						c0.756-0.672,1.61-0.761,2.563-0.268c0.542,0.284,1.052,0.697,1.53,1.236c0.478,0.537,0.824,1.033,1.039,1.484
						c0.214,0.449,0.325,0.861,0.331,1.229c0.011,0.721-0.239,1.308-0.75,1.761c-0.511,0.454-1.13,0.688-1.859,0.7l-0.179-1.005
						c0.192,0.01,0.411-0.023,0.654-0.099C49.381,194.281,49.57,194.184,49.706,194.063z M48.126,191.989
						c0.272-0.241,0.426-0.526,0.46-0.854c0.035-0.33-0.067-0.628-0.304-0.895s-0.527-0.418-0.874-0.455s-0.65,0.063-0.914,0.297
						c-0.264,0.232-0.405,0.512-0.423,0.835c-0.019,0.325,0.092,0.622,0.33,0.89c0.239,0.27,0.518,0.429,0.837,0.475
						C47.558,192.328,47.854,192.23,48.126,191.989z"/>
					<path fill="#676868" d="M49.376,186.846c0.067-0.531,0.328-1,0.783-1.403s0.95-0.606,1.487-0.61
						c0.536-0.002,0.982,0.197,1.338,0.598c0.355,0.402,0.502,0.908,0.438,1.517c0.737-0.084,1.363,0.163,1.876,0.741
						c0.398,0.449,0.57,0.971,0.515,1.562c-0.054,0.593-0.345,1.122-0.872,1.589s-1.087,0.692-1.682,0.676
						c-0.594-0.017-1.09-0.25-1.488-0.699c-0.513-0.578-0.684-1.229-0.512-1.951c-0.612-0.01-1.097-0.217-1.452-0.617
						C49.453,187.844,49.309,187.377,49.376,186.846z M51.363,188.004c0.304,0.002,0.57-0.098,0.8-0.302s0.362-0.456,0.396-0.759
						c0.034-0.301-0.047-0.563-0.244-0.785s-0.445-0.333-0.747-0.332c-0.302-0.002-0.567,0.102-0.797,0.305
						c-0.229,0.203-0.363,0.455-0.399,0.755c-0.036,0.3,0.044,0.56,0.241,0.782C50.809,187.89,51.059,188.002,51.363,188.004z
						 M53.408,190.441c0.338-0.037,0.624-0.159,0.858-0.367c0.234-0.207,0.39-0.477,0.466-0.808c0.077-0.331-0.006-0.633-0.25-0.907
						c-0.242-0.274-0.53-0.399-0.86-0.372c-0.331,0.025-0.623,0.149-0.875,0.373s-0.411,0.499-0.476,0.825
						c-0.066,0.324,0.024,0.625,0.267,0.898C52.78,190.359,53.07,190.477,53.408,190.441z"/>
				</g>
			</g>
		</g>
		<g>
			<g>
				<g enable-background="new    ">
					<path fill="#676868" d="M61.361,199.773c-0.059-0.322-0.185-0.584-0.378-0.787c-0.194-0.201-0.429-0.307-0.703-0.315
						c-0.276-0.009-0.52,0.089-0.732,0.293c-0.374,0.358-0.481,0.867-0.323,1.528l-1,0.197c-0.118-0.524-0.138-0.986-0.058-1.386
						c0.079-0.399,0.309-0.782,0.689-1.146c0.38-0.365,0.842-0.551,1.384-0.559c0.544-0.008,1.036,0.219,1.479,0.682
						c0.248,0.26,0.426,0.566,0.53,0.919c0.104,0.353,0.171,0.87,0.2,1.553l0.086,2.23l2.066-1.98l0.782,0.815l-3.116,2.986
						l-0.691-0.722l-0.092-2.862C61.461,200.578,61.42,200.096,61.361,199.773z"/>
					<path fill="#676868" d="M65.951,200.021c-0.763-0.178-1.525-0.664-2.286-1.459c-0.761-0.793-1.215-1.576-1.36-2.346
						c-0.146-0.77,0.092-1.452,0.713-2.048c0.622-0.596,1.313-0.804,2.077-0.626c0.763,0.179,1.525,0.666,2.286,1.459
						c0.761,0.795,1.214,1.576,1.359,2.346c0.146,0.771-0.091,1.453-0.713,2.049C67.406,199.992,66.714,200.201,65.951,200.021z
						 M63.371,196.228c0.151,0.519,0.497,1.06,1.037,1.624c0.54,0.563,1.065,0.932,1.578,1.104c0.513,0.174,0.96,0.078,1.343-0.288
						c0.382-0.367,0.496-0.807,0.343-1.319s-0.503-1.054-1.048-1.622c-0.544-0.567-1.068-0.939-1.574-1.114
						c-0.506-0.176-0.951-0.081-1.333,0.286C63.334,195.265,63.219,195.707,63.371,196.228z"/>
					<path fill="#676868" d="M70.436,195.725c-0.763-0.179-1.525-0.666-2.286-1.459c-0.761-0.795-1.215-1.576-1.36-2.346
						c-0.146-0.771,0.092-1.453,0.713-2.049c0.622-0.596,1.313-0.805,2.077-0.625c0.763,0.178,1.525,0.664,2.286,1.459
						c0.761,0.793,1.214,1.576,1.359,2.346c0.146,0.77-0.091,1.452-0.713,2.048C71.891,195.694,71.198,195.902,70.436,195.725z
						 M67.855,191.93c0.151,0.52,0.497,1.061,1.037,1.623c0.54,0.564,1.065,0.932,1.578,1.105s0.96,0.078,1.343-0.289
						c0.382-0.365,0.496-0.807,0.343-1.318c-0.153-0.513-0.503-1.053-1.048-1.621c-0.544-0.568-1.068-0.939-1.574-1.115
						s-0.951-0.08-1.333,0.285C67.818,190.967,67.703,191.41,67.855,191.93z"/>
					<path fill="#676868" d="M74.919,191.426c-0.763-0.178-1.524-0.664-2.285-1.459c-0.761-0.793-1.215-1.576-1.36-2.346
						c-0.146-0.77,0.092-1.452,0.713-2.048c0.622-0.596,1.313-0.804,2.077-0.626c0.762,0.179,1.524,0.666,2.285,1.459
						c0.761,0.795,1.215,1.576,1.36,2.346c0.146,0.771-0.091,1.453-0.713,2.049C76.375,191.396,75.683,191.605,74.919,191.426z
						 M72.34,187.632c0.151,0.519,0.497,1.06,1.037,1.624c0.54,0.563,1.065,0.932,1.578,1.104c0.513,0.174,0.96,0.078,1.343-0.288
						c0.382-0.367,0.496-0.807,0.343-1.319s-0.503-1.054-1.048-1.622c-0.544-0.567-1.068-0.939-1.575-1.114
						c-0.505-0.176-0.95-0.081-1.332,0.286C72.303,186.669,72.188,187.111,72.34,187.632z"/>
				</g>
			</g>
		</g>
		<g>
			<g>
				<g enable-background="new    ">
					<path fill="#676868" d="M83.449,200.004c-0.082-0.317-0.227-0.569-0.435-0.758c-0.208-0.188-0.449-0.276-0.724-0.266
						c-0.275,0.012-0.511,0.127-0.708,0.346c-0.347,0.383-0.419,0.899-0.214,1.547l-0.983,0.268
						c-0.156-0.514-0.207-0.973-0.157-1.377c0.051-0.404,0.253-0.803,0.606-1.193c0.353-0.391,0.801-0.608,1.341-0.655
						c0.541-0.046,1.049,0.145,1.524,0.575c0.267,0.24,0.465,0.533,0.595,0.878c0.128,0.345,0.232,0.855,0.31,1.535l0.246,2.218
						l1.92-2.122l0.838,0.758l-2.896,3.2l-0.742-0.67l-0.295-2.849C83.605,200.799,83.53,200.322,83.449,200.004z"/>
					<path fill="#676868" d="M88.043,199.924c-0.773-0.123-1.568-0.555-2.384-1.291c-0.815-0.738-1.324-1.486-1.524-2.244
						c-0.201-0.757-0.012-1.455,0.566-2.094c0.578-0.638,1.252-0.896,2.027-0.771c0.774,0.123,1.568,0.555,2.384,1.292
						s1.325,1.485,1.524,2.243c0.2,0.758,0.012,1.455-0.566,2.094S88.817,200.048,88.043,199.924z M85.2,196.324
						c0.188,0.506,0.572,1.021,1.15,1.545c0.579,0.523,1.129,0.854,1.653,0.99c0.524,0.137,0.964,0.008,1.319-0.385
						s0.438-0.84,0.248-1.34s-0.577-1.015-1.161-1.543c-0.583-0.527-1.133-0.86-1.649-0.999c-0.517-0.14-0.954-0.013-1.31,0.38
						S85.011,195.816,85.2,196.324z"/>
					<path fill="#676868" d="M92.211,195.317c-0.773-0.123-1.569-0.555-2.384-1.292c-0.815-0.738-1.324-1.485-1.524-2.242
						c-0.201-0.758-0.012-1.456,0.565-2.095c0.578-0.638,1.253-0.896,2.027-0.772c0.774,0.124,1.569,0.555,2.384,1.293
						c0.815,0.737,1.324,1.485,1.524,2.242c0.201,0.758,0.012,1.456-0.566,2.094C93.66,195.184,92.985,195.441,92.211,195.317z
						 M89.367,191.717c0.188,0.506,0.572,1.021,1.15,1.545c0.579,0.523,1.13,0.854,1.653,0.99c0.524,0.137,0.964,0.01,1.319-0.384
						c0.355-0.393,0.438-0.84,0.248-1.34c-0.19-0.501-0.577-1.015-1.161-1.543c-0.583-0.527-1.134-0.86-1.65-0.999
						c-0.517-0.14-0.954-0.013-1.31,0.38C89.262,190.76,89.178,191.209,89.367,191.717z"/>
					<path fill="#676868" d="M95.351,186.847c-0.082-0.317-0.227-0.569-0.435-0.757c-0.208-0.189-0.449-0.277-0.724-0.266
						c-0.275,0.01-0.511,0.125-0.708,0.344c-0.347,0.385-0.419,0.9-0.214,1.548l-0.983,0.268c-0.156-0.515-0.207-0.973-0.157-1.378
						c0.051-0.404,0.253-0.802,0.606-1.192c0.353-0.391,0.801-0.608,1.341-0.655c0.541-0.047,1.049,0.145,1.524,0.574
						c0.267,0.241,0.465,0.534,0.595,0.879c0.128,0.344,0.232,0.855,0.31,1.535l0.246,2.219l1.92-2.123l0.838,0.758l-2.895,3.2
						l-0.742-0.671l-0.295-2.848C95.507,187.642,95.432,187.164,95.351,186.847z"/>
				</g>
			</g>
		</g>
		<g>
			<g>
				<g enable-background="new    ">
					<path fill="#676868" d="M104.862,200.791c-0.086-0.316-0.234-0.566-0.445-0.751s-0.453-0.269-0.729-0.253
						c-0.275,0.015-0.509,0.134-0.703,0.355c-0.342,0.39-0.404,0.906-0.188,1.551l-0.979,0.283c-0.164-0.512-0.223-0.97-0.179-1.375
						c0.045-0.404,0.24-0.806,0.587-1.201c0.348-0.396,0.791-0.621,1.33-0.678c0.541-0.055,1.052,0.128,1.533,0.55
						c0.271,0.237,0.475,0.526,0.609,0.87c0.134,0.342,0.245,0.851,0.334,1.529l0.281,2.213l1.886-2.152l0.85,0.744l-2.843,3.246
						l-0.752-0.658l-0.342-2.844C105.032,201.584,104.949,201.107,104.862,200.791z"/>
					<path fill="#676868" d="M109.457,200.637c-0.775-0.109-1.577-0.528-2.404-1.252c-0.827-0.725-1.348-1.465-1.561-2.219
						s-0.035-1.455,0.532-2.104c0.567-0.646,1.238-0.915,2.014-0.803c0.776,0.109,1.578,0.528,2.405,1.253
						c0.827,0.724,1.348,1.464,1.56,2.218c0.213,0.754,0.036,1.455-0.531,2.103S110.232,200.749,109.457,200.637z M106.556,197.083
						c0.196,0.503,0.588,1.013,1.175,1.526s1.143,0.836,1.669,0.963c0.525,0.129,0.963-0.006,1.313-0.404
						c0.349-0.398,0.424-0.847,0.227-1.344c-0.198-0.498-0.594-1.006-1.186-1.523s-1.146-0.844-1.666-0.974
						c-0.52-0.131-0.954,0.003-1.303,0.401C106.435,196.127,106.358,196.578,106.556,197.083z"/>
					<path fill="#676868" d="M113.55,195.965c-0.775-0.111-1.577-0.529-2.404-1.254s-1.348-1.464-1.561-2.218
						c-0.212-0.755-0.035-1.456,0.532-2.103c0.567-0.648,1.238-0.916,2.015-0.805c0.775,0.111,1.577,0.529,2.404,1.254
						s1.348,1.464,1.561,2.217c0.212,0.756,0.035,1.456-0.532,2.104C114.997,195.809,114.326,196.076,113.55,195.965z
						 M110.648,192.41c0.196,0.504,0.588,1.013,1.175,1.527c0.587,0.514,1.143,0.834,1.669,0.963
						c0.525,0.128,0.964-0.008,1.313-0.406s0.424-0.846,0.227-1.343c-0.198-0.497-0.594-1.005-1.186-1.524
						c-0.592-0.518-1.146-0.842-1.666-0.973s-0.954,0.003-1.303,0.401S110.451,191.906,110.648,192.41z"/>
					<path fill="#676868" d="M117.426,188.617l-0.963-0.843l0.667-0.761l0.963,0.844l0.499-0.571l0.805,0.705l-0.499,0.571
						l1.324,1.159l-0.667,0.761l-1.324-1.16l-1.784,2.038l-0.782-0.685l-1.624-4.507l0.768-0.876l1.625,4.459L117.426,188.617z"/>
				</g>
			</g>
		</g>
		<g>
			<g>
				<g enable-background="new    ">
					<path fill="#676868" d="M126.055,200.445c-0.092-0.314-0.244-0.563-0.456-0.744c-0.214-0.182-0.457-0.264-0.732-0.245
						c-0.274,0.021-0.508,0.142-0.698,0.366c-0.336,0.394-0.392,0.912-0.167,1.554l-0.977,0.295
						c-0.17-0.509-0.235-0.966-0.196-1.372s0.229-0.809,0.571-1.209c0.341-0.4,0.781-0.633,1.321-0.695
						c0.539-0.063,1.053,0.114,1.54,0.53c0.273,0.233,0.48,0.521,0.619,0.86c0.14,0.34,0.258,0.849,0.355,1.525l0.311,2.21
						l1.856-2.178l0.86,0.732l-2.8,3.284l-0.761-0.648l-0.379-2.838C126.235,201.235,126.146,200.761,126.055,200.445z"/>
					<path fill="#676868" d="M130.646,200.23c-0.777-0.1-1.585-0.508-2.422-1.221c-0.837-0.715-1.366-1.446-1.589-2.197
						c-0.223-0.752-0.055-1.455,0.504-2.109c0.558-0.655,1.226-0.933,2.003-0.832c0.777,0.102,1.584,0.508,2.421,1.223
						c0.837,0.713,1.367,1.445,1.59,2.197c0.223,0.751,0.054,1.454-0.504,2.109C132.091,200.055,131.424,200.332,130.646,200.23z
						 M127.698,196.715c0.203,0.502,0.601,1.005,1.194,1.512c0.594,0.506,1.154,0.819,1.682,0.94
						c0.527,0.122,0.964-0.019,1.308-0.423c0.343-0.402,0.412-0.852,0.207-1.347s-0.605-0.997-1.205-1.507
						c-0.599-0.512-1.158-0.828-1.68-0.952c-0.521-0.124-0.953,0.017-1.296,0.419C127.564,195.761,127.495,196.213,127.698,196.715z
						"/>
					<path fill="#676868" d="M134.677,195.504c-0.777-0.101-1.585-0.508-2.422-1.222s-1.366-1.446-1.589-2.197
						s-0.055-1.454,0.504-2.109c0.558-0.655,1.226-0.933,2.003-0.831c0.777,0.101,1.584,0.507,2.421,1.221s1.367,1.447,1.59,2.198
						s0.054,1.454-0.504,2.109C136.121,195.328,135.454,195.605,134.677,195.504z M131.729,191.988
						c0.203,0.501,0.601,1.004,1.194,1.511c0.594,0.506,1.154,0.819,1.682,0.94c0.527,0.122,0.964-0.019,1.308-0.422
						c0.343-0.403,0.412-0.852,0.207-1.348c-0.205-0.494-0.605-0.996-1.205-1.507c-0.599-0.511-1.158-0.827-1.68-0.952
						c-0.521-0.123-0.953,0.017-1.296,0.42C131.595,191.033,131.525,191.486,131.729,191.988z"/>
					<path fill="#676868" d="M136.095,185.893c-0.362,0.426-0.47,0.877-0.321,1.352c0.147,0.474,0.491,0.943,1.029,1.411
						c-0.044-0.235-0.037-0.514,0.022-0.835s0.2-0.613,0.422-0.874c0.367-0.431,0.833-0.655,1.398-0.677
						c0.565-0.02,1.11,0.193,1.636,0.642c0.524,0.447,0.813,0.964,0.866,1.551c0.052,0.586-0.126,1.117-0.531,1.594
						c-0.656,0.77-1.489,0.976-2.501,0.621c-0.576-0.208-1.139-0.544-1.688-1.013c-0.547-0.467-0.959-0.908-1.234-1.325
						s-0.441-0.808-0.498-1.172c-0.111-0.712,0.055-1.328,0.498-1.849c0.442-0.52,1.023-0.836,1.743-0.951l0.316,0.971
						c-0.191,0.019-0.403,0.081-0.635,0.188C136.387,185.633,136.212,185.756,136.095,185.893z M137.948,187.728
						c-0.235,0.277-0.348,0.581-0.336,0.911c0.012,0.331,0.153,0.612,0.425,0.844c0.271,0.23,0.581,0.34,0.929,0.328
						s0.636-0.153,0.867-0.424c0.229-0.27,0.333-0.568,0.311-0.896c-0.023-0.328-0.17-0.607-0.441-0.839s-0.572-0.346-0.903-0.343
						C138.468,187.311,138.185,187.451,137.948,187.728z"/>
				</g>
			</g>
		</g>
		<g>
			<g>
				<g enable-background="new    ">
					<path fill="#676868" d="M147.263,200.375c-0.089-0.315-0.239-0.564-0.45-0.748s-0.455-0.268-0.729-0.25
						c-0.275,0.016-0.509,0.136-0.702,0.358c-0.339,0.392-0.401,0.908-0.183,1.552l-0.977,0.287
						c-0.168-0.511-0.229-0.969-0.186-1.373c0.043-0.405,0.236-0.808,0.581-1.205c0.346-0.398,0.789-0.625,1.327-0.684
						c0.541-0.057,1.053,0.123,1.537,0.543c0.271,0.236,0.475,0.525,0.611,0.867c0.137,0.341,0.25,0.85,0.342,1.527l0.291,2.213
						l1.876-2.161l0.854,0.74l-2.829,3.26l-0.755-0.655l-0.354-2.842C147.436,201.167,147.35,200.691,147.263,200.375z"/>
					<path fill="#676868" d="M151.855,200.201c-0.776-0.107-1.58-0.521-2.41-1.242s-1.354-1.459-1.57-2.212
						c-0.217-0.753-0.042-1.455,0.521-2.104c0.564-0.65,1.234-0.922,2.012-0.814c0.775,0.108,1.58,0.523,2.41,1.244
						s1.354,1.457,1.57,2.21c0.215,0.754,0.041,1.456-0.523,2.105C153.302,200.038,152.631,200.309,151.855,200.201z
						 M148.938,196.659c0.198,0.503,0.593,1.011,1.181,1.522c0.59,0.511,1.147,0.829,1.674,0.955
						c0.525,0.126,0.963-0.012,1.311-0.411c0.347-0.399,0.42-0.848,0.22-1.345c-0.199-0.496-0.597-1.002-1.192-1.518
						c-0.594-0.516-1.149-0.838-1.67-0.967c-0.52-0.128-0.954,0.008-1.301,0.408C148.813,195.704,148.738,196.156,148.938,196.659z"
						/>
					<path fill="#676868" d="M155.927,195.51c-0.776-0.107-1.579-0.521-2.411-1.242c-0.83-0.721-1.354-1.459-1.569-2.211
						c-0.216-0.754-0.042-1.456,0.522-2.105c0.564-0.65,1.234-0.922,2.01-0.814c0.777,0.108,1.581,0.523,2.411,1.244
						c0.831,0.721,1.354,1.457,1.569,2.21c0.217,0.754,0.043,1.456-0.521,2.105C157.373,195.347,156.703,195.617,155.927,195.51z
						 M153.01,191.968c0.199,0.503,0.592,1.011,1.182,1.522c0.59,0.511,1.146,0.829,1.673,0.955s0.963-0.012,1.311-0.411
						c0.347-0.399,0.421-0.848,0.22-1.345c-0.199-0.496-0.597-1.002-1.191-1.518c-0.594-0.516-1.15-0.838-1.67-0.966
						c-0.521-0.129-0.955,0.007-1.302,0.407C152.884,191.013,152.811,191.465,153.01,191.968z"/>
					<path fill="#676868" d="M155.816,186.949c-0.004-0.535,0.195-1.033,0.594-1.492s0.862-0.726,1.395-0.799
						c0.53-0.072,0.998,0.066,1.404,0.418c0.404,0.352,0.616,0.834,0.632,1.445c0.721-0.179,1.373-0.016,1.957,0.491
						c0.453,0.394,0.692,0.887,0.715,1.48c0.023,0.595-0.196,1.157-0.657,1.688c-0.462,0.532-0.988,0.828-1.58,0.889
						c-0.591,0.062-1.113-0.105-1.566-0.498c-0.584-0.507-0.838-1.129-0.762-1.868c-0.607,0.07-1.115-0.071-1.52-0.423
						C156.021,187.93,155.818,187.486,155.816,186.949z M157.936,187.84c0.303-0.037,0.553-0.172,0.754-0.404s0.3-0.5,0.294-0.803
						c-0.006-0.305-0.12-0.553-0.345-0.748c-0.224-0.194-0.485-0.271-0.784-0.232c-0.3,0.039-0.55,0.176-0.751,0.407
						s-0.301,0.499-0.297,0.8c0.004,0.302,0.117,0.55,0.341,0.744C157.372,187.799,157.635,187.877,157.936,187.84z
						 M160.281,189.988c0.33-0.08,0.598-0.238,0.803-0.475s0.324-0.523,0.357-0.862c0.033-0.337-0.089-0.626-0.366-0.867
						c-0.276-0.239-0.578-0.326-0.901-0.257c-0.326,0.068-0.598,0.23-0.818,0.484c-0.222,0.256-0.344,0.549-0.365,0.88
						c-0.023,0.33,0.104,0.616,0.381,0.856C159.648,189.988,159.951,190.068,160.281,189.988z"/>
				</g>
			</g>
		</g>
		<g>
			<g>
				<g enable-background="new    ">
					<path fill="#676868" d="M169.713,199.833c-0.103-0.312-0.265-0.553-0.485-0.726s-0.468-0.244-0.741-0.213
						c-0.274,0.029-0.502,0.16-0.684,0.393c-0.319,0.408-0.354,0.927-0.104,1.559l-0.962,0.336
						c-0.191-0.502-0.275-0.956-0.253-1.362c0.022-0.407,0.196-0.818,0.521-1.233c0.325-0.414,0.756-0.663,1.292-0.748
						c0.536-0.084,1.056,0.071,1.56,0.467c0.283,0.222,0.502,0.5,0.655,0.835c0.152,0.333,0.291,0.837,0.417,1.509l0.4,2.196
						l1.767-2.253l0.889,0.697l-2.663,3.396l-0.786-0.617l-0.496-2.82C169.925,200.615,169.816,200.145,169.713,199.833z"/>
					<path fill="#676868" d="M174.292,199.43c-0.78-0.068-1.604-0.442-2.469-1.121c-0.865-0.678-1.425-1.389-1.678-2.13
						c-0.254-0.742-0.114-1.451,0.417-2.129c0.531-0.677,1.187-0.981,1.968-0.912c0.78,0.068,1.604,0.442,2.469,1.122
						c0.865,0.678,1.425,1.389,1.678,2.129c0.253,0.742,0.114,1.452-0.417,2.129C175.729,199.195,175.072,199.5,174.292,199.43z
						 M171.202,196.038c0.224,0.492,0.642,0.979,1.256,1.461s1.187,0.772,1.719,0.871c0.532,0.101,0.961-0.058,1.288-0.476
						c0.327-0.416,0.378-0.868,0.153-1.354c-0.225-0.486-0.646-0.973-1.266-1.457c-0.619-0.486-1.191-0.779-1.717-0.882
						s-0.952,0.055-1.279,0.472C171.029,195.09,170.979,195.545,171.202,196.038z"/>
					<path fill="#676868" d="M172.774,191.505l1.415-1.805l5.5,4.313l-0.624,0.796l-4.674-3.666l-0.791,1.009L172.774,191.505z"/>
					<path fill="#676868" d="M180.248,191.835c-0.78-0.068-1.604-0.442-2.469-1.121s-1.425-1.39-1.678-2.13
						c-0.254-0.742-0.114-1.452,0.417-2.129c0.531-0.678,1.187-0.982,1.968-0.912c0.78,0.068,1.604,0.442,2.47,1.121
						c0.865,0.678,1.424,1.389,1.677,2.13c0.253,0.742,0.114,1.452-0.417,2.129C181.685,191.601,181.028,191.904,180.248,191.835z
						 M177.158,188.443c0.225,0.492,0.643,0.979,1.257,1.461c0.614,0.481,1.187,0.771,1.718,0.871
						c0.532,0.1,0.962-0.059,1.288-0.476c0.327-0.417,0.379-0.868,0.154-1.354c-0.225-0.485-0.646-0.972-1.266-1.457
						s-1.191-0.779-1.717-0.882s-0.953,0.056-1.28,0.472C176.986,187.495,176.935,187.949,177.158,188.443z"/>
				</g>
			</g>
		</g>
		<g>
			<g>
				<g enable-background="new    ">
					<path fill="#676868" d="M191.084,199.289c-0.1-0.313-0.26-0.557-0.478-0.732c-0.219-0.176-0.464-0.25-0.738-0.223
						c-0.274,0.026-0.503,0.155-0.688,0.385c-0.324,0.403-0.365,0.922-0.124,1.558l-0.966,0.323
						c-0.185-0.504-0.263-0.959-0.235-1.365c0.028-0.407,0.206-0.816,0.536-1.227s0.765-0.653,1.302-0.731
						c0.537-0.077,1.056,0.085,1.555,0.485c0.279,0.227,0.494,0.507,0.644,0.844c0.148,0.336,0.281,0.84,0.397,1.514l0.373,2.201
						l1.795-2.23l0.88,0.709l-2.706,3.362l-0.779-0.627l-0.459-2.827C191.285,200.073,191.184,199.601,191.084,199.289z"/>
					<path fill="#676868" d="M195.667,198.944c-0.78-0.079-1.599-0.464-2.455-1.153s-1.407-1.406-1.65-2.15
						c-0.244-0.746-0.096-1.453,0.443-2.123c0.54-0.671,1.199-0.967,1.979-0.889c0.779,0.079,1.598,0.463,2.454,1.152
						s1.407,1.408,1.651,2.152c0.243,0.745,0.096,1.453-0.444,2.123C197.106,198.728,196.446,199.023,195.667,198.944z
						 M192.621,195.514c0.216,0.494,0.629,0.986,1.236,1.476s1.177,0.787,1.707,0.894c0.531,0.106,0.962-0.047,1.294-0.459
						c0.332-0.413,0.39-0.863,0.171-1.353c-0.218-0.489-0.634-0.979-1.247-1.474c-0.612-0.492-1.181-0.793-1.705-0.902
						c-0.523-0.109-0.953,0.042-1.285,0.455C192.46,194.563,192.402,195.018,192.621,195.514z"/>
					<path fill="#676868" d="M194.25,191l1.438-1.787l5.445,4.383l-0.634,0.788l-4.628-3.725l-0.804,0.999L194.25,191z"/>
					<path fill="#676868" d="M200.47,187.627c-0.1-0.313-0.259-0.557-0.477-0.732c-0.219-0.176-0.465-0.25-0.739-0.223
						c-0.274,0.026-0.503,0.155-0.688,0.385c-0.324,0.403-0.365,0.922-0.123,1.557l-0.967,0.324
						c-0.185-0.504-0.263-0.959-0.235-1.365c0.028-0.407,0.206-0.816,0.536-1.227s0.765-0.654,1.302-0.732
						c0.537-0.076,1.056,0.086,1.555,0.486c0.279,0.227,0.494,0.507,0.644,0.844c0.148,0.336,0.281,0.84,0.397,1.514l0.374,2.201
						l1.794-2.23l0.88,0.709l-2.706,3.362l-0.779-0.627l-0.459-2.827C200.672,188.411,200.569,187.938,200.47,187.627z"/>
				</g>
			</g>
		</g>
	</g>
	<g>
		<rect x="116.373" y="129.389" fill="none" width="31.852" height="25.26"/>
		<g enable-background="new    ">
			<path fill="#FFFFFF" d="M120.314,137.097c-0.449,0-0.857-0.067-1.227-0.202s-0.688-0.335-0.953-0.601s-0.471-0.595-0.615-0.988
				c-0.146-0.394-0.218-0.846-0.218-1.356v-4.213h0.817v4.161c0,0.787,0.195,1.391,0.585,1.812s0.934,0.632,1.63,0.632
				c0.67,0,1.201-0.2,1.595-0.601s0.591-0.997,0.591-1.791v-4.213h0.817v4.15c0,0.532-0.073,0.998-0.218,1.398
				c-0.145,0.399-0.35,0.734-0.615,1.004c-0.266,0.269-0.584,0.471-0.953,0.605S120.77,137.097,120.314,137.097z"/>
			<path fill="#FFFFFF" d="M127.768,137.086c-0.58,0-1.109-0.095-1.59-0.285c-0.479-0.189-0.937-0.48-1.371-0.874l0.508-0.601
				c0.379,0.345,0.762,0.603,1.148,0.771s0.832,0.253,1.336,0.253c0.489,0,0.881-0.115,1.174-0.347
				c0.294-0.23,0.44-0.526,0.44-0.885v-0.021c0-0.166-0.028-0.316-0.083-0.45c-0.055-0.135-0.152-0.258-0.291-0.368
				s-0.33-0.21-0.575-0.3s-0.56-0.176-0.939-0.259c-0.415-0.09-0.776-0.193-1.084-0.311s-0.563-0.259-0.763-0.425
				c-0.201-0.165-0.35-0.358-0.446-0.579s-0.146-0.479-0.146-0.776v-0.021c0-0.282,0.059-0.545,0.176-0.786s0.283-0.45,0.497-0.627
				c0.214-0.176,0.466-0.313,0.756-0.414c0.29-0.1,0.607-0.149,0.952-0.149c0.531,0,0.996,0.074,1.393,0.223
				s0.781,0.371,1.154,0.667l-0.477,0.632c-0.338-0.276-0.678-0.477-1.02-0.601s-0.699-0.187-1.071-0.187
				c-0.476,0-0.853,0.112-1.128,0.337c-0.276,0.225-0.414,0.502-0.414,0.833v0.021c0,0.173,0.027,0.326,0.082,0.461
				c0.056,0.135,0.156,0.259,0.301,0.373c0.145,0.113,0.345,0.217,0.6,0.311c0.256,0.093,0.584,0.181,0.984,0.264
				c0.807,0.18,1.402,0.428,1.785,0.745s0.574,0.753,0.574,1.305v0.021c0,0.311-0.061,0.592-0.184,0.844s-0.292,0.468-0.508,0.647
				c-0.215,0.179-0.475,0.317-0.777,0.414C128.457,137.037,128.126,137.086,127.768,137.086z"/>
		</g>
	</g>
	<g>
		<rect x="116.373" y="83.667" fill="none" width="31.852" height="25.259"/>
		<g enable-background="new    ">
			<path fill="#FFFFFF" d="M117.416,83.95h0.817v3.219h4.183V83.95h0.817v7.246h-0.817v-3.261h-4.183v3.261h-0.817V83.95z"/>
			<path fill="#FFFFFF" d="M125.355,83.95h0.817v7.246h-0.817V83.95z"/>
		</g>
	</g>
</g>
<g>
	
		<rect x="5.153" y="10.286" transform="matrix(-1 0.0058 -0.0058 -1 26.704 192.4319)" fill="none" width="15.841" height="171.937"/>
	<g enable-background="new    ">
		<path fill="#676868" d="M7.8,178.859c0.003,0.377,0.083,0.687,0.238,0.928c0.156,0.24,0.39,0.359,0.701,0.357
			c0.312-0.003,0.549-0.126,0.712-0.369c0.163-0.243,0.336-0.76,0.521-1.55c0.184-0.79,0.447-1.386,0.789-1.788
			s0.848-0.606,1.519-0.611c0.671-0.006,1.217,0.242,1.639,0.746c0.422,0.502,0.636,1.164,0.643,1.985
			c0.009,1.202-0.396,2.273-1.218,3.212l-0.985-0.807c0.669-0.783,1-1.592,0.993-2.429c-0.003-0.418-0.096-0.749-0.277-0.993
			s-0.421-0.365-0.718-0.363c-0.297,0.003-0.527,0.119-0.69,0.353c-0.163,0.232-0.31,0.632-0.441,1.196
			c-0.131,0.566-0.252,0.996-0.364,1.291c-0.112,0.294-0.258,0.556-0.44,0.784c-0.34,0.458-0.867,0.688-1.579,0.694
			c-0.711,0.006-1.261-0.248-1.65-0.762c-0.389-0.515-0.587-1.152-0.593-1.916c-0.004-0.491,0.073-0.979,0.23-1.465
			c0.158-0.484,0.381-0.904,0.672-1.26l0.984,0.686c-0.203,0.229-0.37,0.539-0.499,0.929C7.859,178.098,7.796,178.481,7.8,178.859z"
			/>
		<path fill="#676868" d="M14.512,172.133c0.005,0.719-0.189,1.334-0.585,1.843c-0.396,0.509-0.941,0.767-1.638,0.772
			c-0.829,0.006-1.57-0.59-2.226-1.787c-0.342,0.303-0.623,0.517-0.842,0.639c-0.219,0.123-0.497,0.186-0.834,0.189
			c-0.586,0.004-1.04-0.209-1.358-0.639c-0.318-0.431-0.48-0.939-0.485-1.525c-0.004-0.588,0.142-1.087,0.439-1.5
			c0.297-0.412,0.718-0.621,1.26-0.625c0.726-0.006,1.417,0.575,2.071,1.742c0.714-0.592,1.26-1.072,1.638-1.441
			c-0.339-0.225-0.732-0.398-1.181-0.52l0.63-0.907c0.508,0.187,0.953,0.399,1.336,0.64c0.298-0.297,0.659-0.674,1.081-1.131
			l0.776,0.818l-0.994,1.02C14.201,170.361,14.504,171.166,14.512,172.133z M7.522,171.622c0.002,0.245,0.081,0.466,0.236,0.659
			c0.155,0.192,0.336,0.288,0.542,0.287c0.205-0.002,0.39-0.053,0.554-0.153c0.165-0.101,0.393-0.272,0.684-0.517
			c-0.417-0.826-0.802-1.237-1.154-1.234c-0.293,0.002-0.51,0.102-0.652,0.297S7.521,171.377,7.522,171.622z M13.139,173.102
			c0.207-0.28,0.309-0.651,0.305-1.113c-0.003-0.462-0.22-0.951-0.65-1.469c-0.771,0.746-1.419,1.338-1.944,1.775
			c0.454,0.824,0.949,1.235,1.484,1.23C12.664,173.523,12.933,173.382,13.139,173.102z"/>
		<path fill="#676868" d="M6.648,161.229l1.221-0.01l0.033,4.104l2.035-0.016l-0.029-3.686l1.155-0.01l0.029,3.686l2.057-0.016
			l-0.034-4.235l1.221-0.01l0.044,5.533l-7.689,0.061L6.648,161.229z"/>
		<path fill="#676868" d="M9.059,150.264c1.269-0.01,2.073,0.537,2.412,1.643l2.778-2.035l0.013,1.65l-2.57,1.857l0.013,1.704
			l2.585-0.021l0.01,1.299l-7.689,0.061l-0.022-2.86c-0.009-1.173,0.183-2.015,0.574-2.523
			C7.554,150.529,8.186,150.271,9.059,150.264z M10.162,151.982c-0.229-0.262-0.595-0.391-1.098-0.387
			c-0.502,0.004-0.846,0.143-1.031,0.414c-0.184,0.273-0.274,0.758-0.269,1.455l0.013,1.648l2.75-0.021l-0.013-1.615
			C10.508,152.742,10.391,152.244,10.162,151.982z"/>
		<path fill="#676868" d="M14.308,146.284c0.006,0.719-0.189,1.333-0.585,1.843c-0.396,0.509-0.942,0.766-1.639,0.771
			c-0.829,0.006-1.57-0.589-2.225-1.787c-0.342,0.304-0.623,0.518-0.842,0.64c-0.219,0.123-0.497,0.186-0.834,0.188
			c-0.586,0.004-1.039-0.208-1.358-0.639c-0.318-0.43-0.48-0.938-0.485-1.525c-0.004-0.587,0.142-1.086,0.439-1.5
			c0.297-0.412,0.718-0.621,1.26-0.625c0.726-0.006,1.416,0.575,2.071,1.743c0.714-0.593,1.26-1.073,1.639-1.442
			c-0.339-0.225-0.732-0.398-1.181-0.52l0.63-0.907c0.508,0.187,0.953,0.399,1.336,0.64c0.298-0.297,0.659-0.674,1.08-1.131
			l0.777,0.818l-0.994,1.02C13.997,144.512,14.3,145.316,14.308,146.284z M7.318,145.773c0.002,0.245,0.081,0.465,0.236,0.658
			c0.155,0.193,0.336,0.289,0.542,0.287c0.205-0.002,0.39-0.053,0.554-0.152c0.165-0.102,0.393-0.273,0.684-0.518
			c-0.417-0.825-0.802-1.236-1.154-1.234c-0.293,0.002-0.511,0.102-0.652,0.297C7.386,145.307,7.316,145.527,7.318,145.773z
			 M12.935,147.252c0.207-0.279,0.308-0.65,0.305-1.113c-0.004-0.461-0.22-0.951-0.65-1.469c-0.771,0.747-1.419,1.339-1.944,1.775
			c0.454,0.825,0.949,1.236,1.484,1.231C12.46,147.674,12.728,147.533,12.935,147.252z"/>
		<path fill="#676868" d="M7.447,134.953c0.665-0.746,1.595-1.123,2.791-1.133c1.196-0.01,2.145,0.342,2.847,1.055
			c0.702,0.714,1.059,1.811,1.071,3.293l0.02,2.551l-7.689,0.061l-0.021-2.639C6.455,136.762,6.782,135.699,7.447,134.953z
			 M10.281,135.129c-1.76,0.014-2.632,1.029-2.616,3.046l0.01,1.298l5.269-0.042l-0.011-1.44c-0.007-0.932-0.235-1.643-0.683-2.135
			C11.803,135.364,11.146,135.122,10.281,135.129z"/>
		<path fill="#676868" d="M8.12,126.191c-0.006-0.785,0.26-1.458,0.799-2.02c0.538-0.562,1.258-0.846,2.16-0.854
			c0.902-0.007,1.638,0.264,2.207,0.813c0.569,0.551,0.856,1.193,0.862,1.93c0.006,0.737-0.311,1.402-0.952,1.994l3.014-0.024
			l0.01,1.231l-7.986,0.064l-0.01-1.232l1.023-0.008C8.502,127.607,8.126,126.977,8.12,126.191z M11.161,128.092
			c0.557-0.004,1.012-0.176,1.365-0.516c0.353-0.341,0.527-0.753,0.524-1.237c-0.004-0.483-0.183-0.903-0.538-1.261
			c-0.355-0.356-0.813-0.532-1.374-0.527c-0.561,0.004-1.025,0.184-1.393,0.539c-0.367,0.354-0.55,0.777-0.546,1.27
			c0.004,0.49,0.193,0.904,0.565,1.238C10.139,127.932,10.604,128.097,11.161,128.092z"/>
		<path fill="#676868" d="M11.597,116.461l0.036,4.588c0.425-0.033,0.767-0.23,1.024-0.592s0.384-0.772,0.38-1.234
			c-0.005-0.733-0.241-1.289-0.706-1.667l0.765-0.71c0.658,0.625,0.99,1.443,0.999,2.456c0.006,0.821-0.261,1.522-0.803,2.103
			c-0.542,0.58-1.273,0.873-2.193,0.881c-0.92,0.007-1.654-0.28-2.202-0.863c-0.547-0.582-0.824-1.271-0.831-2.066
			c-0.006-0.796,0.229-1.475,0.705-2.035c0.476-0.562,1.136-0.846,1.979-0.853L11.597,116.461z M10.666,121.057l-0.027-3.355
			c-0.491,0.004-0.868,0.16-1.129,0.471c-0.261,0.311-0.391,0.691-0.387,1.143c0.004,0.45,0.145,0.854,0.422,1.211
			C9.822,120.883,10.196,121.061,10.666,121.057z"/>
		<path fill="#676868" d="M9.252,112.058c0.005,0.608,0.207,1.065,0.605,1.37s0.932,0.455,1.599,0.449l2.508-0.02l0.01,1.232
			l-5.852,0.046l-0.01-1.231l1.177-0.01c-0.369-0.195-0.671-0.463-0.908-0.802c-0.238-0.339-0.361-0.699-0.372-1.081l1.243-0.021
			C9.251,112.014,9.252,112.035,9.252,112.058z"/>
		<path fill="#676868" d="M14.689,105.48l-0.803,0.006c-0.094,1.006-0.487,1.911-1.177,2.715l-0.963-0.794
			c0.53-0.621,0.845-1.257,0.942-1.911l-2.134,0.017c-0.191,0.831-0.447,1.439-0.766,1.827c-0.32,0.387-0.797,0.583-1.431,0.588
			s-1.155-0.213-1.562-0.653c-0.407-0.44-0.631-1.017-0.674-1.728l-0.55,0.004l-0.005-0.704l0.561-0.004
			c0.052-0.807,0.321-1.572,0.807-2.295l1.018,0.707c-0.341,0.486-0.549,1.013-0.625,1.578l2.068-0.016l0-0.033
			c0.191-0.845,0.455-1.467,0.788-1.865c0.334-0.399,0.823-0.601,1.464-0.606s1.166,0.218,1.573,0.67
			c0.407,0.451,0.632,1.051,0.674,1.799l0.792-0.006L14.689,105.48z M7.595,106.313c0.167,0.186,0.372,0.277,0.618,0.275
			c0.246-0.002,0.44-0.077,0.582-0.224c0.142-0.148,0.277-0.428,0.406-0.84l-1.903,0.015C7.33,105.869,7.429,106.127,7.595,106.313z
			 M12.4,103.958c-0.17-0.204-0.384-0.305-0.641-0.303s-0.459,0.084-0.608,0.247c-0.149,0.163-0.288,0.464-0.417,0.906l1.98-0.016
			C12.675,104.44,12.571,104.163,12.4,103.958z"/>
		<path fill="#676868" d="M6.176,101.533l-0.022-2.794l7.689-0.061l0.01,1.232l-6.534,0.052l0.012,1.562L6.176,101.533z"/>
		<path fill="#676868" d="M12.829,96.178c-0.718,0.527-1.683,0.794-2.893,0.804c-1.21,0.009-2.178-0.243-2.904-0.758
			c-0.727-0.515-1.095-1.297-1.103-2.346c-0.008-1.048,0.347-1.835,1.065-2.362s1.683-0.795,2.893-0.804
			c1.21-0.01,2.178,0.244,2.904,0.758c0.727,0.515,1.094,1.296,1.102,2.345C13.901,94.864,13.547,95.651,12.829,96.178z
			 M7.843,95.288c0.53,0.3,1.225,0.447,2.083,0.44s1.549-0.165,2.075-0.473c0.526-0.308,0.786-0.786,0.781-1.431
			c-0.005-0.645-0.271-1.114-0.797-1.407c-0.527-0.292-1.223-0.435-2.088-0.428s-1.559,0.16-2.081,0.461
			c-0.522,0.301-0.781,0.774-0.776,1.419C7.045,94.515,7.313,94.988,7.843,95.288z"/>
		<path fill="#676868" d="M12.769,88.61c-0.718,0.527-1.682,0.794-2.892,0.804c-1.21,0.009-2.178-0.243-2.905-0.758
			s-1.094-1.297-1.103-2.346c-0.008-1.048,0.347-1.836,1.065-2.362c0.718-0.526,1.682-0.795,2.892-0.804
			c1.21-0.01,2.178,0.244,2.905,0.758c0.727,0.515,1.094,1.297,1.102,2.345C13.842,87.296,13.487,88.083,12.769,88.61z M7.784,87.72
			c0.53,0.3,1.225,0.447,2.083,0.44s1.55-0.165,2.076-0.473c0.525-0.308,0.786-0.786,0.781-1.431
			c-0.005-0.645-0.271-1.114-0.798-1.407c-0.527-0.292-1.223-0.436-2.088-0.429s-1.559,0.161-2.081,0.462
			c-0.522,0.301-0.78,0.774-0.775,1.419C6.985,86.947,7.253,87.42,7.784,87.72z"/>
		<path fill="#676868" d="M12.709,81.042c-0.718,0.527-1.683,0.794-2.893,0.804c-1.21,0.009-2.178-0.243-2.904-0.758
			c-0.727-0.515-1.094-1.297-1.103-2.346c-0.008-1.048,0.347-1.836,1.065-2.362c0.718-0.526,1.683-0.795,2.893-0.804
			c1.21-0.01,2.178,0.244,2.904,0.758c0.727,0.515,1.094,1.296,1.103,2.345C13.782,79.728,13.427,80.516,12.709,81.042z
			 M7.724,80.152c0.53,0.3,1.225,0.447,2.083,0.44s1.55-0.165,2.076-0.473c0.525-0.308,0.786-0.786,0.781-1.431
			c-0.005-0.645-0.271-1.114-0.798-1.407c-0.527-0.292-1.223-0.436-2.088-0.429s-1.559,0.161-2.081,0.462
			c-0.522,0.301-0.781,0.774-0.775,1.419C6.926,79.379,7.194,79.852,7.724,80.152z"/>
		<path fill="#676868" d="M12.8,66.103c0.587,0.582,0.885,1.313,0.892,2.193c0.007,0.88-0.279,1.616-0.857,2.207
			c-0.578,0.591-1.289,0.891-2.133,0.897c-0.843,0.007-1.558-0.281-2.146-0.863c-0.587-0.582-0.885-1.313-0.892-2.193
			c-0.007-0.88,0.279-1.616,0.857-2.207c0.578-0.592,1.289-0.89,2.132-0.897C11.497,65.233,12.212,65.521,12.8,66.103z
			 M12.069,69.634c0.353-0.351,0.527-0.794,0.523-1.33c-0.004-0.536-0.186-0.976-0.544-1.321c-0.359-0.345-0.82-0.516-1.385-0.512
			c-0.564,0.004-1.023,0.183-1.376,0.534c-0.353,0.351-0.527,0.794-0.523,1.33c0.004,0.535,0.186,0.976,0.544,1.321
			c0.359,0.346,0.82,0.516,1.384,0.511C11.257,70.163,11.716,69.986,12.069,69.634z"/>
		<path fill="#676868" d="M7.221,62.439l0.484-0.003l-0.012-1.54l0.99-0.008l0.012,1.54l4.862-0.039l0.01,1.232L8.705,63.66
			l0.006,0.737l-0.99,0.008l-0.006-0.737l-0.451,0.003c-0.616,0.005-1.107-0.176-1.473-0.543c-0.366-0.368-0.551-0.814-0.555-1.338
			c-0.004-0.524,0.187-1.003,0.572-1.439l0.873,0.499c-0.254,0.244-0.381,0.498-0.379,0.762c0.002,0.264,0.086,0.469,0.252,0.614
			C6.72,62.37,6.942,62.441,7.221,62.439z"/>
		<path fill="#676868" d="M9.728,51.177l-0.01-1.298l2.629-0.021c0.805,0.72,1.213,1.754,1.223,3.104
			c0.009,1.137-0.357,2.091-1.099,2.864c-0.742,0.772-1.685,1.163-2.829,1.172c-1.144,0.009-2.1-0.375-2.87-1.149
			c-0.768-0.775-1.158-1.716-1.167-2.824c-0.008-1.107,0.308-2.03,0.947-2.769l0.996,0.686c-0.254,0.303-0.43,0.606-0.526,0.911
			c-0.097,0.306-0.144,0.66-0.14,1.063c0.006,0.777,0.262,1.428,0.769,1.952c0.506,0.524,1.168,0.783,1.986,0.776
			c0.818-0.006,1.472-0.268,1.963-0.785c0.491-0.517,0.733-1.141,0.728-1.87s-0.168-1.339-0.487-1.828L9.728,51.177z"/>
		<path fill="#676868" d="M6.716,42.379c0.665-0.746,1.595-1.124,2.791-1.133c1.196-0.01,2.145,0.342,2.847,1.055
			c0.702,0.713,1.059,1.811,1.071,3.292l0.021,2.552l-7.689,0.061l-0.021-2.64C5.724,44.187,6.051,43.125,6.716,42.379z
			 M9.55,42.555c-1.76,0.014-2.632,1.029-2.616,3.045l0.01,1.298l5.269-0.042l-0.012-1.441c-0.007-0.931-0.234-1.643-0.682-2.134
			C11.072,42.79,10.416,42.548,9.55,42.555z"/>
		<path fill="#676868" d="M6.317,34.406c0.443-0.539,1.13-0.812,2.062-0.819c0.932-0.007,1.616,0.26,2.053,0.803
			s0.66,1.379,0.669,2.508l0.011,1.364l2.255-0.018l0.01,1.298l-7.689,0.061l-0.021-2.64C5.657,35.798,5.875,34.946,6.317,34.406z
			 M9.498,35.3c-0.277-0.258-0.681-0.385-1.213-0.38c-0.532,0.004-0.906,0.171-1.124,0.503c-0.218,0.332-0.323,0.85-0.318,1.554
			l0.01,1.32l3.08-0.024l-0.012-1.507C9.917,36.046,9.775,35.559,9.498,35.3z"/>
	</g>
</g>
</svg>
