<?xml version="1.0" encoding="utf-8"?>
<!-- Generator: Adobe Illustrator 19.2.0, SVG Export Plug-In . SVG Version: 6.00 Build 0)  -->
<svg version="1.1" id="Layer_1" xmlns="http://www.w3.org/2000/svg" xmlns:xlink="http://www.w3.org/1999/xlink" x="0px" y="0px"
	 viewBox="0 0 217 217" style="enable-background:new 0 0 217 217;" xml:space="preserve">
<style type="text/css">
	.st0{opacity:0.4;clip-path:url(#SVGID_2_);fill:#81C5C9;enable-background:new    ;}
	.st1{fill:#81C5C9;}
	.st2{fill:none;}
	.st3{fill:#505050;}
	.st4{fill:#FFFFFF;}
</style>
<g>
	<g>
		<g>
			<g>
				<g>
					<g>
						<g>
							<defs>
								<rect id="SVGID_1_" x="49.2" y="20.9" width="148.7" height="156.5"/>
							</defs>
							<clipPath id="SVGID_2_">
								<use xlink:href="#SVGID_1_"  style="overflow:visible;"/>
							</clipPath>
							<polygon class="st0" points="49.2,92.7 59.6,88.6 70.7,92.7 80.9,101.6 92,94.3 102.3,95.1 113.3,60.2 123.7,78 134,78 
								145,75.6 155.3,78 166.3,59.4 176.6,57.8 187,44 198,64.2 198,177.4 49.2,177.4 							"/>
						</g>
					</g>
				</g>
			</g>
		</g>
		<polygon class="st1" points="49.2,134.8 59.6,134.8 70.7,133.2 80.9,123.5 92,112.9 102.3,105.6 113.3,103.2 123.7,104 134,106.4 
			145,108.8 155.3,104 166.3,90.3 176.6,86.2 187,82.1 198,88.6 198,177.4 49.2,177.4 		"/>
	</g>
	<g>
		<rect x="116.4" y="129.4" class="st2" width="31.9" height="25.3"/>
	</g>
	<g>
		<rect x="116.4" y="83.7" class="st2" width="31.9" height="25.3"/>
	</g>
</g>
<g>
	<path class="st3" d="M20.1,23.5l0.9-1.1c0.7,0.6,1.4,1,2.2,1c1,0,1.7-0.6,1.7-1.5v0c0-0.9-0.7-1.4-1.7-1.4c-0.6,0-1.1,0.2-1.5,0.4
		l-0.9-0.6l0.2-4.1h5v1.3h-3.7l-0.1,2c0.4-0.1,0.8-0.2,1.3-0.2c1.6,0,2.9,0.9,2.9,2.6v0c0,1.7-1.2,2.8-3.1,2.8
		C21.9,24.8,20.8,24.3,20.1,23.5z"/>
	<path class="st3" d="M27.8,23h1.6v1.6h-1.6V23z"/>
	<path class="st3" d="M30.7,23.5l0.9-1.1c0.7,0.6,1.4,1,2.2,1c1,0,1.7-0.6,1.7-1.5v0c0-0.9-0.7-1.4-1.7-1.4c-0.6,0-1.1,0.2-1.5,0.4
		l-0.9-0.6l0.2-4.1h5v1.3h-3.7l-0.1,2c0.4-0.1,0.8-0.2,1.3-0.2c1.6,0,2.9,0.9,2.9,2.6v0c0,1.7-1.2,2.8-3.1,2.8
		C32.5,24.8,31.5,24.3,30.7,23.5z"/>
	<path class="st3" d="M38.3,20.5L38.3,20.5c0-2.4,1.5-4.4,3.7-4.4c2.2,0,3.6,1.9,3.6,4.3v0c0,2.4-1.5,4.3-3.7,4.3
		C39.8,24.8,38.3,22.9,38.3,20.5z M44.1,20.5L44.1,20.5c0-1.7-0.9-3-2.1-3s-2.1,1.3-2.1,3v0c0,1.7,0.8,3,2.1,3S44.1,22.1,44.1,20.5z
		"/>
</g>
<g>
	<path class="st3" d="M19.6,45.8l0.9-1.1c0.7,0.6,1.4,1,2.2,1c1,0,1.7-0.6,1.7-1.5v0c0-0.9-0.7-1.4-1.7-1.4c-0.6,0-1.1,0.2-1.5,0.4
		l-0.9-0.6l0.2-4.1h5v1.3h-3.7l-0.1,2c0.4-0.1,0.8-0.2,1.3-0.2c1.6,0,2.9,0.9,2.9,2.6v0c0,1.7-1.2,2.8-3.1,2.8
		C21.4,47,20.4,46.5,19.6,45.8z"/>
	<path class="st3" d="M27.3,45.3h1.6v1.6h-1.6V45.3z"/>
	<path class="st3" d="M30.1,42.7L30.1,42.7c0-2.4,1.5-4.4,3.7-4.4c2.2,0,3.6,1.9,3.6,4.3v0c0,2.4-1.5,4.3-3.7,4.3
		C31.6,47,30.1,45.1,30.1,42.7z M35.9,42.7L35.9,42.7c0-1.7-0.9-3-2.1-3s-2.1,1.3-2.1,3v0c0,1.7,0.8,3,2.1,3S35.9,44.4,35.9,42.7z"
		/>
	<path class="st3" d="M38.8,42.7L38.8,42.7c0-2.4,1.5-4.4,3.7-4.4c2.2,0,3.6,1.9,3.6,4.3v0c0,2.4-1.5,4.3-3.7,4.3
		C40.3,47,38.8,45.1,38.8,42.7z M44.6,42.7L44.6,42.7c0-1.7-0.9-3-2.1-3s-2.1,1.3-2.1,3v0c0,1.7,0.8,3,2.1,3
		C43.8,45.7,44.6,44.4,44.6,42.7z"/>
</g>
<g>
	<path class="st3" d="M24.1,67.9h-4.2l-0.3-1.1l4.7-5.5h1.3v5.4h1.2v1.2h-1.2v1.9h-1.4V67.9z M24.1,66.7v-3.3l-2.8,3.3H24.1z"/>
	<path class="st3" d="M28.1,68.1h1.6v1.6h-1.6V68.1z"/>
	<path class="st3" d="M31.1,68.6l0.9-1.1c0.7,0.6,1.4,1,2.2,1c1,0,1.7-0.6,1.7-1.5v0c0-0.9-0.7-1.4-1.7-1.4c-0.6,0-1.1,0.2-1.5,0.4
		l-0.9-0.6l0.2-4.1h5v1.3h-3.7l-0.1,2c0.4-0.1,0.8-0.2,1.3-0.2c1.6,0,2.9,0.9,2.9,2.6v0c0,1.7-1.2,2.8-3.1,2.8
		C32.9,69.9,31.9,69.4,31.1,68.6z"/>
	<path class="st3" d="M38.7,65.6L38.7,65.6c0-2.4,1.5-4.4,3.7-4.4c2.2,0,3.6,1.9,3.6,4.3v0c0,2.4-1.5,4.3-3.7,4.3
		C40.1,69.9,38.7,68,38.7,65.6z M44.5,65.6L44.5,65.6c0-1.7-0.9-3-2.1-3c-1.3,0-2.1,1.3-2.1,3v0c0,1.7,0.8,3,2.1,3
		S44.5,67.3,44.5,65.6z"/>
</g>
<g>
	<path class="st3" d="M23.6,90.1h-4.2l-0.3-1.1l4.7-5.5H25v5.4h1.2v1.2H25V92h-1.4V90.1z M23.6,88.9v-3.3l-2.8,3.3H23.6z"/>
	<path class="st3" d="M27.6,90.3h1.6V92h-1.6V90.3z"/>
	<path class="st3" d="M30.5,87.8L30.5,87.8c0-2.4,1.5-4.4,3.7-4.4c2.2,0,3.6,1.9,3.6,4.3v0c0,2.4-1.5,4.3-3.7,4.3
		C31.9,92.1,30.5,90.2,30.5,87.8z M36.3,87.8L36.3,87.8c0-1.7-0.9-3-2.1-3s-2.1,1.3-2.1,3v0c0,1.7,0.8,3,2.1,3
		C35.5,90.8,36.3,89.5,36.3,87.8z"/>
	<path class="st3" d="M39.2,87.8L39.2,87.8c0-2.4,1.5-4.4,3.7-4.4c2.2,0,3.6,1.9,3.6,4.3v0c0,2.4-1.5,4.3-3.7,4.3
		C40.6,92.1,39.2,90.2,39.2,87.8z M45,87.8L45,87.8c0-1.7-0.9-3-2.1-3s-2.1,1.3-2.1,3v0c0,1.7,0.8,3,2.1,3S45,89.5,45,87.8z"/>
</g>
<g>
	<path class="st3" d="M20,112.4l1-1c0.6,0.7,1.3,1.1,2.2,1.1c0.8,0,1.5-0.5,1.5-1.3v0c0-0.8-0.8-1.3-1.9-1.3h-0.7l-0.2-0.9l2.3-2.4
		h-3.6v-1.3h5.6v1.1l-2.3,2.4c1.3,0.2,2.5,0.8,2.5,2.4c0,0,0,0,0,0c0,1.5-1.2,2.7-2.9,2.7C21.8,113.9,20.7,113.3,20,112.4z"/>
	<path class="st3" d="M27.7,112.1h1.6v1.6h-1.6V112.1z"/>
	<path class="st3" d="M30.7,112.6l0.9-1.1c0.7,0.6,1.4,1,2.2,1c1,0,1.7-0.6,1.7-1.5v0c0-0.9-0.7-1.4-1.7-1.4c-0.6,0-1.1,0.2-1.5,0.4
		l-0.9-0.6l0.2-4.1h5v1.3h-3.7l-0.1,2c0.4-0.1,0.8-0.2,1.3-0.2c1.6,0,2.9,0.9,2.9,2.6v0c0,1.7-1.2,2.8-3.1,2.8
		C32.5,113.9,31.5,113.4,30.7,112.6z"/>
	<path class="st3" d="M38.3,109.6L38.3,109.6c0-2.4,1.5-4.4,3.7-4.4c2.2,0,3.6,1.9,3.6,4.3v0c0,2.4-1.5,4.3-3.7,4.3
		C39.7,113.9,38.3,112,38.3,109.6z M44.1,109.6L44.1,109.6c0-1.7-0.9-3-2.1-3c-1.3,0-2.1,1.3-2.1,3v0c0,1.7,0.8,3,2.1,3
		S44.1,111.2,44.1,109.6z"/>
</g>
<g>
	<path class="st3" d="M19.5,135l1-1c0.6,0.7,1.3,1.1,2.2,1.1c0.8,0,1.5-0.5,1.5-1.3v0c0-0.8-0.8-1.3-1.9-1.3h-0.7l-0.2-0.9l2.3-2.4
		H20V128h5.6v1.1l-2.3,2.4c1.3,0.2,2.5,0.8,2.5,2.4c0,0,0,0,0,0c0,1.5-1.2,2.7-2.9,2.7C21.3,136.5,20.2,135.9,19.5,135z"/>
	<path class="st3" d="M27.3,134.7h1.6v1.6h-1.6V134.7z"/>
	<path class="st3" d="M30.1,132.2L30.1,132.2c0-2.4,1.5-4.4,3.7-4.4c2.2,0,3.6,1.9,3.6,4.3v0c0,2.4-1.5,4.3-3.7,4.3
		C31.5,136.5,30.1,134.6,30.1,132.2z M35.9,132.2L35.9,132.2c0-1.7-0.9-3-2.1-3c-1.3,0-2.1,1.3-2.1,3v0c0,1.7,0.8,3,2.1,3
		S35.9,133.8,35.9,132.2z"/>
	<path class="st3" d="M38.8,132.2L38.8,132.2c0-2.4,1.5-4.4,3.7-4.4c2.2,0,3.6,1.9,3.6,4.3v0c0,2.4-1.5,4.3-3.7,4.3
		C40.2,136.5,38.8,134.6,38.8,132.2z M44.6,132.2L44.6,132.2c0-1.7-0.9-3-2.1-3c-1.3,0-2.1,1.3-2.1,3v0c0,1.7,0.8,3,2.1,3
		S44.6,133.8,44.6,132.2z"/>
</g>
<g>
	<path class="st3" d="M20.1,157.6l2.9-2.5c1.2-1,1.6-1.5,1.6-2.3c0-0.8-0.6-1.3-1.4-1.3s-1.3,0.4-1.9,1.3l-1-0.8
		c0.8-1.1,1.6-1.8,3.1-1.8c1.6,0,2.8,1,2.8,2.5v0c0,1.3-0.7,2-2.2,3.3l-1.7,1.4h4v1.3h-6.1V157.6z"/>
	<path class="st3" d="M27.7,157.2h1.6v1.6h-1.6V157.2z"/>
	<path class="st3" d="M30.7,157.7l0.9-1.1c0.7,0.6,1.4,1,2.2,1c1,0,1.7-0.6,1.7-1.5v0c0-0.9-0.7-1.4-1.7-1.4c-0.6,0-1.1,0.2-1.5,0.4
		l-0.9-0.6l0.2-4.1h5v1.3h-3.7l-0.1,2c0.4-0.1,0.8-0.2,1.3-0.2c1.6,0,2.9,0.9,2.9,2.6v0c0,1.7-1.2,2.8-3.1,2.8
		C32.5,158.9,31.5,158.4,30.7,157.7z"/>
	<path class="st3" d="M38.3,154.6L38.3,154.6c0-2.4,1.5-4.4,3.7-4.4c2.2,0,3.6,1.9,3.6,4.3v0c0,2.4-1.5,4.3-3.7,4.3
		C39.7,158.9,38.3,157,38.3,154.6z M44.1,154.6L44.1,154.6c0-1.7-0.9-3-2.1-3c-1.3,0-2.1,1.3-2.1,3v0c0,1.7,0.8,3,2.1,3
		S44.1,156.3,44.1,154.6z"/>
</g>
<g>
	<path class="st3" d="M19.6,180l2.9-2.5c1.2-1,1.6-1.5,1.6-2.3c0-0.8-0.6-1.3-1.4-1.3s-1.3,0.4-1.9,1.3l-1-0.8
		c0.8-1.1,1.6-1.8,3.1-1.8c1.6,0,2.8,1,2.8,2.5v0c0,1.3-0.7,2-2.2,3.2l-1.7,1.4h4v1.3h-6.1V180z"/>
	<path class="st3" d="M27.2,179.5h1.6v1.6h-1.6V179.5z"/>
	<path class="st3" d="M30.1,177L30.1,177c0-2.4,1.5-4.4,3.7-4.4c2.2,0,3.6,1.9,3.6,4.3v0c0,2.4-1.5,4.3-3.7,4.3
		C31.5,181.3,30.1,179.4,30.1,177z M35.9,177L35.9,177c0-1.7-0.9-3-2.1-3c-1.3,0-2.1,1.3-2.1,3v0c0,1.7,0.8,3,2.1,3
		S35.9,178.6,35.9,177z"/>
	<path class="st3" d="M38.8,177L38.8,177c0-2.4,1.5-4.4,3.7-4.4c2.2,0,3.6,1.9,3.6,4.3v0c0,2.4-1.5,4.3-3.7,4.3
		C40.2,181.3,38.8,179.4,38.8,177z M44.6,177L44.6,177c0-1.7-0.9-3-2.1-3c-1.3,0-2.1,1.3-2.1,3v0c0,1.7,0.8,3,2.1,3
		S44.6,178.6,44.6,177z"/>
</g>
<g>
	<path class="st3" d="M13.4,181.2l-1.1-0.9c0.7-0.8,1.1-1.6,1.1-2.7c0-0.9-0.4-1.5-1.1-1.5h0c-0.6,0-0.9,0.3-1.3,1.9
		c-0.4,1.8-1,2.8-2.5,2.8h0c-1.4,0-2.4-1.2-2.4-2.9c0-1.2,0.4-2.2,1.1-3l1.1,0.8c-0.6,0.8-0.9,1.5-0.9,2.3c0,0.9,0.4,1.4,1,1.4h0
		c0.6,0,0.9-0.4,1.3-2c0.4-1.8,1.1-2.7,2.5-2.7h0c1.6,0,2.5,1.2,2.5,3C14.7,179,14.3,180.2,13.4,181.2z"/>
	<path class="st3" d="M13.6,168.3c0.7,0.7,1.1,1.6,1.1,2.6c0,1.6-0.9,2.7-2.4,2.7h0c-1.1,0-1.9-0.6-2.4-1.8
		c-0.6,0.5-1.1,0.7-1.8,0.7h0c-1.1,0-2.1-0.9-2.1-2.4c0-1.3,0.9-2.2,2-2.2h0c1.1,0,1.8,0.7,2.2,1.8l1.5-1.4c-0.5-0.3-1-0.6-1.6-0.9
		l0.6-1.1c0.7,0.3,1.3,0.7,1.9,1.1l1.3-1.3l0.8,1.1L13.6,168.3z M8.2,169.2L8.2,169.2c-0.6,0-1,0.4-1,1c0,0.6,0.4,1,1,1h0
		c0.4,0,0.7-0.2,1.2-0.6C9.2,169.6,8.8,169.2,8.2,169.2z M12.8,169.1l-1.9,1.9c0.3,0.8,0.9,1.1,1.4,1.1h0c0.7,0,1.2-0.6,1.2-1.4
		C13.5,170.1,13.2,169.6,12.8,169.1z"/>
	<path class="st3" d="M6.2,164.6v-6.2h1.3v4.8h2.2V159H11v4.2h2.3v-4.8h1.3v6.3H6.2z"/>
	<path class="st3" d="M6.2,153v-3.7c0-1.1,0.3-1.9,0.8-2.4c0.5-0.4,1.1-0.7,1.8-0.7h0c1.4,0,2.2,0.8,2.5,2l3.2-2.3v1.7l-2.9,2.1v0
		v1.8h2.9v1.5H6.2z M10.4,149.4c0-1.1-0.6-1.7-1.4-1.7h0c-0.9,0-1.4,0.6-1.4,1.7v2.1h2.8V149.4z"/>
	<path class="st3" d="M13.6,139.6c0.7,0.7,1.1,1.6,1.1,2.6c0,1.6-0.9,2.7-2.4,2.7h0c-1.1,0-1.9-0.6-2.4-1.8
		c-0.6,0.5-1.1,0.7-1.8,0.7h0c-1.1,0-2.1-0.9-2.1-2.4c0-1.3,0.9-2.2,2-2.2h0c1.1,0,1.8,0.7,2.2,1.8l1.5-1.4c-0.5-0.3-1-0.6-1.6-0.9
		l0.6-1.1c0.7,0.3,1.3,0.7,1.9,1.1l1.3-1.3l0.8,1.1L13.6,139.6z M8.2,140.5L8.2,140.5c-0.6,0-1,0.4-1,1c0,0.6,0.4,1,1,1h0
		c0.4,0,0.7-0.2,1.2-0.6C9.2,141,8.8,140.5,8.2,140.5z M12.8,140.5l-1.9,1.9c0.3,0.8,0.9,1.1,1.4,1.1h0c0.7,0,1.2-0.6,1.2-1.4
		C13.5,141.5,13.2,140.9,12.8,140.5z"/>
	<path class="st3" d="M6.2,136v-3.1c0-2.6,1.8-4.5,4.2-4.5h0c2.4,0,4.2,1.8,4.2,4.5v3.1H6.2z M13.3,132.8c0-1.8-1.2-2.9-2.8-2.9h0
		c-1.6,0-2.9,1.2-2.9,2.9v1.7h5.7V132.8z"/>
	<path class="st3" d="M8.3,123.2v-1.5h1.1c-0.7-0.5-1.2-1.1-1.2-2.1c0-1.5,1.2-3,3.3-3h0c2.1,0,3.3,1.4,3.3,3c0,1-0.5,1.7-1.1,2.1
		h2.9v1.5H8.3z M11.4,118.1L11.4,118.1c-1.2,0-2.1,0.8-2.1,1.8s0.8,1.8,2,1.8h0c1.2,0,2-0.9,2-1.8C13.5,118.9,12.7,118.1,11.4,118.1
		z"/>
	<path class="st3" d="M11.5,115.5L11.5,115.5c-1.8,0-3.3-1.3-3.3-3.1c0-2,1.6-3,3.4-3c0.1,0,0.3,0,0.4,0v4.7c1-0.2,1.6-0.9,1.6-1.8
		c0-0.7-0.3-1.2-0.8-1.7l0.8-0.9c0.7,0.6,1.2,1.4,1.2,2.6C14.7,114.1,13.4,115.5,11.5,115.5z M11,110.8c-0.9,0.1-1.7,0.6-1.7,1.6
		c0,0.9,0.7,1.5,1.7,1.6V110.8z"/>
	<path class="st3" d="M8.3,107.9v-1.5h1.4c-0.9-0.4-1.6-1.1-1.5-2.2h1.5v0.1c0,1.3,0.8,2.2,2.5,2.2h2.4v1.5H8.3z"/>
	<path class="st3" d="M14.6,96.8c-0.1,1-0.5,2-1.2,2.8l-1.1-0.8c0.6-0.7,0.9-1.3,1-2.1H11c-0.5,1.8-1.1,2.6-2.5,2.6h0
		c-1.3,0-2.2-1-2.3-2.5H5.5v-1h0.7c0.1-0.9,0.4-1.6,0.9-2.3l1.1,0.7c-0.4,0.5-0.6,1.1-0.8,1.6h2.3c0.5-1.8,1.2-2.6,2.5-2.6h0
		c1.3,0,2.2,1,2.3,2.6h1.2v1H14.6z M7.4,96.8c0.1,0.8,0.5,1.2,1,1.2h0c0.5,0,0.8-0.2,1.1-1.2H7.4z M12.4,94.6L12.4,94.6
		c-0.6,0-0.9,0.3-1.2,1.2h2.2C13.3,95.1,12.9,94.6,12.4,94.6z"/>
	<path class="st3" d="M7.6,90.4l0.4,1.5l-1.2,0.3L6.1,90v-1h8.5v1.5H7.6z"/>
	<path class="st3" d="M10.4,87.1L10.4,87.1c-2.4,0-4.4-1.5-4.4-3.7c0-2.2,1.9-3.6,4.3-3.6h0c2.4,0,4.3,1.5,4.3,3.7
		C14.7,85.6,12.8,87.1,10.4,87.1z M10.4,81.3L10.4,81.3c-1.7,0-3,0.9-3,2.1c0,1.3,1.3,2.1,3,2.1h0c1.7,0,3-0.8,3-2.1
		S12.1,81.3,10.4,81.3z"/>
	<path class="st3" d="M10.4,78.4L10.4,78.4c-2.4,0-4.4-1.5-4.4-3.7c0-2.2,1.9-3.6,4.3-3.6h0c2.4,0,4.3,1.5,4.3,3.7
		C14.7,77,12.8,78.4,10.4,78.4z M10.4,72.6L10.4,72.6c-1.7,0-3,0.9-3,2.1c0,1.3,1.3,2.1,3,2.1h0c1.7,0,3-0.8,3-2.1
		S12.1,72.6,10.4,72.6z"/>
	<path class="st3" d="M10.4,69.7L10.4,69.7c-2.4,0-4.4-1.5-4.4-3.7c0-2.2,1.9-3.6,4.3-3.6h0c2.4,0,4.3,1.5,4.3,3.7
		C14.7,68.3,12.8,69.7,10.4,69.7z M10.4,63.9L10.4,63.9c-1.7,0-3,0.9-3,2.1c0,1.3,1.3,2.1,3,2.1h0c1.7,0,3-0.8,3-2.1
		S12.1,63.9,10.4,63.9z"/>
	<path class="st3" d="M11.5,57.5L11.5,57.5c-1.8,0-3.3-1.4-3.3-3.4c0-1.9,1.5-3.4,3.3-3.4h0c1.8,0,3.3,1.4,3.3,3.4
		C14.7,56.1,13.3,57.5,11.5,57.5z M11.5,52.2L11.5,52.2c-1.1,0-2.1,0.8-2.1,1.9c0,1.2,0.9,1.9,2,1.9h0c1.1,0,2-0.8,2-1.9
		C13.5,53,12.6,52.2,11.5,52.2z"/>
	<path class="st3" d="M9.5,49v0.8H8.3V49H7.8c-0.7,0-1.2-0.2-1.6-0.5c-0.3-0.3-0.5-0.8-0.5-1.4c0-0.5,0.1-0.9,0.2-1.2h1.2
		C7.1,46.2,7,46.4,7,46.7c0,0.6,0.3,0.8,1,0.8h0.3v-1.7h1.2v1.7h5.1V49H9.5z"/>
	<path class="st3" d="M10.4,41.4L10.4,41.4c-2.4,0-4.4-1.8-4.4-4.3c0-1.5,0.4-2.4,1.1-3.2l1.1,0.9c-0.6,0.6-0.9,1.3-0.9,2.4
		c0,1.5,1.4,2.7,3,2.7h0c1.7,0,3-1.1,3-2.9c0-0.8-0.3-1.5-0.6-2h-1.6v2.1H9.9v-3.6h3.5c0.7,0.8,1.3,2,1.3,3.5
		C14.7,39.7,12.9,41.4,10.4,41.4z"/>
	<path class="st3" d="M6.2,31.6v-3.1c0-2.6,1.8-4.5,4.2-4.5h0c2.4,0,4.2,1.8,4.2,4.5v3.1H6.2z M13.3,28.5c0-1.8-1.2-2.9-2.8-2.9h0
		c-1.6,0-2.9,1.2-2.9,2.9v1.7h5.7V28.5z"/>
	<path class="st3" d="M6.2,22.2v-3.3c0-2,1.1-3.2,2.8-3.2h0c1.9,0,2.9,1.5,2.9,3.4v1.7h2.7v1.5H6.2z M10.6,19c0-1.1-0.6-1.8-1.5-1.8
		h0c-1,0-1.5,0.7-1.5,1.8v1.7h3V19z"/>
</g>
<g>
	<path class="st3" d="M35.2,202.2l-0.8,1.4l-1.1-0.6l1.1-2.1l0.7-0.7l6,6l-1,1L35.2,202.2z"/>
	<path class="st3" d="M42,204l-0.2-1.4c0.8-0.1,1.4-0.3,1.9-0.8c0.9-0.9,0.6-2.2-0.4-3.3c0.1,0.7-0.1,1.4-0.8,2
		c-1.3,1.3-2.8,1.4-4,0.2l0,0c-1.2-1.2-1.2-3,0.2-4.3c0.7-0.7,1.4-1,2.3-1c0.9,0,1.8,0.4,3,1.5l0,0c1.9,1.9,2.3,4.2,0.7,5.8
		C43.8,203.7,42.9,203.9,42,204z M41.9,197.3L41.9,197.3c-0.6-0.6-1.6-0.6-2.3,0.1c-0.7,0.7-0.7,1.7-0.1,2.3l0,0
		c0.6,0.6,1.5,0.6,2.3-0.2C42.5,198.8,42.5,197.9,41.9,197.3z"/>
	<path class="st3" d="M47.6,198.5l-0.2-1.4c0.8-0.1,1.4-0.3,1.9-0.8c0.9-0.9,0.6-2.2-0.4-3.3c0.1,0.7-0.1,1.4-0.8,2
		c-1.3,1.3-2.8,1.4-4,0.2l0,0c-1.2-1.2-1.2-3,0.2-4.3c0.7-0.7,1.4-1,2.3-1c0.9,0,1.8,0.4,3,1.5l0,0c1.9,1.9,2.3,4.2,0.7,5.8
		C49.3,198.1,48.5,198.4,47.6,198.5z M47.5,191.7L47.5,191.7c-0.6-0.6-1.6-0.6-2.3,0.1c-0.7,0.7-0.7,1.7-0.1,2.3l0,0
		c0.6,0.6,1.5,0.6,2.3-0.2C48.1,193.2,48,192.3,47.5,191.7z"/>
	<path class="st3" d="M51.9,192.1L51.9,192.1c-0.7-0.7-0.8-1.6-0.4-2.5c-0.8,0.2-1.5,0.2-2.2-0.5l0,0c-0.9-0.9-0.7-2.5,0.5-3.7
		s2.7-1.4,3.7-0.5l0,0c0.7,0.7,0.7,1.4,0.5,2.2c0.9-0.3,1.8-0.3,2.5,0.4l0,0c1.1,1.1,0.8,2.7-0.5,4
		C54.6,192.9,52.9,193.1,51.9,192.1z M52.5,186.1L52.5,186.1c-0.5-0.5-1.3-0.4-1.9,0.2c-0.6,0.6-0.7,1.4-0.2,1.9l0,0
		c0.5,0.5,1.3,0.4,1.9-0.2C53,187.4,53,186.6,52.5,186.1z M55.3,188.5L55.3,188.5c-0.6-0.6-1.5-0.4-2.2,0.3
		c-0.7,0.7-0.9,1.6-0.3,2.1l0,0c0.5,0.5,1.4,0.4,2.1-0.4C55.8,189.9,55.8,189,55.3,188.5z"/>
</g>
<g>
	<path class="st3" d="M56.7,209.3l0.3-3.8c0.1-1.5,0-2.2-0.5-2.7c-0.6-0.6-1.3-0.5-1.9,0s-0.6,1.2-0.5,2.3l-1.3,0.2
		c-0.2-1.4-0.1-2.4,0.9-3.4c1.2-1.2,2.7-1.2,3.7-0.2l0,0c0.9,0.9,0.9,1.9,0.8,3.8l-0.2,2.2l2.8-2.8l0.9,0.9l-4.3,4.3L56.7,209.3z"/>
	<path class="st3" d="M59.9,201.9L59.9,201.9c-1.7-1.7-2.1-4.1-0.5-5.7c1.6-1.6,3.9-1.2,5.6,0.5l0,0c1.7,1.7,2,4.1,0.5,5.7
		C63.9,203.9,61.5,203.6,59.9,201.9z M63.9,197.8L63.9,197.8c-1.2-1.2-2.7-1.5-3.7-0.6s-0.6,2.4,0.6,3.6l0,0
		c1.2,1.2,2.7,1.5,3.6,0.6C65.5,200.5,65.1,199,63.9,197.8z"/>
	<path class="st3" d="M66,195.8L66,195.8c-1.7-1.7-2.1-4.1-0.5-5.7c1.6-1.6,3.9-1.2,5.6,0.5l0,0c1.7,1.7,2,4.1,0.5,5.7
		C70.1,197.8,67.7,197.4,66,195.8z M70.1,191.7L70.1,191.7c-1.2-1.2-2.7-1.5-3.7-0.6s-0.6,2.4,0.6,3.6l0,0c1.2,1.2,2.7,1.5,3.6,0.6
		C71.6,194.3,71.3,192.8,70.1,191.7z"/>
	<path class="st3" d="M72.1,189.6L72.1,189.6c-1.7-1.7-2.1-4.1-0.5-5.7c1.6-1.6,3.9-1.2,5.6,0.5l0,0c1.7,1.7,2,4.1,0.5,5.7
		S73.8,191.3,72.1,189.6z M76.2,185.5L76.2,185.5c-1.2-1.2-2.7-1.5-3.7-0.6c-0.9,0.9-0.6,2.4,0.6,3.6l0,0c1.2,1.2,2.7,1.5,3.6,0.6
		C77.8,188.2,77.4,186.7,76.2,185.5z"/>
</g>
<g>
	<path class="st3" d="M77.3,208.8l0.3-3.8c0.1-1.5,0-2.2-0.5-2.7c-0.6-0.6-1.3-0.5-1.9,0c-0.5,0.5-0.6,1.2-0.5,2.3l-1.3,0.2
		c-0.2-1.4-0.1-2.4,0.9-3.4c1.2-1.2,2.7-1.2,3.7-0.2l0,0c0.9,0.9,0.9,1.9,0.8,3.8l-0.2,2.2l2.8-2.8l0.9,0.9l-4.3,4.3L77.3,208.8z"/>
	<path class="st3" d="M80.5,201.4L80.5,201.4c-1.7-1.7-2.1-4.1-0.5-5.7c1.6-1.6,3.9-1.2,5.6,0.5l0,0c1.7,1.7,2,4.1,0.5,5.7
		S82.2,203.1,80.5,201.4z M84.6,197.3L84.6,197.3c-1.2-1.2-2.7-1.5-3.7-0.6s-0.6,2.4,0.6,3.6l0,0c1.2,1.2,2.7,1.5,3.6,0.6
		C86.1,200,85.8,198.5,84.6,197.3z"/>
	<path class="st3" d="M86.6,195.2L86.6,195.2c-1.7-1.7-2.1-4.1-0.5-5.7c1.6-1.6,3.9-1.2,5.6,0.5l0,0c1.7,1.7,2,4.1,0.5,5.7
		S88.3,196.9,86.6,195.2z M90.7,191.1L90.7,191.1c-1.2-1.2-2.7-1.5-3.7-0.6c-0.9,0.9-0.6,2.4,0.6,3.6l0,0c1.2,1.2,2.7,1.5,3.6,0.6
		C92.3,193.8,91.9,192.3,90.7,191.1z"/>
	<path class="st3" d="M94.7,191.4l0.3-3.8c0.1-1.5,0-2.2-0.5-2.7c-0.6-0.6-1.3-0.5-1.9,0c-0.5,0.5-0.6,1.2-0.5,2.3l-1.3,0.2
		c-0.2-1.4-0.1-2.4,0.9-3.4c1.2-1.2,2.7-1.2,3.7-0.2l0,0c0.9,0.9,0.9,1.9,0.8,3.8l-0.2,2.2l2.8-2.8l0.9,0.9l-4.3,4.3L94.7,191.4z"/>
</g>
<g>
	<path class="st3" d="M99.1,209.1l0.3-3.8c0.1-1.5,0-2.2-0.5-2.7c-0.6-0.6-1.3-0.5-1.9,0c-0.5,0.5-0.6,1.2-0.5,2.3l-1.3,0.2
		c-0.2-1.4-0.1-2.4,0.9-3.4c1.2-1.2,2.7-1.2,3.7-0.2l0,0c0.9,0.9,0.9,1.9,0.8,3.8l-0.2,2.2l2.8-2.8l0.9,0.9l-4.3,4.3L99.1,209.1z"/>
	<path class="st3" d="M102.2,201.7L102.2,201.7c-1.7-1.7-2.1-4.1-0.5-5.7c1.6-1.6,3.9-1.2,5.6,0.5l0,0c1.7,1.7,2,4.1,0.5,5.7
		C106.3,203.7,103.9,203.4,102.2,201.7z M106.3,197.6L106.3,197.6c-1.2-1.2-2.7-1.5-3.7-0.6s-0.6,2.4,0.6,3.6l0,0
		c1.2,1.2,2.7,1.5,3.6,0.6C107.9,200.3,107.5,198.8,106.3,197.6z"/>
	<path class="st3" d="M108.4,195.6L108.4,195.6c-1.7-1.7-2.1-4.1-0.5-5.7c1.6-1.6,3.9-1.2,5.6,0.5l0,0c1.7,1.7,2,4.1,0.5,5.7
		S110.1,197.3,108.4,195.6z M112.5,191.5L112.5,191.5c-1.2-1.2-2.7-1.5-3.7-0.6c-0.9,0.9-0.6,2.4,0.6,3.6l0,0
		c1.2,1.2,2.7,1.5,3.6,0.6S113.7,192.6,112.5,191.5z"/>
	<path class="st3" d="M119.2,188l-3,3l-0.9-0.6l-0.6-7.2l0.9-0.9l3.8,3.8l0.8-0.8l0.9,0.9l-0.8,0.8l1.3,1.3l-1,1L119.2,188z
		 M118.3,187.2l-2.3-2.3l0.4,4.3L118.3,187.2z"/>
</g>
<g>
	<path class="st3" d="M119.9,209l0.3-3.8c0.1-1.5,0-2.2-0.5-2.7c-0.6-0.6-1.3-0.5-1.9,0c-0.5,0.5-0.6,1.2-0.5,2.3L116,205
		c-0.2-1.4-0.1-2.4,0.9-3.4c1.2-1.2,2.7-1.2,3.7-0.2l0,0c0.9,0.9,1,1.9,0.8,3.8l-0.2,2.2l2.8-2.8l0.9,0.9l-4.3,4.3L119.9,209z"/>
	<path class="st3" d="M123,201.6L123,201.6c-1.7-1.7-2.1-4.1-0.5-5.7c1.6-1.6,3.9-1.2,5.6,0.5l0,0c1.7,1.7,2,4.1,0.5,5.7
		C127.1,203.6,124.7,203.3,123,201.6z M127.1,197.5L127.1,197.5c-1.2-1.2-2.7-1.5-3.7-0.6s-0.6,2.4,0.6,3.6l0,0
		c1.2,1.2,2.7,1.5,3.6,0.6C128.6,200.2,128.3,198.7,127.1,197.5z"/>
	<path class="st3" d="M129.1,195.5L129.1,195.5c-1.7-1.7-2.1-4.1-0.5-5.7c1.6-1.6,3.9-1.2,5.6,0.5l0,0c1.7,1.7,2,4.1,0.5,5.7
		C133.2,197.5,130.8,197.2,129.1,195.5z M133.2,191.4L133.2,191.4c-1.2-1.2-2.7-1.5-3.7-0.6s-0.6,2.4,0.6,3.6l0,0
		c1.2,1.2,2.7,1.5,3.6,0.6C134.8,194.1,134.4,192.5,133.2,191.4z"/>
	<path class="st3" d="M138.4,191c-0.9,0-1.8-0.4-3-1.6l0,0c-1.8-1.8-2.4-4.1-0.7-5.8c0.8-0.8,1.5-1.1,2.5-1.2l0.2,1.4
		c-0.7,0.1-1.3,0.3-1.8,0.8c-0.9,0.9-0.6,2.2,0.5,3.3c0-0.6,0.1-1.3,0.8-2c1.2-1.2,2.8-1.4,3.9-0.2l0,0c1.2,1.2,1.1,3-0.2,4.2
		C140,190.7,139.2,191,138.4,191z M139.9,186.9L139.9,186.9c-0.6-0.6-1.5-0.6-2.3,0.2c-0.7,0.7-0.7,1.7-0.2,2.2l0,0
		c0.6,0.6,1.6,0.6,2.3-0.2C140.5,188.4,140.5,187.5,139.9,186.9z"/>
</g>
<g>
	<path class="st3" d="M140.4,208.9l0.3-3.8c0.1-1.5,0-2.2-0.5-2.7c-0.6-0.6-1.3-0.5-1.9,0c-0.5,0.5-0.6,1.2-0.5,2.3l-1.3,0.2
		c-0.2-1.4-0.1-2.4,0.9-3.4c1.2-1.2,2.7-1.2,3.7-0.2l0,0c0.9,0.9,0.9,1.9,0.8,3.8l-0.2,2.2l2.8-2.8l0.9,0.9l-4.3,4.3L140.4,208.9z"
		/>
	<path class="st3" d="M143.6,201.5L143.6,201.5c-1.7-1.7-2.1-4.1-0.5-5.7c1.6-1.6,3.9-1.2,5.6,0.5l0,0c1.7,1.7,2,4.1,0.5,5.7
		C147.6,203.5,145.3,203.2,143.6,201.5z M147.7,197.4L147.7,197.4c-1.2-1.2-2.7-1.5-3.7-0.6s-0.6,2.4,0.6,3.6l0,0
		c1.2,1.2,2.7,1.5,3.6,0.6C149.2,200.1,148.8,198.6,147.7,197.4z"/>
	<path class="st3" d="M149.7,195.4L149.7,195.4c-1.7-1.7-2.1-4.1-0.5-5.7c1.6-1.6,3.9-1.2,5.6,0.5l0,0c1.7,1.7,2,4.1,0.5,5.7
		S151.4,197,149.7,195.4z M153.8,191.3L153.8,191.3c-1.2-1.2-2.7-1.5-3.7-0.6c-0.9,0.9-0.6,2.4,0.6,3.6l0,0c1.2,1.2,2.7,1.5,3.6,0.6
		C155.3,193.9,155,192.4,153.8,191.3z"/>
	<path class="st3" d="M157.1,190.6L157.1,190.6c-0.7-0.7-0.8-1.6-0.4-2.5c-0.8,0.2-1.5,0.2-2.2-0.5l0,0c-0.9-0.9-0.7-2.5,0.5-3.7
		c1.2-1.2,2.7-1.4,3.7-0.5l0,0c0.7,0.7,0.7,1.4,0.5,2.2c0.9-0.3,1.8-0.3,2.5,0.4l0,0c1.1,1.1,0.8,2.7-0.5,4
		C159.8,191.4,158.1,191.6,157.1,190.6z M157.7,184.6L157.7,184.6c-0.5-0.5-1.3-0.4-1.9,0.2s-0.7,1.4-0.2,1.9l0,0
		c0.5,0.5,1.3,0.4,1.9-0.2C158.2,185.9,158.3,185.1,157.7,184.6z M160.6,187L160.6,187c-0.6-0.6-1.5-0.4-2.2,0.3
		c-0.7,0.7-0.9,1.6-0.3,2.1l0,0c0.5,0.5,1.4,0.4,2.1-0.4S161,187.5,160.6,187z"/>
</g>
<g>
	<path class="st3" d="M164.1,206.9l0.3-3.8c0.1-1.5,0-2.2-0.5-2.7c-0.6-0.6-1.3-0.5-1.9,0s-0.6,1.2-0.5,2.3l-1.3,0.2
		c-0.2-1.4-0.1-2.4,0.9-3.4c1.2-1.2,2.7-1.2,3.7-0.2l0,0c0.9,0.9,0.9,1.9,0.8,3.8l-0.2,2.2l2.8-2.8l0.9,0.9l-4.3,4.3L164.1,206.9z"
		/>
	<path class="st3" d="M167.3,199.5L167.3,199.5c-1.7-1.7-2.1-4.1-0.5-5.7c1.6-1.6,3.9-1.2,5.6,0.5l0,0c1.7,1.7,2,4.1,0.5,5.7
		C171.4,201.5,169,201.2,167.3,199.5z M171.4,195.4L171.4,195.4c-1.2-1.2-2.7-1.5-3.7-0.6s-0.6,2.4,0.6,3.6l0,0
		c1.2,1.2,2.7,1.5,3.6,0.6C172.9,198.1,172.5,196.6,171.4,195.4z"/>
	<path class="st3" d="M172.4,190.4l-0.8,1.4l-1.1-0.6l1.1-2.1l0.7-0.7l6,6l-1,1L172.4,190.4z"/>
	<path class="st3" d="M176.7,190L176.7,190c-1.7-1.7-2.1-4.1-0.5-5.7c1.6-1.6,3.9-1.2,5.6,0.5l0,0c1.7,1.7,2,4.1,0.5,5.7
		C180.8,192.1,178.4,191.7,176.7,190z M180.8,185.9L180.8,185.9c-1.2-1.2-2.7-1.5-3.7-0.6c-0.9,0.9-0.6,2.4,0.6,3.6l0,0
		c1.2,1.2,2.7,1.5,3.6,0.6C182.4,188.6,182,187.1,180.8,185.9z"/>
</g>
<g>
	<path class="st3" d="M185.9,206.4l0.3-3.8c0.1-1.5,0-2.2-0.5-2.7c-0.6-0.6-1.3-0.5-1.9,0c-0.5,0.5-0.6,1.2-0.5,2.3l-1.3,0.2
		c-0.2-1.4-0.1-2.4,0.9-3.4c1.2-1.2,2.7-1.2,3.7-0.2l0,0c0.9,0.9,1,1.9,0.8,3.8l-0.2,2.2l2.8-2.8l0.9,0.9l-4.3,4.3L185.9,206.4z"/>
	<path class="st3" d="M189.1,199L189.1,199c-1.7-1.7-2.1-4.1-0.5-5.7c1.6-1.6,3.9-1.2,5.6,0.5l0,0c1.7,1.7,2,4.1,0.5,5.7
		C193.2,201,190.8,200.7,189.1,199z M193.2,194.9L193.2,194.9c-1.2-1.2-2.7-1.5-3.7-0.6c-0.9,0.9-0.6,2.4,0.6,3.6l0,0
		c1.2,1.2,2.7,1.5,3.6,0.6C194.7,197.6,194.4,196.1,193.2,194.9z"/>
	<path class="st3" d="M194.2,189.9l-0.8,1.4l-1.1-0.6l1.1-2.1l0.7-0.7l6,6l-1,1L194.2,189.9z"/>
	<path class="st3" d="M200.6,191.7l0.3-3.8c0.1-1.5,0-2.2-0.5-2.7c-0.6-0.6-1.3-0.5-1.9,0c-0.5,0.5-0.6,1.2-0.5,2.3l-1.3,0.2
		c-0.2-1.4-0.1-2.4,0.9-3.4c1.2-1.2,2.7-1.2,3.7-0.2l0,0c0.9,0.9,0.9,1.9,0.8,3.8l-0.2,2.2l2.8-2.8l0.9,0.9l-4.3,4.3L200.6,191.7z"
		/>
</g>
<g>
	<path class="st4" d="M112,84.8h1.5v3.5h4v-3.5h1.5v8.4h-1.5v-3.5h-4v3.5H112V84.8z"/>
	<path class="st4" d="M121.2,84.8h1.5v8.4h-1.5V84.8z"/>
</g>
<g>
	<path class="st4" d="M111.9,133.9V129h1.5v4.8c0,1.6,0.8,2.4,2.1,2.4c1.3,0,2.1-0.8,2.1-2.3V129h1.5v4.8c0,2.5-1.4,3.8-3.6,3.8
		C113.3,137.5,111.9,136.3,111.9,133.9z"/>
	<path class="st4" d="M120.6,136.2l0.9-1.1c0.8,0.7,1.6,1.1,2.7,1.1c0.9,0,1.5-0.4,1.5-1.1v0c0-0.6-0.3-0.9-1.9-1.3
		c-1.8-0.4-2.8-1-2.8-2.5v0c0-1.4,1.2-2.4,2.9-2.4c1.2,0,2.2,0.4,3,1.1l-0.8,1.1c-0.8-0.6-1.5-0.9-2.3-0.9c-0.9,0-1.4,0.4-1.4,1v0
		c0,0.6,0.4,0.9,2,1.3c1.8,0.4,2.7,1.1,2.7,2.5v0c0,1.6-1.2,2.5-3,2.5C122.8,137.5,121.6,137.1,120.6,136.2z"/>
</g>
</svg>
