<?xml version="1.0" encoding="utf-8"?>
<!-- Generator: Adobe Illustrator 19.2.0, SVG Export Plug-In . SVG Version: 6.00 Build 0)  -->
<svg version="1.1" id="Layer_1" xmlns="http://www.w3.org/2000/svg" xmlns:xlink="http://www.w3.org/1999/xlink" x="0px" y="0px"
	 viewBox="0 0 217 217" style="enable-background:new 0 0 217 217;" xml:space="preserve">
<style type="text/css">
	.st0{clip-path:url(#SVGID_2_);fill:#73B0B1;stroke:#73B0B1;stroke-width:1.5;stroke-miterlimit:10;}
	.st1{fill:#505050;}
</style>
<g id="Layer_1_1_">
	<g>
		<g>
			<g>
				<g>
					<g>
						<g>
							<defs>
								<rect id="SVGID_1_" x="43" y="29.3" width="171.9" height="118.6"/>
							</defs>
							<clipPath id="SVGID_2_">
								<use xlink:href="#SVGID_1_"  style="overflow:visible;"/>
							</clipPath>
							<path class="st0" d="M202.1,62.7l12.8-29.2 M188.6,82.6l13.5-19.9 M175.1,54.8l13.5,27.7 M162.3,122.3l12.8-67.5 M148.8,96.8
								l13.5,25.6 M136,116l12.8-19.2 M122.5,100.3L136,116 M109,143.6l13.5-43.3 M96.2,114.5l12.8,29.1 M82.7,108.2l13.5,6.4
								 M70,94.6l12.8,13.5 M56.5,66.9L70,94.6 M43,104.6l13.5-37.7"/>
						</g>
					</g>
				</g>
			</g>
		</g>
	</g>
</g>
<g>
	<path class="st1" d="M22,31.2l0.8-1.1c0.6,0.5,1.2,0.8,1.9,0.8c1.2,0,2-1.1,2-2.6c-0.4,0.5-1.1,0.9-2,0.9c-1.8,0-3-1-3-2.7v0
		c0-1.6,1.3-2.9,3.1-2.9c1.1,0,1.7,0.3,2.3,0.9c0.6,0.6,1,1.5,1,3.2v0c0,2.7-1.3,4.6-3.6,4.6C23.5,32.2,22.7,31.8,22,31.2z
		 M26.7,26.3L26.7,26.3c0-0.9-0.7-1.6-1.8-1.6c-1,0-1.7,0.7-1.7,1.6v0c0,0.9,0.7,1.5,1.7,1.5C26,27.9,26.7,27.2,26.7,26.3z"/>
	<path class="st1" d="M29.6,27.9L29.6,27.9c0-2.4,1.5-4.4,3.7-4.4c2.2,0,3.6,1.9,3.6,4.3v0c0,2.4-1.5,4.3-3.7,4.3
		C31.1,32.2,29.6,30.3,29.6,27.9z M35.4,27.9L35.4,27.9c0-1.7-0.9-3-2.1-3s-2.1,1.3-2.1,3v0c0,1.7,0.8,3,2.1,3
		C34.6,30.9,35.4,29.5,35.4,27.9z"/>
</g>
<g>
	<path class="st1" d="M21.8,48.2L21.8,48.2c0-1,0.6-1.7,1.5-2.1c-0.7-0.4-1.2-0.9-1.2-1.9v0c0-1.3,1.2-2.3,2.9-2.3s2.9,1,2.9,2.3v0
		c0,0.9-0.5,1.5-1.2,1.9c0.9,0.4,1.5,1,1.5,2v0c0,1.5-1.4,2.4-3.2,2.4S21.8,49.6,21.8,48.2z M26.8,48.1L26.8,48.1
		c0-0.8-0.8-1.3-1.8-1.3s-1.8,0.5-1.8,1.3v0c0,0.7,0.7,1.3,1.8,1.3S26.8,48.8,26.8,48.1z M26.5,44.4L26.5,44.4
		c0-0.7-0.6-1.2-1.5-1.2s-1.5,0.5-1.5,1.2v0c0,0.7,0.6,1.2,1.5,1.2C25.9,45.6,26.5,45.1,26.5,44.4z"/>
	<path class="st1" d="M29.5,46.3L29.5,46.3c0-2.4,1.5-4.4,3.7-4.4c2.2,0,3.6,1.9,3.6,4.3v0c0,2.4-1.5,4.3-3.7,4.3
		C30.9,50.6,29.5,48.7,29.5,46.3z M35.3,46.3L35.3,46.3c0-1.7-0.9-3-2.1-3s-2.1,1.3-2.1,3v0c0,1.7,0.8,3,2.1,3S35.3,48,35.3,46.3z"
		/>
</g>
<g>
	<path class="st1" d="M26.5,62.9h-4.2v-1.3h5.9v1.1L24.4,70h-1.7L26.5,62.9z"/>
	<path class="st1" d="M29.2,65.9L29.2,65.9c0-2.4,1.5-4.4,3.7-4.4c2.2,0,3.6,1.9,3.6,4.3v0c0,2.4-1.5,4.3-3.7,4.3
		C30.7,70.2,29.2,68.3,29.2,65.9z M35,65.9L35,65.9c0-1.7-0.9-3-2.1-3s-2.1,1.3-2.1,3v0c0,1.7,0.8,3,2.1,3S35,67.5,35,65.9z"/>
</g>
<g>
	<path class="st1" d="M22.8,88.8c-0.6-0.6-1-1.5-1-3.2v0c0-2.6,1.2-4.6,3.6-4.6c1.1,0,1.8,0.3,2.6,0.9l-0.8,1.1
		c-0.6-0.5-1.1-0.7-1.8-0.7c-1.2,0-1.9,1.1-2,2.7c0.4-0.4,1-0.8,2-0.8c1.6,0,2.9,1,2.9,2.6v0c0,1.7-1.4,2.9-3.1,2.9
		C24.1,89.7,23.3,89.4,22.8,88.8z M26.7,86.9L26.7,86.9c0-0.9-0.7-1.5-1.7-1.5c-1,0-1.7,0.7-1.7,1.5v0c0,0.9,0.7,1.5,1.7,1.5
		C26.1,88.4,26.7,87.8,26.7,86.9z"/>
	<path class="st1" d="M29.6,85.4L29.6,85.4c0-2.4,1.5-4.4,3.7-4.4c2.2,0,3.6,1.9,3.6,4.3v0c0,2.4-1.5,4.3-3.7,4.3
		C31.1,89.7,29.6,87.8,29.6,85.4z M35.4,85.4L35.4,85.4c0-1.7-0.9-3-2.1-3c-1.3,0-2.1,1.3-2.1,3v0c0,1.7,0.8,3,2.1,3
		S35.4,87,35.4,85.4z"/>
</g>
<g>
	<path class="st1" d="M21.8,108.8l0.9-1.1c0.7,0.6,1.4,1,2.2,1c1,0,1.7-0.6,1.7-1.5v0c0-0.9-0.7-1.4-1.7-1.4c-0.6,0-1.1,0.2-1.5,0.4
		l-0.9-0.6l0.2-4.1h5v1.3h-3.7l-0.1,2c0.4-0.1,0.8-0.2,1.3-0.2c1.6,0,2.9,0.9,2.9,2.6v0c0,1.7-1.2,2.8-3.1,2.8
		C23.6,110.1,22.6,109.6,21.8,108.8z"/>
	<path class="st1" d="M29.4,105.8L29.4,105.8c0-2.4,1.5-4.4,3.7-4.4c2.2,0,3.6,1.9,3.6,4.3v0c0,2.4-1.5,4.3-3.7,4.3
		C30.8,110.1,29.4,108.2,29.4,105.8z M35.2,105.8L35.2,105.8c0-1.7-0.9-3-2.1-3c-1.3,0-2.1,1.3-2.1,3v0c0,1.7,0.8,3,2.1,3
		S35.2,107.4,35.2,105.8z"/>
</g>
<g>
	<path class="st1" d="M25.9,126.8h-4.2l-0.3-1.1l4.7-5.5h1.3v5.4h1.2v1.2h-1.2v1.9h-1.4V126.8z M25.9,125.6v-3.3l-2.8,3.3H25.9z"/>
	<path class="st1" d="M29.8,124.6L29.8,124.6c0-2.4,1.5-4.4,3.7-4.4c2.2,0,3.6,1.9,3.6,4.3v0c0,2.4-1.5,4.3-3.7,4.3
		C31.2,128.9,29.8,127,29.8,124.6z M35.6,124.6L35.6,124.6c0-1.7-0.9-3-2.1-3c-1.3,0-2.1,1.3-2.1,3v0c0,1.7,0.8,3,2.1,3
		S35.6,126.2,35.6,124.6z"/>
</g>
<g>
	<path class="st1" d="M21.8,146.6l1-1c0.6,0.7,1.3,1.1,2.2,1.1c0.8,0,1.5-0.5,1.5-1.3v0c0-0.8-0.8-1.3-1.9-1.3h-0.7l-0.2-0.9
		l2.3-2.4h-3.6v-1.3h5.6v1.1l-2.3,2.4c1.3,0.2,2.5,0.8,2.5,2.4c0,0,0,0,0,0c0,1.5-1.2,2.7-2.9,2.7C23.6,148.1,22.5,147.4,21.8,146.6
		z"/>
	<path class="st1" d="M29.4,143.7L29.4,143.7c0-2.4,1.5-4.4,3.7-4.4c2.2,0,3.6,1.9,3.6,4.3v0c0,2.4-1.5,4.3-3.7,4.3
		C30.8,148.1,29.4,146.1,29.4,143.7z M35.2,143.7L35.2,143.7c0-1.7-0.9-3-2.1-3c-1.3,0-2.1,1.3-2.1,3v0c0,1.7,0.8,3,2.1,3
		S35.2,145.4,35.2,143.7z"/>
</g>
<g>
	<path class="st1" d="M4.7,143.1v-1.4l5.8-4.5H4.7v-1.5h8.4v1.2l-6,4.6h6v1.5H4.7z"/>
	<path class="st1" d="M10.8,133.9h-4v-1.5h3.6c1,0,1.5-0.5,1.5-1.4c0-0.8-0.6-1.4-1.6-1.4H6.7v-1.5h6.3v1.5h-1c0.6,0.4,1.1,1,1.1,2
		C13.2,133.1,12.2,133.9,10.8,133.9z"/>
	<path class="st1" d="M6.7,126.4v-1.5h1c-0.6-0.4-1.1-1-1.1-1.9c0-0.9,0.4-1.5,1.1-1.9c-0.7-0.5-1.1-1.2-1.1-2.1
		c0-1.4,0.9-2.2,2.4-2.2h4v1.5H9.5c-1,0-1.5,0.5-1.5,1.3c0,0.8,0.6,1.4,1.6,1.4h3.6v1.5H9.4c-1,0-1.5,0.5-1.5,1.3
		c0,0.8,0.6,1.4,1.6,1.4h3.6v1.5H6.7z"/>
	<path class="st1" d="M12.1,113.5h1v1.5H4.3v-1.5h3.5c-0.7-0.5-1.2-1.1-1.2-2.1c0-1.5,1.2-3,3.3-3h0c2.1,0,3.3,1.4,3.3,3
		C13.2,112.4,12.7,113.1,12.1,113.5z M9.9,109.9L9.9,109.9c-1.2,0-2.1,0.8-2.1,1.8c0,1,0.8,1.8,2,1.8h0c1.2,0,2-0.9,2-1.8
		C11.9,110.7,11.1,109.9,9.9,109.9z"/>
	<path class="st1" d="M9.9,107.3L9.9,107.3c-1.8,0-3.3-1.3-3.3-3.1c0-2,1.6-3,3.4-3c0.1,0,0.3,0,0.4,0v4.7c1-0.2,1.6-0.9,1.6-1.8
		c0-0.7-0.3-1.2-0.8-1.7l0.8-0.9c0.7,0.6,1.2,1.4,1.2,2.6C13.2,105.9,11.9,107.3,9.9,107.3z M9.4,102.6c-0.9,0.1-1.7,0.6-1.7,1.6
		c0,0.9,0.7,1.5,1.7,1.6V102.6z"/>
	<path class="st1" d="M6.7,99.7v-1.5h1.4c-0.9-0.4-1.6-1.1-1.5-2.2h1.5v0.1c0,1.3,0.8,2.2,2.5,2.2h2.4v1.5H6.7z"/>
	<path class="st1" d="M9.9,91.5L9.9,91.5c-1.8,0-3.3-1.4-3.3-3.4s1.5-3.4,3.3-3.4h0c1.8,0,3.3,1.4,3.3,3.4
		C13.2,90.1,11.7,91.5,9.9,91.5z M9.9,86.2L9.9,86.2c-1.1,0-2.1,0.8-2.1,1.9c0,1.2,0.9,1.9,2,1.9h0c1.1,0,2-0.8,2-1.9
		C11.9,86.9,11,86.2,9.9,86.2z"/>
	<path class="st1" d="M8,82.9v0.8H6.8v-0.8H6.3c-0.7,0-1.2-0.2-1.6-0.5S4.2,81.6,4.2,81c0-0.5,0.1-0.9,0.2-1.2h1.2
		c-0.1,0.3-0.2,0.5-0.2,0.9c0,0.6,0.3,0.8,1,0.8h0.3v-1.7H8v1.7h5.1v1.5H8z"/>
	<path class="st1" d="M4.7,75v-3.3c0-2,1.1-3.2,2.8-3.2h0c1.9,0,2.9,1.5,2.9,3.4v1.7h2.7V75H4.7z M9,71.8C9,70.7,8.4,70,7.5,70h0
		c-1,0-1.5,0.7-1.5,1.8v1.7h3V71.8z"/>
	<path class="st1" d="M13.1,63.4h-0.8c0.5,0.4,0.9,1.1,0.9,2.1c0,1.2-0.7,2.3-2,2.3h0c-1.4,0-2.1-1.1-2.1-2.6c0-0.8,0.1-1.3,0.3-1.8
		H9.3c-0.9,0-1.4,0.6-1.4,1.6c0,0.7,0.2,1.2,0.4,1.8l-1.2,0.4c-0.3-0.7-0.5-1.4-0.5-2.4c0-1.9,1-2.8,2.7-2.8h3.8V63.4z M10.4,63.3
		c-0.1,0.4-0.3,0.9-0.3,1.5c0,0.9,0.4,1.5,1,1.5h0c0.6,0,0.9-0.5,0.9-1.2c0-1-0.5-1.7-1.3-1.7H10.4z"/>
	<path class="st1" d="M11.3,60H8v0.8H6.7V60H5v-1.5h1.7v-1.7H8v1.7h3.1c0.6,0,0.8-0.3,0.8-0.8c0-0.3-0.1-0.6-0.2-0.9h1.2
		c0.2,0.4,0.3,0.8,0.3,1.3C13.2,59.2,12.7,60,11.3,60z"/>
	<path class="st1" d="M9.9,55.9L9.9,55.9c-1.8,0-3.3-1.3-3.3-3.1c0-2,1.6-3,3.4-3c0.1,0,0.3,0,0.4,0v4.7c1-0.2,1.6-0.9,1.6-1.8
		c0-0.7-0.3-1.2-0.8-1.7L12,50c0.7,0.6,1.2,1.4,1.2,2.6C13.2,54.5,11.9,55.9,9.9,55.9z M9.4,51.2c-0.9,0.1-1.7,0.6-1.7,1.6
		c0,0.9,0.7,1.5,1.7,1.6V51.2z"/>
	<path class="st1" d="M6.7,48.3v-1.5h1c-0.6-0.4-1.1-1-1.1-2c0-1.4,1-2.3,2.4-2.3h4V44H9.5c-1,0-1.5,0.5-1.5,1.4
		c0,0.8,0.6,1.4,1.6,1.4h3.6v1.5H6.7z"/>
	<path class="st1" d="M11.3,40.5H8v0.8H6.7v-0.8H5v-1.5h1.7v-1.7H8v1.7h3.1c0.6,0,0.8-0.3,0.8-0.8c0-0.3-0.1-0.6-0.2-0.9h1.2
		c0.2,0.4,0.3,0.8,0.3,1.3C13.2,39.8,12.7,40.5,11.3,40.5z"/>
	<path class="st1" d="M12.2,36.4l-1-0.6c0.5-0.7,0.8-1.4,0.8-2.1c0-0.6-0.3-1-0.7-1h0c-0.5,0-0.7,0.7-0.9,1.4c-0.3,0.9-0.6,2-1.9,2
		h0c-1.2,0-1.9-1-1.9-2.3c0-0.8,0.3-1.7,0.7-2.3l1,0.6c-0.4,0.6-0.6,1.3-0.6,1.8c0,0.6,0.3,0.9,0.6,0.9h0c0.5,0,0.6-0.7,0.9-1.4
		c0.3-0.9,0.7-2,1.8-2h0c1.3,0,2,1,2,2.4C13.2,34.6,12.9,35.6,12.2,36.4z"/>
</g>
<g>
	<path class="st1" d="M25,182.1l0.3-3.8c0.1-1.5,0-2.2-0.5-2.7c-0.6-0.6-1.3-0.5-1.9,0c-0.5,0.5-0.6,1.2-0.5,2.3l-1.3,0.2
		c-0.2-1.4-0.1-2.4,0.9-3.4c1.2-1.2,2.7-1.2,3.7-0.2l0,0c0.9,0.9,0.9,1.9,0.8,3.8l-0.2,2.2l2.8-2.8l0.9,0.9l-4.3,4.3L25,182.1z"/>
	<path class="st1" d="M28.1,174.7L28.1,174.7c-1.7-1.7-2.1-4.1-0.5-5.7c1.6-1.6,3.9-1.2,5.6,0.5l0,0c1.7,1.7,2,4.1,0.5,5.7
		C32.2,176.8,29.8,176.4,28.1,174.7z M32.2,170.6L32.2,170.6c-1.2-1.2-2.7-1.5-3.7-0.6s-0.6,2.4,0.6,3.6l0,0
		c1.2,1.2,2.7,1.5,3.6,0.6C33.8,173.3,33.4,171.8,32.2,170.6z"/>
	<path class="st1" d="M34.3,168.6L34.3,168.6c-1.7-1.7-2.1-4.1-0.5-5.7c1.6-1.6,3.9-1.2,5.6,0.5l0,0c1.7,1.7,2,4.1,0.5,5.7
		S36,170.3,34.3,168.6z M38.4,164.5L38.4,164.5c-1.2-1.2-2.7-1.5-3.7-0.6s-0.6,2.4,0.6,3.6l0,0c1.2,1.2,2.7,1.5,3.6,0.6
		C39.9,167.2,39.5,165.7,38.4,164.5z"/>
	<path class="st1" d="M40.4,162.4L40.4,162.4c-1.7-1.7-2.1-4.1-0.5-5.7c1.6-1.6,3.9-1.2,5.6,0.5l0,0c1.7,1.7,2,4.1,0.5,5.7
		S42.1,164.1,40.4,162.4z M44.5,158.3L44.5,158.3c-1.2-1.2-2.7-1.5-3.7-0.6s-0.6,2.4,0.6,3.6l0,0c1.2,1.2,2.7,1.5,3.6,0.6
		C46,161,45.7,159.5,44.5,158.3z"/>
</g>
<g>
	<path class="st1" d="M49.9,181.6l0.3-3.8c0.1-1.5,0-2.2-0.5-2.7c-0.6-0.6-1.3-0.5-1.9,0c-0.5,0.5-0.6,1.2-0.5,2.3l-1.3,0.2
		c-0.2-1.4-0.1-2.4,0.9-3.4c1.2-1.2,2.7-1.2,3.7-0.2l0,0c0.9,0.9,1,1.9,0.8,3.8l-0.2,2.2l2.8-2.8l0.9,0.9l-4.3,4.3L49.9,181.6z"/>
	<path class="st1" d="M53.1,174.2L53.1,174.2c-1.7-1.7-2.1-4.1-0.5-5.7c1.6-1.6,3.9-1.2,5.6,0.5l0,0c1.7,1.7,2,4.1,0.5,5.7
		S54.8,175.9,53.1,174.2z M57.2,170.1L57.2,170.1c-1.2-1.2-2.7-1.5-3.7-0.6s-0.6,2.4,0.6,3.6l0,0c1.2,1.2,2.7,1.5,3.6,0.6
		C58.7,172.8,58.3,171.3,57.2,170.1z"/>
	<path class="st1" d="M59.2,168.1L59.2,168.1c-1.7-1.7-2.1-4.1-0.5-5.7c1.6-1.6,3.9-1.2,5.6,0.5l0,0c1.7,1.7,2,4.1,0.5,5.7
		C63.3,170.1,60.9,169.8,59.2,168.1z M63.3,164L63.3,164c-1.2-1.2-2.7-1.5-3.7-0.6s-0.6,2.4,0.6,3.6l0,0c1.2,1.2,2.7,1.5,3.6,0.6
		C64.8,166.7,64.5,165.1,63.3,164z"/>
	<path class="st1" d="M67.3,164.2l0.3-3.8c0.1-1.5,0-2.2-0.5-2.7c-0.6-0.6-1.3-0.5-1.9,0c-0.5,0.5-0.6,1.2-0.5,2.3l-1.3,0.2
		c-0.2-1.4-0.1-2.4,0.9-3.4c1.2-1.2,2.7-1.2,3.7-0.2l0,0c0.9,0.9,0.9,1.9,0.8,3.8l-0.2,2.2l2.8-2.8l0.9,0.9l-4.3,4.3L67.3,164.2z"/>
</g>
<g>
	<path class="st1" d="M75.1,181.9l0.3-3.8c0.1-1.5,0-2.2-0.5-2.7c-0.6-0.6-1.3-0.5-1.9,0c-0.5,0.5-0.6,1.2-0.5,2.3l-1.3,0.2
		c-0.2-1.4-0.1-2.4,0.9-3.4c1.2-1.2,2.7-1.2,3.7-0.2l0,0c0.9,0.9,0.9,1.9,0.8,3.8l-0.2,2.2l2.8-2.8l0.9,0.9l-4.3,4.3L75.1,181.9z"/>
	<path class="st1" d="M78.2,174.5L78.2,174.5c-1.7-1.7-2.1-4.1-0.5-5.7c1.6-1.6,3.9-1.2,5.6,0.5l0,0c1.7,1.7,2,4.1,0.5,5.7
		C82.3,176.6,79.9,176.2,78.2,174.5z M82.3,170.4L82.3,170.4c-1.2-1.2-2.7-1.5-3.7-0.6s-0.6,2.4,0.6,3.6l0,0
		c1.2,1.2,2.7,1.5,3.6,0.6C83.8,173.1,83.5,171.6,82.3,170.4z"/>
	<path class="st1" d="M84.4,168.4L84.4,168.4c-1.7-1.7-2.1-4.1-0.5-5.7c1.6-1.6,3.9-1.2,5.6,0.5l0,0c1.7,1.7,2,4.1,0.5,5.7
		S86,170.1,84.4,168.4z M88.4,164.3L88.4,164.3c-1.2-1.2-2.7-1.5-3.7-0.6s-0.6,2.4,0.6,3.6l0,0c1.2,1.2,2.7,1.5,3.6,0.6
		C90,167,89.6,165.5,88.4,164.3z"/>
	<path class="st1" d="M95.1,160.9l-3,3l-0.9-0.6l-0.6-7.2l0.9-0.9l3.8,3.8l0.8-0.8L97,159l-0.8,0.8l1.3,1.3l-1,1L95.1,160.9z
		 M94.3,160l-2.3-2.3l0.4,4.3L94.3,160z"/>
</g>
<g>
	<path class="st1" d="M102.1,181.8l0.3-3.8c0.1-1.5,0-2.2-0.5-2.7c-0.6-0.6-1.3-0.5-1.9,0s-0.6,1.2-0.5,2.3l-1.3,0.2
		c-0.2-1.4-0.1-2.4,0.9-3.4c1.2-1.2,2.7-1.2,3.7-0.2l0,0c0.9,0.9,0.9,1.9,0.8,3.8l-0.2,2.2l2.8-2.8l0.9,0.9l-4.3,4.3L102.1,181.8z"
		/>
	<path class="st1" d="M105.2,174.4L105.2,174.4c-1.7-1.7-2.1-4.1-0.5-5.7c1.6-1.6,3.9-1.2,5.6,0.5l0,0c1.7,1.7,2,4.1,0.5,5.7
		S106.9,176.1,105.2,174.4z M109.3,170.3L109.3,170.3c-1.2-1.2-2.7-1.5-3.7-0.6s-0.6,2.4,0.6,3.6l0,0c1.2,1.2,2.7,1.5,3.6,0.6
		C110.8,173,110.5,171.5,109.3,170.3z"/>
	<path class="st1" d="M111.4,168.3L111.4,168.3c-1.7-1.7-2.1-4.1-0.5-5.7c1.6-1.6,3.9-1.2,5.6,0.5l0,0c1.7,1.7,2,4.1,0.5,5.7
		C115.4,170.3,113.1,170,111.4,168.3z M115.5,164.2L115.5,164.2c-1.2-1.2-2.7-1.5-3.7-0.6c-0.9,0.9-0.6,2.4,0.6,3.6l0,0
		c1.2,1.2,2.7,1.5,3.6,0.6C117,166.9,116.6,165.4,115.5,164.2z"/>
	<path class="st1" d="M120.7,163.9c-0.9,0-1.8-0.4-3-1.6l0,0c-1.8-1.8-2.4-4.1-0.7-5.8c0.8-0.8,1.5-1.1,2.5-1.2l0.2,1.4
		c-0.7,0.1-1.3,0.3-1.8,0.8c-0.9,0.9-0.6,2.2,0.5,3.3c0-0.6,0.1-1.3,0.8-2c1.2-1.2,2.8-1.4,3.9-0.2l0,0c1.2,1.2,1.1,3-0.2,4.2
		C122.2,163.6,121.4,163.9,120.7,163.9z M122.1,159.7L122.1,159.7c-0.6-0.6-1.5-0.6-2.3,0.2c-0.7,0.7-0.7,1.7-0.2,2.2l0,0
		c0.6,0.6,1.6,0.6,2.3-0.2C122.7,161.2,122.7,160.3,122.1,159.7z"/>
</g>
<g>
	<path class="st1" d="M128.5,181.7l0.3-3.8c0.1-1.5,0-2.2-0.5-2.7c-0.6-0.6-1.3-0.5-1.9,0s-0.6,1.2-0.5,2.3l-1.3,0.2
		c-0.2-1.4-0.1-2.4,0.9-3.4c1.2-1.2,2.7-1.2,3.7-0.2l0,0c0.9,0.9,1,1.9,0.8,3.8l-0.2,2.2l2.8-2.8l0.9,0.9l-4.3,4.3L128.5,181.7z"/>
	<path class="st1" d="M131.7,174.3L131.7,174.3c-1.7-1.7-2.1-4.1-0.5-5.7c1.6-1.6,3.9-1.2,5.6,0.5l0,0c1.7,1.7,2,4.1,0.5,5.7
		C135.7,176.4,133.4,176,131.7,174.3z M135.8,170.2L135.8,170.2c-1.2-1.2-2.7-1.5-3.7-0.6c-0.9,0.9-0.6,2.4,0.6,3.6l0,0
		c1.2,1.2,2.7,1.5,3.6,0.6C137.3,172.9,136.9,171.4,135.8,170.2z"/>
	<path class="st1" d="M137.8,168.2L137.8,168.2c-1.7-1.7-2.1-4.1-0.5-5.7c1.6-1.6,3.9-1.2,5.6,0.5l0,0c1.7,1.7,2,4.1,0.5,5.7
		S139.5,169.9,137.8,168.2z M141.9,164.1L141.9,164.1c-1.2-1.2-2.7-1.5-3.7-0.6c-0.9,0.9-0.6,2.4,0.6,3.6l0,0
		c1.2,1.2,2.7,1.5,3.6,0.6S143.1,165.3,141.9,164.1z"/>
	<path class="st1" d="M145.2,163.5L145.2,163.5c-0.7-0.7-0.8-1.6-0.4-2.5c-0.8,0.2-1.5,0.2-2.2-0.5l0,0c-0.9-0.9-0.7-2.5,0.5-3.7
		c1.2-1.2,2.7-1.4,3.7-0.5l0,0c0.7,0.7,0.7,1.4,0.5,2.2c0.9-0.3,1.8-0.3,2.5,0.4l0,0c1.1,1.1,0.8,2.7-0.5,4S146.2,164.5,145.2,163.5
		z M145.8,157.4L145.8,157.4c-0.5-0.5-1.3-0.4-1.9,0.2c-0.6,0.6-0.7,1.4-0.2,1.9l0,0c0.5,0.5,1.3,0.4,1.9-0.2
		C146.3,158.8,146.4,158,145.8,157.4z M148.7,159.9L148.7,159.9c-0.6-0.6-1.5-0.4-2.2,0.3c-0.7,0.7-0.9,1.6-0.3,2.1l0,0
		c0.5,0.5,1.4,0.4,2.1-0.4C149.1,161.2,149.1,160.4,148.7,159.9z"/>
</g>
<g>
	<path class="st1" d="M157,179.7l0.3-3.8c0.1-1.5,0-2.2-0.5-2.7c-0.6-0.6-1.3-0.5-1.9,0c-0.5,0.5-0.6,1.2-0.5,2.3l-1.3,0.2
		c-0.2-1.4-0.1-2.4,0.9-3.4c1.2-1.2,2.7-1.2,3.7-0.2l0,0c0.9,0.9,0.9,1.9,0.8,3.8l-0.2,2.2l2.8-2.8l0.9,0.9l-4.3,4.3L157,179.7z"/>
	<path class="st1" d="M160.1,172.3L160.1,172.3c-1.7-1.7-2.1-4.1-0.5-5.7c1.6-1.6,3.9-1.2,5.6,0.5l0,0c1.7,1.7,2,4.1,0.5,5.7
		C164.2,174.3,161.8,174,160.1,172.3z M164.2,168.2L164.2,168.2c-1.2-1.2-2.7-1.5-3.7-0.6s-0.6,2.4,0.6,3.6l0,0
		c1.2,1.2,2.7,1.5,3.6,0.6C165.8,170.9,165.4,169.4,164.2,168.2z"/>
	<path class="st1" d="M165.3,163.2l-0.8,1.4l-1.1-0.6l1.1-2.1l0.7-0.7l6,6l-1,1L165.3,163.2z"/>
	<path class="st1" d="M169.6,162.9L169.6,162.9c-1.7-1.7-2.1-4.1-0.5-5.7c1.6-1.6,3.9-1.2,5.6,0.5l0,0c1.7,1.7,2,4.1,0.5,5.7
		C173.7,164.9,171.3,164.5,169.6,162.9z M173.7,158.8L173.7,158.8c-1.2-1.2-2.7-1.5-3.7-0.6c-0.9,0.9-0.6,2.4,0.6,3.6l0,0
		c1.2,1.2,2.7,1.5,3.6,0.6S174.9,159.9,173.7,158.8z"/>
</g>
<g>
	<path class="st1" d="M183.5,179.2l0.3-3.8c0.1-1.5,0-2.2-0.5-2.7c-0.6-0.6-1.3-0.5-1.9,0c-0.5,0.5-0.6,1.2-0.5,2.3l-1.3,0.2
		c-0.2-1.4-0.1-2.4,0.9-3.4c1.2-1.2,2.7-1.2,3.7-0.2l0,0c0.9,0.9,0.9,1.9,0.8,3.8l-0.2,2.2l2.8-2.8l0.9,0.9l-4.3,4.3L183.5,179.2z"
		/>
	<path class="st1" d="M186.6,171.8L186.6,171.8c-1.7-1.7-2.1-4.1-0.5-5.7c1.6-1.6,3.9-1.2,5.6,0.5l0,0c1.7,1.7,2,4.1,0.5,5.7
		S188.3,173.5,186.6,171.8z M190.7,167.7L190.7,167.7c-1.2-1.2-2.7-1.5-3.7-0.6c-0.9,0.9-0.6,2.4,0.6,3.6l0,0
		c1.2,1.2,2.7,1.5,3.6,0.6S191.9,168.9,190.7,167.7z"/>
	<path class="st1" d="M191.8,162.7l-0.8,1.4l-1.1-0.6l1.1-2.1l0.7-0.7l6,6l-1,1L191.8,162.7z"/>
	<path class="st1" d="M198.1,164.6l0.3-3.8c0.1-1.5,0-2.2-0.5-2.7c-0.6-0.6-1.3-0.5-1.9,0c-0.5,0.5-0.6,1.2-0.5,2.3l-1.3,0.2
		c-0.2-1.4-0.1-2.4,0.9-3.4c1.2-1.2,2.7-1.2,3.7-0.2l0,0c0.9,0.9,0.9,1.9,0.8,3.8l-0.2,2.2l2.8-2.8l0.9,0.9l-4.3,4.3L198.1,164.6z"
		/>
</g>
</svg>
