<?xml version="1.0" encoding="utf-8"?>
<!-- Generator: Adobe Illustrator 16.0.0, SVG Export Plug-In . SVG Version: 6.00 Build 0)  -->
<!DOCTYPE svg PUBLIC "-//W3C//DTD SVG 1.1//EN" "http://www.w3.org/Graphics/SVG/1.1/DTD/svg11.dtd">
<svg version="1.1" id="Layer_1" xmlns="http://www.w3.org/2000/svg" xmlns:xlink="http://www.w3.org/1999/xlink" x="0px" y="0px"
	 width="217px" height="217px" viewBox="0 0 217 217" enable-background="new 0 0 217 217" xml:space="preserve">
<g id="Layer_1_1_">
	<g>
		<g>
			<g>
				<g>
					<g>
						<defs>
							<rect id="SVGID_1_" x="42.958" y="29.305" width="171.937" height="118.603"/>
						</defs>
						<clipPath id="SVGID_2_">
							<use xlink:href="#SVGID_1_"  overflow="visible"/>
						</clipPath>
						<path clip-path="url(#SVGID_2_)" fill="#73B0B1" stroke="#73B0B1" stroke-width="1.5" stroke-miterlimit="10" d="
							M202.1,62.691l12.797-29.174 M188.589,82.564L202.1,62.691 M175.07,54.823l13.517,27.742 M162.275,122.309l12.798-67.485
							 M148.762,96.793l13.514,25.598 M136.044,115.952l12.796-19.158 M122.527,100.292l13.515,15.661 M109.016,143.613
							l13.514-43.322 M96.218,114.52l12.796,29.095 M82.705,108.161l13.514,6.358 M69.985,94.647l12.798,13.514 M56.473,66.904
							l13.513,27.742 M42.958,104.583l13.514-37.678"/>
					</g>
				</g>
			</g>
		</g>
	</g>
</g>
<g id="Layer_2">
	<g enable-background="new    ">
		<path fill="#676868" d="M28.833,172.926c-0.061-0.338-0.194-0.604-0.398-0.797c-0.205-0.195-0.454-0.283-0.746-0.265
			c-0.293,0.02-0.553,0.149-0.779,0.388c-0.399,0.42-0.517,0.973-0.352,1.658l-1.063,0.313c-0.123-0.545-0.141-1.033-0.055-1.467
			c0.087-0.433,0.333-0.861,0.739-1.289c0.406-0.426,0.897-0.672,1.474-0.736c0.577-0.064,1.1,0.125,1.567,0.571
			c0.264,0.251,0.45,0.558,0.56,0.921c0.108,0.363,0.177,0.908,0.204,1.631l0.081,2.361l2.206-2.318l0.826,0.785l-3.326,3.498
			l-0.731-0.696l-0.083-3.033C28.935,173.771,28.894,173.262,28.833,172.926z"/>
		<path fill="#676868" d="M33.708,172.713c-0.809-0.109-1.617-0.549-2.422-1.313s-1.282-1.55-1.434-2.353
			c-0.15-0.804,0.105-1.553,0.77-2.251c0.663-0.697,1.399-0.991,2.209-0.88c0.81,0.11,1.617,0.549,2.422,1.313
			s1.283,1.55,1.434,2.353c0.15,0.804-0.105,1.555-0.768,2.252C35.255,172.531,34.519,172.824,33.708,172.713z M30.985,168.947
			c0.159,0.535,0.524,1.076,1.095,1.618c0.571,0.543,1.128,0.88,1.671,1.011c0.543,0.133,1.021-0.016,1.429-0.445
			s0.531-0.908,0.37-1.438c-0.16-0.529-0.527-1.067-1.104-1.615c-0.576-0.547-1.133-0.889-1.668-1.021
			c-0.537-0.135-1.01,0.013-1.418,0.441C30.952,167.928,30.827,168.41,30.985,168.947z"/>
		<path fill="#676868" d="M38.495,167.681c-0.809-0.11-1.617-0.549-2.422-1.313c-0.805-0.766-1.282-1.551-1.434-2.354
			c-0.15-0.804,0.105-1.553,0.77-2.251c0.663-0.697,1.398-0.991,2.209-0.88c0.81,0.11,1.617,0.549,2.422,1.313
			s1.283,1.55,1.434,2.353c0.15,0.805-0.105,1.555-0.769,2.252S39.305,167.791,38.495,167.681z M35.772,163.914
			c0.159,0.535,0.523,1.076,1.094,1.619c0.571,0.543,1.129,0.879,1.672,1.011s1.02-0.017,1.428-0.446
			c0.408-0.429,0.532-0.908,0.371-1.438c-0.16-0.529-0.528-1.066-1.104-1.615c-0.575-0.547-1.132-0.888-1.667-1.021
			c-0.537-0.135-1.01,0.014-1.418,0.441C35.739,162.895,35.614,163.377,35.772,163.914z"/>
		<path fill="#676868" d="M43.282,162.647c-0.809-0.11-1.616-0.55-2.421-1.314s-1.282-1.55-1.435-2.353
			c-0.15-0.804,0.105-1.553,0.77-2.251c0.663-0.697,1.399-0.991,2.209-0.88c0.811,0.11,1.617,0.549,2.422,1.313
			s1.283,1.55,1.434,2.353c0.15,0.804-0.105,1.555-0.768,2.252C44.829,162.465,44.093,162.758,43.282,162.647z M40.56,158.881
			c0.159,0.535,0.524,1.076,1.095,1.619c0.571,0.543,1.128,0.879,1.671,1.011c0.544,0.132,1.021-0.017,1.429-0.446
			s0.532-0.908,0.37-1.438c-0.16-0.529-0.527-1.066-1.104-1.615c-0.576-0.547-1.132-0.888-1.668-1.021
			c-0.537-0.135-1.01,0.013-1.418,0.441C40.526,157.861,40.401,158.344,40.56,158.881z"/>
	</g>
	
		<text transform="matrix(0.6717 -0.7408 0.7408 0.6717 41.2656 178.6035)" display="none" fill="#676868" enable-background="new    " font-family="'Montserrat-Regular'" font-size="11.3599">2001</text>
	<g enable-background="new    ">
		<path fill="#676868" d="M53.785,172.926c-0.061-0.338-0.193-0.604-0.396-0.799c-0.205-0.195-0.453-0.283-0.746-0.266
			c-0.293,0.02-0.552,0.148-0.779,0.387c-0.4,0.419-0.518,0.971-0.355,1.657l-1.063,0.312c-0.122-0.546-0.14-1.034-0.052-1.467
			c0.088-0.434,0.335-0.862,0.742-1.288c0.406-0.426,0.898-0.671,1.475-0.735c0.577-0.063,1.1,0.129,1.566,0.576
			c0.264,0.25,0.449,0.559,0.558,0.922c0.107,0.363,0.175,0.908,0.201,1.631l0.076,2.361l2.21-2.314l0.825,0.788l-3.333,3.49
			l-0.73-0.697l-0.076-3.033C53.885,173.77,53.845,173.261,53.785,172.926z"/>
		<path fill="#676868" d="M58.66,172.723c-0.809-0.111-1.615-0.552-2.418-1.318c-0.803-0.768-1.279-1.552-1.43-2.355
			c-0.148-0.804,0.109-1.553,0.773-2.25c0.665-0.695,1.402-0.988,2.211-0.875c0.811,0.112,1.617,0.552,2.42,1.318
			c0.803,0.768,1.279,1.553,1.428,2.355c0.15,0.804-0.107,1.554-0.771,2.25C60.207,172.544,59.471,172.836,58.66,172.723z
			 M55.946,168.951c0.157,0.537,0.521,1.077,1.091,1.621c0.57,0.544,1.126,0.882,1.67,1.014c0.543,0.133,1.02-0.014,1.428-0.443
			c0.41-0.428,0.534-0.907,0.374-1.437c-0.159-0.528-0.526-1.067-1.102-1.616c-0.573-0.549-1.13-0.891-1.665-1.025
			c-0.537-0.137-1.01,0.011-1.418,0.439C55.914,167.932,55.789,168.414,55.946,168.951z"/>
		<path fill="#676868" d="M63.457,167.699c-0.809-0.111-1.615-0.551-2.418-1.318c-0.803-0.767-1.279-1.552-1.43-2.355
			c-0.148-0.804,0.109-1.553,0.773-2.249c0.665-0.696,1.402-0.988,2.211-0.876c0.811,0.112,1.617,0.552,2.42,1.318
			c0.803,0.768,1.279,1.553,1.428,2.355c0.15,0.805-0.107,1.554-0.771,2.25C65.004,167.521,64.268,167.813,63.457,167.699z
			 M60.742,163.928c0.158,0.537,0.522,1.077,1.092,1.621c0.57,0.544,1.125,0.882,1.669,1.015c0.543,0.132,1.021-0.015,1.429-0.443
			c0.41-0.429,0.533-0.907,0.374-1.438c-0.159-0.528-0.526-1.067-1.102-1.616c-0.573-0.549-1.13-0.891-1.665-1.025
			c-0.537-0.136-1.01,0.012-1.418,0.439C60.711,162.908,60.586,163.392,60.742,163.928z"/>
		<path fill="#676868" d="M67.486,158.578c-0.061-0.338-0.193-0.604-0.397-0.798c-0.204-0.196-0.452-0.284-0.745-0.266
			s-0.553,0.147-0.779,0.386c-0.4,0.42-0.519,0.971-0.355,1.658l-1.064,0.311c-0.121-0.546-0.139-1.034-0.051-1.467
			c0.088-0.434,0.334-0.862,0.741-1.288s0.898-0.671,1.476-0.734s1.1,0.128,1.566,0.575c0.263,0.251,0.448,0.559,0.557,0.922
			c0.107,0.363,0.176,0.908,0.201,1.631l0.076,2.361l2.211-2.314l0.824,0.789l-3.332,3.49l-0.73-0.697l-0.076-3.034
			C67.586,159.423,67.545,158.914,67.486,158.578z"/>
	</g>
	
		<text transform="matrix(0.6906 -0.7232 0.7232 0.6906 67.4736 178.6016)" display="none" fill="#676868" enable-background="new    " font-family="'Montserrat-Regular'" font-size="11.3595">2003</text>
	<g enable-background="new    ">
		<path fill="#676868" d="M80.594,172.938c-0.068-0.335-0.207-0.598-0.416-0.787c-0.21-0.19-0.46-0.272-0.752-0.246
			c-0.292,0.025-0.549,0.161-0.77,0.404c-0.391,0.43-0.494,0.984-0.314,1.666l-1.055,0.337c-0.137-0.542-0.166-1.029-0.09-1.466
			c0.078-0.434,0.314-0.869,0.71-1.305s0.882-0.693,1.456-0.771c0.576-0.076,1.104,0.102,1.582,0.536
			c0.268,0.244,0.461,0.547,0.579,0.909c0.116,0.36,0.198,0.902,0.242,1.625l0.134,2.359l2.152-2.369l0.845,0.767l-3.245,3.572
			l-0.747-0.679l-0.152-3.031C80.715,173.78,80.662,173.272,80.594,172.938z"/>
		<path fill="#676868" d="M85.463,172.614c-0.811-0.091-1.629-0.512-2.451-1.259c-0.821-0.746-1.316-1.52-1.486-2.318
			c-0.17-0.8,0.069-1.555,0.717-2.268c0.646-0.713,1.377-1.023,2.189-0.932c0.812,0.093,1.629,0.512,2.45,1.258
			c0.821,0.747,1.318,1.521,1.487,2.32c0.17,0.8-0.069,1.556-0.717,2.268C87.006,172.396,86.275,172.707,85.463,172.614z
			 M82.655,168.911c0.171,0.532,0.548,1.063,1.131,1.593c0.583,0.53,1.147,0.854,1.694,0.974c0.547,0.118,1.02-0.04,1.418-0.479
			c0.398-0.438,0.51-0.92,0.337-1.445c-0.172-0.525-0.553-1.055-1.142-1.59c-0.587-0.533-1.15-0.861-1.69-0.982
			c-0.54-0.123-1.009,0.036-1.406,0.475C82.599,167.893,82.484,168.379,82.655,168.911z"/>
		<path fill="#676868" d="M90.134,167.473c-0.812-0.091-1.63-0.512-2.451-1.258s-1.317-1.52-1.487-2.319
			c-0.169-0.8,0.07-1.555,0.717-2.268c0.647-0.712,1.377-1.022,2.189-0.931s1.629,0.512,2.451,1.258
			c0.821,0.746,1.318,1.521,1.486,2.319c0.17,0.8-0.068,1.556-0.716,2.269S90.946,167.565,90.134,167.473z M87.326,163.77
			c0.17,0.533,0.548,1.064,1.131,1.594s1.147,0.854,1.693,0.973c0.547,0.119,1.02-0.04,1.418-0.479s0.511-0.921,0.338-1.446
			c-0.173-0.524-0.553-1.054-1.142-1.589c-0.587-0.533-1.151-0.861-1.69-0.984c-0.54-0.121-1.009,0.037-1.406,0.476
			C87.27,162.752,87.155,163.237,87.326,163.77z"/>
		<path fill="#676868" d="M94.771,159.478l-0.957-0.868l0.761-0.838l0.956,0.869l0.57-0.628l0.8,0.727l-0.57,0.628l1.315,1.195
			l-0.76,0.836l-1.316-1.194l-2.036,2.242l-0.776-0.706l-1.387-4.766l0.875-0.964l1.392,4.715L94.771,159.478z"/>
	</g>
	
		<text transform="matrix(0.6522 -0.758 0.758 0.6522 94.5771 178.6035)" display="none" fill="#676868" enable-background="new    " font-family="'Montserrat-Regular'" font-size="11.3588">2005</text>
	<g enable-background="new    ">
		<path fill="#676868" d="M105.919,172.949c-0.072-0.336-0.214-0.596-0.425-0.783c-0.212-0.189-0.463-0.268-0.755-0.24
			c-0.291,0.029-0.547,0.168-0.766,0.414c-0.385,0.433-0.483,0.988-0.297,1.668l-1.051,0.348c-0.143-0.54-0.176-1.027-0.104-1.464
			c0.073-0.435,0.306-0.872,0.696-1.313c0.392-0.44,0.875-0.702,1.449-0.786c0.574-0.082,1.104,0.091,1.586,0.521
			c0.271,0.241,0.467,0.542,0.589,0.902c0.12,0.36,0.207,0.901,0.258,1.622l0.159,2.358l2.128-2.391l0.852,0.759l-3.209,3.604
			l-0.754-0.671l-0.183-3.028C106.048,173.79,105.99,173.283,105.919,172.949z"/>
		<path fill="#676868" d="M110.784,172.576c-0.813-0.083-1.635-0.495-2.463-1.233c-0.83-0.738-1.334-1.506-1.511-2.304
			s0.054-1.556,0.694-2.275c0.64-0.719,1.366-1.036,2.179-0.952c0.813,0.084,1.635,0.495,2.464,1.233s1.333,1.507,1.51,2.305
			c0.178,0.797-0.053,1.557-0.693,2.275S111.597,172.66,110.784,172.576z M107.939,168.902c0.176,0.529,0.559,1.058,1.146,1.581
			c0.589,0.524,1.156,0.843,1.704,0.956c0.547,0.113,1.02-0.051,1.412-0.493c0.395-0.442,0.502-0.926,0.323-1.45
			c-0.178-0.521-0.563-1.048-1.157-1.576c-0.593-0.528-1.16-0.85-1.7-0.967c-0.541-0.117-1.008,0.047-1.401,0.488
			C107.872,167.885,107.763,168.371,107.939,168.902z"/>
		<path fill="#676868" d="M115.402,167.389c-0.813-0.084-1.634-0.495-2.464-1.233c-0.828-0.738-1.332-1.507-1.51-2.304
			c-0.178-0.799,0.054-1.557,0.693-2.275c0.641-0.719,1.367-1.037,2.18-0.953c0.813,0.085,1.635,0.496,2.464,1.234
			s1.333,1.507,1.511,2.304c0.177,0.798-0.055,1.557-0.694,2.275C116.942,167.156,116.216,167.473,115.402,167.389z
			 M112.558,163.714c0.176,0.53,0.559,1.058,1.146,1.581c0.589,0.524,1.156,0.844,1.704,0.957s1.019-0.051,1.413-0.494
			c0.394-0.441,0.501-0.926,0.322-1.449c-0.178-0.522-0.563-1.049-1.156-1.577s-1.16-0.85-1.701-0.966
			c-0.541-0.117-1.008,0.046-1.402,0.488C112.491,162.696,112.382,163.184,112.558,163.714z"/>
		<path fill="#676868" d="M117.638,157.051c-0.416,0.468-0.564,0.953-0.445,1.456c0.12,0.503,0.447,0.997,0.98,1.481
			c-0.028-0.252,0-0.551,0.088-0.896c0.087-0.346,0.258-0.662,0.514-0.948c0.42-0.472,0.93-0.729,1.527-0.769
			c0.6-0.039,1.158,0.173,1.679,0.636s0.786,1.008,0.796,1.634c0.01,0.627-0.217,1.201-0.684,1.725
			c-0.752,0.845-1.647,1.092-2.688,0.742c-0.594-0.204-1.162-0.547-1.705-1.031c-0.543-0.482-0.943-0.943-1.203-1.381
			c-0.259-0.438-0.404-0.852-0.437-1.24c-0.063-0.76,0.159-1.424,0.667-1.994c0.508-0.571,1.146-0.93,1.915-1.074l0.26,1.028
			c-0.203,0.027-0.431,0.101-0.685,0.223C117.966,156.764,117.772,156.9,117.638,157.051z M119.454,158.959
			c-0.271,0.304-0.412,0.632-0.426,0.986c-0.013,0.354,0.115,0.65,0.385,0.889c0.269,0.24,0.588,0.348,0.955,0.324
			c0.368-0.023,0.685-0.185,0.948-0.48c0.265-0.297,0.397-0.621,0.397-0.971c0.002-0.352-0.133-0.646-0.401-0.885
			c-0.269-0.24-0.578-0.354-0.927-0.34C120.035,158.496,119.726,158.654,119.454,158.959z"/>
	</g>
	
		<text transform="matrix(0.6546 -0.756 0.756 0.6546 121.5234 178.6055)" display="none" fill="#676868" enable-background="new    " font-family="'Montserrat-Regular'" font-size="11.3611">2007</text>
	<g enable-background="new    ">
		<path fill="#676868" d="M133.984,173.004c-0.094-0.329-0.252-0.58-0.475-0.754s-0.479-0.238-0.768-0.19s-0.535,0.202-0.737,0.462
			c-0.356,0.457-0.419,1.018-0.189,1.684l-1.027,0.415c-0.176-0.53-0.241-1.015-0.197-1.454s0.248-0.891,0.61-1.355
			c0.363-0.463,0.828-0.756,1.395-0.877c0.568-0.119,1.107,0.02,1.617,0.417c0.285,0.224,0.501,0.511,0.646,0.863
			c0.144,0.351,0.265,0.886,0.362,1.603l0.31,2.343l1.97-2.522l0.898,0.702l-2.97,3.804l-0.796-0.622l-0.377-3.011
			C134.168,173.836,134.077,173.333,133.984,173.004z"/>
		<path fill="#676868" d="M138.816,172.32c-0.816-0.031-1.663-0.39-2.538-1.073c-0.875-0.683-1.427-1.417-1.655-2.202
			s-0.047-1.556,0.547-2.314c0.592-0.758,1.296-1.123,2.113-1.091c0.816,0.032,1.662,0.39,2.537,1.072
			c0.875,0.684,1.428,1.419,1.656,2.202c0.228,0.785,0.046,1.557-0.547,2.315C140.338,171.988,139.633,172.352,138.816,172.32z
			 M135.74,168.836c0.211,0.518,0.627,1.02,1.246,1.504c0.621,0.486,1.209,0.767,1.762,0.846c0.555,0.077,1.014-0.117,1.379-0.584
			c0.364-0.467,0.44-0.955,0.229-1.467c-0.211-0.511-0.63-1.011-1.256-1.5c-0.626-0.488-1.212-0.773-1.76-0.855
			c-0.547-0.081-1.002,0.111-1.367,0.578C135.608,167.824,135.531,168.317,135.74,168.836z"/>
		<path fill="#676868" d="M143.092,166.846c-0.816-0.031-1.664-0.389-2.539-1.072s-1.426-1.418-1.654-2.202
			c-0.229-0.785-0.047-1.556,0.546-2.315c0.593-0.758,1.296-1.121,2.114-1.09c0.816,0.031,1.662,0.389,2.537,1.072
			s1.428,1.418,1.655,2.202s0.047,1.557-0.546,2.315C144.613,166.515,143.908,166.877,143.092,166.846z M140.016,163.361
			c0.21,0.519,0.626,1.021,1.246,1.505c0.621,0.485,1.208,0.767,1.762,0.845s1.014-0.116,1.378-0.583s0.44-0.956,0.229-1.468
			c-0.211-0.51-0.63-1.01-1.256-1.499s-1.213-0.773-1.76-0.855c-0.547-0.081-1.002,0.111-1.367,0.578
			C139.884,162.351,139.807,162.844,140.016,163.361z"/>
		<path fill="#676868" d="M142.961,157.674c-0.005-0.575,0.203-1.131,0.621-1.666s0.906-0.872,1.467-1.008
			c0.558-0.135,1.051-0.037,1.478,0.297s0.649,0.828,0.668,1.482c0.758-0.271,1.444-0.166,2.06,0.314
			c0.477,0.373,0.729,0.877,0.754,1.512s-0.204,1.262-0.689,1.883c-0.484,0.621-1.037,0.995-1.66,1.125
			c-0.621,0.129-1.171,0.006-1.648-0.366c-0.615-0.481-0.883-1.121-0.805-1.922c-0.639,0.142-1.172,0.045-1.6-0.289
			C143.179,158.703,142.963,158.248,142.961,157.674z M145.192,158.398c0.317-0.072,0.581-0.244,0.792-0.514
			c0.212-0.271,0.314-0.568,0.309-0.895c-0.008-0.325-0.129-0.58-0.365-0.765c-0.234-0.184-0.51-0.239-0.824-0.164
			c-0.315,0.075-0.578,0.247-0.789,0.519c-0.211,0.27-0.316,0.566-0.312,0.89c0.004,0.323,0.124,0.577,0.359,0.761
			C144.599,158.416,144.875,158.472,145.192,158.398z M147.663,160.451c0.349-0.122,0.628-0.321,0.844-0.598
			c0.216-0.275,0.341-0.596,0.374-0.963c0.035-0.365-0.094-0.662-0.386-0.891c-0.292-0.228-0.608-0.287-0.95-0.178
			c-0.341,0.108-0.627,0.312-0.859,0.609c-0.232,0.297-0.359,0.623-0.383,0.981s0.111,0.651,0.402,0.878
			C146.998,160.52,147.316,160.572,147.663,160.451z"/>
	</g>
	
		<text transform="matrix(0.6368 -0.7711 0.7711 0.6368 147.5215 178.6035)" display="none" fill="#676868" enable-background="new    " font-family="'Montserrat-Regular'" font-size="11.3629">2009</text>
	<g enable-background="new    ">
		<path fill="#676868" d="M160.846,170.864c-0.074-0.335-0.218-0.595-0.43-0.78c-0.213-0.188-0.464-0.266-0.756-0.234
			c-0.291,0.031-0.546,0.17-0.764,0.418c-0.382,0.435-0.477,0.99-0.285,1.67l-1.051,0.354c-0.145-0.539-0.182-1.026-0.112-1.463
			c0.069-0.436,0.3-0.875,0.688-1.316c0.389-0.443,0.87-0.708,1.443-0.795c0.574-0.087,1.104,0.083,1.59,0.51
			c0.272,0.24,0.471,0.539,0.594,0.898s0.213,0.9,0.268,1.621l0.175,2.357l2.112-2.404l0.857,0.753l-3.187,3.625l-0.759-0.667
			l-0.201-3.027C160.98,171.705,160.919,171.197,160.846,170.864z"/>
		<path fill="#676868" d="M165.709,170.461c-0.813-0.078-1.638-0.484-2.472-1.218s-1.343-1.498-1.524-2.295
			c-0.183-0.796,0.044-1.556,0.68-2.279c0.635-0.723,1.359-1.045,2.173-0.966c0.813,0.078,1.638,0.484,2.472,1.217
			c0.834,0.733,1.343,1.5,1.524,2.295c0.183,0.797-0.044,1.557-0.679,2.279C167.247,170.219,166.522,170.539,165.709,170.461z
			 M162.841,166.805c0.179,0.529,0.565,1.055,1.156,1.574c0.593,0.52,1.161,0.834,1.71,0.945c0.549,0.109,1.02-0.058,1.41-0.502
			c0.391-0.445,0.496-0.93,0.313-1.451c-0.181-0.522-0.569-1.046-1.167-1.57c-0.596-0.524-1.166-0.844-1.707-0.957
			s-1.008,0.054-1.398,0.498C162.768,165.787,162.661,166.274,162.841,166.805z"/>
		<path fill="#676868" d="M165.007,161.953l1.693-1.926l5.301,4.66l-0.747,0.85l-4.504-3.96l-0.947,1.077L165.007,161.953z"/>
		<path fill="#676868" d="M172.834,162.354c-0.813-0.077-1.637-0.485-2.471-1.218s-1.344-1.498-1.525-2.295
			c-0.183-0.797,0.044-1.556,0.68-2.279c0.635-0.723,1.359-1.045,2.174-0.967c0.813,0.08,1.637,0.486,2.471,1.219
			s1.343,1.499,1.525,2.295c0.182,0.796-0.045,1.557-0.68,2.279C174.372,162.111,173.647,162.434,172.834,162.354z M169.966,158.697
			c0.18,0.53,0.565,1.056,1.157,1.575c0.592,0.521,1.161,0.835,1.709,0.944c0.549,0.111,1.02-0.057,1.41-0.501
			s0.496-0.929,0.313-1.452c-0.181-0.521-0.569-1.045-1.167-1.57c-0.596-0.523-1.165-0.842-1.707-0.955
			c-0.541-0.113-1.008,0.053-1.398,0.498S169.787,158.168,169.966,158.697z"/>
	</g>
	
		<text transform="matrix(0.6065 -0.7951 0.7951 0.6065 176.999 175.2539)" display="none" fill="#676868" enable-background="new    " font-family="'Montserrat-Regular'" font-size="11.3609">2011</text>
	<g enable-background="new    ">
		<path fill="#676868" d="M187.147,171.05c-0.084-0.332-0.233-0.588-0.45-0.769c-0.217-0.182-0.472-0.252-0.762-0.214
			s-0.541,0.185-0.752,0.438c-0.37,0.444-0.45,1.004-0.241,1.677l-1.04,0.382c-0.159-0.535-0.21-1.021-0.151-1.459
			s0.275-0.883,0.652-1.336c0.377-0.452,0.851-0.729,1.422-0.832c0.57-0.102,1.105,0.053,1.602,0.467
			c0.279,0.232,0.485,0.526,0.619,0.883c0.132,0.355,0.236,0.893,0.311,1.613l0.238,2.352l2.047-2.461l0.876,0.73l-3.087,3.709
			l-0.775-0.646l-0.284-3.021C187.305,171.887,187.23,171.382,187.147,171.05z"/>
		<path fill="#676868" d="M191.998,170.517c-0.814-0.056-1.65-0.44-2.503-1.151c-0.854-0.71-1.382-1.461-1.586-2.252
			c-0.204-0.792,0.003-1.558,0.618-2.297c0.616-0.74,1.331-1.082,2.146-1.024c0.815,0.057,1.65,0.44,2.504,1.151
			c0.853,0.71,1.382,1.462,1.585,2.252c0.204,0.792-0.002,1.558-0.618,2.297C193.529,170.232,192.813,170.574,191.998,170.517z
			 M189.033,166.938c0.194,0.525,0.593,1.039,1.198,1.543s1.184,0.805,1.734,0.899c0.551,0.096,1.017-0.084,1.396-0.54
			c0.379-0.455,0.471-0.941,0.274-1.459c-0.194-0.517-0.598-1.029-1.208-1.537c-0.61-0.509-1.188-0.813-1.732-0.91
			c-0.543-0.099-1.006,0.08-1.385,0.535S188.84,166.414,189.033,166.938z"/>
		<path fill="#676868" d="M191.069,162.032l1.641-1.971l5.423,4.515l-0.724,0.869l-4.608-3.837l-0.917,1.102L191.069,162.032z"/>
		<path fill="#676868" d="M197.857,158.186c-0.084-0.332-0.234-0.588-0.451-0.769s-0.471-0.252-0.761-0.214
			c-0.291,0.039-0.541,0.186-0.752,0.438c-0.37,0.444-0.451,1.004-0.241,1.677l-1.04,0.383c-0.16-0.535-0.21-1.021-0.151-1.459
			s0.275-0.884,0.652-1.336c0.377-0.453,0.851-0.73,1.422-0.832c0.57-0.104,1.105,0.053,1.602,0.466
			c0.279,0.232,0.485,0.526,0.619,0.883c0.132,0.355,0.236,0.894,0.311,1.612l0.237,2.352l2.048-2.459l0.876,0.729l-3.088,3.708
			l-0.775-0.646l-0.283-3.021C198.015,159.022,197.94,158.518,197.857,158.186z"/>
	</g>
	
		<text transform="matrix(0.62 -0.7846 0.7846 0.62 202.0215 177.8037)" display="none" fill="#676868" enable-background="new    " font-family="'Montserrat-Regular'" font-size="11.3604">2013</text>
	<g enable-background="new    ">
		<path fill="#676868" d="M24.558,141.975v-1.061h4.129v0.93l-1.706,1.908c0.646,0.02,1.151,0.224,1.514,0.61
			c0.364,0.387,0.545,0.85,0.545,1.389c0,0.72-0.244,1.285-0.732,1.695c-0.488,0.411-1.116,0.616-1.883,0.616
			c-0.767,0-1.518-0.245-2.251-0.737l0.505-0.959c0.579,0.404,1.185,0.605,1.817,0.605c0.411,0,0.749-0.096,1.015-0.287
			c0.266-0.192,0.399-0.468,0.399-0.828s-0.148-0.647-0.444-0.863c-0.296-0.215-0.707-0.323-1.231-0.323
			c-0.263,0-0.515,0.037-0.757,0.111v-0.908l1.635-1.898H24.558z"/>
		<path fill="#676868" d="M30.928,147.058c-0.478-0.662-0.717-1.55-0.717-2.66s0.239-1.997,0.717-2.66s1.198-0.994,2.161-0.994
			c0.962,0,1.683,0.331,2.161,0.994c0.478,0.663,0.717,1.55,0.717,2.66s-0.239,1.998-0.717,2.66
			c-0.478,0.663-1.198,0.995-2.161,0.995C32.126,148.053,31.406,147.721,30.928,147.058z M31.781,142.489
			c-0.279,0.484-0.419,1.121-0.419,1.908c0,0.788,0.14,1.424,0.419,1.908s0.715,0.728,1.308,0.728s1.025-0.241,1.297-0.723
			c0.272-0.48,0.409-1.118,0.409-1.913c0-0.794-0.136-1.432-0.409-1.913s-0.705-0.722-1.297-0.722S32.061,142.005,31.781,142.489z"
			/>
	</g>
	<g enable-background="new    ">
		<path fill="#676868" d="M27.183,125.794v-1.292h1.131v1.292h0.848v1.08h-0.848v1.777h-1.131v-1.777h-3.029v-1.05l2.595-4.23h1.302
			l-2.554,4.2H27.183z"/>
		<path fill="#676868" d="M30.868,127.737c-0.478-0.662-0.717-1.55-0.717-2.66s0.239-1.997,0.717-2.66s1.198-0.994,2.161-0.994
			c0.962,0,1.683,0.331,2.161,0.994c0.478,0.663,0.717,1.55,0.717,2.66s-0.239,1.998-0.717,2.66
			c-0.478,0.663-1.198,0.995-2.161,0.995C32.065,128.732,31.346,128.4,30.868,127.737z M31.721,123.169
			c-0.279,0.484-0.419,1.121-0.419,1.908c0,0.788,0.14,1.424,0.419,1.908s0.715,0.728,1.308,0.728s1.025-0.241,1.297-0.723
			c0.272-0.48,0.409-1.118,0.409-1.913c0-0.794-0.136-1.432-0.409-1.913s-0.705-0.722-1.297-0.722S32,122.685,31.721,123.169z"/>
	</g>
	<g enable-background="new    ">
		<path fill="#676868" d="M29.5,101.708v1.08h-2.979v1.736c0.296-0.161,0.633-0.242,1.01-0.242c0.66,0,1.228,0.199,1.706,0.596
			c0.478,0.397,0.717,0.936,0.717,1.615c0,0.681-0.249,1.244-0.747,1.691c-0.498,0.448-1.11,0.672-1.837,0.672
			c-0.949,0-1.706-0.316-2.271-0.949l0.636-0.868c0.054,0.054,0.126,0.117,0.217,0.191s0.278,0.174,0.561,0.298
			c0.283,0.125,0.592,0.187,0.929,0.187c0.336,0,0.643-0.101,0.919-0.303c0.276-0.201,0.414-0.496,0.414-0.883
			c0-0.388-0.146-0.687-0.439-0.898c-0.293-0.213-0.663-0.318-1.111-0.318s-0.873,0.111-1.277,0.333l-0.505-0.545v-3.393H29.5z"/>
		<path fill="#676868" d="M31.752,107.861c-0.478-0.662-0.717-1.55-0.717-2.66s0.239-1.997,0.717-2.66s1.198-0.994,2.161-0.994
			c0.962,0,1.683,0.331,2.161,0.994c0.478,0.663,0.717,1.55,0.717,2.66s-0.239,1.998-0.717,2.66
			c-0.478,0.663-1.198,0.995-2.161,0.995C32.95,108.856,32.23,108.524,31.752,107.861z M32.605,103.293
			c-0.279,0.484-0.419,1.121-0.419,1.908c0,0.788,0.14,1.424,0.419,1.908s0.715,0.728,1.308,0.728s1.025-0.241,1.297-0.723
			c0.272-0.48,0.409-1.118,0.409-1.913c0-0.794-0.136-1.432-0.409-1.913s-0.705-0.722-1.297-0.722S32.884,102.809,32.605,103.293z"
			/>
	</g>
	<g enable-background="new    ">
		<path fill="#676868" d="M28.167,82.845c-0.626,0-1.087,0.212-1.383,0.636c-0.296,0.424-0.448,0.996-0.455,1.717
			c0.168-0.188,0.411-0.365,0.727-0.53s0.667-0.247,1.05-0.247c0.632,0,1.163,0.21,1.59,0.631s0.641,0.979,0.641,1.676
			s-0.23,1.257-0.691,1.681c-0.461,0.425-1.042,0.637-1.742,0.637c-1.131,0-1.912-0.505-2.342-1.515
			c-0.242-0.579-0.363-1.231-0.363-1.959c0-0.727,0.077-1.332,0.232-1.817c0.155-0.484,0.367-0.868,0.636-1.15
			c0.525-0.552,1.169-0.828,1.933-0.828c0.764,0,1.456,0.239,2.075,0.717l-0.596,0.878c-0.155-0.134-0.362-0.255-0.621-0.363
			C28.599,82.898,28.369,82.845,28.167,82.845z M27.95,85.47c-0.407,0-0.747,0.112-1.02,0.338c-0.273,0.226-0.409,0.519-0.409,0.879
			c0,0.359,0.131,0.67,0.394,0.929c0.262,0.259,0.592,0.389,0.989,0.389s0.727-0.116,0.989-0.349
			c0.263-0.232,0.394-0.528,0.394-0.889c0-0.359-0.121-0.666-0.364-0.918C28.682,85.596,28.357,85.47,27.95,85.47z"/>
		<path fill="#676868" d="M32.165,88.049c-0.478-0.662-0.717-1.55-0.717-2.66s0.239-1.997,0.717-2.66s1.198-0.994,2.161-0.994
			c0.962,0,1.683,0.331,2.161,0.994c0.478,0.663,0.717,1.55,0.717,2.66s-0.239,1.998-0.717,2.66
			c-0.478,0.663-1.198,0.995-2.161,0.995C33.363,89.044,32.643,88.712,32.165,88.049z M33.018,83.48
			c-0.279,0.484-0.419,1.121-0.419,1.908c0,0.788,0.14,1.424,0.419,1.908s0.715,0.728,1.308,0.728s1.025-0.241,1.297-0.723
			c0.272-0.48,0.409-1.118,0.409-1.913c0-0.794-0.136-1.432-0.409-1.913s-0.705-0.722-1.297-0.722S33.297,82.996,33.018,83.48z"/>
	</g>
	<g enable-background="new    ">
		<path fill="#676868" d="M24.183,64.921v-2.029h4.967v1.061l-2.988,5.997H24.85l2.917-5.977h-2.503v0.948H24.183z"/>
		<path fill="#676868" d="M30.746,69.035c-0.478-0.662-0.717-1.55-0.717-2.66s0.239-1.997,0.717-2.66s1.198-0.994,2.161-0.994
			c0.962,0,1.683,0.331,2.161,0.994c0.478,0.663,0.717,1.55,0.717,2.66s-0.239,1.998-0.717,2.66
			c-0.478,0.663-1.198,0.995-2.161,0.995C31.943,70.03,31.224,69.698,30.746,69.035z M31.599,64.467
			c-0.279,0.484-0.419,1.121-0.419,1.908c0,0.788,0.14,1.424,0.419,1.908s0.715,0.728,1.308,0.728s1.025-0.241,1.297-0.723
			c0.272-0.48,0.409-1.118,0.409-1.913c0-0.794-0.136-1.432-0.409-1.913s-0.705-0.722-1.297-0.722S31.878,63.982,31.599,64.467z"/>
	</g>
	<g enable-background="new    ">
		<path fill="#676868" d="M24.359,43.976c0.451-0.357,1.016-0.535,1.696-0.535s1.245,0.178,1.696,0.535
			c0.451,0.356,0.676,0.806,0.676,1.348s-0.252,1.021-0.757,1.438c0.68,0.431,1.02,1.036,1.02,1.817
			c0,0.605-0.242,1.114-0.727,1.524c-0.484,0.411-1.121,0.616-1.908,0.616s-1.423-0.205-1.908-0.616
			c-0.484-0.41-0.727-0.919-0.727-1.524c0-0.781,0.34-1.387,1.02-1.817c-0.505-0.417-0.757-0.896-0.757-1.438
			S23.908,44.332,24.359,43.976z M25.066,49.392c0.31,0.199,0.639,0.298,0.989,0.298s0.68-0.099,0.99-0.298
			c0.31-0.198,0.464-0.482,0.464-0.853s-0.148-0.656-0.444-0.858c-0.296-0.202-0.633-0.303-1.01-0.303s-0.713,0.101-1.009,0.303
			c-0.296,0.202-0.444,0.488-0.444,0.858S24.756,49.193,25.066,49.392z M25.162,46.182c0.252,0.205,0.55,0.308,0.894,0.308
			s0.641-0.103,0.894-0.308c0.252-0.206,0.379-0.458,0.379-0.758c0-0.299-0.126-0.55-0.379-0.752s-0.55-0.303-0.894-0.303
			s-0.641,0.101-0.894,0.303s-0.378,0.453-0.378,0.752C24.783,45.724,24.909,45.976,25.162,46.182z"/>
		<path fill="#676868" d="M30.578,49.725c-0.478-0.662-0.717-1.55-0.717-2.66s0.239-1.997,0.717-2.66s1.198-0.994,2.161-0.994
			c0.962,0,1.683,0.331,2.161,0.994c0.478,0.663,0.717,1.55,0.717,2.66s-0.239,1.998-0.717,2.66
			c-0.478,0.663-1.198,0.995-2.161,0.995C31.776,50.72,31.056,50.388,30.578,49.725z M31.431,45.156
			c-0.279,0.484-0.419,1.121-0.419,1.908c0,0.788,0.14,1.424,0.419,1.908s0.715,0.728,1.308,0.728s1.025-0.241,1.297-0.723
			c0.272-0.48,0.409-1.118,0.409-1.913c0-0.794-0.136-1.432-0.409-1.913s-0.705-0.722-1.297-0.722S31.71,44.672,31.431,45.156z"/>
	</g>
	<g enable-background="new    ">
		<path fill="#676868" d="M25.592,30.772c0.626,0,1.087-0.212,1.383-0.636c0.296-0.425,0.447-0.996,0.454-1.717
			c-0.168,0.188-0.411,0.365-0.727,0.53c-0.317,0.165-0.667,0.247-1.05,0.247c-0.633,0-1.163-0.21-1.59-0.631
			c-0.428-0.421-0.641-0.979-0.641-1.676c0-0.697,0.23-1.257,0.691-1.682c0.461-0.424,1.042-0.636,1.742-0.636
			c1.131,0,1.911,0.505,2.342,1.515c0.242,0.579,0.363,1.231,0.363,1.958c0,0.728-0.078,1.333-0.232,1.817
			c-0.155,0.485-0.367,0.868-0.636,1.151c-0.525,0.552-1.169,0.828-1.934,0.828c-0.764,0-1.456-0.239-2.075-0.717l0.596-0.879
			c0.155,0.135,0.362,0.256,0.621,0.363C25.159,30.719,25.39,30.772,25.592,30.772z M25.809,28.147c0.407,0,0.747-0.113,1.02-0.339
			c0.272-0.225,0.409-0.518,0.409-0.878s-0.131-0.67-0.394-0.929s-0.591-0.389-0.984-0.389s-0.719,0.116-0.974,0.349
			c-0.256,0.231-0.384,0.529-0.384,0.893c0,0.364,0.116,0.67,0.348,0.919C25.082,28.022,25.401,28.147,25.809,28.147z"/>
		<path fill="#676868" d="M30.468,30.848c-0.478-0.662-0.717-1.55-0.717-2.66s0.239-1.997,0.717-2.66s1.198-0.994,2.161-0.994
			c0.962,0,1.683,0.331,2.161,0.994c0.478,0.663,0.717,1.55,0.717,2.66s-0.239,1.998-0.717,2.66
			c-0.478,0.663-1.198,0.995-2.161,0.995C31.666,31.843,30.946,31.511,30.468,30.848z M31.321,26.279
			c-0.279,0.484-0.419,1.121-0.419,1.908c0,0.788,0.14,1.424,0.419,1.908s0.715,0.728,1.308,0.728s1.025-0.241,1.297-0.723
			c0.272-0.48,0.409-1.118,0.409-1.913c0-0.794-0.136-1.432-0.409-1.913s-0.705-0.722-1.297-0.722S31.601,25.795,31.321,26.279z"/>
	</g>
</g>
<g enable-background="new    ">
	<path fill="#676868" d="M4.315,147.438v-1.31h7.763v1.421l-5.664,4.397h5.664v1.311H4.315v-1.311l5.797-4.509H4.315z"/>
	<path fill="#676868" d="M9.368,140.02H6.17v-1.244h5.908v1.244h-1.077c0.362,0.2,0.647,0.477,0.855,0.828
		c0.207,0.352,0.311,0.73,0.311,1.138c0,0.667-0.203,1.205-0.611,1.616c-0.406,0.41-0.995,0.616-1.766,0.616H6.17v-1.243h3.243
		c1.088,0,1.632-0.452,1.632-1.355c0-0.43-0.143-0.803-0.427-1.121C10.333,140.18,9.916,140.02,9.368,140.02z"/>
	<path fill="#676868" d="M8.88,135.732h3.198v1.244H6.17v-1.244h1.077c-0.362-0.178-0.647-0.445-0.855-0.805
		c-0.207-0.359-0.311-0.746-0.311-1.16c0-0.934,0.385-1.566,1.155-1.899c-0.771-0.585-1.155-1.313-1.155-2.188
		c0-0.666,0.203-1.205,0.61-1.615c0.407-0.411,0.996-0.616,1.767-0.616h3.62v1.243H8.835c-1.088,0-1.633,0.452-1.633,1.355
		c0,0.422,0.136,0.791,0.406,1.105c0.27,0.314,0.664,0.479,1.183,0.494h3.287v1.244H8.835c-0.563,0-0.976,0.1-1.238,0.299
		c-0.263,0.2-0.395,0.516-0.395,0.944c0,0.43,0.144,0.804,0.428,1.122C7.915,135.574,8.332,135.732,8.88,135.732z"/>
	<path fill="#676868" d="M6.081,122.551c0-0.793,0.273-1.47,0.821-2.033c0.549-0.563,1.277-0.844,2.188-0.844
		c0.91,0,1.651,0.279,2.221,0.839c0.57,0.56,0.855,1.21,0.855,1.954s-0.326,1.412-0.978,2.005h0.889v1.244h-8.24v-1.244h3.364
		C6.455,123.982,6.081,123.343,6.081,122.551z M9.135,124.494c0.563,0,1.024-0.17,1.383-0.512c0.359-0.34,0.539-0.754,0.539-1.243
		s-0.178-0.915-0.533-1.277s-0.816-0.544-1.383-0.544s-1.036,0.178-1.41,0.533s-0.562,0.781-0.562,1.277s0.188,0.914,0.562,1.254
		C8.104,124.324,8.572,124.494,9.135,124.494z"/>
	<path fill="#676868" d="M9.668,112.756v4.631c0.43-0.029,0.775-0.227,1.039-0.589c0.263-0.362,0.394-0.777,0.394-1.243
		c0-0.74-0.233-1.304-0.699-1.689l0.777-0.71c0.659,0.637,0.988,1.466,0.988,2.487c0,0.83-0.275,1.535-0.827,2.116
		s-1.292,0.872-2.222,0.872c-0.929,0-1.667-0.297-2.216-0.889c-0.548-0.593-0.821-1.291-0.821-2.094s0.242-1.486,0.728-2.049
		c0.484-0.563,1.153-0.844,2.005-0.844H9.668z M8.69,117.387v-3.388c-0.495,0-0.877,0.155-1.144,0.467s-0.399,0.694-0.399,1.149
		s0.139,0.864,0.416,1.227C7.841,117.205,8.217,117.387,8.69,117.387z"/>
	<path fill="#676868" d="M7.336,108.291c0,0.615,0.2,1.077,0.6,1.388s0.937,0.466,1.61,0.466h2.532v1.244H6.17v-1.244h1.188
		c-0.37-0.199-0.674-0.471-0.911-0.816c-0.236-0.344-0.358-0.708-0.366-1.093l1.255-0.011
		C7.336,108.246,7.336,108.268,7.336,108.291z"/>
	<path fill="#676868" d="M11.284,98.995c0.589,0.592,0.883,1.333,0.883,2.221c0,0.889-0.294,1.629-0.883,2.221
		s-1.309,0.889-2.16,0.889s-1.571-0.296-2.16-0.889s-0.883-1.333-0.883-2.221c0-0.888,0.294-1.629,0.883-2.221
		s1.309-0.888,2.16-0.888S10.695,98.403,11.284,98.995z M10.518,102.555c0.359-0.352,0.539-0.798,0.539-1.338
		s-0.18-0.986-0.539-1.338c-0.358-0.352-0.823-0.527-1.394-0.527S8.09,99.526,7.73,99.878c-0.359,0.352-0.539,0.798-0.539,1.338
		s0.18,0.987,0.539,1.338s0.823,0.527,1.394,0.527S10.159,102.906,10.518,102.555z"/>
	<path fill="#676868" d="M5.681,95.253H6.17v-1.555h0.999v1.555h4.909v1.244H7.169v0.744H6.17v-0.744H5.715
		c-0.622,0-1.116-0.187-1.483-0.561c-0.366-0.374-0.55-0.826-0.55-1.355s0.196-1.013,0.589-1.449l0.878,0.511
		c-0.26,0.244-0.389,0.5-0.389,0.766s0.083,0.474,0.249,0.622C5.176,95.179,5.399,95.253,5.681,95.253z"/>
	<path fill="#676868" d="M4.992,84.036c0.452-0.541,1.148-0.811,2.088-0.811c0.94,0,1.629,0.276,2.066,0.827
		c0.437,0.552,0.655,1.398,0.655,2.538v1.377h2.276v1.311H4.315v-2.666C4.315,85.436,4.541,84.577,4.992,84.036z M8.196,84.963
		c-0.277-0.263-0.685-0.394-1.222-0.394c-0.536,0-0.916,0.167-1.138,0.5c-0.223,0.333-0.333,0.855-0.333,1.566v1.333h3.109v-1.521
		C8.613,85.721,8.475,85.227,8.196,84.963z"/>
	<path fill="#676868" d="M12.078,77.184v1.133H11.29c0.585,0.488,0.877,1.144,0.877,1.965c0,0.615-0.174,1.124-0.522,1.527
		c-0.348,0.403-0.812,0.605-1.394,0.605c-0.581,0-1.016-0.214-1.305-0.644c-0.289-0.429-0.434-1.011-0.434-1.744v-1.61H8.291
		c-0.785,0-1.177,0.437-1.177,1.311c0,0.548,0.199,1.118,0.6,1.71l-0.777,0.555c-0.57-0.718-0.855-1.533-0.855-2.443
		c0-0.696,0.176-1.264,0.527-1.705s0.905-0.661,1.66-0.661H12.078z M9.879,78.428h-0.5v1.399c0,0.896,0.282,1.344,0.845,1.344
		c0.288,0,0.509-0.111,0.66-0.333c0.152-0.222,0.229-0.531,0.229-0.928c0-0.396-0.111-0.742-0.334-1.038
		C10.557,78.576,10.257,78.428,9.879,78.428z"/>
	<path fill="#676868" d="M7.169,73.985h2.999c0.281,0,0.505-0.074,0.672-0.222s0.25-0.355,0.25-0.622s-0.13-0.522-0.389-0.766
		l0.877-0.511c0.393,0.437,0.589,0.92,0.589,1.449s-0.184,0.981-0.55,1.355s-0.86,0.561-1.482,0.561H7.169v0.744H6.17v-0.744H4.315
		v-1.244H6.17v-1.555h0.999V73.985z"/>
	<path fill="#676868" d="M9.668,65.378v4.631c0.43-0.03,0.775-0.226,1.039-0.589c0.263-0.363,0.394-0.777,0.394-1.244
		c0-0.74-0.233-1.303-0.699-1.688l0.777-0.71c0.659,0.637,0.988,1.466,0.988,2.488c0,0.829-0.275,1.534-0.827,2.116
		c-0.552,0.581-1.292,0.872-2.222,0.872c-0.929,0-1.667-0.296-2.216-0.889c-0.548-0.592-0.821-1.29-0.821-2.093
		s0.242-1.486,0.728-2.049c0.484-0.563,1.153-0.844,2.005-0.844H9.668z M8.69,70.01v-3.388c-0.495,0-0.877,0.156-1.144,0.467
		s-0.399,0.694-0.399,1.149c0,0.455,0.139,0.864,0.416,1.227S8.217,70.01,8.69,70.01z"/>
	<path fill="#676868" d="M8.88,62.769h3.198v1.244H6.17v-1.244h1.077c-0.362-0.2-0.647-0.476-0.855-0.827
		c-0.207-0.352-0.311-0.731-0.311-1.139c0-0.666,0.203-1.205,0.61-1.616s0.996-0.616,1.767-0.616h3.62v1.244H8.835
		c-1.088,0-1.633,0.452-1.633,1.355c0,0.43,0.144,0.803,0.428,1.122C7.915,62.609,8.332,62.769,8.88,62.769z"/>
	<path fill="#676868" d="M7.169,55.383h2.999c0.281,0,0.505-0.074,0.672-0.222s0.25-0.355,0.25-0.622s-0.13-0.522-0.389-0.766
		l0.877-0.511c0.393,0.437,0.589,0.92,0.589,1.449s-0.184,0.981-0.55,1.355s-0.86,0.561-1.482,0.561H7.169v0.744H6.17v-0.744H4.315
		v-1.244H6.17v-1.555h0.999V55.383z"/>
	<path fill="#676868" d="M10.313,48.064c0.563,0,1.013,0.204,1.35,0.611c0.337,0.407,0.505,0.929,0.505,1.566
		c0,0.43-0.078,0.876-0.233,1.338c-0.155,0.463-0.374,0.872-0.655,1.227l-0.966-0.6c0.519-0.688,0.777-1.355,0.777-1.999
		c0-0.281-0.064-0.503-0.194-0.667c-0.13-0.163-0.295-0.244-0.494-0.244c-0.296,0-0.563,0.393-0.8,1.177
		c-0.022,0.06-0.037,0.104-0.045,0.133c-0.333,1.229-0.888,1.844-1.665,1.844c-0.548,0-0.987-0.213-1.316-0.639
		s-0.494-0.979-0.494-1.661c0-0.681,0.2-1.325,0.6-1.932l0.922,0.466c-0.318,0.481-0.478,1.003-0.478,1.566
		c0,0.296,0.054,0.537,0.161,0.722s0.269,0.277,0.482,0.277c0.193,0,0.334-0.096,0.423-0.289c0.066-0.133,0.129-0.32,0.188-0.561
		c0.06-0.24,0.118-0.453,0.178-0.639c0.06-0.185,0.126-0.364,0.2-0.539c0.074-0.174,0.178-0.361,0.311-0.561
		C9.335,48.264,9.75,48.064,10.313,48.064z"/>
</g>
</svg>
